<svg xmlns="http://www.w3.org/2000/svg" width="50.2" height="92"><g fill-rule="evenodd"><path fill="#e68132" d="M8 11.6c-1 .6-3.6 4-3.6 4.3l2.4-.5 3.4-1c1.7-.5 2.2-.8 1.7-2.6-.5-1.4-1.7-1.7-2.9-1m25 11.7a42.6 42.6 0 0 0-6.1 2.2L33.2 44c.2.1 4-1.4 4-1.6 0-.1 0-2.7-1-5.4-1.9-6.2-2-5.3-.2-7.3 2.4-2.8 6.6-8.6 7-9 .7-.8-.6-.8-8.1 1.6m-21 6.8c-2.5.7-5.2 1.6-5.2 1.7 0 .2 2.9 1 5.3 1 3 0 2.3-.8 4.8 8 1.2 4 2.4 7.5 2.5 7.6.2.2 3.9-.7 4-1 0-.3-5.7-18.6-5.9-18.6-.1 0-2.5.2-5 1"/><path fill="#43537b" d="M20 3.5c-1.6.4-7 2.7-7.7 3.1-.7.4-.2.8.7 3.3.3 1.2 1.5 4 2.1 6 .7 2.2 1.3 5.3 1.7 6.8.8 2.4 2 2.9 2.3 2.7 2.6-.8 1.4-1.2 5.3 11.1 3.9 12.5 3.6 11.2 1.3 12-.7.2-1 1-.9 1.2l10 31.7 2.5 7.7 1.7-.5c.6-.2 2.7-.5 4.7-1.2 2.8-.9 3.4-1.6 3.4-1.9-.1-.3-1.7-5.8-10-32-2-6.6-2-7.8-2.4-7.8-2.7.3-1.7 2.7-7.5-16-1.9-6-2.7-6-.6-6.4.7-.2 1.5-.5 1.4-.8a84.1 84.1 0 0 1-2.3-11.7c0-1.3-.8-1 5.3-2.8 3-.9 8.5-2.3 8.4-2.4l-15.8-3-2.3.7m.2 9c1.3 1.1 1.2.5-1.7 1.4-3.2.9-2.4.3-3.3-.8.6-1.1 4.8-2 5.6-1.1m1.5 6.3c1.1 1.1 1.2 1.3-1.6 2.2-3.3 1-4 1-3.3-.8.5-1.4 4.5-2 5.5-1M33.9 52c1.2.6.3.6-.1 1.2-4.3 1.7-4 1-5-.1.3-1.2 3.9-2.3 5.2-1.7m2 6.5c1.1.6 1 .9-.4 1.4-4 .3-4.7 1-4.8 0-.2-1.3 3.7-2.4 5-1.8m2 6.7c1 1 .5.2-1.2.7l-1.9.6c-2 .6-2.6.6-2-1 .6-1.3 4.3-2 5.2-1m2 6.7c-1.2.7.5.2-1.2.7l-2.1.6c-2 .6-2.5.7-1.9-.8.6-1.3 4.3-2.3 5.3-1.3m1.2 7.2c1 1 .3.3-.6.8l-2.5 1c-1.5-.2-2.5.2-1.9-1.3 1-1 3.8-1.5 5.4-1.4m2.2 7c-.4.4 0 .4-1.4.9-.6.1-1.5.6-2.3.8-1.7-.1-1.7-.4-1.8-1.2 1.2-.7 4.2-1.8 5.5-1.5"/><path fill="#040404" d="M18.4 1C9 4.2 8.8 4.4 9.4 6.7v1C6.7 8.7 0 16 0 18c0 1.9 1.3 2 5.4.8l7-2 2.6 9-1.6.6a150 150 0 0 0-7.3 2.1c-1.8.5-2.3 2-1.2 3.4l.8.7.7.4c1 .7 3.1 1.2 5.7 1.4h2.4l1 3.6C19 49.6 19 49.6 19.5 50c.5.5 1.7.6 2.6.2.2 0 .5.5 1.4 3.6a4194.6 4194.6 0 0 0 8.6 27.8c3.6 12 2.9 11 7.7 9.5l6.2-2c3.4-1 4.2-1.4 4.2-2.4l-6.4-20.9-6.3-20.4.5-.3c2.2-.5 2.6-1.4 1.8-4a357.4 357.4 0 0 1-2.5-7.8c-.6-1.5 0-3 2-4.4l1.5-1.8a12 12 0 0 1 1.4-1.6l1.5-1.7a14 14 0 0 1 1.4-1.6 28 28 0 0 0 2.8-3.4c.4-.5.5-1.5.2-1.5-.1 0-.3-.2-.4-.5-.5-1-.3-1-9 1.8-5.4 1.7-8.3 2.6-8.4 2.5L27.7 12c0-.2.3-.4 2.2-1l4.5-1.3c10.2-3 9.9-3 10-4 .3-1.2-.5-2-2.4-2.3L40 3 22.8 0c-.9 0-1.5 0-4.4 1m11.8 3.3c7.2 1.3 7 1.2 6 1.6l-6 1.8c-6.8 2-6.5 1.4-4.3 9 1.8 6.3 1.7 5.7.7 6-2.2.6-2.2.6 1.6 12.7 3.6 11.4 3.3 10.9 5.1 10.7h1.2l6.2 19.8 6.1 19.8-9.2 2.9c-.2 0-12.2-38.6-12.3-39.4 0-.2.4-.5.9-.6 2.3-.8 2.4-.3-1.5-12.8-3.8-12.2-3.3-11.3-6.2-10.9-.4 0-.5-.3-1.4-3.3-2.3-7.4-3-9.4-3.6-11.7-1-2.9-1-3-.3-3.3a69 69 0 0 1 10.4-3.4l6.6 1.1m-18.9 7.8c.6 1.8.8 1.6-2.5 2.5l-3.4 1c-.9.3-.9.3-.7 0 .6-1.1 5.4-5.3 6-5l.6 1.5m7.5-.5c-2.6.8-3.3 1.7-2.2 2.7.8.8 5.5-.4 6-1.4.6-1.8-.7-2.2-3.8-1.3M21 18c-2.6.8-2.6.8-2.8 1.3-.4 1 .3 1.9 1.3 1.9 1.3 0 4.8-1.4 5-2C25 17.4 24 17 21 18m21.4 2.7-2.1 2.5c-7.8 8.7-7.1 7-5 14 1 2.7 1.6 5 1.5 5-.3.4-3 1-3.2 1-.4-.5-5.7-18-5.4-18 3.7-1.4 14.2-4.7 14.2-4.5M22.2 37c1.5 5 2.8 9 2.7 9.1l-3.5 1-2.2-7.5c-2.6-9-2.3-8.5-5.2-8.3-2 .1-4.8-.2-4.8-.5a94 94 0 0 1 10-3l3 9.2m9 14.4c-2.7.9-3.2 1.3-2.8 2.6.6 1.5 6.6 0 6.6-1.8 0-1.3-1.3-1.5-3.8-.8m1.9 6c-2.7 1-3.2 1.4-2.7 2.6.5 1.6 6.5 0 6.5-1.7 0-1.3-1.2-1.6-3.8-.8m2.7 5.4c-2.3.7-3 1-3.3 1.3-.8.7-.5 1.8.6 2.2.5.1 4.8-1.2 5.1-1.6.5-.7.3-1.6-.4-2-.6-.2-.7-.2-2 .1m2 6c-2.4.8-3 1-3.4 1.4-.7.7-.5 1.7.6 2.1.5.2 4.9-1.1 5.2-1.5.5-.7.3-1.6-.5-2-.5-.3-.7-.3-2 0m1.9 6.5c-2.4.7-3 1-3.4 1.3-.8.7-.5 1.8.6 2.2.5.1 4.8-1.2 5.1-1.6.5-.7.3-1.6-.4-2-.5-.2-.7-.2-2 .1m2 6c-2.4.8-3 1-3.4 1.4-.7.7-.4 1.7.6 2.1.5.2 4.9-1.1 5.2-1.5.5-.7.3-1.6-.5-2-.5-.3-.6-.3-1.9 0"/></g></svg>