<?xml version="1.0" encoding="UTF-8" standalone="no"?>
<svg
   width="112.02642"
   height="84.951256"
   version="1.1"
   id="svg717"
   sodipodi:docname="gear-hat.svg"
   inkscape:version="1.2.2 (732a01da63, 2022-12-09)"
   xmlns:inkscape="http://www.inkscape.org/namespaces/inkscape"
   xmlns:sodipodi="http://sodipodi.sourceforge.net/DTD/sodipodi-0.dtd"
   xmlns="http://www.w3.org/2000/svg"
   xmlns:svg="http://www.w3.org/2000/svg">
  <defs
     id="defs721" />
  <sodipodi:namedview
     id="namedview719"
     pagecolor="#ffffff"
     bordercolor="#000000"
     borderopacity="0.25"
     inkscape:showpageshadow="2"
     inkscape:pageopacity="0.0"
     inkscape:pagecheckerboard="0"
     inkscape:deskcolor="#d1d1d1"
     showgrid="false"
     inkscape:zoom="0.71064232"
     inkscape:cx="-99.909615"
     inkscape:cy="35.883031"
     inkscape:window-width="1920"
     inkscape:window-height="991"
     inkscape:window-x="-9"
     inkscape:window-y="-9"
     inkscape:window-maximized="1"
     inkscape:current-layer="svg717" />
  <g
     fill-rule="evenodd"
     id="g715"
     transform="translate(-147.54077,-99.613025)">
    <path
       fill="#040404"
       d="m 200.8,99.8 a 69.7,69.7 0 0 0 -38.4,14.8 c -4.3,3.5 -5,4.8 -4,6.2 a 42.5,42.5 0 0 1 3.9,6 c 1.8,2.8 3.4,5.5 3.9,6.6 0.9,2 1,2.3 0.9,2.6 l -0.3,0.3 -1.5,1.3 c -0.7,0.7 -1.6,1.5 -2,1.7 -1.1,0.9 -1.3,1.2 -1.3,2.3 v 1.2 l 2,1.8 c 2,2.2 2,1.9 1.4,3.5 l -0.6,1.5 c -0.2,0.5 -1,0.2 -3.7,-1 -3.4,-1.5 -4.4,-1 -4.7,2.6 l -0.3,3.8 c -0.6,4.1 -0.2,5.7 1.3,6.3 l 0.9,0.4 h -1 c -3.1,0.5 -8.6,3 -9.5,4.5 -1.2,2 2,9.5 4.8,11.4 l 0.7,0.5 c 0.9,0.8 1.5,0.8 6,0.6 a 70,70 0 0 1 21.3,2.3 c 17,3 18.8,3.2 26.7,3.3 a 80.5,80.5 0 0 0 44.2,-9.1 c 2.8,-0.7 4,-2.1 6.4,-6.7 4,-8 0.7,-11 -8.8,-8.4 l -3,0.8 a 23,23 0 0 1 -2.7,-4.4 49,49 0 0 1 4.9,-45.9 c 0.5,-1 -0.9,-3 -2,-3 l -1.1,-0.4 a 43.7,43.7 0 0 0 -2.2,-1 c -3.6,-1.4 -9.7,-3.3 -15.3,-4.5 -7.2,-1.6 -19.4,-2.5 -27,-1.9"
       id="path699" />
    <path
       fill="#5c5c5c"
       d="m 253.9,163.3 a 14.4,14.4 0 0 0 -3.2,0.6 62,62 0 0 0 -13,4.8 132.5,132.5 0 0 1 -14.9,5.1 42.5,42.5 0 0 1 -14.6,1 120.4,120.4 0 0 1 -21.7,-2.6 106,106 0 0 1 -18.2,-5.3 63.3,63.3 0 0 0 -7.7,-1.4 9.2,9.2 0 0 0 -2.5,0.2 20,20 0 0 0 -5.8,2.1 l -0.5,0.5 -0.1,0.2 v 0.2 a 10.4,10.4 0 0 0 1.5,3.4 13,13 0 0 0 2.3,2.5 l 0.7,0.4 0.3,0.1 h 0.3 a 46.9,46.9 0 0 1 17.6,0.7 1511.8,1511.8 0 0 1 21.8,3.7 109,109 0 0 0 13,0.8 165,165 0 0 0 18.3,-1.2 70.7,70.7 0 0 0 13.8,-3.8 227.8,227.8 0 0 1 9,-3.9 l 2.1,-1 1,-2 a 48.9,48.9 0 0 0 2,-4.9 h -0.2 l -0.3,-0.2 z m -38.3,-10.1 a 10.2,10.2 0 0 0 -0.9,0 h 0.2 a 8.5,8.5 0 0 0 1.6,0 z m -31.6,-17 a 4.5,4.5 0 0 0 0,1.2 l 0.1,-0.1 a 3.6,3.6 0 0 0 0,-1 v -0.1 z"
       id="path701" />
    <path
       fill="#5c5c5c"
       d="m 184,136.2 h 0.1 v 0.5 a 3.6,3.6 0 0 1 0,0.7 v -0.6 a 4.6,4.6 0 0 1 0,-0.6 z m 19.3,-10.7 a 3.2,3.2 0 0 0 -1.5,0.4 3.6,3.6 0 0 0 -1,0.8 3.4,3.4 0 0 0 -0.8,1.7 3.8,3.8 0 0 0 0.2,1.8 4.5,4.5 0 0 0 1,1.8 5.1,5.1 0 0 0 1.4,1 4.2,4.2 0 0 0 1.5,0.4 3.6,3.6 0 0 0 1.4,-0.2 3.2,3.2 0 0 0 2,-2 4.2,4.2 0 0 0 0.2,-1 3.7,3.7 0 0 0 -0.3,-1.7 4.5,4.5 0 0 0 -0.5,-1 5,5 0 0 0 -2,-1.7 4,4 0 0 0 -1.6,-0.3 z"
       id="path703" />
    <path
       fill="#5c5c5c"
       d="m 203.3,125.5 a 3.5,3.5 0 0 1 1.6,0.3 4.4,4.4 0 0 1 1.3,0.9 5,5 0 0 1 1.4,2.3 4,4 0 0 1 0,1.7 4.2,4.2 0 0 1 -0.7,1.4 3.3,3.3 0 0 1 -1.4,1.1 3.3,3.3 0 0 1 -1.4,0.2 3.7,3.7 0 0 1 -1.5,-0.4 4.4,4.4 0 0 1 -1.4,-1 5,5 0 0 1 -1,-1.8 4.1,4.1 0 0 1 -0.2,-1.8 3.5,3.5 0 0 1 0.7,-1.7 3.4,3.4 0 0 1 1.6,-1 3.2,3.2 0 0 1 1,-0.2 z M 192.5,115 a 2133.6,2133.6 0 0 1 -12,0.6 49.9,49.9 0 0 0 -6,0.9 333.4,333.4 0 0 1 -6.6,1.2 42.5,42.5 0 0 0 -4.8,1.3 h -0.3 l -0.2,0.2 -0.2,0.2 v 0.2 l 0.3,0.8 0.8,1.3 a 315.3,315.3 0 0 1 6.3,10.7 15,15 0 0 0 0.5,1.1 l 0.3,0.1 h 1.7 l 0.5,0.3 0.5,0.4 0.6,0.6 0.6,0.9 a 47.8,47.8 0 0 1 2.6,4.9 h 0.6 a 7,7 0 0 0 2.4,-1.5 l 0.1,-1 a 36,36 0 0 0 0,-4.2 l 0.2,-0.8 0.2,-0.5 0.3,-0.4 0.4,-0.3 0.6,-0.1 h 0.6 l 2,0.2 a 201,201 0 0 1 9.4,2.2 2.6,2.6 0 0 1 0.9,1 2.3,2.3 0 0 1 0.2,1.3 l -0.2,0.4 -0.1,0.5 v 0.1 h 0.3 l 0.4,-0.4 0.7,-0.6 -0.8,-1.2 a 13.2,13.2 0 0 1 -1.1,-2.5 l -0.4,-1.2 h -2.2 l -2,0.2 -2.1,0.3 a 3,3 0 0 1 -0.7,0 1,1 0 0 1 -0.4,-0.2 0.9,0.9 0 0 1 -0.3,-0.4 l -0.1,-0.7 v -2 a 23.9,23.9 0 0 1 0,-2.6 l 0.3,-0.4 0.3,-0.2 h 1.1 l 0.9,0.3 a 28.8,28.8 0 0 0 4.6,0.6 h 0.5 l 0.3,-0.2 0.1,-0.1 0.3,-0.8 a 12.6,12.6 0 0 1 1.3,-2.2 l 0.7,-1 0.9,-1 -0.3,-0.6 -0.7,-1 a 56.5,56.5 0 0 0 -2.8,-3.8 2,2 0 0 1 -0.2,-0.5 v -0.2 l -0.2,-0.1 h -0.6 z m 8.7,-0.1 v 0.2 a 26.8,26.8 0 0 1 1,3.9 h 1.9 l 1.5,0.2 a 9.7,9.7 0 0 0 1.5,0.2 h 0.2 a 20.8,20.8 0 0 0 2,-3.5 104.6,104.6 0 0 0 -7.7,-0.8 l -0.3,-0.1 v -0.1 z"
       id="path705" />
    <path
       fill="#5c5c5c"
       d="m 243.6,110.4 v 0.2 l -0.4,0.2 -1.5,0.6 a 240.2,240.2 0 0 0 -7.9,2.6 54.1,54.1 0 0 1 -13.4,2 53.2,53.2 0 0 0 -3.7,0.3 l 0.2,0.3 a 0.8,0.8 0 0 1 0.1,0.7 l -0.2,0.4 -0.3,0.4 -0.5,0.5 -1.5,1.2 -2.6,2 -0.7,0.6 0.4,0.6 a 11.2,11.2 0 0 1 1,2 17,17 0 0 1 0.6,1.7 l 0.1,0.6 h 1.3 a 19.8,19.8 0 0 0 3.5,-0.3 l 2.2,-0.2 h 0.9 a 0.7,0.7 0 0 1 0.4,0.4 v 0.3 l 0.1,0.7 v 3.9 a 13.4,13.4 0 0 1 -0.3,1.8 l -0.2,0.2 -0.1,0.2 -0.2,0.1 h -1 l -0.9,-0.2 a 56.1,56.1 0 0 1 -4.6,-1.5 l -1,-0.2 h -0.2 v 0.1 l -0.5,1 a 19,19 0 0 1 -2.2,3.3 l -0.4,0.4 -0.2,0.4 -0.2,0.3 v 0.5 l 0.3,0.5 0.4,0.8 1.5,2.5 0.8,1.5 0.1,0.5 a 0.8,0.8 0 0 1 -0.3,0.8 l -0.5,0.3 a 18.3,18.3 0 0 1 -4.9,1.6 h -0.5 a 0.8,0.8 0 0 1 -0.5,-0.5 V 146 l -0.8,-3.3 -0.7,-2.9 h -1.4 a 11.3,11.3 0 0 1 -2.3,-0.2 l -0.8,-0.3 -0.7,1.3 a 17.9,17.9 0 0 0 -0.5,1.2 h 0.2 l 0.6,-0.3 a 5.3,5.3 0 0 1 1.4,-0.7 2.4,2.4 0 0 1 0.8,0 2,2 0 0 1 0.8,0.3 3,3 0 0 1 0.7,0.6 l 0.4,0.5 0.8,1.3 a 22.1,22.1 0 0 1 1.5,3.7 l 0.6,1.4 1.3,0.2 a 27.7,27.7 0 0 0 6.7,0.5 51,51 0 0 0 20.8,-4.4 l 1,-0.5 -0.2,-1.4 a 33.8,33.8 0 0 1 0,-8.6 52.4,52.4 0 0 1 2.9,-13 61.3,61.3 0 0 1 4.5,-10.7 v -0.3 z m -26.8,-6.8 h -0.4 0.9 -0.4 z m -2.2,-0.2 h -0.5 0.1 a 2.2,2.2 0 0 0 0.8,0 z m -13.6,0 h -0.3 a 2.2,2.2 0 0 0 0.8,0 h -0.4 z m 3.7,-0.2 a 16.4,16.4 0 0 0 -1,0 14.4,14.4 0 0 0 2,0 z m 6,0 a 13.1,13.1 0 0 0 -0.8,0 11.2,11.2 0 0 0 1.8,0 z"
       id="path707" />
    <path
       fill="#848484"
       d="m 203.4,103.3 c -13,0.7 -24.9,4.3 -33.9,10.3 a 42.9,42.9 0 0 0 -6.6,5.4 c 0,0.2 -0.2,0.3 3,-0.7 a 52,52 0 0 1 5.1,-1.2 l 5.7,-1 c 3.3,-0.6 7,-0.9 10.8,-0.9 3.7,0 5.9,-0.1 5.9,-0.4 0,-0.8 4.5,-2.9 6.2,-2.9 0.7,0 1.3,0.8 1.5,2 0,0.5 0.2,1 0.3,1.1 0,0.2 6,0.8 7.8,0.8 0.2,0 0.5,-0.4 0.7,-0.8 1.2,-2.5 1.7,-2.6 4.4,-0.5 l 2.1,1.6 4,-0.1 a 57.5,57.5 0 0 0 21.3,-4.6 c 2.4,-0.8 2.4,-0.8 -0.2,-1.8 a 94.3,94.3 0 0 0 -38,-6.3 m -19.5,35 c 0,0.5 0,0.7 0.1,0.4 v -0.8 0.5 m -1.3,9 h 0.7 -0.7 m -0.2,3.7 h 0.8 -0.8 m 30.4,2.2 h 1 l -0.5,-0.1 H 213 m 4.2,0 h 0.7 -0.7 M 205.5,171 h 1.6 l -0.9,-0.1 h -0.7 m 9.2,0.1 h 0.7 -0.7"
       id="path709" />
    <path
       fill="#aec2d7"
       d="m 235.8,149 c -7,3.3 -19.6,5.1 -27,4 l -1.7,-0.3 -0.8,0.5 c -0.4,0.3 -1.7,0.8 -2.8,1.2 -2.1,0.7 -2.1,0.7 -2,1.2 l 0.3,1.6 0.3,1 2.5,0.6 c 5.5,1.1 5.6,1.5 2,9.4 l -1,2.4 c -0.3,0.7 10,0.5 14.2,-0.2 a 82.1,82.1 0 0 0 22.5,-8 c 0.2,0 0.1,-0.3 -0.3,-0.9 -1.5,-2 -3.2,-6.2 -4.2,-10.5 -0.7,-2.8 -0.5,-2.6 -2,-2 m -54.8,2.4 a 9.1,9.1 0 0 0 -5.4,12.6 c 0.8,1.5 1.3,1.8 5.5,2.9 l 2.7,0.6 1.4,-1 c 5,-3.1 6.1,-9.3 2.7,-13.2 a 7.1,7.1 0 0 0 -7,-1.9"
       id="path711" />
    <path
       fill="#9d9d9d"
       d="m 184.2,137.3 c 0,3.4 -0.7,5.1 -2.3,5.8 l -2.9,1.2 c -3,1.4 -4.3,1.2 -5,-0.9 a 42,42 0 0 0 -2.5,-5.1 l -0.4,-0.5 -1,0.8 c -2.2,1.6 -3.6,3.2 -3.3,3.4 3.3,2.8 3.5,4 1.8,8.5 -1.7,4.2 -2.5,4.5 -7.3,2.4 l -1,-0.4 c -0.1,0 -0.6,5.1 -0.5,5.3 l 2.6,-0.2 c 4.9,-0.5 5.5,-0.2 5.3,3.4 v 1.7 l 1.7,0.5 c 2,0.6 2,0.6 1.7,-0.8 -1.7,-9.2 7.5,-17.5 15.7,-14.3 7.4,2.9 9.1,13 3.3,19.3 -0.7,0.8 -1,1.2 -0.8,1.2 0.4,0.2 4.7,1 5.1,1 0.3,0 0.6,-0.4 1,-1.2 1.2,-2.2 2.5,-2.3 5,0 l 1.5,1.1 0.6,-1.3 2.3,-5.4 c 0,0 -0.8,-0.3 -1.8,-0.4 -4,-0.7 -4.2,-0.8 -4.6,-3.3 a 70,70 0 0 0 -0.7,-3.3 c -0.7,-2.8 -0.3,-3.5 2.5,-4.3 l 2.4,-0.8 0.7,-0.2 -0.7,-2 -1.2,-2.7 -0.3,-0.7 -2.3,1.6 c -3,2.2 -3.6,2.3 -5.1,1 l -2.4,-1.6 c -3.3,-2.2 -3.4,-2.7 -1.4,-7.5 l 0.5,-1.4 a 80,80 0 0 0 -5.9,-1.2 c -0.3,0 -0.3,0 -0.3,1.3 m 27.6,16 h 0.7 l -0.4,-0.1 h -0.3 m -4.5,17.8 h 0.7 -0.7 m 6.2,0 h 0.7 -0.7"
       id="path713" />
  </g>
</svg>
