<svg xmlns="http://www.w3.org/2000/svg" width="181.5" height="326.1"><g fill-rule="evenodd"><path fill="#040404" d="M130 0a56 56 0 0 0-13.5 1.3A321.9 321.9 0 0 0 102 6.7a907.6 907.6 0 0 0-53.3 24.1A40.3 40.3 0 0 0 36 40.3a55.4 55.4 0 0 0-8.5 11.2 39.6 39.6 0 0 0-4.7 22.1 59.4 59.4 0 0 0 2.8 16 111 111 0 0 0 6.9 18.7 17028.1 17028.1 0 0 1 51.6 117.9 1721.6 1721.6 0 0 1 17.7 41l1.8 5a34.9 34.9 0 0 1 .8 6.3c0 .8 0 1.4-.2 1.8 0 .2-.1.4-.3.4h-.3l-1-.8-1.2-1.4a56.5 56.5 0 0 1-6.2-10l-3.2-6a1751.8 1751.8 0 0 0-31.7-62.7 45 45 0 0 0-4.2-5.7 8.6 8.6 0 0 0-2-1.4 5.7 5.7 0 0 0-2.3-.5c-.8 0-1.6 0-2.6.3-1 .2-2 .6-3.2 1l-4 1.7a517.9 517.9 0 0 1-17.3 7.4l-11.6 5-6.1 2.5a34 34 0 0 0-4.3 2.4 8 8 0 0 0-1.4 1.4 6 6 0 0 0-1.4 3.7l.1 2.4.7 3a48.5 48.5 0 0 0 3 8.2 640 640 0 0 0 8.9 19l9 18.5A700 700 0 0 0 33 290.5a217.6 217.6 0 0 0 10 16.3 90.9 90.9 0 0 0 7.4 8.8 47.5 47.5 0 0 0 7.5 6 30.9 30.9 0 0 0 23.8 3.7 63.9 63.9 0 0 0 7.3-1.7 114.1 114.1 0 0 0 17.2-6.2 329.5 329.5 0 0 0 21.2-9.9 319.9 319.9 0 0 0 13.3-7 94.2 94.2 0 0 0 9.3-6.2 46.7 46.7 0 0 0 12.3-14.6 118.8 118.8 0 0 0 5.3-10.5 39.7 39.7 0 0 0 2.4-10 33.4 33.4 0 0 0-.1-7.1 50 50 0 0 0-1.7-8.3 97.1 97.1 0 0 0-3.2-9.8c-1.3-3.7-2.9-7.6-4.7-12a5438 5438 0 0 1-33.8-77 784.9 784.9 0 0 1-11.6-27.1c-.6-1.7-.9-2.6-.8-2.7a211.8 211.8 0 0 1 12.4-4.7 245.2 245.2 0 0 0 16.4-6.2l2.2-1.1a40.5 40.5 0 0 1 5-2.6A54.1 54.1 0 0 0 168.7 87a49.8 49.8 0 0 0 12-25.9 54.6 54.6 0 0 0-10-41 50.4 50.4 0 0 0-31.1-19A61.7 61.7 0 0 0 130 0z"/><path fill="#e8b92b" d="M118.9 18.2c-5.1 1.5-12 5.4-14.7 8.3-1.4 1.5-1.3 1.6 1.5 3.8l3 2.2 3-2.6c6.9-6.1 18.3-8 27-4.7l4 1.6 2-2.4c2.7-3.3 2.3-3.7-4.3-5.8-7-2.3-14.5-2.4-21.5-.4m1.6 12c-1.9.6-4.6 2-6.1 3l-2.7 2 2.7 2.2 2.7 2.2 3.8-2a14 14 0 0 1 11.5-1.2c2.6.8 6-1.9 6-4.7 0-2.4-11.8-3.4-17.9-1.5m-52.8 6c-13.2 5.9-22 11.2-23 14-.4 1-.2 1.2 1 .7 9.2-3.7 12.6-3.8 12.6-.4 0 2.4-5.6 5.2-16.8 8.5-2.6.8-3.3 1.5-4 4.1-1.2 4-1 4 3.2 2.9 8-2.1 7.7 3.8-.3 6.3l-4.7 1.5.6 5.5c.3 3 .7 5.6 1 5.8.1.2 6.7-2.3 14.5-5.6 15-6.3 16.8-6.5 16.8-2.4 0 1.7-1.5 2.6-14 8-7.7 3.2-14.1 6-14.3 6.3-1 1 3.5 9.5 4.7 9 9-3.5 10.8-3.5 10.8.2 0 1.8-.8 2.4-4.6 4.1-2.9 1.3-4.5 2.5-4.3 3 4.8 11.4 3.7 10.8 12.8 6.9 7.3-3.2 10.7-3.6 11.5-1.6 1 2.4-.7 3.7-8.8 7.1a161 161 0 0 0-8.2 3.6c-.5.5 4 9.5 4.8 9.5.4 0 2.8-.8 5.4-1.8 8.9-3.4 10.6 2.2 1.7 5.8l-5.2 2.2c-.3.2 4 9.5 4.4 9.5L80 143c14.6-5.9 17.2-6.3 17.2-2.6 0 2.3-.7 2.6-15.8 8.8l-13.8 5.6 2.5 5.6 2.5 5.6 4.7-1.7c8.6-3.2 11.3 2.2 2.8 5.5-2.4 1-4.4 2.1-4.4 2.6 0 .9 3.1 8.6 3.8 9.3.1.2 3.3-1.1 7-2.8 8.6-3.9 12.7-4.2 13-1.1.2 2-.4 2.4-7.8 5.7-10.3 4.5-9.9 3.8-7 10.1l2.4 5.4 4.9-1.7c5.3-1.9 7.7-1.5 7.7 1 0 2-3.9 4.7-7.7 5.5-2.6.6-2.6 1 .5 7.8l1.8 3.9 14.9-6.2c15.5-6.4 17.3-6.7 17.3-2.6 0 1.8-13.3 8.3-28.8 14.2-.8.3 2.6 9.7 3.5 9.7.3 0 2.4-.8 4.8-1.8 8.2-3.4 10.4 2 2.3 5.7-5 2.3-5 2-1.9 9 1 2.2 2.1 3.6 2.7 3.4l9-3.8c8.3-3.5 10.5-3.7 10.5-.5 0 2.4-.6 2.9-10 7l-8 3.5 2.3 5c3 6.2 2.6 6 6.6 4 4.6-2.4 7.9-2 7.9.7 0 1.8-.9 2.5-5.2 4.6l-5.2 2.5.5 5.3c.3 3 .7 5.5.8 5.6 0 .2 4.5-1.8 10-4.3 10-4.8 13.7-5.4 14.2-2.7.5 2.5-1 3.4-13.7 9.2l-12.2 5.5-1.5 5c-2 6.7-2.3 6.7 11-.2 27.6-14.2 36.6-32.7 26.8-55.1l-33.6-76.6c-41.1-93.8-41.6-95-41.5-110 0-7.5.4-10 2.2-15.2 1.2-3.4 2.1-6.3 2-6.4l-14.2 6m69.1 31.4c-3.8 2.7-9 3.4-13.9 1.8l-4-1.2L117 71l-1.8 2.7 3.1 1.3c11.6 4.9 32.7-2 24.3-7.9-2.8-2-2.3-2-5.8.4m10.8 6.4c-5.5 6.8-21.3 8.7-31 3.8-3-1.6-3.2-1.6-4.3-.2-1.8 2.5-2.2 4.6-1 5.4 10.5 6.7 27.4 5.8 38.9-2 4.6-3.1 4.8-4 1.5-6.3-2.8-2-2.9-2-4-.7M31.5 214.8c-16.3 7-18 8.3-14.5 10.2 2.6 1.4 3.2 2.5 2.7 4.8-1.3 5.4-.6 5.3 17-2.5 9-4 16.9-7.5 17.3-7.8 1.7-1-.7-3.7-3.3-3.7-1.6 0-2.5-.5-2.8-1.5-.6-1.7.2-4.3 1.2-4.3.4 0 .5-.5.3-1.2-.7-1.6.6-2-17.9 6m11.3.7c3 2.9 1.6 4.4-7.2 8.6-7.4 3.5-10 3.7-10.9.9-.9-2.7.4-4 7.7-7.4 8-3.8 8.6-4 10.4-2.1m.5 23.5-16.9 7.6c-.6.3 4 10.6 4.8 10.6l12.9-5.9c13.4-6.2 16-6.7 16.4-3.2.3 2.8.1 3-13.5 9-14.3 6.6-13.4 5.5-10.4 11.5l2.6 5.1 3-1.6c6-3 8.9 2.5 3.1 5.8-3.4 2-3.4 1.6-.3 7l2.5 4.5 6.6-3.3c7.4-3.8 8.6-4 9.8-1.7 1.4 2.5.4 3.5-6.2 7-7.1 3.8-7 3.5-3.5 8.8 2.6 4 2.7 4 4.6 2.8 4.4-3 8.6 1.8 4.3 4.8-2.6 1.8 2 4.7 5 3.1 1-.5 2-.4 3.2.5 4 2.9 17.9-3.5 26.1-12.1 2.5-2.7 3-3.6 2-4-5.5-1.9-13-13.6-26.8-42-7.5-15.5-11-21.7-11.9-21.7-.7 0-8.6 3.4-17.4 7.4"/><path fill="#a47414" d="M117.8 14.8C75 29.1 84.5 91.2 129.3 91.2c50.8 0 52-75.6 1.3-77.6a32 32 0 0 0-12.8 1.2m22.6 3.8c6.6 2 7 2.5 4.3 5.8l-2 2.4-4-1.6a27.9 27.9 0 0 0-27 4.7l-3 2.6-3-2.2c-9.3-7.1 19.2-16.7 34.7-11.7M135.2 30c3.7 1 3.9 1.6 1.6 4.8-1.5 2.1-2 2.3-4.4 1.6a14 14 0 0 0-11.5 1.2l-3.8 2-2.7-2.2-2.7-2.3 2.7-1.9a26 26 0 0 1 20.8-3.2m.3 10.5c7.8 4.5 9 15.6 2.6 22.1-8.7 8.7-23.6 2.4-23.6-10 0-11 11.5-17.6 21-12m7.1 26.5c8.4 6-12.7 12.8-24.3 8l-3.1-1.4L117 71l2-2.9 4 1.2c4.8 1.6 10 1 13.8-1.8 3.5-2.5 3-2.4 5.8-.4m9.1 7.5c3.3 2.3 3 3.2-1.5 6.3-11.5 7.8-28.4 8.7-39 2-1.1-.8-.7-3 1.1-5.4 1.1-1.4 1.3-1.4 4.4.2 9.6 4.9 25.4 3 31-3.8 1.1-1.4 1.2-1.4 4 .7m5.2 178c0 2.3.1 3.1.3 1.9a15 15 0 0 0 0-4.2c-.2-1-.4 0-.3 2.3m-39.7 25.2c0 2 .1 3 .3 1.9.2-1 .2-2.7 0-3.7s-.3-.2-.3 1.8m-21 23-2.8 3 3-2.8c3-2.6 3.6-3.3 3-3.3-.2 0-1.6 1.4-3.2 3"/></g></svg>