<?xml version="1.0" encoding="UTF-8" standalone="no"?>
<svg
   xml:space="preserve"
   width="58.892193"
   height="93.660469"
   version="1.1"
   id="svg1058"
   sodipodi:docname="screwdriver.svg"
   inkscape:version="1.2.2 (732a01da63, 2022-12-09)"
   xmlns:inkscape="http://www.inkscape.org/namespaces/inkscape"
   xmlns:sodipodi="http://sodipodi.sourceforge.net/DTD/sodipodi-0.dtd"
   xmlns="http://www.w3.org/2000/svg"
   xmlns:svg="http://www.w3.org/2000/svg"><defs
     id="defs1062" /><sodipodi:namedview
     id="namedview1060"
     pagecolor="#ffffff"
     bordercolor="#000000"
     borderopacity="0.25"
     inkscape:showpageshadow="2"
     inkscape:pageopacity="0.0"
     inkscape:pagecheckerboard="0"
     inkscape:deskcolor="#d1d1d1"
     showgrid="false"
     inkscape:zoom="3.6727072"
     inkscape:cx="1.6336723"
     inkscape:cy="30.903634"
     inkscape:window-width="1920"
     inkscape:window-height="991"
     inkscape:window-x="-9"
     inkscape:window-y="-9"
     inkscape:window-maximized="1"
     inkscape:current-layer="svg1058" /><g
     fill-rule="evenodd"
     id="g1056"
     transform="rotate(-72.585044,39.400414,52.012931)"><path
       fill="#040404"
       d="m 68.7,2.1 c -5.3,2.7 -5,2.4 -5.9,5.9 l -0.7,2.8 -2.6,2.6 A 979.9,979.9 0 0 1 40.3,31.9 l -0.5,0.5 -1,-1 c -3,-3.2 -7.3,-2.2 -8,1.8 -0.2,1.1 -0.3,1.2 -0.8,1.2 -1.5,0 -1.3,-0.2 -14.3,12.5 a 5035,5035 0 0 1 -8.5,8.3 c -7.6,7.4 -7.2,7 -7.2,9.4 0,1.8 0.3,2.4 3,5.1 l 3.2,3.5 c 6.3,6.7 6.2,6.6 8.4,6.7 2.2,0 1.9,0.2 11,-8.8 l 14,-13.9 c 5.7,-5.6 5.8,-5.8 5.7,-7.2 v -0.8 h 0.9 c 4.7,-0.7 5.8,-4.9 2.2,-8.3 l -1.4,-1.3 7.3,-7.2 11,-11 3.7,-3.4 2.2,-0.6 c 3.7,-1.1 3.3,-0.7 6,-6 a 55,55 0 0 0 2.3,-4.8 c 0,-1.4 -0.5,-2 -4,-5.4 -1.8,-1.6 -1.8,-1.6 -6.8,1"
       id="path1044" /><path
       fill="#ba0b0b"
       d="m 34.2,33.1 c -0.3,0.4 -0.4,0.7 -0.3,1 0.6,3.2 -0.6,4.8 -2.8,3.8 -1.3,-0.6 0.6,-2.3 -14.8,12.8 L 6.2,60.5 c -3.7,3.6 -3.9,4.1 -1.8,6.2 0.6,0.8 2.7,3 4.7,5 4.8,5.2 4.6,5 5.6,5 h 0.8 L 29,63.5 42.3,50.2 41.9,49 c -1,-2.6 -0.2,-3.5 2.2,-3.1 1.4,0.2 1.6,0.2 2.4,-0.1 1.7,-0.7 1.8,-0.7 -4.8,-7.3 -6.5,-6.4 -6.6,-6.5 -7.4,-5.4 m -1.8,8.6 c 1.3,1 1,1.3 -5,7.3 C 7.8,68 9.5,66.6 8.4,66.2 7.8,66 7.4,65.2 7.6,64.5 8,64 30.3,42 31,41.5 c 0.6,-0.2 1,-0.1 1.4,0.2 m 5.6,6 c 1.1,1 1.5,0.6 -11,13 A 402.7,402.7 0 0 1 15.2,72.2 c -1,0.3 -2,-0.6 -1.8,-1.7 0,-0.4 3,-3.5 11.5,-12 C 37.4,46.3 37,46.7 38,47.8"
       id="path1046" /><path
       fill="#b1b1b1"
       d="M 72.4,3.7 69,5.5 c -2.7,1.3 -2.7,1.3 -2.9,2.1 -1.4,5.2 -1.3,5.2 -2.8,6.4 A 903.4,903.4 0 0 1 42.5,34 l -0.6,0.6 1.4,1.5 1.4,1.4 3.8,-3.8 18.9,-18.6 2.3,-0.8 c 3,-0.9 2.8,-0.7 4.8,-4.7 L 76.2,6.2 74.7,4.8 C 73.2,3 73.2,3 72.4,3.7"
       id="path1048" /><path
       fill="#2d0a0a"
       d="m 54.9,27.6 -1.4,1.5 1.6,-1.5 1.3,-1.5 -1.5,1.5 M 22.9,44 20.8,46.2 23,44 m 21.7,2.3 0.8,-0.1 h -0.8 m -11.2,4 -2.5,2.6 2.5,-2.5 2.6,-2.7 -2.6,2.6 M 24,52.1 21.4,54.8 24,52 m -9,-0.4 -1.7,1.7 1.7,-1.7 c 1.6,-1.5 1.8,-1.7 1.6,-1.7 L 15,51.7 M 32.5,60 28.2,64.3 32.6,60 36.9,55.6 32.5,60 M 6.6,59.9 5,61.6 6.7,59.9 m 6.2,3.1 -2.5,2.5 2.5,-2.4 m -6.7,5.9 1,0.9 c 0.1,0 0,-0.2 -0.9,-1 l -1,-0.9 1,1 m 8,0.2 -0.5,0.6 0.6,-0.6 0.6,-0.6 c 0,-0.2 -0.1,0 -0.7,0.6 m -5,3.1 0.8,0.7 -0.5,-0.7 -0.8,-0.6 0.6,0.6 m 8,2.6 -1.7,1.7 1.7,-1.6 m -5,0.6 1,0.9 c 0,0 -0.3,-0.5 -0.9,-1 l -0.9,-0.8 0.9,1"
       id="path1050" /><path
       fill="#646464"
       d="M 74.6,4.6 75.4,5.2 74.8,4.6 74,3.9 74.6,4.6 m -10.3,13.6 -1.3,1.4 1.4,-1.4 1.4,-1.4 -1.5,1.4 M 47.7,34.7 46,36.4 47.7,34.7"
       id="path1052" /><path
       fill="#343434"
       d="m 61.1,16 -1.1,1.2 1.3,-1.3 c 1.2,-1.2 1.4,-1.4 1.2,-1.4 L 61.1,16 m 5.4,0.1 -0.8,0.9 0.9,-0.8 0.8,-0.8 c 0,-0.2 -0.2,0 -1,0.7 M 56.1,20.8 55,22 l 1.2,-1.1 1.2,-1.3 -1.3,1.2 m 4.1,1.6 -2.7,2.6 2.8,-2.8 m -9.1,3.2 -1.2,1.2 1.1,-1 c 1,-1 1.2,-1.2 1,-1.2 l -1,1.1 m -5,4.7 -1,1.1 1.1,-1 1.1,-1.2 -1.1,1.1 m -4.4,4.2 c 0,0 0.2,0.5 0.6,0.9 l 0.8,0.7 -0.7,-0.7 c -0.4,-0.4 -0.6,-0.8 -0.5,-1 v -0.1 l -0.2,0.2"
       id="path1054" /></g></svg>
