<?xml version="1.0" encoding="UTF-8" standalone="no"?>
<svg
   version="1.1"
   viewBox="0 0 55.218819 606.32526"
   id="svg246"
   sodipodi:docname="wood_frame.svg"
   width="55.218819"
   height="606.32526"
   inkscape:version="1.2.2 (732a01da63, 2022-12-09)"
   xmlns:inkscape="http://www.inkscape.org/namespaces/inkscape"
   xmlns:sodipodi="http://sodipodi.sourceforge.net/DTD/sodipodi-0.dtd"
   xmlns="http://www.w3.org/2000/svg"
   xmlns:svg="http://www.w3.org/2000/svg">
  <defs
     id="defs250" />
  <sodipodi:namedview
     id="namedview248"
     pagecolor="#ffffff"
     bordercolor="#000000"
     borderopacity="0.25"
     inkscape:showpageshadow="2"
     inkscape:pageopacity="0.0"
     inkscape:pagecheckerboard="0"
     inkscape:deskcolor="#d1d1d1"
     showgrid="false"
     inkscape:zoom="1.7345695"
     inkscape:cx="173.53009"
     inkscape:cy="211.86814"
     inkscape:window-width="2400"
     inkscape:window-height="1261"
     inkscape:window-x="2391"
     inkscape:window-y="-9"
     inkscape:window-maximized="1"
     inkscape:current-layer="svg246" />
  <g
     stroke-width="2"
     fill="none"
     stroke-linecap="butt"
     id="g222"
     transform="translate(-311.92558,-122.79602)">
    <path
       stroke="#625f5b"
       vector-effect="non-scaling-stroke"
       d="m 354.96,132.17 q -0.92,0.52 -0.74,1.59 0.41,2.37 0.73,4.7 0.24,1.68 0.58,0.02 0.51,-2.48 0.89,-4.84 0.23,-1.47 -0.65,-1.85"
       id="path192" />
    <path
       stroke="#625f5b"
       vector-effect="non-scaling-stroke"
       d="m 357.5,729.56 q 0.22,-4.8 -0.04,-9.39 -0.02,-0.32 -0.19,-0.61 -0.12,-0.2 -0.28,-0.37 a 0.37,0.37 0 0 0 -0.64,0.2 l -1.32,9.94"
       id="path194" />
    <path
       stroke="#21100d"
       vector-effect="non-scaling-stroke"
       d="m 310.58,502.29 q 0.13,5.36 0.29,10.69 0.02,0.67 0.36,0.91 0.37,0.25 0.38,0.68 l 0.62,25.51"
       id="path196" />
    <path
       stroke="#603502"
       vector-effect="non-scaling-stroke"
       d="m 312.23,540.08 c 0.63,19.75 -0.52,41.15 -0.07,57.21 q 0.59,21.33 0.38,29.25 -0.56,21.86 -0.11,40.71 0.22,9.26 -0.19,19.98 -0.52,13.75 -0.18,28.77 0.1,4.27 0.67,8.83 a 0.73,0.73 0 0 0 0.71,0.64 q 9.9,0.12 19.8,1.98 a 1.42,1.42 0 0 0 1.67,-1.49 C 334,712.64 334.06,697.5 336.3,683.68 q 1.11,-6.87 0.95,-11.79 -0.18,-5.71 -0.41,-11.04 -0.02,-0.52 -0.29,-0.94 a 1.31,1.27 -62.5 0 1 -0.21,-0.71 l -0.3,-17.91 q -0.01,-0.32 0.2,-0.57 0.14,-0.17 0.13,-0.37 -0.03,-0.63 -0.53,-1.02 c -4.1,-3.14 -5.54,-9.17 -2.14,-13.48 2.85,-3.62 5.75,-5.66 10.48,-4.96 5.33,0.78 7.74,5.76 6.37,10.69 -1.54,5.52 -7.21,11.35 -13.33,8.91 q -0.73,-0.29 -0.67,0.5 0.89,12.63 1.64,25.26 0.09,1.48 1.2,4.95 c 1.46,4.6 1.79,9.44 3,14 1.12,4.25 0.87,8.32 1.38,12.57 1.11,9.23 1.7,18.57 2.48,27.73 0.27,3.18 3.22,3.23 5.63,3.33 a 1.6,1.59 5 0 0 1.64,-1.37 l 2.79,-19.45 a 0.82,0.81 -89.5 0 1 0.7,-0.69 l 0.28,-0.04 a 0.32,0.32 0 0 1 0.37,0.3 c 0.24,3.72 -0.5,8.26 0.79,11.78 q 1.07,2.9 0.82,6.84 -0.17,2.71 2.54,2.81 l 3.16,0.11 q 1.23,0.04 1.29,-1.19 0.98,-22.13 0.31,-42.44 c -0.19,-5.73 0.45,-11.87 0.44,-18 q -0.04,-33.85 -0.01,-68.74 0.19,-217.25 0.13,-409.5 0,-13.57 -0.34,-26.6 c -0.34,-12.95 -0.05,-25.1 0.17,-37.47 a 0.97,0.96 -10.2 0 0 -1.32,-0.91 q -2.73,1.08 -5.64,1.12 -1.04,0.01 -1.25,1.03 c -0.8,3.86 -0.99,7.8 -1.83,11.68 q -1.11,5.15 -2.33,10.33 -0.23,0.96 -0.39,-0.02 c -0.17,-1.06 -0.6,-1.94 -0.68,-3.03 q -0.68,-10.13 -2.36,-19.97 a 2.01,2 -5.6 0 0 -2.04,-1.67 l -6.15,0.17 q -0.53,0.01 -0.69,0.51 -0.68,2.07 -0.98,4.18 -1.17,8.38 -2.65,17.41 -0.61,3.73 -1.09,7.73 c -0.77,6.26 -2.13,12.55 -2.87,18.87 q -0.46,3.92 -1.02,7.66 -0.21,1.39 -0.86,2.85 -0.6,1.36 -1.23,2.88 a 0.29,0.28 23.1 0 1 -0.38,0.15 q -0.13,-0.06 -0.26,-0.02 -0.52,0.16 -0.57,-0.37 -0.68,-6.48 -1.52,-12.38 -0.43,-3.02 -0.46,-6.59 c -0.06,-5.35 -0.83,-10.72 -1.12,-16.13 q -0.67,-12.65 -1.76,-25.15 -0.2,-2.36 -2.36,-2.62 -2.93,-0.34 -5.77,0.55 c -0.93,0.29 -1.67,0.13 -2.6,0.27"
       id="path198" />
    <path
       stroke="#582a01"
       vector-effect="non-scaling-stroke"
       d="m 314.78,123.71 q -1.34,-0.98 -2.15,-0.71 -0.49,0.17 -0.5,0.7 l -0.16,9.23"
       id="path200" />
    <path
       stroke="#21100d"
       vector-effect="non-scaling-stroke"
       d="m 311.97,132.93 q 0.55,4.91 0.16,9.41 -0.37,4.29 -0.22,7.36 0.21,4.43 -0.06,8.88 -0.04,0.7 -0.43,1.22 -0.42,0.56 -0.87,1.01"
       id="path202" />
    <path
       stroke="#80440d"
       vector-effect="non-scaling-stroke"
       d="m 312.23,540.08 q 0.18,-12.75 0.34,-25.43 0.08,-6.58 0.34,-13.79 0.27,-7.24 -0.04,-14.12 -0.48,-10.43 -0.5,-19.99 -0.03,-19.47 -0.01,-39.07 0.01,-2.85 0.61,-17.84 0.37,-8.93 -0.21,-17.88"
       id="path204" />
    <path
       stroke="#b65e01"
       vector-effect="non-scaling-stroke"
       d="m 312.76,391.96 q 0.05,-7.44 0.04,-14.88 -0.01,-3.81 0.34,-9.65 0.29,-4.82 0.31,-9.65 c 0.01,-2.84 0.36,-6.05 0.31,-9.12 -0.15,-9.37 0.15,-18.72 0,-28.18 -0.07,-4.66 0.36,-10.12 0.34,-13.98 q -0.28,-41.31 0.37,-53.9 0.31,-5.97 0.04,-10.75 -0.24,-4.2 -0.25,-8.74 -0.05,-25.87 -0.17,-50.46 -0.01,-2.27 -0.37,-4.68 -0.33,-2.24 -0.25,-4.48 0.22,-6.44 0.11,-12.65 0,-0.38 -0.26,-0.66 -0.25,-0.28 -0.25,-0.64 0.08,-3.53 0.23,-7.15 0.06,-1.7 0.41,-3.27 0.41,-1.9 0.21,-3.52 -0.3,-2.33 -0.26,-4.73 0.1,-6.51 -0.09,-13.01 -0.02,-0.65 -0.43,-2.14 -0.57,-2.05 1.64,-2.01"
       id="path206" />
    <path
       stroke="#78390c"
       vector-effect="non-scaling-stroke"
       d="m 312.76,391.96 -0.02,-44.83 q 0,-0.24 0.19,-0.37 0.12,-0.07 0.13,-0.21 0.26,-3.37 -0.28,-6.59 c -0.95,-5.74 -0.37,-12.19 -0.42,-18.12 q 0,-0.07 0,-0.15 0.02,-0.14 0.15,-0.23 0.14,-0.1 0.14,-0.26 -0.02,-8.09 -0.28,-17.12 -0.13,-4.44 -0.06,-9.65 0.08,-5.3 0.12,-9.7 0.05,-5.37 0.63,-10.78 0.27,-2.48 -0.03,-4.89 -0.58,-4.63 -0.58,-8.81 -0.07,-28.44 -0.35,-57.09 c -0.03,-2.66 0.5,-6.37 0.15,-9.66 -0.11,-1 0.37,-2.76 0.37,-4.01 q 0,-13.09 0,-26.17 c 0,-1.28 -0.43,-2.8 -0.23,-4.29 q 0.25,-1.78 0.2,-3.3 -0.06,-1.98 0.23,-3.94 c 0.66,-4.51 0.3,-9.47 0.31,-14.04 q 0.01,-1.74 -1.16,-4.82"
       id="path208" />
    <path
       stroke="#625f5b"
       vector-effect="non-scaling-stroke"
       d="m 348.29,632.49 q 1.86,-4.89 -0.93,-7.9 -3.81,-4.12 -8.33,-1.15 -8.65,5.68 -2.02,13.76 c 1.02,1.24 2.29,2.38 4.06,1.85 q 5.33,-1.61 7.22,-6.56"
       id="path210" />
    <path
       stroke="#b65e01"
       vector-effect="non-scaling-stroke"
       d="m 322.6,129.47 q -0.4,2 -0.42,4.21 -0.32,24.98 0.38,42.58 0.24,5.83 -0.15,10.83 -0.45,5.94 -0.41,11.33 c 0.16,19.49 0.25,44.11 -0.21,67.59 q -0.22,11.02 -0.12,18 0.17,11.55 0.38,22.8 0,0.27 0.27,0.25 l 0.28,-0.02 q 0.36,-0.03 0.39,-0.38 1.02,-11.36 1.3,-22.95 c 0.07,-2.63 0.55,-5.23 0.3,-7.89 q -0.25,-2.72 -0.22,-5.42 0.37,-33.08 0.22,-67.37 c -0.01,-2.45 -0.4,-4.89 -0.2,-7.3 q 0.23,-2.76 0.23,-5.49 0,-15.25 -0.03,-30.49 0,-0.27 -0.1,-0.49 -0.16,-0.35 -0.15,-0.74 0.13,-8.71 -0.04,-16.76 -0.04,-1.93 -0.39,-3.99 -0.08,-0.48 0.16,-0.92 0.54,-1 0.29,-2.2 -0.55,-2.61 -0.55,-5.47 0.01,-0.17 -0.17,-0.19 l -0.32,-0.04 q -0.61,-0.07 -0.72,0.52"
       id="path212" />
    <path
       stroke="#b65e01"
       vector-effect="non-scaling-stroke"
       d="m 347.38,191.19 -0.06,0.84 q -0.03,0.44 0.4,0.54 0.14,0.03 0.27,-0.02 a 0.31,0.31 0 0 1 0.41,0.26 q 0.48,4.81 0.38,9.03 c -0.19,7.96 0.12,14.57 0,21.73 q -0.17,9.31 -0.15,12.87 0.15,31.31 0.06,62.57 -0.03,8.55 0.16,19.97 0.43,26.63 -0.49,55.02 c -0.33,10.08 0.11,20.58 -0.31,30.08 q -0.25,5.73 -0.27,11.44 -0.01,3.81 -0.36,8.01 -0.38,4.69 0.02,8.13 0.34,2.9 -0.15,5.51 -0.36,1.91 -0.17,4.53 0.16,2.25 0.01,4.54 c -0.49,7.2 -0.1,14.15 -0.68,21.24 q -0.07,0.95 -1.01,1.1 l -0.38,0.06 a 0.52,0.52 0 0 1 -0.6,-0.51 q -0.02,-12.33 -0.87,-24.17 -0.82,-11.29 -1.04,-19.96 -0.32,-13.23 -0.82,-26.46 -0.76,-19.91 -0.64,-41.14 0.05,-8.96 -0.41,-17.79 c -0.64,-12.14 -0.17,-24.45 -0.26,-36.43 q -0.23,-30.98 -0.27,-59.67 c -0.01,-7.68 -0.68,-15.66 -0.6,-23.01 q 0.05,-3.97 0.14,-8.32 0.08,-3.94 -0.16,-7.81 c -0.23,-3.53 0.24,-7.48 -0.48,-10.95 q -0.28,-1.34 -0.3,-2.7 0,-0.32 -0.3,-0.4 -0.19,-0.04 -0.26,0.09 -0.07,0.13 -0.09,0.29 -0.52,6.18 -0.27,20.28 0.39,21.11 -0.06,64.27 -0.08,7.74 0.11,15.5 c 0.24,10.04 -0.04,20.36 0.33,31.01 q 0.31,8.86 0.35,15.49 0.13,23.82 0.58,46.25 0.11,5.47 -0.43,19.62 c -0.17,4.57 0.18,8.98 0.32,13.5 q 0.14,4.78 0.05,10.09 -0.48,26.57 1.22,44.61 0.28,2.92 0.79,5.95 0.48,2.84 0.37,5.93 -0.17,4.78 0.69,9.47 0.31,1.66 0.39,3.39 0.07,1.73 0.48,3.3 0.48,1.89 1.08,3.69 0.34,1.03 0.53,-0.03 l 0.35,-2.02 q 0.07,-0.37 0.32,-0.66 0.73,-0.83 0.77,-2.15 0.24,-7.56 0.69,-15.75 c 0.1,-1.83 0.77,-3.39 0.94,-5.18 q 1.42,-14.66 2.44,-30.05 0.32,-4.77 0.23,-9.36 -0.1,-5.04 0.12,-9.78 0.35,-7.76 0.5,-14.65 0.29,-13.32 0.84,-25.93 0.46,-10.57 0.49,-19.99 0.04,-18.65 0.37,-27.5 0.81,-22.37 0.46,-44.75 c -0.29,-19.23 -0.32,-37.01 -0.33,-55.51 q -0.01,-4.3 -0.49,-17.48 -0.33,-8.76 -0.21,-17.48 0.06,-4.32 -0.9,-10.63 -0.03,-0.16 -0.17,-0.21 -0.05,-0.02 -0.09,-0.06 -0.13,-0.14 -0.03,-0.34 0.54,-1.03 1.02,-2.04"
       id="path214" />
    <path
       stroke="#603502"
       vector-effect="non-scaling-stroke"
       d="m 351.95,190.5 q 6,-5.77 5.17,-13.77 c -0.41,-3.97 -3.83,-5.26 -6.87,-6.85 q -0.49,-0.26 -1.03,-0.11 c -3.26,0.88 -6.87,4.42 -8.62,6.96 -2.27,3.3 -0.07,11.94 3.81,13.39 q 1.51,0.56 2.97,1.07"
       id="path216" />
    <path
       stroke="#582a01"
       vector-effect="non-scaling-stroke"
       d="m 351.95,190.5 q -2.03,1.32 -4.57,0.69"
       id="path218" />
    <path
       stroke="#625f5b"
       vector-effect="non-scaling-stroke"
       d="m 343.92,186.03 q 0.03,1.83 1.76,2.8 3.76,2.1 6.34,-1.02 4.35,-5.29 3.18,-11.52 -0.32,-1.68 -1.98,-2.76 -4.3,-2.82 -7.31,-0.05 c -1.49,1.38 -5.73,5.13 -3.91,7.42"
       id="path220" />
  </g>
  <path
     fill="#010001"
     d="m 43.034419,9.3739837 q -0.92,0.52 -0.74,1.5900003 0.41,2.37 0.73,4.7 0.24,1.68 0.58,0.02 0.51,-2.48 0.89,-4.84 0.23,-1.4700003 -0.65,-1.8500003 l 2.38,-9.05999996 a 1.72,1.72 0 0 1 1.65,-1.29000004 l 7.13,-0.1 a 1.52,1.52 0 0 1 1.54,1.52000004 c -0.02,23.98000026 0.5,47.35000026 0.53,70.88000026 0.05,36.749996 -0.25,74.169996 -0.13,111.259996 q 0.34,105.73 0.23,176 -0.01,3.24 0.12,6.51 0.14,3.39 0.12,6.54 -0.29,51.94 -0.32,110.06 c 0,9.92 -0.44,20.14 -0.45,29.92 q -0.03,43.29 0.5,90.72 0.03,2.27 -0.09,4.61 a 1.05,1.05 0 0 1 -1.04,1 q -3.68,0.05 -7.44,0.07 -1.82,0 -3,-0.87 0.22,-4.8 -0.04,-9.39 -0.02,-0.32 -0.19,-0.61 -0.12,-0.2 -0.28,-0.37 a 0.37,0.37 0 0 0 -0.64,0.2 l -1.32,9.94 q -0.97,1.27 -2.53,1.11 -3.4,-0.34 -6.34,-0.5 a 1.62,1.62 0 0 1 -1.53,-1.47 q -0.88,-9.59 -1.4,-18.28 c -0.31,-5.37 -1.35,-10.73 -1.55,-16.2 q -0.18,-4.69 -1.75,-10.62 -0.35,-1.33 -1.02,-0.12 -1.06,1.89 -1.3,4.2 c -0.61,5.99 -1.66,12 -1.62,18.1 0.02,3.56 -0.08,7.04 0.34,10.63 q 0.7,6.09 0.65,11.89 a 1.31,1.31 0 0 1 -1.41,1.3 c -2.16,-0.17 -4.24,0.36 -6.39,0.18 q -8.3700004,-0.71 -18.0700004,-0.48 -1.66,0.04 -1.65,-1.61 0.25,-103.16 0.56,-208.56 c 0.01,-5.09 0.55,-11.05 0.56,-16.61 q 0.13,5.36 0.29,10.69 0.02,0.67 0.36,0.91 0.37,0.25 0.38,0.68 l 0.62,25.51 c 0.63,19.75 -0.52,41.15 -0.07,57.21 q 0.59,21.33 0.38,29.25 -0.56,21.86 -0.11,40.71 0.22,9.26 -0.19,19.98 -0.52,13.75 -0.18,28.77 0.1,4.27 0.67,8.83 a 0.73,0.73 0 0 0 0.71,0.64 q 9.9000004,0.12 19.8000004,1.98 a 1.42,1.42 0 0 0 1.67,-1.49 c -0.91,-13.32 -0.85,-28.46 1.39,-42.28 q 1.11,-6.87 0.95,-11.79 -0.18,-5.71 -0.41,-11.04 -0.02,-0.52 -0.29,-0.94 a 1.27,1.31 27.5 0 1 -0.21,-0.71 l -0.3,-17.91 q -0.01,-0.32 0.2,-0.57 0.14,-0.17 0.13,-0.37 -0.03,-0.63 -0.53,-1.02 c -4.1,-3.14 -5.54,-9.17 -2.14,-13.48 2.85,-3.62 5.75,-5.66 10.48,-4.96 5.33,0.78 7.74,5.76 6.37,10.69 -1.54,5.52 -7.21,11.35 -13.33,8.91 q -0.73,-0.29 -0.67,0.5 0.89,12.63 1.64,25.26 0.09,1.48 1.2,4.95 c 1.46,4.6 1.79,9.44 3,14 1.12,4.25 0.87,8.32 1.38,12.57 1.11,9.23 1.7,18.57 2.48,27.73 0.27,3.18 3.22,3.23 5.63,3.33 a 1.6,1.59 5 0 0 1.64,-1.37 l 2.79,-19.45 a 0.81,0.82 0.5 0 1 0.7,-0.69 l 0.28,-0.04 a 0.32,0.32 0 0 1 0.37,0.3 c 0.24,3.72 -0.5,8.26 0.79,11.78 q 1.07,2.9 0.82,6.84 -0.17,2.71 2.54,2.81 l 3.16,0.11 q 1.23,0.04 1.29,-1.19 0.98,-22.13 0.31,-42.44 c -0.19,-5.73 0.45,-11.87 0.44,-18 q -0.04,-33.85 -0.01,-68.74 0.19,-217.25 0.13,-409.499996 0,-13.57 -0.34,-26.6 c -0.34,-12.95 -0.05,-25.1 0.17,-37.4700003 a 0.96,0.97 79.8 0 0 -1.32,-0.91 q -2.73,1.08 -5.64,1.12 -1.04,0.01 -1.25,1.03 c -0.8,3.86 -0.99,7.8000003 -1.83,11.6800003 q -1.11,5.15 -2.33,10.33 -0.23,0.96 -0.39,-0.02 c -0.17,-1.06 -0.6,-1.94 -0.68,-3.03 q -0.68,-10.13 -2.36,-19.9700003 a 2,2.01 84.4 0 0 -2.04,-1.66999996 l -6.15,0.16999996 q -0.53,0.01 -0.69,0.51 -0.68,2.07 -0.98,4.18 -1.17,8.3800003 -2.65,17.4100003 -0.61,3.73 -1.09,7.73 c -0.77,6.26 -2.13,12.55 -2.87,18.87 q -0.46,3.92 -1.02,7.66 -0.21,1.39 -0.86,2.85 -0.6,1.36 -1.23,2.88 a 0.29,0.28 23.1 0 1 -0.38,0.15 q -0.13,-0.06 -0.26,-0.02 -0.52,0.16 -0.57,-0.37 -0.68,-6.48 -1.52,-12.38 -0.43,-3.02 -0.46,-6.59 c -0.06,-5.35 -0.83,-10.72 -1.12,-16.13 q -0.67,-12.65 -1.76,-25.1500003 -0.2,-2.35999996 -2.36,-2.61999996 -2.9300004,-0.34 -5.7700004,0.55 c -0.93,0.29 -1.67,0.13 -2.6,0.27 q -1.34,-0.98 -2.15,-0.71 -0.49,0.17 -0.5,0.7 l -0.16,9.23000026 q 0.55,4.91 0.16,9.41 -0.37,4.29 -0.22,7.36 0.21,4.43 -0.06,8.88 -0.04,0.7 -0.43,1.22 -0.42,0.56 -0.87,1.01 0.25,-15.75 -0.02,-31.4400003 c -0.04,-2.44 0.26,-4.94 0.51,-7.35999996 a 0.67,0.67 0 0 1 0.64,-0.60000004 l 13.1100004,-0.39 q 2.56,-0.08 2.61,2.48000004 0.17,7.46999996 0.91,15.18000026 c 0.54,5.73 0.41,11.51 1.36,17.13 0.96,5.62 0.78,11.26 1.21,17.04 q 0.07,0.94 0.72,0.26 1.13,-1.19 1.38,-2.85 1.04,-6.85 2.39,-13.97 0.58,-3.06 0.81,-6.05 c 0.22,-2.73 1.18,-5.34 1.47,-8.1 q 1.02,-9.5800003 3.31,-19.69000026 0.15,-0.68000004 0.84,-0.69000004 l 9.76,-0.12 a 1.57,1.57 0 0 1 1.55,1.25000004 z m -6.67,500.3199963 q 1.86,-4.89 -0.93,-7.9 -3.81,-4.12 -8.33,-1.15 -8.65,5.68 -2.02,13.76 c 1.02,1.24 2.29,2.38 4.06,1.85 q 5.33,-1.61 7.22,-6.56 z"
     id="path224" />
  <path
     fill="#be6902"
     d="m 0.3044186,417.28398 q 0.18,-12.75 0.34,-25.43 0.08,-6.58 0.34,-13.79 0.27,-7.24 -0.04,-14.12 -0.48,-10.43 -0.5,-19.99 -0.03,-19.47 -0.01,-39.07 0.01,-2.85 0.61,-17.84 0.37,-8.93 -0.21,-17.88 0.05,-7.44 0.04,-14.88 -0.01,-3.81 0.34,-9.65 0.29,-4.82 0.31,-9.65 c 0.01,-2.84 0.36,-6.05 0.31,-9.12 -0.15,-9.37 0.15,-18.72 0,-28.18 -0.07,-4.66 0.36,-10.12 0.34,-13.98 q -0.28,-41.31 0.37,-53.9 0.31,-5.97 0.04,-10.75 -0.24,-4.2 -0.25,-8.74 -0.05,-25.869996 -0.17,-50.459996 -0.01,-2.27 -0.37,-4.68 -0.33,-2.24 -0.25,-4.48 0.22,-6.44 0.11,-12.65 0,-0.38 -0.26,-0.66 -0.25,-0.28 -0.25,-0.64 0.08,-3.53 0.23,-7.15 0.06,-1.7 0.41,-3.27 0.41,-1.9 0.21,-3.52 -0.3,-2.33 -0.26,-4.73 0.1,-6.51 -0.09,-13.0100003 -0.02,-0.65 -0.43,-2.14 -0.57,-2.04999996 1.64,-2.00999996 c 0.93,-0.14 1.67,0.02 2.6,-0.27 q 2.84,-0.89 5.7700004,-0.55 2.16,0.26 2.36,2.61999996 1.09,12.5000003 1.76,25.1500003 c 0.29,5.41 1.06,10.78 1.12,16.13 q 0.03,3.57 0.46,6.59 0.84,5.9 1.52,12.38 0.05,0.53 0.57,0.37 0.13,-0.04 0.26,0.02 a 0.29,0.28 23.1 0 0 0.38,-0.15 q 0.63,-1.52 1.23,-2.88 0.65,-1.46 0.86,-2.85 0.56,-3.74 1.02,-7.66 c 0.74,-6.32 2.1,-12.61 2.87,-18.87 q 0.48,-4 1.09,-7.73 1.48,-9.03 2.65,-17.4100003 0.3,-2.11 0.98,-4.18 0.16,-0.5 0.69,-0.51 l 6.15,-0.16999996 a 2,2.01 84.4 0 1 2.04,1.66999996 q 1.68,9.8400003 2.36,19.9700003 c 0.08,1.09 0.51,1.97 0.68,3.03 q 0.16,0.98 0.39,0.02 1.22,-5.18 2.33,-10.33 c 0.84,-3.88 1.03,-7.8200003 1.83,-11.6800003 q 0.21,-1.02 1.25,-1.03 2.91,-0.04 5.64,-1.12 a 0.96,0.97 79.8 0 1 1.32,0.91 c -0.22,12.3700003 -0.51,24.5200003 -0.17,37.4700003 q 0.34,13.03 0.34,26.6 0.06,192.249996 -0.13,409.499996 -0.03,34.89 0.01,68.74 c 0.01,6.13 -0.63,12.27 -0.44,18 q 0.67,20.31 -0.31,42.44 -0.06,1.23 -1.29,1.19 l -3.16,-0.11 q -2.71,-0.1 -2.54,-2.81 0.25,-3.94 -0.82,-6.84 c -1.29,-3.52 -0.55,-8.06 -0.79,-11.78 a 0.32,0.32 0 0 0 -0.37,-0.3 l -0.28,0.04 a 0.81,0.82 0.5 0 0 -0.7,0.69 l -2.79,19.45 a 1.6,1.59 5 0 1 -1.64,1.37 c -2.41,-0.1 -5.36,-0.15 -5.63,-3.33 -0.78,-9.16 -1.37,-18.5 -2.48,-27.73 -0.51,-4.25 -0.26,-8.32 -1.38,-12.57 -1.21,-4.56 -1.54,-9.4 -3,-14 q -1.11,-3.47 -1.2,-4.95 -0.75,-12.63 -1.64,-25.26 -0.06,-0.79 0.67,-0.5 c 6.12,2.44 11.79,-3.39 13.33,-8.91 1.37,-4.93 -1.04,-9.91 -6.37,-10.69 -4.73,-0.7 -7.63,1.34 -10.48,4.96 -3.4,4.31 -1.96,10.34 2.14,13.48 q 0.5,0.39 0.53,1.02 0.01,0.2 -0.13,0.37 -0.21,0.25 -0.2,0.57 l 0.3,17.91 a 1.27,1.31 27.5 0 0 0.21,0.71 q 0.27,0.42 0.29,0.94 0.23,5.33 0.41,11.04 0.16,4.92 -0.95,11.79 c -2.24,13.82 -2.3,28.96 -1.39,42.28 a 1.42,1.42 0 0 1 -1.67,1.49 q -9.9,-1.86 -19.8000004,-1.98 a 0.73,0.73 0 0 1 -0.71,-0.64 q -0.57,-4.56 -0.67,-8.83 -0.34,-15.02 0.18,-28.77 0.41,-10.72 0.19,-19.98 -0.45,-18.85 0.11,-40.71 0.21,-7.92 -0.38,-29.25 c -0.45,-16.06 0.7,-37.46 0.07,-57.21 z M 10.674419,6.6739837 q -0.4,2 -0.42,4.2100003 -0.3200004,24.98 0.38,42.58 0.24,5.83 -0.15,10.83 -0.45,5.94 -0.41,11.33 c 0.16,19.49 0.25,44.109996 -0.2100004,67.589996 q -0.22,11.02 -0.12,18 0.17,11.55 0.3800004,22.8 0,0.27 0.27,0.25 l 0.28,-0.02 q 0.36,-0.03 0.39,-0.38 1.02,-11.36 1.3,-22.95 c 0.07,-2.63 0.55,-5.23 0.3,-7.89 q -0.25,-2.72 -0.22,-5.42 0.37,-33.08 0.22,-67.369996 c -0.01,-2.45 -0.4,-4.89 -0.2,-7.3 q 0.23,-2.76 0.23,-5.49 0,-15.25 -0.03,-30.49 0,-0.27 -0.1,-0.49 -0.16,-0.35 -0.15,-0.74 0.13,-8.71 -0.04,-16.76 -0.04,-1.93 -0.39,-3.99 -0.08,-0.48 0.16,-0.92 0.54,-1 0.29,-2.2 -0.55,-2.6100003 -0.55,-5.4700003 0.01,-0.17 -0.17,-0.19 l -0.32,-0.04 q -0.61,-0.07 -0.72,0.52 z m 24.78,61.7200003 -0.06,0.84 q -0.03,0.44 0.4,0.54 0.14,0.03 0.27,-0.02 a 0.31,0.31 0 0 1 0.41,0.26 q 0.48,4.81 0.38,9.03 c -0.19,7.96 0.12,14.57 0,21.729996 q -0.17,9.31 -0.15,12.87 0.15,31.31 0.06,62.57 -0.03,8.55 0.16,19.97 0.43,26.63 -0.49,55.02 c -0.33,10.08 0.11,20.58 -0.31,30.08 q -0.25,5.73 -0.27,11.44 -0.01,3.81 -0.36,8.01 -0.38,4.69 0.02,8.13 0.34,2.9 -0.15,5.51 -0.36,1.91 -0.17,4.53 0.16,2.25 0.01,4.54 c -0.49,7.2 -0.1,14.15 -0.68,21.24 q -0.07,0.95 -1.01,1.1 l -0.38,0.06 a 0.52,0.52 0 0 1 -0.6,-0.51 q -0.02,-12.33 -0.87,-24.17 -0.82,-11.29 -1.04,-19.96 -0.32,-13.23 -0.82,-26.46 -0.76,-19.91 -0.64,-41.14 0.05,-8.96 -0.41,-17.79 c -0.64,-12.14 -0.17,-24.45 -0.26,-36.43 q -0.23,-30.98 -0.27,-59.67 c -0.01,-7.68 -0.68,-15.66 -0.6,-23.009996 q 0.05,-3.97 0.14,-8.32 0.08,-3.94 -0.16,-7.81 c -0.23,-3.53 0.24,-7.48 -0.48,-10.95 q -0.28,-1.34 -0.3,-2.7 0,-0.32 -0.3,-0.4 -0.19,-0.04 -0.26,0.09 -0.07,0.13 -0.09,0.29 -0.52,6.18 -0.27,20.28 0.39,21.109996 -0.06,64.269996 -0.08,7.74 0.11,15.5 c 0.24,10.04 -0.04,20.36 0.33,31.01 q 0.31,8.86 0.35,15.49 0.13,23.82 0.58,46.25 0.11,5.47 -0.43,19.62 c -0.17,4.57 0.18,8.98 0.32,13.5 q 0.14,4.78 0.05,10.09 -0.48,26.57 1.22,44.61 0.28,2.92 0.79,5.95 0.48,2.84 0.37,5.93 -0.17,4.78 0.69,9.47 0.31,1.66 0.39,3.39 0.07,1.73 0.48,3.3 0.48,1.89 1.08,3.69 0.34,1.03 0.53,-0.03 l 0.35,-2.02 q 0.07,-0.37 0.32,-0.66 0.73,-0.83 0.77,-2.15 0.24,-7.56 0.69,-15.75 c 0.1,-1.83 0.77,-3.39 0.94,-5.18 q 1.42,-14.66 2.44,-30.05 0.32,-4.77 0.23,-9.36 -0.1,-5.04 0.12,-9.78 0.35,-7.76 0.5,-14.65 0.29,-13.32 0.84,-25.93 0.46,-10.57 0.49,-19.99 0.04,-18.65 0.37,-27.5 0.81,-22.37 0.46,-44.75 c -0.29,-19.23 -0.32,-37.01 -0.33,-55.51 q -0.01,-4.3 -0.49,-17.479996 -0.33,-8.76 -0.21,-17.48 0.06,-4.32 -0.9,-10.63 -0.03,-0.16 -0.17,-0.21 -0.05,-0.02 -0.09,-0.06 -0.13,-0.14 -0.03,-0.34 0.54,-1.03 1.02,-2.04 6,-5.77 5.17,-13.77 c -0.41,-3.97 -3.83,-5.26 -6.87,-6.85 q -0.49,-0.26 -1.03,-0.11 c -3.26,0.88 -6.87,4.42 -8.62,6.96 -2.27,3.3 -0.07,11.94 3.81,13.39 q 1.51,0.56 2.97,1.07 z"
     id="path226" />
  <path
     fill="#ae5300"
     d="m 2.8544186,0.91398374 q -2.21,-0.04 -1.64,2.00999996 0.41,1.49 0.43,2.14 0.19,6.5000003 0.09,13.0100003 -0.04,2.4 0.26,4.73 0.2,1.62 -0.21,3.52 -0.35,1.57 -0.41,3.27 -0.15,3.62 -0.23,7.15 0,0.36 0.25,0.64 0.26,0.28 0.26,0.66 0.11,6.21 -0.11,12.65 -0.08,2.24 0.25,4.48 0.36,2.41 0.37,4.68 0.12,24.59 0.17,50.459996 0.01,4.54 0.25,8.74 0.27,4.78 -0.04,10.75 -0.65,12.59 -0.37,53.9 c 0.02,3.86 -0.41,9.32 -0.34,13.98 0.15,9.46 -0.15,18.81 0,28.18 0.05,3.07 -0.3,6.28 -0.31,9.12 q -0.02,4.83 -0.31,9.65 -0.35,5.84 -0.34,9.65 0.01,7.44 -0.04,14.88 l -0.02,-44.83 q 0,-0.24 0.19,-0.37 0.12,-0.07 0.13,-0.21 0.26,-3.37 -0.28,-6.59 c -0.95,-5.74 -0.37,-12.19 -0.42,-18.12 q 0,-0.07 0,-0.15 0.02,-0.14 0.15,-0.23 0.14,-0.1 0.14,-0.26 -0.02,-8.09 -0.28,-17.12 -0.13,-4.44 -0.06,-9.65 0.08,-5.3 0.12,-9.7 0.05,-5.37 0.63,-10.78 0.27,-2.48 -0.03,-4.89 -0.58,-4.63 -0.58,-8.81 -0.07,-28.44 -0.35,-57.089996 c -0.03,-2.66 0.5,-6.37 0.15,-9.66 -0.11,-1 0.37,-2.76 0.37,-4.01 q 0,-13.09 0,-26.17 c 0,-1.28 -0.43,-2.8 -0.23,-4.29 q 0.25,-1.78 0.2,-3.3 -0.06,-1.98 0.23,-3.94 c 0.66,-4.51 0.3,-9.47 0.31,-14.04 q 0.01,-1.74 -1.16,-4.82 l 0.16,-9.23000026 q 0.01,-0.53 0.5,-0.7 0.81,-0.27 2.15,0.71 z"
     id="path228" />
  <path
     fill="#ae5300"
     d="m 10.674419,6.6739837 q 0.11,-0.59 0.72,-0.52 l 0.32,0.04 q 0.18,0.02 0.17,0.19 0,2.86 0.55,5.4700003 0.25,1.2 -0.29,2.2 -0.24,0.44 -0.16,0.92 0.35,2.06 0.39,3.99 0.17,8.05 0.04,16.76 -0.01,0.39 0.15,0.74 0.1,0.22 0.1,0.49 0.03,15.24 0.03,30.49 0,2.73 -0.23,5.49 c -0.2,2.41 0.19,4.85 0.2,7.3 q 0.15,34.289996 -0.22,67.369996 -0.03,2.7 0.22,5.42 c 0.25,2.66 -0.23,5.26 -0.3,7.89 q -0.28,11.59 -1.3,22.95 -0.03,0.35 -0.39,0.38 l -0.28,0.02 q -0.27,0.02 -0.27,-0.25 -0.2100004,-11.25 -0.3800004,-22.8 -0.1,-6.98 0.12,-18 c 0.4600004,-23.48 0.3700004,-48.099996 0.2100004,-67.589996 q -0.04,-5.39 0.41,-11.33 0.39,-5 0.15,-10.83 -0.7000004,-17.6 -0.38,-42.58 0.02,-2.2100003 0.42,-4.2100003 z"
     id="path230" />
  <path
     fill="#c2bdb5"
     d="m 43.844419,8.9939837 q 0.88,0.38 0.65,1.8500003 -0.38,2.36 -0.89,4.84 -0.34,1.66 -0.58,-0.02 -0.32,-2.33 -0.73,-4.7 -0.18,-1.0700003 0.74,-1.5900003 0.66,-0.01 0.81,-0.38 z"
     id="path232" />
  <path
     fill="#411f18"
     d="m 0.0444186,10.133984 q 1.17,3.08 1.16,4.82 c -0.01,4.57 0.35,9.53 -0.31,14.04 q -0.29,1.96 -0.23,3.94 0.05,1.52 -0.2,3.3 c -0.2,1.49 0.23,3.01 0.23,4.29 q 0,13.08 0,26.17 c 0,1.25 -0.48,3.01 -0.37,4.01 0.35,3.29 -0.18,7 -0.15,9.66 q 0.28,28.649996 0.35,57.089996 0,4.18 0.58,8.81 0.3,2.41 0.03,4.89 -0.58,5.41 -0.63,10.78 -0.04,4.4 -0.12,9.7 -0.07,5.21 0.06,9.65 0.26,9.03 0.28,17.12 0,0.16 -0.14,0.26 -0.13,0.09 -0.15,0.23 0,0.08 0,0.15 c 0.05,5.93 -0.53,12.38 0.42,18.12 q 0.54,3.22 0.28,6.59 -0.01,0.14 -0.13,0.21 -0.19,0.13 -0.19,0.37 l 0.02,44.83 q 0.58,8.95 0.21,17.88 -0.6,14.99 -0.61,17.84 -0.02,19.6 0.01,39.07 0.02,9.56 0.5,19.99 0.31,6.88 0.04,14.12 -0.26,7.21 -0.34,13.79 -0.16,12.68 -0.34,25.43 l -0.62,-25.51 q -0.01,-0.43 -0.38,-0.68 -0.34,-0.24 -0.36,-0.91 -0.16,-5.33 -0.29,-10.69 l -0.03,-341.479996 q 0.45,-0.45 0.87,-1.01 0.39,-0.52 0.43,-1.22 0.27,-4.45 0.06,-8.88 -0.15,-3.07 0.22,-7.36 0.39,-4.5 -0.16,-9.41 z"
     id="path234" />
  <path
     fill="#010001"
     d="m 40.024419,67.703984 q -2.03,1.32 -4.57,0.69 -1.46,-0.51 -2.97,-1.07 c -3.88,-1.45 -6.08,-10.09 -3.81,-13.39 1.75,-2.54 5.36,-6.08 8.62,-6.96 q 0.54,-0.15 1.03,0.11 c 3.04,1.59 6.46,2.88 6.87,6.85 q 0.83,8 -5.17,13.77 z m -9.95,-9.6 q -0.3,3.27 1.92,5.13 0.03,1.83 1.76,2.8 3.76,2.1 6.34,-1.02 4.35,-5.29 3.18,-11.52 -0.32,-1.68 -1.98,-2.76 -4.3,-2.82 -7.31,-0.05 c -1.49,1.38 -5.73,5.13 -3.91,7.42 z"
     id="path236" />
  <path
     fill="#c2bdb5"
     d="m 31.994419,63.233984 q 2.07,-2.89 -1.92,-5.13 c -1.82,-2.29 2.42,-6.04 3.91,-7.42 q 3.01,-2.77 7.31,0.05 1.66,1.08 1.98,2.76 1.17,6.23 -3.18,11.52 -2.58,3.12 -6.34,1.02 -1.73,-0.97 -1.76,-2.8 z"
     id="path238" />
  <path
     fill="#ae5300"
     d="m 35.454419,68.393984 q 2.54,0.63 4.57,-0.69 -0.48,1.01 -1.02,2.04 -0.1,0.2 0.03,0.34 0.04,0.04 0.09,0.06 0.14,0.05 0.17,0.21 0.96,6.31 0.9,10.63 -0.12,8.72 0.21,17.48 0.48,13.179996 0.49,17.479996 c 0.01,18.5 0.04,36.28 0.33,55.51 q 0.35,22.38 -0.46,44.75 -0.33,8.85 -0.37,27.5 -0.03,9.42 -0.49,19.99 -0.55,12.61 -0.84,25.93 -0.15,6.89 -0.5,14.65 -0.22,4.74 -0.12,9.78 0.09,4.59 -0.23,9.36 -1.02,15.39 -2.44,30.05 c -0.17,1.79 -0.84,3.35 -0.94,5.18 q -0.45,8.19 -0.69,15.75 -0.04,1.32 -0.77,2.15 -0.25,0.29 -0.32,0.66 l -0.35,2.02 q -0.19,1.06 -0.53,0.03 -0.6,-1.8 -1.08,-3.69 -0.41,-1.57 -0.48,-3.3 -0.08,-1.73 -0.39,-3.39 -0.86,-4.69 -0.69,-9.47 0.11,-3.09 -0.37,-5.93 -0.51,-3.03 -0.79,-5.95 -1.7,-18.04 -1.22,-44.61 0.09,-5.31 -0.05,-10.09 c -0.14,-4.52 -0.49,-8.93 -0.32,-13.5 q 0.54,-14.15 0.43,-19.62 -0.45,-22.43 -0.58,-46.25 -0.04,-6.63 -0.35,-15.49 c -0.37,-10.65 -0.09,-20.97 -0.33,-31.01 q -0.19,-7.76 -0.11,-15.5 0.45,-43.16 0.06,-64.269996 -0.25,-14.1 0.27,-20.28 0.02,-0.16 0.09,-0.29 0.07,-0.13 0.26,-0.09 0.3,0.08 0.3,0.4 0.02,1.36 0.3,2.7 c 0.72,3.47 0.25,7.42 0.48,10.95 q 0.24,3.87 0.16,7.81 -0.09,4.35 -0.14,8.32 c -0.08,7.349996 0.59,15.329996 0.6,23.009996 q 0.04,28.69 0.27,59.67 c 0.09,11.98 -0.38,24.29 0.26,36.43 q 0.46,8.83 0.41,17.79 -0.12,21.23 0.64,41.14 0.5,13.23 0.82,26.46 0.22,8.67 1.04,19.96 0.85,11.84 0.87,24.17 a 0.52,0.52 0 0 0 0.6,0.51 l 0.38,-0.06 q 0.94,-0.15 1.01,-1.1 c 0.58,-7.09 0.19,-14.04 0.68,-21.24 q 0.15,-2.29 -0.01,-4.54 -0.19,-2.62 0.17,-4.53 0.49,-2.61 0.15,-5.51 -0.4,-3.44 -0.02,-8.13 0.35,-4.2 0.36,-8.01 0.02,-5.71 0.27,-11.44 c 0.42,-9.5 -0.02,-20 0.31,-30.08 q 0.92,-28.39 0.49,-55.02 -0.19,-11.42 -0.16,-19.97 0.09,-31.26 -0.06,-62.57 -0.02,-3.56 0.15,-12.87 c 0.12,-7.159996 -0.19,-13.769996 0,-21.729996 q 0.1,-4.22 -0.38,-9.03 a 0.31,0.31 0 0 0 -0.41,-0.26 q -0.13,0.05 -0.27,0.02 -0.43,-0.1 -0.4,-0.54 z"
     id="path240" />
  <path
     fill="#c2bdb5"
     d="m 36.364419,509.69398 q -1.89,4.95 -7.22,6.56 c -1.77,0.53 -3.04,-0.61 -4.06,-1.85 q -6.63,-8.08 2.02,-13.76 4.52,-2.97 8.33,1.15 2.79,3.01 0.93,7.9 z"
     id="path242" />
  <path
     fill="#c2bdb5"
     d="m 45.574419,606.76398 q -1.08,-0.46 -2.47,-0.23 l 1.32,-9.94 a 0.37,0.37 0 0 1 0.64,-0.2 q 0.16,0.17 0.28,0.37 0.17,0.29 0.19,0.61 0.26,4.59 0.04,9.39 z"
     id="path244" />
</svg>
