<?xml version="1.0" encoding="UTF-8" standalone="no"?>
<!DOCTYPE svg PUBLIC "-//W3C//DTD SVG 1.1//EN" "http://www.w3.org/Graphics/SVG/1.1/DTD/svg11.dtd">
<svg xmlns="http://www.w3.org/2000/svg" version="1.1" viewBox="0.00 0.00 594.00 852.00">
<g stroke-width="2.00" fill="none" stroke-linecap="butt">
<path stroke="#625f5b" vector-effect="non-scaling-stroke" d="
  M 354.96 132.17
  Q 354.04 132.69 354.22 133.76
  Q 354.63 136.13 354.95 138.46
  Q 355.19 140.14 355.53 138.48
  Q 356.04 136.00 356.42 133.64
  Q 356.65 132.17 355.77 131.79"
/>
<path stroke="#625f5b" vector-effect="non-scaling-stroke" d="
  M 357.50 729.56
  Q 357.72 724.76 357.46 720.17
  Q 357.44 719.85 357.27 719.56
  Q 357.15 719.36 356.99 719.19
  A 0.37 0.37 0.0 0 0 356.35 719.39
  L 355.03 729.33"
/>
<path stroke="#21100d" vector-effect="non-scaling-stroke" d="
  M 310.58 502.29
  Q 310.71 507.65 310.87 512.98
  Q 310.89 513.65 311.23 513.89
  Q 311.60 514.14 311.61 514.57
  L 312.23 540.08"
/>
<path stroke="#603502" vector-effect="non-scaling-stroke" d="
  M 312.23 540.08
  C 312.86 559.83 311.71 581.23 312.16 597.29
  Q 312.75 618.62 312.54 626.54
  Q 311.98 648.40 312.43 667.25
  Q 312.65 676.51 312.24 687.23
  Q 311.72 700.98 312.06 716.00
  Q 312.16 720.27 312.73 724.83
  A 0.73 0.73 0.0 0 0 313.44 725.47
  Q 323.34 725.59 333.24 727.45
  A 1.42 1.42 0.0 0 0 334.91 725.96
  C 334.00 712.64 334.06 697.50 336.30 683.68
  Q 337.41 676.81 337.25 671.89
  Q 337.07 666.18 336.84 660.85
  Q 336.82 660.33 336.55 659.91
  A 1.31 1.27 -62.5 0 1 336.34 659.20
  L 336.04 641.29
  Q 336.03 640.97 336.24 640.72
  Q 336.38 640.55 336.37 640.35
  Q 336.34 639.72 335.84 639.33
  C 331.74 636.19 330.30 630.16 333.70 625.85
  C 336.55 622.23 339.45 620.19 344.18 620.89
  C 349.51 621.67 351.92 626.65 350.55 631.58
  C 349.01 637.10 343.34 642.93 337.22 640.49
  Q 336.49 640.20 336.55 640.99
  Q 337.44 653.62 338.19 666.25
  Q 338.28 667.73 339.39 671.20
  C 340.85 675.80 341.18 680.64 342.39 685.20
  C 343.51 689.45 343.26 693.52 343.77 697.77
  C 344.88 707.00 345.47 716.34 346.25 725.50
  C 346.52 728.68 349.47 728.73 351.88 728.83
  A 1.60 1.59 5.0 0 0 353.52 727.46
  L 356.31 708.01
  A 0.82 0.81 -89.5 0 1 357.01 707.32
  L 357.29 707.28
  A 0.32 0.32 0.0 0 1 357.66 707.58
  C 357.90 711.30 357.16 715.84 358.45 719.36
  Q 359.52 722.26 359.27 726.20
  Q 359.10 728.91 361.81 729.01
  L 364.97 729.12
  Q 366.20 729.16 366.26 727.93
  Q 367.24 705.80 366.57 685.49
  C 366.38 679.76 367.02 673.62 367.01 667.49
  Q 366.97 633.64 367.00 598.75
  Q 367.19 381.50 367.13 189.25
  Q 367.13 175.68 366.79 162.65
  C 366.45 149.70 366.74 137.55 366.96 125.18
  A 0.97 0.96 -10.2 0 0 365.64 124.27
  Q 362.91 125.35 360.00 125.39
  Q 358.96 125.40 358.75 126.42
  C 357.95 130.28 357.76 134.22 356.92 138.10
  Q 355.81 143.25 354.59 148.43
  Q 354.36 149.39 354.20 148.41
  C 354.03 147.35 353.60 146.47 353.52 145.38
  Q 352.84 135.25 351.16 125.41
  A 2.01 2.00 -5.6 0 0 349.12 123.74
  L 342.97 123.91
  Q 342.44 123.92 342.28 124.42
  Q 341.60 126.49 341.30 128.60
  Q 340.13 136.98 338.65 146.01
  Q 338.04 149.74 337.56 153.74
  C 336.79 160.00 335.43 166.29 334.69 172.61
  Q 334.23 176.53 333.67 180.27
  Q 333.46 181.66 332.81 183.12
  Q 332.21 184.48 331.58 186.00
  A 0.29 0.28 23.1 0 1 331.20 186.15
  Q 331.07 186.09 330.94 186.13
  Q 330.42 186.29 330.37 185.76
  Q 329.69 179.28 328.85 173.38
  Q 328.42 170.36 328.39 166.79
  C 328.33 161.44 327.56 156.07 327.27 150.66
  Q 326.60 138.01 325.51 125.51
  Q 325.31 123.15 323.15 122.89
  Q 320.22 122.55 317.38 123.44
  C 316.45 123.73 315.71 123.57 314.78 123.71"
/>
<path stroke="#582a01" vector-effect="non-scaling-stroke" d="
  M 314.78 123.71
  Q 313.44 122.73 312.63 123.00
  Q 312.14 123.17 312.13 123.70
  L 311.97 132.93"
/>
<path stroke="#21100d" vector-effect="non-scaling-stroke" d="
  M 311.97 132.93
  Q 312.52 137.84 312.13 142.34
  Q 311.76 146.63 311.91 149.70
  Q 312.12 154.13 311.85 158.58
  Q 311.81 159.28 311.42 159.80
  Q 311.00 160.36 310.55 160.81"
/>
<path stroke="#80440d" vector-effect="non-scaling-stroke" d="
  M 312.23 540.08
  Q 312.41 527.33 312.57 514.65
  Q 312.65 508.07 312.91 500.86
  Q 313.18 493.62 312.87 486.74
  Q 312.39 476.31 312.37 466.75
  Q 312.34 447.28 312.36 427.68
  Q 312.37 424.83 312.97 409.84
  Q 313.34 400.91 312.76 391.96"
/>
<path stroke="#b65e01" vector-effect="non-scaling-stroke" d="
  M 312.76 391.96
  Q 312.81 384.52 312.80 377.08
  Q 312.79 373.27 313.14 367.43
  Q 313.43 362.61 313.45 357.78
  C 313.46 354.94 313.81 351.73 313.76 348.66
  C 313.61 339.29 313.91 329.94 313.76 320.48
  C 313.69 315.82 314.12 310.36 314.10 306.50
  Q 313.82 265.19 314.47 252.60
  Q 314.78 246.63 314.51 241.85
  Q 314.27 237.65 314.26 233.11
  Q 314.21 207.24 314.09 182.65
  Q 314.08 180.38 313.72 177.97
  Q 313.39 175.73 313.47 173.49
  Q 313.69 167.05 313.58 160.84
  Q 313.58 160.46 313.32 160.18
  Q 313.07 159.90 313.07 159.54
  Q 313.15 156.01 313.30 152.39
  Q 313.36 150.69 313.71 149.12
  Q 314.12 147.22 313.92 145.60
  Q 313.62 143.27 313.66 140.87
  Q 313.76 134.36 313.57 127.86
  Q 313.55 127.21 313.14 125.72
  Q 312.57 123.67 314.78 123.71"
/>
<path stroke="#78390c" vector-effect="non-scaling-stroke" d="
  M 312.76 391.96
  L 312.74 347.13
  Q 312.74 346.89 312.93 346.76
  Q 313.05 346.69 313.06 346.55
  Q 313.32 343.18 312.78 339.96
  C 311.83 334.22 312.41 327.77 312.36 321.84
  Q 312.36 321.77 312.36 321.69
  Q 312.38 321.55 312.51 321.46
  Q 312.65 321.36 312.65 321.20
  Q 312.63 313.11 312.37 304.08
  Q 312.24 299.64 312.31 294.43
  Q 312.39 289.13 312.43 284.73
  Q 312.48 279.36 313.06 273.95
  Q 313.33 271.47 313.03 269.06
  Q 312.45 264.43 312.45 260.25
  Q 312.38 231.81 312.10 203.16
  C 312.07 200.50 312.60 196.79 312.25 193.50
  C 312.14 192.50 312.62 190.74 312.62 189.49
  Q 312.62 176.40 312.62 163.32
  C 312.62 162.04 312.19 160.52 312.39 159.03
  Q 312.64 157.25 312.59 155.73
  Q 312.53 153.75 312.82 151.79
  C 313.48 147.28 313.12 142.32 313.13 137.75
  Q 313.14 136.01 311.97 132.93"
/>
<path stroke="#625f5b" vector-effect="non-scaling-stroke" d="
  M 348.29 632.49
  Q 350.15 627.60 347.36 624.59
  Q 343.55 620.47 339.03 623.44
  Q 330.38 629.12 337.01 637.20
  C 338.03 638.44 339.30 639.58 341.07 639.05
  Q 346.40 637.44 348.29 632.49"
/>
<path stroke="#b65e01" vector-effect="non-scaling-stroke" d="
  M 322.60 129.47
  Q 322.20 131.47 322.18 133.68
  Q 321.86 158.66 322.56 176.26
  Q 322.80 182.09 322.41 187.09
  Q 321.96 193.03 322.00 198.42
  C 322.16 217.91 322.25 242.53 321.79 266.01
  Q 321.57 277.03 321.67 284.01
  Q 321.84 295.56 322.05 306.81
  Q 322.05 307.08 322.32 307.06
  L 322.60 307.04
  Q 322.96 307.01 322.99 306.66
  Q 324.01 295.30 324.29 283.71
  C 324.36 281.08 324.84 278.48 324.59 275.82
  Q 324.34 273.10 324.37 270.40
  Q 324.74 237.32 324.59 203.03
  C 324.58 200.58 324.19 198.14 324.39 195.73
  Q 324.62 192.97 324.62 190.24
  Q 324.62 174.99 324.59 159.75
  Q 324.59 159.48 324.49 159.26
  Q 324.33 158.91 324.34 158.52
  Q 324.47 149.81 324.30 141.76
  Q 324.26 139.83 323.91 137.77
  Q 323.83 137.29 324.07 136.85
  Q 324.61 135.85 324.36 134.65
  Q 323.81 132.04 323.81 129.18
  Q 323.82 129.01 323.64 128.99
  L 323.32 128.95
  Q 322.71 128.88 322.60 129.47"
/>
<path stroke="#b65e01" vector-effect="non-scaling-stroke" d="
  M 347.38 191.19
  L 347.32 192.03
  Q 347.29 192.47 347.72 192.57
  Q 347.86 192.60 347.99 192.55
  A 0.31 0.31 0.0 0 1 348.40 192.81
  Q 348.88 197.62 348.78 201.84
  C 348.59 209.80 348.90 216.41 348.78 223.57
  Q 348.61 232.88 348.63 236.44
  Q 348.78 267.75 348.69 299.01
  Q 348.66 307.56 348.85 318.98
  Q 349.28 345.61 348.36 374.00
  C 348.03 384.08 348.47 394.58 348.05 404.08
  Q 347.80 409.81 347.78 415.52
  Q 347.77 419.33 347.42 423.53
  Q 347.04 428.22 347.44 431.66
  Q 347.78 434.56 347.29 437.17
  Q 346.93 439.08 347.12 441.70
  Q 347.28 443.95 347.13 446.24
  C 346.64 453.44 347.03 460.39 346.45 467.48
  Q 346.38 468.43 345.44 468.58
  L 345.06 468.64
  A 0.52 0.52 0.0 0 1 344.46 468.13
  Q 344.44 455.80 343.59 443.96
  Q 342.77 432.67 342.55 424.00
  Q 342.23 410.77 341.73 397.54
  Q 340.97 377.63 341.09 356.40
  Q 341.14 347.44 340.68 338.61
  C 340.04 326.47 340.51 314.16 340.42 302.18
  Q 340.19 271.20 340.15 242.51
  C 340.14 234.83 339.47 226.85 339.55 219.50
  Q 339.60 215.53 339.69 211.18
  Q 339.77 207.24 339.53 203.37
  C 339.30 199.84 339.77 195.89 339.05 192.42
  Q 338.77 191.08 338.75 189.72
  Q 338.75 189.40 338.45 189.32
  Q 338.26 189.28 338.19 189.41
  Q 338.12 189.54 338.10 189.70
  Q 337.58 195.88 337.83 209.98
  Q 338.22 231.09 337.77 274.25
  Q 337.69 281.99 337.88 289.75
  C 338.12 299.79 337.84 310.11 338.21 320.76
  Q 338.52 329.62 338.56 336.25
  Q 338.69 360.07 339.14 382.50
  Q 339.25 387.97 338.71 402.12
  C 338.54 406.69 338.89 411.10 339.03 415.62
  Q 339.17 420.40 339.08 425.71
  Q 338.60 452.28 340.30 470.32
  Q 340.58 473.24 341.09 476.27
  Q 341.57 479.11 341.46 482.20
  Q 341.29 486.98 342.15 491.67
  Q 342.46 493.33 342.54 495.06
  Q 342.61 496.79 343.02 498.36
  Q 343.50 500.25 344.10 502.05
  Q 344.44 503.08 344.63 502.02
  L 344.98 500.00
  Q 345.05 499.63 345.30 499.34
  Q 346.03 498.51 346.07 497.19
  Q 346.31 489.63 346.76 481.44
  C 346.86 479.61 347.53 478.05 347.70 476.26
  Q 349.12 461.60 350.14 446.21
  Q 350.46 441.44 350.37 436.85
  Q 350.27 431.81 350.49 427.07
  Q 350.84 419.31 350.99 412.42
  Q 351.28 399.10 351.83 386.49
  Q 352.29 375.92 352.32 366.50
  Q 352.36 347.85 352.69 339.00
  Q 353.50 316.63 353.15 294.25
  C 352.86 275.02 352.83 257.24 352.82 238.74
  Q 352.81 234.44 352.33 221.26
  Q 352.00 212.50 352.12 203.78
  Q 352.18 199.46 351.22 193.15
  Q 351.19 192.99 351.05 192.94
  Q 351.00 192.92 350.96 192.88
  Q 350.83 192.74 350.93 192.54
  Q 351.47 191.51 351.95 190.50"
/>
<path stroke="#603502" vector-effect="non-scaling-stroke" d="
  M 351.95 190.50
  Q 357.95 184.73 357.12 176.73
  C 356.71 172.76 353.29 171.47 350.25 169.88
  Q 349.76 169.62 349.22 169.77
  C 345.96 170.65 342.35 174.19 340.60 176.73
  C 338.33 180.03 340.53 188.67 344.41 190.12
  Q 345.92 190.68 347.38 191.19"
/>
<path stroke="#582a01" vector-effect="non-scaling-stroke" d="
  M 351.95 190.50
  Q 349.92 191.82 347.38 191.19"
/>
<path stroke="#625f5b" vector-effect="non-scaling-stroke" d="
  M 343.92 186.03
  Q 343.95 187.86 345.68 188.83
  Q 349.44 190.93 352.02 187.81
  Q 356.37 182.52 355.20 176.29
  Q 354.88 174.61 353.22 173.53
  Q 348.92 170.71 345.91 173.48
  C 344.42 174.86 340.18 178.61 342.00 180.90"
/>
</g>
<path fill="#010001" d="
  M 354.96 132.17
  Q 354.04 132.69 354.22 133.76
  Q 354.63 136.13 354.95 138.46
  Q 355.19 140.14 355.53 138.48
  Q 356.04 136.00 356.42 133.64
  Q 356.65 132.17 355.77 131.79
  L 358.15 122.73
  A 1.72 1.72 0.0 0 1 359.80 121.44
  L 366.93 121.34
  A 1.52 1.52 0.0 0 1 368.47 122.86
  C 368.45 146.84 368.97 170.21 369.00 193.74
  C 369.05 230.49 368.75 267.91 368.87 305.00
  Q 369.21 410.73 369.10 481.00
  Q 369.09 484.24 369.22 487.51
  Q 369.36 490.90 369.34 494.05
  Q 369.05 545.99 369.02 604.11
  C 369.02 614.03 368.58 624.25 368.57 634.03
  Q 368.54 677.32 369.07 724.75
  Q 369.10 727.02 368.98 729.36
  A 1.05 1.05 0.0 0 1 367.94 730.36
  Q 364.26 730.41 360.50 730.43
  Q 358.68 730.43 357.50 729.56
  Q 357.72 724.76 357.46 720.17
  Q 357.44 719.85 357.27 719.56
  Q 357.15 719.36 356.99 719.19
  A 0.37 0.37 0.0 0 0 356.35 719.39
  L 355.03 729.33
  Q 354.06 730.60 352.50 730.44
  Q 349.10 730.10 346.16 729.94
  A 1.62 1.62 0.0 0 1 344.63 728.47
  Q 343.75 718.88 343.23 710.19
  C 342.92 704.82 341.88 699.46 341.68 693.99
  Q 341.50 689.30 339.93 683.37
  Q 339.58 682.04 338.91 683.25
  Q 337.85 685.14 337.61 687.45
  C 337.00 693.44 335.95 699.45 335.99 705.55
  C 336.01 709.11 335.91 712.59 336.33 716.18
  Q 337.03 722.27 336.98 728.07
  A 1.31 1.31 0.0 0 1 335.57 729.37
  C 333.41 729.20 331.33 729.73 329.18 729.55
  Q 320.81 728.84 311.11 729.07
  Q 309.45 729.11 309.46 727.46
  Q 309.71 624.30 310.02 518.90
  C 310.03 513.81 310.57 507.85 310.58 502.29
  Q 310.71 507.65 310.87 512.98
  Q 310.89 513.65 311.23 513.89
  Q 311.60 514.14 311.61 514.57
  L 312.23 540.08
  C 312.86 559.83 311.71 581.23 312.16 597.29
  Q 312.75 618.62 312.54 626.54
  Q 311.98 648.40 312.43 667.25
  Q 312.65 676.51 312.24 687.23
  Q 311.72 700.98 312.06 716.00
  Q 312.16 720.27 312.73 724.83
  A 0.73 0.73 0.0 0 0 313.44 725.47
  Q 323.34 725.59 333.24 727.45
  A 1.42 1.42 0.0 0 0 334.91 725.96
  C 334.00 712.64 334.06 697.50 336.30 683.68
  Q 337.41 676.81 337.25 671.89
  Q 337.07 666.18 336.84 660.85
  Q 336.82 660.33 336.55 659.91
  A 1.31 1.27 -62.5 0 1 336.34 659.20
  L 336.04 641.29
  Q 336.03 640.97 336.24 640.72
  Q 336.38 640.55 336.37 640.35
  Q 336.34 639.72 335.84 639.33
  C 331.74 636.19 330.30 630.16 333.70 625.85
  C 336.55 622.23 339.45 620.19 344.18 620.89
  C 349.51 621.67 351.92 626.65 350.55 631.58
  C 349.01 637.10 343.34 642.93 337.22 640.49
  Q 336.49 640.20 336.55 640.99
  Q 337.44 653.62 338.19 666.25
  Q 338.28 667.73 339.39 671.20
  C 340.85 675.80 341.18 680.64 342.39 685.20
  C 343.51 689.45 343.26 693.52 343.77 697.77
  C 344.88 707.00 345.47 716.34 346.25 725.50
  C 346.52 728.68 349.47 728.73 351.88 728.83
  A 1.60 1.59 5.0 0 0 353.52 727.46
  L 356.31 708.01
  A 0.82 0.81 -89.5 0 1 357.01 707.32
  L 357.29 707.28
  A 0.32 0.32 0.0 0 1 357.66 707.58
  C 357.90 711.30 357.16 715.84 358.45 719.36
  Q 359.52 722.26 359.27 726.20
  Q 359.10 728.91 361.81 729.01
  L 364.97 729.12
  Q 366.20 729.16 366.26 727.93
  Q 367.24 705.80 366.57 685.49
  C 366.38 679.76 367.02 673.62 367.01 667.49
  Q 366.97 633.64 367.00 598.75
  Q 367.19 381.50 367.13 189.25
  Q 367.13 175.68 366.79 162.65
  C 366.45 149.70 366.74 137.55 366.96 125.18
  A 0.97 0.96 -10.2 0 0 365.64 124.27
  Q 362.91 125.35 360.00 125.39
  Q 358.96 125.40 358.75 126.42
  C 357.95 130.28 357.76 134.22 356.92 138.10
  Q 355.81 143.25 354.59 148.43
  Q 354.36 149.39 354.20 148.41
  C 354.03 147.35 353.60 146.47 353.52 145.38
  Q 352.84 135.25 351.16 125.41
  A 2.01 2.00 -5.6 0 0 349.12 123.74
  L 342.97 123.91
  Q 342.44 123.92 342.28 124.42
  Q 341.60 126.49 341.30 128.60
  Q 340.13 136.98 338.65 146.01
  Q 338.04 149.74 337.56 153.74
  C 336.79 160.00 335.43 166.29 334.69 172.61
  Q 334.23 176.53 333.67 180.27
  Q 333.46 181.66 332.81 183.12
  Q 332.21 184.48 331.58 186.00
  A 0.29 0.28 23.1 0 1 331.20 186.15
  Q 331.07 186.09 330.94 186.13
  Q 330.42 186.29 330.37 185.76
  Q 329.69 179.28 328.85 173.38
  Q 328.42 170.36 328.39 166.79
  C 328.33 161.44 327.56 156.07 327.27 150.66
  Q 326.60 138.01 325.51 125.51
  Q 325.31 123.15 323.15 122.89
  Q 320.22 122.55 317.38 123.44
  C 316.45 123.73 315.71 123.57 314.78 123.71
  Q 313.44 122.73 312.63 123.00
  Q 312.14 123.17 312.13 123.70
  L 311.97 132.93
  Q 312.52 137.84 312.13 142.34
  Q 311.76 146.63 311.91 149.70
  Q 312.12 154.13 311.85 158.58
  Q 311.81 159.28 311.42 159.80
  Q 311.00 160.36 310.55 160.81
  Q 310.80 145.06 310.53 129.37
  C 310.49 126.93 310.79 124.43 311.04 122.01
  A 0.67 0.67 0.0 0 1 311.68 121.41
  L 324.79 121.02
  Q 327.35 120.94 327.40 123.50
  Q 327.57 130.97 328.31 138.68
  C 328.85 144.41 328.72 150.19 329.67 155.81
  C 330.63 161.43 330.45 167.07 330.88 172.85
  Q 330.95 173.79 331.60 173.11
  Q 332.73 171.92 332.98 170.26
  Q 334.02 163.41 335.37 156.29
  Q 335.95 153.23 336.18 150.24
  C 336.40 147.51 337.36 144.90 337.65 142.14
  Q 338.67 132.56 340.96 122.45
  Q 341.11 121.77 341.80 121.76
  L 351.56 121.64
  A 1.57 1.57 0.0 0 1 353.11 122.89
  L 354.96 132.17
  Z
  M 348.29 632.49
  Q 350.15 627.60 347.36 624.59
  Q 343.55 620.47 339.03 623.44
  Q 330.38 629.12 337.01 637.20
  C 338.03 638.44 339.30 639.58 341.07 639.05
  Q 346.40 637.44 348.29 632.49
  Z"
/>
<path fill="#be6902" d="
  M 312.23 540.08
  Q 312.41 527.33 312.57 514.65
  Q 312.65 508.07 312.91 500.86
  Q 313.18 493.62 312.87 486.74
  Q 312.39 476.31 312.37 466.75
  Q 312.34 447.28 312.36 427.68
  Q 312.37 424.83 312.97 409.84
  Q 313.34 400.91 312.76 391.96
  Q 312.81 384.52 312.80 377.08
  Q 312.79 373.27 313.14 367.43
  Q 313.43 362.61 313.45 357.78
  C 313.46 354.94 313.81 351.73 313.76 348.66
  C 313.61 339.29 313.91 329.94 313.76 320.48
  C 313.69 315.82 314.12 310.36 314.10 306.50
  Q 313.82 265.19 314.47 252.60
  Q 314.78 246.63 314.51 241.85
  Q 314.27 237.65 314.26 233.11
  Q 314.21 207.24 314.09 182.65
  Q 314.08 180.38 313.72 177.97
  Q 313.39 175.73 313.47 173.49
  Q 313.69 167.05 313.58 160.84
  Q 313.58 160.46 313.32 160.18
  Q 313.07 159.90 313.07 159.54
  Q 313.15 156.01 313.30 152.39
  Q 313.36 150.69 313.71 149.12
  Q 314.12 147.22 313.92 145.60
  Q 313.62 143.27 313.66 140.87
  Q 313.76 134.36 313.57 127.86
  Q 313.55 127.21 313.14 125.72
  Q 312.57 123.67 314.78 123.71
  C 315.71 123.57 316.45 123.73 317.38 123.44
  Q 320.22 122.55 323.15 122.89
  Q 325.31 123.15 325.51 125.51
  Q 326.60 138.01 327.27 150.66
  C 327.56 156.07 328.33 161.44 328.39 166.79
  Q 328.42 170.36 328.85 173.38
  Q 329.69 179.28 330.37 185.76
  Q 330.42 186.29 330.94 186.13
  Q 331.07 186.09 331.20 186.15
  A 0.29 0.28 23.1 0 0 331.58 186.00
  Q 332.21 184.48 332.81 183.12
  Q 333.46 181.66 333.67 180.27
  Q 334.23 176.53 334.69 172.61
  C 335.43 166.29 336.79 160.00 337.56 153.74
  Q 338.04 149.74 338.65 146.01
  Q 340.13 136.98 341.30 128.60
  Q 341.60 126.49 342.28 124.42
  Q 342.44 123.92 342.97 123.91
  L 349.12 123.74
  A 2.01 2.00 -5.6 0 1 351.16 125.41
  Q 352.84 135.25 353.52 145.38
  C 353.60 146.47 354.03 147.35 354.20 148.41
  Q 354.36 149.39 354.59 148.43
  Q 355.81 143.25 356.92 138.10
  C 357.76 134.22 357.95 130.28 358.75 126.42
  Q 358.96 125.40 360.00 125.39
  Q 362.91 125.35 365.64 124.27
  A 0.97 0.96 -10.2 0 1 366.96 125.18
  C 366.74 137.55 366.45 149.70 366.79 162.65
  Q 367.13 175.68 367.13 189.25
  Q 367.19 381.50 367.00 598.75
  Q 366.97 633.64 367.01 667.49
  C 367.02 673.62 366.38 679.76 366.57 685.49
  Q 367.24 705.80 366.26 727.93
  Q 366.20 729.16 364.97 729.12
  L 361.81 729.01
  Q 359.10 728.91 359.27 726.20
  Q 359.52 722.26 358.45 719.36
  C 357.16 715.84 357.90 711.30 357.66 707.58
  A 0.32 0.32 0.0 0 0 357.29 707.28
  L 357.01 707.32
  A 0.82 0.81 -89.5 0 0 356.31 708.01
  L 353.52 727.46
  A 1.60 1.59 5.0 0 1 351.88 728.83
  C 349.47 728.73 346.52 728.68 346.25 725.50
  C 345.47 716.34 344.88 707.00 343.77 697.77
  C 343.26 693.52 343.51 689.45 342.39 685.20
  C 341.18 680.64 340.85 675.80 339.39 671.20
  Q 338.28 667.73 338.19 666.25
  Q 337.44 653.62 336.55 640.99
  Q 336.49 640.20 337.22 640.49
  C 343.34 642.93 349.01 637.10 350.55 631.58
  C 351.92 626.65 349.51 621.67 344.18 620.89
  C 339.45 620.19 336.55 622.23 333.70 625.85
  C 330.30 630.16 331.74 636.19 335.84 639.33
  Q 336.34 639.72 336.37 640.35
  Q 336.38 640.55 336.24 640.72
  Q 336.03 640.97 336.04 641.29
  L 336.34 659.20
  A 1.31 1.27 -62.5 0 0 336.55 659.91
  Q 336.82 660.33 336.84 660.85
  Q 337.07 666.18 337.25 671.89
  Q 337.41 676.81 336.30 683.68
  C 334.06 697.50 334.00 712.64 334.91 725.96
  A 1.42 1.42 0.0 0 1 333.24 727.45
  Q 323.34 725.59 313.44 725.47
  A 0.73 0.73 0.0 0 1 312.73 724.83
  Q 312.16 720.27 312.06 716.00
  Q 311.72 700.98 312.24 687.23
  Q 312.65 676.51 312.43 667.25
  Q 311.98 648.40 312.54 626.54
  Q 312.75 618.62 312.16 597.29
  C 311.71 581.23 312.86 559.83 312.23 540.08
  Z
  M 322.60 129.47
  Q 322.20 131.47 322.18 133.68
  Q 321.86 158.66 322.56 176.26
  Q 322.80 182.09 322.41 187.09
  Q 321.96 193.03 322.00 198.42
  C 322.16 217.91 322.25 242.53 321.79 266.01
  Q 321.57 277.03 321.67 284.01
  Q 321.84 295.56 322.05 306.81
  Q 322.05 307.08 322.32 307.06
  L 322.60 307.04
  Q 322.96 307.01 322.99 306.66
  Q 324.01 295.30 324.29 283.71
  C 324.36 281.08 324.84 278.48 324.59 275.82
  Q 324.34 273.10 324.37 270.40
  Q 324.74 237.32 324.59 203.03
  C 324.58 200.58 324.19 198.14 324.39 195.73
  Q 324.62 192.97 324.62 190.24
  Q 324.62 174.99 324.59 159.75
  Q 324.59 159.48 324.49 159.26
  Q 324.33 158.91 324.34 158.52
  Q 324.47 149.81 324.30 141.76
  Q 324.26 139.83 323.91 137.77
  Q 323.83 137.29 324.07 136.85
  Q 324.61 135.85 324.36 134.65
  Q 323.81 132.04 323.81 129.18
  Q 323.82 129.01 323.64 128.99
  L 323.32 128.95
  Q 322.71 128.88 322.60 129.47
  Z
  M 347.38 191.19
  L 347.32 192.03
  Q 347.29 192.47 347.72 192.57
  Q 347.86 192.60 347.99 192.55
  A 0.31 0.31 0.0 0 1 348.40 192.81
  Q 348.88 197.62 348.78 201.84
  C 348.59 209.80 348.90 216.41 348.78 223.57
  Q 348.61 232.88 348.63 236.44
  Q 348.78 267.75 348.69 299.01
  Q 348.66 307.56 348.85 318.98
  Q 349.28 345.61 348.36 374.00
  C 348.03 384.08 348.47 394.58 348.05 404.08
  Q 347.80 409.81 347.78 415.52
  Q 347.77 419.33 347.42 423.53
  Q 347.04 428.22 347.44 431.66
  Q 347.78 434.56 347.29 437.17
  Q 346.93 439.08 347.12 441.70
  Q 347.28 443.95 347.13 446.24
  C 346.64 453.44 347.03 460.39 346.45 467.48
  Q 346.38 468.43 345.44 468.58
  L 345.06 468.64
  A 0.52 0.52 0.0 0 1 344.46 468.13
  Q 344.44 455.80 343.59 443.96
  Q 342.77 432.67 342.55 424.00
  Q 342.23 410.77 341.73 397.54
  Q 340.97 377.63 341.09 356.40
  Q 341.14 347.44 340.68 338.61
  C 340.04 326.47 340.51 314.16 340.42 302.18
  Q 340.19 271.20 340.15 242.51
  C 340.14 234.83 339.47 226.85 339.55 219.50
  Q 339.60 215.53 339.69 211.18
  Q 339.77 207.24 339.53 203.37
  C 339.30 199.84 339.77 195.89 339.05 192.42
  Q 338.77 191.08 338.75 189.72
  Q 338.75 189.40 338.45 189.32
  Q 338.26 189.28 338.19 189.41
  Q 338.12 189.54 338.10 189.70
  Q 337.58 195.88 337.83 209.98
  Q 338.22 231.09 337.77 274.25
  Q 337.69 281.99 337.88 289.75
  C 338.12 299.79 337.84 310.11 338.21 320.76
  Q 338.52 329.62 338.56 336.25
  Q 338.69 360.07 339.14 382.50
  Q 339.25 387.97 338.71 402.12
  C 338.54 406.69 338.89 411.10 339.03 415.62
  Q 339.17 420.40 339.08 425.71
  Q 338.60 452.28 340.30 470.32
  Q 340.58 473.24 341.09 476.27
  Q 341.57 479.11 341.46 482.20
  Q 341.29 486.98 342.15 491.67
  Q 342.46 493.33 342.54 495.06
  Q 342.61 496.79 343.02 498.36
  Q 343.50 500.25 344.10 502.05
  Q 344.44 503.08 344.63 502.02
  L 344.98 500.00
  Q 345.05 499.63 345.30 499.34
  Q 346.03 498.51 346.07 497.19
  Q 346.31 489.63 346.76 481.44
  C 346.86 479.61 347.53 478.05 347.70 476.26
  Q 349.12 461.60 350.14 446.21
  Q 350.46 441.44 350.37 436.85
  Q 350.27 431.81 350.49 427.07
  Q 350.84 419.31 350.99 412.42
  Q 351.28 399.10 351.83 386.49
  Q 352.29 375.92 352.32 366.50
  Q 352.36 347.85 352.69 339.00
  Q 353.50 316.63 353.15 294.25
  C 352.86 275.02 352.83 257.24 352.82 238.74
  Q 352.81 234.44 352.33 221.26
  Q 352.00 212.50 352.12 203.78
  Q 352.18 199.46 351.22 193.15
  Q 351.19 192.99 351.05 192.94
  Q 351.00 192.92 350.96 192.88
  Q 350.83 192.74 350.93 192.54
  Q 351.47 191.51 351.95 190.50
  Q 357.95 184.73 357.12 176.73
  C 356.71 172.76 353.29 171.47 350.25 169.88
  Q 349.76 169.62 349.22 169.77
  C 345.96 170.65 342.35 174.19 340.60 176.73
  C 338.33 180.03 340.53 188.67 344.41 190.12
  Q 345.92 190.68 347.38 191.19
  Z"
/>
<path fill="#ae5300" d="
  M 314.78 123.71
  Q 312.57 123.67 313.14 125.72
  Q 313.55 127.21 313.57 127.86
  Q 313.76 134.36 313.66 140.87
  Q 313.62 143.27 313.92 145.60
  Q 314.12 147.22 313.71 149.12
  Q 313.36 150.69 313.30 152.39
  Q 313.15 156.01 313.07 159.54
  Q 313.07 159.90 313.32 160.18
  Q 313.58 160.46 313.58 160.84
  Q 313.69 167.05 313.47 173.49
  Q 313.39 175.73 313.72 177.97
  Q 314.08 180.38 314.09 182.65
  Q 314.21 207.24 314.26 233.11
  Q 314.27 237.65 314.51 241.85
  Q 314.78 246.63 314.47 252.60
  Q 313.82 265.19 314.10 306.50
  C 314.12 310.36 313.69 315.82 313.76 320.48
  C 313.91 329.94 313.61 339.29 313.76 348.66
  C 313.81 351.73 313.46 354.94 313.45 357.78
  Q 313.43 362.61 313.14 367.43
  Q 312.79 373.27 312.80 377.08
  Q 312.81 384.52 312.76 391.96
  L 312.74 347.13
  Q 312.74 346.89 312.93 346.76
  Q 313.05 346.69 313.06 346.55
  Q 313.32 343.18 312.78 339.96
  C 311.83 334.22 312.41 327.77 312.36 321.84
  Q 312.36 321.77 312.36 321.69
  Q 312.38 321.55 312.51 321.46
  Q 312.65 321.36 312.65 321.20
  Q 312.63 313.11 312.37 304.08
  Q 312.24 299.64 312.31 294.43
  Q 312.39 289.13 312.43 284.73
  Q 312.48 279.36 313.06 273.95
  Q 313.33 271.47 313.03 269.06
  Q 312.45 264.43 312.45 260.25
  Q 312.38 231.81 312.10 203.16
  C 312.07 200.50 312.60 196.79 312.25 193.50
  C 312.14 192.50 312.62 190.74 312.62 189.49
  Q 312.62 176.40 312.62 163.32
  C 312.62 162.04 312.19 160.52 312.39 159.03
  Q 312.64 157.25 312.59 155.73
  Q 312.53 153.75 312.82 151.79
  C 313.48 147.28 313.12 142.32 313.13 137.75
  Q 313.14 136.01 311.97 132.93
  L 312.13 123.70
  Q 312.14 123.17 312.63 123.00
  Q 313.44 122.73 314.78 123.71
  Z"
/>
<path fill="#ae5300" d="
  M 322.60 129.47
  Q 322.71 128.88 323.32 128.95
  L 323.64 128.99
  Q 323.82 129.01 323.81 129.18
  Q 323.81 132.04 324.36 134.65
  Q 324.61 135.85 324.07 136.85
  Q 323.83 137.29 323.91 137.77
  Q 324.26 139.83 324.30 141.76
  Q 324.47 149.81 324.34 158.52
  Q 324.33 158.91 324.49 159.26
  Q 324.59 159.48 324.59 159.75
  Q 324.62 174.99 324.62 190.24
  Q 324.62 192.97 324.39 195.73
  C 324.19 198.14 324.58 200.58 324.59 203.03
  Q 324.74 237.32 324.37 270.40
  Q 324.34 273.10 324.59 275.82
  C 324.84 278.48 324.36 281.08 324.29 283.71
  Q 324.01 295.30 322.99 306.66
  Q 322.96 307.01 322.60 307.04
  L 322.32 307.06
  Q 322.05 307.08 322.05 306.81
  Q 321.84 295.56 321.67 284.01
  Q 321.57 277.03 321.79 266.01
  C 322.25 242.53 322.16 217.91 322.00 198.42
  Q 321.96 193.03 322.41 187.09
  Q 322.80 182.09 322.56 176.26
  Q 321.86 158.66 322.18 133.68
  Q 322.20 131.47 322.60 129.47
  Z"
/>
<path fill="#c2bdb5" d="
  M 355.77 131.79
  Q 356.65 132.17 356.42 133.64
  Q 356.04 136.00 355.53 138.48
  Q 355.19 140.14 354.95 138.46
  Q 354.63 136.13 354.22 133.76
  Q 354.04 132.69 354.96 132.17
  Q 355.62 132.16 355.77 131.79
  Z"
/>
<path fill="#411f18" d="
  M 311.97 132.93
  Q 313.14 136.01 313.13 137.75
  C 313.12 142.32 313.48 147.28 312.82 151.79
  Q 312.53 153.75 312.59 155.73
  Q 312.64 157.25 312.39 159.03
  C 312.19 160.52 312.62 162.04 312.62 163.32
  Q 312.62 176.40 312.62 189.49
  C 312.62 190.74 312.14 192.50 312.25 193.50
  C 312.60 196.79 312.07 200.50 312.10 203.16
  Q 312.38 231.81 312.45 260.25
  Q 312.45 264.43 313.03 269.06
  Q 313.33 271.47 313.06 273.95
  Q 312.48 279.36 312.43 284.73
  Q 312.39 289.13 312.31 294.43
  Q 312.24 299.64 312.37 304.08
  Q 312.63 313.11 312.65 321.20
  Q 312.65 321.36 312.51 321.46
  Q 312.38 321.55 312.36 321.69
  Q 312.36 321.77 312.36 321.84
  C 312.41 327.77 311.83 334.22 312.78 339.96
  Q 313.32 343.18 313.06 346.55
  Q 313.05 346.69 312.93 346.76
  Q 312.74 346.89 312.74 347.13
  L 312.76 391.96
  Q 313.34 400.91 312.97 409.84
  Q 312.37 424.83 312.36 427.68
  Q 312.34 447.28 312.37 466.75
  Q 312.39 476.31 312.87 486.74
  Q 313.18 493.62 312.91 500.86
  Q 312.65 508.07 312.57 514.65
  Q 312.41 527.33 312.23 540.08
  L 311.61 514.57
  Q 311.60 514.14 311.23 513.89
  Q 310.89 513.65 310.87 512.98
  Q 310.71 507.65 310.58 502.29
  L 310.55 160.81
  Q 311.00 160.36 311.42 159.80
  Q 311.81 159.28 311.85 158.58
  Q 312.12 154.13 311.91 149.70
  Q 311.76 146.63 312.13 142.34
  Q 312.52 137.84 311.97 132.93
  Z"
/>
<path fill="#010001" d="
  M 351.95 190.50
  Q 349.92 191.82 347.38 191.19
  Q 345.92 190.68 344.41 190.12
  C 340.53 188.67 338.33 180.03 340.60 176.73
  C 342.35 174.19 345.96 170.65 349.22 169.77
  Q 349.76 169.62 350.25 169.88
  C 353.29 171.47 356.71 172.76 357.12 176.73
  Q 357.95 184.73 351.95 190.50
  Z
  M 342.00 180.90
  Q 341.70 184.17 343.92 186.03
  Q 343.95 187.86 345.68 188.83
  Q 349.44 190.93 352.02 187.81
  Q 356.37 182.52 355.20 176.29
  Q 354.88 174.61 353.22 173.53
  Q 348.92 170.71 345.91 173.48
  C 344.42 174.86 340.18 178.61 342.00 180.90
  Z"
/>
<path fill="#c2bdb5" d="
  M 343.92 186.03
  Q 345.99 183.14 342.00 180.90
  C 340.18 178.61 344.42 174.86 345.91 173.48
  Q 348.92 170.71 353.22 173.53
  Q 354.88 174.61 355.20 176.29
  Q 356.37 182.52 352.02 187.81
  Q 349.44 190.93 345.68 188.83
  Q 343.95 187.86 343.92 186.03
  Z"
/>
<path fill="#ae5300" d="
  M 347.38 191.19
  Q 349.92 191.82 351.95 190.50
  Q 351.47 191.51 350.93 192.54
  Q 350.83 192.74 350.96 192.88
  Q 351.00 192.92 351.05 192.94
  Q 351.19 192.99 351.22 193.15
  Q 352.18 199.46 352.12 203.78
  Q 352.00 212.50 352.33 221.26
  Q 352.81 234.44 352.82 238.74
  C 352.83 257.24 352.86 275.02 353.15 294.25
  Q 353.50 316.63 352.69 339.00
  Q 352.36 347.85 352.32 366.50
  Q 352.29 375.92 351.83 386.49
  Q 351.28 399.10 350.99 412.42
  Q 350.84 419.31 350.49 427.07
  Q 350.27 431.81 350.37 436.85
  Q 350.46 441.44 350.14 446.21
  Q 349.12 461.60 347.70 476.26
  C 347.53 478.05 346.86 479.61 346.76 481.44
  Q 346.31 489.63 346.07 497.19
  Q 346.03 498.51 345.30 499.34
  Q 345.05 499.63 344.98 500.00
  L 344.63 502.02
  Q 344.44 503.08 344.10 502.05
  Q 343.50 500.25 343.02 498.36
  Q 342.61 496.79 342.54 495.06
  Q 342.46 493.33 342.15 491.67
  Q 341.29 486.98 341.46 482.20
  Q 341.57 479.11 341.09 476.27
  Q 340.58 473.24 340.30 470.32
  Q 338.60 452.28 339.08 425.71
  Q 339.17 420.40 339.03 415.62
  C 338.89 411.10 338.54 406.69 338.71 402.12
  Q 339.25 387.97 339.14 382.50
  Q 338.69 360.07 338.56 336.25
  Q 338.52 329.62 338.21 320.76
  C 337.84 310.11 338.12 299.79 337.88 289.75
  Q 337.69 281.99 337.77 274.25
  Q 338.22 231.09 337.83 209.98
  Q 337.58 195.88 338.10 189.70
  Q 338.12 189.54 338.19 189.41
  Q 338.26 189.28 338.45 189.32
  Q 338.75 189.40 338.75 189.72
  Q 338.77 191.08 339.05 192.42
  C 339.77 195.89 339.30 199.84 339.53 203.37
  Q 339.77 207.24 339.69 211.18
  Q 339.60 215.53 339.55 219.50
  C 339.47 226.85 340.14 234.83 340.15 242.51
  Q 340.19 271.20 340.42 302.18
  C 340.51 314.16 340.04 326.47 340.68 338.61
  Q 341.14 347.44 341.09 356.40
  Q 340.97 377.63 341.73 397.54
  Q 342.23 410.77 342.55 424.00
  Q 342.77 432.67 343.59 443.96
  Q 344.44 455.80 344.46 468.13
  A 0.52 0.52 0.0 0 0 345.06 468.64
  L 345.44 468.58
  Q 346.38 468.43 346.45 467.48
  C 347.03 460.39 346.64 453.44 347.13 446.24
  Q 347.28 443.95 347.12 441.70
  Q 346.93 439.08 347.29 437.17
  Q 347.78 434.56 347.44 431.66
  Q 347.04 428.22 347.42 423.53
  Q 347.77 419.33 347.78 415.52
  Q 347.80 409.81 348.05 404.08
  C 348.47 394.58 348.03 384.08 348.36 374.00
  Q 349.28 345.61 348.85 318.98
  Q 348.66 307.56 348.69 299.01
  Q 348.78 267.75 348.63 236.44
  Q 348.61 232.88 348.78 223.57
  C 348.90 216.41 348.59 209.80 348.78 201.84
  Q 348.88 197.62 348.40 192.81
  A 0.31 0.31 0.0 0 0 347.99 192.55
  Q 347.86 192.60 347.72 192.57
  Q 347.29 192.47 347.32 192.03
  L 347.38 191.19
  Z"
/>
<path fill="#c2bdb5" d="
  M 348.29 632.49
  Q 346.40 637.44 341.07 639.05
  C 339.30 639.58 338.03 638.44 337.01 637.20
  Q 330.38 629.12 339.03 623.44
  Q 343.55 620.47 347.36 624.59
  Q 350.15 627.60 348.29 632.49
  Z"
/>
<path fill="#c2bdb5" d="
  M 357.50 729.56
  Q 356.42 729.10 355.03 729.33
  L 356.35 719.39
  A 0.37 0.37 0.0 0 1 356.99 719.19
  Q 357.15 719.36 357.27 719.56
  Q 357.44 719.85 357.46 720.17
  Q 357.72 724.76 357.50 729.56
  Z"
/>
</svg>
