<svg xmlns="http://www.w3.org/2000/svg" width="400" height="400"><g fill-rule="evenodd"><path fill="#f8f8f8" d="M112.2 12.8c-1.3.2-3.3.6-4.4 1-1.1.3-2.6.6-3.4.6-.8 0-1.9.3-2.4.5-.6.3-2 .8-3.2 1-1.2.4-2.6.8-3 1.1-.6.4-1.2.6-1.5.6-.3 0-1.4.4-2.5 1-1 .5-2.2 1-2.6 1-.4 0-1.1.3-1.6.7-.6.5-1.4 1-2 1-.5.3-1.3.6-1.6 1L81 24a21 21 0 0 0-3.2 2 45.8 45.8 0 0 0-9 7.2 69.1 69.1 0 0 0-14.4 18.6c-.4.4-.8 1.1-.8 1.6s-.3 1.3-.7 1.8c-.8 1.1-1.9 3.8-2.7 7.2l-1.2 4a51.6 51.6 0 0 0-1 14.4c.4.8.7.9 6.8.7 7.6-.1 7 .3 7.4-5.5.1-2.3.6-5.3 1-6.7.4-1.4.8-2.9.8-3.4a60.5 60.5 0 0 1 7-14 52.6 52.6 0 0 1 17-15.4c1.2-.6 2.7-1.4 3.2-1.8l2-1c.5 0 1.3-.4 1.6-.7.3-.3 1.3-.7 2.2-1 .9-.3 2-.7 2.4-1 .4-.3 1.5-.6 2.4-.8.9-.1 2-.5 2.5-.8a13 13 0 0 1 3.8-1 70.3 70.3 0 0 1 32.5.8c.8.4 2 .9 2.7 1 .7.2 1.8.5 2.3.8l2.4 1.2c1.5.6 2.3 1 4.3 2.5.7.5 1.4.9 1.7.9.2 0 .5.2.7.5 1 1.7 3.3 1.9 5.9.5 1-.6 2.2-1 2.6-1 .4 0 1.6-.3 2.7-.8 1-.4 2.8-.8 4-1 1.2-.1 2.2-.4 2.3-.6.3-.5-5.8-6.4-9-8.5l-5.8-3.8a45.3 45.3 0 0 0-8.2-3.9c-.3-.3-.8-.6-1.1-.6-.4 0-2-.5-3.5-1-1.5-.6-3.3-1-3.8-1-.6 0-2.1-.4-3.4-.8-2.6-1-20-1.5-25.2-.8m62 34c-.9.1-1.8.4-2 .5-.3.2-1.5.5-2.7.7-5.5 1-11.6 6-13.3 10.8-2.5 6.9-1.4 8.7 3.3 5.5 2.6-1.8 6.4-3.9 7-3.9.3 0 1-.3 1.5-.7.6-.5 1.8-1 2.8-1l3-1c.7-.5 2.5-.9 4.5-1 1.8-.2 3.8-.5 4.3-.7.6-.2 2-.4 3-.4 2.4 0 4-.6 4-1.4 0-.3-.2-.6-.4-.6s-.5-.5-.7-1.1c-1.2-3.5-9-6.6-14.3-5.7m37.4 17a89 89 0 0 0-7.6.5l-1.4.3.1 2.4c0 1.3.5 3.2.9 4.2s.9 2.6 1 3.6c.4 3.5-.5 3.3 14.6 3.4a72.9 72.9 0 0 1 27.5 3.4c.6 0 2.2.5 3.5 1 1.3.6 2.7 1 3.1 1 .4 0 1.4.4 2.2.8.8.4 1.8.8 2.2.8.5 0 1.4.3 2.2.8 2 1 5.6 2.6 7.2 3.2.7.3 1.3.6 1.3.8 0 .2.5.4 1.1.6.6.1 1.6.5 2.1 1l3.6 2a81.7 81.7 0 0 1 10.3 6c.2 0 .8.5 1.3 1 .5.6 1 1 1.3 1a25 25 0 0 1 5 3.4 365.1 365.1 0 0 0 6.7 5.2l5.4 4.5a134.9 134.9 0 0 1 9.7 8.6c.9.9 3.9-.1 5.4-1.8.3-.4.9-.7 1.1-.7.9 0 6.6-3.8 6.6-4.4 0-.5-3.2-3.6-8-7.8l-6.2-5.4a137 137 0 0 0-14.1-10.8c-.5-.2-1-.7-1.2-1 0-.3-.4-.6-.6-.6-.2 0-1-.4-1.6-.9a43.1 43.1 0 0 0-4.5-3c-1-.7-2-1.3-2.2-1.3-.2 0-.8-.4-1.5-1l-2.1-1.3-2.6-1.5a45 45 0 0 0-3.2-1.7c-1-.5-1.8-1-2-1.3-.1-.2-.6-.4-1-.4s-1.1-.3-1.6-.7c-.6-.5-1.7-1-2.5-1.3-.8-.2-1.7-.7-2-1-.2-.3-.7-.6-1.1-.6a9 9 0 0 1-2.7-1 70.2 70.2 0 0 0-12.7-4.8 56.9 56.9 0 0 0-7.8-2.2c-1.4-.4-3.6-.8-4.8-1a121.8 121.8 0 0 0-30.4-2.1m-39.5 9.5-1.6 1c-.3.3-.8.6-1.2.6a4 4 0 0 0-1.7.9l-2.7 2c-2.2 1.6-2.7 2.9-2 5 .4 1 .7 2.3.7 2.9 0 2.1.8 2 2.4-.1a81 81 0 0 1 2.8-4l1-1.5c5-5.5 6-8.3 2.3-6.8m18 4.4c-.6.1-1.2.6-1.5 1l-1 1.4a226.2 226.2 0 0 1-5.5 6.8c-1.8 2-1 2.3 5.3 1.9 6.2-.4 7.5-1.5 5.6-4.4-.3-.5-.7-2.2-1-3.8-.6-3.3-.6-3.3-2-3m-46 6.6a35 35 0 0 0-3.6 2c-.2.2-2.4 1.4-4.8 2.5l-2.3 1.4c-.6.5-1.3.8-1.7.8-.4 0-1 .3-1.2.6-.2.3-1.2 1-2.1 1.4-1 .4-2.2 1.2-2.7 1.6l-1 .8 1.2 1c.7.6 1.7 1.3 2.4 1.6a76 76 0 0 1 4.4 2.6c5 3 6.8 3.5 8.2 1.8.3-.3.7-.6 1-.6.2 0 1-.4 1.9-1a6 6 0 0 1 2-1c.3 0 1-.4 1.5-.8.6-.5 1.5-1 2.1-1 2-.5 2.5-4 1-8.6-.4-1-.8-2.9-1-4.2-.4-3-.8-3.1-5.3-.9M50.3 95.2c-2 .2-3.8.5-4.4.9a66.8 66.8 0 0 0-15 18.3 19.6 19.6 0 0 0-1.3 16.2A76.2 76.2 0 0 0 43.2 157a40 40 0 0 0 10.5 9.5c1 .8 12.8.8 16-.1 1.1-.4 3.7-.8 5.8-1 2-.3 4.3-.7 5.1-1a9 9 0 0 1 2.9-.7c.7 0 2.3-.4 3.6-.8 1.3-.5 3.2-1 4.3-1.2 1.9-.3 3.7-.8 7.8-2.2l3.8-1.2 3.2-1.1c.7-.4 1.5-.7 2-.7.4 0 1.3-.3 2-.8a10 10 0 0 1 2.5-1c1.4-.3 4.5-2.1 4.5-2.6 0-.4-.7-.6-3-1-.9-.1-2-.5-2.7-.8-.6-.3-1.5-.6-2-.6-.4 0-1.9-.4-3.2-1a422.8 422.8 0 0 0-7.9-3.4l-1.5-.8-3-1.7A77.4 77.4 0 0 1 67.5 119c0-.3-.4-.9-.8-1.4-.5-.5-1-1.4-1-2l-.9-2a25 25 0 0 1-2.3-12.2c0-3.1-.2-5.9-.4-6.1-.3-.5-5.9-.6-11.9-.1m136.1 7.2c-4.7 1-6 1.4-7.6 2a32 32 0 0 0-7.8 4c-1.6 0-3.4 2.7-2.8 4.3.3.8.7 2.8 1 4.5.2 1.6.6 3.2.8 3.4.2.3.5 1.7.6 3.3.2 1.5.6 3.8 1 5.1.4 1.3.8 3.6 1 5 .1 1.5.6 4.1 1 5.8.4 1.7.8 4.1.8 5.4 0 1.2.2 3 .4 4 2.5 11.5 2.7 38.5.4 45.2-.5 1.2-.8 2.8-.8 3.6 0 .8-.4 2.1-.8 3-.4.8-.9 2.3-1 3.3-.2 1-.7 2.4-1 3-.5.8-.8 1.8-.8 2.4 0 .6-.5 1.9-1 3-.6 1-1 2.3-1 3 0 .5-.3 1.2-.6 1.5a6 6 0 0 0-1 2.3c-.2 1-.7 2.2-1 2.5-.3.3-.6 1.3-.8 2-.1.9-.5 1.7-.8 2-.3.2-.6 1-.8 1.5a38.2 38.2 0 0 1-3.3 7.5c-.1.4-.6 1.5-1.2 2.5-.5 1-.9 2-.9 2.3 0 .3-.4 1-.8 1.5-.4.6-1 1.6-1 2.2a4 4 0 0 1-1 2c-.5.3-.8.8-.8 1.1 0 .5-2 4.5-2.8 5.8l-2 3.6a97.8 97.8 0 0 1-5.8 10.9c-.2.6-.6 1.4-1 1.7-.5.4-.8 1-.8 1.4 0 .4-.4 1.2-.8 1.8-.5.5-1.4 2-2 3.3l-1.8 3c-.4.3-.6.8-.6 1 0 .2-.4.9-.9 1.5-1 1.2-1.8 2.7-2.8 4.8-.3.7-.9 1.4-1.2 1.7-.4.4-.7 1-.7 1.3 0 .4-.3 1-.8 1.4-.4.3-1 1.2-1.2 1.8-.3.7-.7 1.2-.8 1.2-.2 0-.4.3-.4.6s-.5 1-1 1.7c-.6.7-1 1.4-1 1.5l-1.7 3-3.6 5.4a17 17 0 0 0-1.9 3.3c0 .3-.4.7-.8 1-.4.3-.8.7-.8 1 0 .2-.4 1-1 1.6-.5.6-1 1.5-1.2 2-.1.5-.4.9-.6.9-.3 0-2.8 3.7-2.8 4.2l-1.8 2.5c-1 1.3-1.8 2.4-1.8 2.6 0 .2-.7 1.2-1.6 2.3-.9 1.2-1.6 2.2-1.6 2.4 0 .2-.5.9-1 1.6-1.8 2-1.8 2 8.6 3.8 1.9.3 4 .8 4.9 1.2.8.3 1.8.6 2.2.6.4 0 1.4.3 2.2.8.8.4 2.1.8 2.9 1 .7.1 1.5.5 1.8.8.3.3.7.6 1 .6a30.5 30.5 0 0 1 7.4 3.8c.8.3 2.2 1.2 3.2 2s2.2 1.6 2.7 1.8c.5.2 1 .7 1.2 1a60.4 60.4 0 0 1 9 9.2c-.1 2.1 2.8.8 3.3-1.6.1-.8.6-2 1-2.7.4-.7.8-1.6.8-1.9 0-.3.5-1.5 1-2.6s1-2.3 1-2.6c0-.3.2-.8.5-1.2.3-.3.9-1.5 1.3-2.7.4-1.1.8-2.2 1-2.3.2-.1.4-.5.4-1 0-.3.5-1.5 1-2.7l2-4.2a11 11 0 0 0 1-2.8c0-.4.2-.8.4-.9.2-.1.6-1 1-2.2.3-1 .9-2.2 1.2-2.4.3-.3.6-.9.6-1.4 0-.5.3-1.3.8-1.9.4-.5 1-1.7 1.2-2.6.2-.9.7-1.8 1-2 .3-.3.6-1 .7-1.7.2-.7.7-1.8 1.1-2.4l.8-1.5c0-.3.4-1.3 1-2.2l1.1-2.5.7-1.4 1.4-3a46.9 46.9 0 0 1 2.4-5l1-2c.2-.3.8-1.3 1.2-2.3.4-.9 1-1.7 1.2-1.9.2-.1.4-.6.4-1a5 5 0 0 1 1-2 5 5 0 0 0 1-2c0-.4.3-1 .8-1.4.4-.4.9-1.2 1-1.8.1-.7.4-1.3.7-1.4l1-1.5a59 59 0 0 1 3.3-6.3l1-1.6 1.8-3a31 31 0 0 1 2-3.4c.5-.5.8-1.1.8-1.4 0-.3.4-.8.8-1.2.4-.4.8-1 .8-1.2 0-.2.3-.8.7-1.2.4-.5 1-1.3 1.2-1.8l2.1-3.2c.9-1.2 1.6-2.4 1.6-2.7 0-.3.2-.5.4-.5s1-1 1.9-2.3a80 80 0 0 1 3.9-5.3 126.6 126.6 0 0 1 29-27.1 97.4 97.4 0 0 1 12.4-7.9 7 7 0 0 0 1.6-1c.2-.3 2-1.3 4.6-2.6.7-.3 1.5-.8 1.8-1.2.3-.3.7-.6 1-.6l1.8-1a5 5 0 0 1 2-1c.4 0 1-.4 1.4-.8.4-.4 1.2-.9 1.8-1a253.2 253.2 0 0 1 19.5-9.8c.6-.4 1.3-.8 1.7-.8.4 0 1.1-.3 1.7-.8.5-.4 1.5-.9 2.1-1 .7-.2 1.5-.7 2-1 .4-.5 1-.8 1.5-.8.4 0 1.4-.4 2.2-.8a55.7 55.7 0 0 1 7.3-3.3c1.2-.6 2.7-1.2 3.3-1.3.6-.2 1.1-.4 1.1-.6 0-.2.7-.6 1.5-.8l3.1-1.2c.9-.4 2-.9 2.7-1 .6-.2 1.3-.5 1.5-.8.3-.3.8-.6 1.2-.6.3 0 1.3-.4 2.2-.8.9-.5 2.2-1 3-1.2 2.9-.8 3.9-3 2.3-4.7-.4-.4-.7-1-.7-1.4 0-.3-.4-1.4-1-2.5-.6-1-1-2-1-2.3 0-.2-.4-1-1-1.6-.6-.6-1-1.4-1-1.7 0-.2-.4-.8-.8-1.2l-.8-1a70 70 0 0 0-10.1-12.6c-1.6-1.7-4-1.9-5.6-.3-.5.5-1.3 1-1.9 1.1-.6.2-1.3.5-1.6.8-.3.3-1.2.8-2 1.2l-2 1a288.7 288.7 0 0 1-21.6 10.2c-.2.3-1 .7-1.7.8-.7.2-1.9.6-2.5 1-.7.5-1.6.8-1.9.8-.3 0-1.2.3-2 .8-.9.4-2.1.9-2.8 1-.7.2-1.9.6-2.6 1-.8.5-1.8.8-2.3.8-.6 0-1.7.4-2.6.8-.8.4-2.3.9-3.3 1-1 .2-2.2.5-2.7.8-.6.3-1.7.6-2.6.8-.9.1-2.8.6-4.2 1-7.8 2.2-19.8 3-23.3 1.4-4.4-2-8.5-6.3-10.7-11.4a12 12 0 0 0-.8-1.6l-.8-1.6-3.3-6.9a7 7 0 0 1-.7-2.2c0-.4-.4-1.4-.8-2.3-.4-.9-.8-1.8-.8-2.1l-1-2.9a13 13 0 0 1-1-3.3c0-.5-.3-1.5-.7-2.3-.4-.8-.9-2.2-1-3.2-.2-1-.6-2.6-1-3.6-.5-1-.9-2.5-.9-3.3 0-.8-.3-2.3-.8-3.4-.4-1-.8-2.9-1-4.1l-.9-3.6a23 23 0 0 1-1-4.6c-.6-5.5-2.7-6.4-10.7-4.6m-79.6 8.8c-6.1 6.1-8.5 8.3-13.1 11.9-1.2 1-1.3 2.5-.2 3.1l1.6 1c.4.4 1.2.9 1.7 1.1l2.8 1.7c1 .7 2 1.3 2.4 1.4l5.8 2.7 2.6 1 3 1.1a6 6 0 0 0 2.3.6c.6 0 2 .4 3.2.9 2.3 1 11 1.3 11.9.5.3-.3.2-2.2-.4-6.6l-.8-8c0-.9-.3-2.3-.6-3-.3-.8-.7-2.4-.8-3.5-.4-2.6-1.4-4.5-3-5.1-.6-.3-1.4-.7-1.6-1-.3-.3-.8-.6-1.2-.6-.4 0-1-.4-1.4-.8-.4-.4-1-.9-1.6-1l-1.4-.8-2.8-1.7-2.2-1.2-6.2 6.3m254.8-1.8c-.3.3-.9.7-1.3.8-1.1.4-4.7 2.6-4.7 3 0 .2-.5.5-1 .7-1.5.7-1.2 1.8 1 4.2a1613.4 1613.4 0 0 1 3.7 4.3l1.7 2.4 2.7 4 2 3.2c.4.5.7 1.2.7 1.7 0 .4.3.8.6 1 .3 0 .8.9 1 1.7.3 1 .8 1.8 1 2 .4.3.6.8.6 1.1 0 .4.4 1.6 1 2.7.5 1.1 1 2.3 1 2.6 0 .3.3 1.3.8 2 .4.8.9 2.2 1 3 .3 1.6 2 4.6 2.6 4.6 2.1 0 7-3.6 8.7-6.6a24 24 0 0 0 .2-13.5c-.5-1-1-2.5-1-3.6-.2-1-.6-2-1-2.3-.2-.3-.5-.8-.5-1.1 0-.6-1.7-4.6-2.4-5.7l-1-2a26 26 0 0 0-9.7-9.8c-2.6-1.2-6.9-1.4-7.7-.4m-28.2 20.4-2.6 1.5c-.6.2-1.4.8-1.8 1.1-.4.4-1.3 1-2 1.2-1.9 1-2 2-.3 3.9a59.4 59.4 0 0 1 5.3 6.5l2.6 3.7c.5 1 1.8 1 2.3.2a38.2 38.2 0 0 0-1-17.2c-.5-2.2-.4-2.1-2.5-.9m17.2 7v2.5c.4 2.4-.5 13.5-1.4 16.7-1.1 4-.5 4.8 3 3.2.8-.4 2.2-.8 3-1 .8-.2 1.9-.5 2.4-.8l2.1-1c1.3-.5 1.4-1 .3-2.9-.4-.8-.8-1.9-.8-2.3 0-.5-.4-1.7-1-2.7-.6-1-1-2.1-1-2.4 0-.3-.4-1-.8-1.6-.4-.6-.8-1.3-.8-1.7a5 5 0 0 0-1-2c-.6-.7-1-1.6-1-2 0-.5-2.1-3.2-2.6-3.2 0 0-.3.5-.4 1.2M95.6 348c-1.9 1.5-3.2 3.5-3.2 5 0 .5-.2 1-.4 1.1-.2.1-.4 1.1-.4 2.2 0 1 .2 2 .4 2.2.2.1.4.8.4 1.6 0 .7.4 2.2 1 3.2l1 2.3a47 47 0 0 0 11 11.9c.3.4 1.1.8 1.7 1 .6.1 1.5.6 1.9 1 .4.4 1.3.8 2 1 .6.1 1.4.5 1.7.8.3.3 1.2.7 2 .8.8.1 2.2.6 3 1 2.4 1 11.6.9 13.4-.1.7-.4 1.6-.7 2-.7 1 0 5-2 6.1-3l1-.6c1.3 0 3.8-3.2 3.8-4.8 0-5.7-8.8-15.7-18-20.4l-3.6-1.9a12 12 0 0 0-3.4-1.3c-.5 0-1.3-.3-1.9-.8-.5-.4-1.8-.8-3-1a14 14 0 0 1-3.3-1c-1-.4-2.9-.6-7.4-.7l-6-.2-1.8 1.4"/><path fill="#040404" d="M0 200v200h400V0H0v200M137.4 13.6c1.3.4 2.8.8 3.4.8.5 0 2.3.4 3.8 1 1.5.5 3 1 3.5 1 .3 0 .8.3 1.1.6.3.3.8.6 1 .6a45.3 45.3 0 0 1 13 7c3.2 2.2 9.3 8 9 8.6-.1.2-1.1.5-2.3.6-1.2.2-3 .6-4 1-1 .5-2.3.8-2.7.8-.4 0-1.6.4-2.6 1-2.6 1.4-5 1.2-6-.5-.1-.3-.4-.5-.6-.5-.3 0-1-.4-1.7-.9-2-1.4-2.8-1.9-4.3-2.5l-2.4-1.2c-.5-.3-1.6-.6-2.3-.8-.7-.1-2-.6-2.7-1-.9-.4-2.2-.8-3-.8a70.3 70.3 0 0 0-33.3 1c-.5.3-1.6.7-2.5.8-.9.2-2 .5-2.4.8-.4.3-1.5.7-2.4 1-.9.3-1.9.7-2.2 1-.3.3-1 .6-1.6.8-.5.2-1.5.6-2 1L88 36.4l-2.8 1.8L83 40a52.6 52.6 0 0 0-19.8 29.3c-.4 1.4-.9 4.4-1 6.7-.4 5.8.2 5.4-7.4 5.5-6.1.2-6.4.1-6.8-.7a51.6 51.6 0 0 1 5.6-27.4c0-.5.4-1.2.8-1.6A39.6 39.6 0 0 1 63 39.2 69.1 69.1 0 0 1 81 24l3-1.8c.3-.3 1-.6 1.6-.8l2-1c.5-.5 1.2-.8 1.6-.8.4 0 1.6-.5 2.6-1 1-.6 2.2-1 2.5-1 .3 0 1-.3 1.4-.6.5-.3 1.9-.7 3-1l3.3-1c.5-.3 1.6-.6 2.4-.6a91.9 91.9 0 0 1 33-.8m44.8 34c2.8 1 5.7 3.2 6.3 4.9.2.6.5 1.1.7 1.1.2 0 .4.3.4.6 0 .8-1.6 1.4-4 1.4-1 0-2.4.2-3 .4-.5.2-2.5.5-4.3.6-2 .2-3.8.6-4.5 1-.7.4-2 .8-3 1-1 .2-2.2.6-2.8 1-.5.5-1.2.8-1.5.8-.6 0-4.4 2-7 3.9-4.7 3.2-5.8 1.4-3.3-5.5C157.9 54 164 49 169.5 48a13 13 0 0 0 2.6-.7c1.7-1 6.3-.9 10.1.4M229 64a57.5 57.5 0 0 1 13 1.8c1.2.2 3.4.6 4.8 1a183.7 183.7 0 0 0 7.8 2.2l3.1 1c3.9 1.3 7.3 2.6 9.6 3.8a9 9 0 0 0 2.7 1c.4 0 1 .3 1.2.6.2.3 1.1.8 2 1 .7.3 1.8.8 2.4 1.3.5.4 1.2.7 1.6.7.4 0 .9.2 1 .4.2.3 1 .8 2 1.3a45 45 0 0 1 5.8 3.2c.6.2 1.5.9 2.1 1.4.7.5 1.3.9 1.5.9.2 0 1.2.6 2.2 1.3a69.8 69.8 0 0 0 6.1 3.9c.2 0 .5.3.6.6.2.3.7.8 1.2 1a3233 3233 0 0 0 14.1 10.8l6.2 5.4c4.8 4.2 8 7.3 8 7.8 0 .6-5.7 4.4-6.6 4.4-.2 0-.8.3-1.1.7-1.5 1.7-4.5 2.7-5.4 1.8l-3.3-3.1a134.9 134.9 0 0 0-11.8-10 65.2 65.2 0 0 0-6.7-5.2 25 25 0 0 0-5-3.4c-.2 0-.8-.4-1.3-1-.5-.5-1-1-1.3-1a69.5 69.5 0 0 1-14-8c-.4-.5-1.4-.9-2-1-.6-.2-1.1-.4-1.1-.6 0-.2-.6-.5-1.3-.8-1.6-.6-5.2-2.2-7.2-3.2-.8-.5-1.7-.8-2.2-.8-.4 0-1.4-.4-2.2-.8-.8-.4-1.8-.8-2.2-.8-.4 0-1.8-.4-3.1-1-1.3-.5-2.9-1-3.5-1-.6 0-1.8-.3-2.6-.6-.8-.4-2.8-.8-4.5-1l-5-1c-1.6-.6-4.5-.7-15.4-.8-15 0-14.2.1-14.6-3.4-.1-1-.6-2.6-1-3.6s-.8-2.9-.9-4.2l-.1-2.4 1.4-.3a151.9 151.9 0 0 1 25-.3m-54.6 9.3c.4.5-1.6 3.4-4.5 6.7l-1.1 1.6-.9 1.4-1.9 2.5c-1.6 2.2-2.4 2.2-2.4 0 0-.5-.3-1.8-.6-2.7-.8-2.2-.3-3.5 1.9-5l2.7-2.1a4 4 0 0 1 1.7-.9c.4 0 1-.3 1.2-.6 1.3-1.3 3.2-1.7 3.9-.9m17.6 7.2c.3 1.6.7 3.3 1 3.8 2 3 .6 4-5.6 4.4-6.2.4-7.1.1-5.4-2a226.2 226.2 0 0 0 6.6-8.1c.4-.7 2-1.4 2.6-1.2.2.1.5 1.5.8 3M149.3 85c.2 1.3.6 3.2 1 4.2 1.5 4.5 1 8.1-1 8.5-.6.1-1.5.6-2 1-.6.5-1.3.9-1.6.9a6 6 0 0 0-2 1c-.8.6-1.7 1-2 1-.2 0-.6.3-.9.6-1.4 1.7-3.3 1.2-8.2-1.8a76 76 0 0 0-4.4-2.6c-.7-.3-1.7-1-2.4-1.6l-1.2-1 1-.8c.6-.4 1.8-1.2 2.7-1.6.9-.5 1.9-1.1 2.1-1.4.3-.3.8-.6 1.2-.6.4 0 1.1-.3 1.7-.8l2.3-1.4c2.4-1.1 4.6-2.3 4.8-2.5.5-.7 7-3.7 7.8-3.6.7 0 .9.5 1.1 2.5m-87 10.3c.1.2.3 3 .3 6 0 5.8.7 9.4 2.3 12.3l.8 2c.2.6.6 1.5 1 2 .5.5.9 1.1.9 1.4 0 .3.4.8.8 1.2l.8 1a77.4 77.4 0 0 0 32.3 25.3l4.8 2.1c1.3.6 2.8 1 3.3 1 .4 0 1.3.3 2 .6.5.3 1.7.7 2.6.8 2.3.4 3 .6 3 1 0 .5-3.1 2.3-4.5 2.6-.7.2-1.9.6-2.5 1-.7.5-1.6.8-2 .8-.5 0-1.3.3-2 .7l-3.2 1.1-3.8 1.2c-4 1.4-5.9 1.9-7.8 2.2-1.1.2-3 .7-4.3 1.2a14 14 0 0 1-3.6.8 9 9 0 0 0-2.9.6c-.8.4-3.1.8-5.1 1l-5.9 1c-3 1-14.8 1-15.9.2a40 40 0 0 1-10.5-9.5l-2.9-3.7a23 23 0 0 1-2.9-4.7c-.1-.4-.6-1.1-1-1.5-.4-.4-.8-1-.8-1.4 0-.4-.4-1.2-.8-1.7l-.8-1.3-.8-2c-1-2.1-1.6-3.7-3.6-10a19.6 19.6 0 0 1 1.2-16.2l1.1-2a9 9 0 0 1 1.1-1.8A66.8 66.8 0 0 1 46 96.1c1.6-1 15.8-1.8 16.3-.8m133.9 7.5c.4.6.8 2.2 1 4.2a23 23 0 0 0 1 4.6l.9 3.6c.2 1.2.6 3 1 4.1.5 1 .8 2.6.8 3.4 0 .8.4 2.3.8 3.3.5 1 1 2.6 1 3.6.2 1 .7 2.4 1 3.2.5.8.8 1.8.8 2.3 0 .5.4 2 1 3.3l1 2.9c0 .3.4 1.2.8 2.1.4.9.8 1.9.8 2.3 0 .4.3 1.4.7 2.2a194 194 0 0 1 4.1 8.5l.8 1.6c2.2 5 6.3 9.5 10.7 11.4 3.5 1.6 15.5.8 23.3-1.4 1.4-.4 3.3-.9 4.2-1 .9-.2 2-.5 2.6-.8.5-.3 1.8-.6 2.7-.8 1-.1 2.5-.6 3.3-1 .9-.4 2-.8 2.6-.8.5 0 1.6-.3 2.3-.8.7-.4 1.9-.8 2.6-1 .7-.1 2-.6 2.7-1 .9-.5 1.8-.8 2.1-.8.4 0 1.2-.3 1.9-.8.6-.4 1.8-.8 2.5-1 .7-.1 1.5-.5 1.7-.8.3-.3 1.1-.7 2-.8l2.4-1a288.7 288.7 0 0 0 24.7-12.4c1.7-1.7 4-1.5 5.6.2l3 3.4a70 70 0 0 1 9.7 13.1c.6.7 1 1.4 1 1.6 0 .3.4 1.3 1 2.3.6 1 1 2.2 1 2.5 0 .4.3 1 .7 1.4 1.6 1.8.6 4-2.3 4.7-.8.2-2.1.7-3 1.2-.9.4-1.9.8-2.2.8-.4 0-1 .3-1.2.6-.2.3-1 .6-1.5.8-.6.1-1.8.6-2.7 1-.9.4-2.3 1-3.1 1.2-.8.3-1.5.6-1.5.8 0 .2-.5.4-1.1.6a236.4 236.4 0 0 1-14.3 6.2c-.5.3-1.3.8-2 1-.6.1-1.6.6-2.1 1-.6.5-1.3.8-1.7.8-.4 0-1.1.4-1.7.8l-1.4.8a253.2 253.2 0 0 0-18 9c-.7.1-1.5.6-2 1-.3.4-1 .8-1.3.8a5 5 0 0 0-2 1l-1.8 1c-.3 0-.7.3-1 .6-.3.4-1 1-1.8 1.2a25.8 25.8 0 0 0-4.6 2.6 7 7 0 0 1-1.6 1c-.8.4-1.5.8-1.6 1l-1.2.7a97.4 97.4 0 0 0-12.3 8.1 126.6 126.6 0 0 0-30.2 30.5 8.1 8.1 0 0 1-2 2.3c-.1 0-.3.2-.3.5s-.7 1.5-1.6 2.7c-.9 1.2-1.8 2.6-2 3.2l-1.3 1.8c-.4.4-.7 1-.7 1.2 0 .3-.4.8-.8 1.2-.4.4-.8 1-.8 1.2 0 .3-.3 1-.7 1.4-.5.6-1.4 2-2 3.4l-1.9 3-1 1.6c-.2.6-1 1.9-1.6 3a59 59 0 0 0-1.7 3.3l-1 1.5c-.3 0-.6.7-.7 1.4-.1.6-.6 1.4-1 1.8-.4.4-.8 1-.8 1.4a5 5 0 0 1-1 2 5 5 0 0 0-1 2c0 .4-.2.9-.4 1-.3.2-.8 1-1.2 2l-1.2 2.2-1 2a41.6 41.6 0 0 1-4.5 9.4c-.1.4-.6 1.5-1.2 2.5l-.9 2.2-.8 1.5c-.4.6-1 1.7-1 2.4-.2.6-.5 1.4-.8 1.6-.3.3-.8 1.2-1 2.1-.3 1-.8 2.1-1.2 2.6-.5.6-.8 1.4-.8 2a2 2 0 0 1-.6 1.3c-.3.2-.8 1.3-1.2 2.4l-1 2.2c-.2.1-.4.5-.4 1 0 .3-.4 1.5-1 2.7l-2 4.2a11 11 0 0 0-1 2.8c0 .4-.2.8-.4.9-.2.1-.6 1.2-1 2.3a11 11 0 0 1-1.3 2.7c-.3.4-.5 1-.5 1.2 0 .3-.5 1.5-1 2.6a11 11 0 0 0-1 2.6c0 .3-.4 1.2-.8 1.9s-.9 1.9-1 2.7c-.5 2.4-3.4 3.7-3.4 1.6a60.4 60.4 0 0 0-29-20.2c-.9-.5-1.9-.8-2.3-.8-.4 0-1.4-.3-2.2-.6-.8-.4-3-1-4.9-1.2-10.4-1.7-10.4-1.7-8.6-3.8.5-.7 1-1.4 1-1.6 0-.2.7-1.2 1.6-2.4.9-1 1.6-2.1 1.6-2.3 0-.2.8-1.3 1.8-2.6l1.8-2.5c0-.5 2.5-4.2 2.8-4.2.2 0 .5-.4.6-.9.2-.5.7-1.4 1.3-2l.9-1.6c0-.3.4-.7.8-1 .4-.3.8-.7.8-1a11803 11803 0 0 0 8.2-13.2c.6-.6 1-1.4 1-1.7 0-.3.2-.6.4-.6.1 0 .5-.5.8-1.2.3-.6.8-1.5 1.2-1.8.5-.4.8-1 .8-1.4 0-.4.3-1 .7-1.3.3-.3.9-1 1.2-1.7 1-2 1.9-3.6 2.8-4.8.5-.6.9-1.3.9-1.5 0-.3.3-.7.6-1l1.7-3 2-3.4c.5-.5.9-1.3.9-1.7 0-.4.3-1 .8-1.4.4-.3.8-1.1 1-1.7a97.8 97.8 0 0 0 5.9-10.9l1.9-3.6c.9-1.3 2.8-5.3 2.8-5.8 0-.3.3-.8.8-1.2a4 4 0 0 0 1-1.9c0-.6.6-1.6 1-2.2.4-.5.8-1.2.8-1.5 0-.3.4-1.4 1-2.3l1.1-2.5.7-1.4c.6-1.1 2.3-5 2.6-6 .2-.7.5-1.4.8-1.6.3-.3.7-1.1.8-2 .2-.7.5-1.7.8-2 .3-.3.8-1.4 1-2.5.3-1 .7-2 1-2.3.4-.3.6-1 .6-1.6 0-.6.4-2 1-3 .5-1 1-2.3 1-3 0-.5.3-1.5.7-2.2.4-.7 1-2 1-3 .2-1 .7-2.6 1.1-3.4.4-.9.8-2.2.8-3 0-.8.3-2.4.8-3.6 2.3-6.7 2.1-33.7-.4-45.2-.2-1-.4-2.8-.4-4 0-1.3-.4-3.7-.8-5.4-.4-1.7-.9-4.3-1-5.7-.2-1.5-.6-3.8-1-5.1-.4-1.3-.8-3.6-1-5.1 0-1.6-.4-3-.6-3.3a13 13 0 0 1-.8-3.4c-.3-1.7-.7-3.7-1-4.5-.6-1.6 1.2-4.3 2.8-4.3a33 33 0 0 1 10.6-4.8c8.8-2.3 13.2-2.5 14.5-.8m-78.1 5c.3.3 1 .6 1.4.8.5.1 1.2.6 1.6 1 .4.4 1 .8 1.4.8.4 0 1 .3 1.2.6.2.3 1 .7 1.6 1 1.6.6 2.6 2.5 3 5 .1 1.2.5 2.8.8 3.6.3.7.6 2.1.6 3l.8 8c.6 4.4.7 6.3.4 6.6-.9.8-9.6.5-12-.5-1-.5-2.5-.9-3-.9a6 6 0 0 1-2.3-.6l-3-1.2c-1.1-.3-2.3-.7-2.7-1l-5.8-2.6c-.3-.1-1.4-.7-2.4-1.4l-2.8-1.7a10 10 0 0 1-1.7-1c-.4-.4-1.1-.8-1.6-1-1.1-.7-1-2.2.2-3.2 4.6-3.6 7-5.8 13-12l6.3-6.2 2.2 1.2c1.2.6 2.4 1.4 2.8 1.7m251.3 2a26 26 0 0 1 10.7 11.8c.7 1.1 2.4 5 2.4 5.7 0 .3.3.8.6 1 .3.3.7 1.4.8 2.4.2 1 .6 2.7 1 3.6a24 24 0 0 1 0 13.5c-1.9 3-6.7 6.6-8.8 6.6-.7 0-2.3-3-2.6-4.6a12 12 0 0 0-1-3c-.5-.7-.8-1.7-.8-2 0-.3-.5-1.5-1-2.6-.6-1.1-1-2.3-1-2.7 0-.3-.2-.8-.5-1-.3-.3-.8-1.2-1-2-.3-1-.8-1.7-1.1-1.8-.3-.2-.6-.6-.6-1 0-.5-.3-1.2-.7-1.7l-2-3.2a46.4 46.4 0 0 0-4.4-6.4l-1-1.4-2.7-3c-2.2-2.3-2.5-3.4-1-4 .5-.3 1-.6 1-.8 0-.4 3.6-2.6 4.7-3 .4-.1 1-.5 1.3-.8.8-1 5.1-.8 7.7.4M336 130.7l.8 3.1c.9 3 1 12.7 0 14.1-.4.8-1.7.7-2.2-.2a21 21 0 0 0-2.6-3.7l-2.2-2.8-3.1-3.7c-1.7-1.8-1.6-3 .3-3.9a11 11 0 0 0 2-1.2l1.8-1.1 2.6-1.5c2.1-1.2 2-1.3 2.6.9m16.4 6.2c.6.7 1.2 1.6 1.2 2 0 .3.4 1.2 1 1.9a5 5 0 0 1 1 2c0 .4.4 1.1.8 1.7.4.6.8 1.3.8 1.6 0 .3.4 1.4 1 2.4s1 2.2 1 2.7c0 .4.4 1.5.8 2.3 1 2 1 2.4-.3 3-.6.1-1.6.6-2.1.9l-2.4.8c-.8.2-2.2.6-3 1-3.5 1.6-4.1.9-3-3.2.9-3.2 1.8-14.3 1.4-16.7-.2-1.3 0-3.7.4-3.7l1.4 1.3M110.8 347.7c.8.3 2.3.8 3.4.9 1 .2 2.4.6 3 1 .5.5 1.3.8 1.8.8s2 .6 3.4 1.3c1.3.7 3 1.5 3.5 1.9 9.3 4.7 18.1 14.7 18.1 20.4 0 1.6-2.5 4.8-3.7 4.8-.2 0-.7.3-1 .6-1.2 1-5.2 3-6.1 3-.5 0-1.4.3-2.1.7a30.2 30.2 0 0 1-18.4-1.7c-.3-.3-1.1-.7-1.8-.8-.6-.2-1.5-.6-1.9-1-.4-.4-1.3-.9-1.9-1-.6-.2-1.4-.6-1.7-1a47 47 0 0 1-11-11.9l-1-2.3c-.6-1-1-2.5-1-3.2 0-.8-.2-1.5-.4-1.6-.2-.1-.4-1.1-.4-2.2 0-1 .2-2 .4-2.2.2-.1.4-.6.4-1 0-1.6 1.3-3.6 3.2-5l1.8-1.5 6 .2c4.5 0 6.3.3 7.4.8"/></g></svg>