<?xml version="1.0" encoding="UTF-8" standalone="no"?>
<!-- Uploaded to: SVG Repo, www.svgrepo.com, Generator: SVG Repo Mixer Tools -->

<svg
   width="100%"
   height="100%"
   viewBox="0 0 64 64"
   version="1.1"
   xml:space="preserve"
   id="svg5128"
   sodipodi:docname="caliper.svg"
   inkscape:version="1.2.2 (732a01da63, 2022-12-09)"
   xmlns:inkscape="http://www.inkscape.org/namespaces/inkscape"
   xmlns:sodipodi="http://sodipodi.sourceforge.net/DTD/sodipodi-0.dtd"
   xmlns="http://www.w3.org/2000/svg"
   xmlns:svg="http://www.w3.org/2000/svg"><defs
   id="defs5132" /><sodipodi:namedview
   id="namedview5130"
   pagecolor="#ffffff"
   bordercolor="#000000"
   borderopacity="0.25"
   inkscape:showpageshadow="2"
   inkscape:pageopacity="0.0"
   inkscape:pagecheckerboard="0"
   inkscape:deskcolor="#d1d1d1"
   showgrid="false"
   inkscape:zoom="0.5025"
   inkscape:cx="143.28358"
   inkscape:cy="207.9602"
   inkscape:window-width="1920"
   inkscape:window-height="991"
   inkscape:window-x="-9"
   inkscape:window-y="56"
   inkscape:window-maximized="1"
   inkscape:current-layer="svg5128" />

<style
   type="text/css"
   id="style5030">
	.st0{fill:#FFEEA9;}
	.st1{fill:#D32436;}
	.st2{fill:#8DD1D3;}
	.st3{fill:#330D00;}
	.st4{fill:none;stroke:#330D00;stroke-linecap:round;stroke-linejoin:round;stroke-miterlimit:10;}
</style>

<g
   id="_x34_0-Id_Card" />

<g
   id="_x33_9-Formula" />

<g
   id="_x33_8-Elbow" />

<g
   id="_x33_7-Diploma" />

<g
   id="_x33_6-Laptop" />

<g
   id="_x33_5-Brush" />

<g
   id="_x33_4-Baseball" />

<g
   id="_x33_3-Student" />

<g
   id="_x33_2-Highlighter" />

<g
   id="_x33_1-Ruler" />

<g
   id="_x33_0-Caliper"
   transform="matrix(0.29049169,0.95046587,-0.93784888,0.29439971,53.644214,-8.3190154)">

<g
   id="g5096">

<g
   id="g5044">

<polygon
   class="st1"
   points="16.6,38.6 1.1,38.6 1.1,29.8 7.5,17 7.5,29.8 16.8,29.8 16.8,32 32,32 32,29.8 62.9,29.8 62.9,38.6 32,38.6 32,36.4 16.6,36.4 "
   id="polygon5042" />

</g>

<g
   id="g5048">

<path
   class="st2"
   d="M 7.7,38.6 H 3.8 v 0.2 C 3.8,42 5.2,45 7.7,47 v 0 z"
   id="path5046" />

</g>

<g
   id="g5052">

<path
   class="st0"
   d="m 32,36.4 v 4.4 H 20.3 c -0.5,2.4 -1.8,4.6 -3.7,6.2 V 36.4 Z"
   id="path5050" />

</g>

<g
   id="g5056">

<polygon
   class="st0"
   points="23.2,27.6 32,27.6 32,32 16.8,32 16.8,17 23.2,27.6 "
   id="polygon5054" />

</g>

<g
   id="g5094">

<g
   id="g5060">

<path
   class="st3"
   d="M 62.9,28.7 H 33.1 V 27.6 C 33.1,27 32.6,26.5 32,26.5 H 23.8 L 17.7,16.4 C 17.4,16 16.9,15.8 16.5,15.9 16,16 15.7,16.5 15.7,17 V 28.7 H 8.6 V 17 C 8.6,16.5 8.2,16 7.7,15.9 7.2,15.8 6.7,16 6.5,16.5 L 0.1,29.3 C 0,29.5 0,29.6 0,29.8 v 8.8 c 0,0.6 0.5,1.1 1.1,1.1 h 1.6 c 0.3,3.2 1.8,6.2 4.3,8.2 0.2,0.2 0.4,0.2 0.7,0.2 0.2,0 0.3,0 0.5,-0.1 0.4,-0.2 0.6,-0.6 0.6,-1 v -7.3 h 6.6 V 47 c 0,0.4 0.2,0.8 0.6,1 0.2,0.1 0.3,0.1 0.5,0.1 0.2,0 0.5,-0.1 0.7,-0.2 1.9,-1.5 3.3,-3.6 3.9,-5.9 H 32 c 0.6,0 1.1,-0.5 1.1,-1.1 v -1.1 h 29.8 c 0.6,0 1.1,-0.5 1.1,-1.1 v -8.8 c 0,-0.7 -0.5,-1.2 -1.1,-1.2 z m -45,-7.7 4.4,7.2 c 0.2,0.3 0.6,0.5 0.9,0.5 h 7.7 v 1.1 1.1 h -13 V 29.8 Z M 6.6,44.3 C 5.7,43 5.1,41.5 4.9,39.8 H 6.6 Z M 30.9,39.7 H 20.3 c -0.5,0 -1,0.4 -1.1,0.9 -0.3,1.3 -0.8,2.6 -1.5,3.6 v -5.6 -1.1 h 13.2 v 1.1 z M 61.8,37.5 H 33.1 v -1.1 c 0,-0.6 -0.5,-1.1 -1.1,-1.1 H 16.6 c -0.6,0 -1.1,0.5 -1.1,1.1 v 1.1 H 7.7 3.8 2.2 V 30 l 4.2,-8.4 v 8.1 c 0,0.6 0.5,1.1 1.1,1.1 h 8.2 V 32 c 0,0.6 0.5,1.1 1.1,1.1 H 32 c 0.6,0 1.1,-0.5 1.1,-1.1 v -1.1 h 28.7 z"
   id="path5058" />

</g>

<g
   id="g5064">

<path
   class="st3"
   d="m 7.7,31.7 c -0.6,0 -1.1,0.5 -1.1,1.1 v 2.9 c 0,0.6 0.5,1.1 1.1,1.1 0.6,0 1.1,-0.5 1.1,-1.1 v -2.9 c 0,-0.6 -0.5,-1.1 -1.1,-1.1 z"
   id="path5062" />

</g>

<g
   id="g5068">

<path
   class="st3"
   d="m 12.1,31.7 c -0.6,0 -1.1,0.5 -1.1,1.1 v 2.9 c 0,0.6 0.5,1.1 1.1,1.1 0.6,0 1.1,-0.5 1.1,-1.1 v -2.9 c 0,-0.6 -0.5,-1.1 -1.1,-1.1 z"
   id="path5066" />

</g>

<g
   id="g5072">

<path
   class="st3"
   d="m 36.4,36.8 c 0.6,0 1.1,-0.5 1.1,-1.1 v -2.9 c 0,-0.6 -0.5,-1.1 -1.1,-1.1 -0.6,0 -1.1,0.5 -1.1,1.1 v 2.9 c 0,0.6 0.5,1.1 1.1,1.1 z"
   id="path5070" />

</g>

<g
   id="g5076">

<path
   class="st3"
   d="m 40.8,36.8 c 0.6,0 1.1,-0.5 1.1,-1.1 v -2.9 c 0,-0.6 -0.5,-1.1 -1.1,-1.1 -0.6,0 -1.1,0.5 -1.1,1.1 v 2.9 c 0,0.6 0.5,1.1 1.1,1.1 z"
   id="path5074" />

</g>

<g
   id="g5080">

<path
   class="st3"
   d="m 45.2,36.8 c 0.6,0 1.1,-0.5 1.1,-1.1 v -2.9 c 0,-0.6 -0.5,-1.1 -1.1,-1.1 -0.6,0 -1.1,0.5 -1.1,1.1 v 2.9 c 0,0.6 0.5,1.1 1.1,1.1 z"
   id="path5078" />

</g>

<g
   id="g5084">

<path
   class="st3"
   d="m 49.7,36.8 c 0.6,0 1.1,-0.5 1.1,-1.1 v -2.9 c 0,-0.6 -0.5,-1.1 -1.1,-1.1 -0.6,0 -1.1,0.5 -1.1,1.1 v 2.9 c 0,0.6 0.4,1.1 1.1,1.1 z"
   id="path5082" />

</g>

<g
   id="g5088">

<path
   class="st3"
   d="m 54.1,36.8 c 0.6,0 1.1,-0.5 1.1,-1.1 v -2.9 c 0,-0.6 -0.5,-1.1 -1.1,-1.1 -0.6,0 -1.1,0.5 -1.1,1.1 v 2.9 c 0,0.6 0.5,1.1 1.1,1.1 z"
   id="path5086" />

</g>

<g
   id="g5092">

<path
   class="st3"
   d="m 58.5,36.8 c 0.6,0 1.1,-0.5 1.1,-1.1 v -2.9 c 0,-0.6 -0.5,-1.1 -1.1,-1.1 -0.6,0 -1.1,0.5 -1.1,1.1 v 2.9 c 0,0.6 0.5,1.1 1.1,1.1 z"
   id="path5090" />

</g>

</g>

</g>

</g>

<g
   id="_x32_9-Ruler_Elbow" />

<g
   id="_x32_8-Abacus" />

<g
   id="_x32_7-Id_Card" />

<g
   id="_x32_6-Eraser" />

<g
   id="_x32_5-Pencil" />

<g
   id="_x32_4-Ink" />

<g
   id="_x32_3-Graduation_Cap" />

<g
   id="_x32_2-_Sling_Bag" />

<g
   id="_x32_1-Rugby_Ball" />

<g
   id="_x32_0-Clock" />

<g
   id="_x31_9-Certificate" />

<g
   id="_x31_8-Idea" />

<g
   id="_x31_7-Bookshelf" />

<g
   id="_x31_6-Formula" />

<g
   id="_x31_5-Bell" />

<g
   id="_x31_4-Magnifying_Glass" />

<g
   id="_x31_3-Calculator" />

<g
   id="_x31_2-Eyeglasses" />

<g
   id="_x31_1-Bus" />

<g
   id="_x31_0-Trophy" />

<g
   id="_x39_-Globe" />

<g
   id="_x38_-Basket_Ball" />

<g
   id="_x37_-Pen" />

<g
   id="_x36_-Board" />

<g
   id="_x35_-Bag" />

<g
   id="_x34_-Exam" />

<g
   id="_x33_-Book" />

<g
   id="_x32_-Ruler" />

<g
   id="_x31_-Building" />

</svg>
