<svg xmlns="http://www.w3.org/2000/svg" xml:space="preserve" width="562.3" height="460.5"><path fill="#040404" fill-rule="evenodd" d="M406.3.5 223.6 1.6l-129.3.8-5.7 2.3C77.8 9 73.4 14.3 70.1 26.8c-1.8 6.8-1.9 12.3-1.9 134.5 0 135.2 0 136.6 4.4 138.3 2.5.9 1.6 2.1-3.5 4.4-2.7 1.2-4.9 2.5-4.9 2.9A350.2 350.2 0 0 0 41 346.8l-10.4 19.3-11.3 21.2-8.2 15.3C.7 421.2 0 423 0 429.2c0 7.3 3.1 14.1 8.9 19.8 2 2 4.5 5.1 5.3 6.8.9 1.7 2.6 3.3 3.8 3.5 8.3 1.7 528 1.5 530-.1 6.5-5.3 8.7-9.3 12.3-21.6 3.7-12.9 4-12-14.3-42.9-3.1-5.1-5.8-10-6.2-10.8-.3-.9-3.3-6.3-6.8-12.1-8.7-14.8-14.6-24.9-18.2-31.3-16.1-28.9-19.3-33.7-24.8-37.3-1.7-1.2-1.7-1.3.2-3 10.1-8.9 9.7-1.8 8-138.5-2.1-158.7-1.3-145-8.3-152.4A44.3 44.3 0 0 0 463.1 0c-1.9.2-27.5.4-56.8.5m63.6 18.9c9.6 3 8.6-8.3 10.4 121.6l1.5 127.6v13.5l-3 3.4c-6.1 7 10 6.3-194 8.6-201.7 2.3-191.4 2.5-196.5-3.2-2.1-2.3-3.1-68.3-2.9-199.8V33.8l2.4-4.8c5.3-10.4-17.1-9.2 185.2-10.4 199.2-1.2 190.7-1.2 196.9.8m2.9 293.1c6.7 3 6.7 1.4 21.5 27.4l32.1 56.3 20.2 35.3c.3.4-119.3.7-265.6.7H14.9l3.2-5.6L46.9 373c27.1-50.5 29.8-49.3 38.4-53.2 7.2-3.1 21.7-4.8 205.9-6.8 93.7-1 170.9-1.4 172.4-1.4 1.5-.1 5.1-1.3 8 0"/><path fill="#e3e3e3" d="M53.4 359.4c5.3-9.8 10.6-19.3 15.5-28.9a28.5 28.5 0 0 1 26.7-16.1c61.5-.9 123-1.5 184.5-2.2l186-2.1c8.7-.1 15 3.4 19.5 11.2 20.6 36.3 41.5 72.4 62.3 108.7l2.3 4.3h-537l40.2-74.9m236.1 63.7h92c5.4 0 6.3-1.1 4.5-6.2-3-9.2-6.2-18.3-9.4-27.4-1.3-3.6-3.7-5.7-8-5.4-7.9.5-15.9.9-23.9.9-49.3.1-98.6.2-147.9-.1-5 0-7.3 1.8-8.7 6.2-2.3 7.4-4.8 14.9-7.4 22.2-2.9 8.1-1.8 9.7 6.8 9.7h102m52-56H199.6c-5.9 0-9.4 3.1-9.4 8.5 0 1.2 1.5 2.8 2.7 3.3 1.3.6 3 .2 4.5.2h172.3c1.3 0 2.9.4 3.9-.1 1.4-.8 3.1-2.2 3.2-3.5.5-3.8-3.9-8.3-7.8-8.4h-27.5M94.1 349.2l-2.3.7c-3.8 1-7.4 5.7-6.7 9.2.9 4.4 4.7 3.9 8 3.9 8.3 0 16.6-.3 24.9.2 5.4.3 8.2-2.1 10.3-6.7 2.6-5.7 1.6-7.4-4.9-7.5-9.4 0-18.9 0-29.3.2m342.6 13.1c1.9.3 3.9.7 5.8.7l24.8-1c2-.1 4.2.5 5.9-.2 1.5-.6 3.3-2.6 3.4-4 .1-3.7-4.9-7.8-8.8-7.8l-31.7 1c-3.8.1-4.8 2.2-3.8 5.2.8 2.1 2.4 3.9 4.4 6.1M121.1 345c4.8-.5 9.3-4.9 8.4-9.1-1-5-4.9-3.8-8.4-3-1.2.3-2.6.1-4 .1-5.8 0-11.6-.1-17.4.1-3.5.1-7.9 5.1-7.6 8.7.4 4.4 4.1 4.3 7.2 4.2l21.8-.9m59.7 22.5c-9.2-.1-18.4-.7-27.5-.1-1.9.1-4.1 4.4-5.1 7.2-1.1 3 .2 5.5 4.2 5.4h19.5c6.8 0 10.4-4.6 8.9-12.4m-77.9 12.4c4.9-.4 7.2-4 8.8-7.8 1.3-3.2-.8-6.2-3.8-6l-25.8 1.8c-3 .3-6.4 5.4-6.1 8.7.4 4.1 3.6 3.3 6.1 3.3h20.8m348.1-63h-25.5c-2.7 0-5.3.7-4.2 3.8 1.4 3.9 3.8 7.8 8.6 8 8.2.4 16.4.3 24.5 0 1.2 0 3.5-2.5 3.3-3.6-.4-3.5-1.4-7.3-6.7-8.2m-16.6 20.8c1.6 6 5.4 8 11.5 7.3 6.7-.7 13.5-.7 20.3-1.1 3.5-.2 5.1-3 3.1-5.8-1.5-2.1-3.8-4.8-5.9-4.9-9-.5-18.1-.2-27.1 0-.8 0-1.4 2.4-1.9 4.5M486 374c-2-2.3-3.9-6.2-6-6.4-7.7-.5-15.5.1-23.2.7-1.3.1-3.3 2-3.5 3.4-.6 3.7 4.4 8.5 8.3 8.3 6.8-.2 13.6-.7 20.3-.9 3-.1 4.3-1.4 4.1-5.1m-100.8-5.3c-2.7 6.2-.2 10.5 6.1 10.4 7.3-.2 14.6-.5 21.9-1.2 1.3-.1 3.6-2.2 3.6-3.4 0-3.7-2-7.2-6.1-7.2-8.2-.1-16.5.6-25.5 1.4M141.1 367c-4.7 0-9.5.4-14.1-.1-5.7-.7-7.7 2.6-9.3 6.9-1.4 3.6 0 6 3.8 6.2 4 .2 8 .2 12 0 5.6-.2 9.9-7 7.6-13.1m75.4-15.5c-1.8-.7-3.7-1.6-5.6-1.8-2.1-.2-4.2.4-6.4.4-7.8-.2-7.8-.2-10 7.1-1.1 3.6.4 5.6 3.9 5.9 2.8.2 5.6.1 8.5.1 9.1 0 10.4-1.5 9.6-11.7m55.4 11.6c1.1-.4 2.3-.6 3.3-1.1 4-2.2 3.2-6.1 2.4-9.2-.3-1.3-3.4-2.4-5.4-2.6-3.7-.3-7.6 0-11.4-.1-2.9 0-5.4.6-5.7 4-.4 3.6-.7 7.5 4.1 8.2 3.9.6 7.9.6 12.7.8m-46.9-3.8c2.1 1.3 4 3.2 6.2 3.6 3.2.7 6.5.2 9.8.2 5.8.1 7-.9 7-6.4 0-5.6-1-6.5-6.8-6.6h-7.9c-6.5 0-7.9 1.5-8.3 9.2m-43.3 3.7c.9-.4 2.4-.6 2.7-1.3 1.3-3 2.3-6.3 3.4-9.4-2.4-.7-4.7-1.8-7.1-2.1-3.1-.4-6.2-.3-9.4-.4-5.8-.3-5.3 4.6-6.1 7.9-.9 3.4 1.1 5.3 4.7 5.4l11.8-.1m195.5-5.9c.8 4.9 3.7 6.7 8.5 6 3.1-.4 6.4-.3 9.3-1.2a6 6 0 0 0 3.6-4c.9-4.2-3-8.5-7.4-8.7-2.3-.2-4.7 0-7 0-6.4 0-7.1.7-7 7.9m-227.1 5.1c1.6-.4 3.9-.2 4.7-1.1 1.7-2.3 3-5 3.8-7.7.1-.7-2.4-3-3.7-3.1-4.5-.3-9.1-.5-13.5.2-2.3.3-4.7 2.4-6.2 4.4-1.1 1.2-1.2 3.8-.6 5.5.3.9 2.6 1.6 4.1 1.7 3.5.2 7 .1 11.4.1m164.9-7.3c.4 6.6 1.1 7.3 7.7 7.3 3.4 0 6.9.1 10.4-.1 5.2-.3 7-3.4 4.7-8.1-1.5-3.1-4.1-4.5-7.3-3.8-5.2 1.2-11.8-3.5-15.5 4.6m1-8.7c4.7-1.1 6.2-3.9 4.9-9.3-1-4-3.7-3.7-7-3-2.9.6-6.1.8-8.9 0-4.3-1.2-5.4 1-5.9 4.3-.9 5.3.5 7.8 4.6 8 3.8.2 7.6 0 12.3 0m115.7 33c4.1-.3 8.3-.3 12.2-1.2 1.5-.3 3.8-3.6 3.6-4-1.9-2.4-4-5.9-6.6-6.5-4.8-1-9.9-.5-14.9-.1-1.3.2-3.5 2.3-3.6 3.7-.3 3.2 4.8 7.7 9.3 8.1m-203.4-56.3c-.4 4.2 1.9 6 5.8 6.3 2.1.1 4.3-.1 6.4.1 10.2.6 9.1-2 7.4-9.7-.8-3.4-2.8-4.8-6.2-4.3-2.1.3-4.2 1.1-6.3.9-4.6-.5-6.9 1.3-7.1 6.7M375 343.9c3.1-4.8.3-10.6-5.4-10.8h-10.4c-3 0-6.1.3-6 4.1.2 3.4.7 7.5 5.3 7.7 5.3.2 10.5-.3 16.5-.9m-32-11.8c-3.6.3-7.2.8-10.8.8-3.6 0-6.2.9-6.2 5.2s2.3 6.7 6.6 6.9h8.5c2.8 0 6.1.2 6.7-3.5.5-3.7 1.1-7.8-4.8-9.5m-195.5 13c1.3-.1 2.7.1 4-.2 2.7-.6 5.9-6.1 5.4-9.2-.7-3.7-3.7-3.6-6.6-3.7-2.9 0-5.7-.5-8.6-.4-1.1 0-2.9.8-3.2 1.6-1.2 3.4-3.5 7.5-2.6 10.4 1.2 3.6 5.8 2.7 9.3 1.6l2.3-.1m199.9 5.5c-2.2 4.3.2 12.2 4 12.1 4.3 0 8.5-.6 12.8-1.3 3.1-.5 5.3-2.2 4.7-5.7-.6-3.4-2.3-5.8-6.3-5.7-4.8.2-9.6.2-15.2.6m57.8 2.9c1.1 3.6 1.5 8 6.3 8.5 4.3.4 8.7.2 13 .1 3.3-.2 5.3-2.1 4.1-5.3-1.3-3.8-3.2-7.4-8.4-6.8-3.3.4-6.7-.2-10 .2-1.7.2-3.3 1.7-5 3.4m23.6-8c1-1.3 2.8-2.6 2.9-3.9.3-3.5-4.7-8.4-8.3-8.6-2.8-.1-5.7-.3-8.4 0-2.3.3-4.5 1.2-6.7 1.9.8 2.4 1.1 5.1 2.6 7 1.2 1.6 3.7 2.6 5.8 2.9 3.7.7 7.5.7 12.1.7M210.4 333c-5.6.1-11.3-.5-16.6.8-1.8.4-3.4 5.4-3.5 8.4-.3 3.6 3.3 2.7 5.7 2.8h7.5c7.3 0 10-4.1 6.9-12m87.9 29h2.5c4 .1 7-1.3 7.1-5.7.1-4-2.6-6.2-7.2-6.3-3 0-6 .2-8.9 0-4.3-.3-6.1 1.2-5.9 5.7.2 6 .3 6.4 6.5 6.4h5.9m93.6-33.1c1.3-1.4 3.5-2.8 3.7-4.4.7-4.1-4-8.4-8.1-8.6l-8.4-.4c-3.3 0-5.4 1.6-4.4 4.9 2.4 7.8.6 8.8 10.3 8.6l6.9-.1m-9.9 6.8c-.1 8 1.1 9.2 9.1 9.2h6c3.5 0 7-.5 7.6-4.7.4-3.1-4.4-7.2-7.8-7.3-3.4 0-6.7-.2-10 .1-1.6.2-3.1 1.2-4.9 2.7m-89 1c-1.4-1.3-2.7-3.4-4.2-3.6-4.2-.5-8.6-.5-12.8 0-1.5.2-3.6 2.3-3.9 3.7-1 7.2-.1 8.1 7.1 8.1h6.4c6.7 0 7.3-.6 7.4-8.3m-129.8 2.4c.7 1.9 1.3 5.4 2.2 5.5 4.9.5 10 .8 14.8 0 4-.7 4.9-4.7 4.7-8.3-.2-4.1-3.5-3.1-6-3.2-2.1-.1-4.5.5-6.4-.2-5.5-1.9-7.6 1.2-9.3 6.2m94.2 6.5 2-.2c6-1 7-2.2 6.6-7.5-.3-5.2-4-4.9-7.5-4.9H252c-6 0-6.7 1-7.1 6.4-.4 5.5 2.7 5.9 6.8 5.7 1.6-.1 3.3.2 5.7.5M162.6 316h-4.5c-3.1.4-6.3 5.3-6.1 9.2.1 4.5 3.4 3.7 6.1 3.7h6.5c5-.1 8.3-3.5 8.3-9 0-5.7-4.5-3.5-7.4-3.9h-2.9m54.6 23.9c1.2 1.6 2.2 4.6 3.5 4.8 4.8.6 9.6.4 14.4.2 3-.2 5.4-4.9 4.9-8.7-.6-4.4-3.9-3.2-6.6-3.1-2.3.1-4.8 1.3-6.8.7-5.4-1.7-7.6.9-9.4 6.1M366.3 316c-2.6.2-5.3.7-7.9.5-6-.5-7.1.4-6.4 6.3.6 3.9 2.4 6.4 6.9 6.2 2.3-.2 4.7-.1 7 0 3.1.1 5.9-.5 6-4.3.1-3.7 1-8.1-5.6-8.7m-77.9 0c-2 0-4-.2-5.9.2-1.2.2-3.1 1.4-3.2 2.3-.8 7.4-1 11.3 7.5 10.5h4c7.8 0 8.7-1.3 7.2-8.8-1-5.5-5.2-3.9-9.6-4.2m31.5 12.8c4.5-1.4 4.4-4.8 3.7-8.5-.7-3.8-3.1-4.6-6.5-4.3-3 .2-6 .1-9 0-4.8-.1-3.9 3.3-4.1 6.3-.3 3.3.5 6.1 4.4 6.4 3.5.3 7.1.2 11.5.1M194.2 316c-3 .2-6 .5-8.9.5-4 0-8.3 4-8.2 8.1.2 4.5 3.9 4.3 7.1 4.4h7.4c4.7-.4 5-4.4 6-7.6.8-2.4.7-4.7-3.4-5.4m214.5 13h6.9c4 .1 5-2 4.1-5.4-1.8-6.4-13.3-10.6-18.7-6.7-1.1.7-1.9 2.7-1.9 4.1.2 4.9 3.6 7.8 9.6 8m-196.2-12.1c-6.1-1-12.3 4.1-10.1 8.9 2.9 6.4 9.4 2.3 14.3 3.1 3 .6 4.9-1 5.3-4.4.8-7.3-1.4-9.4-9.5-7.6m-93.4 9.8c.6-3 2-6.1 1.6-9.1-.2-2-14.4-2-15.3.1-1.4 3.1-3 6.6-2.6 9.6.2 1.3 5.3 2.5 8.2 2.5 2.6.1 5.2-1.5 8.1-3.1m226.9-5.8c-.1-3.6-2.2-5-5.5-4.8-2.8.1-5.7.8-8.4.3-3.9-.7-5.1.7-5.2 4.3-.1 6.9.2 7.4 7.1 7.4 1.8 0 3.7-.2 5.5 0 4.9.5 7.3-1.2 6.5-7.3m-79.1-4.7h-6.5c-6.1 0-6.7.7-6.5 6.8.2 3.4 1.7 5.2 5.2 5.2 2.5 0 5-.2 7.4 0 4.6.4 6.4-1.9 5.3-5.9-.5-2.2-2.6-4-4.9-6.1M146 317.5c-4.8.2-9.9-.8-14.2.7-4.3 1.5-4.6 8.9-.8 9.8 3.8 1 8.6 1.2 11.9-.5 2.2-1.1 2.4-6.1 3.1-10z"/><path fill="#b3cfe4" d="M83.8 59.1c.1-7.8-.2-15.2.4-22.5.3-4 1.5-8.1 3-11.9 1.7-4.4 5.4-6.6 10.2-6.6l88-.8c91.2-.6 182.3-1.1 273.5-1.5 5.4 0 10.8 1.5 16.2 2.1 4.1.5 5.4 3.5 6.1 6.8.3 1.8.3 3.7.3 5.5l3.2 246c.2 10-6.1 16.4-16.2 16.5l-85 1-277 3c-4.6 0-9.3-.6-13.7-1.7-6.8-1.8-8.5-4.4-8.6-11.4l-.1-41-.3-183.5m344.7 214.3 31.5-.3c14.1 0 13.1.6 12.7-14.1l-3.6-132.4-2.4-87.9c-.2-7.5-.6-7.8-8.2-7.7l-160 1.2-191.4 1.9c-9.1.1-9.2.2-9.2 9.3l-1.6 147.9-.8 82c-.1 4 1.2 6.2 5.7 6 7-.3 14 0 21-.1l219.9-4 86.4-1.8z"/><path fill="#b7d4e9" d="M289 423.1H187.5c-8.6 0-9.7-1.6-6.8-9.7a582 582 0 0 0 7.4-22.3c1.4-4.3 3.7-6.1 8.7-6.1 49.3.2 98.6.2 147.9.1 8 0 16-.5 23.9-.9 4.3-.3 6.7 1.7 8 5.4 3.2 9.1 6.4 18.2 9.4 27.3 1.8 5.2.9 6.3-4.5 6.3H289z"/><path fill="#b8d4e9" d="M342 367.1h27c3.9 0 8.3 4.6 7.8 8.4-.1 1.3-1.8 2.7-3.2 3.5-1 .5-2.6.1-3.9.1H197.4c-1.5 0-3.2.4-4.5-.2-1.2-.6-2.7-2.1-2.7-3.3 0-5.4 3.5-8.5 9.4-8.5H342zM94.6 349.2l28.8-.1c6.5 0 7.5 1.8 4.9 7.5-2.1 4.6-4.9 6.9-10.3 6.6-8.3-.4-16.6-.1-24.9-.1-3.3 0-7.1.5-8-4-.7-3.4 2.9-8.1 6.7-9.1l2.8-.8zM436.3 362.2c-1.6-2.1-3.2-3.8-4-5.9-1-3.1 0-5.2 3.8-5.2l31.7-1c3.9-.1 8.8 4.1 8.8 7.8 0 1.4-1.9 3.4-3.4 4-1.7.7-3.9.1-5.9.2-8.2.3-16.5.7-24.8.9-1.9.1-3.9-.4-6.2-.8zM120.6 345.1l-21.3.9c-3.1.1-6.8.3-7.2-4.2-.3-3.6 4.1-8.5 7.6-8.6 5.8-.2 11.6-.1 17.4-.1 1.4 0 2.8.1 4-.1 3.5-.8 7.4-2 8.4 3 .9 4.1-3.6 8.6-8.9 9.1zM181.1 368c1.2 7.4-2.4 12.1-9.2 12.1h-19.5c-4 .1-5.3-2.4-4.2-5.4 1-2.8 3.2-7.1 5.1-7.2 9.1-.6 18.3 0 27.8.4zM102.5 380.1H82.1c-2.5 0-5.7.8-6.1-3.3-.3-3.3 3.1-8.4 6.1-8.6 8.6-.8 17.2-1.4 25.8-1.9 3-.2 5.1 2.8 3.8 6-1.6 3.8-3.9 7.4-9.2 7.8zM451.4 317.1c4.9.9 5.9 4.6 6.3 8.2.2 1.1-2.1 3.6-3.3 3.6-8.1.3-16.3.4-24.5 0-4.8-.2-7.2-4.1-8.6-8-1.1-3.1 1.5-3.9 4.2-3.9h25.9zM434.3 337.5c.6-1.6 1.2-4.1 2-4.1 9-.3 18.1-.5 27.1 0 2.1.1 4.4 2.9 5.9 4.9 2 2.8.4 5.6-3.1 5.8-6.8.4-13.6.4-20.3 1.1-6.1.7-9.9-1.3-11.6-7.6zM486 374.4c.2 3.3-1.1 4.6-4.1 4.7-6.7.2-13.5.7-20.3.9-3.9.2-8.9-4.6-8.3-8.3.2-1.3 2.2-3.3 3.5-3.4 7.7-.6 15.5-1.2 23.2-.7 2.1.2 4 4.2 6 6.8zM385.6 368.5c8.6-.6 16.9-1.3 25.1-1.2 4.1 0 6.1 3.5 6.1 7.2 0 1.2-2.3 3.3-3.6 3.5-7.3.6-14.6.9-21.9 1.1-6.3.1-8.8-4.2-5.7-10.6zM141.4 367.3c2 5.8-2.3 12.6-7.9 12.8-4 .1-8 .2-12 0-3.8-.2-5.2-2.6-3.8-6.2 1.6-4.3 3.6-7.6 9.3-6.9 4.6.5 9.4.1 14.4.3zM216.7 351.8c.6 9.9-.7 11.3-9.8 11.3-2.9 0-5.7.2-8.5-.1-3.5-.3-5-2.3-3.9-5.8 2.2-7.4 2.2-7.3 10-7.2 2.2 0 4.3-.6 6.4-.3 1.9.2 3.8 1.1 5.8 2.1zM271.5 363.1c-4.4-.3-8.4-.3-12.3-.8-4.8-.8-4.5-4.7-4.1-8.2.3-3.4 2.8-4 5.7-4 3.8.1 7.7-.3 11.4.1 2 .2 5.1 1.3 5.4 2.5.8 3.2 1.6 7.1-2.4 9.3-1 .5-2.2.7-3.7 1.1z"/><path fill="#b9d4e9" d="M225 358.8c.4-7.3 1.8-8.7 8.3-8.7h7.9c5.8 0 6.8 1 6.8 6.6 0 5.4-1.2 6.5-7 6.4-3.3 0-6.6.5-9.8-.2-2.2-.4-4.1-2.4-6.2-4.1z"/><path fill="#b8d4e9" d="m181.3 363-11.4.1c-3.6 0-5.6-2-4.7-5.4.8-3.3.3-8.2 6.1-7.9 3.2.1 6.3 0 9.4.4 2.4.4 4.7 1.4 7.1 2.1-1.1 3.2-2.1 6.4-3.4 9.5-.3.6-1.8.8-3.1 1.3z"/><path fill="#b9d4e9" d="M377.1 356.7c0-6.9.7-7.6 7.1-7.6h7c4.4.3 8.3 4.5 7.4 8.8a6 6 0 0 1-3.6 3.9c-2.9.9-6.2.8-9.3 1.3-4.8.6-7.7-1.2-8.6-6.5z"/><path fill="#b8d4e9" d="M149.6 362.1c-3.9 0-7.4.2-10.9-.1-1.5-.1-3.8-.8-4.1-1.7-.6-1.7-.5-4.2.6-5.5 1.5-2 3.9-4 6.2-4.4 4.4-.7 9-.5 13.5-.1 1.3.1 3.8 2.3 3.7 3a24 24 0 0 1-3.8 7.7c-.8 1-3.1.8-5.2 1.1z"/><path fill="#b9d4e9" d="M315 354.4c3.7-7.8 10.3-3.1 15.5-4.2 3.2-.8 5.8.7 7.3 3.7 2.3 4.7.5 7.9-4.7 8.1-3.5.2-7 .1-10.4.1-6.6 0-7.3-.7-7.7-7.7z"/><path fill="#b8d4e9" d="M315.6 346.1c-4.3 0-8.1.2-11.9 0-4.1-.2-5.5-2.7-4.6-8 .5-3.3 1.6-5.5 5.9-4.3 2.8.8 6 .6 8.9 0 3.3-.7 6-1 7 3 1.3 5.4-.2 8.2-5.3 9.3zM431.2 379.1c-4-.4-9.1-4.9-8.8-8.2.1-1.3 2.3-3.5 3.6-3.6 5-.4 10.1-.9 14.9.1 2.6.6 4.7 4 6.6 6.5.2.3-2.1 3.7-3.6 4-3.9.9-8.1.9-12.7 1.2z"/><path fill="#b9d4e9" d="M228.4 322.4c.1-5.1 2.4-6.9 7-6.4 2.1.2 4.2-.6 6.3-.9 3.4-.4 5.4 1 6.2 4.3 1.7 7.8 2.8 10.3-7.4 9.7-2.1-.1-4.3.1-6.4-.1-3.9-.2-6.2-2.1-5.7-6.7zM374.7 344.2c-5.7.4-10.9.9-16.2.7-4.6-.2-5.1-4.3-5.3-7.7-.1-3.8 3-4.1 6-4.1h10.4c5.7.2 8.5 6 5.1 11.1zM343.4 332.2c5.5 1.6 4.9 5.8 4.4 9.5-.6 3.7-3.9 3.4-6.7 3.4h-8.5c-4.3-.1-6.6-2.6-6.6-6.9 0-4.2 2.6-5.1 6.2-5.1s7.2-.6 11.2-.8zM147.1 345.1c-.9.1-1.5 0-1.9.2-3.5 1-8.1 2-9.3-1.6-.9-2.9 1.4-7 2.6-10.4.3-.9 2.1-1.6 3.2-1.6 2.9-.1 5.7.4 8.6.4 2.9 0 5.9 0 6.6 3.7.5 3.1-2.7 8.6-5.4 9.2-1.3.2-2.7.1-4.4.1z"/><path fill="#b8d4e9" d="m347.8 350.4 14.8-.3c4-.2 5.7 2.3 6.3 5.6.6 3.6-1.6 5.3-4.7 5.8-4.3.6-8.5 1.2-12.8 1.3-3.8 0-6.2-7.8-3.6-12.4zM405.2 353.2c1.7-1.3 3.3-2.8 5-3 3.3-.4 6.7.2 10-.2 5.2-.6 7.1 3.1 8.4 6.8 1.2 3.2-.8 5.1-4.1 5.3-4.3.1-8.7.3-13-.1-4.8-.5-5.2-4.9-6.3-8.8zM428.4 345.7c-4.2-.1-8-.1-11.7-.7-2.1-.4-4.6-1.3-5.8-2.9-1.5-1.9-1.8-4.7-2.6-7.1 2.2-.6 4.4-1.6 6.7-1.8 2.7-.3 5.6-.2 8.4 0 3.6.2 8.6 5.1 8.3 8.5-.1 1.4-1.9 2.7-3.3 4.1z"/><path fill="#b7d4e9" d="M210.7 333.3c2.8 7.6.1 11.8-7.2 11.8H196c-2.4-.1-6 .8-5.7-2.8.1-3 1.7-8 3.5-8.4 5.3-1.3 11-.7 16.9-.5z"/><path fill="#b8d4e9" d="M297.9 362.1h-5.5c-6.2 0-6.3-.3-6.5-6.4-.2-4.5 1.6-6 5.9-5.7 2.9.3 5.9 0 8.9 0 4.6.1 7.3 2.3 7.2 6.3-.1 4.4-3.1 5.9-7.1 5.7h-2.9zM391.4 329.1H385c-9.7.2-7.9-.8-10.3-8.6-1-3.3 1.1-4.9 4.4-4.9 2.8 0 5.6.4 8.4.4 4.1.2 8.8 4.5 8.1 8.6-.2 1.6-2.4 3-4.2 4.4z"/><path fill="#b9d4e9" d="M382.1 335.5c1.7-1.1 3.2-2.2 4.8-2.3 3.3-.3 6.6-.1 10-.1 3.4 0 8.2 4.1 7.8 7.3-.6 4.1-4.1 4.6-7.6 4.6h-6c-8 0-9.2-1.2-9-9.6z"/><path fill="#b8d4e9" d="M293 337.2c-.1 7.2-.7 7.9-7.4 7.9h-6.4c-7.1 0-8.1-.9-7.1-8.1.3-1.4 2.4-3.5 3.9-3.7 4.2-.5 8.6-.5 12.8 0 1.5.2 2.8 2.3 4.2 4zM163.3 338.8c1.6-4.7 3.7-7.8 9.2-5.8 1.9.6 4.3 0 6.4.1 2.5.1 5.8-.9 6 3.2.2 3.7-.7 7.7-4.7 8.3-4.8.9-9.9.6-14.8.1-.9-.1-1.5-3.6-2.1-5.9zM257 345.6c-2-.2-3.7-.5-5.3-.5-4.1.3-7.2-.1-6.8-5.7.4-5.3 1.1-6.2 7.1-6.3h6.5c3.5 0 7.2-.3 7.5 4.9.4 5.3-.6 6.5-6.6 7.5-.7.1-1.3.2-2.4.1zM163.1 316.1h2.4c2.9.4 7.4-1.7 7.4 3.9 0 5.5-3.3 9-8.3 9.1h-6.5c-2.7-.1-6 .7-6.1-3.8-.2-3.9 3-8.8 6.1-9.2 1.5-.2 3 0 5-.1zM217.3 339.6c1.7-4.7 3.9-7.4 9.3-5.7 2 .7 4.5-.6 6.8-.6 2.7-.1 6-1.3 6.6 3 .5 3.9-1.9 8.5-4.9 8.7a77 77 0 0 1-14.4-.2c-1.3-.2-2.3-3.1-3.4-5.2z"/><path fill="#b9d4e9" d="M366.7 316.1c6.2.7 5.3 5 5.2 8.7-.1 3.8-2.9 4.4-6 4.3h-7c-4.5.3-6.3-2.3-6.9-6.2-.7-5.9.4-6.8 6.4-6.3 2.6.3 5.3-.3 8.3-.5z"/><path fill="#b8d4e9" d="M288.9 316.1c3.9.3 8.1-1.3 9.1 4.2 1.5 7.5.6 8.8-7.2 8.8h-4c-8.5.8-8.3-3.1-7.5-10.5.1-.9 2-2.1 3.2-2.4 1.9-.4 3.9-.1 6.4-.1z"/><path fill="#b9d4e9" d="M319.5 329c-4 0-7.6.1-11.1-.2-3.9-.3-4.7-3-4.4-6.4.2-3-.7-6.4 4.1-6.3h9c3.4-.2 5.8.5 6.5 4.3.7 3.8.8 7.1-4.1 8.6zM194.6 316.1c3.7.6 3.8 3 3 5.4-1 3.2-1.3 7.2-6 7.5-2.4.2-5 .1-7.4 0-3.2-.1-6.9.2-7.1-4.3-.1-4.2 4.2-8.1 8.2-8.1 2.9 0 5.9-.4 9.3-.5z"/><path fill="#b8d4e9" d="M408.2 329.1c-5.5-.2-8.9-3.1-9.1-8 0-1.4.8-3.4 1.9-4.2 5.4-3.8 16.9.4 18.7 6.8.9 3.3 0 5.5-4.1 5.4h-7.4zM212.9 316.9c7.7-1.7 9.9.3 9.1 7.7-.4 3.3-2.3 5-5.3 4.4-4.9-.9-11.4 3.3-14.3-3.2-2.2-4.8 4-9.9 10.5-8.9z"/><path fill="#b9d4e9" d="M118.9 327.1c-2.7 1.2-5.3 2.8-7.9 2.8-2.9 0-8-1.3-8.2-2.6-.4-3 1.2-6.5 2.6-9.5.9-2.1 15.1-2.1 15.3-.1.4 2.9-1 6-1.8 9.4z"/><path fill="#b8d4e9" d="M346 321.3c.8 5.6-1.6 7.4-6.5 6.9-1.8-.2-3.7 0-5.5 0-6.9 0-7.2-.5-7.1-7.4.1-3.6 1.3-5 5.2-4.3 2.7.5 5.6-.2 8.4-.4 3.3-.1 5.4 1.2 5.5 5.3zM267.3 316.2c1.9 2.1 4 3.9 4.5 6.1 1.1 3.9-.7 6.3-5.3 5.9-2.4-.3-4.9 0-7.4 0-3.5 0-5-1.8-5.2-5.2-.2-6.1.4-6.8 6.5-6.8l6.9.1z"/><path fill="#b9d4e9" d="M146.2 317.9c-.9 3.6-1.1 8.6-3.3 9.7a17.9 17.9 0 0 1-11.9.5c-3.8-1-3.5-8.3.8-9.8s9.4-.6 14.4-.4z"/><path fill="#404040" d="m428 273.4-85.9 1.8-219.9 4c-7 .1-14-.2-21 .1-4.5.2-5.8-2-5.7-6l.9-82 1.5-147.9c.1-9.1.1-9.2 9.2-9.3l191.5-1.9L458.5 31c7.6-.1 8 .2 8.2 7.7l2.4 87.9 3.6 132.4c.5 14.7 1.4 14.1-12.7 14.1l-32 .3z"/></svg>