<?xml version="1.0" encoding="UTF-8" standalone="no"?>
<!-- Uploaded to: SVG Repo, www.svgrepo.com, Generator: SVG Repo Mixer Tools -->

<svg
   version="1.1"
   id="Layer_1"
   viewBox="0 0 512 512"
   xml:space="preserve"
   sodipodi:docname="measuring-tape.svg"
   inkscape:version="1.2.2 (732a01da63, 2022-12-09)"
   xmlns:inkscape="http://www.inkscape.org/namespaces/inkscape"
   xmlns:sodipodi="http://sodipodi.sourceforge.net/DTD/sodipodi-0.dtd"
   xmlns="http://www.w3.org/2000/svg"
   xmlns:svg="http://www.w3.org/2000/svg"><defs
   id="defs5395" /><sodipodi:namedview
   id="namedview5393"
   pagecolor="#ffffff"
   bordercolor="#000000"
   borderopacity="0.25"
   inkscape:showpageshadow="2"
   inkscape:pageopacity="0.0"
   inkscape:pagecheckerboard="0"
   inkscape:deskcolor="#d1d1d1"
   showgrid="false"
   inkscape:zoom="0.78515625"
   inkscape:cx="-43.303483"
   inkscape:cy="319.04478"
   inkscape:window-width="1920"
   inkscape:window-height="991"
   inkscape:window-x="-9"
   inkscape:window-y="56"
   inkscape:window-maximized="1"
   inkscape:current-layer="Layer_1" />









<g
   id="g5530"
   transform="matrix(0.3222731,0.72290223,-0.70237414,0.31398176,356.04537,-19.148919)"><path
     style="fill:#fbb03b"
     d="m 7.861,132.063 v 104.058 c 0,48.629 39.421,88.05 88.05,88.05 h 320.18 c 48.629,0 88.05,39.421 88.05,88.05 v 0 -104.058 c 0,-48.629 -39.421,-88.05 -88.05,-88.05 H 87.906"
     id="path5360" /><circle
     style="fill:#a65a53"
     cx="95.911003"
     cy="132.06"
     r="88.051003"
     id="circle5362" /><circle
     style="fill:#ffffff"
     cx="95.911003"
     cy="132.06"
     r="16.009001"
     id="circle5364" /><g
     id="g5370">
	<path
   style="fill:#bf9484"
   d="m 183.941,132.063 v 88.048 h -80.026 c 0,0 80.026,-19.381 80.026,-88.048 z"
   id="path5366" />
	<path
   style="fill:#bf9484"
   d="m 487.319,356.135 c -10.106,9.901 -23.946,15.95 -39.211,15.95 h -168.79 v 96.425 h 168.79 c 30.945,0 56.031,-25.243 56.031,-56.189"
   id="path5368" />
</g><rect
     x="280.01001"
     y="372.20099"
     style="fill:#ffffff"
     width="48.027"
     height="96.057999"
     id="rect5372" /><path
     d="m 95.91,155.933 c -13.162,0 -23.869,-10.708 -23.869,-23.869 0,-13.161 10.708,-23.869 23.869,-23.869 13.161,0 23.869,10.707 23.869,23.869 0,13.162 -10.708,23.869 -23.869,23.869 z m 0,-32.017 c -4.493,0 -8.148,3.655 -8.148,8.148 0,4.493 3.655,8.148 8.148,8.148 4.493,0 8.148,-3.656 8.148,-8.148 0,-4.494 -3.654,-8.148 -8.148,-8.148 z"
     id="path5374" /><g
     id="g5380">
	<path
   style="fill:#ffffff"
   d="M 63.748,132.071 H 48.027 c 0,-26.202 21.672,-47.891 47.874,-47.891 v 15.721 c -17.818,0.001 -32.153,14.352 -32.153,32.17 z"
   id="path5376" />
	<path
   style="fill:#ffffff"
   d="m 95.901,203.96 v -15.721 c 31.443,0 56.184,-24.725 56.184,-56.168 h 15.721 c 10e-4,39.828 -32.077,71.889 -71.905,71.889 z"
   id="path5378" />
</g><rect
     x="296.08801"
     y="403.52802"
     width="15.721"
     height="32.491001"
     id="rect5382" /><path
     d="M 416.09,212.252 H 191.802 c 0,0 0.019,-79.62 0.019,-80.189 0,-52.885 -43.025,-95.91 -95.91,-95.91 C 43.026,36.153 0,79.179 0,132.063 v 104.058 c 0,52.885 43.025,95.91 95.91,95.91 h 320.18 c 22.614,0 43.056,9.423 57.647,24.533 -7.515,4.639 -16.329,7.135 -25.629,7.135 H 270.933 v 112.146 h 177.175 c 35.128,0 63.718,-28.136 63.885,-63.626 H 512 v 0 -104.057 c 0,-52.885 -43.025,-95.91 -95.91,-95.91 z M 95.91,51.875 c 44.217,0 80.189,35.973 80.189,80.189 0,44.216 -35.972,80.189 -80.189,80.189 -44.217,0 -80.189,-35.973 -80.189,-80.189 0,-44.216 35.972,-80.189 80.189,-80.189 z m 79.523,133.753 -0.331,26.625 h -26.639 c 10.651,-7.006 19.835,-16.068 26.97,-26.625 z m 287.302,91.08 v 51.735 c -4.666,-2.609 -9.571,-4.835 -14.673,-6.644 v -29.37 H 432.34 v 25.268 c -5.285,-0.906 -10.712,-1.388 -16.251,-1.388 h -0.519 v -39.601 h -15.721 v 39.602 h -16.77 v -23.88 h -15.721 v 23.881 h -15.721 v -64.757 h -15.721 v 64.757 H 321.243 V 292.43 h -15.721 v 23.881 h -18.866 v -39.602 h -15.721 v 39.602 H 256.26 V 292.43 h -15.721 v 23.881 H 222.721 V 251.554 H 207 v 64.757 H 192.327 V 292.43 h -15.721 v 23.881 h -15.721 v -39.602 h -15.721 v 39.602 H 126.298 V 292.43 h -15.721 v 23.881 H 95.91 c -0.003,0 -0.006,0 -0.009,0 V 251.554 H 80.179 v 63.198 c -5.46,-1.09 -10.72,-2.733 -15.721,-4.875 V 284.045 H 48.737 v 16.865 c -2.956,-2.158 -5.754,-4.515 -8.385,-7.047 V 251.554 H 24.63 v 21.231 c -5.68,-10.997 -8.909,-23.456 -8.909,-36.664 v -51.505 c 17.158,26.092 46.693,43.357 80.189,43.357 h 320.18 c 44.217,0 80.189,35.973 80.189,80.189 v 51.492 c -4.969,-7.555 -10.982,-14.362 -17.822,-20.23 v -62.716 z m -176.08,102.714 h 9.433 v 9.433 h 15.721 v -9.433 h 8.385 v 80.704 h -8.385 v -7.337 h -15.721 v 7.337 h -9.433 z m 185.513,74.148 v -17.55 h -15.721 v 23.356 c -2.71,0.483 -5.494,0.75 -8.339,0.75 h -8.431 V 419.25 h -15.721 v 40.876 H 408.235 V 436.02 h -15.721 v 24.106 h -16.77 v -63.934 h -15.721 v 63.934 H 335.917 V 379.422 H 448.11 c 12.901,0 25.138,-3.662 35.447,-10.462 8.012,12.45 12.689,27.239 12.72,43.106 -0.059,17.498 -9.753,33.098 -24.109,41.504 z"
     id="path5384" /><g
     id="g5390">
	<path
   style="fill:#ffffff"
   d="M 39.734,132.071 H 24.013 c 0,-39.828 32.06,-71.905 71.888,-71.905 v 15.721 c -31.443,0.002 -56.167,24.741 -56.167,56.184 z"
   id="path5386" />
	<path
   style="fill:#ffffff"
   d="m 95.901,179.947 v -15.721 c 17.818,0 32.17,-14.337 32.17,-32.155 h 15.721 c 0.001,26.202 -21.689,47.876 -47.891,47.876 z"
   id="path5388" />
</g></g>
</svg>
