<?xml version="1.0" encoding="UTF-8"?>
<!-- Created with Vectornator (http://vectornator.io/) -->
<svg clip-rule="evenodd" stroke-linecap="round" stroke-linejoin="round" stroke-miterlimit="10" version="1.1" viewBox="0 0 2048 2048" xml:space="preserve" xmlns="http://www.w3.org/2000/svg" xmlns:xlink="http://www.w3.org/1999/xlink">

<clipPath id="ArtboardFrame">
<rect width="2048" height="2048"/>
</clipPath>

<g transform="matrix(3.6984 0 0 3.6984 146.89 364.81)"><path d="m192.1 47.435m-0.5566 0.7018m-2.6378 1.815m4.9126-0.1694m-1.5972 1.4036m-8.0586 1.2826m-5.1062 2.0328m10.914-1.8876m8.712 2.299m4.7674 6.5824m-30.565-5.1546m-6.8486 4.2108m-5.2272 1.1616c-0.121 0.0484 0.121 0.2904 0.6292 0.6776-0.484-0.3872-0.7502-0.6292-0.6292-0.6776zm-4.7674 1.3552m0.3872 0.121m2.5652 1.1616m4.598-0.4356m41.866 0.968m4.2108 1.2826m3.146 5.1062m-43.802-0.9922m10.696 3.2428m2.0086 1.1616m21.659 3.3154c0.0968 1.089 0.1694 1.6214 0 1.7424 0.1694-0.121 0.0968-0.6534 0-1.7424zm-21.127 0.484m20.691 1.1374c0.2178 0.121 0.363 0.1694 0.4356 0.121-0.0726 0.0484-0.242 0-0.4356-0.121zm-15.198 2.7346c1.6456 1.2584 3.146 2.4442 4.4044 3.5574-1.2584-1.1132-2.7588-2.299-4.4044-3.5574zm11.664 10.237m10.333 11.18m10.067 13.528m7.0422 12.148m2.783 5.5176m2.057 5.0336m2.0086 5.9532m1.694 7.0664c0.6534 2.904 1.452 6.534 1.452 7.018 0-0.484-0.8228-4.114-1.452-7.018zm-0.4356 6.8244a202.07 202.07 0 0 0-23.401 3.5816 174.48 174.48 0 0 0-21.78 6.292 160.54 160.54 0 0 0-45.254 25.386 154.54 154.54 0 0 0-21.102 20.522 144.52 144.52 0 0 0-15.972 23.232 137.89 137.89 0 0 0-12.487 31.654 132.01 132.01 0 0 0-4.0414 33.154 127.97 127.97 0 0 0 30.734 82.28 166.08 166.08 0 0 0 18.465 18.102l3.0008 2.42a100.87 100.87 0 0 0 10.237 7.26 142.78 142.78 0 0 0 11.882 6.7276 168.14 168.14 0 0 0 38.236 13.963 161.39 161.39 0 0 0 36.469 4.0172 169.88 169.88 0 0 0 48.037-6.897 170.68 170.68 0 0 0 33.348-13.746 160.3 160.3 0 0 0 20.038-12.995 150.52 150.52 0 0 0 21.683-20.255 140.12 140.12 0 0 0 6.2194-7.5504 112.48 112.48 0 0 0 10.358-15.367 133.2 133.2 0 0 0 8.2764-17.327 143.29 143.29 0 0 0 9.196-37.752 108.3 108.3 0 0 0 0.242-18.949 127.24 127.24 0 0 0-2.8072-19.239 138.01 138.01 0 0 0-13.649-36.397 121.9 121.9 0 0 0-10.406-15.706c-1.2584-1.5972-2.5652-3.146-3.9204-4.6706l-1.0648-1.21-3.146 0.0484c-1.8876 0.0242-2.783 0-3.0976 0.1936-0.1452 0.0968-0.1694 0.242-0.0968 0.4598l0.4114 0.9438c0.363 0.7986 0.6776 1.9602 0.8954 3.2912 0.242 1.3068 0.3872 2.7588 0.4356 4.114 0.0726 1.331 0.0242 2.5894-0.0968 3.4848-0.0484 0.4598-0.1452 0.8228-0.242 1.089-0.121 0.242-0.2662 0.4114-0.4356 0.4114a145.22 145.22 0 0 0-11.253 0.5324l-1.5488 0.1936c-0.3146 0-0.4356-0.0242-0.3872-0.121 0.0726-0.1452 0.3872-0.5808 0.7018-0.9922a5.566 5.566 0 0 0 0.7986-1.6214 10.164 10.164 0 0 0 0.4114-2.0328 15.173 15.173 0 0 0-0.1694-4.5496 15.561 15.561 0 0 0-1.3068-3.993c-0.3146-0.5324-0.6292-0.968-1.0164-1.2826a2.2506 2.2506 0 0 0-1.1858-0.605c-1.0406-0.1452-1.573-0.2178-1.7666-0.121-0.0968 0.0242-0.0968 0.0968-0.0242 0.242l0.363 0.484a13.455 13.455 0 0 1 2.7104 5.2514 11.084 11.084 0 0 1 0.242 3.6058 8.7604 8.7604 0 0 1-1.0406 3.2186 7.26 7.26 0 0 1-1.0164 1.331c-0.4598 0.5082-0.7502 0.8954-1.0406 1.1374-0.2662 0.242-0.5082 0.3388-0.8954 0.3146-0.363-0.0484-0.847-0.242-1.6214-0.5808l-3.2428-1.573a187.31 187.31 0 0 0-5.6628-2.662l-0.7744-0.3388 1.4278-0.6776c0.7986-0.3872 1.4762-0.8954 2.0328-1.452a5.9532 5.9532 0 0 0 1.5972-4.2108c-0.0242-0.7744-0.2178-1.5488-0.5808-2.3232-0.242-0.5082-0.4114-0.8954-0.605-1.1616-0.2178-0.2904-0.4598-0.484-0.847-0.605-0.4114-0.121-0.968-0.1936-1.7424-0.242l-3.2912-0.0726-5.0094-0.0726-0.6776 0.9438a5.7112 5.7112 0 0 0-1.0648 2.904c-0.0484 0.5324-0.0484 1.0648 0.0484 1.5488 0.0968 0.5082 0.242 0.9922 0.484 1.452 0.242 0.484 0.3388 0.726 0.2178 0.7986-0.1452 0.0968-0.5082 0-1.21-0.242-0.6292-0.1694-1.21-0.5082-1.694-0.968a6.2194 6.2194 0 0 1-1.9118-3.63c-0.0968-0.6776-0.0726-1.3794 0.0968-2.0328l0.242-0.8954h-1.1374c-0.484 0-0.7986 0-0.968 0.0968-0.1936 0.0726-0.242 0.2178-0.3388 0.4356-0.1452 0.5566-0.1694 1.4036-0.121 2.2264 0.0726 0.847 0.242 1.694 0.484 2.3232l0.4598 1.2826c0 0.0726-0.3388 0.0726-0.8712-0.0242a26.572 26.572 0 0 1-5.0578-1.452 5.2998 5.2998 0 0 1-0.9196-1.936c-0.2178-0.7744-0.3388-1.5972-0.242-2.1054l0.1452-0.7744-1.4036-0.1694c-0.5808-0.0726-0.9922-0.0968-1.331-0.242-0.1452-0.0726-0.2904-0.1694-0.4114-0.3146s-0.2178-0.3388-0.2904-0.605c-0.1694-0.484-0.2904-1.2826-0.3872-2.4442-0.121-1.1616-0.242-2.7588-0.363-4.8642-0.242-3.8236-0.3872-6.1952-0.363-7.6714 0-0.7502 0.0726-1.2584 0.1694-1.6456 0.0968-0.363 0.2178-0.5566 0.3872-0.6776 0.121-0.0968 0.726-0.1936 1.815-0.242 1.0648-0.0968 2.6136-0.1694 4.6464-0.2178 4.0414-0.0968 10.019-0.1694 17.956-0.1936 6.8244 0 12.463-0.0968 12.511-0.1936 0.0726-0.0968-0.5808-0.6292-1.6698-1.4036a191.88 191.88 0 0 0-15.173-9.438 167.49 167.49 0 0 0-18.465-8.6636 155.44 155.44 0 0 0-39.156-9.7768 172.3 172.3 0 0 0-21.006-1.21h-8.3732c-1.2342 0.0968-3.0734 0.242-4.5012 0.4356zm4.84-0.4356 0.0968-2.299zm-72.334 21.49c0.1936-0.0484 0.4114-0.0484 0.605 0.0242a4016.1 4016.1 0 0 1 50.433 4.4528c22.458 2.0812 44.407 4.1382 44.625 4.2592 0.1936 0.121 0.3388 0.242 0.4356 0.484 0.121 0.242 0.1936 0.6292 0.242 1.2342 0.0726 1.21 0.0484 3.388-0.0484 7.3084-0.0484 2.42-0.0484 4.1624-0.121 5.4208-0.0484 0.6534-0.0968 1.1616-0.1694 1.5972-0.0968 0.4114-0.1936 0.726-0.3388 0.968-0.1452 0.2662-0.3388 0.4356-0.5808 0.5566s-0.5082 0.1694-0.8712 0.1936c-0.726 0.0484-1.694-0.0484-3.0008-0.1452-1.452-0.0726-2.178-0.121-2.5652-0.0726-0.1694 0-0.242 0.0484-0.2904 0.121a14.98 14.98 0 0 1 0.8712 2.904 19.844 19.844 0 0 1 0.3872 5.929 26.717 26.717 0 0 1-2.178 9.0024 19.118 19.118 0 0 1-1.3794 2.541 14.23 14.23 0 0 1-1.694 2.1296l-1.2342 1.2826-1.3068-0.3388c-0.726-0.1936-2.3232-0.5808-3.5574-0.847l-2.2264-0.5082 1.0406-1.1374a19.118 19.118 0 0 0 3.2186-4.6222 22.917 22.917 0 0 0 2.3474-8.0102 17.545 17.545 0 0 0-0.3146-5.0336c-0.1936-0.7744-0.4356-1.5004-0.7744-2.178l-0.726-1.5004h-1.3068a8.228 8.228 0 0 0-0.8712 0c-0.1936 0.0484-0.3146 0.0968-0.3388 0.1936-0.0726 0.1694 0.1452 0.5324 0.6292 1.2342 0.4114 0.6292 0.726 1.3068 0.968 2.057 0.242 0.726 0.3872 1.5246 0.484 2.3716a14.762 14.762 0 0 1-0.4114 5.2756 19.941 19.941 0 0 1-3.6784 7.623c-0.5808 0.726-1.21 1.4278-1.936 2.0328l-1.21 1.0648-3.872-0.7502a139.63 139.63 0 0 0-7.502-1.2342c-2.3716-0.3388-4.598-0.5566-6.5824-0.7018l-3.2428-0.1936-1.4278-1.4762a13.116 13.116 0 0 1-2.6136-3.9446 17.521 17.521 0 0 1-1.4278-9.1718 9.922 9.922 0 0 1 0.5324-1.9844c0.242-0.6292 0.5324-1.21 0.8954-1.694 0.4114-0.5566 0.605-0.847 0.5082-1.0164-0.0968-0.1452-0.484-0.1694-1.21-0.1694a2.0328 2.0328 0 0 0-1.4036 0.5566c-0.4114 0.3388-0.726 0.847-0.968 1.4762s-0.4356 1.3794-0.5566 2.2022a22.845 22.845 0 0 0 1.8876 11.543c0.4114 0.8954 0.8954 1.7182 1.452 2.4442l0.847 1.089-4.356 0.2904a124.19 124.19 0 0 0-14.302 1.7424 1.694 1.694 0 0 1-0.9196-0.242c-0.2904-0.1452-0.605-0.4114-0.968-0.8228l-1.331-1.694a21.006 21.006 0 0 1-2.2506-3.751 24.878 24.878 0 0 1-2.3232-8.6394c-0.121-1.452-0.0726-2.904 0.121-4.2592 0.1694-1.089 0.242-2.0328 0.1694-2.1054-0.0484-0.0484-5.4692-0.1936-12.003-0.3146-6.1952-0.121-9.3654-0.1936-11.035-0.363-0.8228-0.0726-1.2826-0.1936-1.5488-0.3388-0.242-0.1694-0.3146-0.363-0.3872-0.6292-0.0968-0.3872 0.1694-5.3724 0.5082-10.479a203.04 203.04 0 0 1 0.968-11.301c0.121-0.726 0.363-1.2826 0.6776-1.6214 0.1694-0.1452 0.3388-0.242 0.5082-0.3146zm68.002 26.088a6.6066 6.6066 0 0 0-4.1382 1.2826 6.9938 6.9938 0 0 0-2.8314 6.05c0.0726 0.8228 0.2662 1.573 0.5808 2.2264a6.171 6.171 0 0 0 2.783 2.9524 6.776 6.776 0 0 0 9.1718-2.8072 6.5098 6.5098 0 0 0 0.7744-3.8236 6.4856 6.4856 0 0 0-1.452-3.388 6.8728 6.8728 0 0 0-2.9766-2.1296c-0.605-0.242-1.2342-0.3388-1.9118-0.363z" fill-rule="evenodd" stroke-width="1.2265"/><path d="m193.72 42.111c-0.1452 0-0.3146 0.0484-0.484 0.0968-0.2662 0.0726-0.484 0.484-0.5808 1.089-0.1936 1.21-0.8228 1.7908-3.63 3.4364-6.6066 3.9446-12.536 5.9774-24.974 8.591a205.46 205.46 0 0 0-8.6636 2.0328c-1.331 0.363-1.6214 3.2428-0.3146 3.2428 0.5324 0 4.0172 1.8634 7.6472 4.114 3.9204 2.42 3.5816 2.2022 5.5176 3.3154 9.9946 5.687 18.876 11.713 24.2 16.359 6.05 5.2756 9.5348 8.712 14.157 13.939l4.235 4.7674a128.6 128.6 0 0 1 13.649 19.166c6.9212 12.148 8.4216 15.415 11.447 24.95 0.726 2.299 3.0008 12.826 3.0008 13.915 0 0.3872-0.242 0.484-1.694 0.6292a196 196 0 0 0-34.921 6.3888h51.619v-6.776l-3.2186-0.0484h-8.3974l0.0968-2.42c0.0726-2.42-0.1936-5.7838-0.847-10.309-0.1936-1.3068-0.5808-4.8158-0.8712-7.7682-1.5972-16.504-2.2506-20.207-5.082-28.822a148.01 148.01 0 0 0-10.406-23.789 513.96 513.96 0 0 0-14.423-24.466 196.21 196.21 0 0 0-12.294-17.569c-2.299-2.783-3.3396-3.8236-4.2834-4.0172a1.694 1.694 0 0 0-0.484-0.0484zm0.968 3.9204 0.6776 0.8228c0.3872 0.4598 2.1538 2.7588 3.9204 5.082 3.8478 5.082 7.0664 9.8494 7.0664 10.454 0 0.242-0.242 1.0406-0.484 1.7666-1.2584 3.388-1.936 8.4458-1.694 11.955 0.2178 2.299 0.3146 2.2264-1.452 1.0164-6.2436-4.1866-16.456-6.534-20.231-4.6464-0.7986 0.3872-0.7986 0.3872-3.0734-1.0648a243.94 243.94 0 0 0-10.091-5.9774c-4.6948-2.5894-10.164-6.1952-9.68-6.3646 0.242-0.0968 2.7104-0.6534 5.4692-1.21 14.084-2.9524 25.579-7.4294 29.04-11.301z" stroke-width="1.2836"/><path d="m195.12 46.14-0.484 0.5324c-3.4606 3.872-14.956 8.349-29.04 11.277a120.42 120.42 0 0 0-5.4934 1.2342c-0.484 0.1694 5.0094 3.7752 9.68 6.3888 3.0734 1.694 7.986 4.598 10.116 5.9532 1.3552 0.8712 1.8876 1.21 2.2748 1.2584l0.242-0.0484 0.605-0.1694c3.872-1.8392 13.963 0.5082 20.159 4.6706 1.7908 1.21 1.694 1.2826 1.4762-1.0164a32.041 32.041 0 0 1 1.6698-11.955c0.2662-0.726 0.484-1.5246 0.484-1.7666 0-0.605-3.2186-5.3724-7.0422-10.43-1.7666-2.3474-3.5332-4.6464-3.9204-5.082z" fill="#ffab0e" stroke-width=".26016"/><path d="m360.11 209.18h3.3l3.9 4.7a126 126 0 0 1 19.4 130.7c-2.9 6.8-6.2 13.5-10.2 19.7a151.8 151.8 0 0 1-25.1 30.3l-2 1.4c-0.7-0.4-1.2-1-1.7-1.4a72 72 0 0 0-22.7-12.6 108.2 108.2 0 0 0-39.5-5.3c-4.4 0.3-9 0.4-13.4 1-6.7 1.2-13.3 2.5-19.9 4.1a158.8 158.8 0 0 0-73.7 42.8l-4.1-1.6a134.4 134.4 0 0 1-36.9-23.8 133 133 0 0 1-39.6-60.4 130.7 130.7 0 0 1-5.3-42.2c0.2-5.4 1-10.8 1.8-16.1a123.9 123.9 0 0 1 18.2-47.3c3.3-5 6.7-9.9 10.3-14.5a150.7 150.7 0 0 1 42.7-36l-0.1 4.8-0.6 8.7-0.4 6.8c0 0.9 0.4 1.3 1.3 1.4l3.1 0.1 21 0.5v0.8c-0.7 4-0.7 7.8 0.7 11.7 1.3 3.5 3.2 6.6 5.6 9.4l-6.6 1.8c-0.4 0.2-1 1-1 1.4 0 0.8 0.7 1.2 1.6 1l1.3-0.3c4.3-0.9 8.5-1.8 12.8-2.5 3-0.5 6-0.7 9.1-0.7 4.5-0.1 9-0.3 13.5 0.3 6.4 0.9 12.7 2.3 19.1 3.6 1.8 0.3 3.5 0.9 5.2 1.3-1.1 0.8-2.3 1.4-3.5 1.7-6 1.9-12.1 3.6-18.4 4.7-4.4 0.8-8.7 1.4-13.1 1.5-2.4 0-4.7 0.6-7 1-1.8 0.5-2.6 1.4-2.6 2.4 0.1 1.7 1.5 1.8 2.6 2 2.2 0.4 4.4 0.6 6.6 0.7 0.7 0.1 1.2 0.3 1.7 0.8 4.6 4.8 9 9.6 14 14a87 87 0 0 0 25.5 15.8c7 2.9 14.3 4.7 21.9 5.2 6.3 0.4 12.5-0.1 18.6-1.8a49.8 49.8 0 0 0 26.2-17.3 56.8 56.8 0 0 0 10-19.2c0.3-0.6 0.5-0.8 1.2-0.7 3.4 0.3 7 0.5 10.4 0.9 3.7 0.3 7.5 0.7 11.2 1.2 6.9 1 13.3 3.3 19.2 7 1.2 0.8 2.5 1.5 3.9 2 0.5 0.2 1.5-0.2 1.8-0.6 0.4-0.4 0.3-1.3 0.1-1.8-0.2-0.6-0.7-1-1-1.5-3-2.6-5.7-5.5-8.8-7.9-4.6-3.6-9.3-6.9-14-10.2-3-2-6.2-3.8-9.4-5.7l0.8-0.4c2.4-0.2 5-0.8 7.4-0.7 3.3 0.1 6.7 0.6 10 1 1.3 0.1 2-0.4 1.6-1.5-0.2-0.5-1-1-1.7-1.2l-4.8-0.8c1-3.1 0.8-6.1 0.3-9.1-0.3-1.8-1.1-3.4-1.8-5z" fill="#272727"/><path d="m178.61 424.68c4.6-5.1 9.8-9.7 15.2-14a158.8 158.8 0 0 1 58.4-28.9c6.6-1.6 13.2-3 20-4 4.3-0.7 8.9-0.8 13.3-1a108.2 108.2 0 0 1 39.5 5.3 72 72 0 0 1 22.7 12.5l1.6 1.4c-1.1 1.2-2.3 2.4-3.5 3.4a168.8 168.8 0 0 1-75.4 34.8 162.1 162.1 0 0 1-90.7-9z" fill="#5d5d5d"/><path d="m340.11 188.78-22 0.3-9.7 0.1c-1 0-1.7 0.7-1.6 2l0.2 5 0.7 8.8c0 2.7 0.2 2.9 3 3l0.6 0.1c-0.2 2 0.2 3.7 1 5.3-3.3-0.1-6.4-0.7-9.5-0.5-5.6 0.3-11 1.8-16.3 3.6a138 138 0 0 0-16.9 7.5l-14 7c-0.4 0.2-0.9 0.3-1.2 0.2-1.1-0.3-2.2-0.8-3.3-1.3 0.7-0.7 1.5-1.4 2-2.2a26 26 0 0 0 4.5-15.5c-0.2-2.2-0.4-4.5-1.8-6.3l6.8 0.1c0.9 0 1.4-0.4 1.4-1.4v-3.1l0.2-11.9c0-0.7-0.4-1.2-1.1-1.3l-2.8-0.2-12-1.2-11.9-1-14.5-1.4-14.6-1.2-20-2-17-1.5a166.4 166.4 0 0 1 48.5-16.7c3.8-0.7 7.7-1 11.5-1.6a134 134 0 0 1 21.9-1.1c4.4 0 8.8 0.5 13.1 0.9a158 158 0 0 1 71.8 25.4l3 2z" fill="#272727"/><path d="m170.31 179.78 17 1.6 20 1.9 14.6 1.2 14.5 1.4 12 1 12 1.2 2.7 0.2c0.7 0.1 1.1 0.6 1 1.3l-0.1 11.9v3.1c0 1-0.5 1.4-1.4 1.4l-6.9-0.1h-7.2l-2.8-0.1-19-0.4h-10.6l-2.7-0.2-11.5-0.2-12-0.1-21-0.4-3-0.1c-1 0-1.4-0.5-1.4-1.4l0.4-6.8 0.6-8.7 0.2-4.8v-0.3c0.5-3.2 0.4-3 4-2.6z" fill="#b31010"/><path d="m245.91 205.78 2.7 0.1c0.6 1.1 1.3 2 1.5 3.1a19 19 0 0 1-2.1 14c-1 2-2.5 3.6-3.9 5.6l7 1.4 3.3 1.2c0.3 0.1 0.8 0 1.2-0.2l14-7a138 138 0 0 1 16.9-7.5 62.3 62.3 0 0 1 16.3-3.6c3.1-0.2 6.2 0.4 9.5 0.6l6 1.1c-1.1-3.3-1.2-4.3-0.7-6.5 0.8 0 1.5 0 2.3 0.2-1.3 3.5 1.5 7.9 4.6 7.6-1.4-2.7-1.2-5.3 1-7.6l10.5 0.3 0.5 0.5c2.5 3.6 1.3 8-2.7 9.7l-0.8 0.4 10.6 5.2c0.2 0.1 0.6 0.1 0.8 0 3.2-2 4.4-5.6 3.3-9.2-0.7-2.3-1.6-4.6-3.4-6.4 1 0 2 0 3.2 0.2 0.3 0.3 0.5 0.5 0.6 0.8 1.6 3.2 3 6.4 2.1 10.1-0.3 1.5-1 2.8-1.6 4.2h0.9l7.4-0.7h4.7l4.8 0.8c0.6 0.2 1.5 0.7 1.7 1.2 0.4 1-0.3 1.6-1.6 1.5-3.3-0.4-6.7-0.9-10-1-2.5 0-5 0.5-7.4 0.7l-0.8 0.4c3.2 2 6.4 3.7 9.3 5.7 4.8 3.3 9.5 6.6 14 10.2 3.2 2.4 6 5.3 8.8 8 0.4 0.4 1 0.8 1.1 1.4 0.2 0.5 0.3 1.4 0 1.8-0.4 0.4-1.4 0.8-2 0.6-1.3-0.5-2.6-1.2-3.8-2-5.9-3.7-12.3-6-19.2-7-3.7-0.5-7.5-0.9-11.2-1.2l-10.4-1c-0.7 0-1 0.2-1.1 0.8-2.2 7-5.5 13.5-10 19.2a49.8 49.8 0 0 1-26.3 17.3 56.7 56.7 0 0 1-18.6 1.8 69.9 69.9 0 0 1-22-5.2 87 87 0 0 1-25.4-15.8c-5-4.4-9.4-9.2-14-14-0.5-0.5-1-0.7-1.7-0.8a78 78 0 0 1-6.6-0.7c-1.1-0.2-2.5-0.3-2.6-2 0-1 0.8-2 2.6-2.3 2.3-0.5 4.6-1.1 7-1.1 4.4-0.1 8.7-0.7 13-1.5 6.4-1 12.4-2.8 18.5-4.7 1.2-0.3 2.4-1 3.5-1.7-1.7-0.4-3.4-1-5.2-1.3-6.4-1.3-12.7-2.7-19.1-3.6-4.4-0.6-9-0.4-13.5-0.3-3 0-6 0.2-9 0.7-4.4 0.7-8.6 1.6-13 2.5l-1.2 0.3c-0.9 0.2-1.5-0.2-1.6-1 0-0.5 0.6-1.2 1-1.4 2.2-0.7 4.3-1.2 6.7-1.8l2-0.2 12.5-1.6c1.6-0.2 3.3-0.2 5.1-0.3l-0.6-1c-4-5.8-5.2-12-1.8-18.6 0.8 0 1.6 0 2.6 0.2-0.5 1.2-1.3 2.2-1.6 3.3-1.5 5.2 0 11.7 4.8 16l0.7 0.2c6.9 0.2 13.6 1.3 20.4 2.8 0.2 0 0.6 0 0.8-0.3 2.7-2 4.5-4.5 5.6-7.6 1.7-4.7 2.5-9.3-0.8-13.7l-0.1-0.3m129.5 43.8v-0.2l-0.5-0.4-0.2 0.2 0.7 0.4m-131.5 18.3 5.5 3.2c12.1 6.5 24.8 10.1 38.7 8.9 7.6-0.7 14.8-3 21.3-7a51.6 51.6 0 0 0 21.7-28.7l0.2-1-14.7-0.6c-13.7-0.6-27.4-0.3-41.1 0.4-11.8 0.7-23.6 1.6-35.4 2.7-6.2 0.5-12.4 0.8-18.6 0.6h-1.8a106 106 0 0 0 24.2 21.5m-17.8-23.7c4.8-0.3 9.5-0.5 14.3-1 4.7-0.3 9.3-0.8 14-1.2l10.6-0.5 28.3-1.4c6.9-0.1 13.8 0.1 20.8 0.2 12.6 0.3 25.3 0.8 38 2.2 7.4 0.9 14.8 2.4 21.5 6.2l1.1 0.5 0.5-0.6-1-0.5-4.4-3.7c-7-5.8-14.8-10.6-22.6-15.2a90.6 90.6 0 0 0-31.6-12.6c-4.3-0.7-8.6-1.6-13-1.2a63 63 0 0 0-15.6 3.6c-8.2 2.9-15.9 7-23.5 11a105 105 0 0 1-30.5 11c-5.6 1-11.1 2.3-16.9 2-1.6 0-3.3 0.5-5 0.8 0.8 0.3 1.5 0.4 2.3 0.4z" fill="#040301"/><path d="m361.61 223.38h-4.7l-7.4 0.7h-1c0.7-1.4 1.4-2.7 1.7-4.2 1-3.7-0.5-7-2.1-10.1l-0.5-0.8 12.4 0.2c0.8 1.7 1.6 3.3 2 5 0.4 3 0.7 6-0.4 9.2z" fill="#5d5d5d"/><path d="m344.21 208.78c2 1.8 2.8 4 3.5 6.4a7.9 7.9 0 0 1-3.3 9.2c-0.2 0.1-0.6 0.1-0.8 0l-10.6-5.2 0.8-0.4c4-1.7 5.2-6.1 2.7-9.7l-0.4-0.5c2.7 0 5.3 0 8.1 0.2z" fill="#fcfcfc"/><path d="m317.51 208.08c-0.4 2.2-0.3 3.2 0.7 6.5l-5.7-1.1a8.3 8.3 0 0 1-1.1-5.4z" fill="#5d5d5d"/><path d="m325.41 208.18c-2 2.4-2.3 5-1 7.7-3 0.3-5.8-4.1-4.4-7.6h5.3z" fill="#fcfcfc"/><path d="m213.41 205.18c-3.3 6.6-2 12.8 1.9 18.7l0.6 0.9c-1.8 0-3.5 0.1-5.1 0.3l-12.6 1.6-1.9 0.1a27.8 27.8 0 0 1-5.7-9.3 22.5 22.5 0 0 1-0.7-12.5h12zm37.7 24.7-7-1.3c1.4-2 2.9-3.7 3.9-5.6a19 19 0 0 0 2.1-14c-0.2-1-1-2-1.4-3 2.2-0.2 4.5-0.2 7-0.1 1.5 1.8 1.7 4.1 1.9 6.3a26 26 0 0 1-4.5 15.5c-0.5 0.8-1.3 1.5-2 2.2z" fill="#5d5d5d"/><path d="m245.71 205.78 0.3 0.3c3.3 4.4 2.5 9 0.8 13.7-1 3-3 5.7-5.6 7.6-0.2 0.2-0.6 0.3-0.8 0.3a115.1 115.1 0 0 0-21-3 15.8 15.8 0 0 1-4.9-16c0.3-1.1 1-2.1 1.7-3.3h10.5c6.3 0 12.6 0.2 19 0.4m-5.9 1.5c-3-2.2-6.3-2-9 0.3a6.8 6.8 0 0 0-1.3 8.5c1.5 2.6 3.9 3.6 6.8 3.2 2.8-0.4 4.7-2 5.6-4.6 0.9-2.8 0.3-5.3-2-7.4z" fill="#fcfcfc"/><path d="m243.91 267.88a106 106 0 0 1-24.1-21.5h1.8c6.2 0.1 12.4-0.1 18.6-0.6 11.8-1 23.6-2 35.4-2.7 13.7-0.7 27.4-1 41-0.4l14.8 0.6-0.2 1c-4 12-10.8 21.8-21.7 28.6-6.5 4.1-13.7 6.4-21.3 7a68.2 68.2 0 0 1-38.8-8.7l-5.6-3.2z" fill="#feaa0e"/><path d="m226.01 244.18h-12.6c-0.8 0-1.5-0.1-2.2-0.4 1.6-0.3 3.3-0.8 5-0.7 5.7 0.2 11.2-1 16.8-2a105 105 0 0 0 30.5-11.2c7.6-4 15.3-8 23.5-10.9a63 63 0 0 1 15.6-3.6c4.4-0.4 8.7 0.5 13 1.1a90.6 90.6 0 0 1 31.6 12.7c7.8 4.6 15.6 9.4 22.6 15.2l4.3 3.7 1.1 0.5-0.5 0.6-1.1-0.5c-6.7-3.8-14-5.3-21.6-6.2-12.6-1.4-25.3-2-38-2.2-6.9-0.1-13.8-0.3-20.7-0.2-9.4 0.3-18.8 1-28.3 1.4l-10.6 0.5c-4.7 0.4-9.3 1-14 1.3zm149.4 5.4-0.6-0.4 0.2-0.2 0.4 0.5zm0 0h0.1z" fill="#fdaa0e"/><path d="m239.91 207.28c2.3 2.1 2.9 4.6 2 7.4a6.5 6.5 0 0 1-5.6 4.6c-3 0.4-5.3-0.6-6.8-3.2a6.8 6.8 0 0 1 1.3-8.5c2.7-2.4 6-2.5 9-0.3z" fill="#040301"/><path d="m381.08 187.94a1634.8 1634.8 0 0 0-40.487 0.6292c-4.5496 0.1452-12.342 0.2904-17.255 0.3146-4.9368 0-10.696 0.0968-12.753 0.1694l-3.7752 0.1694-0.3146 0.6534c-0.484 1.0406 0.605 17.037 1.21 17.787 0.3872 0.5082 0.6776 0.5324 12.269 0.8228 13.455 0.3146 29.863 0.7744 39.761 1.1132 23.668 0.7502 29.137 0.9196 29.621 0.7986 0.9438-0.2178 0.8954-1.3552-0.1694-5.808l-1.5004-6.3888a158.03 158.03 0 0 0-2.541-10.091c-0.0968-0.0968-1.0406-0.1694-4.0656-0.1694zm-78.892 55.902c-0.5324 0-0.726 0.0726-0.4356 0.121 0.3146 0.0726 0.726 0.0726 0.968 0s0-0.121-0.5324-0.121zm72.794 6.8486c-0.0484 0-0.0726 0.0484-0.0726 0.2178 0 0.1936 0.0726 0.2904 0.1694 0.242 0.121-0.0726 0.242 0 0.2904 0.1936 0.0726 0.1694 0.1936 0.242 0.2904 0.1694 0.0726-0.0726-0.0484-0.3388-0.3146-0.5566-0.1694-0.1694-0.2904-0.2662-0.363-0.2662z" fill="#b31010" stroke-width="1.2623"/></g></svg>
