<?xml version="1.0" encoding="UTF-8"?>
<!-- Created with Vectornator (http://vectornator.io/) -->
<svg clip-rule="evenodd" stroke-linecap="round" stroke-linejoin="round" stroke-miterlimit="10" version="1.1" viewBox="0 0 2048 2048" xml:space="preserve" xmlns="http://www.w3.org/2000/svg" xmlns:xlink="http://www.w3.org/1999/xlink">

<clipPath id="ArtboardFrame">
<rect width="2048" height="2048"/>
</clipPath>

<g transform="matrix(4.9918 0 0 4.9918 423.47 692.57)" fill-rule="evenodd"><path d="m77.768 99.268c-17.364 13.667-8.54 40.828 13.476 41.478 22.207 0.656 34.599-24.66 19.702-40.25l-0.537-0.561-14.514-0.751c-18.484-0.956-16.796-0.964-18.127 0.084m33.456 11.523c4.266 2.5 3.014 8.94-1.962 10.09-3.26 0.752-6.364-2.172-6.048-5.697 0.35-3.89 4.75-6.303 8.01-4.393m10.39 40.246c-23.126 7.707-42.622 26.097-46.694 44.049-0.748 3.296-0.997 2.877 2.836 4.778 7.014 3.48 13.86 5.792 20.617 6.958 1.934 0.334 5.274 0.948 7.422 1.365 4.096 0.794 5.197 0.932 12.5 1.563 7.985 0.69 12.316 0.156 22.07-2.722 5.952-1.756 7.442-2.443 15.235-7.02 9.343-5.486 23.08-19.195 27.068-27.011l0.373-0.731-0.83-0.211c-5.003-1.266-13.1-3.884-18.896-6.11-2.525-0.968-6.392-2.356-8.594-3.084-6.938-2.293-11.875-4.001-16.211-5.61-2.31-0.855-4.42-1.621-4.688-1.7-1.144-0.337-6.587-3.357-7.781-4.32-1.558-1.253-1.285-1.241-4.426-0.194" fill="#efefef"/><path d="m240.27 52.059c-12.624 0.91-28.43 3.892-39.356 7.423-16.977 5.487-31.48 12.31-53.613 25.226-6.568 3.833-15.38 10.627-16.38 12.629l-0.448 0.898 0.23 5.709c0.429 10.594 0.453 14.422 0.114 17.976-0.172 1.805-0.313 3.409-0.313 3.564 0 0.474 0.965 0.338 5.528-0.78 4.438-1.087 6.22-1.456 13.71-2.841a338.8 338.8 0 0 0 8.399-1.681c3.86-0.835 6.253-1.32 12.304-2.495 1.397-0.271 3.99-0.72 5.762-0.997 1.773-0.277 4.102-0.675 5.176-0.885s5.16-0.826 9.082-1.37c10.938-1.513 15.294-2.225 25.684-4.2 22.019-4.186 38.149-5.872 51.409-5.376 11.623 0.435 28.876 2.557 39.118 4.813 3.499 0.77 4.118 0.96 7.422 2.275l2.708 1.077c0.44 0.175 0.179-8.79-0.337-11.574-2.904-15.66-16.096-31.23-33.914-40.03-15.18-7.496-28.194-10.377-42.285-9.361m-61.701 68.809c0.816 0.303 2.75 1.084 4.297 1.735 2.92 1.228 12.003 4.879 18.439 7.412a7653.9 7653.9 0 0 1 22.35 8.829c9.795 3.893 15.973 6.188 19.966 7.415 2.078 0.638 5.843 1.922 8.367 2.852 2.525 0.93 5.82 2.128 7.325 2.66 18.995 6.728 24.442 9.359 25.3 12.223 1.51 5.045-10.172 8.287-24.91 6.912-19.586-1.827-37.733-6.941-72.656-20.474-21.344-8.272-29.69-11.64-43.848-17.691-7.673-3.28-8.01-3.411-10.071-3.938-2.742-0.7-3.078-0.507-3.617 2.078-0.208 1-0.967 4.192-1.686 7.092-1.152 4.649-1.308 5.5-1.316 7.184l-0.01 1.91 1.38 1.337c1.704 1.653 1.81 1.708 6.51 3.346 2.107 0.733 5.192 1.835 6.857 2.447a421.06 421.06 0 0 0 15.528 5.36c1.718 0.559 5.058 1.762 7.42 2.674 6.454 2.49 11.523 4.1 21.68 6.889 1.612 0.442 5.787 1.629 9.278 2.638a852.5 852.5 0 0 0 11.133 3.13c2.632 0.715 6.807 1.86 9.278 2.546 11.624 3.23 20.569 5.2 30.029 6.619 11.822 1.772 16.718 1.854 24.072 0.406 0.752-0.148 2.334-0.455 3.516-0.682 8.03-1.543 20.146-8.048 25.709-13.806 1.4-1.45 3.88-4.352 3.88-4.542 0-0.816-8.1-5.277-16.7-9.197-14.923-6.803-20.068-8.867-43.651-17.518-27.76-10.182-56.612-18.446-64.258-18.404l-1.074 6e-3 1.483 0.552" fill="#f9911d"/><path d="m118.1 0.698c-1.858 1.075-1.875 1.1-3.477 5.049-1.221 3.009-1.245 3.083-1.796 5.37-1.047 4.355-2.16 12.319-2.65 18.978-0.241 3.287-0.404 3.756-0.914 2.638-0.108-0.24-0.384-0.652-0.613-0.917-1.14-1.324-3.706-5.385-6.093-9.64-0.475-0.847-1.061-1.63-1.303-1.741-0.242-0.11-0.44-0.274-0.44-0.364 0-0.617-2.318 0.148-2.891 0.955-0.837 1.179-4.356 8.716-5.137 11.004-1.562 4.575-1.366 6.33 0.95 8.482 1.465 1.36 3.718 3.593 4.164 4.125 0.502 0.598 2.715 2.512 3.793 3.28 0.51 0.363 0.529 0.353-1.855 1.084-1.128 0.345-2.315 0.74-2.637 0.878-0.322 0.137-1.201 0.494-1.953 0.793-2.804 1.116-10.065 5.045-10.644 5.76-0.054 0.067-0.536 0.419-1.07 0.783-1.08 0.735-1.023 0.69-2.934 2.28-0.752 0.625-1.582 1.312-1.845 1.526-0.792 0.646-5.514 5.422-6.456 6.529-0.484 0.569-1.055 1.237-1.27 1.486a86.69 86.69 0 0 0-2.188 2.706c-0.345 0.44-0.741 0.934-0.882 1.097-0.14 0.163-0.473 0.602-0.738 0.977a28.91 28.91 0 0 1-0.72 0.974c-0.653 0.81-1.82 2.445-1.82 2.55 0 0.065-0.864-0.054-1.921-0.266-4.487-0.9-5.13 0.063-5.391 8.067l-0.137 4.199-0.651 1.172c-1.094 1.967-3.513 6.918-4.39 8.985l-0.994 2.343a227.37 227.37 0 0 0-1.723 4.395c-1.983 5.214-4.605 14.92-5.408 20.019-0.395 2.512-0.398 2.516-1.272 2.217-0.673-0.231-4.197-2.448-4.865-3.061-1.295-1.19-1.732-1.633-2.251-2.292a19.588 19.588 0 0 0-0.933-1.103c-1.267-1.317-4.691-7.861-5.616-10.73-1.136-3.525-3.368-4.52-4.633-2.065-1.384 2.682-0.866 18.69 0.74 22.917 0.27 0.707 0.225 0.718-1.157 0.277-2.51-0.802-6.472-3.044-7.088-4.01-0.072-0.114-0.512-0.608-0.976-1.098-2.075-2.188-3.703-4.918-5.634-9.45-0.78-1.83-2.993-8.295-3.51-10.254-0.427-1.62-1.343-3.306-1.867-3.438-0.263-0.066-0.48-0.198-0.48-0.294 0-0.765-2.456 0.412-2.964 1.42-1.84 3.65-2.12 18.39-0.478 25.066 1.204 4.894 3.193 9.123 5.954 12.662 0.546 0.7 4.186 4.297 4.975 4.916 0.41 0.322 0.937 0.748 1.17 0.946 0.235 0.199 0.676 0.49 0.982 0.65 0.305 0.158 0.525 0.318 0.488 0.354-0.401 0.396-3.012 2.023-3.95 2.462-2.292 1.073-3.436 0.958-5.161-0.518-0.431-0.37-0.88-0.671-0.997-0.671s-0.213-0.088-0.213-0.196c0-0.107-0.307-0.195-0.683-0.195s-0.684 0.088-0.684 0.195c0 0.108-0.112 0.196-0.25 0.196-0.521 0-1.313 1.317-1.313 2.184 0 0.392 1.15 2.454 1.645 2.948 0.136 0.136 0.495 0.64 0.797 1.122 0.732 1.166 2.14 2.676 3.872 4.153 4.175 3.56 9.692 4.207 14.669 1.72l1.425-0.711 0.247 2.22c0.16 1.44 0.2 3.068 0.11 4.633l-0.137 2.413 0.715 0.694c0.975 0.947 1.64 0.927 2.98-0.09a16.645 16.645 0 0 1 2.05-1.3c1.26-0.64 3.332-1.851 3.463-2.025 0.054-0.071 0.713-0.511 1.465-0.98 0.752-0.468 1.41-0.91 1.465-0.98 0.054-0.071 0.625-0.46 1.27-0.864 2.792-1.751 5.703-3.738 6.182-4.221l0.518-0.521 0.713 2.985c1.426 5.973 2.593 9.19 5.242 14.452 1.393 2.765 2.983 5.582 3.253 5.762 0.08 0.053 0.389 0.493 0.685 0.976s0.639 0.968 0.762 1.076c0.122 0.109 0.526 0.592 0.896 1.074 1.046 1.365 3.366 3.767 5.088 5.272 0.553 0.483 1.347 1.186 1.764 1.562 1.2 1.084 1.724 1.517 2.395 1.986 0.345 0.24 0.67 0.49 0.724 0.557 0.054 0.066 0.537 0.416 1.074 0.778 0.538 0.362 1.02 0.717 1.075 0.79 0.43 0.584 8.836 5.105 12.01 6.46 0.753 0.322 1.544 0.666 1.759 0.764 1.3 0.593 5.205 1.97 8.008 2.826 0.967 0.294 2.12 0.652 2.564 0.794 4.98 1.599 10.586 2.607 19.409 3.49 13.893 1.393 17.855 1.242 25.56-0.97 10.335-2.967 11.234-3.338 18.916-7.821 2.977-1.738 5.72-3.444 6.279-3.906 0.176-0.145 0.902-0.69 1.615-1.212 0.713-0.521 1.426-1.074 1.584-1.228 0.159-0.154 0.624-0.544 1.033-0.866 1.98-1.557 7.38-6.852 10.638-10.431a692.63 692.63 0 0 1 2.343-2.564c1.65-1.784 2.286-2.646 4.755-6.44 1.153-1.771 2.354-3.423 2.667-3.67l0.57-0.447 1.424 0.487c0.783 0.268 2.04 0.658 2.79 0.867 0.753 0.21 2.16 0.619 3.126 0.909 1.722 0.516 5.576 1.582 11.622 3.214 5.316 1.435 10.824 2.962 11.328 3.14 1.737 0.614 10.486 2.73 14.843 3.59 19.648 3.88 28.155 4.458 37.787 2.567 1.292-0.254 2.746-0.52 3.229-0.593 5.458-0.817 16.504-5.824 22.022-9.984 0.51-0.384 1.185-0.89 1.499-1.121 0.315-0.233 0.77-0.598 1.012-0.813a36.8 36.8 0 0 1 1.172-0.977c1.006-0.806 3.758-3.55 4.47-4.457 0.323-0.411 0.96-1.152 1.415-1.647 0.456-0.496 0.879-1.061 0.94-1.256 0.063-0.195 0.18-0.355 0.264-0.355 0.285 0 0.604-0.995 0.605-1.883 0-1.137-0.452-1.818-2.182-3.29-1.834-1.558-6.944-4.62-10.484-6.278-1.467-0.688-2.8-1.324-2.962-1.415-0.163-0.091-3.02-1.398-6.348-2.904-5.856-2.651-8.767-3.915-13.278-5.768-1.182-0.485-2.896-1.19-3.81-1.564-2.538-1.043-7.307-2.875-11.034-4.241-0.537-0.197-2.075-0.768-3.418-1.27a196.13 196.13 0 0 0-3.027-1.11c-0.323-0.11-0.762-0.27-0.977-0.357-0.352-0.143-2.682-1.003-5.273-1.948a147.53 147.53 0 0 1-1.856-0.69c-3.741-1.424-22.098-7.648-27.051-9.172a661.16 661.16 0 0 1-3.515-1.09c-0.645-0.203-2.798-0.857-4.785-1.453a429.71 429.71 0 0 1-4.786-1.46c-1.723-0.55-10.162-2.74-10.562-2.74-0.998 0 0.21-0.274 2.686-0.61 6.526-0.885 12.867-1.94 22.037-3.666 4.635-0.872 9.669-1.732 17.279-2.95 16.883-2.703 30.002-3.215 44.537-1.74 8.568 0.87 13.84 1.562 20.898 2.739 8.065 1.346 10.942 2.155 16.78 4.718 1.292 0.567 1.406 0.584 2.672 0.388 2.51-0.39 2.607-0.685 2.468-7.628-0.161-8.058-0.984-12.44-3.458-18.4-1.016-2.444-5.298-10.13-6.112-10.97-0.14-0.142-0.47-0.567-0.732-0.943-1.54-2.196-7.252-8.261-9.935-10.547a213.46 213.46 0 0 1-1.478-1.27c-0.946-0.826-1.441-1.215-3.427-2.693a132.11 132.11 0 0 1-2.425-1.833c-2.436-2.013-12.375-7.066-18.767-9.542-0.752-0.291-1.804-0.705-2.338-0.92-12.551-5.056-28.306-6.011-47.271-2.868-7.085 1.175-17.575 3.463-21.973 4.795-4.036 1.22-8.603 2.732-11.426 3.78-6.452 2.394-10.061 3.828-12.34 4.9-0.947 0.446-2.205 1.03-2.796 1.3-2.723 1.244-8.52 4.125-10.612 5.275-1.272 0.698-2.381 1.194-2.466 1.1a28.367 28.367 0 0 1-0.873-1.145c-1.085-1.476-1.547-2.075-1.87-2.426-0.161-0.175-0.627-0.76-1.035-1.3-0.41-0.54-1.061-1.24-1.45-1.557-0.388-0.317-0.844-0.741-1.014-0.942-0.58-0.688-2.104-2.172-2.832-2.76-0.4-0.322-0.93-0.761-1.176-0.976-0.691-0.6-1.123-0.94-1.868-1.465a26.735 26.735 0 0 1-0.976-0.718c-4.518-3.64-16.26-9.633-18.874-9.633-0.618 0-0.168-0.413 1.345-1.232 6.628-3.59 9.019-4.311 16.357-4.93 5.906-0.498 6.055-0.621 6.055-5.024 0-4.121-0.38-9.122-0.751-9.908-1.992-4.208-16.966-2.072-25.031 3.57-1.304 0.913-1.331 0.858-0.884-1.777 0.9-5.306 3.216-12.477 5.568-17.242 4.295-8.702 3.823-9.985-3.805-10.341-2.413-0.112-4.302-0.32-6.024-0.663-3.503-0.698-4.781-0.655-6.28 0.213m6.152 49.963c12.24 1.783 22.826 7.665 32.324 17.962 4.009 4.346 4.012 4.3-0.445 6.789-12.75 7.118-15.096 8.566-20.526 12.657-4.321 3.255-6.348 5.103-7.473 6.812-1.421 2.158-1.418 2.132-1.153 9.498 0.44 12.252 0.453 13.144 0.219 15.959-0.464 5.605-1.077 8.933-3.157 17.147-1.44 5.685-1.69 8.92-0.835 10.769 0.874 1.89 6.887 5.808 11.36 7.403 1.149 0.409 4.242 1.53 6.874 2.494 2.63 0.962 7.64 2.697 11.132 3.854 3.492 1.158 7.578 2.583 9.082 3.167 6.524 2.534 15.4 5.445 20.215 6.629 1.556 0.383 1.46 0.29 1.07 1.042-3.39 6.557-15.49 19.39-23.433 24.852-6.856 4.715-13.017 7.726-19.824 9.688-10.331 2.979-13.661 3.319-23.34 2.386-4.66-0.45-5.282-0.522-10.156-1.182-11.601-1.57-24.59-5.858-32.327-10.675-8.747-5.446-14.095-10.308-17.607-16.007-13.352-21.668-13.016-53.603 0.882-83.72l0.696-1.507 0.643 0.262c0.428 0.174 2.986 0.377 7.674 0.607 3.867 0.19 7.06 0.37 7.096 0.4 0.037 0.029-0.563 0.78-1.332 1.67-15.748 18.225-3.721 44.998 20.212 44.993 22.718-4e-3 36.874-24.686 24.63-42.944-0.494-0.738-0.9-1.388-0.9-1.444s1.187-0.042 2.637 0.03c4.066 0.205 4.024 0.249 4.892-5.17 0.62-3.877 0.566-4.36-0.56-4.942-0.47-0.243-37.311-8.126-51.793-11.083-2.56-0.522-2.532-0.362-0.518-3.025 12.338-16.31 25.454-24.122 43.194-25.732 1.775-0.161 8.556 0.07 10.547 0.36m130.27 1.583c20.452 2.365 44.214 15.933 54.197 30.945 4.664 7.014 7.28 13.582 8.197 20.567 0.27 2.074 0.44 9.51 0.217 9.51-0.047 0-1.526-0.568-3.287-1.264-6.05-2.392-16.326-4.28-32.956-6.054-20.396-2.176-34.765-1.146-66.7 4.783-8.054 1.496-14.52 2.566-20.02 3.314-7.292 0.992-11.1 1.56-13.77 2.057-1.395 0.259-3.724 0.65-5.174 0.87-1.451 0.22-3.077 0.489-3.614 0.6-11.931 2.45-21.066 4.28-26.758 5.36-2.685 0.509-6.784 1.399-9.11 1.978-4.006 0.998-5.441 1.237-5.44 0.906 0-0.081 0.13-1.377 0.29-2.881 0.34-3.202 0.377-9.363 0.094-15.993-0.437-10.248-0.59-9.543 2.697-12.424 6.856-6.01 14.68-10.826 35.298-21.722 13.37-7.068 28.079-12.75 41.317-15.96 17.597-4.267 33.314-5.888 44.522-4.592m-159.08 46.754c16.513 0.858 14.987 0.658 16.27 2.134 13.914 15.996 1.218 40.604-20.541 39.813-22.013-0.8-30.78-27.411-13.697-41.577 1.662-1.38-0.55-1.333 17.968-0.37m12.207 11.326c-6.12 1.259-5.52 10.452 0.684 10.45 4.672-1e-3 6.995-5.363 3.91-9.028-0.928-1.105-3.008-1.75-4.594-1.422m73.926 10.18c9.834 1.44 25.547 5.882 47.852 13.53 8.663 2.972 10.583 3.66 23.144 8.3 24.036 8.878 47.406 19.554 50.132 22.902 0.417 0.512-3.33 4.736-6.49 7.315-4.526 3.696-12.81 8.25-18.35 10.092-3.687 1.226-10.447 2.519-15.135 2.895-5.653 0.453-15.908-0.821-30.86-3.833-2.921-0.588-10.967-2.627-16.113-4.082-2.041-0.578-6.524-1.812-9.961-2.743-3.438-0.93-8.904-2.47-12.147-3.421-3.243-0.95-7.11-2.046-8.594-2.435-8.055-2.113-14.81-4.295-22.228-7.182-1.504-0.586-4.272-1.565-6.152-2.176a258.43 258.43 0 0 1-5.371-1.807 372.65 372.65 0 0 0-3.711-1.296c-0.967-0.33-3.56-1.251-5.762-2.047a781.25 781.25 0 0 0-7.898-2.795c-4.39-1.52-4.217-1.43-6.05-3.145-2.107-1.974-2.111-2.876-0.046-11.188 0.694-2.793 1.417-5.87 1.608-6.836 0.483-2.453 0.69-2.558 3.669-1.85 1.95 0.463 3.209 0.922 6.666 2.433 4.933 2.155 14.118 6.027 18.555 7.822 2.47 0.999 6.162 2.494 8.203 3.323 3.422 1.388 7.204 2.866 23.828 9.307 30.42 11.786 49.206 17.07 67.676 19.04 21.069 2.246 34.248-4.291 21.69-10.76-2.83-1.457-10.411-4.42-20.03-7.825a834.59 834.59 0 0 1-7.724-2.805c-2.638-0.972-6.373-2.246-8.301-2.832-5.316-1.616-43.49-16.473-61.807-24.056-1.88-0.78-3.747-1.521-4.15-1.65-2.085-0.67-0.083-0.77 3.857-0.194m-8.797 1.209c0.53 1.113 1.329 1.492 12.508 5.948 1.504 0.6 4.888 1.963 7.52 3.03a777.4 777.4 0 0 0 8.984 3.569c4.047 1.569 8.4 3.287 21.777 8.593 9.325 3.699 15.256 5.893 18.793 6.955 1.743 0.523 6.049 2 9.57 3.284 3.522 1.284 8.644 3.142 11.384 4.13 11.005 3.968 17.187 6.698 17.187 7.59 0 0.509-3.937 1.756-7.13 2.258-10.1 1.588-30.268-1.516-50.808-7.82-5.637-1.73-16.672-5.63-25.95-9.17a204.12 204.12 0 0 0-4.491-1.66c-0.86-0.296-4.42-1.654-7.91-3.016-3.491-1.362-7.886-3.074-9.766-3.805-10.004-3.891-32.993-13.431-33.483-13.896-0.404-0.383-0.2-0.432 7.985-1.95a500.98 500.98 0 0 0 8.116-1.57c1.557-0.323 5.644-1.148 9.082-1.831 3.437-0.684 6.267-1.25 6.289-1.258s0.176 0.27 0.343 0.619" fill="#040404"/><path d="m244.04 51.888c0.838 0.037 2.156 0.037 2.93 0s0.089-0.067-1.523-0.067c-1.611 0-2.244 0.03-1.407 0.067m58.829 24.464c0.42 0.43 0.807 0.78 0.86 0.78 0.055 0-0.245-0.35-0.664-0.78-0.42-0.43-0.807-0.781-0.861-0.781s0.246 0.35 0.665 0.78m-172.51 23.049c0 0.376 0.04 0.53 0.089 0.342a1.61 1.61 0 0 0 0-0.684c-0.05-0.188-0.09-0.034-0.09 0.342m0.204 4.297c0 0.483 0.038 0.68 0.085 0.439a2.817 2.817 0 0 0 0-0.88c-0.047-0.24-0.085-0.043-0.085 0.44m125.88 1.31c0.243 0.048 0.595 0.046 0.78-3e-3 0.188-0.05-0.011-0.087-0.44-0.085-0.43 2e-3 -0.583 0.042-0.34 0.089m12.009-4e-3c0.188 0.049 0.496 0.049 0.684 0 0.188-0.05 0.034-0.09-0.342-0.09s-0.53 0.04-0.342 0.09m-137.47 11.29c0 1.398 0.03 1.944 0.069 1.214 0.037-0.73 0.037-1.872-1e-3 -2.54-0.038-0.666-0.07-0.07-0.068 1.327m35.519 5.997c-3.25 0.647-5.908 1.234-5.908 1.304s0.929 0.329 2.063 0.576c10.908 2.37 21.309 8.747 26.144 16.027 2.047 3.083 3.74 7.593 3.02 8.048-0.213 0.135-0.197 0.172 0.077 0.174 0.19 2e-3 2.344 0.759 4.785 1.682 19.375 7.329 30.73 10.972 41.938 13.453 20.287 4.49 33.63 5.125 40.738 1.936 0.637-0.286 1.157-0.591 1.157-0.678 0-0.892-6.182-3.622-17.187-7.59-2.74-0.988-7.862-2.846-11.383-4.13-3.522-1.283-7.828-2.761-9.571-3.284-3.537-1.062-9.468-3.256-18.793-6.955-13.377-5.306-17.73-7.024-21.777-8.593a777.4 777.4 0 0 1-8.984-3.57c-2.632-1.066-6.016-2.43-7.52-3.03-11.18-4.455-11.977-4.834-12.508-5.947-0.167-0.35-0.321-0.627-0.343-0.617s-2.698 0.547-5.948 1.194m-35.547 3.61c0.188 0.05 0.496 0.05 0.684 0 0.188-0.048 0.034-0.09-0.342-0.09s-0.53 0.042-0.342 0.09m128.23 59.775c0.46 0.04 1.163 0.04 1.563-1e-3 0.4-0.042 0.024-0.076-0.835-0.075-0.86 0-1.187 0.035-0.728 0.076" fill="#731c0c"/><path d="m113.7 50.3c-17.74 1.61-30.856 9.423-43.194 25.732-2.014 2.663-2.041 2.503 0.518 3.025 14.482 2.957 51.323 10.84 51.793 11.083 1.126 0.582 1.18 1.065 0.56 4.942-0.868 5.419-0.826 5.375-4.892 5.17-1.45-0.072-2.636-0.086-2.636-0.03s0.405 0.706 0.9 1.444c12.243 18.258-1.913 42.94-24.631 42.944-23.933 5e-3 -35.96-26.768-20.212-44.992 0.769-0.89 1.369-1.642 1.332-1.671-0.036-0.03-3.23-0.21-7.096-0.4-4.688-0.23-7.246-0.433-7.674-0.607l-0.643-0.262-0.696 1.507c-13.898 30.117-14.234 62.052-0.882 83.72 3.336 5.413 9.836 11.43 16.559 15.33l1.323 0.769 0.449-2.23c0.64-3.177 1.628-5.998 3.277-9.363 1.93-3.942 4.71-8.212 7.232-11.108l0.956-1.101c1.939-2.235 5.274-5.53 7.61-7.52a74.144 74.144 0 0 0 1.368-1.183c5.256-4.927 18.396-12.084 27.417-14.933l2-0.632-0.563-0.641c-1.59-1.81-1.544-5.05 0.163-11.808 2.08-8.235 2.69-11.55 3.155-17.147 0.234-2.815 0.222-3.707-0.22-15.96-0.264-7.365-0.267-7.34 1.154-9.497 1.125-1.71 3.152-3.557 7.473-6.812 5.43-4.091 7.777-5.54 20.526-12.657 3.659-2.042 4.04-2.594 2.838-4.093-7.851-9.778-20.363-17.93-30.64-19.96-4.53-0.893-11.155-1.374-14.624-1.06m-14.648 157.02c1.497 0.4 6.773 1.306 7.163 1.23 0.177-0.034-1.34-0.357-3.372-0.717-4.441-0.788-5.21-0.892-3.791-0.513" fill="#146b23"/><path transform="translate(-47.623 -104.31)" d="m287.65 156.39c0.242 0.046 0.638 0.046 0.879 0 0.242-0.047 0.044-0.085-0.439-0.085s-0.681 0.038-0.44 0.085m10.352 0c0.242 0.046 0.637 0.046 0.879 0 0.242-0.047 0.044-0.085-0.439-0.085-0.484 0-0.682 0.038-0.44 0.085m-13.184 0.192c0.188 0.049 0.496 0.049 0.684 0s0.034-0.089-0.342-0.089-0.53 0.04-0.342 0.089m64.006 22.375c0.809 0.862 0.985 1.017 0.985 0.871 0-0.032-0.418-0.449-0.928-0.928l-0.928-0.871 0.871 0.928m2.547 2.747c0 0.033 0.286 0.319 0.635 0.635l0.635 0.573-0.574-0.635c-0.535-0.591-0.696-0.724-0.696-0.573m-173.19 24.841c2e-3 0.43 0.042 0.582 0.089 0.339 0.047-0.242 0.045-0.594-4e-3 -0.781-0.049-0.186-0.087 0.012-0.085 0.442m130.47 2.586a30.49 30.49 0 0 0 2.636 0c0.725-0.037 0.132-0.068-1.318-0.068s-2.044 0.031-1.318 0.068m-5.955 0.189c0.243 0.047 0.594 0.045 0.781-4e-3s-0.012-0.087-0.442-0.085c-0.429 2e-3 -0.582 0.042-0.339 0.089m14.646 0c0.242 0.046 0.637 0.046 0.879 0 0.242-0.047 0.044-0.085-0.44-0.085-0.483 0-0.681 0.038-0.439 0.085m-17.871 0.192c0.188 0.049 0.495 0.049 0.683 0s0.035-0.09-0.341-0.09-0.53 0.041-0.342 0.09m21.094 0c0.188 0.049 0.495 0.049 0.683 0s0.034-0.09-0.342-0.09-0.529 0.041-0.341 0.09m44.172 4.65c0 1.934 0.03 2.698 0.065 1.699 0.036-0.999 0.035-2.581 0-3.515-0.036-0.935-0.065-0.117-0.065 1.816m-186.36-1.562c2e-3 0.429 0.042 0.582 0.088 0.339 0.047-0.243 0.045-0.594-3e-3 -0.781-0.049-0.187-0.088 0.012-0.085 0.442m0.213 4.101c0 0.86 0.035 1.187 0.076 0.727a9.802 9.802 0 0 0-1e-3 -1.562c-0.042-0.4-0.076-0.024-0.075 0.835m-0.022 6.934c0 0.376 0.04 0.53 0.089 0.342a1.61 1.61 0 0 0 0-0.684c-0.049-0.188-0.089-0.034-0.089 0.342m46.686 0.921c0.297 0.045 0.736 0.044 0.976-2e-3 0.241-0.047-2e-3 -0.084-0.539-0.082-0.538 1e-3 -0.734 0.039-0.437 0.084m-19.192 3.689c-0.591 0.149-3.184 0.673-5.762 1.165-12.33 2.353-11.88 2.251-11.51 2.613 0.3 0.295 12.32 5.394 21.08 8.943l5.762 2.336c4.784 1.942 23.642 9.239 23.878 9.239 0.467 0-0.446-3.157-1.552-5.371-4.283-8.572-14.844-15.715-27.599-18.668-2.726-0.631-2.793-0.635-4.297-0.257m126.22 40.995c2e-3 0.43 0.042 0.583 0.089 0.34 0.046-0.243 0.045-0.595-4e-3 -0.781-0.049-0.187-0.087 0.012-0.085 0.441m14.103 5.225-0.969 1.025 1.026-0.969c0.564-0.533 1.025-0.994 1.025-1.025 0-0.146-0.181 0.016-1.082 0.969m-37.736 0.867c0.188 0.049 0.495 0.049 0.683 0s0.034-0.089-0.342-0.089-0.529 0.04-0.341 0.089m4.302 0.204c0.514 0.041 1.305 0.04 1.758-1e-3s0.033-0.074-0.933-0.073c-0.967 1e-3 -1.338 0.034-0.825 0.074m3.603-2e-3c0.347 0.043 0.962 0.043 1.368 1e-3 0.405-0.042 0.121-0.077-0.631-0.078s-1.083 0.033-0.737 0.077m-12.593 14.251c0.188 0.049 0.496 0.049 0.684 0s0.034-0.089-0.342-0.089-0.53 0.04-0.342 0.089" fill="#c0624c"/><path d="m91.624 168.49-0.673 0.733 0.733-0.673c0.68-0.626 0.822-0.792 0.673-0.792-0.033 0-0.363 0.33-0.733 0.733m-4.393 4.394-0.772 0.83 0.83-0.772c0.457-0.424 0.83-0.798 0.83-0.83 0-0.148-0.17 0-0.888 0.772m-12.934 24.56c0 0.377 0.04 0.53 0.09 0.343a1.61 1.61 0 0 0 0-0.684c-0.05-0.188-0.09-0.034-0.09 0.342" fill="#448a50"/><path d="m107.9 99.729c0.188 0.049 0.495 0.049 0.683 0 0.188-0.05 0.034-0.09-0.342-0.09s-0.53 0.04-0.341 0.09m9.566 15.686c0 0.376 0.04 0.529 0.09 0.34a1.605 1.605 0 0 0 0-0.682c-0.05-0.188-0.09-0.034-0.09 0.342m-14.253 0.293c2e-3 0.429 0.042 0.582 0.088 0.339 0.047-0.243 0.045-0.594-4e-3 -0.781-0.048-0.187-0.087 0.012-0.084 0.442m14.253 1.464c0 0.376 0.04 0.53 0.09 0.342a1.605 1.605 0 0 0 0-0.683c-0.05-0.188-0.09-0.035-0.09 0.34m-49.006 0.978c0 0.698 0.036 0.984 0.079 0.635a6.268 6.268 0 0 0 0-1.27c-0.043-0.35-0.08-0.063-0.08 0.635m41.729 15.38-1.068 1.124 1.123-1.068c1.044-0.991 1.213-1.178 1.068-1.178-0.031 0-0.536 0.505-1.123 1.123m64.254 50.39-0.673 0.733 0.732-0.673c0.403-0.37 0.733-0.7 0.733-0.733 0-0.15-0.166-8e-3 -0.792 0.673m-2.54 2.735-0.672 0.732 0.732-0.673c0.682-0.626 0.822-0.792 0.673-0.792-0.032 0-0.362 0.33-0.732 0.733m-48.568 23.63c0.514 0.04 1.305 0.04 1.758-1e-3s0.033-0.074-0.934-0.074c-0.966 0-1.337 0.035-0.824 0.075" fill="#5c5c5c"/><path d="m79.477 98.368c0.349 0.044 0.92 0.044 1.269 0 0.349-0.043 0.064-0.078-0.635-0.078-0.698 0-0.984 0.035-0.634 0.078m3.909 0.196c0.35 0.043 0.879 0.042 1.172-2e-3 0.294-0.045 7e-3 -0.08-0.638-0.08-0.645 2e-3 -0.885 0.038-0.534 0.082m3.708 0.195c0.349 0.043 0.92 0.043 1.269 0s0.064-0.08-0.634-0.08c-0.7 0-0.984 0.037-0.635 0.08m3.91 0.196c0.35 0.043 0.878 0.042 1.17-2e-3 0.295-0.045 8e-3 -0.081-0.637-0.08-0.644 2e-3 -0.885 0.038-0.533 0.082m3.707 0.195c0.349 0.043 0.92 0.043 1.27 0 0.349-0.044 0.063-0.08-0.635-0.08s-0.984 0.036-0.635 0.08m3.91 0.195c0.35 0.044 0.878 0.043 1.172-2e-3 0.293-0.044 6e-3 -0.08-0.64-0.08-0.643 2e-3 -0.883 0.039-0.532 0.082m3.707 0.195c0.349 0.044 0.92 0.044 1.27 0 0.349-0.043 0.063-0.08-0.635-0.08s-0.984 0.037-0.635 0.08m3.809 0.194c0.295 0.045 0.779 0.045 1.074 0s0.054-0.081-0.537-0.081-0.833 0.036-0.537 0.08m-30.528 1.375-0.673 0.732 0.732-0.673c0.682-0.626 0.822-0.791 0.673-0.791-0.033 0-0.362 0.329-0.732 0.732m38.145 14.209c3e-3 0.43 0.043 0.582 0.089 0.339 0.047-0.243 0.045-0.594-4e-3 -0.781-0.05-0.187-0.087 0.012-0.085 0.442m-5.86 5.7c0.189 0.05 0.496 0.05 0.684 0 0.188-0.048 0.034-0.088-0.342-0.088s-0.53 0.04-0.341 0.089m-32.862 13.049c0.365 0.376 0.707 0.684 0.76 0.684 0.054 0-0.2-0.308-0.564-0.684-0.365-0.376-0.707-0.684-0.761-0.684-0.053 0 0.2 0.308 0.565 0.684m15.975 6.883c0.675 0.038 1.73 0.038 2.343-1e-3 0.614-0.038 0.06-0.07-1.228-0.07-1.29 0-1.791 0.033-1.115 0.07m1.298 27.053-0.574 0.635 0.635-0.573c0.349-0.316 0.635-0.602 0.635-0.635 0-0.151-0.161-0.018-0.696 0.573m-3.021 2.832-1.263 1.319 1.318-1.264c1.224-1.174 1.408-1.373 1.264-1.373-0.03 0-0.623 0.593-1.32 1.318m86.325 11.719-0.673 0.733 0.732-0.673c0.403-0.371 0.732-0.7 0.732-0.733 0-0.15-0.165-8e-3 -0.791 0.673m-2.444 2.637-0.573 0.635 0.635-0.574c0.59-0.535 0.724-0.696 0.573-0.696-0.033 0-0.32 0.286-0.635 0.635m-4.288 4.492-1.95 2.002 2.003-1.95c1.1-1.072 2.002-1.972 2.002-2.001 0-0.142-0.244 0.09-2.055 1.949m-52.584 20.008c0.188 0.049 0.496 0.049 0.684 0 0.188-0.05 0.034-0.09-0.342-0.09s-0.53 0.04-0.342 0.09m2.148 0.195c0.188 0.049 0.496 0.049 0.684 0 0.188-0.05 0.034-0.09-0.342-0.09s-0.53 0.04-0.342 0.09m2.444 0.199c0.243 0.047 0.595 0.045 0.78-4e-3 0.188-0.05-0.011-0.087-0.44-0.085-0.43 2e-3 -0.583 0.042-0.34 0.089" fill="#84b48c"/></g></svg>
