<?xml version="1.0" encoding="UTF-8"?>
<!-- Created with Vectornator (http://vectornator.io/) -->
<svg clip-rule="evenodd" stroke-linecap="round" stroke-linejoin="round" stroke-miterlimit="10" version="1.1" viewBox="0 0 2048 2048" xml:space="preserve" xmlns="http://www.w3.org/2000/svg" xmlns:xlink="http://www.w3.org/1999/xlink">

<clipPath id="ArtboardFrame">
<rect width="2048" height="2048"/>
</clipPath>

<g transform="matrix(5.5902 0 0 5.5902 88.024 84.591)"><path d="m120.5 13.1a15 15 0 0 0-7.5 4.9c-2.2 3.2 1.8 7 10.5 9.7 5.9 2 6.4 2 7.2 1.9l3-0.3c7-0.4 10.2-2.4 10.5-6.4 0-2.3 0-2.6-2.5-4.1-7-4.5-15.5-6.7-21-5.6m47.2 2c-1.9 1.6-1 9.9 1.2 12.4 3.3 3.8 7 5.3 9.8 3.8 2-1 2.3-1.4 1.9-2.7-2-6.2-4.5-10.7-6.8-12.4-2-1.5-5-2-6.1-1m-33.7 30c-7.6 1.1-13.7 4.8-16.4 9.9-1.7 3.2-1.1 5.3 1.7 6.8l1.3 0.7 1.3-0.3c1.8-0.3 3.7-1.3 6.9-3.3 5.8-3.8 10-5.4 15.2-5.8l2-0.1 0.2-1c0.6-2.9-2.6-6.4-6.2-6.8-1.7-0.2-4.9-0.2-6 0m26 23.2a59 59 0 0 0-20.3 8c-10.2 5.5-22 15.6-33.4 28.7l-4.6 4.8a72.6 72.6 0 0 0-5.4 6 173.6 173.6 0 0 0-29.2 51.2 151.8 151.8 0 0 0-7.2 56.7c1.6 13.2 4 23 8.2 33a67.6 67.6 0 0 0 21.4 30.5c15 12.4 35.6 19.2 63.7 21a288.2 288.2 0 0 0 37.5-0.8 175.4 175.4 0 0 0 12.2-0.6c5.2-0.2 7-0.4 10.3-1.2l3.7-0.5a27 27 0 0 0 3.6-0.7l3.3-0.8c3.2-0.8 5.3-1.6 8.6-3a72.2 72.2 0 0 0 40.2-38.4 61.4 61.4 0 0 0 6.8-22.2c0-1.7 0.3-4.1 0.4-5.4a382.6 382.6 0 0 0 1.6-18.1 85.4 85.4 0 0 0-2.8-31l-1.8-6.8a134.9 134.9 0 0 0-11-34.2 238 238 0 0 0-11.4-23c-4-6.5-9-14-10.9-16.1a114.3 114.3 0 0 0-26.7-23.2l-2.7-1.6-1.5 0.6c-6.6 2.5-10.4 0.7-8.7-4.3l0.4-1-1.7-0.6a69 69 0 0 0-12.5-3.7c-1.4-0.6-7-2-8.5-2.1l-1.2-0.1-0.6 1.3-0.7 1.5c0 0.5-0.6 1.1-1 1.1-0.8 0-1-0.2-2-1.5-2-2.7-2.6-3.2-3.9-3.2l-3-0.3c-2.9-0.4-7.4-0.5-9.4 0m2.8 2.2c7.4 1.3 12.2 6 10.2 10-1.4 2.8-5.5 3-12.6 0.3-9.3-3.5-17.8-2.6-23.5 2.4-2.3 2.2-3 2.5-3 1.6 0-2 10.1-10.3 15.4-12.7 4-1.8 9-2.4 13.5-1.6m55.7 17.6c0.2 0.2 0.3 0.5 0.2 1.1a159 159 0 0 0-0.7 5.3c-0.2 1-0.2 1 1.6 0.7 3.3-0.5 5.1-1.1 7.2-2.5 1.4-0.9 2-1 2.2-0.3 0.2 0.5-1.6 4.6-2.6 6.2l-0.8 1h2.4c2.7 0 4.3-0.1 6.3-0.7 1.4-0.4 2-0.3 2 0.5 0 0.5-2.5 3.6-4 5l-1.6 1.4 0.9 1c11.4 11.9 12.1 30 1.7 40.6a24 24 0 0 1-6 4.4c-0.4 0-0.4 0 0.5 1.8a64 64 0 0 1 7 29.4c0.3 9 0.5 12.6 0.7 12.7 0.1 0.1 3.6-0.7 6.7-1.6 4.3-1.3 5-1.3 5.7 0.1 1 1.9-1.4 14.8-3.6 20.4a56.4 56.4 0 0 1-35.4 30.6c-8.1 2-20.8 0-26.7-4.2-7.6-5.5-12.7-17.7-15.5-37-0.4-3.2-1.2-7-1.6-8.6a9 9 0 0 1 0.4-4.5c1.2-3 1.8-5.5 2.8-11.3 2-11 3.1-15.6 6.1-22.3 0.3-0.6 0.3-0.6 0-0.5-5.1 2-13.7 2-19.8-0.1a29.3 29.3 0 0 1-11.4-48.9l1.2-1.3-1.7-0.6a27 27 0 0 1-12.7-9.3c-1-1.6 0-2.4 1.4-1.1 3.8 3.2 6.7 4.6 10.7 4.7 2.6 0.1 2.6 0.1 1.3-0.7-1.6-1-3.9-3.7-6.1-7.3-1.2-1.9-1.3-2.2-0.8-2.7s0.7-0.5 2.4 1c4.8 4.2 8 5.7 12 5.7 1.7 0 1.7 0 0.4-3.7-1-3.3-1-3.6-0.4-4 0.5-0.2 0.9 0 3 2.3 4.6 4.7 8.7 7 12.4 7 7-0.2 16 3 20.5 7.2l0.8 0.7 1.8-1.8a26 26 0 0 1 16.4-7.6c3.7-0.5 5-1 7.9-3.5 1.5-1.3 3.5-3.8 3.5-4.4 0-0.2 0.5-0.6 0.9-0.6l0.4 0.3m-13.2 12.2c-5.2 0.6-10.3 3.1-13.6 6.7-1.4 1.6-1.4 1.5-0.5 2.7a28.7 28.7 0 0 1 3.9 28l1.1-0.3c10.8-3.7 22.3 0.6 28.4 10.6 0.6 0.9 0.4 1 2.6-0.5 15.3-10.3 11.7-34.7-6.5-44.2a28 28 0 0 0-15.4-3m-43.4 1.8c-17.5 3.1-28 20.6-22 36.2 5 12.9 20 19.2 34.2 14.5 1.4-0.5 2.5-0.7 2.8-0.7 0.3 0.1 0.5 0 0.8-0.4 2.7-4.2 8.2-9.3 12.3-11.4 0.5-0.3 0.6-0.4 0.5-0.9l0.8-2.6a25.2 25.2 0 0 0-7-29c-4.2-4.3-14.9-7-22.4-5.7m50.9 15.6c6 2.1 7.5 9.6 2.9 14.2a8.1 8.1 0 0 1-13.2-2.3c-3.3-6.7 3.4-14.3 10.3-11.9m-37.5 2.9c5.2 1 8.9 6.7 7.4 11.5-2.6 8.8-14.8 8-17.1-1a8.4 8.4 0 0 1 9.7-10.5m-161 53.8c-7.4 1.2-9 8.7-3.1 14.2 2.3 2.2 4 2.8 8 3.1l6 0.5c7 0.6 12.4-1.4 13.1-4.9 1.2-5-3.7-10-11.6-11.7-4.7-1-9.9-1.6-12.4-1.2m6.7 29.8c-2.8 0.3-9 3-12.4 5.2-6 4-7.5 10.8-3.8 18 3.7 7 9.6 6.4 20.7-2 12.6-9.7 13.6-14.4 4-19.2-3.5-1.7-6-2.3-8.5-2" fill="#faefe4" fill-rule="evenodd"/><path transform="translate(-46.1,-36.1)" d="m168.9 49c-0.8 0-1.6 0.1-2.2 0.3a15 15 0 0 0-7.7 4.7c-2.2 3.3 1.8 7 10.5 9.8 6 1.9 6.4 2 7.2 1.8l3-0.3c7-0.4 10.3-2.3 10.5-6.3 0.1-2.4 0-2.7-2.4-4.2-6.2-3.9-13.5-6-19-5.8zm46.2 1.8c-0.5 0-1 0.2-1.2 0.5-1.8 1.5-1 9.8 1.2 12.4 3.3 3.8 7 5.2 9.9 3.8 2-1 2.3-1.5 1.8-2.8-2-6.1-4.4-10.6-6.7-12.4a7.5 7.5 0 0 0-5-1.5zm-32 30.5h-2.8c-7.7 1.2-13.8 4.8-16.4 10-1.7 3.2-1.2 5.3 1.6 6.7l1.3 0.7 1.3-0.2c1.8-0.4 3.8-1.3 6.9-3.4 5.8-3.8 10-5.4 15.3-5.7l1.9-0.2 0.2-1c0.6-2.8-2.6-6.3-6.2-6.7l-3.2-0.2zm-120.3 129.4c-1 0-1.7 0-2.4 0.2-7.3 1.1-9 8.7-3 14.2 2.3 2.1 4 2.8 8 3l5.9 0.5c7 0.7 12.4-1.3 13.2-4.8 1.1-5-3.8-10-11.6-11.8-3.6-0.8-7.4-1.2-10.1-1.3zm6.3 29.9h-2c-2.8 0.4-9 3-12.3 5.2-6.1 4.1-7.6 10.8-3.9 18 3.7 7 9.6 6.5 20.8-2 12.5-9.6 13.5-14.3 4-19.1-2.7-1.3-4.7-2-6.6-2.1z" fill="#ffdbe4"/><path transform="translate(-46.1,-36.1)" d="m279.2 220.9-0.3-4.5a60.3 60.3 0 0 0-6-23.3l2.4-1.4a24.8 24.8 0 0 1 32.7 10.3 14.3 14.3 0 0 1-2.6 16 19 19 0 0 1-11.5 5.5c-5.2 0.6-10-0.3-14.8-2.5z" fill="#ffdbe4" stroke-width=".19359"/><path transform="translate(-46.1,-36.1)" d="m253.7 136.5c-2.6 0-5.2 0.4-8 1.3a20.5 20.5 0 0 0-10 7.3c7 9 8.5 18.8 4.7 29.6l0.8-0.3c2.1-0.5 4.1-1.1 6.2-1.3 6.8-0.6 13 1.3 18 6 2.2 1.9 3.8 4.3 5.6 6.5l0.8-0.5c8.4-4.8 12-14.1 10.6-23.3a29 29 0 0 0-12.7-20c-5-3.5-10.4-5.4-16-5.3zm-42.5 1.6c-7.3 0.2-14.6 3.1-19.9 8.4a26 26 0 0 0-7.9 23.6 26.2 26.2 0 0 0 28.8 21.2c3-0.2 5.7-0.9 8.3-1.9l1.5-0.3c0.5 0.1 0.7-0.1 1-0.5 1.3-1.7 2.6-3.4 4-4.9 2.6-2.8 5.7-5 8.7-6.8 0.3-1 0.4-1.8 0.7-2.5 5.8-13.2 0.3-27.6-12.3-33.6-4-2-8.5-2.8-13-2.7zm44.8 15.9c4.6 0.1 7.5 4 7.8 7.8 0.3 5.1-4 10-9.7 9.2-1-0.2-2-0.7-3-1a8.7 8.7 0 0 1 4.9-16zm-37 3c4.8 0 9 4.2 9.2 8.8 0.4 5-2.8 8-5.8 8.8a9.3 9.3 0 0 1-10.6-4.4 8.7 8.7 0 0 1 3.7-12.5c1.2-0.4 2.3-0.7 3.5-0.7z" fill="#fff" stroke-width=".19688"/><path transform="translate(-46.1,-36.1)" d="m161.7 338.1c0.1-0.5 0.3-1 0.6-1.3a70.8 70.8 0 0 1 21.3-15.6 139.4 139.4 0 0 1 53-12.4c3.2-0.1 6.4-0.4 9.5-0.3a86 86 0 0 1 18.5 2.1 73.4 73.4 0 0 1 16.6 6 59 59 0 0 1 11.6 7.9c1 0.9 2.2 1.7 3.4 2.5-2.4 1.8-4.7 3.6-7.2 5.1-4.8 3-9.8 5.4-15 7.4a41 41 0 0 1-5.7 1.5l-13.8 2.7c-1.6 0.3-3.3 0.3-5 0.4l-17.7 0.8c-4 0.2-8 0.6-11.9 0.7-4.7 0.2-9.4 0.2-14.1 0.1-3.7 0-7.3-0.3-11-0.6a125 125 0 0 1-33.1-7z" fill="#eeddd2" stroke-width=".18987"/><g fill-rule="evenodd"><path d="m121 10.5c-6 0.7-11.2 5-11.2 9.1 0 5.3 4.1 8 19 12.3 10.3 3 13.3 4.2 20.3 7.7 9.5 4.7 13.7 8 18.3 14.5 1.5 2 1.5 2-1.4-0.3-13.3-11-31-14.2-42.6-7.8-10.5 5.9-12.4 17-3.3 18.9 2.3 0.4 5.8-0.9 10-3.6 10.2-6.7 16.8-7.3 28-2.4 4 1.8 7.4 3.7 9.3 5.2l0.5 0.4h-4c-4 0-5.7 0.2-9.2 1.1a58 58 0 0 0-14.6 6 62 62 0 0 0-13.2 8.2l-1.2 0.9a43 43 0 0 0-5.4 4 103.3 103.3 0 0 0-13.9 13.1 176.7 176.7 0 0 1-5.4 6.2 50.6 50.6 0 0 1-2.6 3.2c-0.1 0-0.4 0.3-0.6 0.7a60 60 0 0 0-5 5.8l-1.1 1.4a27.7 27.7 0 0 0-2.5 3 49.4 49.4 0 0 0-3.6 4.8 46.3 46.3 0 0 0-3.3 4.9l-1.4 2-1.3 2-1.4 2.3a148.7 148.7 0 0 0-20.5 54c-0.5 3.4-0.4 3.3-1.7 1.8-9.6-11.4-28.7-19.7-41.6-18-9.8 1.2-12.8 10.9-5.8 18.5 3.1 3.3 5.7 4.2 12.6 4.6a91 91 0 0 1 23.8 4.6l-8 0.3a52.7 52.7 0 0 0-30 7.3c-7.2 4.9-9 13-4.7 21.8 4.9 10 15.5 8.1 30-5.2 12-11 16.4-14 22-14.7l1-0.2 0.2 6.7c0.1 8 0.6 13 2.4 21.7a106 106 0 0 0 5.7 19.2 116.1 116.1 0 0 0 12.9 23.8l1.2 1.3a96.4 96.4 0 0 0 15 13.4 87 87 0 0 0 15.7 8.4c10.7 4.3 25 7.5 39.4 8.8a265.6 265.6 0 0 0 38.7 0.1 192.1 192.1 0 0 0 17.8-1c7.5-0.6 22-3.4 26.5-5.2a113.3 113.3 0 0 0 22.9-12.5l1-1 1.6-1.2a122.4 122.4 0 0 0 10.3-11.1l0.5-0.8 0.7-1a91 91 0 0 0 13.6-27.2 82 82 0 0 0 3-15.8 142.7 142.7 0 0 0-0.6-47.4 124.5 124.5 0 0 0-6-24 42 42 0 0 0-2-6.4 75 75 0 0 0-1.6-4.6c-0.7-1.7-5.3-12.4-7.7-17.5a171.6 171.6 0 0 0-22-35.4 234.6 234.6 0 0 0-14-13.5 27.2 27.2 0 0 0-3-2.3 41.1 41.1 0 0 0-6.2-4.2c-2.4-1.5-2.5-1.6-1-1.9 3.5-0.8 6.2 0.2 8.3 3.1 0.5 0.8 1 1.4 1.3 1.4l0.4 0.3c0 0.2 0.4 0.3 0.7 0.3 2.7 0-3-8.7-7.4-11.4-5.2-3-11.7-3-15.7 0l-0.8 0.7-1-0.4-2.8-1a87.6 87.6 0 0 0-19-4.6c-2.3-0.4-2.2-0.3-2-0.8 0.8-1.5 2.7-8 3.3-11.1 2.6-14.4-3.7-37.6-11.2-41.4-3.6-1.8-7.8-1.7-9 0.4-2.3 3.6-1.5 8.6 3.3 22.5a171 171 0 0 1 6.4 22.6l-0.7-1.5a122.7 122.7 0 0 0-19.8-32c-11.3-10.7-23.3-16-33.6-14.9m8.2 2.8c5 1 14 5.3 14.7 7 0.7 1.5 0.3 4-0.8 5.6-1.5 2.2-4.2 3-11 3.6l-2.6 0.2-3.3-1c-14.6-4.4-18-9.2-9.8-14 3.5-2 7.5-2.5 12.8-1.4m43.3 1.9c3.2 1.5 5.6 5.3 8 12.4 0.8 2.2 0.8 2.3-0.7 3.3-2.2 1.5-3.6 1.6-6.1 0.4-5.1-2.5-7-5.7-7-12 0-4.8 1.7-6 5.8-4.1m-32.5 30c4 0.3 7.3 4.4 6.2 7.5 0 0.3-0.3 0.6-0.4 0.6-6 0-11 1.9-17.4 6.2-4.4 2.9-6.9 3.6-9 2.6-8-3.7 2.4-15.7 14.5-17 1.5-0.2 4.3-0.2 6 0m29 23.3 3.2 0.3c1.6 0 2 0.2 3.4 2 2.1 2.8 2.1 2.7 2.8 2.7 0.4 0 0.6 0 0.8-0.5l1.5-3.4 5.6 1 6.9 1.8c3.6 1 11.1 3.4 11.5 3.7 0 0 0 0.6-0.3 1.2-1.7 5 1.8 6.7 8.8 4.1l1.4-0.5 2.5 1.2c8.6 5 17.9 12.9 25.3 21.4 5.4 6.2 13.7 19.3 18 28.3a599.6 599.6 0 0 1 11.2 25.3c2.1 5.7 4 13 5.9 22.2l1 4.7c1 2.7 1.7 6.2 2 8.7l1.3 6.8a121.4 121.4 0 0 1-0.7 26.3 212.3 212.3 0 0 1-1 11.5 77.9 77.9 0 0 1-54.2 66.2l-3.8 1c-2 0.5-4.3 1-5.2 1a55.3 55.3 0 0 1-13.8 1.7l-16 0.8c-56.1 4.8-95.7-8.6-112.5-38a117.4 117.4 0 0 1-14.9-63.4c1-12.7 3-25.6 5.9-34.7a159.9 159.9 0 0 1 41.8-67.8 126.6 126.6 0 0 1 36.7-30c3-2 9.7-4.4 15.8-5.6 2.5-0.6 6-0.6 9.2 0m-13 2.2c-5.8 0.7-10.7 3.5-18.3 10.2-3 2.6-3.5 3.2-3.5 4.1s0.2 0.8 3.3-1.9c3-2.5 7.2-4 12-4.1a23 23 0 0 1 11.3 2c8 3 12.7 2.3 12.7-2 0-5.3-8.8-9.4-17.6-8.3m62 17.8c-0.2 0.1-0.6 0.8-1 1.4-2.7 4.2-6.2 6.2-12.2 7-6.4 1-12 3.8-15.7 8l-1 1.3-2.3-1.6c-5.2-4-12.6-6.5-19-6.4-3.7 0-7.6-2-12.4-6.8-3.8-3.8-4.3-3.6-2.6 1.5 1.3 4 1.4 3.7-0.8 3.7-4 0-7.3-1.7-11.9-5.7-1.5-1.3-1.8-1.4-2.2-1-1 1 4.8 8.9 7.5 10.2l0.8 0.4-0.8 0.2c-3.2 0.6-8-1-11.6-4-3-2.3-3.9-1.6-1.5 1.2 3.5 4.1 6.8 6.4 11.7 8.1l1.9 0.7-1.5 1.7a29 29 0 0 0 11.2 48.3c5.8 2 13.6 2.2 19.5 0.4 1.2-0.4 1.2-0.4 0.2 1.8-2.3 5.1-3.9 11.3-5.6 21.6a51 51 0 0 1-2.4 9.7c-1 2.7-1 4.1-0.5 6.3l1.5 7.9c3.3 25 11 38 24.5 40.6 12.6 2.5 21.3 0.7 32.2-6.6 14.9-10 22-21.4 24-39 0.8-6.6 0.8-6.6-8.6-4-3.8 1-3.8 1-4 0.2l-0.3-6.8a81.5 81.5 0 0 0-2.2-21.6c-1.1-4.4-2.9-9-5-13.3-0.8-1.5-0.8-2-0.3-2 0.6 0 4-2.5 5.8-4.2 10.2-10.3 9.8-27.6-1-39.8l-1.5-1.8 1.7-1.6c4.5-4.2 5-6 1.3-5-1.6 0.4-2.6 0.5-5.1 0.6l-3.1 0.1 0.3-0.5c1-1.4 1.6-2.7 2.4-4.5 1.3-3 1-3.5-1.2-2-2 1.3-3.5 1.8-7 2.4-2.4 0.4-2.3 0.5-2-1 0.5-2.2 0.8-6 0.5-6.2-0.4-0.2-0.5-0.2-0.8 0.1m-4.9 12.2c23.2 4 33 35.3 14.7 47l-1.8 1.3-0.5 0.4-0.4-0.8a23.8 23.8 0 0 0-29.8-10.3l0.5-1.7a29 29 0 0 0-4-26c-1.4-2-1.4-1.7 0.3-3.4a22.9 22.9 0 0 1 21-6.5m-39.2 2a25.3 25.3 0 0 1 17.9 34.5c-0.4 0.9-0.7 2-0.7 2.4 0 0.7-0.1 0.8-1 1.2-3.9 2.3-8.7 6.7-11.4 10.5-0.9 1.3-1 1.4-1.5 1.3-0.3 0-1.3 0.2-2.5 0.6-21.4 7.4-41.7-11-35-31.8a29.3 29.3 0 0 1 34.2-18.7m34 15.4c-8.5 3-7 16 1.8 16.4 7.6 0.4 11.8-8.7 6.7-14.3-2-2.1-5.7-3-8.5-2m-34.8 2.7c-11 1.5-8.7 18 2.5 17.5 8.6-0.4 10.6-12.3 2.7-16.5-1-0.5-2-0.8-3.6-1.1a9 9 0 0 0-1.6 0.1m34.9 19.5c7.1 1.3 12 5.5 16.4 14.3 5 9.7 6.7 16.7 7 28.9a1854.4 1854.4 0 0 0 0.6 12.9c0 0.6-9.2 1.3-15.3 1a243 243 0 0 1-43-4.3c-4.7-1-4.3-0.6-3.6-2.8 1-2.9 1.6-5.4 2.3-10 1.2-7.2 2.3-11.7 3.7-16 5-15.6 19-26.1 31.9-24m-184.8 34.7c8.3 1.4 13 4 15 8.2s-0.3 8-5.8 9.1c-3 0.7-14.4 0.2-17.1-0.8-4.2-1.4-7.5-5.8-7.5-9.7 0-6.2 5.4-8.6 15.4-6.8m150.1 21.8c25 5 55.6 5.7 68.8 1.5 1.7-0.5 2.3-0.4 2.3 0.5 0 1.2-2 10.7-2.8 13a47.3 47.3 0 0 1-18 22.5c-11.3 7.9-19 9.7-31.3 7.2-11.8-2.3-18.2-13.5-21.6-37.8l-1-5.5c-0.5-2.5-1-2.4 3.6-1.4m-148.8 7.6c1.8 0.4 5 1.7 7 2.9 8 4.6 5.8 10.4-7.6 19.8-10.7 7.5-15.6 7.5-19.2 0.2-5-10-0.6-17.3 13.3-22.1 1.7-0.6 2.6-0.8 5-1 0.1 0 0.8 0 1.5 0.2" fill="#050505"/><path d="m203.6 140.2h0.9l-0.4-0.1h-0.5m-2.1 0.3h0.8l-0.5-0.1h-0.3m4.5 0h0.7-0.7m-21.3 9-1.3 1.5 1.5-1.5 1.4-1.5-1.6 1.5m46 26.9v0.3-0.7 0.4m0.2 2.3v0.6-1.2 0.6m0.2 4.4v1-2.1 1.1m0.2 6v1.5a38.7 38.7 0 0 0 0-1.4m0.2 5v0.7-1.4 0.7m-42.2 1.8h0.6-0.6m1.8 0.2h0.8-0.8m2.2 0.2h0.8-0.8m38.3 0.1c0 0.2-0.2 0.4-0.5 0.4l-0.6 0.1h0.6c0.5 0 0.9-0.4 0.6-0.7l-0.1 0.2m-36 0.1h0.9-1m2.7 0.2h1.1-1.1m2.7 0.2h1.3-1.2m3.5 0.2h1.4-1.4m24.6 0h0.8-0.8m-21.3 0.2h1.4-1.4m19.4 0h0.8-0.8m-15.7 0.2h1.7-1.8m13 0h1.1-1.2m19 0.6 0.7 0.3c0.4 0.1 0.4 0.1 0-0.2-0.2-0.1-0.5-0.3-0.7-0.2-0.2 0-0.2 0 0 0m-55.8 1.4h0.7-0.7m1.6 0.2h0.7-0.7m1.8 0.2h0.9-0.9m2.3 0.2h1-1m2.3 0.2h1-1m2.5 0.2h1.1-1.1m34.8 0h0.7-0.7m-32 0.2h1.4-1.2m30 0h0.8-0.7m-26.8 0.2h1.4-1.4m25 0h0.8-0.8m-21.6 0.2h1.5-1.5m19.7 0h0.8-0.8m-16 0.2h1.8-1.8m13.2 0h1.2-1.2m14.8 15.4-0.3 0.9c0.1 0 1-1.6 0.8-1.7l-0.5 0.8m-7.4 10.4-0.7 0.7 0.7-0.6 0.8-0.8c0-0.1-0.2 0-0.8 0.7m-36.5 15.1h0.7-0.7m2.2 0.2h1-1m7.3 0h0.8-0.8" fill="#8f6a30"/><path d="m144.1 22.4c0 0.4 0 0.5 0.1 0.3v-0.8 0.5m-10.2 6.8h0.9-0.9m2.4 15.8h0.7-0.7m37 34v0.4-0.7 0.4m-56 14.1-0.7 0.6 0.7-0.5 0.6-0.7-0.7 0.6m-1.4 1.5-0.7 0.7 0.7-0.7c0.7-0.6 0.8-0.8 0.7-0.8l-0.7 0.8m34.7 2h0.8c0.2-0.1 0-0.2-0.5-0.2-0.4 0-0.6 0-0.3 0.1m76.3 3.5h2.1-2.1m-84.6 0.6h1-1m-40.4 9-0.6 0.5 0.7-0.5c0.5-0.6 0.7-0.7 0.5-0.7l-0.6 0.6m-2.5 2.5-0.6 0.7 0.6-0.6 0.7-0.6c0-0.2-0.2 0-0.7 0.5m102.3 14.3v0.6-1.3 0.7m16.6-0.3v0.3c0.1-0.2 0.1-0.6 0-0.8v0.5m22.2 2c0 0.6 0 0.8 0.1 0.6v-1.1 0.5m-75.3 1.2c0 0.6 0 0.8 0.1 0.5v-1 0.5m17.5 0.9c0 0.6 0 0.8 0.1 0.5v-1.2 0.7m57.5 0c0 0.5 0 0.7 0.1 0.5v-0.9 0.5m-3.8 0c0 0.3 0 0.5 0.1 0.3v-0.7 0.4m-73.8 24.5h0.9-0.9m2.4 0h0.7-0.7m-2 3.7h2-2m-146.9 16h0.8-0.8m218.4 14.6v1-1.8 0.8m-175.6 20.4v0.3c0.1-0.2 0.1-0.6 0-0.8v0.5m222.4 3c0 0.5 0 0.7 0.1 0.4v-0.9 0.5m-222.6 5.5v0.3c0.1-0.2 0.1-0.6 0-0.8v0.5m-56.7 1.8c0 0.5 0 0.7 0.1 0.5v-1 0.5m197.7 26.3h2-2m2 61h0.7l-0.3-0.1h-0.4m-23.2 1.4h1-1m-24 0.2h0.7-0.7m4.5 0.2h0.7-0.7" fill="#9f968e"/><path d="m122.4 12.8h0.8-0.8m1.7 0h0.9-0.9m-10.6 4-0.8 0.9 0.9-0.8c0.8-0.7 0.9-0.9 0.8-0.9l-0.9 0.8m21.5 28.2h0.6-0.6m2.7 0h0.7-0.7m26.2 23.1h1-1m8 0.8h1l-0.5-0.1h-0.4m-17.3 23.2 1.3 1.2-1-1.2-1.3-1.2 1 1.2m-40.2 4-0.8 0.9 0.9-0.8 0.8-0.8c0-0.2-0.2 0-0.9 0.7m93 4.2h1.3-1.3m-14.1 26v0.5-0.9 0.5m0 2v0.3-0.7 0.4m-55.3 1v0.6-1.4 0.8m77.6 2.9-0.6 0.6 0.6-0.6c0.6-0.5 0.8-0.7 0.6-0.7l-0.6 0.7m4.2 10.1 0.6 0.7 0.6 0.5-0.5-0.6-0.7-0.6m-74.6 4.6 1.1 1-2.1-2.1 1 1m-129.9 27.8h0.7-0.7m2.7 0h0.8-0.8m17.8 5.8c0.8 0.9 1 1 1 0.9l-1-1-0.9-0.8 0.9 1m198.7-0.1v0.4-0.9 0.5m-213.4 12h0.8-0.8m11.3 27.5-0.6 0.6 0.6-0.6c0.6-0.5 0.7-0.7 0.6-0.7l-0.6 0.7m200.2 11.7-0.6 0.6 0.6-0.6c0.6-0.5 0.7-0.7 0.6-0.7l-0.6 0.7m-52.8 7.7 0.9 0.8-0.7-0.8-0.8-0.7 0.6 0.7m76.8 46.4-1 1 2-2-1 1m-52.7 21.5h1.2l-0.7-0.1h-0.5m-17.5 0.8h0.7-0.7m-12.5 0.8h0.7-0.7m-15.4 0.2h0.7-0.7" fill="#747470"/><path d="m120.4 51.4-0.6 0.6 0.6-0.5c0.4-0.3 0.6-0.6 0.6-0.7l-0.6 0.6m45.8 50.7h1.5-1.5m68.6 79v0.6-1.3 0.6m0.2 4.4v0.5-1 0.5m0.2 6.9v0.3c0.1-0.2 0-0.6 0-0.8v0.5m12.8 5.7v0.4-0.8 0.4m33.8 10.8v1-2.2 1.2m-222.3-1.3v0.3-0.6 0.3m-53.4 4-0.7 0.8 0.8-0.7c0.6-0.6 0.8-0.8 0.6-0.8l-0.7 0.8m53.2 1.9v1a24 24 0 0 0 0-1m0.2 6.1v0.4-0.7 0.3m141 87.5h0.7l-0.4-0.1h-0.3m-3.7 0.3h0.7c0.2-0.1 0-0.1-0.4-0.1h-0.3m-54.9 0.2h0.7-0.7m1.8 0.2h0.6-0.6m44.4 0h1.3-1.2m-42.6 0.2h0.8-0.8m2.3 0.2h0.6-0.6m2.4 0.2h0.9-0.9m30.8 0h0.6-0.6m-27.6 0.2h1-1m21.3 0h2.2-2.2m-17 0.2h1.6-1.7" fill="#cabfb3"/><path d="m197 127.3c0 0.8 0.1 1.2 0.2 0.8v-1.5l-0.1 0.7m39.8 1.7c0 0.4 0 0.6 0.1 0.3v-0.7 0.4m-2 57.9v0.3-0.6 0.3m-175.6 23.8v0.4-0.7 0.3m0 6v0.4-0.7 0.4m101.6 92.1h1-1m9.7 0h0.9-0.9" fill="#b0b0b0"/><path d="m169 14.6h1l-0.5-0.1h-0.5m65.6 163.8v0.4-0.7 0.3m-71.6 130.7h0.7-0.7m6 0h0.7-0.7" fill="#c6a9b1"/><path d="m332.7 0.3-0.6 0.3 0.6-0.2 0.7-0.2c0.3-0.3 0-0.2-0.7 0m-0.6 2c-1.3 0.7-1 0.7 0.6 0 0.6-0.4 1-0.6 0.8-0.6-0.3 0-0.9 0.2-1.4 0.5m-40.1-0.1c-0.2 0.2 0 0.2 0.5 0.2 0.6 0 0.7 0 0.5-0.2l-0.5-0.1-0.5 0.1m-90 138.5c-9.2 1-18.1 7.7-23.3 17.3a69.5 69.5 0 0 0-6.5 22.3 63.6 63.6 0 0 1-2.7 12.3c1.3 0.4 13.5 2.6 18.2 3.2 7.7 1 21.6 1.8 30.7 1.8 6.4 0 7.9 0 12.2-0.6h1l-0.2-1-0.3-7.8c-0.5-16.7-1.8-22.5-7.1-33.1-5.5-10.8-12.8-15.6-22-14.4m-32.7 56.2c0.4 1.5 0.9 4.5 1.3 7 2.8 20 8 31.9 16 35.8 6.5 3.3 16.8 4 24.3 1.5a55 55 0 0 0 23.4-16.9c6-7.4 7.3-11 9.8-25 0.1-1-0.5-1.1-2-0.6-10 3.2-24.1 3.7-48.3 1.6-6.8-0.6-20.6-2.8-24.3-3.9-0.3 0-0.3 0-0.2 0.5" fill="#fbab14"/></g><path transform="translate(-46.1,-36.1)" d="m196.9 216.9c-3.6 7-9.3 11-16.9 12.4-4.9 0.9-9.8 0.4-14.4-1.9-6-3-10-7.6-11.4-14.3a18 18 0 0 1 3.6-14.7c3.8-5 8.9-8 15.1-9 2.7-0.3 5.3-0.4 8 0.1 3.8 0.8 7.4 2.2 10.5 4.7a18.9 18.9 0 0 1 5.7 22z" fill="#ffdbe4" stroke-width=".19359"/></g></svg>
