<?xml version="1.0" encoding="UTF-8"?>
<!-- Created with Vectornator (http://vectornator.io/) -->
<svg clip-rule="evenodd" stroke-linecap="round" stroke-linejoin="round" stroke-miterlimit="10" version="1.1" viewBox="0 0 2048 2048" xml:space="preserve" xmlns="http://www.w3.org/2000/svg" xmlns:xlink="http://www.w3.org/1999/xlink">

<clipPath id="ArtboardFrame">
<rect width="2048" height="2048"/>
</clipPath>

<g transform="matrix(4.3241 0 0 4.3241 284.61 613.27)"><g fill-rule="evenodd"><path transform="translate(-31.3,-76.7)" d="m243.4 76.9a62 62 0 0 0-22.7 7 65 65 0 0 0-11.6 7 64.8 64.8 0 0 0-8.5 6.6l-1.6 1.3a124.6 124.6 0 0 0-15 16 112 112 0 0 0-4.9 7.3l-1 1.6 0.1-1c1.7-14.5 0.9-22-2.9-26-3.1-3.2-7.8-3.1-11 0.2l-0.7 0.5c-0.4 0.3-2 2.2-2.7 3.4a51.3 51.3 0 0 0-2.7 41.5 66.2 66.2 0 0 0 8 15.4c0.8 0.8 0.8 0.9-1.3 1.7-2.4 1-21.1 10.4-24.2 12.1a344 344 0 0 0-25.7 16.5l-1 0.7-0.7 0.5-1 0.7-1 0.8-0.8 0.5-0.7 0.6-0.6 0.5-1 0.6a50 50 0 0 0-7.4 6 47.5 47.5 0 0 0-2.5 2.3l-1.5 1.2-1.8 1.6a164.5 164.5 0 0 0-10.8 11.2 83.6 83.6 0 0 0-4 5.5 96.3 96.3 0 0 0-9.5 21.1 55.6 55.6 0 0 0 2.4 37.5c-0.1 0.3-1.8 0.6-4.7 0.9a433.8 433.8 0 0 0-29 4.5c-6.7 1-7.4 1.3-7.9 2.2-0.7 1.4 0.2 5.1 2.8 11.1l1.8 4.3c4.8 11.8 7.2 12.2 22.2 3.1a495 495 0 0 1 16.2-9c-1.5 1.7-6.1 8-7.1 9.6-3.9 5.8-3.2 7.2 8 16.7l7.1 6.1c5.2 4.6 7 4.4 8.2-0.9 0.8-3.7 1.2-17 0.6-21.8-0.4-3.2-0.4-3.1 1-1.7a59.5 59.5 0 0 0 8.2 7l1.4 1 0.7 0.6 1 0.7a83.9 83.9 0 0 0 10 7.4c7.4 5 15 9.5 20.7 12.2a237.6 237.6 0 0 0 26 10.8 354.6 354.6 0 0 0 20 7.3c5.7 2 7.4 2.5 14 3.9a154 154 0 0 0 44 2.6 118.4 118.4 0 0 0 36-11.2 180.1 180.1 0 0 0 55.1-36.6c2.1-2 4.5-4.3 6.6-6.9a46.8 46.8 0 0 0 9.7-17.4c4.2-10 4.6-22.8 1.3-36a101.3 101.3 0 0 0-8.9-24.7l-1.4-3 0.3-0.9 1.5-3.4c2.7-5.7 2.2-6.4-1.9-2.3-2.8 2.9-2.4 2.8-3.4 1.2a19.8 19.8 0 0 0-1.6-2l-0.3-0.6a10 10 0 0 1-0.8-1l-1.4-1.8-1.2-1.4c-1-1.3-1.6-2.1-4.3-5a344.5 344.5 0 0 0-11.5-11.5 119.3 119.3 0 0 0-7.7-6.6 113.1 113.1 0 0 0-7.2-6 58.2 58.2 0 0 0-5.9-4.4l-0.6-0.5 1.2 0.2a53.7 53.7 0 0 1 26.4 9.4c2.5 1.4 6 3.6 9 5.8 4.9 3.5 6.8 4.2 6.8 2.4-0.2-3.5-14-20-21.3-25.5-8.6-6.4-13-8-21.7-8-7.4 0-10.5 0.9-15 4-1.5 1-1.2 1-3.8-0.6-2.7-1.6-4-2.2-6.5-3.2l-2-0.7-0.2-1.1c-0.3-3-2.3-7.1-5.1-10.5-6.7-8-18.4-13.4-33.2-15-3.1-0.4-11.4-0.5-13-0.2l-1 0.1 0.7-0.4 6.4-2.8c7.1-2.7 13.5-4.3 25-6.3 11-1.8 16.4-3 20.6-4.6l1.9-0.7a40.2 40.2 0 0 0 8.7-4.7c0.2 0 3.4-3.2 4-4 4-5.2 3.2-13-2-19.6a36.8 36.8 0 0 0-3.6-3.8 37.9 37.9 0 0 0-29.6-9.2m11.6 4.3c15.9 3.4 26.8 17.5 20.3 26.2-4.3 5.7-12.8 9-32 12.1a113 113 0 0 0-30.1 8.2c-6.5 2.9-9 4.6-13.6 9.4-3.6 3.7-4 4.5-3.7 5.7 0.6 2.2 2.7 2 4.3-0.4 3.5-5 13.3-7 26.7-5.2 17 2.3 29.7 10.3 32.5 20.5 2.2 8.1-3.4 9.8-21.6 6.4a53.7 53.7 0 0 1-22.3-8.5 102 102 0 0 0-10.4-6c-4.3-2.1-5.3-2.3-5.9-1.2-0.7 1.4 0.1 2.5 3 3.9 3 1.4 5.9 3 9 4.9 12 7.5 17 9.3 31.8 11.5 11.5 1.7 17.3 0.6 19.5-4l0.5-1a26.3 26.3 0 0 1 6.6 2.9l2.2 1.3-2.7 2.8c-7.1 7.3-9.1 11.3-5.6 11.3a60.6 60.6 0 0 0 10.8-2.5 330.8 330.8 0 0 0 10.7-2.5c0.9 0 9.5 6.4 15.1 11.2l7 6c7.6 6.3 16.6 16 22.3 23.8 2 2.9 2 2.7 0 4-2.8 2-4.4 2.8-4.8 2.4-0.2-0.2-0.4-0.4-0.6-0.4l-1-1.8a63.2 63.2 0 0 0-3.8-8 49 49 0 0 0-7.9-13.5c-13-16-30.7-19-44.2-7.3-3 2.6-6.1 10.3-6.8 17.2l-0.7 4.7a55 55 0 0 0 0 15c0.6 2.3 0.7 2.2-1 1.7a35 35 0 0 0-27.5 4.7v-5.5a55.6 55.6 0 0 0-4.9-25.7 33.9 33.9 0 0 0-29.3-21.3c-10.6 0-21.8 7.1-29 18.5a40.9 40.9 0 0 0-7.8 21l-0.1 2.6-1.2-0.3c-7.1-1.6-14.9-4.9-18-7.6-2.6-2.4-1.3 1.8 2.1 6.6a58 58 0 0 0 18.5 14.9c0.7 0.2 0.8 0.3 1 0.9 1 2.8 3.9 7 8.2 11.8l1.5 1.6-1.6-0.2-8.2-1c-7.6-1-11.3-1.2-13.2-0.6-3.3 1-4.4 4.3-2 6 1 0.9 2.2 1.3 10.6 3.8l8.8 2.7a140.2 140.2 0 0 0 44.7 35.6 79 79 0 0 0 50 7 50.9 50.9 0 0 0 32.6-24.3c2.5-4 3.4-5.2 4.5-6.2 0.5-0.4 1.1-1.2 1.3-1.6 0.4-0.8 0.5-0.8 3.7-2.1 8.3-3.4 15.4-7.1 21.3-11.3 1.9-1.4 2.5-2.4 2-3.5-0.6-1.6-1.8-2-8.2-1.8h-4.6l0.7-1c2.1-2.8 6.4-11.3 7.9-15.3 0.2-0.5 0.5-1 1.2-1.4 4.1-2.8 9-8 10.6-11.3 0.5-1 0.5-1 2 2.1 3.2 7.1 4.4 10.6 7 20.6a55 55 0 0 1-3.6 40.4c-3 6.6-8.4 13-18 21-9.8 8.3-17.3 14-23.6 17.8a207.2 207.2 0 0 1-35.3 17.8c-6.6 2.7-15.1 5-22.7 6.3a140.5 140.5 0 0 1-65.4-8.5 340.7 340.7 0 0 1-17.2-6.3 186.2 186.2 0 0 1-56.2-32 82.4 82.4 0 0 1-26-34.1 58.5 58.5 0 0 1 6.8-47.5c8.1-14 30-32.4 57.6-48.5a212.6 212.6 0 0 1 35-16.6c2 0 3-2.4 1.4-3.4-0.7-0.5-2.3-0.4-4 0.2l-0.9 0.3-0.6-0.7c-12-14.1-15-40.6-5.9-54.2 5.6-8.2 10.6-4.2 10.6 8.5 0 4.7 0 5.2-1.3 15.3l-0.8 7c0 1.2-0.4 3.2-0.6 4.3-0.6 2.4-1 6.5-0.8 8 0.3 2.3 2.6 3 3.6 1.2l0.7-5c0.6-6.1 0.8-6.6 3.3-11.7 11.5-23 37.4-44 59.7-48.5 4.9-1 12.2-1 16-0.3m-62.6 80.3c-8.2 1-15.4 5.6-25 15.8a133.2 133.2 0 0 0-13.7 16.7c-3.1 4.6-3.4 5.1-2.7 6 0.8 1 1.8 0.5 6.9-3.4 17.5-13.5 28.7-19 40.6-20.2 7.4-0.8 17.5 0.8 19.7 3 1.9 2.1 2.7-1 1.1-4-3-5.8-8.4-10.6-14.3-12.4-3.8-1.2-9.7-2-12.6-1.5m9 25.3c7.8 1.9 14 6 19.4 13.2l1.9 2.5-2-1a35.5 35.5 0 0 0-20.1-2.9 62.7 62.7 0 0 0-36.3 22.1c-2 2.7-2 2.7-1.8 1 0.6-7.6 6.9-19.2 13.9-26 7.6-7.3 17.4-10.7 25-8.9m88.5 2.3a37.8 37.8 0 0 1 22.2 16.3c1.2 1.8 1.2 2 0 1-10-8.2-30.4-9.2-46.7-2.4-2 0.9-1.8 0.9-1.5-0.4 1.5-5.8 4.2-9 10.2-12.3 5-2.8 10.4-3.5 15.8-2.2m-81 12.7a30 30 0 0 1 10.9 3.2c2.8 1.5 3.2 1.8 4.3 4.5 2.8 7 3.4 11.1 3.4 22.5v7.1l-1.3 1.2c-6 5.2-11.5 12.7-11.5 15.8 0 1.4 0.5 1.3-7.1 1.3-9.7 0-22.5-1-28.7-2.2a40 40 0 0 1-9.9-9.9c-3.3-4.4-5-9.2-5.1-15.4l-0.1-2.3 1.1-1.8a57.6 57.6 0 0 1 39.3-24.1c1.5-0.2 2.8-0.1 4.6 0m85.6 1.5a27.6 27.6 0 0 1 23.5 16.3 43.6 43.6 0 0 1 3.8 9.1c0.3 0.6 0.4 1 0.3 1.3l-0.3 1.6a84.4 84.4 0 0 1-12 24.6l-0.6 0.9-6.3 0.1a190.8 190.8 0 0 0-28.3 2.3s-0.2-1.5-0.2-3.2c-0.5-11-3.1-17-9.2-21.2l-1.3-0.9v-1.1l-0.6-2.8c-1-3.4-0.8-10 0.3-17.2l0.5-3.7c0-0.8 0.3-1 3.3-2.2 8.5-3.3 19-4.8 27-3.8m-13.3 6.7c-9.7 2.5-14 16.8-7.8 25.6 7 9.6 20.5 3.8 22-9.5 1.2-10-6.1-18.3-14.2-16.1m-73.5 0.5c-0.4 0-1.1 0.3-1.7 0.5-5.9 1.6-10.5 10.6-9.6 18.7 1.7 16.2 18.9 16.6 23.4 0.5 3-10.5-4.2-22-12-19.7m47.7 24.5a17 17 0 0 1 14 11.3c2 6.1 2 19.5 0.4 28l-0.8 3.6-3.2 0.4c-12 1.6-31.6-0.2-52-4.7a1046.2 1046.2 0 0 1-62.7-17c-3.5-1.1 1.2-1.3 8.5-0.3a671.8 671.8 0 0 0 17.6 2.2 181 181 0 0 0 27.9 2.5c10 0.1 11.9 0 12.3-1.6l0.5-0.9c0.1-0.2 0.3-0.9 0.3-1.6 0.3-3.1 6.3-10.8 11.7-14.9a31.8 31.8 0 0 1 25.5-7m65.1 25.7c-8.7 6-24.8 12.7-37.6 15.8-3.4 0.8-10.2 1.7-10.2 1.4l0.5-2.6a54 54 0 0 0 1.4-12.3l4-0.6a186 186 0 0 1 25.6-1.8 282 282 0 0 0 13-0.3h4l-0.7 0.4m-143 7.3a689 689 0 0 0 42.7 10.5c17.7 3.5 40.7 4.9 48.3 3h1.3a73.2 73.2 0 0 0 23.8-4.4c0.1 0-0.8 1.5-4.3 6.8a47.9 47.9 0 0 1-42.6 21.6c-19.6-0.4-35-6.4-55.2-21.5-7.8-6-20.7-18-18.3-17.2l4.2 1.2" fill="#28170b"/><path d="m186.2 27.7c-9 1.1-20.8 6.6-29.8 13.9a30 30 0 0 0-8 11c-2.5 4.9-2.9 6.1-3.5 11.8-0.6 5.5-0.8 6.2-1.9 6.7-2.8 1.3-3.7-3-2.1-10 1.3-6 1.4-11.4 0.2-13.8-4.6-9.4-10.8-5.6-11.8 7.3a42.8 42.8 0 0 0 9.2 24.3c1.3 1.6 1.1 1.5 2.8 1 2.5-0.6 4-0.2 4.3 1.4 0.2 1.2-1 2.4-2.5 2.4-2 0-20.8 8.7-30.5 14.1a263.3 263.3 0 0 0-47.8 34 96.5 96.5 0 0 0-9.6 10.4c-4.1 4.9-9.3 15.2-11.5 23a51.5 51.5 0 0 0 11.5 50.2 107.2 107.2 0 0 0 21 19.5 176.6 176.6 0 0 0 45.3 25.5l1.8 0.6 1.7-1.4a64.6 64.6 0 0 1 22.2-11.6c2.9-0.7 12-1.9 12.8-1.6 0.8 0.4 0.4 1.3-0.9 2-1.7 0.9-7 6.3-5.7 5.7 7.5-3 30.2-8.7 41-10.2 15.3-2.3 30-0.4 41.1 5.1 5.2 2.6 6.7 4.6 3.3 4.6-2.3 0-6.2 0.6-9.2 1.4l-1.6 0.5 2.4 0.2c7.2 0.7 12.6 2.8 17.7 7l0.5 0.3 2.4-1.2a192.6 192.6 0 0 0 37-25c14-11.2 19.1-18.2 23.7-32.2 2.8-8.6 2.8-19 0.2-29.7-2.7-10.9-4.9-17-8.2-23.7l-0.4-0.8-0.7 1.2c-1.8 3.5-6.2 8-10.2 10.7-0.8 0.6-1 0.9-1.5 2.1a94.5 94.5 0 0 1-8.1 15.4h5.1c6.1 0 6.9 0.3 7.6 2 0.6 1.5-1.1 3.2-7.3 7-4.6 2.8-10.2 5.5-16 7.9-3 1.2-3.5 1.4-3.6 1.9l-1.7 2c-0.8 0.8-2 2.3-2.8 3.5-1.7 2.8-5.4 8.2-6 9a62 62 0 0 1-9.2 8.9 55 55 0 0 1-20.8 9.3 81 81 0 0 1-44.1-5.3 159.7 159.7 0 0 1-35.6-23.5c-6.6-6.3-7.9-7.6-10.4-11-2.5-3.3-1.5-2.8-10.3-5.4-9-2.6-9.7-2.9-11.2-3.6-3-1.6-3-4.9 0.2-6.4 2.4-1.2 4.6-1.2 14 0 6 0.8 9.3 1.2 9.4 1.1l-0.8-1a40.2 40.2 0 0 1-8.1-11.4c-0.5-1.2-0.7-1.4-1.2-1.5a55.5 55.5 0 0 1-14.9-10.8c-4.3-4.3-8.2-10.7-7-11.4 0.5-0.2 0.8 0 1.6 0.6a54.7 54.7 0 0 0 18.7 7.8l0.1-1.4c0-12 9.5-28 20.8-35.5 11.8-7.8 24.5-6.8 35.8 2.6 5.9 5 8.7 9.5 12.3 19.8a69 69 0 0 1 2.5 21.6v3.3l0.6-0.4a34.9 34.9 0 0 1 26.5-4.3c1.7 0.4 1.6 0.6 1.1-1.7a48.4 48.4 0 0 1 0.2-15.7l0.5-3.8c0.3-3.4 1.8-8.9 3.3-12.2 2-4.2 5-7 10.8-10 12.7-6.3 29.6 0.4 40 16 2 2.8 4.9 8.4 5.1 9.7a53.7 53.7 0 0 1 4.3 9.4c0 0.1 0.3 0.3 0.6 0.3l0.6 0.5c0.1 0.4 5.5-2.7 6-3.5a75.6 75.6 0 0 0-11-14.1 142.2 142.2 0 0 0-19-17.7l-1.4-1.3a125.9 125.9 0 0 0-13.2-10l-1.1-0.8-6.6 1.7-10.3 2.6c-4.8 1.2-6.2 1.2-6.5 0-0.5-1.4 2.4-5.5 7.5-10.8 1.3-1.4 2.3-2.6 2.2-2.7-1.5-1.3-8-4.1-8.4-3.6-3.4 5.9-8.2 6.8-23.3 4.2a63.5 63.5 0 0 1-28.7-11.1 68.2 68.2 0 0 0-8.1-4.5c-3.7-1.7-4.2-2.3-4-3.8 0.5-2.2 3-1.6 10.6 2.7 1.2 0.7 2 1 2.2 1 0.5-0.2 3.4 0.5 7 1.5 7.6 2.3 13.2 2 14.3-0.7 1.3-3.6-1.8-9.7-6.4-12.6-3.5-2-7-2.9-12.5-2.9-8.2 0-11.8 1.3-14 5-1.3 2.1-3.9 2-4.5-0.4-0.2-1 0.8-2.6 2.7-4.2l1.8-2c2.9-3.2 5.1-4.9 9.6-7.1 16.3-8.1 22.4-14.4 19.8-20.1-1.9-4-5.8-5.6-12-4.8m-16.5 57.5a25.2 25.2 0 0 1 18.6 13.8c0.6 1.1 0.9 3.3 0.5 3.9-0.6 0.9-2 0.8-2.2 0-0.7-2.4-15.7-4-23.2-2.6-8.7 1.8-15.8 5-26.1 12-3.6 2.4-4.3 2.9-8.6 6.1-7.5 5.7-7.3 5.6-8.2 5.5-2.5-0.3-1-3.6 6-12.6 1.6-2 3-3.6 7.6-8.7 13.8-15.2 23.4-20 35.6-17.4m-7 24.9a36 36 0 0 0-23.1 15.8 45 45 0 0 0-8.3 19l-0.1 1.2 0.5-0.8a22 22 0 0 1 2.2-2.7c1.5-2 4.9-5.4 7-7.2 16-13.3 35-17.6 48.4-10.8l1.4 0.7-1-1.2c-7.6-10-18-15.5-27-14m87.2 2.1a28 28 0 0 0-14.4 8.3c-0.9 1.3-2.9 6.2-2.9 7.1 0 0.1 0.7-0.1 1.6-0.5 15.9-6.7 35-6 46 1.8l0.9 0.7-0.7-1c-7.7-11.2-20.6-18.2-30.5-16.4m-164.6 25.4c5.3 1.6 5.7 8.7 0.8 14-5.5 6.2-13.7 6.4-15.5 0.4-2.1-7.1 7.5-16.5 14.7-14.4m90.2 43.1h0.9-0.9m2.3 0h0.7-0.7" fill="#eac38b"/><path d="m194.8 79.1h0.6-0.6m-120.9 62.9-0.6 0.7 0.7-0.6 0.6-0.6c0-0.2-0.2 0-0.7 0.5m11.5 10.4-0.6 0.6 0.7-0.5 0.6-0.7-0.7 0.6m148.6 11 0.7 0.7-0.5-0.7-0.8-0.7 0.6 0.7m5 13.6v0.5-0.9 0.4m-116 2.1h0.9-0.9m12.6 1.6h0.7-0.7m1.7 0.2h0.7l-0.3-0.1h-0.4m49 1.5a22.6 22.6 0 0 1-0.5 1c0.1 0 1-1.6 0.8-1.7l-0.4 0.7m99.8 1.3c1.4 0.2 3.2 0.2 3.2 0h-3.2m-125.7 0.2h0.8-0.8m119.7 0h1.6-1.6m-117.4 0.2h1-1m111.3 0h2.1-2.1m-108.2 0.2h1-1m100.3 0h1.9-1.9m-95.6 0.2h2.1-2.1m10 0h1.4-1.4m80.9 0h1.1-1.1m-3.2 0.2h1-1m-2.4 0.2h0.7-0.7m-2.2 0.2h0.7l-0.3-0.1h-0.4m-1.9 0.3h0.7l-0.4-0.1h-0.3m-8.6 1.4v3.5l0.1-1.8c0-1.6 0-1.8 0.5-1.8l0.4-0.1h-0.4c-0.3 0-0.5 0-0.6 0.2m-3.9 4.5v0.4-1 0.6m-92 5.2 1 0.8-1.6-1.6s0.2 0.4 0.7 0.8m59.3 4.6h0.7-0.7m3.7 0.4h0.7-0.7m2.1 0.2h0.7-0.7m2.2 0.2h0.7l-0.4-0.1h-0.3m2.7 0.3h1-1m14.3 0h0.7l-0.4-0.1h-0.3m-10.6 0.3h1.8-1.8m6.7 0h1.4-1.4m-20.1 2.7h0.6-0.6m29.7 0-1.2 0.3-1.2 0.1h1c0.5 0 1.2 0 1.5-0.2l0.4-0.3-0.5 0.1m6 0h0.7-0.7m-33.8 0.2h0.7-0.7m28.9 0c0.2 0.3 1.7 0.4 1.5 0.2l-1-0.2h-0.5m3 0h0.8-0.8m-30 0.2h0.7-0.6m2.1 0.2h0.7-0.7m2.3 0.2h0.8-0.8m3 0.2h1.4-1.3m10.8 0h1.1-1.1m-5.4 0.2h1.4-1.4m-65 0.7 0.6 0.5 0.6 0.3-0.6-0.5-0.5-0.3m2.1 1.6 0.6 0.5 0.6 0.3-0.6-0.5-0.6-0.3m94.5 1.3-0.3 0.6 0.5-0.6 0.4-0.6-0.6 0.6m-3.8 4.5-1 1 1-1 1.1-1c0-0.1-0.2 0-1 1m-73.4 5.3 0.6 0.4 0.6 0.2-0.6-0.4-0.6-0.2m66.7 0.4-0.6 0.5 0.6-0.4 0.7-0.5-0.7 0.4m-36.8 8.7h0.7c0.2-0.1 0-0.1-0.3-0.1h-0.4m2.3 0.3h0.8c0.1-0.1 0-0.1-0.5-0.1h-0.3m10.4 0h0.7-0.7m6 27.1c-0.2 0.1-0.1 0.2 0.3 0.2 0.6 0 0.7-0.1 0.2-0.3h-0.5" fill="#ca8319"/><path d="m171.8 125.3a58.2 58.2 0 0 0-38 23.6l-1.2 1.9v2.4c0.4 8.8 2.8 13.6 10.7 21.7 3.5 3.5 3 3.3 7.7 4 9.1 1.2 15.8 1.7 25.2 1.7 7.4 0 7 0 7-1.2 0-3 5.4-10.5 11.5-15.8l1.2-1.1 0.1-5.7c0.2-11-0.7-17.1-3.4-23.8-1.2-2.8-1.3-3-4.1-4.5a30.5 30.5 0 0 0-16.7-3.2m79.2 1.5c-5.8 0.6-13.5 2.7-17.3 4.7l-0.8 0.4-0.6 4.3c-0.6 3.8-0.7 5.1-0.8 9.4l-0.1 5 0.6 3c0.4 1.5 0.6 3 0.5 3.3 0 0.4 0 0.5 0.8 1 6.5 4 9.8 11.8 9.8 23.3 0 0.7 0 1.3 0.2 1.3l4.1-0.6a187 187 0 0 1 24-1.7h6.3l0.8-1.2c3.6-4.4 6.6-10 9.7-18 1.9-4.8 2.2-5.8 2.1-6.5l0.1-1c0.3-0.6 0-1.5-0.5-2l-0.2-0.6c0.3-0.6-2.9-7.8-4.9-11-6.6-10.6-17.8-15-33.8-13.1m4.3 6.5c12.4 4.2 11.4 25.5-1.4 29.9-10.5 3.6-19-10.5-13.2-22.2 3-6.3 9.2-9.6 14.6-7.7m-74.8 0.5c10.8 3 11.3 23.7 0.7 30.1-13 8-22.7-13.4-11.9-26.3 1.5-1.8 5.6-4.2 6.3-3.8h0.4c0.6-0.5 2.6-0.5 4.5 0" fill="#fbfbfb"/><path d="m211.3 4.3a77.8 77.8 0 0 0-39.3 19.3 87 87 0 0 0-14.7 15.2s-2.4 3-3.4 4.5c-0.4 0.5-0.2 0.4 1-0.6 12.6-10.8 31.8-18 39.2-14.6 1.6 0.8 3.7 3 4.3 4.5 2 5.2-1.6 9.7-13 16.3-3.3 2-3.8 2.3-1.9 1.5 7-3.1 15.2-5.3 28.6-7.5a79 79 0 0 0 24.9-6.7c7.3-4 10.1-8.3 8.7-13.6-3.4-12.2-18.5-20.3-34.4-18.3m-73.7 17.6c-7.2 2.5-11.8 20.7-8.8 34.8l0.2 1.3v-2c0.2-9.6 4.4-16.4 8.5-13.3a12 12 0 0 1 4.7 7.7v1.5l0.2-1c2-16.6 2-22.3-0.1-26.5-1.2-2.4-2.7-3.2-4.7-2.5m44.6 38.1c-2.3 0.2-5.4 0.8-7.5 1.5-2 0.6-2.6 1-0.9 0.6 7.5-2 16-1.3 21.5 1.9 5.2 3 8.6 10.7 6 13.5-2 2.3-7 2-16.4-0.6-2.4-0.7-5.3-1.2-5-0.8l3.3 2c9.7 6 13.4 7.5 23.4 9.3 18.1 3.3 23.7 1.6 21.5-6.4-3.5-13-24.8-22.8-45.9-21m55.8 33.7-0.6 0.6 0.6-0.5 0.6-0.7-0.6 0.6m-73 13.8h1l-0.5-0.1h-0.4m9 14.1h1.2-1.1m111 4.8 0.6 0.7 0.6 0.5-0.6-0.6c-0.5-0.6-0.7-0.7-0.7-0.6m-223 7.9-0.8 0.9 1.8-1.8-1 0.9m18.9 3.5c-6.5 1.3-12.1 9.5-10.1 14.7 2 5.3 9.2 5.1 14.6-0.3 7-7 4-16.2-4.5-14.4m137.5 20.1h0.9-0.9m-3.2 0.2h0.7-0.7m24 21.1v0.7-1.5 0.8m-119-0.2h1.9-1.9m66.5 1.4v0.4-1 0.6m52.5 5.8v2.2a99 99 0 0 0 0-2.2m43.5-2.5h2-2.1m-121 0.2h0.7-0.7m115.4 0h1.6-1.6m-112.8 0.2h1-1m3.6 0.2h1.6-1.6m14.5 0h0.7-0.7m80.7 0h1.5-1.5m-3.6 0.2h0.9-0.9m-2.7 0.2h0.8-0.8m-2.3 0.2h0.7-0.7m-11.7 5.8c0 0.7 0 0.9 0.1 0.6v-1.2 0.6m71 0.4v0.4-1 0.6m-169.3 2.8 1 1-0.8-1-1-1 0.8 1m4.8 4.6 0.8 0.7-0.6-0.7-0.8-0.7s0.2 0.4 0.6 0.7m-4.7 0.4 0.6 0.6 0.7 0.6-0.6-0.6c-0.5-0.6-0.7-0.8-0.7-0.6m96.7 2.4h0.7-0.7m-28 0.4h0.6l-0.3-0.1h-0.4m2.5 0.3h0.7l-0.4-0.1h-0.3m2.8 0.3h1-1m11.5 0h1-1m9.7 2.9h0.9-0.9m-27.3 0.2h0.7-0.7m2.2 0.2h0.7-0.7m2.7 0.2h1-1m13.9 0h0.7-0.7m24.2 10.2-0.5 0.7 0.6-0.6c0.6-0.5 0.7-0.7 0.6-0.7l-0.7 0.7m-5.4 0.4-0.6 0.6 0.6-0.6c0.6-0.5 0.8-0.7 0.6-0.7l-0.6 0.7m-40.3 12.3h0.7-0.7m2.5 0.2h1-1m8.1 0h0.8-0.8m-18.2 14.5c-7 0.5-11.5 1.2-21.2 3.4-9.8 2.2-22.8 5.8-27.8 7.7-1.6 0.7 4.1-5.2 6.1-6.2 0.8-0.4 1.2-1 1-1.4-0.4-0.4-8.7 0.5-12.6 1.4-7.3 1.7-15.9 6.2-23 12-1.5 1.2-1.6 1 1.4 2.1l7.6 2.8a408.9 408.9 0 0 0 16.8 6c16.4 5.9 42.8 8.6 58.2 6 7.5-1.2 16-3.6 22.6-6.3 3.6-1.4 12.5-5.3 15.1-6.5l2.2-1-2.3-1.7a32 32 0 0 0-17-5.7l-2-0.2 1.5-0.5c2.3-0.7 5.2-1.3 8.3-1.5 4.3-0.4 4.5-0.8 0.7-3.2-8-5-23.5-8.1-35.6-7.2" fill="#8b550b"/><path d="m170.2 58.3-1.2 1.3 1.2-1.2c1.2-1 1.4-1.3 1.2-1.3l-1.2 1.2m-30 6.8c0 0.4 0.1 0.6 0.2 0.4v-0.7c-0.1-0.2-0.1 0-0.1 0.3m79 28h2c0.4-0.1 0-0.2-1-0.2s-1.4 0-1 0.1m-49 6.6h1.5-1.5m-4 10.2h0.6-0.7m-24.5 9.3-0.6 0.6 0.6-0.6 0.7-0.6c0-0.1-0.2 0-0.7 0.6m2 1.4-0.8 0.8 1.6-1.6c0-0.2-0.2 0-0.9 0.8m130.4 0.6 0.6 0.6 0.7 0.6-0.6-0.7c-0.5-0.6-0.7-0.7-0.7-0.5m-102 0.4h0.8-0.8m4.9 0h0.8-0.8m75.6 1.5h0.8l-0.5-0.1h-0.3m9.3 0h0.6-0.6m21.9 2.1 0.8 0.8-0.6-0.8-0.9-0.8 0.7 0.8m-2.7 5 0.5 0.3c0.4 0.2 0.4 0.2 0 0l-0.2-0.5h-0.2c-0.1 0-0.2 0-0.1 0.1m-53.2 12v0.4-0.7 0.4m-0.2 5v1.5a44.6 44.6 0 0 0 0-1.5m-28.2-0.3c0 0.4 0 0.5 0.1 0.3v-0.7 0.4m-71 1.6c0 0.7 0.1 1 0.1 0.6v-1.2 0.6m71 1.1c0 0.5 0 0.7 0.1 0.5v-1 0.5m-84.3 3.6 1.2 1.1-2.1-2.1 1 1m84.4 2v1.3a33.2 33.2 0 0 0 0-1.3m16.4-0.6h1.2-1.2m4 0h1.1-1.1m-97 21.1h0.9-0.8m-82 1.6c0 0.4 0 0.6 0.1 0.4v-0.7 0.3m-0.2 3.3v0.5-1.2 0.7m0.1 3.4c0 0.4 0 0.6 0.1 0.3v-0.8 0.5m272.2 1.2v0.3c0.1-0.2 0.1-0.6 0-0.8v0.5m0 9.2v0.5-1 0.5m-167.4 6.1 0.6 0.7 0.6 0.6-0.5-0.7-0.7-0.6m-85.2 22 0.8 0.6-1.3-1.3 0.5 0.7m2.2 2.1 0.7 0.7-0.5-0.7-0.8-0.7 0.6 0.7m234.6 3.7-1.5 1.6 1.6-1.6c1.5-1.4 1.7-1.6 1.5-1.6l-1.5 1.5m-87.1 4.2h0.7l-0.4-0.1h-0.3" fill="#917b5a"/><path transform="translate(-31.3,-76.7)" d="m220.3 104h1.2-1.2m7.4 2.7 0.8 0.7-0.6-0.7-0.7-0.6 0.5 0.6m-0.5 11.1-0.5 0.7 0.6-0.6 0.6-0.7-0.7 0.6m-66.6 11.5v0.3-0.6 0.3m-0.2 2v0.5-1 0.5m49.8 6.7h0.7-0.7m-38.8 6.2v0.7-1.4 0.7m61.9 7v0.6-1.3 0.7m-6.1 4.6h0.7-0.7m-57.3 18.6-1 1 1-1c1.1-1 1.3-1.2 1.1-1.2l-1 1.2m113.6 11.6h1.4c0.4 0 0.1-0.1-0.6-0.1h-0.8m-87.4 0.5h0.7l-0.3-0.1h-0.4m87.3 2.2h1.8-1.8m-76.2 0.5 1.4 0.7c0-0.2-1-0.7-1.3-0.7 0 0-0.1 0 0 0m68 1.4-0.2 0.3 0.7-0.3 0.3-0.3-0.7 0.3m-64.5 0.6a43.6 43.6 0 0 1 10.4 10.7c0 0.1 0 0.2 0.2 0l0.2 0.1c0 0.2 0 0.2 0.2 0.2 1.3 0-8-9.3-10.9-11-0.6-0.3-0.6-0.3 0 0m63 0.1-0.8 0.5s0.4 0 0.8-0.3l0.8-0.5-0.8 0.3m-93.6 1a40.7 40.7 0 0 0-10 10.4 48 48 0 0 1 10-10.5m38 2 1.7 1.6-1.5-1.6a20 20 0 0 0-1.6-1.5l1.5 1.5m51 0a14.5 14.5 0 0 0-3.2 3.2c-0.5 0.8-0.2 0.7 0.3-0.1 0.4-0.7 2-2 3.7-3.5l0.6-0.5-1.4 1m29.7-1 1.1 0.8 0.6 0.3c-0.6-0.5-1.7-1.2-1.7-1m3.3 2.3c3.8 3.3 10.8 11.2 9 10.1-0.2 0-0.2 0 0 0.2 0.1 0.2 0.3 0.3 0.4 0.3 0-0.1 0.2 0 0.3 0.2 0.9 1-0.3-0.7-1.5-2.4a53.5 53.5 0 0 0-8.2-8.4m-97.3 2.4h1.2-1.2m106.3 0.5 0.8 0.7-0.6-0.7-0.7-0.6 0.5 0.6m-46.2 0.8c-0.4 0.7-0.3 0.9 0 0.2l0.3-0.6-0.3 0.4m-80 4.1c-0.8 0.4-0.7 0.6 0.1 0.2 0.7-0.4 0.9-0.5 0.6-0.5l-0.7 0.3m-9.6 5.9-0.6 0.5 0.6-0.4 0.7-0.5c0-0.2-0.1-0.1-0.7 0.4m-10 1.5-0.8 1.6 0.9-1.6 0.7-1.6-0.9 1.6m-45 9.6v0.5-1.1 0.6m39 2.8c0 0.4 0 0.6 0.1 0.4v-0.7 0.3m71.2 5.1v0.4-0.7 0.3m-123.4 4.8h0.7-0.7m123.4 1.7v0.3-0.7 0.4m13.4 0.4a36.7 36.7 0 0 0-15.3 7.3c-4.6 3.5-11 11.6-11 14 0.1 1.8-1 3.8-2.2 4.2-3.3 1.1-23 0.2-35.3-1.6a333 333 0 0 0-19.3-2.5c-7-0.9-8.9-1-10.4-0.8-1.3 0.1-1.1 0.2 1 1 23 7 53.2 15 68.7 18a172.2 172.2 0 0 0 46.7 3h1.3l0.7-3.6a62 62 0 0 0-1.3-30.4c-3.5-7-13.1-10.5-23.6-8.6m-92.7 16.7h1-1m162.9 4.7h1l-0.6-0.1h-0.4m-1.2 4-9 0.2c-14 0.4-21.2 1-28.9 2.2l-1.2 0.2v1.2a58.4 58.4 0 0 1-1.7 13.4c0.3 0.3 8.4-1 12.5-2.1 11.5-3 30.9-11.4 35.1-15.2a37 37 0 0 0-6.8 0m31.6 2.7v0.3c0.1-0.2 0.1-0.6 0-0.8v0.5m-171 5.3a144.3 144.3 0 0 0 17.2 15.4l2.5 1.9c19 14 36.2 20 55.5 19.6a48.6 48.6 0 0 0 41.7-24.6l2.1-3.4-1.4 0.5a71.1 71.1 0 0 1-23.3 3.9 97 97 0 0 1-20.3 0.6 325.8 325.8 0 0 1-66.6-13l-8-2.1c-0.5-0.2-0.5-0.1 0.6 1.2m170.9 0.7v0.6-1.2 0.6m-112.5 51h0.8l-0.5-0.1h-0.3m11 0c0.2 0.1 0.5 0.1 0.8 0h-0.9m-13.4 0.3h0.7l-0.3-0.1h-0.4m-40.5 3.2h0.9l-0.5-0.1h-0.4m80.2 7.1h1-1m-2.2 0.2h0.7-0.7m-7.4 2h1c0.4 0 0.1-0.1-0.5-0.1h-0.5" fill="#ffa833"/></g><path transform="translate(-31.3,-76.7)" d="m197.3 186.5c-1.1 0-2.3 0-3.4 0.2a36 36 0 0 0-23 15.8 45 45 0 0 0-8.3 19l-0.1 1.3 0.5-0.8a22 22 0 0 1 2.1-2.7c1.6-2 5-5.4 7.1-7.2 16-13.4 34.9-17.6 48.3-10.8l1.4 0.7-1-1.3c-6.6-8.7-15.4-14-23.6-14.2zm87.7 2.1c-1.3 0-2.6 0-3.9 0.3a28 28 0 0 0-14.3 8.2c-1 1.4-3 6.3-3 7.2 0 0 0.8-0.1 1.6-0.5 16-6.7 35-6 46 1.8l1 0.7-0.7-1c-6.8-9.9-17.5-16.4-26.7-16.7z" fill="#d6b078"/></g></svg>
