<?xml version="1.0" encoding="UTF-8"?>
<!-- Created with Vectornator (http://vectornator.io/) -->
<svg clip-rule="evenodd" stroke-linecap="round" stroke-linejoin="round" stroke-miterlimit="10" version="1.1" viewBox="0 0 2048 2048" xml:space="preserve" xmlns="http://www.w3.org/2000/svg" xmlns:xlink="http://www.w3.org/1999/xlink">

<clipPath id="ArtboardFrame">
<rect width="2048" height="2048"/>
</clipPath>

<g transform="matrix(.84302 0 0 .84302 120.62 283.42)" clip-rule="evenodd" stroke-linecap="round" stroke-linejoin="round" stroke-miterlimit="10"><g transform="matrix(3.8767 0 0 3.8767 389.63 390)" fill-rule="evenodd"><path d="m222.4 25.8a29.1 29.1 0 0 0-21 15.8 34.9 34.9 0 0 0-1.2 24.4c1.7 4.4 1.9 7.2 0.6 8.7-1.2 1.3-1.5 1.4-6.8 1-11-0.5-23.3 0.2-34.3 2a109.4 109.4 0 0 0-28.7 7.3c-3.6 1.7-5.1 0.4-6.5-5.7a73 73 0 0 0-2.2-8.4c-7.7-21.7-29-28.6-43-14a23.8 23.8 0 0 0-3.8 29.5 39 39 0 0 0 13.7 13.3c5.8 2.5 5.8 3.6-0.2 8.7-6 5.2-14.5 13.9-17.8 18.3a496 496 0 0 0-17.5 27.3 320.6 320.6 0 0 0-15.1 28.6 163 163 0 0 0-13.7 63.2c0.8 43.3 19.9 73 59.4 92.4a319.4 319.4 0 0 0 18.1 8 211 211 0 0 0 25 7.8c34 8 77.2 9.8 112.2 4.7a194.3 194.3 0 0 0 65.4-21.2c26.4-14.2 43.5-31.3 52.7-52.6l0.8-1.9c7-16 11.3-40.7 10-58a116.4 116.4 0 0 0-15-47.7 323 323 0 0 0-23-34.2c-6.4-8-18.9-21-27.5-28.5-7.9-7-16.5-13-29.5-20.5a92.8 92.8 0 0 0-30.1-12.7c-10-2.7-11.4-5.2-5.5-10 12-9.4 16-21.8 10.4-33a23.5 23.5 0 0 0-26-12.5m5.7 12.8a15.2 15.2 0 0 1 11.7 14.6c0 15.7-21.6 20.3-28.5 6-5.4-11.3 4.3-23.3 16.8-20.6m-123 27.9c12.7 1.3 17.2 14.2 7.5 22-8.2 6.6-21.2 5-25.2-3.2-4-8.1 3-17.6 13.9-18.8l1.7-0.2 2 0.2m207 76.2c10 2.5 19.7 14.6 14 17.5-1.8 1-6.5-0.6-13.6-4.7-3-1.7-4.3-2.2-6-2.6-1.2-0.3-1.4-0.3-4.8 0.1-6 0.8-8.9-3.7-4.2-6.8 5.4-3.7 10-4.8 14.7-3.5m-236.6 3c4.9 0.7 8.5 3.2 9.3 6.4 0.9 3.3-2.5 5.9-6.8 5.1-5.6-1-10.1 0-14.7 3-3.8 2.4-5.8 2.6-8 0.7-1.8-1.5-1.5-4.3 1-8.4 3-5 11.7-8 19.2-6.9m113.5 24.4a91 91 0 0 1 31.3 7 95.1 95.1 0 0 1 45.1 42c1.5 3 1.8 3.3 1.8 2.2a44 44 0 0 1 3-11c12.5-28.2 51-35 72.4-12.9 24.3 25.2 8 66.2-28 70.4a44.4 44.4 0 0 1-41.7-19.9 56 56 0 0 1-22.6 41.8c-33 26.4-94 27-127 1.2a73.2 73.2 0 0 1-22.3-28.4c-0.3-0.8-0.2-0.8-2 0.7a44.4 44.4 0 0 1-43.5 6.4 39.4 39.4 0 0 1-24.9-37c0-17.1 10.1-32 26.6-39.5 18-8.1 40.7-2 51.4 13.9 0.8 1.2 0.8 1.2 1.6 0a91.1 91.1 0 0 1 46.4-32.7c5-1.9 15.3-4 20.6-4.2 3-0.2 8.2-0.2 11.8 0m-5.9 6.9h1.2-1.2m60.3 24.9 1.6 1.5-1.4-1.5-1.7-1.6 1.5 1.6m-21 23.4 1 0.8-0.7-0.8-0.9-0.8s0.2 0.4 0.7 0.8m28.7 54-1.2 1.2 1.2-1.2a20 20 0 0 0 1.2-1.2c0-0.2-0.1 0-1.2 1.1m-130.3 0.2 0.9 0.8-0.7-0.8-0.9-0.8 0.7 0.8" fill="#5bd33b"/><path d="m307.5 191.6c-30.3 2.5-44.6 38-23.6 58.7a37.6 37.6 0 0 0 59.1-9.6c12.1-24.3-7.5-51.4-35.5-49m-237.3 5.3a37.2 37.2 0 0 0-30.2 23.1c-3.6 8.1-3 19.8 1.6 28.1 10.4 19.6 39.4 23.1 55.4 6.8l1-1-0.4-2.1c-2-11 0-23 6-34.7l1-2.1-0.5-1a33.6 33.6 0 0 0-34-17m254.6 21.2c9.5 2.6 10.8 14.5 1.9 17-5.7 1.7-12.1-2.3-13-8.1-1-5.9 5-10.6 11.1-9m-265.1 4c5 2.4 5.7 9.4 1.5 14-5 5.6-13.2 2.4-13.2-5.1 0-6.4 6.5-11.4 11.7-9" fill="#fbfbfb"/><path d="m222.7 18.2a32.2 32.2 0 0 0-10 2.8 13.9 13.9 0 0 0-3.3 1.7 39.7 39.7 0 0 0-13.2 12.7 24.6 24.6 0 0 0-2.5 4.8 43.4 43.4 0 0 0-0.7 28h-7.5c-11.3 0-19.2 0.8-31.1 2.9l-4.9 0.9c-4.2 0.7-10.4 2.2-14.8 3.5-3.5 1-3.2 1-3.5-0.3a57.2 57.2 0 0 0-8.2-19.2l-1.2-1.4a33.7 33.7 0 0 0-18-11.7 30.1 30.1 0 0 0-22.4 3 37.6 37.6 0 0 0-15.5 19.6 31.8 31.8 0 0 0 4.9 27.5c0 0.1 0 0.3 0.2 0.3l0.8 1a62.6 62.6 0 0 0 8.6 8.6l1.9 1.5-2.9 2.9a191.4 191.4 0 0 0-15.5 17.7 332.1 332.1 0 0 0-26.9 43.8 7.8 7.8 0 0 1-1 1.6l-1.4 3.3a106.6 106.6 0 0 0-6 13.8l-0.5 1.4a190.5 190.5 0 0 0-8.8 33.4 134.7 134.7 0 0 0 5.6 65l0.4 1.1 0.4 1 0.3 0.5c0.1 0.5 0.2 0.9 1.1 2.8l0.5 1.3 0.2 0.2a17.8 17.8 0 0 0 2.2 4.3c0.7 1.3 1.2 2.3 1.4 2.4l1 1.9 0.4 0.4 0.1 0.3c0 0.2 0.1 0.3 0.2 0.3l0.2 0.2a66.8 66.8 0 0 0 6 8.5 131.3 131.3 0 0 0 24.7 22.7c0.1 0 0.3 0 0.3 0.2l0.1 0.1 1.9 1.1a11.5 11.5 0 0 0 2 1.2l0.5 0.4 1.9 1c0.1 0.2 0.8 0.6 1.7 1l0.6 0.4 1 0.5 0.8 0.5 1.8 1 2 1s0.2 0.2 0.5 0.2l0.6 0.3a50.1 50.1 0 0 0 7.4 3.6l0.6 0.2 0.6 0.4 0.2 0.1 2.6 1c0.6 0.4 1.2 0.6 1.3 0.6 0 0 0.2 0 0.2 0.2l0.5 0.3c0.3 0 0.9 0.3 1.3 0.5l2.4 1 1.1 0.4a5 5 0 0 0 1.4 0.5l0.4 0.2 1.1 0.5 1.4 0.5a181.2 181.2 0 0 1 4.8 1.7c31.8 11.1 80.2 15.7 122 11.6a335.3 335.3 0 0 0 28-4.4 206.8 206.8 0 0 0 37.1-12c0-0.1 0.1-0.2 0.3-0.2l1-0.4c1.6-0.8 2.6-1.2 2.8-1.2 0.1 0 0.2 0 0.2-0.2l0.2-0.2 1.7-0.7 1.6-0.6 0.2-0.2 1.2-0.6a17 17 0 0 1 3.2-1.5 54.7 54.7 0 0 0 5.4-3 129.6 129.6 0 0 0 8.3-5 145 145 0 0 0 27-22.4l1.6-1.9a92.7 92.7 0 0 0 16.1-26.1 14.6 14.6 0 0 0 1-2.3l0.6-1.5a8 8 0 0 1 0.5-1.3l0.6-1.5 0.7-2a172.6 172.6 0 0 0 5.6-21.9l1.3-8.8a115 115 0 0 0-16.3-76 475.9 475.9 0 0 0-22.6-33.3 111.6 111.6 0 0 0-37.8-37 154.7 154.7 0 0 0-21.6-13.6l-8-4.4c-8.6-4.7-12-6-21.3-8.5-1.5-0.4-1.7-0.5-1.4-0.7l4.3-4.7a48.8 48.8 0 0 0 5.7-9.5l0.2-0.7c0.5-0.5 1.4-4.7 1.6-6.7a33.8 33.8 0 0 0-3.8-18.9 32.4 32.4 0 0 0-15.5-13.5 37.1 37.1 0 0 0-16-1.7m8.3 7.3a23.5 23.5 0 0 1 18.3 31.7c-2 5-6.4 10.4-11.6 14.5-6 4.9-4 7 9.8 10.5a93 93 0 0 1 27.3 12.4 181.5 181.5 0 0 1 48 39.3 243.5 243.5 0 0 1 28.5 39.3c18.5 30.7 22.2 60 12.2 95.8a101 101 0 0 1-45.1 60.6c-39 25.8-89 36-150.4 30.7-34-2.9-58.4-9.4-84.8-22.6-39.5-19.8-58.4-50.2-58.5-94 0-8.2 0.3-11.4 1.6-19.4 4.3-26 12.4-46.3 29.8-74.8a364 364 0 0 1 18.5-27.2c2-2.5 11-11.2 14.7-14.3 4.2-3.6 4.6-4.3 3.7-6-0.2-0.4-2.7-1.8-3.8-2.2-5-1.6-13-10.5-15.7-17.2-7.2-18.3 11.3-38.6 29.6-32.4 11.2 3.7 17.9 12.6 21.4 28.4 1.2 5.2 1.7 6.1 3.4 6.7 1 0.4 1.4 0.3 3-0.5 5-2.4 12.7-4.4 26.3-6.8 13.1-2.2 22.1-2.8 38.4-2.4h4l0.7-0.6c1.7-1.7 1.7-2.9-0.3-9-7.1-22.2 9.3-43.7 31-40.5m74.3 117.2c-3.9 0.8-9.1 3.7-10 5.5-1.5 3.2 1.4 5.3 6.7 4.7 4.3-0.4 5.1-0.2 11 3 9.9 5.5 14.5 6 14.4 1.4-0.2-7.4-14-16.5-22.1-14.6m-237.5 3.2c-7.6 1.4-12.8 5.9-13.7 11.7-0.3 1.7 0 2.2 1.1 3.2 2.1 2 4 1.7 8.4-1.2 4.3-2.7 8.4-3.4 14-2.6 8 1.3 9.8-6.2 2.4-9.7a22 22 0 0 0-12.2-1.4m107.8 24.2a101 101 0 0 0-23.2 5.5 90.7 90.7 0 0 0-42 31c-1.3 1.8-1 1.9-2.6-0.3a41.7 41.7 0 0 0-39.7-16.3c-27.4 4.2-44.5 32-35 56.8 10 25.9 43 33.9 65.8 16l1.6-1.3 0.6 1.3c8.8 21 30 37.6 56 43.5 47.8 11 96.7-6.5 111-39.6a51.1 51.1 0 0 0 4.2-18.1c0-1.8 0-1.8 1.1 0 14.2 22.8 49.6 25.7 68.7 5.5 25.7-27 6.4-69.8-31.6-69.7-21.6 0-39.7 15-43.2 35.6l-0.4 2.6-1.3-2.4a91.3 91.3 0 0 0-90-50m17.5 7a84 84 0 0 1 55 29.4c19 22.3 22.4 45.4 9.4 65-23.7 35.5-96.1 42-132.1 11.9-26.2-22-28.4-51.6-5.4-77.6a84.7 84.7 0 0 1 16.5-14.2 86 86 0 0 1 56.6-14.6m123.1 14.4a34.2 34.2 0 0 1 24.8 52.8c-15.4 23-51.5 21.4-63.6-2.9-12.7-25.2 9.6-54 38.8-49.9m-234.6 5.6c9.8 2.1 18 8 22.8 16.7l0.5 1-1.6 3.4a54.3 54.3 0 0 0-5.3 34.2l0.3 1.4-1.3 1.2c-7 7-18.7 11.3-28.8 10.2a33.2 33.2 0 0 1-23.5-54 37.7 37.7 0 0 1 36.9-14m238.7 20.8c-6.4 1.2-8.7 8.8-4 13.8 4.8 5.1 12.9 4.5 15.6-1.2 3-6.5-4-14.1-11.6-12.6m-174 0.6c-14.6 3.3-18.7 31.1-6.3 43 9.8 9.3 23.2 1.2 25.2-15.4 1.5-12-4.5-25.5-12-26.9-0.4 0-1.2-0.3-1.8-0.5a9.6 9.6 0 0 0-5-0.2m61.4 1.6c-14 2.5-20 23.4-10.2 36.5 9 12.2 25.5 8.8 30.3-6.2 5.1-16-6-32.7-20-30.3m-152.6 1.4c-7.9 1.7-9.8 13.2-2.8 16.4 5.5 2.5 12.2-3.6 11.2-10.2-0.7-4.4-4.4-7.1-8.4-6.2" fill="#040504"/><path d="m178.6 177a92.5 92.5 0 0 0-38 12.5 84.2 84.2 0 0 0-17.8 13.8c-26 26.7-24.5 58.4 3.9 81.1 21.4 17.3 57.5 22.9 89.8 14 2.9-0.8 8.7-2.8 10.7-3.7 0.3 0 0.9-0.3 1.4-0.6 31.3-13.7 44-40.4 32.2-67.3a85.4 85.4 0 0 0-82.2-49.7m-26.6 41.8 1.9 0.6c4.5 1 9.6 8.4 11.1 15.7 4.2 20.4-10.5 37.7-23.7 27.8-11.2-8.4-11.7-32-0.8-41.1 3.5-3 8.2-4.3 11.5-3m62.6 1.6c11.6 3 18 18.7 13 31.6-6.1 16-24.8 16.6-32.3 1.2-8-16.7 3.8-36.9 19.3-32.8" fill="#9bdb4b"/><path d="m226.3 25.3h1.4-1.4m-20.6 9.5-0.5 0.6 0.6-0.5 0.6-0.7-0.7 0.6m17 3.5a14.7 14.7 0 0 0-7.5 26c9.7 8.1 24.5 1.4 24.5-11 0-9-8-16-17-15m-24.2 14.5v0.4c0.1-0.3 0.1-0.6 0-0.8v0.4m-119 3.7-1 1.2 1.1-1.2c1.2-1 1.3-1.2 1.2-1.2l-1.2 1.2m34.4 0.5 1 1-0.8-1-1.1-1s0.3 0.5 0.9 1m-13 9.6c-18.4 2-20.3 24-2.2 26 14.7 1.7 25-14.5 14.5-22.7-2.6-2-8.3-4-10.5-3.5l-1.7 0.2m134.5 6.7-0.7 0.8 1.6-1.6-0.9 0.8m-57.6 2.4h0.7-0.7m14.6 0h0.7-0.7m3.3 0.2h0.7-0.7m-67.3 9.8h0.6l-0.3-0.1h-0.3m-47.7 7.9 1.7 1.6-1.5-1.6-1.8-1.7 1.6 1.7m3.7 18.8-1.1 1 1.1-1c1-1 1.2-1.2 1-1.2l-1 1.2m-4.8 4.5-2 2 2-1.9m226.3 0.4 0.7 0.7-0.6-0.7-0.7-0.7 0.6 0.7m3.5 3.3 1.3 1.3-1.1-1.3-1.4-1.3 1.2 1.3m-233.1-0.2-0.6 0.6 0.6-0.6c0.6-0.5 0.7-0.7 0.6-0.7l-0.6 0.7m-4 4.5-0.5 0.6 0.6-0.6c0.6-0.5 0.7-0.7 0.6-0.7l-0.7 0.7m243 1.5 1.4 1.5 1.6 1.5-1.5-1.5-1.6-1.5m5.5 5.7 0.8 0.7-0.6-0.7-0.8-0.7s0.2 0.4 0.6 0.7m1.6 1.8 1.2 1.2-0.5-0.7-0.7-0.6m-15 8.5h1.4-1.4m-237.5 3.3h1-1m3.2 0h0.9-0.9m226.4 7.7h0.8l-0.4-0.1h-0.4m-118.2 23.8h0.8-0.8m3.8 0h1-1m122.9 7.4h0.6-0.6m-185.9 9.5-0.6 0.6 0.6-0.5 0.7-0.7c0-0.1-0.2 0-0.7 0.6m123.3 0 3 3-1.4-1.5-1.6-1.5m94.1 1 0.7 0.6 0.6 0.6-0.6-0.6c-0.5-0.6-0.7-0.8-0.7-0.6m-221.3 2.7-1.8 1.8 1.8-1.7c1.7-1.7 2-1.9 1.8-1.9l-1.8 1.8m131.5 0.6 1.4 1.3-1.2-1.3-1.4-1.2 1.2 1.2m-9.2 1 0.7 0.6 0.6 0.6-0.6-0.6c-0.5-0.6-0.7-0.8-0.7-0.6m-117 3.3-2 2 2-2m-79.5-0.9-0.6 0.7 0.7-0.6 0.7-0.8-0.8 0.7m-2.2 2.3-0.6 0.6 0.6-0.6 0.7-0.6c0-0.2-0.2 0-0.7 0.6m106.7 14.7h0.9-0.9m220 7.5v0.3-0.7 0.4m-14.8 3v0.2-0.6 0.3m15 3.5v0.9-1.7 0.8m-338.5 0.2c0 1 0 1.3 0.1 0.8v-1.6 0.8m-5.5 4.6v0.3-0.7 0.4m343.7 1.3v0.3-0.7 0.4m-176 2.3c0 0.4 0 0.5 0.1 0.4v-0.7 0.3m-60.2 1.3v1-1.8 0.8m-107.8 1v1a23.8 23.8 0 0 0 0-1m79.5 0.3v1.3a30.5 30.5 0 0 0 0-1.3m88.4-0.6c0 0.3 0 0.5 0.1 0.3v-0.7 0.4m-167.8 7v0.4-0.8 0.4m247.4 0c0 0.4 0 0.5 0.1 0.3v-0.6 0.3m70.3 4-0.6 0.6 0.6-0.6c0.6-0.5 0.7-0.7 0.6-0.7l-0.6 0.7m-2 2-0.8 0.8 1-0.8 0.7-1-1 1m-61 0.5 1.4 1.2-0.6-0.6-0.7-0.6m-80.3 3 1.2 1-2.1-2.1c-0.1 0 0.3 0.5 1 1m23.2 0.3-1.1 1.1 1.1-1 1.1-1.1c0-0.2-0.2 0-1.2 1m-180.6 1.1c0.6 0.7 1.2 1.2 1.3 1.2l-1.1-1.2-1.3-1.1 1.1 1.1m77.3 17 0.9 0.8-0.7-0.8-0.8-0.7 0.6 0.7m2.9 2.8 0.6 0.7 0.6 0.5-0.5-0.6-0.7-0.6m135 2.8-1 1 1-1 1.1-1c0-0.2-0.2 0-1 1m-2.5 2.3-0.8 1 1-1c0.5-0.4 0.8-0.8 0.7-0.8l-1 0.8m-76.2 16.9h0.7l-0.4-0.1h-0.3m0.2 7.4h0.7-0.7m13 0h0.6-0.6m-7 0.2h2-2m155.7 1.2-0.7 0.7 0.8-0.7 0.7-0.7c0-0.1-0.2 0-0.8 0.7m-291.2 1.6 1 1s0-0.2-1-1l-0.9-0.9 1 1m285.6 3.8-0.6 0.7 0.6-0.6c0.6-0.5 0.7-0.7 0.6-0.7l-0.6 0.6m-280 1.8 0.9 1c0.1 0 0-0.2-0.9-1l-0.9-1 0.9 1m123.7 42.7h0.6l-0.3-0.1h-0.3m37 0c0.3 0.1 0.6 0.1 0.8 0h-0.7m-33.7 0.3h0.8l-0.5-0.1h-0.3m29.9 0c0.2 0.1 0.6 0.1 0.8 0h-0.8m-25.5 0.3h1c0.3 0 0.1-0.1-0.5-0.1h-0.5m20 0h1.3-1.3" fill="#3c842b"/><path d="m308.3 191.5h0.6-0.6m-234.8 5.3h1.8-1.9m-25.4 11c-0.8 0.7-1.4 1.4-1.3 1.4l2.9-2.9-1.6 1.4m273.8 10.3h1.3-1.3m-271 6.2-0.7 0.8 0.8-0.8c0.8-0.7 1-0.9 0.8-0.9l-0.8 0.9m223 0.7v0.3-0.6 0.3m58.8 2.8v0.5-1 0.5m-58.8 0.8v0.4c0.1-0.3 0.1-0.6 0-0.8v0.4m-236.3 4.2v0.8-1.6 0.8m59.3 10.8c0 1 0 1.5 0.1 1v-2 1m239.4 6.5-1.3 1.4 1.4-1.4c1.3-1.3 1.5-1.5 1.3-1.5l-1.4 1.5m-239.3 5-0.8 1 1-1 0.7-0.8-1 0.9m-50 0.7 0.8 0.7-0.6-0.7-0.9-0.8 0.7 0.8" fill="#a6a6a6"/><path d="m98.2 206.1 0.7 0.7 0.6 0.5-0.6-0.6c-0.5-0.6-0.7-0.7-0.7-0.6m248.5 19.6c0 0.4 0 0.6 0.1 0.3v-0.8 0.5" fill="#878787"/><path d="m228.6 25.3h0.6-0.6m15.3 6.8 1 0.9-1.8-1.8 0.8 0.9m7 17.1v1-2 1m-156.3 0h1l-0.6-0.2h-0.4m2 0h1-1.1m101.8 6.6v0.7-1.5 0.8m42.8 12.9-1.7 1.8 1.8-1.7c1.6-1.7 1.9-1.9 1.7-1.9l-1.8 1.8m-169.1 4c0 0.4 0 0.6 0.1 0.4v-0.9 0.5m0 2.8v0.3-0.7 0.4m108.6 0.2h1.6-1.6m8.9 0h1.5-1.5m-12.8 0.2h0.8-0.8m17.2 0h0.9-0.9m3.4 0.2h1-1m-111 34.7-0.7 0.6 0.7-0.5 0.6-0.7s-0.4 0.2-0.7 0.6m-3.4 3.2-1 1.1 1-1c1.1-1 1.3-1.2 1.1-1.2l-1 1.1m224.6 4.8 0.9 0.7-1.5-1.5 0.6 0.8m-230.3 0.8-0.5 0.6 0.6-0.6c0.6-0.5 0.7-0.7 0.6-0.7l-0.7 0.7m241.9 10.9 1.1 1s-0.3-0.5-0.9-1l-1-1 0.8 1m2.5 2.6 1.2 1.2-0.5-0.7c-0.6-0.5-0.7-0.7-0.7-0.5m2 2.1 0.6 0.7 0.6 0.5-0.6-0.6c-0.5-0.6-0.7-0.7-0.7-0.6m-252 10.6h1-1m-0.6 11.4h0.8l-0.4-0.1h-0.4m2.8 0c0.4 0.1 1.2 0.1 1.6 0h-1.6m250.3 3.6h0.7l-0.4-0.1h-0.3m-149 9.9h1l-0.5-0.1h-0.5m13.2 0h1.5-1.5m-1.2 6.7h0.7-0.7m122.8 7.4h2-2m0.5 7h1-1m-65.9 1.7 0.7 0.7 0.6 0.5-0.6-0.6c-0.5-0.6-0.7-0.7-0.7-0.6m-123.5 2-0.7 0.8 0.7-0.7c0.7-0.6 0.9-0.8 0.7-0.8l-0.7 0.8m220.9 1.9 1.2 1-1-1-1.2-1.1 1 1m-62.9 0.5-1.3 1.3 1.4-1.2c1.2-1.2 1.4-1.4 1.2-1.4l-1.3 1.3m-163 2.6-0.7 0.7 0.8-0.7c0.6-0.6 0.8-0.8 0.6-0.8l-0.7 0.8m-12.4 1.6 1.7 1.5-1.5-1.5a20 20 0 0 0-1.6-1.6l1.4 1.6m-55.6 6-0.6 0.7 0.7-0.7c0.7-0.6 0.8-0.8 0.7-0.8l-0.8 0.8m91.5 15.2-0.8 0.8 1-0.8 0.7-1-1 1m19 0 0.8 0.6-0.6-0.6-0.8-0.7 0.6 0.7m195.4 1v0.6-1.1 0.5m0 3.6v0.5-1 0.5m15 1.8v1-1.8 0.8m0 6.2v0.7-1.5 0.8m-344 0.4c0 0.5 0.1 0.6 0.1 0.4v-0.8 0.4m-0.2 3.8v0.7-1.3 0.6m343.9 0v0.4-0.7 0.3m-203.1 2.7v1-2 1m63.7 0.5v0.7-1.5 0.8m-204.5 4v1-1.8 0.9m240.6-0.3v0.6-1.4 0.8m7 1.7c0 1 0 1 0.2-0.3v-0.7c-0.2 0-0.2 0.4-0.2 1m64.1 1.7-0.6 0.7 0.7-0.6c0.6-0.5 0.7-0.7 0.5-0.7l-0.6 0.6m-311.4 1.3v0.3-0.8 0.5m253.6 3.9 1.2 1-2.1-2.1c-0.1 0 0.3 0.5 1 1m-139.2 6.3c0.9 0.8 1 1 1 0.8l-0.9-0.9-1-0.9 1 1m9.2 4.4h1c0.4 0 0.1-0.1-0.5-0.1h-0.5m158.7 2.2h1.1-1.1m3.8 0h1-1m-242.3 4.7h1.2-1.2m3.1 0h1.4-1.4m109 30h1.2-1.2m7.2 0h1.3-1.2m-11.7 7h0.8c0.2-0.1 0-0.2-0.4-0.2-0.5 0-0.6 0-0.4 0.1m16.7 0h0.7-0.7m-13.2 0.2h1.2-1.2m9.4 0h1.3-1.3m148 4.3-2.2 2.3 2.3-2.2m-166 46.6h0.7l-0.3-0.1h-0.4m50.2 0h0.7-0.7m-47.5 0.3h0.7l-0.4-0.1h-0.3m2.9 0.3h0.8l-0.5-0.1h-0.3m39.5 0h0.7-0.7m-36.4 0.3h0.9l-0.4-0.1h-0.5m33 0h1-1m-29 0.3h1.1l-0.6-0.1h-0.6m24.4 0h1.4-1.4" fill="#2c6c20"/><path d="m336.7 201.9 0.8 0.6-1.3-1.3 0.5 0.7m-52.8 0.5-1 1 1-1c1-0.9 1.2-1 1-1l-1 1m62.8 22c0 0.3 0 0.5 0.1 0.3v-0.8 0.4m0 2.8v0.3-0.8 0.5m-63.2 23.1c0.8 1 1 1 1 1l-1.9-1.9 0.9 1m24.6 10.6h0.8l-0.4-0.1h-0.4m2 0h1.2-1.4m-239.6 4.8h2l-1.1-0.1h-1" fill="#646464"/></g></g></svg>
