<?xml version="1.0" encoding="UTF-8"?>
<!-- Created with Vectornator (http://vectornator.io/) -->
<svg clip-rule="evenodd" stroke-linecap="round" stroke-linejoin="round" stroke-miterlimit="10" version="1.1" viewBox="0 0 2048 2048" xml:space="preserve" xmlns="http://www.w3.org/2000/svg" xmlns:xlink="http://www.w3.org/1999/xlink">

<clipPath id="ArtboardFrame">
<rect width="2048" height="2048"/>
</clipPath>

<g transform="matrix(4.0799 0 0 4.0799 145.16 657.53)"><g fill-rule="evenodd"><path d="m277.56 0.15c-9.12 0.66-17.37 3.66-26.37 9.6a87.58 87.58 0 0 0-7.32 5.4c-0.21 0.23-1.07 0.96-1.9 1.63a50 50 0 0 0-2.06 1.74c-0.3 0.3-1.43 1.33-2.48 2.3-6.54 6-12.6 12.96-17.33 19.94-0.5 0.74-1.7 2.45-2.67 3.79-3.81 5.3-4.44 6.17-4.96 6.95l-0.54 0.81-2 0.13c-4.86 0.32-12.7 1.72-18.2 3.26-2.3 0.64-9.9 3.01-10.56 3.29-0.21 0.1-1.22 0.45-2.24 0.8-1.02 0.34-2.12 0.74-2.44 0.88l-2.74 1.13c-5.63 2.28-13.52 6.12-15.55 7.57a64.01 64.01 0 0 0-4.75 3.06c-0.75 0.51-1.46 0.96-1.57 1-0.32 0.14-4.86 3.55-5.18 3.91-0.16 0.18-1.17 1.02-2.24 1.87a48 48 0 0 0-2.46 2.05 151.34 151.34 0 0 0-13.32 13.37c-0.52 0.63-1.15 1.37-1.41 1.63-5.26 5.26-12.88 19.37-16.16 29.93-2.38 7.65-3.6 13.23-5.23 23.83-0.8 5.2-1.15 14.06-0.8 20.1 0.11 2.09 0.18 3.82 0.15 3.86-0.03 0.03-0.63-0.73-1.32-1.7-2.14-3-6.08-8.22-6.62-8.76a34.1 34.1 0 0 1-1.67-1.98 74.75 74.75 0 0 0-9.86-9.95c-1.6-1.84-11.27-8.09-16.4-10.62-13.18-6.48-27.12-6.06-30.3 0.92-2.14 4.72 1.98 7.86 18.77 14.28 18.67 7.14 23.83 9.96 36.42 19.9 2.77 2.2 2.86 2.33 0.97 1.47-0.74-0.34-2.1-0.9-3.01-1.25l-2.05-0.78c-1.44-0.55-5.46-1.93-6.35-2.18-14.81-4.1-25.08-4.97-40.25-3.38-23.96 2.51-38.24 8.73-42.47 18.5-4.96 11.48 7.69 15.61 24.03 7.86 0.21-0.1 0.74-0.31 1.17-0.46a382.8 382.8 0 0 0 11.53-4.43c0.41-0.2 4.05-1.6 8.2-3.15 19.04-7.15 37.73-6.96 52.93 0.53a66.03 66.03 0 0 1 7.32 3.97c0.7 0.46 1.5 0.88 1.79 0.93 0.38 0.08 0.55 0.26 0.63 0.7 0.17 0.82 0.18 0.81-1.46 0.16-4.83-1.92-14.28-3.23-22.34-3.08-10.06 0.19-17.7 1.56-22.17 3.99l-1.8 0.96c-0.29 0.16-0.78 0.53-1.1 0.83a66 66 0 0 1-1.33 1.2c-5.26 4.57-4.99 11.98 0.5 13.6 2.2 0.64 9.3-0.08 10.65-1.08 0.11-0.08 0.65-0.31 1.18-0.51a64.63 64.63 0 0 0 6.35-2.93c8.95-4.45 15-6.06 23.54-6.28 4.02-0.1 9.93 0.27 10.25 0.66 0.07 0.08 0.5 1.2 0.96 2.5a60.92 60.92 0 0 0 6.4 12.54c0.46 0.67 0.85 1.29 0.85 1.37 0.04 0.58 7.7 9.74 9.36 11.18 0.67 0.6 1.53 1.36 1.9 1.71 2.18 2.08 9.29 7.02 15.1 10.5l4.05 2.44c14.81 8.93 31.45 14.14 54.54 17.07 7.48 0.94 23.57 1.21 31.94 0.52 9.6-0.78 19.57-2.13 25.97-3.5l3.62-0.78c8.16-1.75 17.52-4.32 20.4-5.6l2.74-1.17a76.54 76.54 0 0 0 7.53-3.72c0.48-0.3 1.58-0.96 2.46-1.46 1.6-0.92 9.4-6.7 10.13-7.5 0.21-0.24 1.1-1 1.95-1.68 1.9-1.53 7.47-7.07 9.52-9.47 1.59-1.87 7.18-9.15 7.18-9.35 0-0.06 0.51-0.84 1.14-1.73 0.62-0.89 1.39-2.04 1.7-2.56l0.77-1.28c6.2-10.2 9.06-19.42 10.74-34.68 1.35-12.22 0.47-26.48-2.36-38-0.83-3.4-3.28-11.58-3.6-12-0.07-0.11-0.2-0.42-0.27-0.69-2.12-7.56-9.9-20.86-16.85-28.82l-1.4-1.6 0.7-2.13c2.66-8.04-0.58-18.9-8.08-27-3.28-3.56-7.63-7.29-10.42-8.94l-1.95-1.18a56.59 56.59 0 0 0-8.1-4.06 8.01 8.01 0 0 0-1.18-0.4 2.8 2.8 0 0 1-0.78-0.3c-0.26-0.2-3.54-1.08-6.25-1.68-12.33-2.73-36.54-2.9-50.87-0.36-2.04 0.36-2.01 0.42-0.47-1.08a31.2 31.2 0 0 1 4.03-3.59c7.04-5.27 13.56-7.34 26.41-8.41 3.6-0.3 10.33-0.99 11.53-1.17 6.26-0.97 10.49-2.07 14.96-3.88 1.96-0.8 6.25-2.9 7.02-3.46 0.3-0.2 0.59-0.38 0.66-0.38 0.14 0 2.47-1.67 4.3-3.1 7.12-5.5 10.27-13.68 6.73-17.4l-0.95-1.08c-3.84-4.47-15.62-7.25-27.16-6.41m10.87 3.3c17.14 2.24 20.34 10.06 8.06 19.66-8.44 6.59-16.78 9.09-36.02 10.8-17.8 1.57-24.64 4.57-34.96 15.34-7.83 8.16-8.88 9.56-7.91 10.53 1 1 1.68 0.56 5.15-3.28l2.24-2.48 2.41-0.44c13.1-2.4 33.5-2.87 47.04-1.1 15.28 2.02 27.72 8.76 35.68 19.37 9.9 13.16 6.7 29.35-5.9 29.87-5.83 0.25-9.87-2.72-15.9-11.66-7.42-11-12.49-15.95-24.53-23.96-8.54-5.7-16.97-9.17-25.97-10.73-4.9-0.84-11.48-0.86-12.8-0.03-1.03 0.64-0.78 2.55 0.37 2.8 6.86 1.46 18.87 11.09 26.71 21.41 15.9 20.92 16.05 40.29 0.36 45.48-4.53 1.5-7.6-0.1-9.17-4.77-0.96-2.85-1.1-4.53-1.28-15.65-0.44-27.75-2.84-35.53-12.45-40.42-2.36-1.2-3.63-1.05-3.63 0.43 0 0.81 0.3 1.14 1.72 1.84 9.03 4.52 11.12 11.7 11.53 39.61 0.2 12.95 0.87 16.33 3.93 19.72 3.3 3.66 9.72 3.38 15.82-0.69 5.52-3.67 8.87-11.62 8.09-19.19-1.66-16.07-16.58-37.28-32.95-46.83-2.92-1.7-2.89-1.72 1.86-1.04 9.2 1.32 17.4 4.65 26.74 10.85 11.28 7.48 15.79 11.89 23.1 22.53 3.67 5.35 7.05 9.16 9.53 10.75 1.63 1.03 1.65 1.08 0.57 1.25-6.2 0.98-16.38 6.77-18.4 10.47-1.92 3.54 2.47 7.26 6.26 5.3 0.86-0.44 1.92-1.51 3.9-3.92 4.51-5.5 11.55-9.76 17.63-10.65 3.85-0.57 6.85-2.04 9.23-4.55 1.62-1.7 1.29-1.69 2.56-0.1 17.95 22.37 25.49 51.5 21.14 81.69-2.24 15.58-6.14 24.79-16.06 37.97-6.63 8.8-11.36 13.32-23.27 22.23-7.28 5.45-18.5 9.46-37.24 13.31-19.63 4.04-41.66 5.06-58.96 2.73-18.42-2.48-32.07-6.35-44.5-12.6-12.72-6.42-27.33-16.65-32-22.43-5.86-7.27-12.1-19.57-14.11-27.8-5.66-23.31-5.26-42.7 1.35-65.57 5.64-19.5 16.46-34.76 35.28-49.73 14.13-11.24 34.07-19.75 55.55-23.69 5.93-1.09 5.8-1.1 4 0.68-1.7 1.68-1.5 2.98 0.46 2.85 1.16-0.07 5.74-5.58 12.53-15.06 8.3-11.6 11.87-15.73 19.72-22.76 13.24-11.87 23-16.9 35.94-18.52 1.75-0.22 9.45-0.1 11.55 0.17m-102.57 98.86c-3.91 0.37-7.27 1.23-7.53 1.95-0.32 0.87 0.13 1.07 1.87 0.83 1.7-0.24 3.83-0.16 7.93 0.31 9.9 1.14 14.49 2.85 23.39 8.71 7.96 5.25 13.75 5.82 13.03 1.3-1.2-7.53-22.19-14.63-38.69-13.1m120.03 13.27c-0.34 0.5-1.5 1.95-2.6 3.24a185.76 185.76 0 0 0-15.72 20.8c-8 11.91-11.09 21.84-10.73 34.43 0.82 28.77 23.75 36.91 37.85 13.44 8.12-13.52 9.53-33.4 3.21-45.4l-0.83-1.58 2.27-0.13c1.24-0.07 3.36-0.25 4.7-0.41a46.2 46.2 0 0 1 4.41-0.3c3.24 0 3.78-0.97 0.87-1.56a82.6 82.6 0 0 1-15.43-5.2l-2.24-1.06 0.68-0.42c4.4-2.65 6.42-4.2 9.65-7.42a58.87 58.87 0 0 1 3.44-3.28c0.22 0 0.38-0.55 0.26-0.88-0.18-0.47-0.89-0.34-2.73 0.51-2.76 1.29-17.64 6.73-19.88 7.28l-0.57 0.14 0.34-0.52c1.65-2.51 2.34-4.16 3.23-7.68 0.33-1.3 0.8-2.75 1.06-3.23 0.93-1.75-0.14-2.41-1.24-0.77m-114.12 6.93c-0.58 0.32-0.4 0.71 1.17 2.49 1.22 1.38 4.28 5.54 6.34 8.61 0.18 0.28 0.65 0.9 1.03 1.4l0.7 0.91-0.76-0.17c-0.42-0.09-2.2-0.34-3.98-0.56-5.11-0.63-8.82-1.5-20.47-4.84-6.58-1.88-7.53-1.98-6.7-0.66 0.66 1.05 10.18 6.84 16.23 9.87 1.74 0.87 1.78 0.72-0.5 1.78-3.9 1.83-6.41 2.56-13.9 4.02-2.43 0.48-3.11 0.86-2.75 1.53 0.3 0.56 3.6 1.07 12.12 1.88 1.88 0.18 3.43 0.33 3.44 0.35 0.02 0.02-0.5 0.82-1.14 1.79-11.55 17.38-4.16 43.89 14.73 52.82 26.1 12.33 50-15.88 37.63-44.41-4.6-10.58-11.47-17.7-22.78-23.56-10.45-5.42-14.74-8.17-17.92-11.48-1.78-1.85-2.03-2.03-2.5-1.77m115.31 11.17c17.3 5.88 18.08 42.95 1.27 59.82-17.12 17.18-35.1-2.7-29.1-32.14 3.74-18.3 16.9-31.4 27.83-27.68m-96.27 6.57c24.38 5.17 34.87 39.14 17.6 57.04-16.12 16.73-43.52 5.95-49.15-19.35-4.95-22.24 11.53-41.92 31.55-37.69m52.4 62.8c-0.54 0.15-1.65 0.53-2.47 0.86-14.66 5.82-27.8 7.8-34.37 5.17-1.01-0.4-1.34-0.25-1.34 0.64 0 1.47 10.46 11.2 15.34 14.28 8.1 5.1 19.4 5.95 26.46 1.98l0.79-0.44 3.07 1c5.82 1.9 5.69 1.93 7.56-1.16 3.91-6.46 8.9-11.5 14.56-14.76 2.85-1.64 2.67-2.05-1.08-2.36-5.73-0.48-8.44-1.02-18.56-3.73-5.75-1.54-8.34-1.93-9.96-1.48m3.74 1.38c0.95 0.16 3.36 0.73 5.35 1.25 10.36 2.75 11.07 2.91 15.92 3.53 3.84 0.49 3.63 0.41 2.71 0.96-4.59 2.7-10.89 9.37-14.08 14.9-0.58 1.01-1 1.52-1.23 1.52-0.93 0-17.86-5.61-27.25-9.03-2.8-1.02-5.6-2-6.25-2.2-1.52-0.43-8.66-2.95-9.67-3.4l-0.79-0.35 2.99-0.01c5.94-0.02 15.29-2.24 25.66-6.08 4.05-1.5 4.14-1.52 6.64-1.1m-34.98 8.79c1.5 0.6 4.84 1.81 7.42 2.67s6.62 2.27 8.98 3.13c2.37 0.86 7.16 2.53 10.65 3.7 7.39 2.5 7.1 2.33 5.14 2.97-9.52 3.12-18.13 1.45-26.33-5.11-4.7-3.75-10.34-9.15-9.05-8.65l3.19 1.29" fill="#050505"/><path transform="translate(-25.56,-68.34)" d="m302.54 71.8-2.25 0.29c-11.88 1.43-24.04 8.51-37.87 22.03-6.22 6.08-8.33 8.7-18.16 22.48-6.56 9.2-10.14 12.65-11.43 11.01-0.63-0.8-0.5-1.16 0.81-2.47 1.59-1.58 1.5-1.59-4.2-0.53-14.53 2.7-32.56 9.06-42.82 15.14-21.87 12.95-38.94 32.62-45.93 52.93-5.98 17.38-8.24 37.13-6.1 53.32 2.7 20.45 6.83 31.39 16.9 44.72 3.45 4.59 11.33 10.6 23.37 17.84 12.75 7.66 23.8 12 37.9 14.87 4.82 0.98 4.43 1 4.43-0.16 0-7.26 6.97-20.81 14.7-28.58 5.9-5.94 15.5-11.41 21.11-12.04l1.16-0.13-1.56-1.56c-3.1-3.11-3.13-4.43-0.09-3.49 6.02 1.86 12.92 1.28 23.76-1.98 0.97-0.3 2.34-0.7 3.06-0.9 0.7-0.2 3.23-1.07 5.6-1.93 5.2-1.89 7.2-1.94 12.34-0.3 0.48 0.16 2.24 0.63 3.9 1.06 1.67 0.42 3.88 1 4.92 1.27 3.35 0.88 10.01 1.87 12.57 1.87 2.27 0 2.24 1.04-0.05 2.36-0.88 0.5-2.18 1.34-2.87 1.85l-1.27 0.93 0.73 0.36c6.64 3.3 12.78 15.84 11.99 24.5l-0.15 1.58 1.76-1.38c5.01-3.93 7.3-5.93 10.73-9.38 12-12.06 20.33-26.9 23.04-41.03 6.25-32.55-0.52-62.82-19.53-87.35-1.59-2.05-1.38-2.02-3.03-0.38-2.55 2.55-5.55 3.96-9.63 4.53-6.04 0.84-12.55 5.03-18.04 11.59-2.84 3.38-4.86 4.18-7.38 2.9-3.29-1.68-3.4-4.5-0.32-7.54 3.29-3.23 12.04-7.7 16.3-8.33 1.21-0.17 1.2-0.2-0.53-1.45-2.77-1.97-5.4-5.02-9.67-11.24-6.92-10.06-12.41-15.24-24.3-22.93-8.7-5.63-20.98-10-27.97-9.97h-0.76l1.57 0.9c3.43 1.96 8.58 5.75 10.55 7.76l1.72 1.65c14.45 13.68 23.62 33.56 20.74 44.98-1.75 6.9-5.44 11.52-11.17 13.93-6.81 2.87-11.67 1.54-14.3-3.9-1.7-3.52-1.95-5.4-2.17-16.3-0.56-29.05-2.27-35.27-11.03-40.05-1.92-1.06-2.25-1.38-2.25-2.21 0-1.58 1.38-1.77 3.75-0.53 9.77 5.11 12.17 12.84 12.65 40.83 0.24 13.89 0.74 16.65 3.43 19.13 3.62 3.34 12.18 0.08 15.8-6.01 3.34-5.64 3.48-11.64 0.48-20.5-4.23-12.49-15.77-27.1-27.52-34.84-3.62-2.38-7.37-4.26-8.5-4.26-0.76 0-1.66-0.98-1.66-1.8 0-3.8 15.75-2.25 27.25 2.67 15.12 6.47 27.55 16.81 37.08 30.84 5.72 8.41 9.23 11.18 14.47 11.4 13.6 0.59 17.25-16.78 6.39-30.32-7.66-9.55-18.75-15.92-31.38-18.05-13.85-2.33-37.88-2.06-50.9 0.58l-1.99 0.38c-0.05 0-1.28 1.3-2.74 2.9-2.83 3.11-3.46 3.56-4.4 3.16-1.22-0.5-1.24-1.73-0.05-2.93 0.72-0.72 1.23-1.28 4.41-4.8 9.18-10.16 15.07-14.2 24.23-16.6 4.43-1.17 5.52-1.32 17.58-2.44 17.06-1.58 27.55-5.42 34.95-12.78 8.12-8.09 5.5-13.94-7.41-16.5-3.54-0.69-11.93-1.07-14.75-0.67m-82.62 98.7c11.99 1.04 20.38 3.55 26.22 7.86 6.56 4.84 4.77 10.34-2.54 7.8-1.82-0.64-3.16-1.4-7.48-4.25-9.17-6.05-18.37-8.7-29.38-8.44l-2.93 0.06-0.07-0.45c-0.26-1.87 8.4-3.24 16.18-2.57m113.15 12.72c0.15 0.24 0.08 0.6-0.3 1.47-0.29 0.63-0.79 2.2-1.12 3.48-0.74 2.89-1.3 4.31-2.43 6.23-0.48 0.82-0.81 1.49-0.72 1.49 0.16 0 4.98-1.62 8.51-2.86a157.98 157.98 0 0 0 12.4-4.84c1.18-0.57 1.96-0.54 1.96 0.07 0 0.5-6 6.54-7.81 7.86a66.4 66.4 0 0 1-5.42 3.55c-0.35 0.18-0.64 0.38-0.64 0.44 0 0.26 5.97 2.83 8.8 3.78 3.47 1.18 8.47 2.54 9.3 2.54 0.75 0 1.32 0.65 1.04 1.18-0.15 0.27-0.61 0.35-2.71 0.45-1.4 0.06-3.8 0.25-5.34 0.41-1.53 0.17-3.46 0.35-4.27 0.41l-1.48 0.12 0.73 1.4c8.88 17.12 2.13 46.25-13 56.1-19.02 12.38-34.97-13.88-25.76-42.39 2.96-9.14 12.88-24.61 22.95-35.8 0.51-0.56 1.64-1.93 2.51-3.02l1.79-2.25c0.26-0.33 0.75-0.24 1.01 0.18m-113.1 9.4c3.27 3.27 7.24 5.86 15.77 10.3 11.07 5.76 17.5 11.14 21.1 17.69 0.36 0.64 1.07 1.87 1.59 2.74 14.09 23.7-0.6 53.77-25.23 51.63-24.9-2.17-39.33-34.51-24.96-55.99 0.52-0.77 0.94-1.44 0.94-1.48s-0.86-0.14-1.9-0.2c-1.05-0.07-3.45-0.31-5.33-0.53l-5.07-0.59c-2.8-0.32-3.32-0.53-3.32-1.36 0-0.58 0.5-0.75 4.94-1.66 5.2-1.08 6.89-1.5 8.73-2.22 1.72-0.67 4.88-2.12 4.88-2.25 0-0.04-1.2-0.72-2.69-1.5-8.17-4.3-15.08-8.7-15.08-9.63 0-0.06 0.21-0.25 0.48-0.43 0.53-0.34 0.02-0.46 6.55 1.49 8.2 2.45 16.08 4.24 21.78 4.96 1.28 0.16 2.56 0.35 2.83 0.43l0.49 0.13-0.42-0.47c-0.23-0.26-1.58-2.14-3-4.18-2.87-4.1-4.1-5.71-5.18-6.74-0.96-0.91-1.14-1.27-0.88-1.75 0.39-0.72 0.93-0.43 2.97 1.61m11.24 133.87c0.24 0.05 0.64 0.05 0.88 0 0.24-0.04 0.04-0.08-0.44-0.08s-0.68 0.04-0.44 0.09m1.86 0.2c0.3 0.04 0.74 0.04 0.98-0.01s0-0.08-0.54-0.08-0.74 0.04-0.44 0.08m2.15 0.2c0.3 0.04 0.73 0.04 0.97 0 0.25-0.05 0-0.09-0.53-0.09-0.54 0-0.74 0.04-0.44 0.09m2.44 0.2c0.24 0.04 0.6 0.04 0.78-0.01 0.19-0.05-0.01-0.09-0.44-0.09s-0.58 0.04-0.34 0.1m13.67 0.19c0.35 0.04 0.92 0.04 1.27 0s0.06-0.08-0.64-0.08-0.98 0.04-0.63 0.08" fill="#ffafb6"/><path d="m294.46 148.27c-13.85 2.84-18.85 29.45-6.97 37.08 9.98 6.4 22.78-8.12 20.74-23.52-0.47-3.48-0.8-3.83-2.85-3.02-7.14 2.83-10.14-1.9-5.62-8.83 0.93-1.44-2-2.39-5.3-1.71m-90.63 1.72c-14.75 4-19.68 25.1-8.5 36.37 11.9 11.98 30.03 2.22 29.97-16.13-0.02-6.85-1.43-9.8-3.53-7.35-1.9 2.2-5.1 2.14-7.56-0.15-2.38-2.21-2.6-6.53-0.5-9.67 0.42-0.63 0.77-1.26 0.77-1.38 0-1.5-7.14-2.64-10.65-1.69" fill="#34acb4"/><path transform="translate(-25.56,-68.34)" d="m314.77 281.91a0.8 0.8 0 0 0-0.52 0.07c-0.17 0.08-0.35 0.2-0.58 0.39a83.44 83.44 0 0 0-3.7 3.38c-0.49 0.46-1.04 1.08-1.63 1.79a50.36 50.36 0 0 0-4.94 7.11c-0.23 0.43-0.43 0.76-0.6 1.02-0.19 0.26-0.35 0.44-0.52 0.56a1.1 1.1 0 0 1-0.57 0.2c-0.21 0.02-0.46-0.01-0.76-0.07-0.47-0.08-1.53-0.36-2.73-0.7-1.2-0.35-2.53-0.77-3.53-1.1-0.67-0.23-1.1-0.37-1.4-0.42a1.02 1.02 0 0 0-0.33-0.01 0.27 0.27 0 0 0-0.17 0.1c-0.07 0.07-0.26 0.19-0.53 0.32a14 14 0 0 1-1.06 0.45 35.75 35.75 0 0 1-5.06 1.47 28.24 28.24 0 0 1-4 0.54 24.48 24.48 0 0 1-11.73-2.25 32.88 32.88 0 0 1-3.96-2.09 43.77 43.77 0 0 1-4.07-2.77 61.09 61.09 0 0 1-4.2-3.49 87.75 87.75 0 0 1-2.17-2.01l-1.91-1.84-1.13 0.1a11.27 11.27 0 0 0-2.2 0.42c-0.8 0.22-1.64 0.5-2.53 0.84-0.88 0.35-1.8 0.75-2.74 1.2a48.88 48.88 0 0 0-5.76 3.3 56.33 56.33 0 0 0-5.47 4.07 40.53 40.53 0 0 0-5.24 5.38 58.23 58.23 0 0 0-5.2 7.38 65.67 65.67 0 0 0-4.04 7.86 44.48 44.48 0 0 0-1.91 5.53 25.92 25.92 0 0 0-0.61 3.25c-0.06 0.5-0.08 1-0.08 1.45v1.02l2.68 0.43c3.19 0.5 5.9 0.91 8.33 1.24 2.43 0.32 4.58 0.57 6.66 0.75 2.07 0.17 4.07 0.29 6.18 0.36a192.45 192.45 0 0 0 15.44-0.16 224.15 224.15 0 0 0 17.67-1.58 237.43 237.43 0 0 0 16.97-2.78 166.06 166.06 0 0 0 11.2-2.72 103.46 103.46 0 0 0 6.29-2.04c0.96-0.35 1.86-0.7 2.72-1.07 0.8-0.34 2.03-0.83 2.73-1.1 0.8-0.3 1.67-0.66 2.57-1.08a50.2 50.2 0 0 0 7.7-4.5l2.76-2.06 0.12-1.66a18.74 18.74 0 0 0-0.04-3.18 25.28 25.28 0 0 0-0.52-3.34 31.12 31.12 0 0 0-0.93-3.38 34.79 34.79 0 0 0-3.82-7.9 27.5 27.5 0 0 0-1.99-2.62 20.78 20.78 0 0 0-2.17-2.15 23.3 23.3 0 0 0-2.27-1.6c-0.29-0.17-0.5-0.27-0.7-0.3z" fill="#fbefef"/><path transform="translate(-25.56,-68.34)" d="m232 208.12a25.05 25.05 0 0 0-8.01 1.02 26.31 26.31 0 0 0-5.97 2.56 25.39 25.39 0 0 0-6.38 5.34 27.65 27.65 0 0 0-3.55 5.13 30.82 30.82 0 0 0-2.46 5.87 34 34 0 0 0-1.49 8.57 36.89 36.89 0 0 0 1.77 13.35 37.1 37.1 0 0 0 6.85 12.35 36.71 36.71 0 0 0 6.68 6.14 30.53 30.53 0 0 0 5.06 2.84 27.9 27.9 0 0 0 7 2 26.22 26.22 0 0 0 12.03-1.1 25.9 25.9 0 0 0 8.99-5.25 27.06 27.06 0 0 0 4.74-5.5 29 29 0 0 0 2.68-5.11 31.69 31.69 0 0 0 1.77-5.89 35.45 35.45 0 0 0-0.14-14.86 37.33 37.33 0 0 0-4.55-11.4 37.66 37.66 0 0 0-4.83-6.37 35.2 35.2 0 0 0-5.96-5 31.1 31.1 0 0 0-5.05-2.68 28.05 28.05 0 0 0-5.42-1.6 25.77 25.77 0 0 0-3.77-0.4zm0.99 9.7a15.5 15.5 0 0 1 4.47 0.66c0.68 0.2 1.21 0.37 1.61 0.55 0.2 0.09 0.37 0.17 0.51 0.26 0.14 0.1 0.24 0.19 0.32 0.29a0.7 0.7 0 0 1 0.13 0.65c-0.03 0.13-0.09 0.26-0.17 0.41s-0.18 0.3-0.3 0.47a8.27 8.27 0 0 0-1.23 2.38 9.16 9.16 0 0 0-0.4 3.84 7.13 7.13 0 0 0 0.7 2.27c0.18 0.34 0.4 0.65 0.64 0.93a7.14 7.14 0 0 0 1.9 1.53 6.02 6.02 0 0 0 2.13 0.66 5.02 5.02 0 0 0 2.08-0.24 4.5 4.5 0 0 0 1.8-1.15c0.28-0.3 0.54-0.51 0.8-0.67 0.25-0.15 0.48-0.23 0.7-0.24a0.96 0.96 0 0 1 0.62 0.18c0.19 0.13 0.36 0.33 0.52 0.6s0.3 0.6 0.42 1.01c0.13 0.41 0.24 0.89 0.33 1.43 0.1 0.55 0.17 1.16 0.23 1.84a41.06 41.06 0 0 1 0.13 4.19 26.19 26.19 0 0 1-0.78 5.37 23.04 23.04 0 0 1-2.58 6.05 20.63 20.63 0 0 1-3.95 4.63 18.94 18.94 0 0 1-4.9 3.03 17.2 17.2 0 0 1-5.42 1.25 15.65 15.65 0 0 1-6.88-1.2 15.75 15.75 0 0 1-3.86-2.33 18.1 18.1 0 0 1-2.35-2.27 21.1 21.1 0 0 1-2.1-2.86 22.7 22.7 0 0 1-2.48-18.55 24.21 24.21 0 0 1 3.16-6.8 21.98 21.98 0 0 1 2.8-3.33 19.44 19.44 0 0 1 3.37-2.58 16.88 16.88 0 0 1 3.83-1.66 15.33 15.33 0 0 1 4.2-0.6zm95.21-16.37a12.32 12.32 0 0 0-3.2 0.57 18.86 18.86 0 0 0-3.64 1.56 21.78 21.78 0 0 0-3.36 2.3 26.4 26.4 0 0 0-3.04 2.9 32.44 32.44 0 0 0-2.73 3.47 39.17 39.17 0 0 0-2.39 3.92 45.9 45.9 0 0 0-2.89 6.53 53.65 53.65 0 0 0-2.48 9.48 55.94 55.94 0 0 0-0.77 9.72 47.85 47.85 0 0 0 0.64 7.02 38.11 38.11 0 0 0 1.04 4.38 31.59 31.59 0 0 0 1.55 4.05 26.02 26.02 0 0 0 2.09 3.62 21.83 21.83 0 0 0 2.63 3.1 17.6 17.6 0 0 0 3.15 2.42 13.25 13.25 0 0 0 3.27 1.33 11.84 11.84 0 0 0 5 0.18 14.02 14.02 0 0 0 3.33-0.98 18 18 0 0 0 3.25-1.79 23.73 23.73 0 0 0 3.11-2.5 30.57 30.57 0 0 0 2.92-3.13 37.67 37.67 0 0 0 2.68-3.7 44.16 44.16 0 0 0 3.42-6.41 50.55 50.55 0 0 0 3.66-12.39 50.84 50.84 0 0 0 0.6-10.72 45.2 45.2 0 0 0-1.23-8.1 36.45 36.45 0 0 0-1.38-4.33 30.03 30.03 0 0 0-1.8-3.76 24.18 24.18 0 0 0-2.17-3.15 19.25 19.25 0 0 0-2.48-2.5 15.45 15.45 0 0 0-2.74-1.79 12.94 12.94 0 0 0-4.48-1.28c-0.52-0.04-1.04-0.05-1.57-0.02zm-5.67 15.03c0.58 0.02 1.14 0.06 1.6 0.13 0.45 0.07 0.8 0.16 0.97 0.26 0.13 0.1 0.25 0.2 0.32 0.32 0.08 0.12 0.13 0.26 0.15 0.4 0.01 0.14 0 0.29-0.04 0.44-0.05 0.15-0.12 0.3-0.23 0.46a14.37 14.37 0 0 0-1.32 2.33 9.68 9.68 0 0 0-0.63 2.14 6.37 6.37 0 0 0 0 1.87 4.3 4.3 0 0 0 0.6 1.5 3.44 3.44 0 0 0 1.84 1.4 4.51 4.51 0 0 0 1.8 0.23 7.09 7.09 0 0 0 2.19-0.42c0.39-0.13 0.8-0.29 1.22-0.48 0.3-0.14 0.56-0.24 0.8-0.3 0.25-0.07 0.46-0.1 0.65-0.08 0.2 0.02 0.36 0.08 0.5 0.2 0.15 0.1 0.27 0.27 0.37 0.49s0.2 0.5 0.27 0.83c0.07 0.34 0.12 0.74 0.16 1.21a45.13 45.13 0 0 1-0.03 6.78 29.11 29.11 0 0 1-1.16 5.7 26.35 26.35 0 0 1-2.12 4.93 22.4 22.4 0 0 1-2.88 3.97 17.55 17.55 0 0 1-3.42 2.84c-0.6 0.36-1.22 0.68-1.85 0.93a11.07 11.07 0 0 1-3.82 0.8 9.4 9.4 0 0 1-5.67-1.81 12.06 12.06 0 0 1-1.76-1.5 13.74 13.74 0 0 1-2.26-3 16.36 16.36 0 0 1-1.52-3.52 21.14 21.14 0 0 1-0.93-5.26 26.8 26.8 0 0 1 0.22-5.53 29.58 29.58 0 0 1 2.3-7.99 24.97 24.97 0 0 1 2.72-4.55 18.66 18.66 0 0 1 2.59-2.74 15.21 15.21 0 0 1 3.03-1.98 12.46 12.46 0 0 1 2.23-0.81 7.7 7.7 0 0 1 1.38-0.18c0.55-0.03 1.15-0.03 1.73-0.01z" fill="#fff"/><path d="m263.2 204.5c-1.68 0.79-6.82 2.53-11.76 4-8.19 2.42-11.19 3.02-15.87 3.19-3.07 0.1-3.2 0.12-2.54 0.4 1.17 0.49 5.45 2 8.25 2.9 1.48 0.48 5.3 1.82 8.5 2.97 6.74 2.45 23 7.89 24.82 8.3l1.23 0.3 0.52-0.89c3.85-6.45 9.49-12.53 14.4-15.51l0.78-0.48-0.69-0.05a83.7 83.7 0 0 1-11.23-1.97l-8-2.06c-4.38-1.14-7.47-1.54-8.4-1.1m-34.28 7.74c0 0.5 6.5 6.41 9.76 8.9 7.68 5.82 16.08 7.39 24.87 4.62 1.05-0.33 1.84-0.67 1.76-0.75-0.09-0.08-2.71-1-5.82-2.05a633.38 633.38 0 0 1-11.04-3.85 299.26 299.26 0 0 0-7.71-2.69 138.01 138.01 0 0 1-9.8-3.53c-1.83-0.79-2.02-0.85-2.02-0.65" fill="#fbbb5c"/><path d="m280.33 3.29c0.94 0.03 2.52 0.03 3.52 0 1-0.04 0.23-0.07-1.7-0.07s-2.75 0.03-1.82 0.07m-3.9 0.18c0.2 0.05 0.5 0.05 0.7 0 0.18-0.05 0.03-0.09-0.35-0.09s-0.53 0.04-0.34 0.1m10.55 0c0.18 0.04 0.49 0.04 0.68 0 0.19-0.06 0.03-0.1-0.34-0.1-0.38 0-0.53 0.04-0.34 0.1m-46.84 19.05-0.58 0.63 0.64-0.57c0.59-0.54 0.72-0.7 0.57-0.7-0.03 0-0.32 0.29-0.63 0.64m-3.52 3.32-0.77 0.83 0.83-0.78c0.46-0.42 0.83-0.8 0.83-0.83 0-0.14-0.17 0-0.89 0.78m-1.56 1.56-0.57 0.63 0.63-0.57c0.6-0.53 0.72-0.7 0.57-0.7-0.03 0-0.32 0.3-0.63 0.64m16.46 24.12c0.35 0.04 0.96 0.04 1.37 0 0.4-0.05 0.12-0.08-0.63-0.08s-1.08 0.03-0.74 0.08m8.99 0c0.24 0.04 0.64 0.04 0.88 0 0.24-0.05 0.04-0.1-0.44-0.1s-0.68 0.05-0.44 0.1m-12.99 0.18c0.19 0.05 0.5 0.05 0.69 0 0.18-0.05 0.03-0.09-0.35-0.09-0.37 0-0.53 0.04-0.34 0.1m-3.41 0.2c0.24 0.04 0.6 0.04 0.78-0.01s-0.01-0.09-0.44-0.09-0.59 0.05-0.34 0.1m-12.21 2.72c0.19 0.05 0.5 0.05 0.68 0 0.19-0.05 0.03-0.09-0.34-0.09-0.38 0-0.53 0.04-0.34 0.1m0.03 3.16c0.06 0.1 0.29 0.13 0.5 0.08 0.54-0.14 0.5-0.26-0.1-0.26-0.28 0-0.46 0.08-0.4 0.18m73.35 8.86c0.8 0.86 0.98 1.01 0.98 0.87 0-0.03-0.42-0.45-0.93-0.93l-0.92-0.87 0.87 0.93m-63.08 2.16c0 0.03 0.29 0.32 0.63 0.63l0.64 0.58-0.57-0.64c-0.54-0.59-0.7-0.72-0.7-0.57m-10.35 0.39c0 0.03 0.28 0.32 0.63 0.63l0.64 0.58-0.58-0.64c-0.53-0.59-0.7-0.72-0.7-0.57m47.76 9.5c0.42 0.44 0.8 0.79 0.86 0.79s-0.24-0.35-0.66-0.78-0.81-0.78-0.86-0.78c-0.06 0 0.24 0.35 0.66 0.78m36.08 6.83c0 0.38 0.04 0.53 0.1 0.35 0.04-0.2 0.04-0.5 0-0.69-0.06-0.19-0.1-0.03-0.1 0.34m-175.64 1.71-0.67 0.74 0.73-0.68c0.68-0.62 0.82-0.79 0.67-0.79-0.03 0-0.36 0.33-0.73 0.73m175.64 2.6c0 0.37 0.04 0.52 0.1 0.33 0.04-0.19 0.04-0.5 0-0.68-0.06-0.19-0.1-0.04-0.1 0.34m-73.82 4.69c0 0.48 0.04 0.68 0.09 0.44 0.04-0.24 0.04-0.64 0-0.88-0.05-0.24-0.09-0.05-0.09 0.44m-3.13 0c0 0.37 0.04 0.53 0.09 0.34s0.05-0.5 0-0.68c-0.05-0.2-0.1-0.04-0.1 0.34m55.73 3.12c0.63 0.65 1.2 1.18 1.25 1.18 0.06 0-0.42-0.53-1.06-1.18a11.6 11.6 0 0 0-1.26-1.17c-0.05 0 0.43 0.53 1.07 1.17m-52.36 5.18c0 2.68 0.03 3.81 0.06 2.5 0.03-1.3 0.03-3.5 0-4.88s-0.06-0.3-0.06 2.38m69.53-4.15-0.57 0.63 0.63-0.57c0.6-0.54 0.73-0.7 0.58-0.7-0.04 0-0.32 0.29-0.64 0.64m-72.67 1.32c0 1.02 0.03 1.43 0.07 0.92 0.04-0.5 0.04-1.34 0-1.85s-0.07-0.1-0.07 0.93m53.45-0.14c0 0.04 0.28 0.32 0.63 0.64l0.63 0.57-0.57-0.63c-0.53-0.6-0.7-0.73-0.7-0.58m10.41 1.84c0.52 0.04 1.3 0.04 1.76 0 0.45-0.04 0.03-0.07-0.93-0.07-0.97 0-1.34 0.03-0.83 0.07m-113.88 0.4c0.72 0.03 1.95 0.03 2.73 0 0.79-0.04 0.2-0.07-1.3-0.07-1.51 0-2.15 0.03-1.43 0.06m-7.12 2.93c0.34 0.04 0.96 0.04 1.36 0s0.12-0.08-0.63-0.08-1.08 0.04-0.73 0.08m82.34 3.18c0 0.7 0.03 0.98 0.08 0.63 0.04-0.34 0.04-0.92 0-1.26-0.05-0.35-0.08-0.07-0.08 0.63m-21.88 5.18c0 0.75 0.04 1.03 0.08 0.63s0.04-1.02 0-1.37-0.08-0.02-0.08 0.74m-3.14-0.2c0 0.43 0.05 0.58 0.1 0.34 0.04-0.24 0.04-0.6-0.01-0.78-0.05-0.19-0.09 0.01-0.09 0.44m50.24 0.15-0.58 0.63 0.64-0.57c0.59-0.54 0.72-0.7 0.57-0.7-0.03 0-0.32 0.29-0.63 0.64m-12.54 2.39c0 0.43 0.04 0.58 0.09 0.34s0.04-0.6 0-0.78c-0.05-0.19-0.1 0.01-0.1 0.44m8.35 2.4-0.67 0.72 0.73-0.67c0.68-0.63 0.82-0.79 0.67-0.79-0.03 0-0.36 0.33-0.73 0.73m-41.98 7.96c0.36 0.38 0.7 0.68 0.76 0.68 0.05 0-0.2-0.3-0.57-0.68-0.36-0.37-0.7-0.68-0.76-0.68-0.05 0 0.2 0.3 0.57 0.68m74.17 14.5c0.24 0.04 0.63 0.04 0.88 0 0.24-0.05 0.04-0.09-0.44-0.09-0.49 0-0.69 0.04-0.44 0.08m-92.24 4.16c0.75 0.76 1.4 1.37 1.45 1.37 0.06 0-0.5-0.61-1.25-1.37a15.5 15.5 0 0 0-1.46-1.36c-0.05 0 0.51 0.61 1.26 1.36m-38 2.69-0.67 0.73 0.73-0.67c0.4-0.37 0.73-0.7 0.73-0.73 0-0.15-0.16-0.01-0.79 0.67m133.27 10.3c0 0.54 0.04 0.74 0.09 0.44 0.04-0.3 0.04-0.74 0-0.98-0.05-0.24-0.1 0-0.09 0.54m18.75 2.54c0 0.54 0.04 0.73 0.09 0.44 0.04-0.3 0.04-0.74 0-0.98-0.05-0.24-0.1 0-0.09 0.54m-17.2 0.2c0 0.43 0.05 0.58 0.1 0.34 0.04-0.25 0.04-0.6 0-0.79-0.06-0.18-0.1 0.02-0.1 0.45m-213.83 3.61c0 1.88 0.03 2.65 0.07 1.7 0.03-0.93 0.03-2.47 0-3.4-0.04-0.95-0.07-0.18-0.07 1.7m212.28-0.78c0 0.59 0.04 0.83 0.08 0.54 0.05-0.3 0.05-0.78 0-1.08-0.04-0.3-0.08-0.05-0.08 0.54m1.36 1.17c0 0.38 0.04 0.53 0.09 0.34s0.05-0.5 0-0.68c-0.05-0.19-0.1-0.04-0.1 0.34m-144.72 3.03c0 0.43 0.05 0.58 0.1 0.34 0.04-0.25 0.04-0.6-0.01-0.78-0.05-0.2-0.09 0-0.09 0.44m99.64 5.08c0 1.5 0.03 2.09 0.07 1.3 0.04-0.78 0.04-2 0-2.73-0.04-0.72-0.07-0.08-0.07 1.43m-168.39-1.58c0 0.43 0.05 0.59 0.1 0.34 0.04-0.24 0.04-0.6-0.01-0.78-0.05-0.19-0.09 0.01-0.09 0.44m230.86 0.5c0 0.37 0.04 0.52 0.09 0.33 0.05-0.18 0.05-0.5 0-0.68-0.05-0.19-0.09-0.03-0.09 0.34m-162.1 1.08c0 0.43 0.04 0.58 0.08 0.33 0.05-0.24 0.05-0.59 0-0.78-0.05-0.18-0.09 0.02-0.09 0.45m59.77 0.29c0 0.48 0.04 0.68 0.09 0.44s0.05-0.64 0-0.88-0.09-0.04-0.09 0.44m0 4.3c0 0.48 0.04 0.68 0.09 0.43 0.05-0.24 0.05-0.63 0-0.87-0.05-0.25-0.09-0.05-0.09 0.44m72.22 17.67c-0.48 0.48-0.82 0.88-0.77 0.88 0.06 0 0.49-0.4 0.96-0.88 0.48-0.48 0.82-0.88 0.77-0.88-0.06 0-0.49 0.4-0.96 0.88m-80.09 3.96-1.07 1.12 1.13-1.07c0.62-0.59 1.12-1.09 1.12-1.12 0-0.15-0.19 0.02-1.18 1.07m65.88 2.53c0.3 0.04 0.78 0.04 1.07 0 0.3-0.05 0.06-0.08-0.54-0.08-0.59 0-0.83 0.03-0.53 0.08m-85.35 5.47c0.3 0.04 0.74 0.04 0.98 0 0.24-0.05 0-0.09-0.54-0.09s-0.74 0.04-0.44 0.09m24.5 3.52c0.46 0.04 1.21 0.04 1.67 0 0.45-0.04 0.08-0.08-0.83-0.08-0.92 0-1.29 0.04-0.83 0.08m-3.22 48.62c0.18 0.05 0.49 0.05 0.68 0s0.03-0.09-0.34-0.09c-0.38 0-0.53 0.04-0.34 0.1m-11.33 0.2c0.94 0.03 2.48 0.03 3.42 0 0.94-0.04 0.17-0.07-1.71-0.07s-2.65 0.03-1.71 0.07" fill="#9c666a"/><path d="m232.14 211.72c0.06 0.1 0.29 0.13 0.5 0.07 0.54-0.14 0.49-0.25-0.11-0.25-0.27 0-0.45 0.08-0.39 0.18m4.45-0.05c0.2 0.05 0.5 0.05 0.69 0 0.19-0.04 0.03-0.08-0.34-0.08-0.38 0-0.53 0.04-0.35 0.08m46.53 4.8-0.77 0.83 0.83-0.77c0.77-0.72 0.92-0.89 0.77-0.89-0.03 0-0.4 0.38-0.83 0.83m-26.31 10.64c0.24 0.04 0.64 0.04 0.88 0 0.24-0.05 0.04-0.09-0.44-0.09s-0.68 0.04-0.44 0.09" fill="#a67648"/><path d="m302.51 133.17c0.35 0.04 0.92 0.04 1.27 0 0.35-0.05 0.07-0.08-0.63-0.08s-0.99 0.03-0.64 0.08m-97.85 6.64c0.46 0.04 1.2 0.04 1.66 0s0.08-0.08-0.83-0.08-1.29 0.04-0.83 0.08m21.44 9.04c0.53 0.53 1 0.97 1.06 0.97 0.05 0-0.34-0.44-0.87-0.97-0.53-0.54-1-0.98-1.06-0.98-0.05 0 0.34 0.44 0.87 0.98m-19.3 0.72c0.36 0.05 0.93 0.05 1.28 0 0.35-0.04 0.06-0.08-0.64-0.08s-0.98 0.04-0.63 0.08m80.7 2.55-0.67 0.73 0.73-0.67c0.4-0.37 0.73-0.7 0.73-0.74 0-0.15-0.16 0-0.79 0.68m-92.09 2.63-0.57 0.64 0.63-0.58c0.6-0.53 0.73-0.7 0.58-0.7-0.04 0-0.32 0.3-0.64 0.64m102.11 0.83c0 0.43 0.04 0.59 0.1 0.34 0.04-0.24 0.04-0.6-0.01-0.78-0.05-0.19-0.09 0.01-0.09 0.44m-119.11 14.55c0 1.13 0.03 1.6 0.07 1.03 0.04-0.56 0.04-1.49 0-2.05-0.04-0.57-0.07-0.1-0.07 1.02m10.71 0.69c0 0.43 0.05 0.58 0.1 0.34 0.04-0.25 0.04-0.6-0.01-0.78-0.05-0.19-0.09 0-0.09 0.44m112.45 11.91c-0.47 0.49-0.81 0.88-0.76 0.88s0.49-0.4 0.96-0.88 0.82-0.88 0.77-0.88c-0.06 0-0.5 0.4-0.97 0.88m-16.1 1.08c0.52 0.53 1 0.97 1.05 0.97s-0.33-0.44-0.86-0.97c-0.53-0.54-1-0.98-1.06-0.98s0.33 0.44 0.86 0.98m-90.14 2.78c0.8 0.86 0.98 1.02 0.98 0.87 0-0.03-0.42-0.45-0.93-0.93l-0.92-0.87 0.87 0.93m90.34 8.93c0.42 0.43 0.8 0.79 0.86 0.79 0.05 0-0.25-0.36-0.67-0.79-0.42-0.42-0.8-0.78-0.86-0.78-0.05 0 0.25 0.36 0.67 0.78m-97.77-0.52c0 0.03 0.29 0.32 0.64 0.63l0.63 0.58-0.57-0.64c-0.54-0.59-0.7-0.72-0.7-0.57m42 20.54c0.69 0.7 1.3 1.27 1.35 1.27s-0.47-0.57-1.16-1.27c-0.7-0.7-1.3-1.27-1.36-1.27-0.05 0 0.47 0.58 1.17 1.27m24.36 13.13c0.36 0.05 0.88 0.05 1.18 0 0.29-0.04 0-0.08-0.64-0.08-0.65 0-0.89 0.04-0.54 0.08m-21.2 30.08c0.2 0.04 0.5 0.04 0.7 0 0.18-0.05 0.03-0.1-0.35-0.1s-0.53 0.05-0.34 0.1m-4.78 0.2a9.8 9.8 0 0 0 1.56 0c0.4-0.04 0.03-0.08-0.83-0.08s-1.2 0.04-0.73 0.08" fill="#9facaf"/><path d="m277.71 3.28c0.24 0.05 0.6 0.04 0.78 0 0.19-0.05-0.01-0.1-0.44-0.09-0.43 0-0.58 0.04-0.34 0.1m8.1-0.01c0.2 0.05 0.5 0.05 0.69 0s0.03-0.1-0.34-0.1c-0.38 0-0.53 0.05-0.35 0.1m13.52 17.3-0.58 0.63 0.64-0.58c0.35-0.31 0.63-0.6 0.63-0.63 0-0.15-0.16-0.02-0.7 0.57m-61.12 3.71-0.78 0.83 0.83-0.77c0.46-0.42 0.83-0.8 0.83-0.83 0-0.15-0.17 0-0.88 0.77m-9.96 22.07-0.78 0.83 0.83-0.77c0.78-0.72 0.92-0.89 0.78-0.89-0.04 0-0.41 0.38-0.83 0.83m-2.05 2c-0.47 0.5-0.81 0.89-0.76 0.89s0.49-0.4 0.96-0.88c0.47-0.49 0.82-0.88 0.76-0.88-0.05 0-0.48 0.4-0.96 0.88m23.59 3.16c0.24 0.05 0.64 0.05 0.88 0 0.24-0.04 0.04-0.08-0.44-0.08-0.49 0-0.68 0.04-0.44 0.08m12.3 0c0.25 0.05 0.6 0.05 0.79 0 0.18-0.05-0.02-0.09-0.45-0.09-0.42 0-0.58 0.05-0.33 0.1m-15.83 0.19c0.25 0.04 0.6 0.04 0.79 0 0.18-0.06-0.02-0.1-0.45-0.1-0.43 0.01-0.58 0.05-0.34 0.1m18.85 0c0.19 0.04 0.5 0.04 0.68 0 0.2-0.06 0.04-0.1-0.34-0.1-0.37 0-0.53 0.04-0.34 0.1m2.73 0.19c0.2 0.05 0.5 0.05 0.69 0s0.03-0.09-0.34-0.09c-0.38 0-0.53 0.04-0.35 0.09m-27.92 0.2c0.18 0.04 0.49 0.04 0.68 0 0.19-0.05 0.03-0.1-0.34-0.1-0.38 0-0.53 0.05-0.34 0.1m-15.5 2.55-0.67 0.73 0.69-0.61c0.37-0.34 0.81-0.66 0.97-0.72 0.26-0.1 0.26-0.1 0-0.12-0.17 0-0.61 0.31-0.98 0.72m4.75 0c0.51 0.03 1.3 0.03 1.76 0 0.45-0.05 0.03-0.08-0.94-0.08-0.96 0-1.33 0.03-0.82 0.07m-6.8 2.25-0.58 0.64 0.63-0.58c0.6-0.53 0.73-0.7 0.58-0.7-0.04 0-0.32 0.3-0.64 0.64m-11.8 1.22c-0.48 0.49-0.82 0.88-0.77 0.88 0.06 0 0.49-0.4 0.96-0.88 0.48-0.48 0.82-0.88 0.77-0.88s-0.49 0.4-0.96 0.88m9.75 1.03-0.67 0.73 0.73-0.67c0.4-0.37 0.74-0.7 0.74-0.74 0-0.14-0.17 0-0.8 0.68m25.5 9.03c0.53 0.54 1 0.98 1.06 0.98s-0.33-0.44-0.86-0.98-1-0.98-1.06-0.98c-0.05 0 0.33 0.44 0.86 0.98m2.15 2.15c0.53 0.54 1 0.98 1.06 0.98 0.05 0-0.33-0.44-0.86-0.98s-1-0.98-1.06-0.98 0.33 0.44 0.86 0.98m-1.27 3c0 0.02 0.29 0.31 0.64 0.62l0.63 0.58-0.57-0.64c-0.54-0.59-0.7-0.72-0.7-0.57m69.2 14.3c0.01 0.85 0.04 1.18 0.09 0.72a9.8 9.8 0 0 0 0-1.56c-0.05-0.4-0.08-0.02-0.08 0.83m-179.47 3.09-1.55 1.61 1.6-1.56c1.5-1.44 1.7-1.66 1.56-1.66-0.02 0-0.75 0.72-1.6 1.61m102.1-0.05c0 0.38 0.03 0.53 0.08 0.34 0.05-0.18 0.05-0.5 0-0.68-0.05-0.19-0.09-0.03-0.09 0.34m3.13 1.96c0 0.37 0.04 0.52 0.09 0.34 0.05-0.2 0.05-0.5 0-0.69-0.05-0.18-0.1-0.03-0.1 0.35m-2.92 0.78c0 0.37 0.04 0.53 0.09 0.34s0.05-0.5 0-0.69c-0.05-0.18-0.1-0.03-0.1 0.35m3.15 2.83c0 0.54 0.03 0.73 0.08 0.44 0.04-0.3 0.04-0.74 0-0.98-0.05-0.24-0.09 0-0.08 0.54m-2.93 1.07c0 0.6 0.03 0.84 0.08 0.54 0.04-0.3 0.04-0.78 0-1.07-0.05-0.3-0.08-0.06-0.08 0.53m0.21 12.8c0 1.4 0.03 1.94 0.07 1.2 0.04-0.72 0.04-1.86 0-2.53s-0.07-0.07-0.07 1.33m2.93-0.1c0 1.34 0.03 1.89 0.07 1.22s0.04-1.77 0-2.44-0.07-0.12-0.07 1.22m79.31 14.7-0.97 1.02 1.03-0.97c0.56-0.53 1.02-1 1.02-1.02 0-0.15-0.18 0.01-1.08 0.97m-129.58-0.77c0 0.03 0.28 0.32 0.63 0.63l0.64 0.57-0.57-0.63c-0.54-0.6-0.7-0.72-0.7-0.57m147.31 34.8c0 0.43 0.05 0.58 0.1 0.34 0.04-0.25 0.04-0.6-0.01-0.78-0.05-0.19-0.09 0-0.09 0.44m-231.04 1.17c0 0.54 0.04 0.73 0.08 0.44 0.05-0.3 0.04-0.74 0-0.98-0.05-0.24-0.09 0-0.08 0.54m231.27 6.35c0 2.1 0.03 2.95 0.07 1.9a69.1 69.1 0 0 0 0-3.8c-0.04-1.05-0.07-0.2-0.07 1.9m-231.27 2.24c0 0.65 0.04 0.89 0.08 0.54 0.05-0.35 0.04-0.88 0-1.17-0.04-0.3-0.08-0.01-0.08 0.63m169.92 4c0 0.6 0.04 0.84 0.08 0.54 0.05-0.29 0.05-0.77 0-1.07-0.04-0.3-0.08-0.05-0.08 0.54m61.12 0.2c0 0.37 0.04 0.52 0.09 0.33 0.05-0.18 0.05-0.49 0-0.68s-0.09-0.03-0.09 0.34m-108.35 41.8c0.53 0.54 1 0.98 1.06 0.98s-0.33-0.44-0.86-0.98-1-0.98-1.06-0.98c-0.05 0 0.34 0.44 0.86 0.98m53.5 2.78-0.57 0.64 0.64-0.58c0.59-0.53 0.72-0.7 0.57-0.7-0.03 0-0.32 0.3-0.63 0.64m29.2 12.36c-0.8 0.8-1.4 1.46-1.35 1.46 0.06 0 0.75-0.66 1.55-1.46s1.42-1.47 1.36-1.47c-0.05 0-0.75 0.66-1.55 1.47m-100.93 29.33c0.19 0.05 0.5 0.05 0.68 0 0.2-0.05 0.04-0.09-0.34-0.09-0.37 0-0.53 0.04-0.34 0.1m3.71 0.2c0.3 0.04 0.78 0.04 1.08 0 0.3-0.05 0.05-0.09-0.54-0.09-0.6 0-0.83 0.04-0.54 0.08m8.7 0c0.35 0.05 0.88 0.05 1.17 0 0.3-0.04 0-0.08-0.64-0.08s-0.88 0.04-0.53 0.08" fill="#864747"/></g><path transform="translate(-25.56,-68.34)" d="m307.77 71.51c-3.7 0.01-7.42 0.45-11.14 1.24-2.86 0.61-5.59 1.8-8.33 2.8 1.31 0.44 2.64 0.69 3.82 1.25 1.33 0.63 2.65 1.4 3.76 2.36 2.7 2.33 3.98 5.52 4.84 8.89 0.54 2.1 0.89 4.24 0.6 6.4-0.29 2.06-0.77 4.1-1.09 6.16 2.26-0.5 4.47-0.92 6.6-1.57 6.7-2.05 12.89-5.05 17.96-10 2.01-1.96 3.75-4.13 4.47-6.96 0.58-2.32-0.07-4.26-2-5.56a22.66 22.66 0 0 0-5.32-2.75 44.25 44.25 0 0 0-14.17-2.26zm9.21 54.1c0.4 0.5 0.89 0.89 1.14 1.4 1.36 2.76 2.06 5.65 1.25 8.72-1.14 4.3-3.78 7.59-7.24 10.27a15.48 15.48 0 0 1-5.27 2.84c2.18 2.95 4.43 5.77 6.48 8.73 2.34 3.37 4.7 6.7 7.79 9.45 6.1 5.4 15.77 3.3 18.96-4.07a17.13 17.13 0 0 0 1.3-7.9c-0.32-5.42-2.4-10.2-5.57-14.52-3.69-5-8.29-9.04-13.62-12.22-1.69-1.01-3.48-1.85-5.22-2.7zm-30.1 38.58a15.31 15.31 0 0 1-4.22 3.9c-1.78 1.12-3.7 2.05-5.82 1.88-3.37-0.26-6.56-1.19-9.23-3.37 0.11 5.93 0.18 11.77 0.42 17.6 0.1 2.38 0.71 4.69 1.97 6.77a5.38 5.38 0 0 0 5.8 2.68c6.64-1.04 10.96-4.88 13.04-11.23s0.4-12.35-1.95-18.23z" fill="#fe898a" stroke-width=".19499"/></g></svg>
