<?xml version="1.0" encoding="UTF-8"?>
<!-- Created with Vectornator (http://vectornator.io/) -->
<svg clip-rule="evenodd" stroke-linecap="round" stroke-linejoin="round" stroke-miterlimit="10" version="1.1" viewBox="0 0 2048 2048" xml:space="preserve" xmlns="http://www.w3.org/2000/svg" xmlns:xlink="http://www.w3.org/1999/xlink">

<clipPath id="ArtboardFrame">
<rect width="2048" height="2048"/>
</clipPath>

<g transform="matrix(5.1733 0 0 5.1733 40.749 158.63)"><path d="m137.8 0.2c-8.5 1.3-13.7 8.8-11.2 16.3a35.5 35.5 0 0 0 3.7 7.2 18 18 0 0 0 1.8 2l1.3 1.4h-5.4c-8.6 0-13 1.1-18.8 5-6.2 4-8.6 10-6.1 15.4 3.1 6.8 13.2 9.9 26.4 8 0.7 0 0.5 0.1-1.7 1.5a74.4 74.4 0 0 0-12 8.4 21.7 21.7 0 0 0-2.7 2.3 38.3 38.3 0 0 0-3.8 3.2 139.5 139.5 0 0 1-3.5 3.1l-2.7 2.5a490.4 490.4 0 0 0-17.1 17.5l-1.4 1.5a371.6 371.6 0 0 0-12 14.9 41.7 41.7 0 0 0-3.1 4.2 990.4 990.4 0 0 1-8.8 13.2 287.8 287.8 0 0 0-8 13.2 169 169 0 0 0-12.3 28.5 594.2 594.2 0 0 1-1.6 5.7l-0.9 3.5c-2.7 11-4 23-4 37.4v8.4l-0.6-0.5a61.2 61.2 0 0 1-6.3-6.7c-0.8-1-4.3-6.7-5-8-1.7-3.4-3.6-3.2-5.9 0.5a27 27 0 0 1-1.8 2.5 18.7 18.7 0 0 0-1.9 2.4l-0.6 0.8a18 18 0 0 1-1.4 1.8c-1.8 2.1-1.6 2.8 2.2 6a189.8 189.8 0 0 1 2.7 2.2l1.3 1a53.4 53.4 0 0 0 14.7 7.6 52.8 52.8 0 0 1-22.3-8.6c-1-1.1-3.9-2.4-5-2.4-1 0-2.3 1-2.3 1.6l-0.2 1.9a588 588 0 0 0-1.5 13.8c-0.1 1.8 0.5 2.8 1.9 3.2a102.5 102.5 0 0 0 20.7 1l-0.7 0.4-0.4 0.1c-1.2 0-7.4 3.8-10 6l-1.5 1.3c-1.5 1.4-1.3 3.3 0.8 6 1.2 1.5 2.5 3.3 3 4.2 1.7 3 3 3 5.3-0.3a35.3 35.3 0 0 1 2.8-3.7c3.3-4.3 8.8-7.8 13.5-8.6 1.7-0.3 1.7-0.3 2 1a117.9 117.9 0 0 0 6.4 21.4l1.3 3.2a129.3 129.3 0 0 0 33 45.6 54.8 54.8 0 0 0 5.6 4.4c0.1 0.2 0.5 0.4 5.7 4a160.1 160.1 0 0 0 39.1 19c7.6 2.5 14.9 4.3 28.5 7a505.8 505.8 0 0 0 37.8 5.8 150.2 150.2 0 0 0 30.2 0.7 102 102 0 0 0 21.1-4.1 123.7 123.7 0 0 0 14-4.3l9.6-3.8a80.8 80.8 0 0 0 20.7-11.6s0.7-0.6 1.5-1l1.6-1.2 1.5-1 1.6-1.1s0.7-0.6 1.5-1a42.7 42.7 0 0 0 6.3-4.7l2-1.6c1.9-1.5 3.3-2.8 7.4-6.6a261.9 261.9 0 0 0 18-19.1l0.6-0.8 1.1-1.5a101.7 101.7 0 0 1 4.1-5.6 131.4 131.4 0 0 0 24-60.9c2.5-17.7 0-45.8-5.4-63.7a181.5 181.5 0 0 0-69.4-93.4c-0.9-0.5-1.7-1-1.8-1.2a238.2 238.2 0 0 0-38.3-21.6 190 190 0 0 0-38.8-9.7c-7-1.2-8.9-1.3-18.5-1.3h-8.6l-0.8-2.8a54.8 54.8 0 0 0-13-23.4l-1.5-1.7c-8.5-9.6-18.8-14.4-27.7-13.2m6.6 4c13.4 2.8 27.6 19 32.9 37.6 1 3.4 0 3 8.5 3 10.1 0.2 14.3 0.4 20.4 1.4 29 4.7 41.8 9.3 64.9 23.2a182.7 182.7 0 0 1 59.1 54.7c19 28.8 26.6 51.2 28.3 83.7 1.9 33.5-8.2 63.9-30.4 91.7-6 7.5-17.9 19.4-25 25.1a307.1 307.1 0 0 1-26 17.7 153.7 153.7 0 0 1-37.3 13.5 53 53 0 0 1-13 2.3l-6.7 0.7a78 78 0 0 1-13 0.2 516.4 516.4 0 0 1-66.2-10.8c-28.2-7-56.1-23-71.5-40.9-21.6-25-32.1-55.8-31.7-92.9 0.4-36.3 10.7-64.5 36.5-99.7 15.7-21.6 41.7-47 54.6-53.6 1-0.4 2.7-1.4 4-2.2a82.8 82.8 0 0 1 17.2-7.8c1.8-0.5 2.5-2 1.4-3.2-0.7-0.6-1.7-0.5-4.5 0.3-1 0.4-3.1 0.9-4.7 1.1l-6 1.2c-18 3.8-30.1 0.8-30.1-7.4 0-9.5 19.8-15.8 33.3-10.7a35.2 35.2 0 0 1 6.6 2.8c2.7 1.5 9.1 4.7 11.7 5.9 2.5 1.2 3.7 0.9 3.7-1 0-1-0.7-1.5-6.6-4.4-17.1-8.5-22.8-13.3-24.7-20.8-1.8-7.1 5.4-12.6 14.3-10.7m30.3 172.6c-0.7 0.5-0.5-0.6-3.5 20.2-2.5 17.2-2.6 17.9-2.3 18.5 0.5 1 0.3 1 13.5 2.6a702 702 0 0 1 11.8 1.5l-0.3 1.6a26.3 26.3 0 0 0 19.8 32.2c0.4 0.1 0.5 0.2 0.3 0.4-4.8 6-7.4 10.2-10 16-2 4.6-1.7 5.3 1.7 5.1l5.5-0.2 3.5-0.1 0.7 1.2c4.8 8.6 24.2 28.4 27.8 28.4 6.4 0 27.6-14.5 34.5-23.5l0.4-0.6 3.7 0.7c9.4 1.7 17.1 3.7 23.9 6 5.8 2 6.2 1.7 5.4-4.7-1.4-10.9-12.3-25-26-33.6-1-0.7-1-0.6 0.2-1.4 3.5-2.3 6.2-6.5 7.4-11.7a31.1 31.1 0 0 0-0.7-11.9l15.6-0.7c8.4-0.4 8.6-0.4 9-1 0.9-0.9 1.1 0.6-4.9-26.7-2.3-10.5-2.4-11-3.3-11.3-0.8-0.3-0.5-0.4-15 3.7l-46 13-2.8 0.7-34.2-12.4c-35.2-12.8-34.9-12.7-35.7-12m35.8 44.7 12.5 1.5-0.4 0.6c-3.1 4 0.5 9.6 6.2 9.6 4.9 0 7.5-4.3 4.9-8.1-0.4-0.5-0.4-0.7-0.2-0.7 0.4-0.1 11.3 1.3 11.5 1.5s-0.2 2.7-0.7 4.1c-0.8 2.2-1 2.4-2.6 3a68.7 68.7 0 0 0-23.5 16.2l-1.1 1.1-2-0.3c-12.8-2-20.8-14.4-18-28l0.6-2.2 12.7 1.6m78.1 3.1c2.8 7.6-0.1 17-6.4 20.3l-1 0.6c-0.3 0.2-0.9 0-3-1.3-9.2-5.3-20.2-9.8-30.2-12.4l-0.8-0.2 0.4-1.2c0.2-0.6 0.5-2 0.5-3.1 0.1-2.2 0-2 3-2.1 1.9-0.1 2 0 1.8 0.3-0.7 2.5-0.4 4.3 1.3 6 4.5 4.3 12.9-0.3 10.9-6l-0.2-0.9c1.3-0.1 19.4-1 21-0.9h2.4l0.3 1m-38.5 11.2c30.1 8.8 54.6 28.4 57.6 46 0.4 2.4 0.5 2.3-1.7 1.4a143 143 0 0 0-27-6.6l-10.4-1.9c-12-2.2-25.8-3.3-41.1-3.3l-10.7-0.2c-3-0.2-5.5-0.2-7 0-2.7 0.1-2.7 0.4-1-3a68.6 68.6 0 0 1 37-32.9c1-0.4 1.6-0.3 4.3 0.5m-214 6.8c0 0.2-0.3 0.3-0.9 0.3-1 0-1.1-0.1-0.5-0.4 0.6-0.2 1.2-0.2 1.3 0.1m197.6 32.4c14.3 0.4 23 1.2 33.3 3 8.7 1.6 8 1.2 6 3.4a92 92 0 0 1-28.2 19l-1.6 0.6-1-0.7a178 178 0 0 1-23-25.1c-0.2-0.4 3.5-0.5 14.5-0.2" fill="#040404" fill-rule="evenodd"/><path transform="translate(-18.2,-17.8)" d="m220.4 290.9-2.4 0.2a89.7 89.7 0 0 0-50.6 24.1 66.6 66.6 0 0 0-3.8 3.2c-0.3 0 0.2-7.5 0.7-10s-1-3.3-3.5-1.8c-4.6 2.8-9 7.1-14.8 14.5a4105.3 4105.3 0 0 1-8.5 10.8 38 38 0 0 1-0.5-6.6c0.6-6-6.6-0.7-16.9 12.6-3 3.8-6.2 8.3-6.2 8.6 0 0.9 15.2 8.7 24 12.3 18.3 7.5 45.2 13.2 80.8 17l6.3 0.8a82.1 82.1 0 0 0 20.7-1 48 48 0 0 0 12.1-2.2l4.8-1.3a101 101 0 0 0 19.3-6.2c13.5-5.4 14-5.8 31.7-18a136.5 136.5 0 0 0 15.6-12.6l0.6-0.5-0.5-1c-1.6-3.4-3.4-4.8-4.8-3.8-0.4 0.3-0.5 0.2-0.7-0.5-1.6-4.9-7.3-12.9-9.4-13.2-1.5-0.3-2 0.5-2.3 4.1l-0.3 2.4-1.4-2a93.2 93.2 0 0 0-15.2-18l-1.7-1.5-1.4 1.5a88 88 0 0 1-27 18.4c-3.4 1.4-4.2 1.3-6.7-0.4a143.2 143.2 0 0 1-22-22.8 40 40 0 0 1-3.3-5c-0.1-0.5-2.8-0.5-8.8-0.1-2.5 0.2-3.6-0.4-3.6-1.8 0-0.2 0-0.2-0.3-0.2z" fill="#dbc6aa"/><g fill-rule="evenodd"><path d="m138.6 4h0.7-0.7m3.5 0c0.2 0.1 0.6 0.1 0.8 0h-0.8m-10.2 3.2-0.6 0.7 1.4-1.4-0.8 0.7m28.9 6.9 1.8 1.7-1.6-1.7-1.9-1.8 1.7 1.8m6.5 7.8 0.5 0.6s0-0.3-0.3-0.6l-0.5-0.6s0 0.3 0.3 0.6m-40.3 9h1.6c0.4-0.1 0-0.2-0.8-0.2-0.9 0-1.2 0-0.8 0.1m-3.1 0.2h0.9-0.9m7.2 0h1.4-1.4m22.5 4.2 1 0.3-0.6-0.3-0.9-0.4 0.5 0.4m-45.2 2.4-1 1 1-1c1-0.9 1.2-1 1-1l-1 1m-2.4 5.4c0 0.6 0 0.9 0.1 0.5v-1.2 0.7m74.6 1.8h1.2l-0.6-0.1h-0.6m15.2 0.5h1.4c0.4 0 0.1-0.1-0.7-0.1h-0.7m3.1 0.3h1l-0.6-0.1h-0.4m2.2 0.3h0.8c0.2-0.1 0-0.1-0.4-0.1h-0.4m-72.7 6.1h0.7-0.7m-2 0.2h1-1m142.7 16.5c0.2 0.2-0.6 0.3-2 1.8-16.2 16.8-7.2 46.2 18 52.4 11.7 2.8 28-2.3 35.8-9.1 0.4-0.4 0.5-1.2 0.6-1 0.2 0-0.4-0.7-1.3-1.8a179.3 179.3 0 0 0-36.5-33 173 173 0 0 0-14.6-9.3m-159 6.8-0.6 0.7 0.7-0.7c0.7-0.6 0.8-0.8 0.7-0.8 0 0-0.4 0.3-0.7 0.8m-1.5 1.2-0.6 0.7 0.7-0.6 0.6-0.7c0-0.1-0.2 0-0.7 0.6m-2.2 2-0.8 0.9 1-0.9 0.7-0.9-1 1m-2.9 2.7-1.2 1.3 1.3-1.2m-9.4 9.3-1.3 1.4 2.6-2.6-1.3 1.3m-2.5 2.6-0.6 0.7 0.7-0.6 0.6-0.7c0-0.1-0.2 0-0.7 0.6m-1.8 2-0.7 0.8 1.4-1.4c0-0.2-0.1 0-0.7 0.7m-3 3.2-0.6 0.6 0.7-0.5 0.6-0.7-0.7 0.6m88.6 38.5c0 0.3 4.8 3.4 8.6 5a47 47 0 0 1 9 4.7c7 4.5 17.2 9.1 27.2 13.2a73.3 73.3 0 0 0 62.5-2.1 69.2 69.2 0 0 1 15.8-5.7c3.6-1 5.9-2.2 6-2.4 0.3-0.2-2.8-1.3-3.4-1.2-0.2 0-1.9-0.5-4.1-0.4a69 69 0 0 0-22 3.4c-23.7 7.7-31.6 8.4-52.4-0.2-2.7-1-7.3-2.8-9.8-3.6-4.5-1.5-8-2.6-11.8-4.3a58.7 58.7 0 0 0-9.7-3l-5.8-1.7a39.8 39.8 0 0 0-9.8-2.3m168.3 12.3c0 0.1 0.1 0.5 0.3 0.7l0.2 0.3c0-0.1 0-0.4-0.2-0.7l-0.3-0.3m-282 6.3c-9.8 1.8-9.8 25.5-0.9 29.9 9 4.4 24.5-12.7 19.6-21.5-2-3.5-14.7-9-18.6-8.4m96.5 7.4c-0.2 0.3-0.3 2.2 0.2 2.4 0.3 0 2.4-0.2 3.2 0.1 0.7 0.4 1.4 1 1.7 1 0.4 0 3.9 1 7 2 1.1 0.3 4 2 6.5 3 2.4 0.9 5.4 1.2 6.8 1.7 3.4 1.2 4.4 3 9.2 5.4 2.9 1.4 5.4 1.5 8.7 2.6l8.8 3c3.8 1.3 6.9 1.8 15.4 3.8 2.1 0.5 5.4 1 7 1.5a70 70 0 0 0 20.5 2.8c6.4 0 7 0.2 12.6-0.7 1.4-0.2 5-1.2 8.5-2a50 50 0 0 0 7.9-2c1.4-0.6 4.3-1 6.3-1.6a853 853 0 0 0 26.1-8.9c2.4-0.8 6.2-1.5 7.5-2 1.4-0.5 3-1.6 4.5-2 2.6-0.9 7.3-4.2 8.2-4.9 0.6-0.4-0.6-1.5-2-1.3l-5.6 0.4c-4.6 0.4-7 0.7-15.5 2l-5.7 1.3c-41.5 9.4-56 10.1-74.5 6.7-14.6-2.7-18.7-3.2-24.8-4.8-7-2-16-6-19.5-6.7-1.9-0.4-5.4 0.2-9-0.7-3.7-0.9-7.5-1.9-8.9-2.1-3.4-0.5-8.4-1.6-9-1.8-0.4 0-2.2 1.1-2.4 1.3m-66.5 4.4c-12.7 1.7-20.8 24.7-12.7 37.1 10.7 16.2 37.3 10 38.4-8.3 0.8-13.5-13.6-30.5-25.8-28.8m-51.6 19.7c-5 25.4-3 56.8 5 79.7 2.8 8 8.6 20.3 9.3 19.8 15.4-3 23-16.9 27.7-31.3 10.5-32.5-9.8-67.7-39.7-70.1-1.3-0.1-1.7-0.2-1.7-0.5l-0.6 2.4m317 9c0.1 0.5 0.1 0.6 0.2 0.4v-0.8l-0.1 0.4m0.2 2v0.3c0.1-0.2 0.1-0.6 0-0.8v0.5m0.2 2v0.3c0.1-0.3 0.1-0.6 0-0.8v0.4m0.2 2.4v0.4-1 0.6m0.2 2.5v0.5-1.1 0.6m0.2 3.2v0.8-1.5 0.7m0.2 4.3v1-2 1m-186.4 5.7h0.7-0.7m1.6 0.2h0.7-0.7m5.4 3.3c-12.6 25.4 4.2 48 29.4 39.7l1.7-1.4 1.6-2.1 2-2.6c0.3-0.5 0.3-0.5-0.2-0.6a26.3 26.3 0 0 1-19.8-32.2l0.3-1.6-12.7-1.6c-0.2 0-1 0-1.8 1.6m178.9 1.8v1-2.1 1m-46 1.3h1.5-1.5m-4.2 0.2h1.8-1.9m-4.2 0.2h1.8-1.9m-8.7 0.3c-1.8 0-3.3 0.2-3.3 0.2l0.5 1.9c0.6 2.2 0.7 8 0.2 10-1.2 5.2-4 9.4-7.4 11.7-1.2 0.8-1.2 0.7-0.1 1.4a110.8 110.8 0 0 1 9.1 7c-0.2-0.3 0.3 0 1-1 7-9.4 10.8-21.6 6.8-29.4l-2.4-1.8 1.3-0.1h-5.7m-11.5 0.6h0.6l-0.3-0.1h-0.3m-4.5 0.3h0.7l-0.4-0.1h-0.3m79 1.3c0 0.6 0.1 0.8 0.2 0.5v-1l-0.1 0.5m-0.2 2.3v0.5-0.9 0.4m-123.5 0.7c0 0.5 0 0.6 0.1 0.4v-0.8 0.4m123.2 1.3v0.3-0.6 0.3m-208.3 0.3c-11 2.2-15.8 19.7-7 29.1 9.1 9.6 25.8 5.2 27.2-7.5 1.3-11.6-10-24.2-20.5-22m140.2 1.6c0 0.5 0 0.7 0.1 0.4v-1 0.6m21.1 10.4c-7.8 3.2-7.5 20-0.2 23.5 6.6 3 15.3-8.3 13-17.3-1.3-5-10.7-8.2-14.6-6.6m-88.6 6-0.7 0.8 0.8-0.7 0.7-0.7c0-0.2-0.2 0-0.8 0.6m0.8 4.1-1.8 2 1.9-2m71.8 8.1 0.6 0.7 0.7 0.6-0.6-0.7-0.7-0.6m3.6 3.7 0.9 0.8-0.7-0.8-0.9-0.8 0.7 0.8m-87.4 8.3h0.7-0.7m6.1 0h0.7-0.7m4.4 0.2h1.3-1.3m15.7 0.2h1-1m5 0.2h0.9-0.9m4.2 0.2h0.7-0.7m-24 3h1c0.3-0.1 0.1-0.1-0.5-0.1h-0.5m15.3 0.2h0.9-0.9m4.9 0.2h0.8-0.8m70.2 7.1v0.4-0.7 0.3m-35.4 0.6-0.7 0.7 0.8-0.7c0.6-0.6 0.8-0.8 0.6-0.8l-0.7 0.8m35.6 2v0.7-1.5 0.8m-38 0.4-1.4 1.4 1.4-1.3 1.4-1.5-1.4 1.4m-43.7 2.8 0.8 0.7-0.6-0.7-0.8-0.7 0.6 0.7m105.9 1-0.3 0.6 0.5-0.5 0.3-0.6s-0.3 0.2-0.5 0.6m-99.8 5-2-2 2 2m-5.3-0.3 1.3 1.3-1.1-1.3-1.4-1.2 1.2 1.2m6.2 6.1 0.8 0.7-0.6-0.7-0.7-0.7 0.5 0.7m87.4 4-0.5 0.7 0.6-0.6c0.6-0.5 0.7-0.7 0.6-0.7l-0.7 0.7m-1.6 1.8-0.7 0.7 0.7-0.6c0.7-0.7 0.9-0.8 0.7-0.8l-0.7 0.7m-4.2 4.4-1.8 1.8 1.8-1.7m-246.7-0.7 1 1-0.8-1-1-1 0.8 1m3.8 3.8 1.4 1.2-2.5-2.5 1.1 1.3m238.4 1.3-1.8 1.8 1.8-1.7a44.6 44.6 0 0 0 0-0.1m-236 0.8 1.2 1.2-0.5-0.6c-0.6-0.6-0.7-0.8-0.7-0.6m233 2.2-0.7 0.8 1.4-1.4c0-0.2-0.1 0-0.7 0.6m-102.1 41.2h0.6-0.6m8 0h0.7-0.7" fill="#742b33"/><path d="m138.4 4.1c-6.3 1-9.7 5.8-8 11.3 2.3 7.5 7.5 11.8 24.1 20l6.5 3.6c1 1.2 0.3 3.1-1.3 3.1-0.5 0-7.4-3.3-12.5-6-7.7-4-11.3-5-18.9-5-12.7 0-22 5-22 12 0 8.2 12 11.2 29.8 7.4a212.3 212.3 0 0 1 10.6-2.2c3.1-1.1 4.5-1.1 5 0 0.9 1.6 0.1 2.5-2.7 3.3-3.6 1-10.3 4.2-15.4 7.1l-4.6 2.6c-3.7 2-4.9 2.7-10 6.8a279.8 279.8 0 0 0-10.4 8.7 257 257 0 0 0-39.5 45.4c-15.8 23.6-23 39.2-27.6 58.7-0.8 3.4-0.9 3.1 1.1 3.3a44.3 44.3 0 0 1 35.4 24.8 58.6 58.6 0 0 1-23 76.4c-0.6 0-0.4 0.5 0.9 2.7a111 111 0 0 0 39.1 40.4c0.4 0.2 0.6 0 2-2a85 85 0 0 1 19.5-21.4c1.6-0.8 2.7 0.4 2.5 2.4-0.1 1 0.2 5.8 0.5 6 0 0.1 0.6-0.4 1.1-1.2 12-16.5 22.3-26.4 25.1-24 0.7 0.6 0.7 0.8 0.3 4.5a100 100 0 0 0-0.5 5.1l-0.1 2.6 1-1a142.4 142.4 0 0 1 6.3-5.2 90.3 90.3 0 0 1 50-21.5l1.2-3a62.7 62.7 0 0 1 6-11l-1.8 0.6c-24.6 8.3-40.6-14-28-39.2l1-2.1-5.5-0.8c-8.2-1-7.5 0.4-5.7-12.5l2.7-18.2c1.5-10.3 1.4-10.3 3.2-10.3 0.3 0 15.9 5.6 34.6 12.4s34 12.3 34.3 12.3l14.9-4.1 26.5-7.4c6.5-1.8 13.8-4 16.3-4.6 7.3-2 6.6-2.7 8.6 6.6 7.3 33 7 30.5 4.2 31-0.8 0.1-13.6 0.8-15.2 0.7-0.2 0 0 0.4 0.3 1.2 4 7.8 1.7 20.2-5.4 29.7l-0.8 1 3.1 3.1c9.2 9 13.8 17.5 14.2 26.5 0.2 3.8-0.4 4.1-4.5 2.6-6.8-2.5-16-4.8-26-6.6l-2.8-0.5-0.4 0.7-1.5 1.6-0.9 1 1 0.8a92.8 92.8 0 0 1 15.8 18.3l1.3 2.1 0.2-1 0.2-2.2c0.3-3 1.3-4 3.3-2.8 2.2 1.3 7 8.4 8.5 12.7 0.3 0.7 0.6 1 0.9 0.5 0.7-1.1 2.8 0.4 4.2 3.1l1 1.8 2-1.9a217.7 217.7 0 0 0 15-16.3l3.5-4.7 3.5-5a133 133 0 0 0 20.7-49.2c5-25.1 1.5-59-8.5-83-6-14.3-19-36.3-26.3-44.3-0.1 0-0.5 0.1-1 0.5a40.8 40.8 0 0 1-34 6.9c-25-6.1-35.2-32.4-19-49.3 2.1-2.2 2.2-1.8-0.2-3.2a135.8 135.8 0 0 0-51-19.2c-14.6-2.7-16.7-2.9-30.2-3-9-0.2-8 0.3-9.3-4.2-2.7-9-6-15-13.2-23.7-7.4-9-17.6-14.2-25.3-13m42 133.7 5 1.4 5.8 1.5c3.3 0.8 6.3 1.8 9.2 3.1 3.9 1.7 7.3 3 11.7 4.5l9.6 3.5c20.7 8.6 30 8.7 53.7 1a65.5 65.5 0 0 1 21.5-3.7c2.3 0 4.3-0.2 4.6-0.3 0.6 0 3 0.5 2.8 0.7s-2.3 0.8-6 1.7c-5 1.2-8.4 2.5-15.8 6-21 10-40.9 10.6-62.2 2-10-4.2-19.8-9.1-26.7-13.6a50.8 50.8 0 0 0-9.3-4.6c-7.6-3.2-9.3-4.6-3.9-3.2m-108.7 21.7a10.2 10.2 0 0 1 2.4 18c-6.2 4.1-14.4 0.7-15.8-6.5-1.4-7.5 6-14 13.4-11.5m91.9 3.5 4.8 0.8c1.4 0.2 5.5 1.1 9.2 2l10 2.4c3.5 0.7 12.2 3 19.3 4.9 6 1.6 10.7 2.6 25.3 5.3 18.4 3.4 33.2 2 74.7-7.5l5.3-1a209.5 209.5 0 0 1 22.6-2.5 54 54 0 0 1-8.4 3.5 160.4 160.4 0 0 0-12 4.2 938.8 938.8 0 0 1-39.7 12.6c-3.5 1-7.3 1.8-8.8 2a55 55 0 0 1-12 1c-7.9 0-11.9-0.6-20-2.7l-7-1.7a127.9 127.9 0 0 1-23.5-7c-3.3-1-5.7-2-8.6-3.4a92.9 92.9 0 0 0-10.2-4.4 320 320 0 0 1-13.3-5 81.4 81.4 0 0 0-9-2.5l-2-0.8c-0.6-0.3-0.2-0.9 0.5-0.7l2.8 0.5m-65.6 7.5c13 3 21.3 19.3 15.8 31.1-7 15-28.5 10.5-34.3-7.2-4.6-14 5.3-26.9 18.5-23.9m57.9 60c10.5 2.8 16.4 16.7 11 25.9-6 10.2-20.5 8-26.2-4-5.7-12.2 3.2-25.2 15.2-22m161.3 12c8.3 4.2 5.1 21.9-3.9 21.9-7.5 0-10.4-12-4.7-19.4 2.2-3 5.8-4 8.6-2.6" fill="#bb143b"/><path d="m244.4 236a69.9 69.9 0 0 0-36 33c-0.9 1.9-1 2.4-0.6 2.2 1-0.4 32 0.2 39.5 0.8a212.5 212.5 0 0 1 30.7 4.4 150 150 0 0 1 26.6 6.4c3.3 1.2 3 1.3 2.7-1.1-3-17.6-28.4-37.6-58.4-46l-2.2-0.5-2.3 0.7m-24.7 40.1a188 188 0 0 0 21.7 23.7l1.5 1.2 1.6-0.6a85.2 85.2 0 0 0 29.6-20.7 210.7 210.7 0 0 0-46.3-4.5l-8.8-0.2 0.7 1.1" fill="#ebb32b"/><path d="m218.8 253.8-0.6 0.6 0.6-0.6c0.6-0.5 0.7-0.7 0.6-0.7l-0.6 0.7m76.4 7.6 0.8 0.7-0.6-0.7-0.7-0.7 0.5 0.7m-87 9.8h0.7-0.7m8.5 0h0.9-0.9m20.7 0.4h1.3-1.3m4.9 0.2h1.1-1.1m3.7 0.2h0.8-0.8m2.7 0.2h0.8-0.8m-29.4 2.7h0.7-0.7m13.7 0.2h1.8-1.9m5.6 0.2h1.4-1.4m4.7 0.2h1.2-1.2m3.6 0.2h0.7-0.7m2.5 0.2h0.8-0.8m22.6 6.2-1 1 2-2-1 1m-43.9 4.3 0.7 0.6 0.6 0.6-0.6-0.6c-0.5-0.6-0.7-0.8-0.7-0.6m3.7 3.8 1.4 1.4-1.2-1.4-1.5-1.3 1.3 1.3m7.3 7.6 0.7 0.6-0.5-0.6-0.8-0.7 0.6 0.7m-24 61.2h0.9-0.9" fill="#aa7647"/><path d="m197.6 220.3c0 0.2 0 0.2 0.1 0.1s0.3-0.3 0.5-0.3c0.2-0.1 0.1-0.1-0.2-0.2-0.3 0-0.4 0.1-0.4 0.4m87.3 3.5h0.7l-0.3-0.1h-0.4m-4.4 0.3h0.8l-0.4-0.1h-0.4m-4.5 0.3h0.8l-0.4-0.1h-0.4m-4.2 0.3h0.7l-0.4-0.1h-0.3m-4.5 0.3h0.7c0.2-0.1 0-0.1-0.4-0.1h-0.3m-17.5 0.8h0.7-0.7m-1.6 1.2c0 0.6 0 0.9 0.1 0.5v-1.2 0.7m-51.6 1v0.7-1.6 0.8m31.9 6.1h0.9-0.9m-20.6 41.5h0.8-0.8m-2.6 0.2h1.2-1.2m17.7 11.3 1.2 1.2-0.5-0.6c-0.6-0.6-0.7-0.8-0.7-0.6m47.5 1.5-0.8 0.9 0.9-0.8c0.7-0.7 0.9-0.9 0.7-0.9l-0.8 0.8m-43.4 3c0.8 0.8 1 1 1 0.8l-2-1.8 1 1m-92.6 4.1-1.4 1.5 1.6-1.5 1.3-1.4-1.5 1.4m99.5 2.9 1.8 1.7c0.1 0-0.6-0.8-1.6-1.7l-1.9-1.8 1.7 1.8m75.7 20.6-0.7 0.7 0.7-0.6c0.7-0.7 0.9-0.8 0.7-0.8l-0.7 0.7m-3.8 3.4-0.6 0.7 0.6-0.6c0.6-0.5 0.7-0.7 0.6-0.7l-0.6 0.6m-111.8 35.7h0.7l-0.3-0.1h-0.4m1.6 0.3h0.7l-0.4-0.1h-0.3m1.7 0.3h0.7c0.2-0.1 0-0.1-0.3-0.1h-0.4m1.9 0.3h0.8c0.2-0.1 0-0.1-0.5-0.1h-0.3m2 0.2h0.7-0.8m1.9 0.2h0.7-0.7m6.6 0.6h0.7-0.7" fill="#9f8484"/><path d="m279 287 1.6 1.5-1.5-1.6-1.6-1.5 1.4 1.5m4.5 4.7 0.9 0.8-0.7-0.8-0.8-0.8 0.6 0.8m-138 4.6c0 0.5 0.1 0.7 0.2 0.4v-1l-0.1 0.6" fill="#c4495c"/><path d="m281.3 289.3 0.8 0.7-0.6-0.7-0.9-0.8 0.7 0.8m-130 6-0.5 0.7 0.6-0.6 0.7-0.6c0-0.2-0.2 0-0.7 0.6m-43 16.7-0.8 0.7 0.8-0.7c0.7-0.6 0.8-0.8 0.6-0.8l-0.7 0.8" fill="#c43e53"/><path transform="translate(-18.2,-17.8)" d="m216.7 238h-0.3l-0.4 0.1-0.1 0.2v0.3a26 26 0 0 0 0.3 14.3 23.6 23.6 0 0 0 6 9.5 21.4 21.4 0 0 0 10.1 5.2l1.8 0.3h1c0.4-0.1 0.6-0.3 1-0.6l1.3-1.3a69.6 69.6 0 0 1 23.2-15.6l1-0.6 0.5-0.6 0.2-0.6 0.4-1.3a15.7 15.7 0 0 0 0.6-3.6l-11.5-1.4s0 0.3 0.3 0.6a4.6 4.6 0 0 1 1 2.2 5.2 5.2 0 0 1-0.2 2.4 5.6 5.6 0 0 1-1.2 2 5 5 0 0 1-2 1.4 7.6 7.6 0 0 1-5.7-0.4 8.4 8.4 0 0 1-3.3-2.6 6.7 6.7 0 0 1-0.8-1.7 5.2 5.2 0 0 1-0.3-1.9 4.5 4.5 0 0 1 0.6-1.8l0.6-0.9 0.3-0.4-0.2-0.2-0.7-0.2-11.3-1.4-8-1a69.8 69.8 0 0 0-4.2-0.4zm89.7 3.4h-1a1555.4 1555.4 0 0 0-22.1 1l0.2 1a5.1 5.1 0 0 1-0.1 3.5 7 7 0 0 1-3.8 3.6 7.3 7.3 0 0 1-3.7 0.4 6.6 6.6 0 0 1-3.6-1.7 6 6 0 0 1-1.5-2.6 5 5 0 0 1-0.1-1.9l0.2-1 0.2-0.4c0-0.1 0-0.2-0.2-0.3h-2.1l-2.1 0.2-0.2 1.7a20.5 20.5 0 0 1-0.7 4.3l0.3 0.2 1.6 0.5a92.8 92.8 0 0 1 15.2 5.3 137.6 137.6 0 0 1 16.3 8h0.2l1.1-0.7a10 10 0 0 0 3-2.2 13 13 0 0 0 2.2-3.2 17.2 17.2 0 0 0 1.8-5.4 19.6 19.6 0 0 0-0.6-8.8z" fill="#fff"/></g></g></svg>
