<?xml version="1.0" encoding="UTF-8"?>
<!-- Created with Vectornator (http://vectornator.io/) -->
<svg clip-rule="evenodd" stroke-linecap="round" stroke-linejoin="round" stroke-miterlimit="10" version="1.1" viewBox="0 0 2048 2048" xml:space="preserve" xmlns="http://www.w3.org/2000/svg" xmlns:xlink="http://www.w3.org/1999/xlink">

<clipPath id="ArtboardFrame">
<rect width="2048" height="2048"/>
</clipPath>

<g transform="matrix(5.0917 0 0 5.0917 90.438 482.77)" fill-rule="evenodd"><path d="m298 13c-0.1 0.4 1.8 4 2.2 4.4 0.4 0.5 0.3 0.1-0.7-1.9s-1.6-2.8-1.6-2.4m-10.9 54.9a156.3 156.3 0 0 1-24.9 45.9l-3.1 4.3-1.7 2.1-2.1 2.3-2.7 3a83.5 83.5 0 0 0-6.6 7.8c-0.6 1 1 0.3 3.7-1.4 2.5-1.5 3.2-2 9.4-7.8a388.4 388.4 0 0 0 21.5-22 70.4 70.4 0 0 0 4.7-6 99 99 0 0 0 13.3-23.6c2.3-6.1 2.5-6.9 1.9-6.7-4.8 1.2-9.4 0.8-11.4-1l-0.8-0.6-1.2 3.7m30.4 0.4c-5 9.2-12.8 20.2-20.3 28.5a203 203 0 0 1-20.2 19.6 923.6 923.6 0 0 0-15.2 10.8 79.2 79.2 0 0 0 15-7 163.3 163.3 0 0 0 43-37.2l2.1-2.7 4.5-6.2 0.7-1.1-1.2-0.2c-5-0.5-6.7-1.8-7.6-5.6l-0.8 1.1m-62.8 67.3c-6 2.8-11.4 3-12.5 0.3l-0.3-0.7-1.3 0.1c-7.1 0.7-23 3.2-25.2 4-0.1 0 0 0.5 0.6 1.4 13 20-5.1 47.7-27.6 42l-1.4-0.3-1 1c-1.8 1.9-4.4 0.3-3.1-2 0.3-0.6 0.3-0.6-0.7-1.2-0.5-0.2-1.2-0.7-1.5-1-1-0.6-1-0.6-1.8 0-1.4 1.4-3 1.4-3.7 0.2-0.5-1-0.3-1.8 0.9-2.9l0.6-0.5-1-1.4-1.3-1.7c-0.2-0.3-0.3-0.3-1.4 0.4-1.5 1-2.5 1-3.3 0.3-1.1-1.2-0.8-2.3 1.2-3.6 1.3-1 1.3-0.7 0.6-2.3a29 29 0 0 1-1.7-14.6c-0.1-0.1-11.3 4.8-14.4 6.4l-0.8 0.4 0.4 0.4c0.7 0.7 0.7 1.5 0 4.6a83 83 0 0 1-6.4 21.2l1.2 2.2c4.9 10.5 12.1 15.2 32.8 21.5l3 1 0.4-1a65.6 65.6 0 0 1 29.4-26.8c1-0.3 1.2-0.4 1.2-0.8 0-1 0.7-1.3 3.7-1.4 7.5 0 17.6-3.2 20.6-6.4 1.8-1.9 2.7-1.6 9.3 2.5a35 35 0 0 0 16.6 6.5c1.5 0.2 3 0.4 3.3 0.6 1.3 0.7 1 2.7-0.5 3l-2.1 0.8-1.3 0.6 1 0.7c3.1 2.1 7 5.9 8.2 7.8l0.6 1.2 1.1-0.9c14.3-11.8 26.3-39.2 23.4-53.4l-0.2-1-2-0.5c-1.1-0.3-1.9-0.5-1.9-0.3l0.4 1.7c0.8 4.1 0.3 10.3-1.2 15-0.9 2.3-0.8 2-0.2 2.2 3 0.7 1.7 4.2-1.3 3.7-1.1-0.3-1.2-0.2-1.5 0-0.3 0.6-0.3 0.7 0.2 1 3 1.5 1.1 4.8-2 3.3-1.5-0.7-2-0.2-1 1 2 2.6-0.7 5-3 2.7l-0.8-1-1.3 0.8c-19 10.8-38.1-14-27.3-35.6l1-2h-1.7l-2 0.8m51.3 21.4c1.4 6.1 11.3 23.2 18.3 31.3 3.8 4.5 7.8 8.3 8.2 8.1l1.6-0.8c2.6-1.2 6.5-4.9 5.7-5.3l-2.7-1.4a70.8 70.8 0 0 1-11.8-8.3 97.9 97.9 0 0 1-18.5-22.6c-1-2-1.1-2-0.9-1m-155.7 5.3c-1 0.5-1 0.5-1.8 3a81.5 81.5 0 0 1-19.3 29.9 50.2 50.2 0 0 1-15.2 10.7l-2 0.9 0.8 0.3c1.7 0.8 3.6 3.1 4.3 5.4 0.6 1.6 0.9 4.3 0.6 4.7a55 55 0 0 0 12.5-11.3c12-13.9 19.6-29.4 21.2-43.4 0.1-1 0.1-1-1.1-0.2m-8 4.4c-1.2 0.7-1.4 1-1.4 1.3 0.3 1.9-5.7 9-11.2 13.4a83.9 83.9 0 0 1-37.3 18c-0.2 0 0 0.3 0.4 0.8 0.9 1 1.4 2.5 2 5 0.1 1.2 0.3 2.1 0.4 2.2 0.4 0.4 12.6-3 16.3-4.7a68 68 0 0 0 31.3-33.8c1.7-3.7 1.7-3.5-0.5-2.2m158.6 1.2c0 0.4-0.7 1.9-1.3 3.3-0.8 2-1 2.6-0.8 2.8 0.5 0.8 0.8 1.7 0.8 3 0 6.1 3.4 14.6 8.6 21.2l1.2 1.6 0.5-1c1-2.2 5.8-5.4 7.9-5.4 0.2 0-0.3-0.6-1.4-1.5a44.6 44.6 0 0 1-15-23.5l-0.2-1.3-0.3 0.8m-35.4 36.7c-3.4 1.8-12.6 5.1-18.7 6.8a96.1 96.1 0 0 0 20.2-7.4c0-0.1 0-0.2-1.5 0.6m-72.8 8.4 0.5 0.1h0.5c0-0.1-0.2-0.2-0.5-0.2h-0.5m36.4 1.7h0.7l-0.3-0.1h-0.4m-2.5 0.3h1c0.3 0 0.1-0.1-0.5-0.1h-0.5m-5.5 0.3h4.4c0.2-0.2-3.8-0.1-4.4 0m-11.7 0.4h0.7l-0.4-0.1h-0.3m7 0h1-1" fill="#5bc2fa"/><path d="m341.3 0.6c-2 1-4.3 3.8-5.9 7.2a99.3 99.3 0 0 0-6 16.7 500.2 500.2 0 0 1-8.4 27.2 145.8 145.8 0 0 1-12.5 23.7l-1 1.6-1.5-1.8c-3-3.5-2.8-3.3-2.2-5 7.2-21.5 5.2-52.2-4-61.4-2.8-2.7-5.7-3.2-7.6-1.2l-0.8 0.9c-0.4 0.4-1.2 2.3-1.6 3.7-0.7 2.6-0.7 4.4-0.8 16a91.2 91.2 0 0 1-2.4 26.1c-0.1 0.8-0.3 0.8-1.2 0a36.4 36.4 0 0 0-4.5-3.6l-1-0.8a46.9 46.9 0 0 0-4.2-3.3 203.2 203.2 0 0 0-49.5-27.4c-19-7.2-37.6-11.5-60.1-13.2a277.5 277.5 0 0 0-120.6 19.5l-2 0.9a176 176 0 0 0-27.5 15.5 203.7 203.7 0 0 1-4.3 3.5 62.4 62.4 0 0 0-6 6.2 19 19 0 0 0-4.2 21 23.2 23.2 0 0 0 5.3 7c3.5 3.3 8 5.5 17.2 8.3 9 2.9 24.4 5.5 40.3 7 10.7 0.9 9.5 0.5 12.6 3.6a148.9 148.9 0 0 0 5.3 5.3 85.2 85.2 0 0 0 4.4 5l0.8 1.1c0.1 0.3 0.3 0.5 0.4 0.5l1.2 1.6a57.3 57.3 0 0 1 7.7 17.1 175 175 0 0 1 5.3 23 437 437 0 0 0 3.8 19.4 53.6 53.6 0 0 0 5.3 14c0.6 0.9 1 1.3 1.4 1.7 0.2 0.1 0.3 0.4 0.3 0.4a65.5 65.5 0 0 1-23.9 8.2c-2.8 0.4-4.3 0.6-12.5 1.3-12.1 1-17.4 2.8-19.2 6.3-0.7 1.3-0.5 3.7 0.3 5 1.8 3.2 5 5 12 6.6a86.1 86.1 0 0 0 10.7 2.3c0.2 0.5 2.9 3 4.1 4 7 4.8 18.7 6.7 26.1 4.2a41 41 0 0 0 13.6-8 83 83 0 0 0 18-20.5c0.8-1.3 0.8-1.3 4.3-1.5l2.4-0.2 0.5 0.8a29.8 29.8 0 0 0 7.6 7.5c2 1.6 6.5 3.9 10.2 5.3l5.1 2a164.6 164.6 0 0 0 16.2 5.2c3.1 1 6 1.7 8.2 2.1 13.6 2.5 40.7 1 53.6-3 6.1-2 6.6-2.1 10.5-3.7a81.3 81.3 0 0 0 20.1-12 61.7 61.7 0 0 0 14.3-18.6c0.5-1 0.4-1.2 1 2.1a43.2 43.2 0 0 0 9.7 19 58.3 58.3 0 0 0 7.1 6.7c4.7 4.4 15.6 6.1 23.8 3.9 2.7-0.8 5.2-2.6 5.2-4 0-0.4 0.3-0.6 0.6-0.4a35.9 35.9 0 0 0 17 2c7.8-1.5 11.3-4.5 9.6-8a12.6 12.6 0 0 0-4.2-4.6c0-0.3-3-2.2-4.9-3.2-2.3-1.2-4.1-2-8.4-3.6a71 71 0 0 1-23.3-12.9 56.5 56.5 0 0 1-9.6-9.9 35.8 35.8 0 0 1-2.7-3.5l-2.3-3.3-0.4-0.5 0.7-0.3c4.1-1.6 6.6-3.4 10-7.1a24.9 24.9 0 0 0 6.5-13 53.4 53.4 0 0 0-2.3-22.4l-2-7.3c-1.2-4-4.6-11.8-7.1-16.3-1.5-2.7-1.5-2.5-0.4-3.6a99.3 99.3 0 0 0 10-12.9 139.7 139.7 0 0 0 16.5-31.4c5.3-14.1 8-27.5 7-34.7-1.2-8.5-6-13.5-10.9-11.1m3.5 3.7c4 2 4.7 12.3 1.7 24.5a148 148 0 0 1-65.2 89 103.2 103.2 0 0 1-20.2 10.2 230.3 230.3 0 0 1 16-11.5l3.1-2.6c7.5-6 21.5-21.5 28.8-32 11-15.9 16.3-28 22.8-51.3 5.6-20.2 9.5-28.1 13-26.3m-188.3 5a232 232 0 0 1 45.3 6.2c1 0.3 1.4 0.2-4 1.8-36.5 10.7-69.7 30.9-90 54.6a95.6 95.6 0 0 0-18.7 33.6l-2-2-6.6-7a248 248 0 0 1-7-7.4c-4-4.5-5-5-6.2-3.6-0.8 1-0.6 1.6 1.6 3.9l1.8 2-11.2-1c-0.4 0-0.4-0.2-0.4-0.5 0.1-0.3 0-1-0.3-1.5-5.7-14.8 4.5-47.5 21.3-67.5 3.1-3.8 2.5-3.4 7.4-4.6a265.7 265.7 0 0 1 69.1-7m139.7 1.6c6.4 4.2 9.8 25.8 7 44.4-0.8 6-1.5 8.7-4.5 17.2-5.6 16-19.6 33.9-43.3 55.2-4.2 3.8-9.8 7.4-9.8 6.3 0-0.6 3.4-4.9 6.7-8.3a165 165 0 0 0 17.3-22.7 136.9 136.9 0 0 0 20.9-48 96.1 96.1 0 0 0 2.4-27c0-12.4 0.1-13.5 1-16 0.8-1.9 1-2 2.3-1.1m-82.7 8a200.9 200.9 0 0 1 71 40l1.1 0.9-0.8 2.7c-1.5 5.4-5 15-5.6 15.6l-3.6-0.1c-4.5-0.4-22.2-0.4-27 0-41.5 3-73.1 13.4-103.6 33.9a112.2 112.2 0 0 0-38.7 41.6c0-0.6-1.6-9.7-2.3-12.6a97.5 97.5 0 0 0-10.6-29.6c-1.2-1.7-1.3-2-1-2.2l0.2-1.2c0-5.5 7.1-19.8 14.8-29.9 19.8-25.8 59.4-49.6 98.9-59.4l2.7-0.8c0.5-0.2 0.6-0.2 4.5 1m-138.5 2.6c-15.3 19-25.1 52-20 67 0.6 1.8 0.8 1.7-2.2 1.3-33.1-4.3-48-11.4-49-23.3-1.1-14.5 27.8-34 67.6-45.7l5-1.5c0.3 0 0.2 0.1-1.4 2.2m228.3 56.6 1.9 2.4-0.4 1-0.6 0.8-2.5-0.6a52 52 0 0 1-2.6-0.7l2.3-5.1c0.1 0 1 1 1.9 2.2m-33.5 3.2 6 0.4h1.8l-0.5 1.1c-1 2.2-4 7.8-5.9 10.8a252.1 252.1 0 0 1-28 37.8l-4.6 0.5a264.6 264.6 0 0 0-68 17c-21.5 8.6-43.2 21.1-43.2 24.8 0 2 2 2.6 3.3 1 0.5-0.7 3-2.6 3.1-2.4a85 85 0 0 1-16.9 13.5c-0.2 0-1.7-1.6-2.5-2.6-2-2.6-4-8.8-6-19.1l-1.1-5.1 0.6-0.6c0.3-0.3 1.1-1.8 1.8-3.2 12.7-25 39.3-46.1 76.3-60.5a220.7 220.7 0 0 1 83.8-13.3m29.7 3.6 2 0.5c1 0.6-19.3 22.7-24.5 26.8-1 0.7-0.6 0.2 1.2-1.7 6.9-7.3 14.3-17.3 18.3-24.6 0.8-1.6 0.7-1.6 3-1m17.5 13.8a95.5 95.5 0 0 1 8.6 24.8c1.6 7.3 1.8 16.3 0.3 19.8-2.7 6.5-9.4 13-14.4 13.7-0.9 0.2-0.9 0.2-2.9-3.9-1.7-3.5-3.4-8.9-2.7-8.9l5.2 1.5c6.1 1.8 6.6 1.9 7.2 1.2 2-2.2-1-3.6-16.8-7.6l-8-2.1a145.5 145.5 0 0 0-28.9-5.7c0-0.1 3-1.9 6.6-3.7 15.3-8 27.8-17.2 40.6-30l3-3.2 0.5 0.9 1.7 3.2m-60.1 36s0.2 0.2 0.8 0.2h0.8l-1 1.9c-7.2 14.5-1.2 33 12 37.3 5.3 1.7 11.8 0.8 16-2.1l0.5-0.4 0.8 1c2.2 2.4 4.7 0.4 2.9-2.3-1-1.5-0.6-2.1 0.9-1.4 1.9 1 3.5 0.4 3.5-1.2 0-0.7-0.8-1.8-1.3-1.8 0 0-0.3 0-0.4-0.2-0.5-0.2 0.3-1.4 0.8-1.3 1.4 0.5 2.6 0.4 3.1-0.1 1-1 0.4-2.8-1-3.2-0.5 0-0.6-0.2-0.5-0.4 2-5 2.8-12.4 1.8-17.1-0.4-2-0.5-1.8 1.2-1.4 3.2 0.8 2.9 0.4 3 4.3l0.2 3c0.1 1-0.2 4.4-0.7 6.7a84.3 84.3 0 0 1-18.7 37.1c-13.6 14.5-38.5 22.5-69.1 22.2a65 65 0 0 1-24.3-3.6l-4.4-1.4c-20.8-6.2-28.6-11-33.6-21l-1.6-3c-0.2-0.2 0-0.7 0.6-2 2.2-4.8 3.7-10 5.5-18.2 0.9-4.4 0.9-4.8 0.2-5.6l-0.5-0.7 3-1.4a317 317 0 0 1 11.9-5.3l0.8-0.3-0.2 1.2c-0.5 4.6 0.3 10.3 2.2 14.9 0.1 0.2-0.2 0.5-1.2 1.2-1.9 1.3-2.2 2.4-1 3.5 0.7 0.7 1.6 0.5 3.8-0.9 0.5-0.2 0.5-0.2 0.7 0.1l1.3 1.8 1.2 1.4-0.9 0.8c-2.3 2.2 0.1 4.6 2.7 2.5 1-0.7 1-0.8 1.5-0.5l1.7 1c1.4 1 1.4 1 1 1.8-1.1 2 1.5 3.4 3.2 1.6l0.8-1 2 0.5c22.2 5.2 39.9-22.3 27-42l-0.9-1.5 1-0.2a260.1 260.1 0 0 1 25-3.9c1 0 1 0 1.3 0.6 1.3 2.8 6.4 2.6 12.3-0.3 2.6-1.3 2.5-1.2 2.3-1m8.5 0.8c7.7 0.7 18.9 2.8 25.4 4.8l1.4 0.4 0.3 1.2a28 28 0 0 1-0.2 14.8c-2.9 10-11.4 16.2-19.7 14.5-12.8-2.6-18.8-20.6-11.2-33.7 0.5-0.9 0.9-1.7 0.9-2s0-0.4 0.9-0.3l2.2 0.3m66.6 3.2c0 0.3 0 0.5 0.1 0.3v-0.7 0.4m-56.5 1.4c-4.3 0.8-7 2.9-5.6 4.2 1.6 1.5 1.4 5.4-0.2 5.8-1.4 0.3-2.3-0.8-2.5-2.8-0.3-4.6-4.6 2.9-4.6 8 0 12.8 16.2 15.8 24 4.5 6.7-9.7-0.1-22-11.1-19.7m-64.1 0.5 1 1.9c10.3 15.3 0.1 36.7-17.6 37.3-13.5 0.5-23.2-11.3-21.2-25.8l0.3-2.6 1-0.3c10.7-4.1 18.1-6.4 29.3-9.2 7.9-2 7.2-1.8 7.2-1.3m-14 4.6c-2 0.5-2.8 1.4-2 2.5 0.6 0.8 0.7 3.8 0 5-1 2-3.6 2.1-5.6 0-3-3.2-5.1 6.5-2.4 11.8 4.5 9 18.5 8.6 24-0.5 5.8-10-2.7-21.5-14-18.8m109.2 12.4a93.1 93.1 0 0 0 21.2 25.2 65 65 0 0 0 20.6 11.1c9.4 3.5 12.7 5.3 15.8 8.3 1.9 1.8 1.6 2.2-2.4 3.5-15.2 5-31.7-5.5-46.5-29.5a66.5 66.5 0 0 1-9.9-20.7l1.2 2m-155.3 5.6a79 79 0 0 1-6.4 21.4c-9.2 18.4-24.6 34.2-36.9 37.8-6 1.7-15.7-0.2-21.7-4.3-4.3-3-3.5-3.9 5.5-5.8l6.8-1.4a58.9 58.9 0 0 0 40-27 76.1 76.1 0 0 0 10.1-19.9c0.2-0.7 1.8-2 2.6-2v1.2m-7.2 3a77 77 0 0 1-25.6 33.2 65.7 65.7 0 0 1-25.6 9c-8.3 1.8-10.3 2.5-11.9 4.2l-0.7 0.9-2.4-0.4c-9.9-1.8-15.1-3.6-16.7-5.9-2.2-3 3-4.9 17.8-6.1 16-1.4 24-3.4 34.5-8.9 12.6-6.5 27-19.1 27-23.7 0-0.6 0.2-0.7 1.7-1.5 1.6-1 1.9-1 1.9-0.9m157.5 3.5c2.5 11.3 11.4 21.9 24.6 29.2a47 47 0 0 1 4.4 2.5c0.4 0 1.5 0.8 2.6 1.6l3.2 2.2c1.4 0.9 2 2.6 1.1 3.2-1.7 1.3-8.5 2-13 1.4-12.2-1.8-24.1-17-25.3-32.3-0.1-1.9-0.2-2.3-0.6-2.7l-0.4-0.4 1-2.3 1.4-3.5c0.5-1.5 0.4-1.6 1 1.1m8.5 6a129 129 0 0 0 9 14l-1.4-1.3a33.7 33.7 0 0 1-6-6.6 44.9 44.9 0 0 1-5.6-10.9c-1.1-3.4-1-3.8 0.2-1.6l3.8 6.5m-68.3-1.5-1.6 1.2c-3.5 3.1-13.7 6.1-20.2 6-4.4 0-5.1 2.2-1.3 3.6 1.2 0.5 1.6 0.8 4.5 3.7 4.2 4 5.9 5.4 8.3 6.6 7.7 3.8 17 2.3 25.3-3.8 0.9-0.7 1.2-0.9 3-1.1a31.5 31.5 0 0 0 8.7-2.6c1.9-0.6 2.4-1.2 2-2.3-0.1-0.8-0.8-1.1-2.9-1.3a36.7 36.7 0 0 1-17.8-6.8c-5.8-3.7-6.7-4-8-3.2m3.1 4.1c1 0.5 2.7 1.7 4 2.5 3.4 2 7.7 4.2 10.4 5.1 2.5 0.9 2.5 0.9-0.2 1.3-6.5 1.1-16.4 0.4-26.2-1.9-5.5-1.3-5.4-1.2-4-1.6a38.6 38.6 0 0 0 13.7-6c0.5-0.5 0.5-0.5 2.3 0.6m-14 9.9c6.8 1.6 11 2.2 18.3 2.8l2 0.1-1.9 1a18.3 18.3 0 0 1-23-5l4.6 1m-84.4 3 0.3 0.7h-0.8c-0.8 0.1-0.9 0-0.4-0.8 0.4-0.7 0.5-0.7 0.9 0.1" fill="#050505"/><path transform="translate(-16,-95.8)" d="m162 286.3-0.3 0.4v0.3l0.3 0.1h0.5l-0.1-0.5-0.3-0.3zm168.7-95.5-3.2 3.1a204.5 204.5 0 0 1-12.5 11.5 192.8 192.8 0 0 1-19.8 14 173.7 173.7 0 0 1-12.9 7l-1.5 0.8 2.2 0.3a148 148 0 0 1 25.4 5 474.2 474.2 0 0 0 16.4 4.4 246.6 246.6 0 0 0 7.8 2.3c0.7 0.3 1.3 0.6 1.7 1 0.2 0 0.3 0.2 0.4 0.4l0.2 0.5v0.6l-0.3 0.6a2 2 0 0 1-0.4 0.7c-0.2 0.2-0.5 0.3-0.7 0.3h-1.1l-1.6-0.5c-3.1-1-8.2-2.4-8.5-2.4l-0.2 0.2v0.6c0 0.5 0 1.2 0.3 2a29 29 0 0 0 2.3 5.8l1.2 2.4c0.3 0.6 0.6 1 0.8 1.1l0.4 0.2h0.4l1.2-0.4a14.6 14.6 0 0 0 4.3-2.4 24.3 24.3 0 0 0 5.7-5.7 25.5 25.5 0 0 0 2.7-4.6l0.8-2.3 0.3-2.7a81.8 81.8 0 0 0-0.4-11.6 146.6 146.6 0 0 0-5.1-18.8 97.3 97.3 0 0 0-6.3-13.4zm-17.2-10.3-1.7 2.6a88 88 0 0 1-6.9 10.5 156 156 0 0 1-9.5 11.9 230 230 0 0 0 22-24l-1.8-0.6a17 17 0 0 0-2-0.4z" fill="#f9bb36"/><path transform="translate(-16,-95.8)" d="m313.5 180.5a17 17 0 0 1 3.9 1l-0.4 0.5a62.2 62.2 0 0 0-3.1 4l-0.8 0.9a55.4 55.4 0 0 0-3.9 4.4 263.2 263.2 0 0 1-13.1 13.2l1-1.1a88.7 88.7 0 0 0 7.8-9.8 155.6 155.6 0 0 0 8.6-13.1zm17.2 10.3 1.6 3a121.2 121.2 0 0 1 6.6 16.2 111.6 111.6 0 0 1 3.5 16.1 90.5 90.5 0 0 1-0.2 11.2 16.4 16.4 0 0 1-2 4.6 25.5 25.5 0 0 1-11.5 10.4l-1.2 0.4h-0.4c-0.2 0-0.3 0-0.4-0.2l-0.8-1-1.2-2.5a36.3 36.3 0 0 1-2.7-7.8v-0.6l0.3-0.2a175.3 175.3 0 0 1 10 2.8h1.2c0.2 0 0.5 0 0.7-0.2l0.4-0.7 0.3-0.6v-0.6c0-0.2 0-0.3-0.2-0.5a2 2 0 0 0-0.4-0.5l-1.7-0.9a148.9 148.9 0 0 0-49.6-11.8l-2.2-0.2 1.5-0.9 5.7-3a173.7 173.7 0 0 0 20.3-12.7 192.8 192.8 0 0 0 22.4-19.8zm-56.5-13.6a149.4 149.4 0 0 0-13.4 0.7 258.1 258.1 0 0 0-35.6 5.5 199.8 199.8 0 0 0-44.3 16.7 191.8 191.8 0 0 0-29.5 19.4 117.6 117.6 0 0 0-18.7 20.1 97.6 97.6 0 0 0-6.9 11.4 28 28 0 0 1-2 3.3l-0.4 0.5 1 4.5a178.7 178.7 0 0 0 3.8 15l1.3 3a16.8 16.8 0 0 0 2.8 3.7l0.6 0.4c0.1 0 0.5 0 0.9-0.3l1.6-1a100.5 100.5 0 0 0 11-9.2 4 4 0 0 1-0.7 0.4l-0.7 0.2h-0.6l-0.5-0.2-0.4-0.4-0.2-0.5-0.1-0.8 0.1-0.6 0.4-0.6 1.6-1.7a35.3 35.3 0 0 1 6-4.4 122 122 0 0 1 14.1-8.1 249.5 249.5 0 0 1 35.8-15 278.6 278.6 0 0 1 42.8-10.3c3.5-0.5 6.9-1 10.2-1.3l3.2-0.3c0.8 0 1.3-0.2 1.7-0.3a3 3 0 0 0 1.1-0.8l1.4-1.6a188.2 188.2 0 0 0 11-14 362.2 362.2 0 0 0 10.5-14.9 196.6 196.6 0 0 0 8.2-14l2-4h-1a76.2 76.2 0 0 0-11.2-0.5h-7zm-108.6-72.2-6.5 0.2a392.3 392.3 0 0 0-36.8 3.3 244.6 244.6 0 0 0-19.6 4l-2.3 0.5a5 5 0 0 0-1.4 0.6c-0.4 0.2-0.8 0.6-1.2 1l-1.8 2.2a82.6 82.6 0 0 0-11 16.5 113 113 0 0 0-11 31.9 64.3 64.3 0 0 0-0.6 11.8 30.6 30.6 0 0 0 1.8 8.5v0.6l2.6 0.2c6.6 0.6 8.4 0.8 8.5 0.7l-1.6-1.7-1.3-1.5a4 4 0 0 1-0.7-1.1v-0.8c0-0.3 0.3-0.5 0.5-0.8l0.5-0.4 0.5-0.3h0.5l0.6 0.3a43.7 43.7 0 0 1 3.8 3.7l7.3 7.6 6.9 7.2 1 1.2 0.7 0.5h0.1l0.2-0.3 0.2-1a28.7 28.7 0 0 1 1.8-5.5 83.4 83.4 0 0 1 7.1-13.7 105.6 105.6 0 0 1 21.6-25.4 155.5 155.5 0 0 1 22.6-17 202.7 202.7 0 0 1 40.9-20.2 215.6 215.6 0 0 1 18.6-6.1l-3.4-0.9a212.7 212.7 0 0 0-35.4-5.1 215 215 0 0 0-13.7-0.5z" fill="#f9bb36"/><path d="m207.2 18.5a204.8 204.8 0 0 0-69.8 32 124.5 124.5 0 0 0-33.8 33 67.3 67.3 0 0 0-11 25.4c-0.3 0.6-0.3 0.6 1 2.5 5 7.7 9.3 21.4 12.2 38.4l0.7 3.2s0.8-1.1 1.5-2.6c15-26.5 45.1-48.7 84.4-62a231 231 0 0 1 86.6-10.5c0.8-0.7 6.4-16.7 6.3-18a194 194 0 0 0-71.6-40.9c-4.2-1.4-3.7-1.4-6.5-0.6m-134 1.6c-41.6 12.5-69.2 30.6-69.2 45.5 0 10.7 11.5 17.6 36.7 22.1 10.3 1.8 14.8 2.4 14.5 1.8-6-15.4 4.8-51.3 21-69.8 0.4-0.5 0.4-0.5-3 0.5m227 58.3a18 18 0 0 0-0.9 2.5l4.8 1.2 0.5-0.6 0.5-0.8-3.6-4.6-1.2 2.3" fill="#fb7323"/><path transform="translate(-16,-95.8)" d="m359.3 100c-3 0.6-6.3 8.2-11.8 28a216.6 216.6 0 0 1-7 21.8l-5.2 10.9c-1.2 2.3-1.3 2.5-0.8 3.9 0.7 2.4 3 3.8 7.3 4.2 1.2 0.2 1.3 0.1 1.5-0.3 11.8-19 19.2-38.3 20.8-53.6 0.8-8.3-1.6-15.6-4.8-15m-48.6 6.8c-1.5 2.1-1.6 3.9-1.6 14.9 0.1 16-0.9 24.7-4.3 36.2l-0.7 2.3 0.8 0.7c1.8 1.6 5.2 2.1 9.5 1.3 2.6-0.4 2.4-0.2 3.2-3.3a95.7 95.7 0 0 0 1.6-34.2 39.7 39.7 0 0 0-3-11.2 22 22 0 0 1-2.2-4.2c-0.5-1.3-1-2-2-2.5-1-0.6-1-0.5-1.3 0m-33.7 127.2c-5.2 10.6-3.3 23.1 4.4 29.5 14 11.5 32-5.7 26.8-25.6-0.3-1.3-0.3-1.3-1.2-1.6a158.2 158.2 0 0 0-28.2-5.1c-0.3 0-0.6 0.5-1.8 2.8m20.4 2c11 3.2 10.2 19.7-1.2 25.3-12.2 6-22.4-6-15.4-18 1.3-2.4 3-2.6 2.5-0.3-0.1 0.7 0.4 2.1 0.9 2.5 2.2 1.9 3.8-2.7 1.7-5-2.5-3 5.7-6 11.5-4.4m-71.7 0.4a247 247 0 0 0-33.7 10l-2 0.8-0.2 1a26 26 0 0 0 0.3 11.2c4 16 22.5 21.4 34.6 10.1a24.5 24.5 0 0 0 4-30.5l-1.2-2.2c-0.4-0.7-0.6-0.7-1.8-0.4m-6.5 4.3c12.5 2.2 13.7 19 1.8 24.7-10.4 5-21.4-3.3-18.7-14 1-3.8 2-4.6 3.6-3 2.4 2.4 4.9 1.9 5.7-1 0.4-1.3 0.2-3.4-0.4-4-1.7-2 3.2-3.5 8-2.7m11.8 38.5a66.3 66.3 0 0 0-22 16.3c-4 4.9-8 10.7-7.4 11.3a59.4 59.4 0 0 0 8 2.2c0 1.2 16 2.6 24.4 2.1 10.6-0.6 11-0.6 18.1-1.6 7.9-1.2 15.9-3.4 24.5-6.9a53 53 0 0 0 15.2-8.6c0-1.7-9-10-10.2-9.4-0.5 0.3-4.7 1.3-6.3 1.5-1.2 0.2-1.7 0.4-2 0.7a28.4 28.4 0 0 1-18.8 6.2c-6.1-0.7-9.6-2.8-16.7-10-1.4-1.5-2-2-2.8-2.3-1.8-0.7-2.2-0.8-2.4-1.4-0.3-0.7-0.2-0.7-1.6-0.1m124.4 8a16 16 0 0 1-6 4.7c-1.4 0.6-1.4 0.6 0.6 2.4 9.3 7.7 20.5 10 29.6 6.3 2.1-1 2.1-1 0.5-2.6-2.9-2.8-7-5-14-7.6l-7.4-2.8-2.8-1.2-0.5 0.8m-23.5 2.5c-2.4 1-5.8 3.7-6.3 5.3l-0.3 0.7 1 1c6.6 6.9 11.2 8.8 19.8 8.5 4.7-0.1 8.2-1.2 7.6-2.3l-0.2-0.9c0-0.5-0.2-0.7-1.1-1.2l-3.1-2.2c-1-0.8-2.2-1.5-2.5-1.6-0.4 0-1.3-0.6-2-1l-2.6-1.6c-1.5-0.7-4.7-2.7-6.6-4-1.7-1.3-2-1.3-3.7-0.7m-225.6 5.8c-1.7 0.4-5.6 0.8-11.6 1.3-15.7 1.3-20.7 3.4-16.4 6.9 2 1.6 9.5 3.8 16.5 4.9l1.5 0.2 0.7-0.8c1.4-1.6 4.2-2.6 10-3.8l3.8-0.9c0.6-0.5-1-6-2.1-7.2-0.8-0.8-1-0.9-2.4-0.6m20.3 7.7a99 99 0 0 1-16.5 4.3c-9.9 2-11.4 2.7-9.4 4.6 5 4.8 16.8 7.6 23.5 5.6 3-0.9 7.7-3.2 9-4.5 1.4-1.1-0.5-6.9-2.9-9-1.5-1.4-2.3-1.7-3.7-1" fill="#b3deff"/><path d="m299.4 15.4 0.4 0.6-0.6-1.3 0.2 0.7m49 0.6v0.6-1.3 0.7m-55.5 2.8v0.5-0.9 0.4m0 5v0.7-1.5 0.7m11.1 12.3c0 0.4 0 0.6 0.1 0.4v-0.7 0.3m-11.2 2v0.3-0.7 0.4m11.3 3.9c0 1 0 1.4 0.1 1v-2 1m5.1 39.2-0.3 0.6s0.3-0.2 0.5-0.6c0.3-0.3 0.4-0.5 0.3-0.5l-0.5 0.5m5.6 7.7-0.6 0.6 0.6-0.5c0.6-0.6 0.8-0.7 0.6-0.7l-0.6 0.6m-1.7 1.9-0.6 0.7 0.7-0.7c0.7-0.6 0.8-0.8 0.7-0.8l-0.8 0.8m-4.8 5-3 3.1 3.1-3.1m-9.8-0.6-0.6 0.6 0.6-0.6c0.6-0.5 0.8-0.7 0.6-0.7l-0.6 0.7m-1.6 1.7-0.6 0.7 0.7-0.6c0.6-0.6 0.7-0.7 0.5-0.7l-0.6 0.6m-1.7 2-0.8 0.8 0.8-0.8c0.8-0.7 1-0.9 0.8-0.9l-0.8 0.9m7.9 1.8-0.8 0.9 1-1 0.7-0.8-1 0.9m-10.2 0.7-1 1 1-1 1.1-1c0-0.1-0.2 0-1 1m8 1.4-0.7 0.6 0.7-0.6c0.6-0.5 0.7-0.7 0.6-0.7l-0.7 0.7m-21.5 0.6-0.5 0.6 0.6-0.6c0.6-0.5 0.7-0.7 0.6-0.7l-0.7 0.7m7.2 4.6-4.2 4.2 4.2-4.2m11.4-2.7-0.6 0.7 0.6-0.6c0.6-0.6 0.8-0.7 0.6-0.7l-0.6 0.6m-21.1 1-0.6 0.6 0.7-0.5c0.5-0.6 0.7-0.7 0.5-0.7l-0.6 0.6m-2 2.2-0.8 0.9 1-1 0.7-0.8-1 0.9m-21.1 15.9-0.7 0.7 0.7-0.7c0.7-0.6 0.8-0.8 0.7-0.8l-0.7 0.8m4.2 1-0.6 0.7 0.6-0.6c0.6-0.5 0.7-0.7 0.6-0.7l-0.6 0.6m-6 0.7-0.7 0.8 0.8-0.7 0.7-0.8c0-0.1-0.2 0-0.8 0.7m9.2 1.7c-0.2 0.2-0.2 0.3 0 0.3 0 0 0.2 0 0.2-0.2h0.6c0-0.3-0.6-0.3-0.8 0m-14 3.6-0.6 0.6 0.7-0.5c0.6-0.6 0.7-0.7 0.5-0.7l-0.6 0.6m9.2 3.3c-0.4 0.2-0.3 0.3 0.8 0.3h0.4c-0.5-0.1-0.9-0.2-0.8-0.3 0.1-0.3 0-0.3-0.4 0m-1.5 0.7-0.5 0.4c0.2 0 1.3-0.5 1.3-0.7l-0.8 0.3m-15.4 0.2h0.8l-0.4-0.1h-0.4m-2 0.3h0.8l-0.5-0.1h-0.3m-1.7 0.3h0.7l-0.4-0.1h-0.3m-1.7 0.3h0.7l-0.4-0.1h-0.3m8.1 0.2 0.7 0.8c0.4 0.4 0.4 0.4 0-0.2-0.8-1-1-1-0.7-0.6m4.1 1.6h0.9-0.9m50.5 7.7v0.3-0.6 0.3m4 1.7v0.7-1.6 0.9m-46.4-0.7v0.3-0.7 0.4m42.5 2.4v1.2a26.2 26.2 0 0 0 0-1.2m-42.8 1c0 1.5 0 2 0.1 1.3a28.3 28.3 0 0 0 0-1.2m39-1v0.3-0.7 0.3m-35.4 1c0 0.6 0 0.8 0.1 0.5v-1 0.6m42.9 0v0.4-0.7 0.4m-0.2 2.1v0.5-0.9 0.4m-80.7 0c0 0.4 0 0.6 0.1 0.4v-0.7 0.3m76.7 0.2v0.4-0.7 0.3m-42.4 1.2v0.3-0.6 0.3m-34.2 2c0 1.2 0 1.7 0.1 1a21.6 21.6 0 0 0 0-1m-50.7-0.6c0 0.5 0 0.7 0.1 0.4v-0.9 0.5m135.8 0.7 0.2 0.4v0.6c0 0.5 0 0.5 0.2 0l-0.1-1c-0.4-0.7-0.4-0.7-0.3 0m-136 1.7v0.4-1 0.6m0.1 2.6c0 0.5 0 0.7 0.1 0.4v-1 0.6m-15.2-0.2s0.1 0.4 0.4 0.7l0.4 0.4c0-0.1-0.1-0.4-0.4-0.6-0.2-0.1-0.3-0.4-0.2-0.5v-0.1l-0.2 0.1m0.9 2.2v0.3-0.6 0.3m-4.1 0.7v0.3c0.1-0.2 0.1-0.6 0-0.8v0.5m-2-0.2-0.4 0.7c0 0.4 0 0.4 0.1 0l0.5-0.7c0.6-0.4 0.4-0.4-0.2 0m161.1 1 0.5 0.7s0-0.3-0.3-0.6c-0.2-0.4-0.5-0.6-0.5-0.6l0.3 0.6m-1.8 0.8 0.7 1.3-0.2-0.6c-0.3-0.7-0.5-0.9-0.5-0.7m-14 0.3h0.7l-0.3-0.1h-0.4m17.2 1 0.5 0.5-0.3-0.6-0.5-0.6c-0.1 0 0 0.3 0.3 0.6m-19.9 3.9h0.7l-0.4-0.1h-0.3m25 2.7 0.6 0.7 0.6 0.5-1.2-1.2m-22.9 1.6c-0.3 0.7-0.2 0.9 0.1 0.3 0.2-0.4 0.3-0.6 0.2-0.7l-0.3 0.4m-149.7 0.7-0.4 1 0.6-1 0.4-1-0.6 1m175.3 0.7 1.3 1.3-1.1-1.3-1.4-1.3 1.2 1.3m-185.2 1.9-2.2 2.3 2.3-2.3m77.3-1-1.3 1.3 1.3-1.2 1.3-1.4-1.3 1.3m61.2-1h0.6-0.6m3.8 0h0.7-0.7m22.5 1.8c0 0.7 0 1 0.1 0.6v-1.4 0.8m5.6 1.4 0.4 0.6-0.2-0.6-0.4-0.6 0.2 0.6m-130 0.4v0.4-0.7 0.3m148.5 0.5 1.2 1-1-1-1.2-1 1 1m-99.3 1.8h0.8c0.2 0 0-0.1-0.4 0h-0.4m-20 0.3-0.3 0.3 0.6-0.3 0.3-0.2s-0.4 0-0.6 0.2m15.1-0.1h0.8l-0.4-0.1h-0.4m2.5 0h1-1m-94.4 2.1c-0.7 0.6-0.7 0.6 0 0.2l0.7-0.6c0.2-0.3 0-0.2-0.7 0.4m58.3 0.6-0.6 0.7 0.6-0.6c0.6-0.5 0.8-0.7 0.6-0.7l-0.6 0.6m5-0.3h0.7-0.7m5.9 0h0.7-0.7m-3.5 0.2h1.8-1.9m72.5 0h0.7-0.7m55 0.5 0.6 0.6-0.3-0.6-0.6-0.6 0.4 0.6m-53.3-0.3h1-1m54.3 1.7 0.7 0.7-1-1.3 0.3 0.6m-189.5 0.5-0.7 1 0.9-1 0.7-1-1 1m-1.4 1.8-0.6 0.7 0.7-0.6 0.6-0.6c0-0.2-0.2 0-0.7 0.5m94 2 1.2 1.1-1-1.2-1.3-1.1 1 1.1m78.1 0 0.3 0.6c0.1 0.3 0.3 0.4 0.3 0.3l-0.3-0.7-0.3-0.3m-176.2 2.8-2.2 2.3 2.3-2.2m6.6-1.7-0.5 0.6 1.2-1.2c0-0.2-0.1 0-0.7 0.6m181.8 0 0.8 0.7-0.6-0.7-0.8-0.7 0.6 0.7m11.4 0.3 0.9 0.8-0.7-0.8-0.8-0.8 0.6 0.8m-22.4 1.2 0.4 0.6-0.2-0.6-0.4-0.6 0.2 0.6m-23.5 2-1.7 1.8 1.8-1.8m48.7-0.2 1.7 1.7-1.5-1.7-1.8-1.6 1.6 1.6m-199.8 0.8-1.1 1.2 2.4-2.4c0-0.1-0.2 0-1.3 1.2m25.7 2.2 1.4 1.2-2.5-2.5 1.1 1.3m-28.7 0.6-0.7 0.7 0.8-0.6c0.7-0.7 0.8-0.8 0.6-0.8l-0.7 0.7m149.7 0.5-0.6 0.6 0.7-0.6 0.6-0.6s-0.4 0.2-0.7 0.6m-140.5 1-0.3 0.5 0.5-0.6 0.3-0.6-0.5 0.6m-12.9 1.6c-0.7 0.6-0.7 0.6 0 0.2l0.7-0.6c0.2-0.3 0-0.2-0.7 0.4m11 1.1-0.8 1s0.4-0.3 0.6-0.7c0.6-0.7 0.6-1 0.1-0.3m-3.8 4.6-0.5 0.6 0.6-0.5 0.6-0.7-0.7 0.6m-2.5 2.7-1.6 1.6 1.7-1.5a35.5 35.5 0 0 0-0.1 0m-3.5 3.2-0.6 0.7 0.6-0.6 0.7-0.6c0-0.2-0.2 0-0.7 0.5m104.5 2.5h0.8l-0.4-0.1h-0.4m-2.4 0.3h1l-0.6-0.1h-0.4m-3 0.3h1.2l-0.6-0.1h-0.6m-2.5 0.3h1l-0.5-0.1h-0.5" fill="#3b7293"/><path transform="translate(-16,-95.8)" d="m278.8 231-0.2 0.2a28 28 0 0 0-3.2 6.8 28.6 28.6 0 0 0-1 12.2 24.2 24.2 0 0 0 2.3 7.4 19.6 19.6 0 0 0 4.7 5.8 18.1 18.1 0 0 0 5.4 3 14 14 0 0 0 10.6-0.8 17.1 17.1 0 0 0 4.6-3.2 20.9 20.9 0 0 0 5.2-7.5 24.8 24.8 0 0 0 1.7-13.4 28.3 28.3 0 0 0-1.1-4.9 130.5 130.5 0 0 0-20-4.6zm15.1 4.5a14.4 14.4 0 0 1 3.5 0.5 11.5 11.5 0 0 1 3.6 1.7 10.1 10.1 0 0 1 3.3 4.4 12 12 0 0 1 0.9 3.7 14.1 14.1 0 0 1-0.7 5.8 16 16 0 0 1-14.8 11.2 11.8 11.8 0 0 1-5.6-1.6 11 11 0 0 1-4.7-5.5 12 12 0 0 1-0.9-6 14.4 14.4 0 0 1 1.1-4.3c0.3-0.7 0.7-1.5 1.2-2.2 0.3-0.6 0.7-1 1-1.4 0.3-0.3 0.6-0.5 1-0.5h0.2l0.3 0.3v1.3c0 0.3 0 0.8 0.2 1.3 0.2 0.6 0.4 1 0.7 1.2 0.3 0.3 0.5 0.4 0.8 0.4h0.7l0.6-0.5 0.4-0.8a4.2 4.2 0 0 0 0.1-2.1c0-0.4-0.1-0.8-0.3-1.1-0.1-0.4-0.3-0.7-0.6-1a2 2 0 0 1-0.3-0.5 1.4 1.4 0 0 1 0-1.1l0.2-0.5 1.1-1 1.6-0.8a13.7 13.7 0 0 1 4.3-0.9zm-67.2 0.7a196.5 196.5 0 0 0-34.7 10.3l-2 0.7-0.2 1a68 68 0 0 0-0.4 6.3 19.5 19.5 0 0 0 0.7 5 23.9 23.9 0 0 0 3.7 7.8 20.7 20.7 0 0 0 10.6 7.4 20 20 0 0 0 15.5-1.7 22.6 22.6 0 0 0 7.6-6.7 24.2 24.2 0 0 0 4.9-15.6 24.2 24.2 0 0 0-5.5-14.5zm-10.1 4.3a15.4 15.4 0 0 1 4.8 0.8 12.1 12.1 0 0 1 5 3.4 11.5 11.5 0 0 1 2.5 5.2 13 13 0 0 1-0.5 7.7 13.8 13.8 0 0 1-5.3 6.6 15.7 15.7 0 0 1-8 2.7 13.7 13.7 0 0 1-8.4-2.6 12.6 12.6 0 0 1-4-5.5 11.8 11.8 0 0 1-0.7-5.5 13.7 13.7 0 0 1 1-4.2l0.8-1.2 0.5-0.2h0.5c0.3 0 0.7 0.3 1 0.7a6.8 6.8 0 0 0 1.9 1.3l0.8 0.2a2.6 2.6 0 0 0 1.6-0.3l0.6-0.5 0.5-0.8a5.2 5.2 0 0 0 0.6-3.2l-0.2-1c-0.1-0.3-0.2-0.6-0.4-0.7l-0.3-0.7c0-0.2 0-0.5 0.2-0.7l0.6-0.5 1-0.5a9.5 9.5 0 0 1 3-0.5z" fill="#fff"/><path transform="translate(-16,-95.8)" d="m259.1 273.1-0.3 0.3c-0.4 0.4-0.9 0.8-1.6 1.2a61.7 61.7 0 0 1-12 4.8v0.2l0.9 0.3 3.5 1a120.5 120.5 0 0 0 14.6 2 106.4 106.4 0 0 0 12.4-0.7l-0.2-0.2-1.5-0.6a27.4 27.4 0 0 1-5-2.1l-5.5-3.2a60.7 60.7 0 0 0-5.3-3zm-16 9.8c-0.1 0 0 0 0 0.2l0.8 0.9a22.2 22.2 0 0 0 5 3.5 18 18 0 0 0 8.1 2 17.5 17.5 0 0 0 5.7-1l2.8-1.1 1.1-0.6-3.3-0.2a98.4 98.4 0 0 1-20.3-3.7z" fill="#ffab1c"/></g></svg>
