<?xml version="1.0" encoding="UTF-8"?>
<!-- Created with Vectornator (http://vectornator.io/) -->
<svg clip-rule="evenodd" stroke-linecap="round" stroke-linejoin="round" stroke-miterlimit="10" version="1.1" viewBox="0 0 2048 2048" xml:space="preserve" xmlns="http://www.w3.org/2000/svg">

<clipPath id="ArtboardFrame">
<rect width="2048" height="2048"/>
</clipPath>

<g transform="matrix(.60741 0 0 .60741 452.12 693.2)" fill-rule="evenodd"><path d="m359 35c-51 8-87 32-107 71-14 28-3 82 20 91l6 6c1 3 2 2 14-3 57-26 109-36 186-36 58 0 59 0 120 11l50 9c35 5 46 15 34 29-6 7-4 7-96-9-136-25-268-2-339 58-90 77-94 144-9 166 66 17 179-17 201-60 6-12 17-14 25-6 17 17-27 60-83 82-32 13-104 185-127 304-47 240-2 474 121 634 100 130 273 236 501 309 141 45 313 56 430 28a724 724 0 0 0 400-253c14-21 15-20-7-10-127 59-165 69-243 67-124-3-215-95-315-320a1341 1341 0 0 0-98-186 1600 1600 0 0 0-63-107 1012 1012 0 0 0-64-102c-5-12-7-14-17-19-45-25-81-69-120-149-35-73-37-97-7-116 8-6 11-9 10-11-6-16 5-73 22-106 68-137 216-152 368-36l24 19c6 6 7 5 9-9 7-46 47-94 91-108 48-16 138 5 198 47 24 16 51 42 51 47a406 406 0 0 1 123 198l3 7 23 3 23 2c6-5-30-78-61-125a689 689 0 0 0-482-318 794 794 0 0 0-353 2c-18 3-35 6-38 8-23 12-20 11-39 4-17-6-59-25-103-46-80-38-126-56-168-65-24-5-90-6-114-2m1353 654a2002 2002 0 0 0-211 36c-15 3-13-1-19 37-36 244 50 454 216 534 19 9 51 21 64 23l6 2 11-29c31-77 37-128 31-258a952 952 0 0 0-54-303l-12-37c-2-9 0-9-32-5" fill="#7cc3dc"/><path d="m376 1c-73 6-125 38-152 92-17 34-10 90 14 116 13 14 14 11-4 25-70 52-101 111-85 158 17 51 94 83 168 70l8-1-18 37a1049 1049 0 0 0-76 206 953 953 0 0 0 11 487c13 42 32 90 51 123 11 19 12 18-15 23-95 18-165 18-254 1-32-7-32-3 0 87l14 44c29 103 33 105 86 55a807 807 0 0 1 138-107c25-17 62-35 72-35 2 0 21 24 21 27l-6 5a487 487 0 0 0-163 174c-30 53-30 53-17 63 22 17 88 81 100 97 13 18 24 17 28-4 14-68 45-153 71-196 19-29 28-42 43-56 12-12 12-12 23-1a817 817 0 0 0 134 97 1285 1285 0 0 0 254 118c161 57 332 75 469 48a972 972 0 0 0 230-89 818 818 0 0 0 119-83c31-22 79-77 111-129 23-35 19-31 41-43 16-8 30-16 52-31 26-17 76-75 65-75l-3-4c-4-8-45 2-88 23h-11l-7-1 6-15a495 495 0 0 0 36-219c-3-158-13-229-53-357-8-26-14-47-13-48s92-9 125-10c41-2 79 0 103 5s32 4 39-3c11-12 3-24-19-29a1505 1505 0 0 1-94-22l-72-18a1162 1162 0 0 0-106-25c0-4-20-58-27-72a610 610 0 0 0-74-118l-17-21c-21-28-28-36-58-65-31-32-55-53-80-71a854 854 0 0 0-682-129c-24 4-45 9-52 13-4 3-6 3-21-4l-24-11a2447 2447 0 0 1-133-62 441 441 0 0 1-40-16l-20-7c-44-14-99-21-148-17m98 35c41 9 88 27 163 63 111 53 122 56 141 46 8-5 17-7 48-12l62-11c101-19 242-7 377 32 85 24 190 81 255 137 80 69 169 193 195 272 6 19 8 18-21 14l-24-3-7-20a383 383 0 0 0-119-187c0-4-34-35-54-48-69-46-161-63-210-38-37 19-67 60-74 104l-2 13-17-13c-144-120-288-121-367-3-26 39-46 110-36 128l3 6-15 10c-18 12-20 15-19 31 2 24 12 51 32 92 37 74 66 109 111 136 13 8 15 10 21 20a2185 2185 0 0 1 69 111l91 156c18 31 46 86 55 108 95 230 198 338 323 341 76 2 112-7 214-54l50-23c2 0-1 5-5 12-68 112-235 220-406 264a852 852 0 0 1-405-19c-230-66-420-180-527-315-171-215-190-578-45-869 26-54 38-70 60-79 54-23 93-68 68-78-7-2-13 0-19 8-41 61-174 87-235 47-52-35-36-92 44-156 54-43 136-67 230-67 50 0 65 2 177 22 20 4 28 1 27-12-1-8-7-12-24-15-125-22-120-22-181-22-77 0-130 11-186 37-13 6-13 6-15 2l-7-6c-11-6-24-32-27-55-4-41 37-89 91-105 32-9 104-10 140-2m901 265c22 4 47 12 66 21 25 12 65 39 59 41-93 28-170 83-199 142l-7 16-8-15c-10-20-23-40-42-64-11-13-16-20-15-22l3-20c10-79 62-116 143-99m-365 24c92 15 205 101 250 190 8 16 8 16-14 3a467 467 0 0 0-435-16c-6 2 5-54 16-77 35-78 100-113 183-100m520 68c23 14 60 62 81 105 10 20 30 69 28 71l-22-2c-78-10-208-11-278-2-22 3-30 1-27-7l6-18c13-50 53-90 127-126 47-23 72-29 85-21m-458 95c74 10 134 34 199 78 21 14 20 13 5 22l-88 60-92 60c-126 84-136 86-196 48a379 379 0 0 1-119-195l-2-8 11-7c75-51 182-73 282-58m478 99c82 6 212 26 290 45 40 10 47 13 28 13-24 0-158 15-210 22-34 5-215 40-256 49-77 17-119 25-187 33-69 8-136 14-145 12-4 0 81-58 132-89l44-30a401 401 0 0 1 68-43c16-11 149-17 236-12m196 107 26 84c15 51 32 140 36 198 13 163 6 237-30 323l-10 23-6-1c-180-39-301-241-289-484 2-39 10-106 14-110a4348 4348 0 0 1 254-43l5 10m-290 44-5 34c-35 272 75 499 275 567 16 5 19 7 15 8l-20 4c-128 30-316 7-418-52a506 506 0 0 1-145-131 1019 1019 0 0 0-81-150l-40-69-75-124-12-17 17-1c17-1 37-7 45-13 4-2 10-3 41-4a2163 2163 0 0 0 402-57l1 5m-204 561c131 94 371 121 547 61 50-17 23 2-66 47-83 41-140 66-172 75-41 12-114 16-146 8-66-16-133-80-193-186-27-48-28-51-5-32l35 27" fill="#040505"/><path d="m1202 1261h-1l1 5 5 10a761 761 0 0 0 117 161 278 278 0 0 0 67 43 196 196 0 0 0 75 15 262 262 0 0 0 64-6 435 435 0 0 0 50-14 1098 1098 0 0 0 84-36 2869 2869 0 0 0 152-77l6-4v-3l-9 2-17 5a583 583 0 0 1-117 26 621 621 0 0 1-138 3 787 787 0 0 1-203-43 415 415 0 0 1-112-67 335 335 0 0 1-24-20z" fill="#e4a830"/><path d="m1292 878a231 231 0 0 0-81 12 300 300 0 0 0-144 97l-1 4v3l1 4 2 4a760 760 0 0 1 22 36l1-1 3-4 5-5 7-6a123 123 0 0 1 19-11 211 211 0 0 1 47-17 103 103 0 0 1 25-1 213 213 0 0 1 48 6 383 383 0 0 1 54 15l42 15a458 458 0 0 0 33 10h9a57 57 0 0 0 18-4 34 34 0 0 0 17-17l3-8a76 76 0 0 0 3-23 103 103 0 0 0-6-38 91 91 0 0 0-29-40 116 116 0 0 0-36-20 158 158 0 0 0-45-10zm174-292a1285 1285 0 0 0-151 13l-15 8-19 12a922 922 0 0 0-60 41l-23 15a2371 2371 0 0 0-124 86l17-1a1929 1929 0 0 0 186-20 1494 1494 0 0 0 102-19 5894 5894 0 0 1 348-63 3736 3736 0 0 1 150-16l-2-1-13-4a1078 1078 0 0 0-114-23 2242 2242 0 0 0-250-28zm-453-102a405 405 0 0 0-221 62l-11 7 1 9 3 12a197 197 0 0 0 11 31 457 457 0 0 0 50 95 209 209 0 0 0 59 58 151 151 0 0 0 32 15 98 98 0 0 0 32 4 72 72 0 0 0 15-2l9-4 12-6 33-20 54-35a5894 5894 0 0 1 144-96c16-11 34-24 41-27l7-5 3-3-1-2-12-8a464 464 0 0 0-261-85z" fill="#df822f"/><path d="m1466 586a1281 1281 0 0 0-151 13l-5 3-10 5-19 12a922 922 0 0 0-60 41l-23 15a2371 2371 0 0 0-124 86l17-1a1929 1929 0 0 0 186-20 1494 1494 0 0 0 156-31 10776 10776 0 0 1 249-46 2702 2702 0 0 1 195-20v-1l-2-1-13-4a1078 1078 0 0 0-114-23 2242 2242 0 0 0-250-28z" fill="#e4a830"/><path d="m1466 586a1015 1015 0 0 1 171 12 3554 3554 0 0 1 177 29 1078 1078 0 0 1 63 16 1578 1578 0 0 1-98 9 3773 3773 0 0 0-133 16 3109 3109 0 0 0-135 26 10776 10776 0 0 0-234 46 1788 1788 0 0 1-186 20 307 307 0 0 1-22 0l16-11a17105 17105 0 0 0 215-142 203 203 0 0 0 18-10l5-1 17-3a572 572 0 0 1 92-6z" fill="#e4a830"/><path d="m1013 484a405 405 0 0 0-221 62l-11 7 1 9 3 12a197 197 0 0 0 11 31 457 457 0 0 0 50 95 209 209 0 0 0 67 63 144 144 0 0 0 32 12 92 92 0 0 0 24 2 72 72 0 0 0 15-2l9-4a169 169 0 0 0 26-14 968 968 0 0 0 73-47 5894 5894 0 0 1 144-96 1467 1467 0 0 1 41-27l7-5 3-3-1-2-12-8a464 464 0 0 0-261-85z" fill="#e57230"/><path d="m1515 390h-8l-21 7a422 422 0 0 0-138 87 137 137 0 0 0-30 59l-3 14v4l1 3 3 1h6l18-2a826 826 0 0 1 135-6 1438 1438 0 0 1 159 10v-5l-3-10a447 447 0 0 0-46-93 491 491 0 0 0-45-56 82 82 0 0 0-19-11z" fill="#df822f"/><path d="m1515 390 9 2 9 4 10 7a135 135 0 0 1 21 23 331 331 0 0 1 40 61 752 752 0 0 1 33 75v5l-24-2a854 854 0 0 0-135-8 1428 1428 0 0 0-135 6l-18 2h-6l-3-1-1-3v-4l3-14a186 186 0 0 1 12-32 130 130 0 0 1 30-40 227 227 0 0 1 33-26 536 536 0 0 1 68-38 422 422 0 0 1 46-17zm-541-67a171 171 0 0 0-54 9 137 137 0 0 0-42 25 165 165 0 0 0-40 49 202 202 0 0 0-27 93l2 1a45503 45503 0 0 1 48-20 412 412 0 0 1 160-25 493 493 0 0 1 242 67l-4-8a265 265 0 0 0-34-51 387 387 0 0 0-98-88 416 416 0 0 0-92-43 207 207 0 0 0-61-9zm357-26a113 113 0 0 0-20 2 90 90 0 0 0-52 35 114 114 0 0 0-17 30 152 152 0 0 0-10 38l-2 23 5 5a234 234 0 0 1 27 35 446 446 0 0 1 24 39l7 14 10-19a148 148 0 0 1 12-20 200 200 0 0 1 35-38 305 305 0 0 1 74-49 452 452 0 0 1 61-25l16-5-6-5a215 215 0 0 0-43-28 315 315 0 0 0-99-31z" fill="#e67230"/><path d="m1330 296h10-10m-374 28h10c3-1 1-1-5-1-5 0-8 0-5 1m27 0h10c3-1 0-1-6-1s-8 0-4 1m563 84 8 7-6-7-8-8 6 8m-365 7 14 15 14 13-28-28m27 30 6 5 6 6-6-6c-5-6-6-7-6-5m125 11-10 11 11-10 10-11-11 10m-358 0h13c4 0 1-1-6-1l-7 1m55 0h11c4 0 1-1-5-1-7 0-10 1-6 1m-74 2h7c1-1 0-1-4-1-3 0-5 0-3 1m98 0h7c1-1 0-1-4-1-3 0-5 0-3 1m299 18-7 8 9-8 7-8-9 8m-353 7h20-20m-31 2h9l-5-1c-5 0-7 1-4 1m72 0h8l-4-1c-5 0-7 1-4 1m-88 2h6l-3-1c-4 0-5 1-3 1m-144 9 1 6 1-6-2-7v7m-27 55-2 6c0 4 0 4 1 0 0-2 2-4 3-5 2-3 1-3-2-1m529 8c0 4 7 9 12 8 3-1 3-1-1-1-3 0-6-2-8-4-1-3-3-4-3-3m89 1h14c4-1 1-1-7-1s-11 0-7 1m135 0h14c3-1 0-1-7-1-8 0-11 0-7 1m-170 1h13-13m201 0h10-10m-220 2h7l-3-1-4 1m243 0h7l-4-1c-4 0-6 1-3 1m15 2h6c2 0 1-1-3-1l-3 1m30 2-4 2h5c3 0 5-1 5-2l-1-1-5 1m-348 10c2 2 1 3-2 5-4 4-4 4 0 2 5-3 6-5 2-8-2-2-2-2 0 1m136 10h11c2-1 0-1-6-1s-9 0-5 1m91 0h14c4-1 1-1-7-1-7 0-10 0-7 1m-128 2h11c3-1 0-1-6-1s-8 0-5 1m167 0h8c3-1 1-1-4-1-4 0-6 0-4 1m317 55-9 1h9l10-1a8281 8281 0 0 1-10 0m-27 3h6c2-1 0-1-3-1-4 0-5 0-3 1m-40 3h6l-3-1-3 1m-22 2h6c2 0 1-1-3-1l-3 1m-909 81 12 10-10-10-12-11 10 11m573 2-99 22c-76 15-206 30-292 33-31 1-37 2-41 4-8 6-28 12-45 13l-17 1 12 17 30 49a2883 2883 0 0 1 73 120c-2-8 33-44 62-64 134-90 303-58 298 57-1 35-14 51-41 52-15 0-11 2-84-25-49-17-98-25-127-20s-69 26-78 39c-3 5-4 6-7 4l1 2c10 11 39 66 69 129 14 29 93 101 145 131a664 664 0 0 0 438 48c4-1 1-3-15-8-200-68-310-295-275-567a888 888 0 0 1 4-39l-11 2m-314 22h7-7m-23 2h6l-3-1c-4 0-5 1-3 1m-29 2h10l-5-1c-6 0-8 1-5 1m-120 18h10l-5-1c-6 0-8 1-5 1m579 612h9c2-1 0-1-5-1s-7 0-4 1m116 0h6c2-1 1-1-3-1-3 0-5 0-3 1m-83 2h13c4-1 1-1-6-1s-10 0-7 1m42 0h16c4-1 0-1-8-1-9 0-12 0-8 1m-300 35 17 16-15-16-17-17 15 17m178 66h6l-3-1c-4 0-5 1-3 1" fill="#833114"/><path d="m932 117h7c2-1 0-1-4-1s-6 0-3 1m113 0h9c2-1 0-1-5-1s-7 0-4 1m25 2h7c2-1 0-1-3-1-4 0-5 0-4 1m-628 45h11c4 0 1-1-5-1-7 0-10 1-6 1m67 0h11l-6-1c-6 0-8 1-5 1m-90 2h6c2-1 1-1-3-1-3 0-5 0-3 1m114 0h7c1-1 0-1-3-1-4 0-5 0-4 1m-104 29h7c2-1 0-1-4-1s-5 0-3 1m94 0h8c1-1 0-1-4-1s-6 0-4 1m807 72h10-10m-1102 11-7 8 9-8 7-8c-1 0-5 3-9 8m725 17h9c2-1 0-1-4-1-5 0-7 0-5 1m35 0h8c2-1 0-1-4-1s-6 0-4 1m-812 70c0 7 0 10 1 6v-13c-1-3-1 0-1 7m104 69h12-12m88 22c-5 4-8 8-7 8l9-8 7-8c-1 0-5 3-9 8m412 39c0 3 0 5 1 3v-6c-1-2-1-1-1 3m-23 40-5 6 11-11c0-2-1 0-6 5m720 259c0 4 0 5 1 3v-6c-1-2-1 0-1 3m-2 20c0 5 1 7 1 4v-8l-1 4m-1236 22 1 3v-6c0-2-1-1-1 3m1235 35v20a829 829 0 0 0 0-20m-1236-15v4-8 4m-2 26c0 6 0 8 1 5v-11c-1-2-1 0-1 6m-2 48c0 11 0 15 1 10v-19c-1-5-1-1-1 9m1241-3 1 4v-8c0-3-1-1-1 4m330 32 1 4v-7l-1 3m-1569 17c0 6 0 9 1 6v-12c-1-3-1-1-1 6m1571 6c0 4 1 5 1 3v-7l-1 4m-1569 21v4-8 4m1571 14c0 8 1 11 1 6v-14l-1 8m-1570 6 1 3v-6c0-2-1-1-1 3m1572 36c0 8 0 11 1 7v-14c-1-3-1 0-1 7m2 58c0 10 0 14 1 9v-17c-1-5-1-1-1 8m-2 43c0 4 0 5 1 3v-7c-1-2-1 0-1 4m-209 69 11 10-9-10-11-10 9 10m-1196 192 6 6 6 5-6-6c-5-5-6-7-6-5m40 40 7 7-5-7-7-6c-1 0 1 3 5 6m858-2 6 6 6 5-5-6c-5-5-7-6-7-5m176 64h12-12m-422 207h6l-3-1c-4 0-5 1-3 1m21 2h8c2-1 0-1-4-1-5 0-7 0-4 1m27 2h11c3-1 0-1-6-1s-8 0-5 1m107 0h7c2-1 0-1-4-1s-5 0-3 1" fill="#619bb0"/><path d="m275 72-6 6 7-6 6-7-7 7m704 41h13l-6-1-7 1m-37 2h6l-3-1c-4 0-5 1-3 1m89 0h9l-5-1c-5 0-7 1-4 1m29 2h6c2-1 0-1-3-1-4 0-5 0-3 1m-817 19c0 5 0 7 1 4v-9c-1-2-1 0-1 5m514 15h9-9m-327 15h6c2-1 1-1-3-1-3 0-5 0-3 1m92 0h7c2-1 0-1-3-1-4 0-5 0-4 1m-82 27h7l-4-1c-4 0-5 1-3 1m73 0h7l-3-1-4 1m807 76h7l-4-1c-4 0-5 1-3 1m24 0h7l-4-1c-4 0-6 1-3 1m-1130 21-7 8 8-7 8-8c0-1-2 0-9 7m756 5h11c2-1 0-1-6-1s-8 0-5 1m570 16 13 11-11-11-13-12 11 12m25 24 9 9-8-9-9-9 8 9m-33 18 12 11-10-11-12-11 10 11m-1107 32-6 5 6-5 6-6-6 6m1146 7c6 7 12 12 13 12l-11-12-13-12s4 6 11 12m-1122 8-7 8 9-8 7-9-9 9m-182 34h6-6m583 317c8 8 10 10 10 8l-18-16 8 8m623 75c0 4 1 5 1 3v-7l-1 4m-1237 41c0 3 0 5 1 3v-6c-1-2-1-1-1 3m1236 3v4-9 5m-1238 30c0 7 0 10 1 6v-12c-1-4-1-1-1 6m1239 16 1 3v-6c0-2-1-1-1 3m-1239 42c0 6 0 9 1 5v-10c-1-3-1-1-1 5m1573 12c0 4 1 5 1 3v-6l-1 3m-1571 22c0 4 0 5 1 3v-6c-1-2-1 0-1 3m1573 4c0 4 0 6 1 4v-8c-1-3-1-1-1 4m2 41c0 5 0 8 1 4v-10c-1-3-1 0-1 6m2 48c0 9 0 13 1 8v-17c-1-5-1-1-1 9m0 59c0 7 0 10 1 6v-11c-1-4-1-1-1 5m-1398 288 14 14 14 13-14-14c-12-13-14-15-14-13m876 15 13 11-23-23 10 12m374 70-7 9 9-9 7-8-9 8m-216 6h18-18m195 16-7 7 8-7c7-6 8-8 7-8l-8 8m-553 195h8c1-1 0-1-4-1s-6 0-4 1m30 2h10c3-1 1-1-5-1-5 0-7 0-5 1m80 0h7c1-1 0-1-4-1-3 0-5 0-3 1" fill="#3c5c6c"/></g></svg>
