<?xml version="1.0" encoding="UTF-8"?>
<!-- Created with Vectornator (http://vectornator.io/) -->
<svg clip-rule="evenodd" stroke-linecap="round" stroke-linejoin="round" stroke-miterlimit="10" version="1.1" viewBox="0 0 2048 2048" xml:space="preserve" xmlns="http://www.w3.org/2000/svg" xmlns:xlink="http://www.w3.org/1999/xlink">

<clipPath id="ArtboardFrame">
<rect width="2048" height="2048"/>
</clipPath>

<g transform="matrix(5.7713 0 0 5.7713 35.087 -8.8157)"><g fill-rule="evenodd"><path d="m178.76 172.67c6 3.22 10.5 6.88 13.63 11.07l0.69 0.91 1.75-0.88c1.96-0.98 9.19-3.92 10.1-4.1 1-0.2 0.84-0.38-1.24-1.29-7.63-3.36-18.03-6.1-25.42-6.69l-1.57-0.12 2.06 1.1m-63.48 21.41c-8.88 6.9-22.03 19.19-25.9 24.2-20.23 26.17-25.26 65.88-11.48 90.63a75.25 75.25 0 0 0 5.75 8.78c5.72 7.55 18.18 15.01 33.91 20.32 3.2 1.08 3 1.13 3-0.77 0.02-13.06 14.74-25.52 34.74-29.4 32.71-6.35 66.2 9.42 66.23 31.19 0 0.5 0.04 0.93 0.08 0.93 1.03 0 12.26-5.15 15.55-7.14 6.89-4.15 14.26-11.32 24.16-23.5 8.06-9.93 11.32-32.1 7.54-51.33-0.63-3.22-0.55-3.1-1.73-2.58-7.46 3.3-24.73 7.03-35.89 7.75-2.3 0.15-2.53 0.2-3.02 0.67-0.9 0.85-9.74 4.12-14.1 5.22-13.05 3.27-24.65 2.74-40.25-1.85-12.68-3.73-26.67-13.73-33.64-24.03-2.82-4.18-6.07-11.27-7.07-15.42a130.56 130.56 0 0 0-0.61-2.48c-0.06-0.18-0.96-0.81-2.01-1.4a57.96 57.96 0 0 1-9.98-7.78c-5.3-5.36-6.74-13.83-3.75-21.99 0.33-0.88 0.57-1.6 0.55-1.6s-0.96 0.7-2.08 1.58m197.07 20.34a256.46 256.46 0 0 1-21.79 8.6 772.39 772.39 0 0 0-7.7 2.67c-1.56 0.55-4.72 1.58-7.03 2.27a927.74 927.74 0 0 0-7.52 2.31 125.51 125.51 0 0 1-12.21 3.41c-10.02 2.35-15.15 3.13-29.3 4.45-12.67 1.19-26.59 0.35-46.29-2.78-5.7-0.9-16.54-3.55-27.24-6.65-9.71-2.8-12.48-3.58-12.56-3.5-0.13 0.13 3.6 3.9 5.32 5.36 6.14 5.26 17.46 12.72 23.94 15.78 12.55 5.94 23.39 9.4 37.89 12.07 10.37 1.92 26.36 1.48 38.08-1.05 8.67-1.86 12.47-2.81 15.63-3.9 2.1-0.72 5.12-1.9 5.6-2.16 0.2-0.11 1.32-0.63 2.5-1.16a214.63 214.63 0 0 0 15.43-8.58c5.57-3.62 15.37-12 20.38-17.4 4.35-4.71 9.2-10.47 8.99-10.66-0.04-0.03-1 0.38-2.12 0.92m-60.21 5.61c0.24 1.71 0.1 7.16-0.22 8.98-0.37 2.05-0.66 1.94 2.9 1.1l3.03-0.73-1.18-2.35c-0.98-1.95-3.7-6.7-4.47-7.78-0.15-0.21-0.17 0-0.06 0.78m-115.37 6.52c-0.08 1.42 3.42 9.51 5.71 13.2 6.24 10 19.7 19.98 31.98 23.7 15.92 4.83 29.09 5.14 42.04 1 3.57-1.15 3.58-1.17 0.5-1.33-17.56-0.9-41.19-8.35-56.5-17.79-11.2-6.9-18.23-12.42-22.9-17.97-0.45-0.54-0.82-0.9-0.83-0.81" fill="#fbb427"/><path d="m159.05 180.98c-17.34 2.18-28.43 18.41-24.7 36.17l0.32 1.51 1.4 0.76c1.56 0.84 3.2 1.41 7.24 2.54 1.5 0.41 6.11 1.74 10.25 2.94 11.18 3.26 21.65 5.8 28.4 6.89l3.87 0.62 0.57-0.67c7.48-8.85 9-21.98 3.8-32.9-5.7-11.99-18.68-19.43-31.15-17.86m52.11 12.78a33.95 33.95 0 0 0-13.73 5.47c-2.57 1.74-2.36 1.35-1.8 3.35 2.8 9.91 1.27 20.41-4.19 28.57-0.66 0.99-1.17 1.82-1.13 1.86 0.15 0.13 7.43 1.08 9.73 1.28 7.19 0.59 15.92 0.74 22.27 0.38 6.18-0.35 15.47-1.3 15.67-1.62 0.7-1.12 1.7-6.85 1.84-10.58 0.7-18.4-12.26-31.39-28.66-28.71m-31.6 5.3c7.83 2.3 10.42 12.59 4.63 18.4-6.66 6.68-17.91 1.7-17.93-7.92-0.02-7.15 6.67-12.43 13.3-10.49m33.3 4.44c7.17 2.6 9.74 11.23 4.94 16.62-6.02 6.78-17.6 1.92-17.63-7.4-0.02-6.62 6.59-11.42 12.68-9.22" fill="#fafafa"/><path d="m233.25 0.18c-2.4 0.56-4.34 1.61-7.4 4-0.91 0.7-4.28 4.07-5 5-0.33 0.4-0.72 0.89-0.89 1.06-0.17 0.18-0.65 0.8-1.09 1.4l-1.32 1.8a73.73 73.73 0 0 0-4.43 7 51.16 51.16 0 0 1-1.37 2.44c-0.74 0.93-5.29 10.8-6.92 15.02a87.47 87.47 0 0 1-0.7 1.76c-1.16 2.7-4.52 13.03-6.81 20.9a256 256 0 0 1-1 3.32c-0.5 1.6-3.35 12.5-4.17 15.94-0.88 3.7-1.74 7.79-3.03 14.53a693.26 693.26 0 0 0-4.8 31.84l-0.67 5.76c-0.35 2.99-0.98 9.43-1.31 13.57-0.08 0.97-0.18 1.58-0.22 1.37a94.45 94.45 0 0 0-2.67-8.8 89.47 89.47 0 0 0-5.53-11.6c-1.67-3.06-4.74-7.82-5.86-9.1a39.83 39.83 0 0 1-1.22-1.55c-0.48-0.64-1-1.3-1.17-1.47a48.81 48.81 0 0 1-1.17-1.36c-1.06-1.26-5.8-6-7.23-7.24a78.4 78.4 0 0 1-1.34-1.17c-0.18-0.16-0.9-0.71-1.59-1.23a68.47 68.47 0 0 1-1.63-1.23c-1.2-1-4.66-2.83-7.95-4.23-10.73-4.57-19.63-3.67-22.8 2.3-1.04 1.94-0.37 6.3 1.11 7.32a9 9 0 0 1 0.8 1.07c0.68 1 0.97 1.37 1.66 2.17l0.98 1.18c0.32 0.4 0.72 0.87 0.88 1.05 0.16 0.17 0.69 0.83 1.17 1.46 0.91 1.2 1.36 1.74 2.1 2.59 0.24 0.28 0.44 0.56 0.44 0.62 0 0.07 0.24 0.4 0.54 0.73l1.41 1.65a94.84 94.84 0 0 0 8.7 8.67l1.85 1.67a176.82 176.82 0 0 0 4.41 3.8l1.17 0.98c0.24 0.22 0.76 0.65 1.15 0.98a200.6 200.6 0 0 1 16.51 16.11 49.66 49.66 0 0 1 1.66 1.87l0.98 1.15 0.98 1.16 0.97 1.2c0.22 0.25 0.61 0.74 0.88 1.09 0.27 0.34 0.62 0.76 0.79 0.94 0.16 0.17 0.5 0.62 0.77 1 0.26 0.37 0.58 0.78 0.71 0.91s0.43 0.57 0.68 0.98c0.25 0.4 0.75 1.12 1.11 1.6 0.55 0.72 1.8 2.95 1.8 3.2 0 0.04-1.82 0.14-4.05 0.21-2.23 0.08-4.93 0.24-6 0.36-1.08 0.12-3.1 0.2-4.5 0.17a57.96 57.96 0 0 0-20.02 2.98c-1.9 0.62-2.53 0.84-4.6 1.63l-1.16 0.45c-4.03 1.54-7.64 3.21-8.4 3.9-0.21 0.19-0.75 0.57-1.2 0.84-1.24 0.78-4.39 3.75-5.83 5.51a13.1 13.1 0 0 1-3.74 3.35c-0.84 0.52-1.67 1.09-1.85 1.26-0.17 0.17-0.68 0.52-1.12 0.77-0.45 0.25-0.81 0.52-0.81 0.6s-0.31 0.33-0.69 0.57c-0.66 0.4-1.1 0.75-2.19 1.7-0.27 0.24-0.55 0.44-0.62 0.44s-0.4 0.24-0.73 0.54a39.95 39.95 0 0 1-1.35 1.12c-0.4 0.33-0.93 0.76-1.17 0.98l-1.15 0.98c-0.4 0.32-1.06 0.89-1.48 1.27l-1.76 1.56a213 213 0 0 0-3.72 3.32l-2.15 1.95c-1.97 1.8-8.5 8.32-9.55 9.56l-1.27 1.49c-0.22 0.24-0.7 0.86-1.08 1.36a24.53 24.53 0 0 1-1.02 1.27c-0.18 0.2-0.55 0.71-0.8 1.13-0.27 0.41-0.6 0.88-0.75 1.03-1.44 1.5-6.7 11.1-8.84 16.1a477.6 477.6 0 0 1-1.1 2.53c-3 6.84-5.23 15.4-6.35 24.46l-0.34 2.79-0.63-1.05c-0.34-0.57-0.77-1.2-0.94-1.4-0.17-0.21-0.73-0.95-1.24-1.65a42.89 42.89 0 0 0-1.33-1.73l-0.78-0.9a83.5 83.5 0 0 0-7.06-7.28 82.62 82.62 0 0 0-4.06-3.67 41.39 41.39 0 0 1-1.48-1.27 42.23 42.23 0 0 0-1.47-1.26 39.9 39.9 0 0 1-1.15-0.98c-0.24-0.22-0.77-0.66-1.17-0.98a39.7 39.7 0 0 1-1.16-0.97c-0.25-0.22-0.74-0.61-1.1-0.88a19.79 19.79 0 0 1-1.1-0.88 41.86 41.86 0 0 0-1.16-0.98 99.95 99.95 0 0 1-1.23-1.01l-2.37-1.96a159.9 159.9 0 0 1-3.23-2.7 47.48 47.48 0 0 0-1.19-0.97 21.95 21.95 0 0 1-1.04-0.88 10.9 10.9 0 0 0-0.99-0.77 8.16 8.16 0 0 1-0.78-0.6c-0.05-0.06-0.4-0.32-0.78-0.58-0.37-0.26-0.78-0.58-0.9-0.7-0.52-0.49-4.33-2.62-4.9-2.74-1.26-0.25-1.26-0.25-5.48 4.05a1004.9 1004.9 0 0 1-11.02 11.01 78.87 78.87 0 0 0-4.92 5.16c-2.15 1.83-2.62 3.02-1.62 4.02 0.18 0.17 0.4 0.46 0.5 0.64 0.17 0.3 0.7 0.34 5.13 0.35 4.14 0.01 5.38 0.09 7.59 0.45 7.18 1.18 15.22 3.15 20.06 4.92l2.15 0.79c4.4 1.6 11.94 4.95 11.69 5.2-0.04 0.04-0.59-0.06-1.22-0.22-8.33-2.13-19.66-1.54-32.1 1.7-2.3 0.6-4.9 1.22-5.76 1.4-2.66 0.54-3.16 1.64-2.06 4.5l1.77 4.88a404.1 404.1 0 0 0 1.7 4.69l0.65 1.85a97.36 97.36 0 0 0 1.56 4.4c0.1 0.21 0.3 0.78 0.46 1.27 0.5 1.5 1.1 3.13 1.28 3.48 0.1 0.18 0.45 1.03 0.79 1.89 1.9 4.85 3.03 6.03 5.18 5.45 0.45-0.12 1.27-1.28 1.27-1.8 0-0.6 1.55-5.1 2.34-6.8 0.78-1.68 3-5.18 3.87-6.11a25.93 25.93 0 0 1 4.33-4.38c0.82-0.67 2.6-1.74 3.7-2.22l1.48-0.65c5.66-2.5 21.16-1.76 28.26 1.34l0.9 0.4 0.11 1.23 0.32 3.72c0.7 8.2 2.99 17.1 6.1 23.78 0.38 0.8 0.88 1.9 1.11 2.44 2.35 5.38 6.65 11.39 10.57 14.75a70.63 70.63 0 0 1 1.34 1.17c0.18 0.17 0.63 0.51 1 0.78 0.38 0.26 0.74 0.55 0.8 0.64 0.07 0.1 0.34 0.32 0.61 0.5s1.2 0.85 2.07 1.5c4.6 3.43 15.36 9.17 19.96 10.65a285.79 285.79 0 0 0 15.92 5.29c22.07 6.95 55.92 9 76.65 4.65l2.74-0.57c1.87-0.37 5.26-1.2 7.22-1.78a241.9 241.9 0 0 0 9.48-3.09c0.21-0.1 1.57-0.62 3.02-1.17a110.2 110.2 0 0 0 5.77-2.36 63.87 63.87 0 0 0 12.24-6.86c0.2-0.2 0.43-0.37 0.51-0.37 0.1 0 0.44-0.24 0.77-0.53a106.02 106.02 0 0 0 11.18-10.6 223.25 223.25 0 0 1 1.27-1.46c0.22-0.25 0.66-0.77 0.98-1.17s0.9-1.06 1.27-1.47c0.38-0.41 0.95-1.08 1.27-1.47 0.32-0.4 0.76-0.92 0.98-1.15a150.97 150.97 0 0 0 2.63-3.09l1.03-1.2c0.3-0.33 0.53-0.66 0.53-0.74 0-0.07 0.22-0.39 0.48-0.7 1.61-1.91 4.76-9.19 5.69-13.14 2.92-12.41 3.52-22.5 2.03-34.08-0.39-3.03-1.22-7.52-1.56-8.42-0.11-0.29-0.18-0.54-0.15-0.57l1.52-0.78c1.3-0.64 4.72-2.56 8.07-4.5 0.63-0.37 1.18-0.67 1.23-0.67 0.16 0 3.88-2.18 3.98-2.33 0.06-0.08 0.72-0.53 1.47-1 0.75-0.48 1.51-1.01 1.7-1.2 0.18-0.18 0.6-0.47 0.92-0.64 0.33-0.17 0.6-0.37 0.6-0.46 0-0.08 0.24-0.29 0.54-0.46a8.56 8.56 0 0 0 0.96-0.68l1.15-0.94a146.73 146.73 0 0 0 4.97-4.2 94.64 94.64 0 0 0 2.16-1.96c3.53-3.3 5.34-5.02 5.63-5.33 0.17-0.2 0.93-1 1.68-1.79a106.64 106.64 0 0 0 2.34-2.53 169.18 169.18 0 0 1 1.66-1.86c0.38-0.4 0.95-1.07 1.27-1.46 0.33-0.4 0.84-1 1.15-1.34 0.3-0.35 0.79-0.93 1.07-1.31s0.57-0.73 0.62-0.78c0.06-0.06 0.32-0.4 0.58-0.78s0.57-0.77 0.69-0.88c1.33-1.22 3.87-5.71 3.89-6.87 0.03-2.23-2.83-3.07-4.33-1.27-0.33 0.4-10.64 5.16-13.73 6.34l-3.32 1.31a162.7 162.7 0 0 1-11.08 4.09 345.18 345.18 0 0 0-5.71 1.96c-4.22 1.5-5.88 2.04-11.23 3.63l-3.13 0.97-4 1.26c-1.45 0.45-2.84 0.9-3.08 0.99-0.4 0.16-0.5 0.05-1.24-1.43-1.68-3.35-5.25-9.62-5.65-9.9-0.07-0.06-0.56-0.75-1.09-1.55l-1.66-2.51c-0.4-0.6-0.8-1.13-0.9-1.2-0.1-0.06-0.37-0.45-0.62-0.85-0.24-0.4-0.5-0.73-0.58-0.73-0.22 0-0.76-1.02-1.1-2.07a23.35 23.35 0 0 0-0.48-1.35l-0.89-2.15c-1.05-2.57-3.85-7.45-5.16-9a30.53 30.53 0 0 1-0.99-1.25c-1.35-1.83-6.06-6.52-7.66-7.64a14.37 14.37 0 0 0-2.1-1.48c-5.3-3.26-12.42-5.88-16.95-6.23-1.55-0.13-1.9-0.24-3.95-1.26-7.74-3.85-14.53-6.34-21.52-7.9-1.37-0.3-1.51-0.37-1.62-0.87-0.32-1.43 1.97-12.4 3.82-18.37a150.88 150.88 0 0 1 4.29-12.2l1.24-2.97c0.93-2.2 5.25-11.82 6.67-14.85a284.25 284.25 0 0 1 5.04-11.26 94.6 94.6 0 0 0 1.3-2.77c0-0.08 1.56-3.38 3.78-7.98 0.93-1.92 1.69-3.52 1.69-3.55s0.51-1.14 1.15-2.46c2.8-5.88 6.93-14.59 7.25-15.3 0.19-0.43 0.66-1.49 1.06-2.35 2.03-4.4 3-6.69 5.34-12.5 1.15-2.84 3.6-10.02 6.08-17.77l0.96-3.03c4-12.46 5.48-25.85 3.8-34.18-1.04-5.19-4.25-7.9-8.26-6.96m-51.27 171.83c3.48 0.58 9.46 1.88 12.01 2.62 3.97 1.16 12.3 4.48 11.98 4.78-0.1 0.08-0.91 0.39-1.82 0.69-2.45 0.8-8.1 3.12-9.7 3.99l-1.4 0.75-0.6-0.84c-2.94-4.1-7.89-8.1-13.92-11.26l-2.6-1.36 1.85 0.12c1.02 0.06 2.91 0.3 4.2 0.5m-14.85 9.09c23 3.68 33.97 31.02 20.05 49.88-0.6 0.8-1.1 1.5-1.12 1.53-0.07 0.1-6.44-0.93-8.87-1.43a384.04 384.04 0 0 1-29.78-7.8 298.56 298.56 0 0 0-5.47-1.57c-4.48-1.25-7.23-2.56-7.52-3.59-0.94-3.38-1.19-9.7-0.52-13.31 2.95-15.92 17.43-26.25 33.23-23.71m-49.61 11.55c-3.24 7.56-2.72 15.54 1.37 21.24 2.07 2.87 7.69 7.58 12 10.05l1.73 0.99 0.58 2.39c3.39 13.85 13.45 25.99 28.76 34.7 13.1 7.44 33.41 10.77 47.87 7.84 6.92-1.4 16.79-4.73 18.37-6.2 0.47-0.44 0.75-0.5 3.15-0.66 10.93-0.73 25.5-3.78 34.4-7.2a37.6 37.6 0 0 1 2.58-0.94 84.73 84.73 0 0 1 0.55 36.17c-2.36 11.84-3.35 13.73-13.1 25-11.2 12.94-17.13 17.32-30.96 22.83-1.79 0.72-3.3 1.3-3.37 1.3-0.06 0-0.12-0.6-0.12-1.34 0-19.02-27.66-34.53-57.13-32.05-24.56 2.07-41.98 14.08-43.5 30l-0.22 2.37-3.64-1.23c-15.29-5.17-28.05-12.95-33.56-20.46-12.34-16.8-15.77-34.55-11.54-59.71 2.44-14.54 10.66-31.99 19.97-42.41 4.48-5.02 15.56-15.14 22.57-20.62 3.08-2.41 3.5-2.68 3.24-2.06m100.6 0.85c15.55 1.9 24.65 16.96 21.17 35.04-0.6 3.16-1.15 4.78-1.63 4.88-0.67 0.13-10.35 1.06-13.2 1.27-9.84 0.7-22.24 0.27-31.17-1.07a319.12 319.12 0 0 0-3.37-0.5c-0.04 0 0.2-0.32 0.51-0.72 6.06-7.74 8.15-20.52 4.94-30.23-0.47-1.42-0.5-1.38 2.03-3.06 6.48-4.34 14.14-6.41 20.71-5.6m-43.57 5.52c-8.1 1.85-10.92 12.24-4.97 18.27 6.61 6.7 17.58 1.96 17.58-7.6 0-6.94-6.16-12.14-12.61-10.67m32.1 4.67c-6.85 2.34-8.58 11.02-3.25 16.37 5.72 5.76 15.23 3.01 16.59-4.79 1.3-7.48-6.21-14-13.34-11.58m108.3 9.56c-10.68 13.95-22.77 24.63-36.87 32.57-11.93 6.71-17.1 8.57-33.16 11.9-10.6 2.2-25.31 2.64-35.49 1.07-22.96-3.54-44.45-12.81-61.52-26.54-3.39-2.72-7.7-6.93-7.4-7.23 0.09-0.09 2.76 0.66 11.44 3.18 22.73 6.62 39.12 9.53 57.4 10.19 8.09 0.3 13.83 0.03 25.28-1.17 7.86-0.82 13.71-1.82 21.19-3.6 1.93-0.47 3.86-0.9 4.28-0.98s1.56-0.39 2.54-0.7l5.77-1.82a528.6 528.6 0 0 1 7.42-2.28c1.88-0.56 5.05-1.59 7.04-2.28 1.98-0.7 5.64-1.95 8.11-2.8a239.71 239.71 0 0 0 21.97-8.76c2.3-1.1 2.26-1.09 2-0.75m-61.21 8.22c2.06 3.46 4.38 7.88 4.18 8-0.3 0.17-6.32 1.55-6.4 1.46a7.2 7.2 0 0 1 0.21-1.63c0.34-1.71 0.48-7.59 0.22-9.53-0.2-1.53-0.04-1.38 1.79 1.7m-115.56 6.33c6.34 7.6 22.54 18.69 35.02 23.98 15.92 6.75 29.92 10.36 43.54 11.22 1.82 0.11 3.34 0.23 3.38 0.27 0.11 0.11-5.27 1.86-7.27 2.35-11.94 2.96-22.57 2.46-37.5-1.78-12.3-3.49-26.21-13.49-32.57-23.42-2.5-3.9-5.58-10.76-6.12-13.64-0.18-0.97-0.09-0.9 1.52 1.02" fill="#040404"/><path d="m96.14 151.1c-6.07 0.41-21.26 2.87-24.6 3.96-1.02 0.34-1.04 0.63-0.9 12.34 0.15 12.04 0.07 11.5 1.63 10.95 0.46-0.16 1.11-0.51 1.46-0.78 0.35-0.26 1.11-0.73 1.7-1.05 0.6-0.31 1.52-0.82 2.06-1.12a61.47 61.47 0 0 1 12.14-5.16l4.07-1.15c10-2.96 11.93-3.44 18.46-4.61 13.06-2.35 22.16-2.77 35.15-1.6 5.45 0.5 16.62 1.93 17.66 2.28 2.77 0.92 3.07-0.62 0.37-1.9-13.73-6.5-32.68-11.2-48.2-11.97-5.53-0.27-18.21-0.4-21-0.2m161.03 9.1c-9.5 0.56-13.22 1.03-22.26 2.82-7.89 1.56-17.98 4.45-22.8 6.53-1.92 0.82-2.33 1.47-1.63 2.54 0.39 0.6-0.43 0.56 9.39 0.5 19.48-0.1 35.45 1.98 53.32 6.94 4.5 1.25 8.57 2.51 9.3 2.89 0.27 0.14 0.93 0.42 1.46 0.62s1.05 0.4 1.15 0.48c0.11 0.07 0.64 0.29 1.18 0.48 0.79 0.29 5.45 2.56 9.09 4.44 1.45 0.74 2.4 0.07 1.86-1.34-0.15-0.41-0.6-1.76-1-3a77.02 77.02 0 0 0-6.12-13.86l-1.06-1.96c-0.26-0.48-0.9-1.55-1.43-2.37a114.21 114.21 0 0 1-1.58-2.56l-0.63-1.06-1.62-0.32c-6.33-1.25-19.97-2.15-26.62-1.76" fill="#9b4c24"/><path d="m303.65 226.14-0.58 0.63 0.64-0.57c0.59-0.54 0.72-0.7 0.57-0.7-0.03 0-0.32 0.29-0.63 0.64m-162.59 4.9c0 0.02 0.29 0.31 0.64 0.63l0.63 0.57-0.57-0.64c-0.54-0.59-0.7-0.72-0.7-0.57m69.39 7.5c0.3 0.05 0.77 0.05 1.07 0 0.3-0.04 0.05-0.08-0.54-0.08s-0.83 0.04-0.53 0.08m7.32 0c0.24 0.05 0.64 0.05 0.88 0s0.04-0.08-0.44-0.08-0.68 0.03-0.44 0.08m-69.29 8.94a27.16 27.16 0 0 0 1.95 1.86c0.05 0-0.74-0.84-1.75-1.86a27.78 27.78 0 0 0-1.95-1.85c-0.05 0 0.74 0.83 1.75 1.85m74.86 12.35a8.53 8.53 0 0 0 1.46 0c0.4-0.04 0.07-0.07-0.73-0.07s-1.14 0.03-0.73 0.07m-28.62 7.62c0.25 0.04 0.64 0.04 0.88 0 0.24-0.05 0.05-0.09-0.44-0.09-0.48 0-0.68 0.04-0.44 0.09m4.2 0c0.19 0.04 0.5 0.04 0.69 0 0.18-0.06 0.03-0.1-0.35-0.1s-0.53 0.04-0.34 0.1m1.08 3.51c0.24 0.05 0.6 0.05 0.78 0 0.19-0.05-0.01-0.09-0.44-0.09s-0.58 0.05-0.34 0.1m-114.31 49.45c0.42 0.43 0.8 0.78 0.86 0.78 0.05 0-0.24-0.35-0.67-0.78-0.42-0.43-0.8-0.78-0.86-0.78-0.05 0 0.25 0.35 0.67 0.78m165.32 0.93-0.67 0.73 0.73-0.67c0.4-0.37 0.73-0.7 0.73-0.73 0-0.15-0.16-0.01-0.79 0.67m-37.78 0.24c0.42 0.44 0.8 0.79 0.86 0.79 0.05 0-0.25-0.35-0.67-0.78s-0.8-0.79-0.86-0.79c-0.05 0 0.25 0.36 0.67 0.79m34.66 2.88-0.68 0.73 0.74-0.67c0.4-0.38 0.73-0.7 0.73-0.74 0-0.15-0.17 0-0.8 0.68" fill="#594923"/><path d="m183.83 189.86c0.7 0.7 1.3 1.27 1.36 1.27 0.05 0-0.47-0.57-1.16-1.27-0.7-0.7-1.3-1.27-1.36-1.27-0.05 0 0.47 0.57 1.16 1.27m19.03 15.96-0.57 0.64 0.64-0.58c0.59-0.53 0.72-0.7 0.57-0.7-0.03 0-0.32 0.3-0.64 0.64m-69.35 4.45c0 0.91 0.04 1.28 0.08 0.83 0.04-0.46 0.04-1.2 0-1.66s-0.08-0.09-0.08 0.83m63.47 1.95c0 0.7 0.04 0.98 0.08 0.64 0.05-0.35 0.05-0.92 0-1.27-0.04-0.35-0.08-0.07-0.08 0.63m3.12 0.49c0 0.54 0.04 0.73 0.09 0.43a3.5 3.5 0 0 0 0-0.97c-0.05-0.24-0.09 0-0.09 0.54m-6.84 1.27c0 0.37 0.04 0.53 0.08 0.34a1.61 1.61 0 0 0 0-0.68c-0.05-0.2-0.09-0.04-0.09 0.34m-23.87 3.42c0.37 0.37 0.7 0.68 0.76 0.68s-0.2-0.3-0.56-0.68c-0.37-0.38-0.71-0.69-0.76-0.69-0.06 0 0.2 0.31 0.56 0.69m33.79 2.73c0.37 0.38 0.7 0.68 0.76 0.68 0.05 0-0.2-0.3-0.56-0.68-0.37-0.37-0.71-0.68-0.76-0.68-0.06 0 0.2 0.3 0.56 0.68m-26.7 0.43c0.3 0.05 0.73 0.05 0.97 0s0-0.08-0.54-0.08-0.73 0.04-0.44 0.08m33.6 2.74c0.29 0.04 0.77 0.04 1.07 0 0.3-0.05 0.05-0.08-0.54-0.08s-0.83 0.03-0.53 0.08m-6.45 11.32c0.19 0.05 0.5 0.05 0.68 0 0.2-0.05 0.04-0.09-0.34-0.09s-0.53 0.04-0.34 0.1m4 0.19c0.24 0.05 0.64 0.05 0.88 0s0.05-0.08-0.44-0.08c-0.48 0-0.68 0.03-0.44 0.08m12.9 0c0.24 0.05 0.6 0.04 0.78 0 0.18-0.05-0.01-0.1-0.44-0.09-0.43 0-0.59 0.04-0.34 0.09" fill="#747474"/><path d="m141.93 189.22-0.58 0.64 0.64-0.58c0.35-0.31 0.63-0.6 0.63-0.63 0-0.15-0.16-0.02-0.7 0.57m72.82 4.2c0.3 0.04 0.74 0.04 0.98 0 0.24-0.05 0-0.09-0.54-0.09s-0.73 0.04-0.44 0.09m25.2 27.5c0.01 0.64 0.05 0.88 0.09 0.53a5.14 5.14 0 0 0 0-1.18c-0.05-0.29-0.08 0-0.08 0.64" fill="#6c6c6c"/><path d="m162 180.71c0.2 0.05 0.5 0.05 0.7 0 0.18-0.05 0.03-0.09-0.35-0.09s-0.53 0.04-0.34 0.1m69.48 18.87c0 0.03 0.29 0.32 0.63 0.63l0.64 0.58-0.57-0.64c-0.54-0.6-0.7-0.72-0.7-0.57m-62.22 2.33-0.57 0.63 0.63-0.57c0.6-0.54 0.73-0.7 0.58-0.7-0.04 0-0.32 0.29-0.64 0.64m17.94 7.86c0 0.64 0.04 0.88 0.08 0.53a5.15 5.15 0 0 0 0-1.17c-0.04-0.3-0.08 0-0.08 0.64m52.72 12.8c0 0.37 0.04 0.52 0.1 0.33a1.61 1.61 0 0 0 0-0.68c-0.06-0.19-0.1-0.03-0.1 0.34m-27.43 12.45c1.1 0.04 2.9 0.04 4 0 1.1-0.03 0.2-0.06-2-0.06s-3.1 0.03-2 0.06" fill="#3c3c3c"/></g><path transform="translate(-32.57,-21.18)" d="m347.04 234.68c-0.04-0.03-0.99 0.38-2.12 0.91a256.4 256.4 0 0 1-21.78 8.61 770.36 770.36 0 0 0-7.71 2.67c-1.56 0.56-4.72 1.58-7.03 2.27a924.12 924.12 0 0 0-7.52 2.31 125.5 125.5 0 0 1-12.2 3.4c-10.03 2.36-15.16 3.14-29.3 4.46-12.68 1.18-26.6 0.35-46.3-2.78-5.7-0.9-16.54-3.55-27.24-6.65-9.71-2.8-12.48-3.58-12.56-3.5-0.13 0.13 3.6 3.89 5.32 5.36 6.14 5.25 17.46 12.72 23.94 15.78 12.55 5.94 23.4 9.39 37.89 12.07 10.37 1.92 26.36 1.48 38.09-1.05 8.66-1.86 12.46-2.81 15.62-3.9 2.1-0.72 5.12-1.9 5.6-2.16 0.2-0.11 1.32-0.63 2.5-1.16a214.6 214.6 0 0 0 15.44-8.58c5.56-3.62 15.36-12 20.37-17.4 4.35-4.71 9.21-10.47 9-10.66zm-177.7 13.05c-0.08 1.42 3.42 9.51 5.72 13.2 6.24 10 19.7 19.98 31.97 23.7 15.92 4.83 29.1 5.14 42.04 1 3.57-1.15 3.58-1.17 0.5-1.33-17.56-0.9-41.19-8.35-56.5-17.79-11.2-6.9-18.23-12.42-22.9-17.97-0.44-0.54-0.82-0.9-0.82-0.81z" fill="#ffd933"/></g></svg>
