<?xml version="1.0" encoding="UTF-8" standalone="no"?>
<svg
   id="svg"
   version="1.1"
   width="100%"
   height="100%"
   viewBox="0, 0, 400,400"
   sodipodi:docname="chuck.svg"
   inkscape:version="1.2.2 (732a01da63, 2022-12-09)"
   xmlns:inkscape="http://www.inkscape.org/namespaces/inkscape"
   xmlns:sodipodi="http://sodipodi.sourceforge.net/DTD/sodipodi-0.dtd"
   xmlns="http://www.w3.org/2000/svg"
   xmlns:svg="http://www.w3.org/2000/svg">
  <defs
     id="defs4663" />
  <sodipodi:namedview
     id="namedview4661"
     pagecolor="#ffffff"
     bordercolor="#000000"
     borderopacity="0.25"
     inkscape:showpageshadow="2"
     inkscape:pageopacity="0.0"
     inkscape:pagecheckerboard="0"
     inkscape:deskcolor="#d1d1d1"
     showgrid="false"
     inkscape:zoom="2.01"
     inkscape:cx="181.09453"
     inkscape:cy="200.24876"
     inkscape:window-width="1920"
     inkscape:window-height="991"
     inkscape:window-x="-9"
     inkscape:window-y="56"
     inkscape:window-maximized="1"
     inkscape:current-layer="svg" />
  <g
     id="svgg">
    <path
       id="path0"
       d="M165.039 79.906 C 154.031 80.881,142.215 85.119,136.865 90.012 C 135.547 91.217,136.439 92.521,138.220 91.991 C 139.383 91.645,144.894 91.530,148.319 91.781 C 160.198 92.651,168.892 96.710,178.603 105.919 C 180.048 107.290,180.010 107.321,177.635 106.733 C 167.013 104.103,155.145 107.169,144.065 115.406 C 138.532 119.520,138.023 122.499,143.122 120.924 C 153.319 117.776,164.154 118.321,172.416 122.397 C 174.235 123.294,174.301 123.438,172.894 123.438 C 170.656 123.438,167.981 124.344,165.588 125.912 C 158.657 130.455,155.172 139.987,161.880 136.055 C 170.243 131.153,179.845 131.181,185.533 136.126 L 186.203 136.708 185.059 137.739 C 183.530 139.117,183.208 139.400,182.010 140.430 C 180.655 141.593,175.256 146.998,174.512 147.935 C 174.189 148.341,173.574 149.040,173.145 149.490 C 172.715 149.939,171.968 150.772,171.484 151.341 C 171.001 151.910,170.430 152.576,170.215 152.821 C 170.000 153.065,169.604 153.544,169.336 153.883 C 168.669 154.727,168.112 155.421,167.347 156.363 C 166.623 157.254,166.234 157.771,165.004 159.473 C 164.538 160.117,163.960 160.908,163.719 161.230 C 163.478 161.553,162.962 162.300,162.572 162.891 C 162.181 163.481,161.797 164.009,161.718 164.063 C 161.639 164.116,161.283 164.644,160.928 165.234 C 160.572 165.825,160.047 166.616,159.763 166.992 C 159.478 167.368,158.461 168.934,157.503 170.471 C 154.166 175.827,153.221 177.308,152.911 177.667 C 152.740 177.865,152.141 178.795,151.581 179.734 C 151.021 180.673,150.454 181.552,150.322 181.687 C 150.189 181.823,149.496 182.877,148.781 184.031 C 148.066 185.184,147.383 186.239,147.262 186.374 C 147.142 186.510,146.396 187.676,145.605 188.965 C 144.813 190.254,143.690 192.056,143.109 192.969 C 141.582 195.367,128.604 217.406,124.937 223.828 C 124.293 224.956,122.759 227.623,121.529 229.756 C 120.299 231.888,119.192 233.821,119.068 234.052 C 118.739 234.668,115.959 239.595,114.502 242.146 C 113.083 244.628,113.198 244.578,111.426 243.507 C 107.728 241.271,103.394 234.887,101.582 229.004 C 100.420 225.232,99.110 217.505,99.290 215.485 C 99.428 213.940,98.704 213.166,97.738 213.821 C 97.067 214.276,95.397 217.762,94.206 221.191 C 91.739 228.299,92.215 236.181,95.367 240.412 L 96.154 241.469 93.927 241.350 C 83.088 240.768,71.668 234.832,63.770 225.675 C 63.125 224.928,62.551 224.272,62.494 224.219 C 61.454 223.240,55.857 215.218,54.010 212.061 C 53.248 210.757,53.229 210.742,52.401 210.742 L 51.563 210.742 51.562 211.572 C 51.562 212.404,52.547 219.736,52.909 221.595 C 56.323 239.152,67.416 254.348,79.171 257.568 L 80.501 257.932 79.752 258.444 C 72.202 263.605,64.455 267.090,62.037 266.413 C 60.990 266.120,60.391 266.279,60.238 266.889 C 59.766 268.769,70.417 273.429,77.020 274.233 C 81.619 274.793,92.865 273.818,98.698 272.354 C 99.353 272.190,99.367 272.102,98.418 274.150 C 95.923 279.538,95.453 280.607,94.734 282.520 C 94.039 284.372,93.453 285.885,92.616 287.988 C 91.439 290.946,91.084 291.921,90.446 293.945 C 89.398 297.273,88.878 299.102,88.672 300.195 C 88.560 300.786,88.340 301.753,88.182 302.344 C 85.070 314.018,85.536 319.998,89.880 324.132 C 94.679 328.699,97.453 329.993,108.300 332.725 C 111.416 333.510,114.844 334.382,115.918 334.664 C 119.296 335.551,124.952 336.710,127.832 337.106 C 128.691 337.225,130.713 337.535,132.324 337.796 C 135.903 338.377,139.482 338.877,145.508 339.638 C 149.718 340.169,153.059 340.525,161.328 341.322 C 162.993 341.482,166.641 341.834,169.434 342.103 C 183.082 343.418,216.067 344.054,235.254 343.373 C 238.691 343.250,244.823 343.066,248.880 342.964 C 259.911 342.684,262.639 342.515,275.488 341.319 C 280.552 340.847,282.247 340.672,292.676 339.543 C 300.331 338.714,305.915 337.899,309.863 337.032 C 310.615 336.867,311.824 336.602,312.549 336.443 C 314.286 336.061,316.569 335.431,318.262 334.866 C 319.014 334.615,319.937 334.322,320.313 334.215 C 320.688 334.109,321.567 333.803,322.266 333.536 C 322.964 333.269,324.106 332.832,324.805 332.565 C 325.503 332.299,327.524 331.486,329.297 330.759 C 331.069 330.032,333.047 329.242,333.691 329.003 C 336.351 328.019,340.114 326.129,340.845 325.410 C 341.485 324.781,342.106 324.313,342.811 323.929 C 346.636 321.842,347.956 315.906,346.202 308.691 C 344.845 303.115,341.515 292.574,340.155 289.551 C 340.010 289.229,339.290 287.559,338.555 285.840 C 336.539 281.129,327.091 262.339,324.559 258.008 C 323.335 255.913,322.003 253.606,321.599 252.881 C 321.151 252.076,320.738 251.562,320.540 251.562 C 320.182 251.562,316.936 252.174,316.826 252.263 C 316.788 252.293,317.838 254.192,319.160 256.481 C 331.023 277.040,339.707 296.959,342.272 309.500 C 343.086 313.478,343.090 314.594,342.298 316.895 C 342.150 317.324,341.978 317.908,341.915 318.191 C 341.726 319.041,340.131 320.976,338.723 322.063 C 336.969 323.417,335.521 324.091,327.441 327.312 C 313.730 332.778,308.316 334.006,288.965 336.036 C 285.420 336.408,282.212 336.758,281.836 336.813 C 281.460 336.868,278.735 337.133,275.781 337.400 C 272.827 337.668,269.092 338.014,267.480 338.170 C 254.966 339.381,203.118 340.310,189.355 339.570 C 180.957 339.118,174.073 338.692,173.145 338.566 C 172.715 338.508,168.716 338.107,164.258 337.674 C 149.960 336.288,150.618 336.362,140.137 334.945 C 135.257 334.286,135.080 334.260,129.124 333.313 C 124.482 332.575,119.463 331.557,116.406 330.734 C 115.386 330.459,112.354 329.678,109.668 328.997 C 101.671 326.971,99.648 326.309,97.408 324.981 C 96.681 324.549,95.818 324.084,95.491 323.946 C 92.183 322.555,90.049 318.718,90.042 314.145 C 90.035 310.279,93.022 297.920,95.536 291.406 C 96.179 289.741,97.170 287.148,97.740 285.645 C 99.089 282.081,100.458 279.005,103.565 272.559 C 107.991 263.378,114.728 249.781,115.855 247.754 C 119.838 240.592,126.583 228.783,130.079 222.852 C 131.124 221.079,132.985 217.871,134.215 215.723 C 140.701 204.397,147.747 192.785,153.117 184.570 C 155.189 181.401,157.939 177.139,159.229 175.098 C 166.716 163.251,170.456 158.235,178.239 149.605 C 185.655 141.381,197.511 132.457,204.937 129.509 C 208.339 128.158,211.836 128.960,215.919 132.028 C 224.899 138.775,235.529 148.998,249.023 163.867 C 250.242 165.210,251.984 167.100,252.894 168.066 C 254.391 169.657,256.289 171.844,263.831 180.664 C 265.163 182.222,267.143 184.595,268.231 185.938 C 269.319 187.280,271.464 189.855,272.997 191.658 C 274.530 193.462,277.025 196.487,278.543 198.380 C 280.060 200.274,282.699 203.530,284.407 205.617 C 292.225 215.170,299.885 225.371,304.979 233.010 C 307.351 236.568,308.737 238.475,308.950 238.473 C 309.479 238.468,312.146 237.737,312.338 237.545 C 312.489 237.393,310.369 233.699,309.958 233.398 C 309.885 233.345,309.445 232.686,308.981 231.934 C 308.516 231.182,307.998 230.404,307.828 230.206 C 307.658 230.007,307.080 229.165,306.543 228.334 C 304.936 225.848,303.984 224.464,303.654 224.134 C 303.482 223.962,303.145 223.471,302.904 223.044 C 302.664 222.616,302.401 222.266,302.320 222.266 C 302.240 222.266,301.976 221.914,301.734 221.484 C 301.493 221.055,301.231 220.703,301.152 220.703 C 301.073 220.703,300.807 220.374,300.561 219.971 C 300.315 219.568,300.014 219.150,299.892 219.043 C 299.770 218.936,299.463 218.540,299.210 218.164 C 298.956 217.788,298.697 217.437,298.633 217.383 C 298.569 217.329,298.302 216.978,298.040 216.602 C 297.562 215.915,297.390 215.691,296.479 214.572 C 296.207 214.238,295.592 213.438,295.112 212.793 C 294.632 212.148,294.180 211.576,294.107 211.521 C 294.034 211.466,293.550 210.850,293.031 210.154 C 292.070 208.861,291.648 208.336,290.869 207.466 C 290.627 207.195,290.430 206.919,290.430 206.851 C 290.430 206.783,290.188 206.454,289.893 206.121 C 289.597 205.787,289.092 205.186,288.770 204.786 C 288.447 204.386,288.008 203.861,287.793 203.619 C 287.578 203.378,287.204 202.926,286.961 202.615 C 286.430 201.936,284.323 199.325,283.727 198.607 C 283.493 198.325,283.081 197.813,282.813 197.471 C 282.544 197.128,282.191 196.699,282.029 196.517 C 281.866 196.335,281.516 195.881,281.250 195.508 C 280.984 195.135,280.634 194.692,280.471 194.524 C 280.309 194.356,279.956 193.922,279.688 193.559 C 279.419 193.196,279.023 192.701,278.809 192.459 C 278.594 192.217,278.154 191.696,277.832 191.301 C 277.510 190.906,277.070 190.389,276.855 190.152 C 276.641 189.915,276.069 189.254,275.586 188.683 C 275.103 188.111,274.531 187.445,274.316 187.203 C 274.102 186.960,273.662 186.434,273.340 186.034 C 273.018 185.635,272.619 185.164,272.454 184.988 C 272.289 184.812,271.762 184.144,271.282 183.503 C 270.803 182.862,270.278 182.195,270.117 182.019 C 269.956 181.844,269.429 181.231,268.945 180.657 C 268.462 180.084,267.891 179.421,267.676 179.184 C 267.461 178.947,267.021 178.430,266.699 178.035 C 266.377 177.640,265.938 177.120,265.723 176.878 C 265.508 176.637,264.937 175.972,264.453 175.401 C 263.970 174.830,263.398 174.161,263.184 173.914 C 262.969 173.666,262.529 173.141,262.207 172.746 C 261.885 172.351,261.445 171.828,261.230 171.583 C 261.016 171.338,260.444 170.679,259.961 170.118 C 258.403 168.311,257.537 167.337,256.738 166.495 C 255.913 165.625,253.570 163.084,251.735 161.068 C 249.655 158.784,248.141 157.147,247.070 156.025 C 246.479 155.406,245.117 153.968,244.043 152.829 C 242.198 150.872,238.477 146.958,238.142 146.623 C 236.903 145.382,230.938 139.637,229.942 138.725 C 229.211 138.057,228.251 137.178,227.808 136.772 C 225.530 134.688,225.018 134.238,224.415 133.789 C 224.054 133.521,223.560 133.125,223.318 132.910 C 223.076 132.695,222.552 132.256,222.152 131.934 C 221.753 131.611,221.100 131.079,220.700 130.750 L 219.973 130.152 220.723 129.298 C 222.966 126.746,225.313 119.538,225.525 114.551 C 225.832 107.353,223.686 100.874,218.085 92.091 C 213.667 85.162,210.690 81.154,209.500 80.533 C 207.993 79.746,207.542 80.821,208.201 83.630 C 209.605 89.606,209.681 92.427,208.561 96.985 C 208.005 99.243,207.950 99.291,207.091 98.242 C 205.995 96.903,202.572 93.474,201.497 92.638 C 200.972 92.229,200.442 91.801,200.320 91.686 C 199.788 91.186,196.223 88.627,194.434 87.459 C 184.644 81.072,176.241 78.913,165.039 79.906 M198.647 250.331 C 187.388 262.931,195.100 281.609,212.744 284.471 C 227.484 286.862,242.116 276.611,242.259 263.793 L 242.285 261.472 240.723 261.014 C 239.863 260.762,239.072 260.554,238.965 260.552 C 238.848 260.549,238.758 261.426,238.740 262.744 C 238.564 275.707,223.202 284.674,209.419 279.859 C 197.303 275.626,193.276 262.656,201.107 253.084 C 201.704 252.355,202.249 251.755,202.317 251.750 C 202.385 251.746,202.780 251.453,203.194 251.099 L 203.946 250.455 202.022 249.909 C 200.963 249.609,199.999 249.326,199.879 249.280 C 199.759 249.234,199.204 249.707,198.647 250.331 M306.581 254.102 C 304.406 254.540,304.443 254.468,305.686 255.819 C 311.216 261.829,310.491 271.026,304.077 276.242 C 302.134 277.822,302.582 277.834,298.769 276.101 C 297.029 275.310,294.463 274.201,293.066 273.637 C 288.155 271.654,285.806 270.639,282.227 268.954 C 280.239 268.019,277.791 266.915,276.786 266.500 L 274.958 265.747 275.092 264.565 C 275.165 263.915,275.479 262.595,275.789 261.632 C 276.098 260.669,276.333 259.864,276.311 259.843 C 276.214 259.755,272.356 260.574,272.217 260.712 C 272.026 260.903,271.492 263.391,271.488 264.111 C 271.484 264.772,271.525 264.772,268.533 264.125 C 262.637 262.850,257.003 263.710,251.998 266.647 C 250.237 267.681,242.508 275.130,239.684 278.516 C 238.653 279.751,236.703 282.036,235.349 283.594 C 232.322 287.078,229.327 290.689,228.709 291.602 C 228.455 291.978,228.043 292.495,227.795 292.751 C 226.521 294.067,227.116 294.932,231.798 298.565 C 233.699 300.041,236.092 301.923,237.116 302.748 C 245.886 309.812,255.588 313.368,264.272 312.703 C 274.085 311.950,278.378 310.237,290.234 302.345 C 293.081 300.450,295.981 298.568,296.680 298.162 C 297.378 297.757,298.125 297.263,298.340 297.066 C 298.701 296.734,298.942 296.720,301.563 296.884 C 303.120 296.982,307.031 297.151,310.254 297.261 C 313.477 297.370,317.124 297.557,318.359 297.676 C 323.539 298.175,326.367 297.391,326.367 295.456 C 326.367 293.657,321.402 289.474,311.781 283.167 L 306.081 279.430 307.545 278.064 C 313.550 272.455,314.821 263.402,310.602 256.281 C 309.884 255.069,308.711 253.688,308.438 253.734 C 308.362 253.746,307.527 253.912,306.581 254.102 M287.793 258.383 C 283.507 259.144,281.934 264.326,284.978 267.657 C 288.510 271.522,294.595 269.374,294.606 264.258 C 294.613 260.686,291.234 257.772,287.793 258.383 M224.032 259.784 C 218.689 260.831,216.889 267.227,220.885 270.965 C 224.405 274.257,230.040 273.325,231.918 269.140 C 234.121 264.231,229.474 258.717,224.032 259.784 M267.832 267.772 C 272.810 268.807,276.033 269.950,281.055 272.461 C 283.127 273.497,286.229 274.838,291.602 277.019 C 302.425 281.413,310.914 286.246,318.420 292.288 C 320.936 294.313,320.961 294.244,317.831 293.974 C 316.456 293.855,313.838 293.709,312.012 293.648 C 305.364 293.429,299.836 293.143,296.875 292.867 C 295.210 292.711,291.673 292.449,289.015 292.285 C 282.470 291.881,279.007 291.533,273.504 290.729 C 270.943 290.355,267.222 289.829,265.234 289.560 C 263.247 289.290,259.907 288.762,257.813 288.386 C 248.553 286.721,243.243 286.963,236.650 289.350 C 234.373 290.174,234.236 290.481,238.200 285.895 C 239.805 284.039,241.743 281.772,242.506 280.859 C 244.061 278.999,245.168 277.856,249.809 273.317 C 252.823 270.368,253.145 270.112,254.883 269.282 C 259.505 267.075,262.692 266.703,267.832 267.772 M250.205 291.023 C 251.650 291.135,254.766 291.572,257.129 291.995 C 259.492 292.418,262.480 292.902,263.770 293.071 C 265.059 293.240,268.794 293.766,272.070 294.239 C 278.372 295.148,282.591 295.578,288.953 295.959 L 292.847 296.191 287.976 299.433 C 278.682 305.619,277.051 306.473,271.973 307.814 C 259.782 311.032,250.447 308.687,238.965 299.522 C 237.461 298.322,235.549 296.820,234.717 296.186 C 232.898 294.799,232.915 294.929,234.453 294.179 C 237.765 292.564,241.979 291.453,246.680 290.955 C 247.056 290.915,247.412 290.869,247.471 290.852 C 247.530 290.834,248.760 290.912,250.205 291.023 "
       stroke="none"
       fill="#040404"
       fill-rule="evenodd" />
    <path
       id="path1"
       d="M203.213 251.131 C 196.455 256.026,195.165 266.797,200.524 273.583 C 211.739 287.786,238.520 280.333,238.567 262.996 L 238.574 260.465 221.777 255.632 C 212.539 252.974,204.756 250.748,204.482 250.685 C 204.122 250.603,203.771 250.727,203.213 251.131 M290.039 257.267 C 282.681 258.659,276.594 259.862,276.512 259.940 C 276.246 260.194,275.555 262.369,275.275 263.832 C 274.969 265.433,275.090 265.898,275.865 266.092 C 276.350 266.214,278.489 267.169,283.789 269.630 C 285.347 270.354,289.038 271.937,291.992 273.149 C 294.946 274.361,298.416 275.849,299.703 276.456 C 302.566 277.805,302.376 277.846,304.925 275.344 C 310.627 269.750,310.869 261.268,305.488 255.615 C 304.364 254.435,305.844 254.276,290.039 257.267 M290.695 258.600 C 294.743 260.115,296.009 265.149,293.079 268.079 C 290.291 270.867,285.770 269.966,283.944 266.257 C 281.687 261.672,285.958 256.828,290.695 258.600 M228.386 260.308 C 232.806 262.376,233.959 267.882,230.641 271.071 C 226.257 275.283,218.695 272.150,218.674 266.113 C 218.658 261.227,223.792 258.158,228.386 260.308 M235.938 304.813 C 235.562 304.848,234.023 304.973,232.520 305.091 C 218.064 306.224,200.550 310.629,187.305 316.462 C 178.669 320.265,175.264 321.935,171.587 324.170 C 165.652 327.776,157.031 335.115,157.031 336.560 C 157.031 336.960,157.415 337.039,160.547 337.286 C 161.782 337.383,166.089 337.777,170.117 338.160 C 184.646 339.542,215.007 340.155,234.766 339.465 C 238.257 339.343,244.390 339.159,248.395 339.056 C 260.158 338.753,266.184 338.335,280.957 336.799 C 283.535 336.531,287.358 336.138,289.453 335.926 C 307.615 334.084,313.980 332.619,327.734 327.117 C 334.883 324.257,337.695 322.988,337.695 322.623 C 337.695 321.735,333.259 318.975,328.669 317.007 C 321.978 314.139,308.128 310.266,300.000 308.990 C 298.550 308.763,295.474 308.229,293.164 307.805 C 290.854 307.381,287.867 306.907,286.525 306.752 L 284.085 306.470 281.935 307.717 C 273.302 312.725,261.114 314.237,252.441 311.375 C 249.918 310.542,243.588 307.415,241.178 305.811 L 239.490 304.688 238.056 304.719 C 237.267 304.736,236.313 304.778,235.938 304.813 "
       stroke="none"
       fill="#f5eed5"
       fill-rule="evenodd" />
    <path
       id="path2"
       d="M225.000 139.514 C 225.000 139.548,225.286 139.833,225.635 140.149 L 226.270 140.723 225.696 140.088 C 225.161 139.496,225.000 139.363,225.000 139.514 M227.539 141.858 C 227.539 141.892,227.825 142.177,228.174 142.493 L 228.809 143.066 228.235 142.432 C 227.700 141.840,227.539 141.707,227.539 141.858 M180.953 146.729 L 179.004 148.730 181.006 146.781 C 182.107 145.709,183.008 144.808,183.008 144.779 C 183.008 144.638,182.764 144.869,180.953 146.729 M234.570 148.730 C 236.125 150.288,237.441 151.563,237.495 151.563 C 237.549 151.563,236.320 150.288,234.766 148.730 C 233.211 147.173,231.895 145.898,231.841 145.898 C 231.787 145.898,233.015 147.173,234.570 148.730 M177.820 150.049 L 177.246 150.684 177.881 150.110 C 178.230 149.794,178.516 149.509,178.516 149.475 C 178.516 149.324,178.354 149.457,177.820 150.049 M176.257 151.807 L 175.684 152.441 176.318 151.868 C 176.667 151.552,176.953 151.267,176.953 151.233 C 176.953 151.082,176.792 151.215,176.257 151.807 M239.941 154.297 C 240.361 154.727,240.748 155.078,240.802 155.078 C 240.856 155.078,240.556 154.727,240.137 154.297 C 239.717 153.867,239.330 153.516,239.276 153.516 C 239.222 153.516,239.522 153.867,239.941 154.297 M243.262 157.813 C 243.900 158.457,244.465 158.984,244.519 158.984 C 244.573 158.984,244.095 158.457,243.457 157.813 C 242.819 157.168,242.253 156.641,242.200 156.641 C 242.146 156.641,242.624 157.168,243.262 157.813 M246.086 160.791 C 246.895 161.653,247.070 161.808,247.070 161.662 C 247.070 161.630,246.653 161.213,246.143 160.734 L 245.215 159.863 246.086 160.791 M247.656 162.561 C 247.656 162.595,247.942 162.880,248.291 163.196 L 248.926 163.770 248.352 163.135 C 247.817 162.543,247.656 162.410,247.656 162.561 M249.805 164.905 C 249.805 164.938,250.090 165.224,250.439 165.540 L 251.074 166.113 250.501 165.479 C 249.966 164.887,249.805 164.754,249.805 164.905 M252.734 168.066 C 253.099 168.442,253.441 168.750,253.495 168.750 C 253.548 168.750,253.294 168.442,252.930 168.066 C 252.565 167.690,252.223 167.383,252.169 167.383 C 252.116 167.383,252.370 167.690,252.734 168.066 M174.957 220.068 C 173.644 221.462,163.594 237.008,163.594 237.646 C 163.594 239.009,161.887 238.421,185.547 245.202 C 192.905 247.311,199.049 249.080,199.199 249.133 C 199.410 249.207,199.365 249.351,199.005 249.761 L 198.537 250.293 199.122 249.766 L 199.707 249.239 201.801 249.843 C 202.952 250.175,203.849 250.521,203.793 250.612 C 203.737 250.703,203.818 250.728,203.973 250.668 C 204.128 250.609,209.208 251.982,215.262 253.721 C 221.316 255.459,229.873 257.913,234.277 259.173 L 242.285 261.465 242.396 263.008 L 242.506 264.551 242.542 263.059 L 242.578 261.566 244.482 262.127 C 246.685 262.776,247.644 262.835,248.212 262.354 C 248.654 261.979,252.539 250.480,252.539 249.546 C 252.539 248.327,252.233 248.183,238.965 243.159 C 232.090 240.556,221.279 236.454,214.941 234.044 C 172.356 217.851,175.885 219.084,174.957 220.068 M334.932 231.344 C 334.881 231.395,334.009 231.654,332.995 231.918 C 331.982 232.182,330.625 232.541,329.980 232.716 C 328.102 233.226,324.270 234.240,320.508 235.223 C 315.794 236.455,312.752 237.325,312.305 237.570 C 311.609 237.951,309.042 238.541,308.681 238.402 C 308.507 238.335,308.429 238.368,308.497 238.479 C 308.563 238.585,308.564 238.672,308.499 238.672 C 308.396 238.672,281.459 245.823,270.508 248.757 C 268.306 249.347,266.256 249.863,265.953 249.903 C 263.212 250.263,263.218 250.236,264.752 256.220 C 266.270 262.137,265.960 261.962,272.461 260.560 C 273.734 260.285,275.398 259.967,276.074 259.869 C 276.396 259.823,282.725 258.643,290.137 257.248 C 297.549 255.853,303.877 254.665,304.199 254.608 C 304.521 254.552,305.620 254.335,306.641 254.128 C 308.055 253.841,308.563 253.804,308.778 253.975 C 308.995 254.148,309.026 254.143,308.913 253.955 C 308.832 253.821,308.833 253.711,308.915 253.711 C 308.997 253.711,311.573 253.232,314.639 252.647 C 317.706 252.061,320.479 251.590,320.801 251.599 C 321.123 251.608,323.057 251.299,325.098 250.912 C 327.139 250.526,331.182 249.760,334.082 249.212 C 341.555 247.798,341.086 247.920,341.467 247.276 C 341.955 246.449,341.781 244.860,341.027 243.262 C 340.926 243.047,340.304 241.245,339.646 239.258 C 338.987 237.271,338.373 235.469,338.281 235.254 C 338.189 235.039,337.962 234.380,337.777 233.789 C 337.190 231.916,335.668 230.608,334.932 231.344 M238.734 262.500 C 238.734 263.198,238.770 263.484,238.813 263.135 C 238.856 262.786,238.856 262.214,238.813 261.865 C 238.770 261.516,238.734 261.802,238.734 262.500 M193.227 263.867 C 193.227 264.565,193.262 264.851,193.305 264.502 C 193.349 264.153,193.349 263.582,193.305 263.232 C 193.262 262.883,193.227 263.169,193.227 263.867 M283.252 263.770 C 283.255 264.199,283.295 264.352,283.341 264.109 C 283.388 263.866,283.386 263.515,283.337 263.328 C 283.288 263.141,283.250 263.340,283.252 263.770 M262.354 263.424 C 262.756 263.466,263.416 263.466,263.818 263.424 C 264.221 263.381,263.892 263.347,263.086 263.347 C 262.280 263.347,261.951 263.381,262.354 263.424 M313.142 265.332 C 313.143 265.869,313.181 266.066,313.226 265.769 C 313.271 265.472,313.270 265.032,313.223 264.792 C 313.177 264.552,313.140 264.795,313.142 265.332 M218.611 266.113 C 218.612 266.650,218.650 266.847,218.695 266.550 C 218.740 266.253,218.739 265.814,218.692 265.573 C 218.646 265.333,218.609 265.576,218.611 266.113 M261.282 267.326 C 261.525 267.372,261.876 267.371,262.063 267.322 C 262.250 267.273,262.051 267.235,261.621 267.237 C 261.191 267.239,261.039 267.279,261.282 267.326 M264.209 267.325 C 264.451 267.372,264.846 267.372,265.088 267.325 C 265.330 267.279,265.132 267.241,264.648 267.241 C 264.165 267.241,263.967 267.279,264.209 267.325 M249.503 268.408 L 248.730 269.238 249.561 268.466 C 250.333 267.748,250.480 267.578,250.333 267.578 C 250.301 267.578,249.927 267.952,249.503 268.408 M246.680 271.191 C 246.205 271.675,245.861 272.070,245.915 272.070 C 245.968 272.070,246.401 271.675,246.875 271.191 C 247.349 270.708,247.694 270.313,247.640 270.313 C 247.586 270.313,247.154 270.708,246.680 271.191 M250.095 273.096 L 247.559 275.684 250.146 273.147 C 252.550 270.791,252.823 270.508,252.683 270.508 C 252.654 270.508,251.490 271.672,250.095 273.096 M242.864 274.854 L 241.895 275.879 242.920 274.910 C 243.484 274.377,243.945 273.915,243.945 273.884 C 243.945 273.739,243.764 273.901,242.864 274.854 M305.359 275.049 L 304.785 275.684 305.420 275.110 C 306.012 274.575,306.144 274.414,305.994 274.414 C 305.960 274.414,305.674 274.700,305.359 275.049 M308.008 277.637 C 307.533 278.120,307.189 278.516,307.243 278.516 C 307.297 278.516,307.729 278.120,308.203 277.637 C 308.678 277.153,309.022 276.758,308.968 276.758 C 308.914 276.758,308.482 277.153,308.008 277.637 M216.455 281.197 C 216.858 281.239,217.517 281.239,217.920 281.197 C 218.323 281.155,217.993 281.120,217.188 281.120 C 216.382 281.120,216.052 281.155,216.455 281.197 M215.967 284.910 C 216.638 284.948,217.737 284.948,218.408 284.910 C 219.080 284.872,218.530 284.841,217.188 284.841 C 215.845 284.841,215.295 284.872,215.967 284.910 M236.609 287.744 L 236.035 288.379 236.670 287.805 C 237.262 287.271,237.394 287.109,237.244 287.109 C 237.210 287.109,236.924 287.395,236.609 287.744 M246.826 287.254 C 247.498 287.292,248.596 287.292,249.268 287.254 C 249.939 287.216,249.390 287.185,248.047 287.185 C 246.704 287.185,246.155 287.216,246.826 287.254 M244.385 287.439 C 244.573 287.488,244.880 287.488,245.068 287.439 C 245.256 287.390,245.103 287.350,244.727 287.350 C 244.351 287.350,244.197 287.390,244.385 287.439 M251.419 287.445 C 251.716 287.490,252.155 287.489,252.395 287.442 C 252.635 287.396,252.393 287.359,251.855 287.361 C 251.318 287.362,251.122 287.400,251.419 287.445 M265.283 289.588 C 265.471 289.637,265.779 289.637,265.967 289.588 C 266.155 289.539,266.001 289.498,265.625 289.498 C 265.249 289.498,265.095 289.539,265.283 289.588 M266.846 289.783 C 267.034 289.832,267.341 289.832,267.529 289.783 C 267.717 289.734,267.563 289.694,267.188 289.694 C 266.812 289.694,266.658 289.734,266.846 289.783 M247.610 290.958 C 247.853 291.005,248.204 291.003,248.391 290.955 C 248.578 290.906,248.379 290.867,247.949 290.870 C 247.520 290.872,247.367 290.912,247.610 290.958 M245.557 291.150 C 245.745 291.199,246.052 291.199,246.240 291.150 C 246.428 291.101,246.274 291.061,245.898 291.061 C 245.522 291.061,245.369 291.101,245.557 291.150 M249.854 291.156 C 250.149 291.200,250.632 291.200,250.928 291.156 C 251.223 291.111,250.981 291.074,250.391 291.074 C 249.800 291.074,249.558 291.111,249.854 291.156 M252.297 291.349 C 252.540 291.396,252.892 291.394,253.078 291.345 C 253.265 291.296,253.066 291.258,252.637 291.260 C 252.207 291.262,252.054 291.302,252.297 291.349 M279.446 291.544 C 279.689 291.591,280.040 291.589,280.227 291.540 C 280.414 291.492,280.215 291.453,279.785 291.456 C 279.355 291.458,279.203 291.498,279.446 291.544 M281.497 291.742 C 281.794 291.787,282.233 291.785,282.473 291.739 C 282.714 291.693,282.471 291.656,281.934 291.657 C 281.396 291.659,281.200 291.697,281.497 291.742 M283.841 291.937 C 284.137 291.982,284.577 291.981,284.817 291.934 C 285.057 291.888,284.814 291.851,284.277 291.853 C 283.740 291.854,283.544 291.892,283.841 291.937 M286.279 292.133 C 286.628 292.177,287.200 292.177,287.549 292.133 C 287.898 292.090,287.612 292.055,286.914 292.055 C 286.216 292.055,285.930 292.090,286.279 292.133 M289.400 292.328 C 289.747 292.372,290.362 292.372,290.767 292.330 C 291.172 292.288,290.889 292.252,290.137 292.252 C 289.385 292.251,289.053 292.285,289.400 292.328 M292.822 292.523 C 293.118 292.567,293.601 292.567,293.896 292.523 C 294.192 292.478,293.950 292.441,293.359 292.441 C 292.769 292.441,292.527 292.478,292.822 292.523 M295.068 292.716 C 295.310 292.763,295.706 292.763,295.947 292.716 C 296.189 292.669,295.991 292.631,295.508 292.631 C 295.024 292.631,294.827 292.669,295.068 292.716 M297.217 292.911 C 297.458 292.958,297.854 292.958,298.096 292.911 C 298.337 292.865,298.140 292.827,297.656 292.827 C 297.173 292.827,296.975 292.865,297.217 292.911 M299.564 293.110 C 299.915 293.154,300.442 293.153,300.736 293.108 C 301.029 293.064,300.742 293.028,300.098 293.029 C 299.453 293.030,299.213 293.067,299.564 293.110 M264.307 293.299 C 264.495 293.348,264.802 293.348,264.990 293.299 C 265.178 293.250,265.024 293.209,264.648 293.209 C 264.272 293.209,264.119 293.250,264.307 293.299 M302.984 293.308 C 303.498 293.348,304.289 293.348,304.742 293.307 C 305.196 293.266,304.775 293.233,303.809 293.233 C 302.842 293.234,302.471 293.267,302.984 293.308 M265.869 293.494 C 266.057 293.543,266.365 293.543,266.553 293.494 C 266.741 293.445,266.587 293.405,266.211 293.405 C 265.835 293.405,265.681 293.445,265.869 293.494 M307.478 293.504 C 308.099 293.543,309.066 293.542,309.626 293.503 C 310.186 293.464,309.678 293.432,308.496 293.432 C 307.314 293.433,306.856 293.465,307.478 293.504 M319.911 293.640 C 320.105 293.874,320.020 293.933,319.398 293.998 C 318.721 294.068,318.741 294.078,319.610 294.108 C 320.557 294.140,320.564 294.136,320.215 293.750 C 319.813 293.305,319.557 293.213,319.911 293.640 M313.232 293.699 C 313.796 293.738,314.719 293.738,315.283 293.699 C 315.847 293.659,315.386 293.627,314.258 293.627 C 313.130 293.627,312.668 293.659,313.232 293.699 M316.943 293.888 C 317.185 293.934,317.581 293.934,317.822 293.888 C 318.064 293.841,317.866 293.803,317.383 293.803 C 316.899 293.803,316.702 293.841,316.943 293.888 M278.369 295.252 C 278.557 295.301,278.865 295.301,279.053 295.252 C 279.241 295.203,279.087 295.163,278.711 295.163 C 278.335 295.163,278.181 295.203,278.369 295.252 M280.225 295.450 C 280.466 295.497,280.862 295.497,281.104 295.450 C 281.345 295.404,281.147 295.366,280.664 295.366 C 280.181 295.366,279.983 295.404,280.225 295.450 M282.473 295.648 C 282.770 295.693,283.210 295.692,283.450 295.645 C 283.690 295.599,283.447 295.562,282.910 295.564 C 282.373 295.565,282.177 295.603,282.473 295.648 M284.814 295.843 C 285.110 295.888,285.593 295.888,285.889 295.843 C 286.184 295.798,285.942 295.762,285.352 295.762 C 284.761 295.762,284.519 295.798,284.814 295.843 M287.646 296.040 C 287.996 296.083,288.567 296.083,288.916 296.040 C 289.265 295.996,288.979 295.961,288.281 295.961 C 287.583 295.961,287.297 295.996,287.646 296.040 M290.251 296.175 C 290.395 296.319,292.568 296.365,292.705 296.227 C 292.779 296.154,292.238 296.094,291.504 296.094 C 290.770 296.094,290.206 296.130,290.251 296.175 M298.321 297.119 C 297.952 297.555,297.952 297.556,298.340 297.235 C 298.555 297.056,298.950 296.871,299.219 296.822 L 299.707 296.733 299.200 296.706 C 298.891 296.690,298.548 296.851,298.321 297.119 M301.322 297.017 C 301.673 297.060,302.200 297.059,302.494 297.015 C 302.787 296.970,302.500 296.934,301.855 296.936 C 301.211 296.937,300.971 296.973,301.322 297.017 M305.225 297.213 C 305.681 297.254,306.428 297.254,306.885 297.213 C 307.341 297.172,306.968 297.139,306.055 297.139 C 305.142 297.139,304.768 297.172,305.225 297.213 M310.596 297.410 C 311.213 297.449,312.224 297.449,312.842 297.410 C 313.459 297.371,312.954 297.339,311.719 297.339 C 310.483 297.339,309.978 297.371,310.596 297.410 M315.771 297.599 C 316.013 297.645,316.409 297.645,316.650 297.599 C 316.892 297.552,316.694 297.514,316.211 297.514 C 315.728 297.514,315.530 297.552,315.771 297.599 M318.115 297.794 C 318.357 297.841,318.752 297.841,318.994 297.794 C 319.236 297.748,319.038 297.709,318.555 297.709 C 318.071 297.709,317.874 297.748,318.115 297.794 M323.096 297.791 C 323.284 297.840,323.591 297.840,323.779 297.791 C 323.967 297.742,323.813 297.702,323.438 297.702 C 323.062 297.702,322.908 297.742,323.096 297.791 M259.131 309.122 C 259.373 309.169,259.768 309.169,260.010 309.122 C 260.251 309.076,260.054 309.038,259.570 309.038 C 259.087 309.038,258.889 309.076,259.131 309.122 M263.818 309.122 C 264.060 309.169,264.456 309.169,264.697 309.122 C 264.939 309.076,264.741 309.038,264.258 309.038 C 263.774 309.038,263.577 309.076,263.818 309.122 M90.084 312.695 C 90.084 313.071,90.125 313.225,90.174 313.037 C 90.223 312.849,90.223 312.542,90.174 312.354 C 90.125 312.166,90.084 312.319,90.084 312.695 M259.814 312.830 C 260.002 312.879,260.310 312.879,260.498 312.830 C 260.686 312.781,260.532 312.741,260.156 312.741 C 259.780 312.741,259.626 312.781,259.814 312.830 M263.235 312.833 C 263.478 312.880,263.829 312.878,264.016 312.830 C 264.203 312.781,264.004 312.742,263.574 312.745 C 263.145 312.747,262.992 312.787,263.235 312.833 M342.827 313.477 C 342.827 313.960,342.865 314.158,342.911 313.916 C 342.958 313.674,342.958 313.279,342.911 313.037 C 342.865 312.795,342.827 312.993,342.827 313.477 M151.807 336.463 C 151.995 336.512,152.302 336.512,152.490 336.463 C 152.678 336.414,152.524 336.373,152.148 336.373 C 151.772 336.373,151.619 336.414,151.807 336.463 M154.055 336.662 C 154.298 336.708,154.650 336.707,154.836 336.658 C 155.023 336.609,154.824 336.571,154.395 336.573 C 153.965 336.575,153.812 336.615,154.055 336.662 M261.377 338.611 C 261.565 338.660,261.873 338.660,262.061 338.611 C 262.249 338.562,262.095 338.522,261.719 338.522 C 261.343 338.522,261.189 338.562,261.377 338.611 M257.471 338.807 C 257.659 338.856,257.966 338.856,258.154 338.807 C 258.342 338.757,258.188 338.717,257.813 338.717 C 257.437 338.717,257.283 338.757,257.471 338.807 M253.174 339.007 C 253.469 339.052,253.953 339.052,254.248 339.007 C 254.543 338.962,254.302 338.926,253.711 338.926 C 253.120 338.926,252.878 338.962,253.174 339.007 M182.178 339.200 C 182.419 339.247,182.815 339.247,183.057 339.200 C 183.298 339.154,183.101 339.116,182.617 339.116 C 182.134 339.116,181.936 339.154,182.178 339.200 M245.169 339.203 C 245.466 339.248,245.905 339.246,246.145 339.200 C 246.385 339.154,246.143 339.117,245.605 339.118 C 245.068 339.120,244.872 339.158,245.169 339.203 M185.889 339.396 C 186.130 339.442,186.526 339.442,186.768 339.396 C 187.009 339.349,186.812 339.311,186.328 339.311 C 185.845 339.311,185.647 339.349,185.889 339.396 M238.037 339.401 C 238.494 339.442,239.241 339.442,239.697 339.401 C 240.154 339.360,239.780 339.326,238.867 339.326 C 237.954 339.326,237.581 339.360,238.037 339.401 M233.158 339.595 C 233.509 339.638,234.036 339.637,234.330 339.593 C 234.623 339.548,234.336 339.513,233.691 339.514 C 233.047 339.515,232.807 339.551,233.158 339.595 M199.170 339.795 C 202.634 339.825,208.303 339.825,211.768 339.795 C 215.232 339.765,212.397 339.740,205.469 339.740 C 198.540 339.740,195.706 339.765,199.170 339.795 "
       stroke="none"
       fill="#bb3c0c"
       fill-rule="evenodd" />
    <path
       id="path3"
       d="M204.842 129.721 C 200.358 131.413,190.811 137.736,186.314 141.992 C 186.144 142.153,185.352 142.855,184.555 143.551 C 181.902 145.868,177.961 149.944,175.487 152.930 C 175.086 153.413,174.697 153.853,174.622 153.906 C 174.375 154.083,170.629 158.662,169.434 160.249 C 166.665 163.922,163.779 168.176,159.954 174.218 C 158.628 176.312,155.964 180.443,154.033 183.398 C 149.533 190.286,148.226 192.344,145.850 196.280 C 143.086 200.860,135.887 213.062,133.976 216.406 C 133.086 217.964,131.551 220.601,130.566 222.266 C 123.752 233.785,116.141 247.396,112.710 254.196 C 107.286 264.949,100.079 280.007,98.875 283.105 C 98.540 283.965,97.554 286.514,96.683 288.770 C 95.811 291.025,95.018 293.065,94.920 293.303 C 94.050 295.410,91.145 306.965,90.535 310.742 C 89.697 315.937,90.574 319.910,93.002 321.915 C 93.467 322.298,94.060 322.800,94.320 323.028 C 96.350 324.811,100.949 326.619,108.008 328.407 C 110.854 329.129,114.282 330.015,115.625 330.377 C 120.329 331.646,124.095 332.373,133.691 333.867 C 135.594 334.164,141.145 334.925,147.266 335.728 C 149.697 336.047,156.153 336.719,156.791 336.719 C 156.871 336.719,157.054 336.452,157.198 336.127 C 157.791 334.787,162.933 330.192,167.555 326.872 C 172.606 323.244,176.166 321.367,187.305 316.462 C 202.133 309.932,219.088 305.949,237.262 304.725 L 239.271 304.590 238.271 303.809 C 237.722 303.379,237.111 302.896,236.914 302.734 C 236.717 302.573,236.097 302.090,235.536 301.660 C 234.975 301.230,234.023 300.481,233.420 299.995 C 232.817 299.509,231.665 298.620,230.859 298.019 C 227.038 295.167,226.370 293.960,227.817 292.513 C 228.061 292.269,228.426 291.811,228.629 291.494 C 228.955 290.983,233.678 285.209,233.972 284.961 C 234.036 284.907,234.614 284.248,235.257 283.496 C 235.900 282.744,236.524 282.041,236.643 281.934 C 236.762 281.826,237.916 280.464,239.206 278.906 C 241.252 276.437,247.312 270.263,250.077 267.832 C 254.302 264.116,261.623 262.561,268.337 263.952 C 269.668 264.228,270.861 264.453,270.988 264.453 C 271.173 264.453,271.977 260.937,271.817 260.826 C 271.795 260.811,270.986 260.957,270.020 261.149 C 266.038 261.943,266.079 261.983,264.578 255.974 C 263.204 250.480,263.342 249.805,265.835 249.805 C 266.020 249.805,271.300 248.440,277.568 246.771 C 283.836 245.103,293.315 242.583,298.633 241.171 C 303.950 239.759,308.335 238.578,308.376 238.546 C 308.724 238.279,298.118 223.219,292.835 216.476 C 292.318 215.816,291.369 214.586,290.727 213.742 C 290.085 212.898,289.132 211.680,288.608 211.035 C 288.085 210.391,287.449 209.600,287.196 209.277 C 286.600 208.519,282.727 203.767,282.168 203.107 C 281.932 202.829,281.519 202.310,281.250 201.953 C 280.981 201.597,280.075 200.463,279.236 199.432 C 278.397 198.402,277.474 197.259,277.185 196.892 C 276.745 196.334,274.652 193.805,273.147 192.013 C 272.931 191.756,272.614 191.404,272.443 191.232 C 272.273 191.059,271.232 189.819,270.131 188.477 C 269.030 187.134,267.983 185.862,267.805 185.650 C 267.626 185.438,267.349 185.078,267.188 184.850 C 266.872 184.403,265.328 182.567,264.836 182.053 C 264.566 181.771,263.047 179.987,262.012 178.736 C 261.797 178.477,261.483 178.123,261.315 177.951 C 261.146 177.778,260.095 176.538,258.979 175.195 C 257.863 173.853,256.891 172.710,256.818 172.656 C 256.746 172.603,256.360 172.163,255.960 171.680 C 255.341 170.932,253.413 168.812,251.243 166.492 C 250.935 166.164,250.200 165.365,249.609 164.717 C 246.456 161.259,244.447 159.094,242.843 157.425 C 241.860 156.403,240.501 154.951,239.822 154.199 C 238.169 152.369,229.630 143.877,227.351 141.797 C 226.350 140.884,225.255 139.870,224.916 139.545 C 224.285 138.939,221.099 136.252,219.904 135.320 C 219.538 135.033,219.048 134.638,218.815 134.441 C 218.582 134.243,217.938 133.730,217.383 133.301 C 216.828 132.871,216.156 132.336,215.889 132.111 C 212.553 129.306,208.352 128.397,204.842 129.721 M176.993 219.528 C 177.240 219.633,183.154 221.883,190.137 224.529 C 197.119 227.174,205.029 230.174,207.715 231.194 C 210.400 232.215,213.477 233.382,214.551 233.787 C 215.625 234.193,220.547 236.064,225.488 237.946 C 230.430 239.828,238.340 242.835,243.066 244.627 C 252.338 248.143,252.646 248.302,252.608 249.562 C 252.584 250.354,248.952 261.538,248.487 262.251 C 247.933 263.101,247.129 263.035,242.920 261.793 C 242.616 261.703,242.578 261.855,242.578 263.179 C 242.578 278.197,223.768 289.180,207.974 283.384 C 193.170 277.950,188.489 261.354,198.608 250.175 C 199.034 249.704,199.368 249.305,199.350 249.288 C 199.331 249.272,194.966 248.013,189.648 246.489 C 163.727 239.064,164.183 239.203,163.778 238.624 C 163.041 237.573,163.120 237.426,169.677 227.641 C 175.388 219.119,175.568 218.919,176.993 219.528 M312.988 253.055 C 308.586 253.893,308.855 253.786,309.475 254.441 C 315.039 260.318,314.281 271.625,307.906 277.869 L 306.273 279.468 307.189 279.998 C 307.693 280.290,309.248 281.296,310.645 282.234 C 312.041 283.172,314.282 284.666,315.625 285.555 C 316.968 286.443,318.292 287.354,318.569 287.579 C 318.845 287.804,319.367 288.208,319.728 288.477 C 321.077 289.480,324.103 292.063,325.124 293.085 C 328.508 296.468,325.593 298.557,318.457 297.864 C 317.275 297.749,313.672 297.564,310.449 297.453 C 307.227 297.342,303.271 297.173,301.660 297.078 C 299.001 296.920,298.694 296.936,298.340 297.245 C 298.125 297.433,297.334 297.948,296.582 298.389 C 293.750 300.052,284.327 306.438,284.590 306.517 C 284.740 306.562,285.812 306.700,286.971 306.824 C 288.131 306.948,290.724 307.355,292.733 307.728 C 294.743 308.102,297.986 308.668,299.942 308.985 C 315.275 311.476,332.821 317.617,337.245 322.041 L 337.842 322.638 338.696 321.916 C 341.273 319.738,342.019 318.396,342.596 314.898 C 343.093 311.885,340.803 302.872,336.889 292.442 C 334.795 286.859,325.601 267.985,321.591 261.035 C 320.351 258.887,318.744 256.053,318.018 254.738 C 317.293 253.423,316.655 252.356,316.602 252.366 C 316.548 252.377,314.922 252.687,312.988 253.055 "
       stroke="none"
       fill="#fbe324"
       fill-rule="evenodd" />
    <path
       id="path4"
       d="M166.211 232.813 C 165.981 233.135,165.838 233.398,165.891 233.398 C 165.945 233.398,166.177 233.135,166.406 232.813 C 166.636 232.490,166.780 232.227,166.726 232.227 C 166.672 232.227,166.440 232.490,166.211 232.813 M251.970 248.363 C 252.229 248.698,252.481 248.937,252.529 248.894 C 252.577 248.851,252.365 248.577,252.057 248.285 L 251.498 247.754 251.970 248.363 M246.729 262.830 C 246.917 262.879,247.224 262.879,247.412 262.830 C 247.600 262.781,247.446 262.741,247.070 262.741 C 246.694 262.741,246.541 262.781,246.729 262.830 M261.133 267.384 C 256.950 267.914,253.977 269.464,250.293 273.037 C 244.744 278.420,243.801 279.404,241.302 282.422 C 239.923 284.087,238.745 285.493,238.685 285.547 C 238.624 285.601,237.921 286.392,237.122 287.305 C 236.323 288.218,235.500 289.157,235.293 289.392 C 234.961 289.769,235.258 289.707,237.819 288.866 C 241.881 287.533,245.325 287.028,249.324 287.182 C 252.016 287.285,253.410 287.475,259.570 288.579 C 260.483 288.742,263.120 289.135,265.430 289.451 C 267.739 289.767,271.738 290.331,274.316 290.706 C 279.105 291.401,283.428 291.814,289.844 292.192 C 291.831 292.309,294.731 292.528,296.289 292.679 C 299.085 292.950,303.248 293.174,312.793 293.568 C 315.479 293.678,318.247 293.813,318.945 293.866 L 320.215 293.963 319.357 293.193 C 317.462 291.491,309.646 286.074,305.125 283.329 C 303.380 282.270,296.210 279.003,290.694 276.755 C 286.192 274.919,285.017 274.401,278.516 271.384 C 272.381 268.537,265.155 266.874,261.133 267.384 M244.531 291.322 C 240.803 291.799,233.398 294.204,233.398 294.937 C 233.398 295.010,234.413 295.849,235.654 296.802 C 236.894 297.755,238.294 298.843,238.765 299.219 C 248.325 306.857,256.052 309.774,264.648 308.992 C 270.906 308.422,276.332 306.726,281.007 303.880 C 282.654 302.877,292.385 296.420,292.327 296.368 C 292.304 296.347,290.703 296.228,288.770 296.104 C 279.902 295.536,265.362 293.679,255.957 291.913 C 251.385 291.054,247.993 290.879,244.531 291.322 M299.854 297.010 C 300.042 297.059,300.349 297.059,300.537 297.010 C 300.725 296.961,300.571 296.920,300.195 296.920 C 299.819 296.920,299.666 296.961,299.854 297.010 M303.469 297.208 C 303.712 297.255,304.064 297.253,304.250 297.205 C 304.437 297.156,304.238 297.117,303.809 297.120 C 303.379 297.122,303.226 297.162,303.469 297.208 M308.350 297.403 C 308.591 297.450,308.987 297.450,309.229 297.403 C 309.470 297.357,309.272 297.319,308.789 297.319 C 308.306 297.319,308.108 297.357,308.350 297.403 M314.407 297.599 C 314.650 297.646,315.001 297.644,315.188 297.595 C 315.375 297.546,315.176 297.508,314.746 297.510 C 314.316 297.512,314.164 297.552,314.407 297.599 M320.166 297.994 C 320.569 298.036,321.228 298.036,321.631 297.994 C 322.034 297.952,321.704 297.917,320.898 297.917 C 320.093 297.917,319.763 297.952,320.166 297.994 M90.098 314.258 C 90.098 314.849,90.134 315.090,90.179 314.795 C 90.224 314.500,90.224 314.016,90.179 313.721 C 90.134 313.425,90.098 313.667,90.098 314.258 "
       stroke="none"
       fill="#fbb32b"
       fill-rule="evenodd" />
  </g>
</svg>
