<?xml version="1.0" encoding="UTF-8"?>
<!-- Created with Vectornator (http://vectornator.io/) -->
<svg clip-rule="evenodd" stroke-linecap="round" stroke-linejoin="round" stroke-miterlimit="10" version="1.1" viewBox="0 0 2048 2048" xml:space="preserve" xmlns="http://www.w3.org/2000/svg" xmlns:xlink="http://www.w3.org/1999/xlink">

<clipPath id="ArtboardFrame">
<rect width="2048" height="2048"/>
</clipPath>

<g transform="matrix(4.4233 0 0 4.4233 353.24 882.54)" fill-rule="evenodd"><path d="m113.4 39.3c-7.7 3-11.4 6-17.5 10.2-2 1.4-3.5 2.4-6.1 4.5-3.9 3-9.1 7-12.2 10.8-0.2 0.2-0.5 2.3-0.8 2.6a57.3 57.3 0 0 0-4.6 67c3 4.6 12.4 12.8 12.4 11.6 0-0.2 0.8-1.3 1.4-2l1-1.1a83 83 0 0 1 12.6-11.1 100.3 100.3 0 0 1 52.4-18.4l4.2-0.1s-0.4-1.9-1.5-3.5a29 29 0 0 1-5.1-9.1c0-0.2 0.8-1.6 0.7-2-0.6-2.3 3.4-10.8 7.5-16l0.5-0.8-1.8 0.6a26.3 26.3 0 0 1-35.7-17c-2.8-9-2.6-16.6 4-24.4l1-2.2-3.2-1.2h-2.2c-0.7-0.1-2.3-0.4-4.7 0.6m58.9 8c0 0.2 0 1 0.2 1.6a23 23 0 0 1 1.4 6.7l0.5 2.5 1.8-2c1.8-2.4 4.4-6.7 4.3-6.8a27 27 0 0 0-4.8-1.7c-1.2-0.3-2.8-0.3-3-0.3h-0.2" fill="#63739b"/><path d="m127.3 41.2c-7.6 8-9.9 19.6-5.6 28.3 6 12 21.5 16 35.4 9 1.2-0.7 2.7-1.4 3.3-1.6 1.2-0.6 1.2-0.6 3.6-3.8l4.3-5.5c2.7-3.5 2.8-3.6 3.4-5.4a20.3 20.3 0 0 0-0.7-14.5c-1.2-2.3-1-2.2-6.5-3.4-10.8-2.2-20-3.6-30.2-4.4a291.2 291.2 0 0 1-4.5-0.4c-0.8 0-0.8 0-2.5 1.7m35.3 8.7c6.2 3 6.8 12.6 1 15.7-5.1 2.8-11.4-1.7-11.5-8.1 0-6.2 5.3-10 10.5-7.6m-9.1 63.7-3.7 0.2c-24 1.8-51.2 14.8-63.9 30.7-1.5 2-1.6 1.6 1.2 3.8 23.4 17.9 59.6 22.9 92.4 12.7 5-1.6 13.6-5 13.5-5.4 0 0-2-2.2-4.5-4.6a637.6 637.6 0 0 1-21.5-22.8c-2.1-2.4-4.4-5.4-8-10.6l-3-4.2h-0.9l-1.6 0.2" fill="#dfeafb"/><path d="m198.8 35.8a18 18 0 0 0-4.6 4.6 48.5 48.5 0 0 1-1.1 1.3 109.2 109.2 0 0 0-8.8 11c-2 3-2.6 3.8-6.1 8.5l-3.1 4 0.4 0.6c0.5 0.7 0.4 1.1-0.8 5.7-2 7.6-4.4 22.4-3.7 23a600.2 600.2 0 0 1 30.2-2.8c0.3 0 0.4-0.5 0.8-2.8 0.4-2.5 1.5-8.6 3.4-17.6a172 172 0 0 1 10.3-34l-8.5-1.3c-2.1-0.3-7.4-0.4-8.4-0.2m50.6 10.2c-3.8 6.2-6 12.7-9 26-0.9 3.9-2.4 18.4-2 18.5l9.3 0.2 14 0.2 4.9 0.1 0.6-3.2c2.5-12.7 6.3-25 10.3-33.5l1-2.2-0.4-0.2c-2.1-0.8-24.8-6.6-27.2-7-0.7 0-0.8 0-1.5 1m59.9 18.8a87.2 87.2 0 0 0-5.5 15.7 1420.1 1420.1 0 0 1-2 7.4l-1 3.9 15.2 0.4 15.4 0.3c0.4 0.1 0.7-0.6 1.8-5l1.6-5.5a41.6 41.6 0 0 0 1.8-8.5 51 51 0 0 0-10.2-4.6l-16-6.3-1.1 2.2m-71.4 30-0.4 2.8a127 127 0 0 1-2.7 18.1l-2.4 11.3a110 110 0 0 1-6.7 22.2l-0.6 1.5 1-0.2c6-0.7 16.5-2.5 23.7-4 4.9-1.1 4.7-1 4.8-1.8l0.6-1.5c0.5-1.2 1.8-7 3.3-15a439.8 439.8 0 0 1 4.5-20.5 382.3 382.3 0 0 1 2.7-12.2c0-0.3-2.4-0.4-12.7-0.6a2030.7 2030.7 0 0 1-15.1-0.2m-43 1.7c-8.3 0.6-20.2 1.9-23.4 2.4l-0.7 0.1-0.1 5.1a51 51 0 0 1-2 16c-1.3 3.4-1.3 3 0 4.5a247.9 247.9 0 0 1 4.2 4.5l3.3 3.7 5.9 6.2a1050.7 1050.7 0 0 1 9.6 9.8 72.7 72.7 0 0 0 7.6-31.8c0.2-6.1 1.2-18 1.6-20.3l0.2-0.6h-1l-5.2 0.4m104.6 0.7-2.1 8.3a971 971 0 0 0-6.7 26.1 18 18 0 0 0-0.8 3c0.2 0.2 16-5.6 30.2-11 3.5-1.4 3.7-1.5 3.6-2a1334.1 1334.1 0 0 0 4.3-13.4c0.5-1.5 2.8-11.3 2.7-11.4l-23.7-0.6h-7.2l-0.2 1" fill="#fbbc1c"/><path d="m201.3 35.6h1-1m14 3.4c-3 5.8-7.5 20.9-9.9 32.3-2.5 12.3-3.8 19-3.8 20.1 0 0.4 0.1 0.4 1.6 0.3 9.5-0.7 14.7-0.9 25.9-1l9.2-0.2v-0.7c0.1-1.7 1-11.2 1.3-13.2 0.5-3.5 3-14.5 4.4-18.7a49.6 49.6 0 0 1 6.3-13.2l-6.7-1.5a584 584 0 0 0-27.2-5.7c-0.2 0-0.6 0.4-1.1 1.5m63 13a153.3 153.3 0 0 0-11.2 35.8l-0.5 3.2h-0.6l1.2 0.1 5.7 0.2a7193 7193 0 0 0 28 0.4l0.9-3.9 2-7.6a83.6 83.6 0 0 1 6.4-17.6 266.2 266.2 0 0 0-31.8-10.6m-107.1 18c-2 2.4-4.8 6.1-6.3 8.2a388 388 0 0 1-4.3 6 59.1 59.1 0 0 0-7.1 11.4l-0.4 1h0.6c0.4 0 1.3 0 2.1-0.2a321.1 321.1 0 0 1 13-1.4l2-0.2 0.2-3.1a117 117 0 0 1 3.6-20.2c1.2-4.4 1.3-5 0.9-5.6-0.5-0.7-0.4-0.9-4.3 4m165.3 3.8-0.2 1.2c0 1-0.8 4.4-1.8 7.5a138.3 138.3 0 0 0-1.4 5.4l-1.1 3.7-0.4 1h1.8l3.9 0.2 7.9 0.4a434 434 0 0 0 24.6 1l4.7 0.1c0.2-0.2-0.3-0.5-3.8-2.6a838.8 838.8 0 0 1-6.6-4 237.5 237.5 0 0 0-27.2-14.4c-0.1-0.1-0.3 0-0.4 0.4m-86 17h0.9-0.9m7.8 0.2h0.9-0.9m44 1h0.8l-0.4-0.1h-0.5m10.6 0.3h1.3-1.3m11.9 0.2h0.9l-0.5-0.1h-0.4m-96.1 2.4a665 665 0 0 0-25.5 1h-2.1l-0.1 0.8c-0.5 3.1-1.5 14.3-1.7 20.4-0.6 13-2.5 21.3-6.6 30l-1 2 3 3.1 3.2 3 3.6-0.5 6-1c3.2-0.6 8.6-1.5 13.7-2.2l3.8-0.5 0.9-2a161.8 161.8 0 0 0 6.5-21.8l2.4-11.3a127 127 0 0 0 3-21h-9.1m14 0h1.8-1.9m11.6 0.2h0.7-0.7m7.7 0.2h0.8-0.8m3.8 0.4-1.2 5.4a379.6 379.6 0 0 0-3.2 14.6 443.2 443.2 0 0 0-2.8 12.8c-1.5 7.9-2.8 13.7-3.3 15-0.6 1.3-0.8 2-0.4 2 2.9 0 35-10 35-10.8l1-3 2-7.5a999.6 999.6 0 0 1 6.7-27l0.3-1.2h-5.1c-5.1 0-17.9-0.3-25.2-0.5-3.7-0.2-3.8-0.2-3.8 0.2m41 0.6h1.1-1.1m11.8 0.2h1.4-1.4m11.1 4.9a131 131 0 0 1-4 13.9c-2 6-2.1 6.8-1.4 6.7a283.2 283.2 0 0 0 46.5-23.6s-2.6-0.2-5.7-0.2c-6.5-0.1-14.4-0.4-18.2-0.7l-15-0.8h-1l-1.2 4.7m-160.6-2.1a342.4 342.4 0 0 1-16 1.8 16 16 0 0 0 2.3 4.8c5 7.4 11.9 17 12.2 17.2 0.2 0.1 0.3 0 1.2-2.4s1.3-4.7 1.7-8.2c0.2-3 0.6-13.5 0.4-13.5l-1.8 0.3" fill="#fb7c1b"/><path d="m77 0c-3.9 1.2-3.5 5.2 1.4 17.5a518 518 0 0 1 1.3 3.4c3.6 9.4 7.2 15.1 10.9 17.3 1.4 1 3.2 1 5.8 0.5 3.5-0.8 7.2-1.1 10.9-1l2.8 0.2-2.8 1.4c-4 2-7.9 4.1-9.6 5.2a94.4 94.4 0 0 1-2.7 1.8l-2.7 1.8c-0.5 0.3-0.8 0.6-0.8 0.7l-0.4 0.3a30.5 30.5 0 0 1-2.5 1.9 35.6 35.6 0 0 0-1.5 1.1l-1.3 1.2a69.3 69.3 0 0 0-9.8 9.7 73 73 0 0 1-1.2 1.4l-0.7 1-0.6 0.8-0.6 0.7a12.5 12.5 0 0 0-1.5 2l-0.9 1.4c-0.6 0.4-5 8.5-6 11.2-0.6 1.6-0.6 1.6-4.9 1.4a49.7 49.7 0 0 1-27.3-9.9 38.9 38.9 0 0 1-13-32l0.4-2c0.2-1-0.8-2-1.7-1.9a65.6 65.6 0 0 0-12.8 12c-5.3 6.6-6.8 19-3.3 27.2a30 30 0 0 0 7.3 10.7 29.4 29.4 0 0 0 5.1 4.4 46 46 0 0 0 21.6 8.4c1.8 0 1.8 0.2 0.2 1.1-5.5 3.2-10.5 2.7-17-1.5-6.4-4.3-6.2-4.2-6.7-3.7-1 1 2 7.6 5 11.9l1.6 2.1 3.3 4a79.5 79.5 0 0 1 1.4 1.4 29.4 29.4 0 0 0 3.3 3 38.5 38.5 0 0 0 8 4.9c1 0.7 4.8 1.5 7.5 1.7 7.1 0.3 13.5-2.5 18-8l0.6-0.7 0.4 1.7a55.7 55.7 0 0 0 11.4 22.3 51.5 51.5 0 0 0 9 9.1l1.3 1.2a103 103 0 0 0 24.4 13.6 116.4 116.4 0 0 0 87-4.4c0.6-0.4 1.2-0.5 2.4-0.5a82 82 0 0 0 10.2-1.4c5.7-1.1 10-1.8 19.3-3 5.5-0.8 14.6-2.3 17.5-2.9a211 211 0 0 1 3.5-0.7 282.5 282.5 0 0 0 48.2-14.1l1.2-0.5a90.8 90.8 0 0 0 2.6-1l3-1a1830 1830 0 0 1 7.8-3 352 352 0 0 1 3-1 44 44 0 0 0 1.7-0.7 19.7 19.7 0 0 1 2.3-1c0.4 0 1-0.3 1.3-0.4a261.3 261.3 0 0 0 8.4-3.3 506.5 506.5 0 0 0 7.3-3 133.8 133.8 0 0 0 6.7-3.1 387.7 387.7 0 0 0 33.1-18c5-2.6 5.8-3.3 5.5-5.3l0.1-1c0.4 0 0.2-1-0.2-1.5-1-1.6-1.5-1.9-10.5-7.3a557 557 0 0 1-5-3 274.7 274.7 0 0 0-42.8-20.4 55.6 55.6 0 0 1-2-0.8 222 222 0 0 0-14.7-5.6 211.6 211.6 0 0 1-6.2-2.2 165.1 165.1 0 0 1-3.5-1.1 289 289 0 0 0-9.2-2.9 114.5 114.5 0 0 1-2.2-0.6l-2.5-0.8a3158.4 3158.4 0 0 1-4.1-1.2c-2.3-0.6-17.5-4.6-20.8-5.3a622.2 622.2 0 0 0-9-2.1 1608.3 1608.3 0 0 1-22.3-4.9 97.1 97.1 0 0 0-22.2-3.2c-4.7 0-5.3 0-7 1-0.5 0.3-0.6 0.2-2.3-0.5a180.2 180.2 0 0 0-4.7-1.9 201 201 0 0 1-5.3-2.2 295.4 295.4 0 0 0-10-4 199 199 0 0 0-3.4-1.4l-2.5-1-7.9-3a19.3 19.3 0 0 1-1.3-0.4l-5-1.7c-4.4-1.6-11.8-3.5-18.6-5a1039.5 1039.5 0 0 1-5.8-1.2l-7.3-1.6a642.2 642.2 0 0 1-9-2 398 398 0 0 0-23.3-5c-4.7-1.3-11-2.1-12.1-1.8m130.2 35.7 11.4 1.9c5 0.9 26 5.5 37.3 8.2a451.5 451.5 0 0 1 54.5 16.4 291.7 291.7 0 0 1 64.4 31.6l0.4 0.4-4.8-0.1a599 599 0 0 1-24.4-0.9c-9-0.6-14.4-0.7-31.1-1-38.8-0.8-40-0.8-59.5-1.4a681.7 681.7 0 0 0-54.2 1c-7.4 0.5-19.5 1.7-26.2 2.5a656.8 656.8 0 0 1-5.6 0.7 680 680 0 0 1-15.2 1.7c-1 0.1-1 0-0.5-1.5a63 63 0 0 1 7.6-12 422 422 0 0 0 4.2-5.8l6-8c4.9-6 10.4-13.3 13.6-17.8a91.3 91.3 0 0 1 13.7-16c1-0.3 5.7-0.2 8.4 0.1m-83 3.1-1 1.3c-12 14.5-8.8 34.7 6.7 42.5 7.8 4 18.1 4 27 0.2 0.2-0.1 0 0.2-0.5 1a58.5 58.5 0 0 0-6.2 10.2c-2.2 6.2-1.7 8.3 3.7 16l5.5 7.7c5 7.3 6 8.3 13 16 4 4.4 10.6 11.3 16.7 17.5 2.8 2.8 4.2 4.4 4.1 4.5-2 2-19.4 7.3-28.7 8.9-61.8 10.4-113.2-29.6-98.3-76.3l0.8-2.5c0.3-1.2 2.7-6.3 4-8.7a88.7 88.7 0 0 1 46-37.7l2-0.8 2.5 0.1 2.6 0.2m14 1.2a232.3 232.3 0 0 1 30 4.8c1.5 0.3 1.8 0.5 2.7 2 3.3 5.6 2.8 14.4-1 19l-6.6 8.6-1.3 1.7-3.6 1.8c-7.8 3.9-14 5-20.8 3.5-18.6-4-24-25.6-10.2-40.4l1.6-1.7h2.2l7 0.7m42.1 7.5 2.3 0.8a27 27 0 0 1-4.3 6.6l-1.4 1.8-0.1-1.8c-0.3-3.3-0.9-6-1.8-8.4-0.2-0.4 1.8 0 5.3 1m-22 1.8c-9 1.7-7 16.9 2.2 16.9 9.4 0 9.6-15.2 0.3-17a4.7 4.7 0 0 0-2.5 0m102.8 45.6 40.7 0.9 20.5 0.4c9.8 0.2 17 0.5 25.6 1a389.8 389.8 0 0 0 22.2 0.8h1.4l-1.3 0.8-6 3.4a317.9 317.9 0 0 1-59 27c-26.4 10-38 13.6-53.6 17a360 360 0 0 1-31 5.3l-13.2 2.2a166 166 0 0 1-9.2 1.4 217.3 217.3 0 0 1-17.2-17.3 469.8 469.8 0 0 1-12.3-13.4c-2.2-2.6-2.8-3.5-6.9-9.2l-5.2-7.4a31 31 0 0 1-3.9-7l4.2-0.6c4-0.3 7-0.7 11.5-1.2a584.8 584.8 0 0 1 33.1-3.3 78.3 78.3 0 0 1 3-0.2l5.3-0.3 21-0.7c5.5 0 18.3 0 30.3 0.4" fill="#040404"/><path d="m345.4 77.2 1 0.5-0.7-0.5-1-0.5 0.7 0.5m5.2 2.5 0.6 0.4 0.6 0.2-0.6-0.4-0.6-0.2m-187.9 1.5-0.3 0.6 0.5-0.6 0.4-0.6-0.6 0.6m89.9 9.7h1.1-1.1m-38.5 0.2h2-2.1m46.4 0h1.1-1.1m-50.4 0.2a9.8 9.8 0 0 0 1.5 0h-1.5m57 0a8.5 8.5 0 0 0 1.6 0h-1.6m3.8 0h1.7-1.6m-64.5 0.2a7.3 7.3 0 0 0 1.4 0h-1.4m-2 0.2h0.7l-0.4-0.1h-0.3m-2.5 0.4h1l-0.5-0.1h-0.5m93.9 0h1.9-1.9m8.8 0.3a8.3 8.3 0 0 0 1.4 0h-1.4m11.4 0.2h1.6-1.6m10.8 0.2h0.8l-0.4-0.1h-0.4m5.4 0.3h1.2l-0.6-0.1h-0.6m5.8 0.3h1.7l-0.9-0.1h-0.8m3.8 0.3h1.4l-0.7-0.1h-0.7m3.3 0.3h1.2l-0.6-0.1h-0.6m3 0.3a7.3 7.3 0 0 0 1.3 0c0.4 0 0.1-0.1-0.6-0.1h-0.8m26.3 0.4c0.3 0.3 0.6 0.5 0.7 0.4 0 0-0.2-0.3-0.6-0.5l-0.6-0.4 0.5 0.5m-23-0.1h1.6l-0.8-0.1h-0.7m18.4 0.6h1.8-1.8m-117.8 0.4h1-1m7.5 0.2a5.1 5.1 0 0 0 1.2 0h-1.1m-90 0.2h0.7-0.7m43 0h1.8-1.9m54.2 0h1.9-1.9m-58 0.2a9.7 9.7 0 0 0 1.7 0h-1.6m-43.1 0.1h0.7-0.7m40 0h1.2-1.2m-41.7 0.2h0.7-0.6m37.7 0h1-1m-39.5 0.2h0.7l-0.4-0.1h-0.3m141.5 0.1h1.3-1.2m-143.2 0.2h0.8l-0.4-0.1h-0.4m154.3 0.1a11 11 0 0 0 1.7 0h-1.7m-156.2 0.2h0.8l-0.5-0.1h-0.3m167.3 0h1-1m-169.5 0.3h1l-0.5-0.1h-0.5m175 0a9.7 9.7 0 0 0 1.6 0h-1.6m3.6 0.3h1.6-1.6m-181.8 0.2h0.7l-0.3-0.1h-0.4m185.8 0h1.7-1.7m3.8 0.3h1.2c0.4 0 0.1-0.1-0.6-0.1h-0.6m2.9 0.3h1.3l-0.7-0.1h-0.6m3 0.3a8.5 8.5 0 0 0 1.5 0l-0.7-0.1h-0.8m3.7 0.3h1.8l-1-0.1h-0.8m12.6 0.4h1-1m4.2 0c0.9 0.1 1.3 0.2 1.2 0.3 0 0.2 0 0.2 0.3 0 0.7-0.3 0.5-0.4-1.2-0.4h-1.6l1.3 0.2m-204 1.3h0.6-0.7m-1.6 0.2h0.7-0.7m-1.7 0.2h0.7-0.7m-1.8 0.2h0.7-0.7m-2 0.2h0.9-0.9m-2 0.2h1-1m195.6 8.7-0.8 0.4s0.4 0 0.8-0.3l0.8-0.5-0.8 0.4m-194.1 0.3c0.2 0.4 0.4 0.6 0.5 0.6l-0.3-0.6-0.6-0.6 0.4 0.6m27.1 32.5 0.6 0.6 0.7 0.6-0.6-0.6c-0.5-0.6-0.7-0.7-0.7-0.6m3.5 3.8 0.8 0.6-1.3-1.3 0.5 0.7m7.3 7.3 1.5 1.4s-0.5-0.7-1.3-1.4l-1.4-1.4 1.2 1.4" fill="#914b11"/><path d="m120.4 38.8h1l-0.6-0.1h-0.4m2.6 0.3h1l-0.4 0.5-0.4 0.4 0.4-0.4c0.7-0.5 0.6-0.7-0.6-0.6h-1 1m-13.2 3.5-0.3 0.3 0.7-0.3 0.3-0.2c-0.1 0-0.4 0-0.7 0.2m71.3 8.1-0.3 0.6s0.3-0.2 0.5-0.6l0.3-0.5-0.5 0.5m-86 0.5-0.6 0.5 0.6-0.4c0.4-0.2 0.6-0.4 0.6-0.5l-0.6 0.4m84.6 1.5-0.3 0.6 0.5-0.6c0.3-0.3 0.4-0.6 0.3-0.6l-0.5 0.6m-86.8 0.1-0.6 0.5 0.7-0.4 0.6-0.5c0-0.2 0-0.1-0.7 0.4m83.6 1.3v0.5a4.4 4.4 0 0 0 0-1v0.5m-89.3 3.3-0.5 0.7 0.6-0.6c0.6-0.5 0.7-0.7 0.6-0.7l-0.7 0.6m28.5 0.5c0 0.5 0 0.7 0.1 0.4a3.5 3.5 0 0 0 0-1v0.6m-30.9 1.7-1.4 1.4 1.5-1.4c1.3-1.2 1.5-1.4 1.3-1.4l-1.3 1.4m-3 3-1.3 1.3 1.4-1.3 1.4-1.5-1.4 1.4m33.7-0.3c0 0.5 0 0.7 0.1 0.4a3.5 3.5 0 0 0 0-1v0.6m-36 2.7-0.6 0.6 0.7-0.6c0.6-0.5 0.7-0.7 0.6-0.7l-0.7 0.7m-2.5 3c-0.3 0.4-0.5 0.6-0.3 0.5l1-1.3-0.7 0.8m-5.9 8.6-0.2 0.6 0.4-0.6 0.2-0.6-0.4 0.6m-1.5 3a7 7 0 0 0-0.7 1.4l0.8-1.4 0.7-1.4c-0.1 0-0.5 0.6-0.8 1.4m72.7 2.8h1.2-1.2m-3.8 3.5h0.6-0.6m7.9 0h0.8-0.8m-82.4 11c0 0.4 0 0.6 0.1 0.4a1.6 1.6 0 0 0 0-0.7v0.3m-0.2 1.5v0.3-0.7 0.4m84.3 1c0 0.4 0 0.6 0.1 0.4a1.6 1.6 0 0 0 0-0.7v0.4m-84.6 1v0.6a5.1 5.1 0 0 0 0-1.2v0.6m-0.2 4v1.3a26.2 26.2 0 0 0 0-2.5v1.3m86-0.4 0.7 1.3-0.2-0.6c-0.3-0.7-0.5-0.9-0.5-0.7m-85.9 4.4v0.5a5.1 5.1 0 0 0 0-1.2v0.7m0.2 2v0.3a1.6 1.6 0 0 0 0-0.6v0.3m4.2 15.1c0 0.2 0.1 0.5 0.3 0.7l0.3 0.3-0.3-0.7-0.3-0.3m1.4 2.9 0.5 0.8-0.3-0.8-0.5-0.8s0 0.3 0.3 0.8m3.1 5.2 0.7 0.8-0.5-0.8-0.7-1 0.5 1m4.8 6.1 0.8 0.8-0.6-0.8-0.9-0.8 0.7 0.8m2.7 3a20 20 0 0 0 1.7 1.5l-1.5-1.6-1.6-1.5 1.4 1.5m103.6 3.8 0.8 0.7-0.6-0.7-0.7-0.6 0.5 0.6m-43.8 20h1-1m8.7 0h1-1" fill="#424d60"/><path d="m199.9 35.6h0.7-0.7m3.1 0h1.1-1.1m52.1 55.4h2-2m7.7 0.2h1.8-1.9m-62.1 0.8h0.8l-0.5-0.1h-0.3m100.5 0h0.7-0.7m-103.2 0.3h0.7l-0.4-0.1h-0.3m130.6 0.5h1.4c0.4 0 0.1-0.1-0.7-0.1h-0.7m-72.4 2.4h2-2m7.6 0.2a9.8 9.8 0 0 0 1.5 0h-1.5m37 0.8h1.8-1.9m-103 0.2h0.6l-0.3-0.1h-0.3m-2.4 0.3h0.7l-0.3-0.1h-0.4m134.1 0.3h1.2l-0.7-0.1h-0.5m-149 40.8 1.2 1.1-1-1.1-1.3-1.2 1 1.2m5.8 5.9 0.6 0.6 0.7 0.6-0.6-0.6c-0.6-0.6-0.7-0.8-0.7-0.6m4.9 5.1 0.7 0.7-0.5-0.7-0.8-0.7 0.6 0.7" fill="#90742f"/><path d="m129.8 39.5h0.7-0.7m-1.8 0.8-0.7 0.8 0.7-0.7 0.8-0.7c0-0.2-0.2 0-0.8 0.6m44.8 15.4v0.4-0.8 0.4m-20.8 1.7c0 0.4 0 0.5 0.1 0.3v-0.7 0.4m-32.7 2.4c0 0.6 0 0.8 0.1 0.5a3.5 3.5 0 0 0 0-1v0.5m40.5 6.7h0.7-0.7m-9 47c-5.7 0.4-12.1 1.4-17.4 2.7a111.5 111.5 0 0 0-38.9 19.2 42 42 0 0 1-1.6 1.4c-1 0.8-5.3 5-6.1 6.1a29.5 29.5 0 0 1-1 1.2c-0.6 0.6-1.4 1.8-1.4 1.9l1.3-1.5c12.4-15.8 40-29 64.1-30.7l4.6-0.4 1.4-0.1h-1.4c-0.7 0-2.4 0-3.7 0.2m17.7 16.6 0.6 0.6 0.7 0.6-0.6-0.6c-0.5-0.6-0.7-0.8-0.7-0.6m2.3 2.5 0.7 0.7 0.6 0.5-0.6-0.6c-0.5-0.6-0.7-0.7-0.7-0.6m4.7 5.1 0.8 0.7-0.6-0.7-0.7-0.6 0.5 0.6m6.7 6.9 0.7 0.7-0.5-0.7-0.8-0.7 0.6 0.7m3 3.3c0.9 0.8 1 1 1 0.8l-1.8-1.8 0.9 1m-47.5 18.1h0.8-0.8m13.6 0h0.6-0.6" fill="#647c9c"/></g></svg>
