<?xml version="1.0" encoding="UTF-8"?>
<!-- Created with Vectornator (http://vectornator.io/) -->
<svg clip-rule="evenodd" stroke-linecap="round" stroke-linejoin="round" stroke-miterlimit="10" version="1.1" viewBox="0 0 2048 2048" xml:space="preserve" xmlns="http://www.w3.org/2000/svg" xmlns:xlink="http://www.w3.org/1999/xlink">

<clipPath id="ArtboardFrame">
<rect width="2048" height="2048"/>
</clipPath>

<g transform="matrix(4.8377 0 0 4.8377 47.194 211.68)" fill-rule="evenodd"><path d="m218 56.1a75.4 75.4 0 0 0-13.9 10l-1 0.7c-0.2 0-2.6 2.5-3.2 3.3-1.1 1.7-0.8 4.3 2.7 25a338.3 338.3 0 0 1 2.8 18 337 337 0 0 0 3.9 27.4l0.9 4.6c0.7 4 1.3 7.7 1.3 8.6v0.6h-3.4c-2 0-3.6 0-3.7-0.2a5.3 5.3 0 0 1-0.9-2.2c0-0.1-0.6-2-1.5-4a156.7 156.7 0 0 1-3-7.9l-0.8-2.1a193.7 193.7 0 0 1-5-14.9l-0.6-2.2a577.3 577.3 0 0 1-8.1-29.8c-2-8-2.2-8.5-3.1-9.6l-0.6-0.6-1.6 0.1c-3.2 0.2-14.5 2.2-19.8 3.6-8.6 2.1-11.7 3.5-12.6 5.6a69 69 0 0 0 0.5 16.4c1.2 7.4 2.8 11.8 4.8 13.8l0.7 1 0.5 0.8 0.6 0.6 0.7 1a48.9 48.9 0 0 1 3.1 4.4l0.5 0.6 1.4 1.8 0.3 0.3 0.5 0.9 1 1.2 0.5 0.7 0.3 0.3c0 0.2 0.4 0.7 0.6 1a30.4 30.4 0 0 1 3.1 3.9l1 1.3a22.6 22.6 0 0 0 1.7 2 42.4 42.4 0 0 0 2.2 3 107.3 107.3 0 0 1 5 7.2l1 1.4h-1.8l-20-0.3c-21.6-0.4-23.6-0.3-24.6 0.3a2.8 2.8 0 0 1-1 0.4c-0.7 0-2.8 1.1-3.6 1.8l-1.7 1.6c-0.6 0.4-2 1.9-3.4 3.1a128.4 128.4 0 0 1-14 12.7l-1.7 1.5c-2.4 2-6.5 6-8 7.7-2.3 2.7-2.9 6.2-1.9 12l8.9 69.5s-0.3 0-0.6-0.3l-0.6-0.4-0.8-0.6-0.7-0.6-0.6-0.5a4.4 4.4 0 0 1-0.9-0.6 51.2 51.2 0 0 0-3.9-2.9 271.3 271.3 0 0 0-9.4-6.5 12.7 12.7 0 0 0-9.6-3l-8 0.8c-7.1 0.7-7.9 0.8-9.6 1.7-2.7 1.3-2.9 1.8-3.6 7l-0.8 5.9c-1.5 10.7-0.1 13.8 7.6 16.7l2.3 0.9 14.1 4.5 3 1 4.1 1.3 3.5 1 5.8 1.5a311 311 0 0 1 10.8 3l1.3 0.2c0.4 0 0.5 0.2 0.6 1.7l0.2 1.7h-1c-4.7 0-19.1 2-22.5 3-5.3 1.7-5.9 4.7-3 16.3 2.5 10.6 5.8 17.5 8.5 18.3 1.8 0.5 3.3 0.2 10.9-2l2.1-0.7 2.3-0.7c1-0.2 2.8-0.9 4.2-1.3l2.5-0.8v0.5l0.3 1.8c0 0.7 0.2 1.3 0.3 1.3s0.2 0.1 0.2 0.3c0 0.6 1.7 1.9 3.8 2.9a150 150 0 0 0 12.6 5.4l3.3 1.2 8.8 3 2 0.6h11.8c19.5-0.1 138.5-1.7 140.1-1.9 3.5-0.4 4.6-1.2 6-4.1 1.6-3.3 1.5-3 1.5-9.1 0-5.1 2-41.2 2.2-41.4 0.2-0.3 17.3 2.4 22.1 3.4 1.4 0.3 8 1.3 11.7 1.7 3.8 0.5 8.4 0.3 9-0.4 1.8-1.7-3.3-8.1-11-13.9a48.3 48.3 0 0 1-1.6-1.2l-1.6-1-1.7-1.2c-0.5-0.4-1.6-1.2-2.6-1.7l-2-1.3a45.7 45.7 0 0 0-3.8-2.2c-1.7-1.2-15.8-8.4-16.4-8.4-0.7 0-0.7 0.2 1.6-39.9a2879 2879 0 0 1 2.2-40c0.4-1.1 0.1-14.5-0.2-16.2a14.6 14.6 0 0 0-9.5-11.3 5.4 5.4 0 0 1-1.4-0.6s-3.2-0.2-7.5-0.2l-51.4-0.8-2.2-0.1 0.1-0.8 0.6-2.6 1-4.3c0.5-2.6 2.8-11.7 6.2-25a413.4 413.4 0 0 1 5.2-19.5l2-6.8 2.2-7.7a2595.5 2595.5 0 0 0 3.3-11.5c2.8-9.5 3-12.3 1-14.1-1.2-1.1-3.8-1.9-9-2.6l-7.6-1.1c-8.6-1.4-11.6-1.9-16.2-2.3-5-0.6-8.6-0.6-9.6-0.3m8.3 4c4.7 0.6 16.5 2.3 24.3 3.7 8.2 1.4 7.6 1 6.6 5.3-0.9 3.7-3.7 13.7-5 17.8a301.6 301.6 0 0 0-3 10l-2.7 9.6a37.5 37.5 0 0 0-1 3.7 819.2 819.2 0 0 1-5.8 23.2 336.2 336.2 0 0 0-3.4 13.3 37.3 37.3 0 0 0-1.3 7l-0.1 1.3h-3.3l-15.9-0.4-0.6-3.6c0-0.8-0.8-4.5-1.5-8.2a353.4 353.4 0 0 1-4-26.8c-1-8.3-2.1-15.6-5.2-34-0.9-5.3-1.4-9.2-1.3-9.6 0.2-0.8 7.3-6.6 11.2-9.2a96.7 96.7 0 0 0 2.1-1.5c2.8-2.2 3.2-2.2 9.9-1.5m-47.5 25.3 2.6 10.1a422.5 422.5 0 0 0 16 51.9 38 38 0 0 1 2.5 6.9l-8.2-0.1a2453 2453 0 0 0-9.4-0.2h-1.2l-0.4-1c-0.6-1.8-5.3-8.5-10.8-15.4a401 401 0 0 1-16.2-22c-1.8-3.2-3.4-12.9-3.4-20.7v-3.3l1-0.6c1.7-0.9 4.3-1.7 8.8-2.6l5.1-1.2c2.9-0.7 7.1-1.4 11.6-2.1 1.8-0.3 1.8-0.3 2 0.3m-37.8 71.6 44.2 0.6 85.6 1.4c28 0.4 27.7 0.4 29.3 1 6.4 2.2 8 7.5 7 22.3a843 843 0 0 0-0.6 9.8c-1.5 28.3-4 69.6-4 69.7l-2.6-1a271.2 271.2 0 0 0-10.9-4.3c-1.7-0.6-1.7-0.5-0.9-1.7 4.3-6.4 5.2-20 2-30a29.6 29.6 0 0 0-5.6-9.9c-0.1 0-3.5 0.5-4.4 0.8-0.1 0 0.2 0.5 0.8 1 8.2 6.7 10.2 29.4 3.3 37.3l-0.6 0.6-4-1.3c-5.3-1.7-11.9-3.6-17-4.9l-4.3-1c-0.2 0 0.4-0.8 1.2-1.5 6.3-6.4 2.8-16.8-4.9-14.3-4.8 1.7-8 8.4-6 12.8l0.4 1c-0.1 0.1-4.5-0.6-4.6-0.7l-0.7-1.5c-2.3-4.9-2-11.7 1-18.4l0.5-1.6-2.2 0.5-2 0.4-0.7 1.9c-2 5.6-2.4 13.1-0.8 16.3 0.6 1.3 0.3 1.6-1.6 1.3-2.3-0.4-7.2 0.1-9.3 1-1 0.4-1 0.4-0.6-1.3 1.2-7.5-1-17.4-5-22.7l-1-1.4-1.6-0.2a57 57 0 0 0-3-0.4l-1.6-0.1 0.2 0.5c0.2 0.3 0.7 0.8 1.2 1.1 5.7 3.7 8.7 14.5 6.8 24.3l-0.4 2.2-1.9 0.9a265 265 0 0 0-27 14.6c-1.3 0.8-1.2 0.8-4.2-0.7-21.2-10.3-24.4-32-6.8-45.1 2.2-1.6 2.2-1.5-1-1.9l-2.2-0.2-1 0.8c-17.1 14.4-13.5 37.3 7.7 48.9l2.5 1.3-1.7 1.1a109.7 109.7 0 0 0-19 16.4c-1.4 2.1 0.7 4.1 3 3 1.2-0.4 12.7-2.9 13.9-2.9l1 0.6 1.8 1.3c0.6 0.5 2 1.6 3 2.6 6.7 6.2 18.8 14.7 25.8 18.2 12.9 6.5 21.6 7.2 34 2.8a437.2 437.2 0 0 0 20.6-8.4l5.8-2.7c6-2.6 6.9-3 8.4-3.8 1-0.5 3.5-2 5.8-3l4-2.2 1.2 0.2 2.5 0.3 1.2 0.2-0.1 2.4-1 17.7a378 378 0 0 0-1 21.2c0 6.4 0 6.4-1.4 9-1 1.9 0.8 1.7-18.8 1.7a10956 10956 0 0 1-133.8 1.6 132.3 132.3 0 0 1-28.3-10.7c-0.2-0.2-1.4-9.6-8.7-68.1a20337 20337 0 0 0-8.8-69.9c-0.4-3-0.4-6.5 0.1-7.6 0.9-1.8 7.4-8 15.7-15l7.2-6.6 6-5.6 0.8-0.6 1.4-1 1-0.6 4.7 0.1c2.6 0.1 4.8 0.2 5 0.1m49.5 76.6c-7.8 1.1-7.6 12.7 0.2 15 7.2 2 11.8-6.8 6.5-12.6-1-1.2-5.4-3.1-5.7-2.6l-1 0.2m53.1 14.7c36.5 5.7 80 24 96.9 40.8 2.3 2.3 2.4 2.5 1.3 2.4l-14.1-2.1a438.6 438.6 0 0 0-20-3.3 257.7 257.7 0 0 1-18-2.8c-24.7-5-35.2-6.3-54-6.5a274.8 274.8 0 0 0-60 4.2 140.3 140.3 0 0 1 19.8-15c8.4-5.8 27.4-15.7 33.5-17.6 2.8-1 9.2-1 14.7 0m-164 3.9a146.6 146.6 0 0 1 24.4 16.7l0.9 0.5 1.2 10 1.2 10.3c-0.1 0-2.1-0.4-4.5-1.1a313.6 313.6 0 0 0-7.2-1.9 262.6 262.6 0 0 1-15.6-4.6c-15.2-4.7-20-6.5-21.1-8-0.9-1-1-5.2-0.3-10.3 0.6-4.7 1-8 1.2-8.5 0.2-1.3 2-1.7 9.8-2.4 4.5-0.4 7.4-0.7 8.8-1 0 0 0.6 0 1.2 0.3m167.8 28.4a261.3 261.3 0 0 1 42.3 6.3c0.7 0.2-7 4.2-11.3 6a90.6 90.6 0 0 0-4 1.7c-4.4 2.1-7 3.2-10.8 4.8l-6.5 2.6c-16.3 6.7-22.7 7-34.9 1.7-7.2-3.2-20.2-12-27-18.2l-2.8-2.5a4.5 4.5 0 0 1-1-1c0.2-0.2 10.5-1 18.3-1.4l5.2-0.3c2.8-0.2 28.9 0 32.5 0.3m-138.3 22.9 1.5 12c1.2 9.3 1.2 9.3 0.8 9.6-1.2 1-19.5 6.4-20.3 6-2.4-1.6-8.7-24-7.3-26.3 0.6-1 8.5-2.5 20-3.5a35 35 0 0 0 4.4-0.6c0.6-0.3 0.6-0.2 1 2.8" fill="#241c1c"/><path d="m231.7 248c-1.4 0.2-3.6 0.9-4.8 1.4l-3.5 1.5a241.8 241.8 0 0 0-31.3 17.4 134 134 0 0 0-13.6 10.4c-2.7 2.4-2.8 2.5-1 2a177 177 0 0 1 31.9-3.6c5-0.3 32.2-0.3 38 0 10.5 0.6 25.7 2.9 42 6.2 4.8 1 10.5 1.9 17.4 2.8 6.5 0.9 14.5 2.2 21 3.4 4.7 0.8 14.4 2.2 14.5 2 0.2-0.1-2.5-2.9-4.7-4.8-13-11.2-39.2-23.9-65.8-31.7-17-5-33.1-7.8-40.2-7m-18.5 32.8-4.8 0.3-15.7 1-1 0.2 3 2.8a122 122 0 0 0 27.4 18.6c12.1 5.5 18.6 5.3 34.8-1.3a263 263 0 0 0 21.8-9.3l4-1.9 7.4-3.9-2.5-0.5c-13.3-2.7-28.3-5-37.2-5.7-3.6-0.3-33.8-0.5-37.2-0.3" fill="#fbb324"/><path d="m142.3 187.7c-1.3 0.6-1.3 0.6 1 11.4 1.7 9 2 10 2.4 10.5 0.6 0.7-1.4 0.4 24 3.5 26.5 3.1 45.4 5.4 49.5 6 13 1.6 12.6 1.7 11.7-3.2a54 54 0 0 1-0.6-5.4c-0.3-4.2-0.4-4.5-1.9-5-1-0.4-13.5-3-48.3-10.3l-19.6-4.1a1108.6 1108.6 0 0 0-15.3-3.2c-2-0.5-2.3-0.5-3-0.2m152.2 4.1-9.5 3.3-10 3.5-34 11.8c-5.2 1.8-5.2 1.8-4.5 8.2 0.9 7 0.3 6.8 9 4.8a5779.3 5779.3 0 0 1 55.6-12c1.2-0.7 1.1 0 0.8-11.5-0.4-11.2 0.1-10.7-7.4-8m-56 56.1h0.6l-0.3-0.1c-0.4 0-0.6 0-0.4 0.1m-26.8 29.1h1.3-1.3m31.3 0h1.9-1.9m-34.7 0.2h1-1m40 0h1-1m-43.5 0.2h1.2-1.2m46.5 0h0.9l-0.4-0.1c-0.5 0-0.7 0-0.5 0.1m-72.1 0.7-0.6 0.6 0.6-0.6 0.7-0.6c0-0.1-0.2 0-0.7 0.6m23-0.5h0.7l-0.5-0.1h-0.3m-2.7 0.3h0.8l-0.4-0.1h-0.4m-3 0.3h1l-0.5-0.1h-0.5m-2.2 0.3h0.7l-0.4-0.1h-0.3m-18 2.5c-0.4 0.5-0.4 0.6-0.1 0.6 0.2 0 0.3-0.1 0.2-0.2 0 0 0-0.3 0.3-0.6l0.3-0.4-0.6 0.6m35.9 0.1h1.4-1.4m30.1 0h2-2m-33.7 0.2h1-1m39.3 0h1-1m-42.7 0.2h1.2-1.2m45.8 0h1-1m-48.5 0.2h0.8l-0.5-0.1c-0.4 0-0.6 0-0.3 0.1m51 0h0.7l-0.3-0.1c-0.3 0-0.5 0-0.3 0.1m-54 0.2h1-0.9m55.8 0h0.7l-0.3-0.1h-0.4m-58.7 0.3h1l-0.5-0.1h-0.5m-2.2 0.3h0.7l-0.4-0.1h-0.3m-2.2 0.3h0.7l-0.3-0.1h-0.4m1.2 2 0.7 0.7-0.5-0.7a4 4 0 0 0-0.8-0.7l0.6 0.7m2.1 1.9c0.8 0.9 1 1 1 0.9l-1-1-0.9-0.8 0.9 0.9m144.8 3.3 1.5 1.3-2.7-2.7 1.2 1.4m-103.8 18.5h1.3c0.4 0 0.2-0.1-0.6-0.1h-0.7" fill="#d25424"/><path d="m219.3 60v2.7l0.7 13 1.7 34.4 2 42.9c0 1.8-0.6 1.6 5.9 1.7h5.2l0.1-0.9c0-1.2 1-5.4 1.4-7.1l1.2-4.8a1128.2 1128.2 0 0 0 8.8-34.6 1262.3 1262.3 0 0 0 5.7-19.8c1-2.6 6-21 5.7-21.8-0.1-0.5-1.2-0.8-5.5-1.5-20.4-3.3-19.8-3.2-25.5-3.8-3.4-0.4-7.2-0.6-7.4-0.3m-42.7 25.3-4.6 0.8a129 129 0 0 0-12.6 2.6c-4.4 0.9-8.7 2.4-9 3.2 0 0.5-0.3 0 5.5 9.2l30.4 47.5a98 98 0 0 0 3.3 5c0.4 0.4 10.2 0.8 10.2 0.5 0-0.4-1-3.5-2.4-6.8-0.8-2-2-5.1-2.5-6.8l-2.3-6.3c-2.8-7.8-7.5-24.1-11.2-38.6a660.8 660.8 0 0 0-2.5-9.9c-0.2-0.7-0.4-0.7-2.3-0.4m-44.3 72.6 15.4 184.3c0 0.2 2.6 0.2 9.2 0.1a11989 11989 0 0 1 32.8-0.4l17.1-0.2a2469.2 2469.2 0 0 0 32.6-0.4l19.2-0.3 22.3-0.2c17.2 0 15.6 0.2 16.8-2.3 1-2.1 1.2-3.1 1-8.8 0-4.1 0.2-7.7 1-20.5l1-17.8 0.1-2.3-0.4-0.1a25.7 25.7 0 0 0-3.8-0.5c-0.6 0-1.7 0.5-5.3 2.4l-6.2 3.2c-1 0.6-2.9 1.4-4.2 2l-7.3 3.2c-29.4 13.5-38 14.7-53.8 7.5-7.3-3.3-21-12.7-27.1-18.4-3.2-3-6.2-5.4-6.8-5.4-1.3 0-12.9 2.5-14 3-2.3 1-4.4-1.2-3.2-3.3a63.1 63.1 0 0 1 5.4-5.6l3.7-3.1 2.2-1.8 8.2-6.2 1.3-0.8-2-1c-19-10.1-24.8-30-12.8-44.4a45.7 45.7 0 0 1 5-5.1l0.4-0.4-0.8-0.1-16.6-2c-16.2-2-16.7-2-17.3-3-0.3-0.4-4.2-19-4.2-20.2 0-1.4 1.4-2 3.3-1.6l6.8 1.5a2271.1 2271.1 0 0 1 22 4.6c19.7 4 53.1 11 54 11.3 2.7 0.8 2.9 1 3.2 5.9 0 1.8 0.3 4.3 0.6 5.5 0.7 3.8 0.2 4.2-5 3.6-4-0.4-3.8-0.5-2.7 1 4 5.4 6.1 16 4.6 23.4l-0.1 0.5 0.8-0.3a23.1 23.1 0 0 1 8-1c3.3 0 3.1 0.2 2.4-1.8a27.6 27.6 0 0 1 1.4-16.8c0.1-0.3 0-0.3-1.2-0.3-2.2 0-2.3-0.2-3-5.8-0.8-7.3-1.5-6.6 9.8-10.5l30.6-10.5c18-6.3 22.7-7.9 23.2-7.8 1 0.2 1.6 1 1.7 2.3a338 338 0 0 1 0.5 17.6c-0.3 1.5 0.1 1.3-9.9 3.5-8.3 1.8-7.6 1.5-7 2.2 7.8 8.2 9.4 30.4 2.8 39.6-0.5 0.7-0.5 0.7 2.2 1.7s8.3 3.2 10.5 4.2l1.6 0.7v-0.5c0.2-0.3 1.1-17.2 2.3-37.6l2.4-41.3c1-13.5-0.4-18.9-5.4-21.5-2-1.1-2.8-1.2-12-1.3l-13-0.2-11.4-0.2-12.8-0.2-30.3-0.5-30.4-0.5-12-0.2-39.3-0.6h-8.2l0.1 0.8m110 78.1v0.4-0.8 0.4m20.6 2.2c0 0.4 0 0.6 0.1 0.3v-0.8 0.5m-78.6 2.4c0 0.4 0 0.6 0.1 0.4v-0.7 0.3m-106.7 11.7c-0.1 0.2-4.7 0.7-9.4 1.1-5.6 0.5-7.8 0.9-7.8 1.4l13.4 6.6 22.4 10.9 9.1 4.3a40.4 40.4 0 0 0-0.4-3.5l-0.4-3.5-0.7-0.4a232 232 0 0 0-20.8-15c-2.3-1.4-4.9-2.4-5.4-1.9m30.3 48.9-4.4 0.5c-8 0.7-15.2 1.7-17.8 2.5-1.6 0.5-2 0.8-1 0.8 2.2 0 13.3 0.4 15.8 0.6 6.1 0.3 8.5 0.3 8.4-0.1-0.3-3.9-0.6-4.8-1-4.3m2.8 21.6c-0.3 0.3-2.7 0.9-6.4 1.6a504.4 504.4 0 0 0-12.5 2.5l-2.7 0.4c-0.2 0.2 1.6 3.7 2 3.9 0.8 0.3 17-4.4 19.6-5.6l0.7-0.4v-1.3c-0.2-1.2-0.4-1.5-0.7-1.2" fill="#bfeaff"/><path d="m218 60.8-3.5 2.4a71.5 71.5 0 0 0-7.7 5.9c-2.8 2.2-3.5 3-3.5 3.8 0 1 0.6 4.8 3 19.6 2.6 15.6 2.5 14.8 3.3 21.6a323 323 0 0 0 3.6 25.2l1.2 6.2a92.7 92.7 0 0 1 1.2 8c0 1 0 1 4.2 1.1 3.1 0.1 3.8 0.1 3.9-0.1l-1.6-36.1a156061 156061 0 0 1-2.8-58.4l-1.3 0.8m-67.5 35.3c0.2 6.4 0.7 10.2 2.2 16.3 0.7 3 1 3.3 9.8 15.2l6.3 8.3c6.7 8.5 12.3 16.5 12.3 17.6 0 0.5 0.4 0.6 4.8 0.6 3.8 0 4 0 3.7-0.3l-3.3-5.2a15830 15830 0 0 0-35.7-55.6c-0.2-0.3-0.2 0.3-0.1 3.2m-19.8 61.4c-0.5 0.3-1.2 0.7-1.4 1l-1 0.7-6 5.6-7 6.6c-7.7 6.4-15 13.3-15.8 14.8-0.7 1.3-0.8 4.3-0.3 7.5l8.9 70.4 8.4 67.6 1.2 0.7c8.5 4.6 28.6 11.4 29.9 10.1 0 0-15-182.8-15.3-184.6-0.1-1-0.2-1-1.6-0.4m12.7-0.1h0.7l-0.3-0.1h-0.4m24.2 0.5h0.7c0.2-0.1 0-0.1-0.3-0.1h-0.4m36.6 0.6h0.6-0.6m12 0.2h0.7-0.6m12 0.2h0.8-0.7m12 0.2h0.8-0.7m12.5 0.2h0.7-0.7m12.3 0.2h0.7-0.7m12 0.2h0.8-0.7m-217.2 95.5a29 29 0 0 0-0.7 3.9c-2 14-1.8 15.1 2 16.9a345.7 345.7 0 0 0 42.4 13.2l3.4 0.9-0.7-6.6-0.8-6.5-4.3-2.1-22.7-11-18.3-9-0.3 0.3m23.8 50c-1 1 2.2 15.5 4.7 21l0.5 1.2 3.2-0.5a119.2 119.2 0 0 0 12.6-2.4 26.2 26.2 0 0 0 6.4-1.6v-0.5l-2-15.7v-0.6l-2.8-0.1-5.7-0.2a409.2 409.2 0 0 0-16.9-0.7m204 36h0.6l-0.3-0.1h-0.4m-48.7 0.7h0.9c0.2-0.1 0-0.1-0.4-0.1h-0.5m-16 0.2h0.9-0.9m-16.3 0.2h1-1m-16.1 0.2h0.9-0.9m-16.5 0.2h0.7-0.7m-16.3 0.2h0.8-0.8" fill="#7bd2fa"/><path d="m184.8 216c-18.5 13-15.7 35 5.7 45.4 3.2 1.6 2.3 1.8 7.8-1.5 7.6-4.5 17.5-9.8 23-12.2 2.2-1 2.2-1 2.6-3.5 1.8-9.3-1.3-20.2-6.7-23.7a5 5 0 0 1-1.3-1.2l-0.4-0.7-14.4-1.7-14.8-1.8-1.5 0.9m77.3 3.8-16.6 3.6-0.6 1.3a23.8 23.8 0 0 0-1 18.6c0.7 1.6 0.5 1.5 2.6 1.8l2 0.3c0.2 0 0-0.5-0.2-1.3-2-5.7 2.9-12.8 8.5-12.7 7 0 8.4 10.5 2 15.5-0.6 0.5-1 0.4 4.5 1.7a273.4 273.4 0 0 1 16.7 4.9l3.6 1.1 0.6-0.7c6.6-7.9 4.6-30.4-3.3-36.9-1.3-1 0.2-1.3-18.8 2.8m-69 14c9 2.3 8.7 15.3-0.4 15.3-9.2 0-11.3-13.5-2.5-15.4 1.5-0.3 1.5-0.3 2.8 0" fill="#fbfbfb"/><path d="m301.6 196.8c0 0.4 0 0.6 0.1 0.3v-0.8 0.5m0.1 5.8c0 0.5 0 0.6 0.1 0.4v-0.8l-0.1 0.4m0.2 5.8c0 0.5 0 0.7 0.1 0.4v-0.8l-0.1 0.4" fill="#af9b94"/><path d="m204.1 71.2a4 4 0 0 0-0.8 0.9l1.8-1.8-1 0.9m-1 1.8c0 0.4 0.1 0.5 0.2 0.3v-0.8l-0.1 0.5m-52.8 25c0 0.8 0 1 0.1 0.7v-1.3 0.7m0.1 2.9c0 0.4 0 0.5 0.1 0.3v-0.7 0.4m0.1 2.1c0 0.4 0 0.6 0.1 0.4v-0.7 0.3m36.2 51.2h2c0.6 0 0.1-0.1-1-0.1h-1m11.3 0.2h1.2-1.2m17.9 0.2h1-1m7.6 0.1 1.3 0.2c1.3 0 1-0.1-0.4-0.3l-1 0.1m-88.9 2.5h1.3l-0.6-0.1h-0.7m4.9 0.3h0.8l-0.5-0.1h-0.3m11.2 0h1.5-1.5m6 0.3h0.8l-0.4-0.1h-0.3m-27.5 0.5c-0.7 0.5-1 0.7-0.4 0.4 0.5-0.2 1.2-0.8 1-0.8l-0.7 0.4m58.2 0h2.2l-1.1-0.1h-1m108.6 1.9h1.2-1.2m-171.8 2.7-2 2.1 2-2a60.6 60.6 0 0 0 2.2-2.1c0-0.1-0.3 0.1-2.2 2m-4.6 4.4-2 2 2-1.9m-3.4 3.1a4.4 4.4 0 0 0-0.8 0.9l1-0.9 0.8-0.9-1 1m190.7 5.7v2a66.7 66.7 0 0 0 0-2m-194.6-2.4-0.7 0.7 0.7-0.7c0.7-0.6 0.9-0.8 0.7-0.8l-0.7 0.8m-1.7 1.4-0.6 0.7 0.7-0.6 0.6-0.6c0-0.2-0.1 0-0.7 0.5m-2.9 2.6-0.8 0.8 0.8-0.8 0.9-0.8c0-0.1-0.2 0-0.9 0.8m-1.8 1.5-0.7 0.9 0.8-0.8c0.8-0.7 1-0.9 0.8-0.9l-0.9 0.8m-3.5 3.4-2.5 2.6 2.6-2.6m204 2.7v0.3-0.7 0.4m-208 3.2v0.5-1.2 0.7m207.4 7v0.3-0.7 0.3m-206.8 0.9v0.3c0.1-0.2 0.1-0.6 0-0.8v0.5m0.2 1.9v0.3-0.7 0.3m206.4 1c0 0.4 0 0.5 0.1 0.3v-0.8l-0.1 0.4m-0.2 3.5c0 0.3 0 0.5 0.1 0.3v-0.7l-0.1 0.3m-0.2 3.5c0 0.4 0 0.5 0.1 0.3v-0.8 0.5m-0.3 3.4c0 0.4 0 0.5 0.1 0.3v-0.7 0.4m-0.3 3.4c0 0.4 0 0.6 0.1 0.3v-0.7 0.4m-0.3 3.5c0 0.4 0 0.6 0.1 0.4v-0.8 0.4m-127.9 1.2-1 1.2 1-1.1 1.2-1.2-1.2 1.1m3.4 2-0.7 0.7 0.7-0.7c0.7-0.6 0.8-0.8 0.7-0.8l-0.7 0.8m124.2 0.1c0 0.5 0 0.6 0.1 0.4v-0.8 0.4m-0.3 3.5c0 0.5 0 0.6 0.1 0.4v-0.8 0.4m-0.3 3.5c0 0.3 0 0.5 0.1 0.3v-0.7 0.4m-0.2 3.4v0.3-0.8 0.5m-0.2 3.4v0.3-0.6 0.3m-135.6 2v0.3-0.7 0.4m59.6 0.5v0.4-0.7 0.3m10.1 0.7c0 0.6 0 0.8 0.1 0.5v-1 0.5m53.7 2.2v1.4a47.4 47.4 0 0 0 0-1.4m11.9-2v0.4-0.8 0.4m-15.6 2v0.9-2 1m-119.8 0.8v0.3-0.7 0.4m135.2 0.8v0.4c0.1-0.3 0-0.6 0-0.8v0.4m-0.2 3.5v0.3-0.7 0.4m-69.5 0.3h1.2-1.2m69.3 3v0.4c0.1-0.2 0.1-0.6 0-0.8v0.5m-0.2 3.4v0.3-0.7 0.4m-0.2 3.4v0.3-0.7 0.4m-123.1 0.6 1.1 1-1-1a9.8 9.8 0 0 0-1-1l0.9 1m-2.4 3 1.2 1a7 7 0 0 0-1-1 9.7 9.7 0 0 0-1.1-1.1l1 1m125.2 0v0.4c0.1-0.3 0.1-0.6 0-0.8v0.4m-0.2 3.4v0.4-0.7 0.3m-244.3 8v0.4-1 0.6m50.5 2.8c0 0.4 0 0.5 0.1 0.3v-0.7 0.4m192 19v0.7-1.4 0.7m-0.3 4.5c0 0.4 0 0.6 0.1 0.4v-0.8 0.4m-0.3 3.5c0 0.5 0 0.6 0.1 0.4v-0.8 0.4m-188.1 1.1v0.4-0.7 0.3m187.9 2.3v0.3-0.8 0.5m-0.2 3.5v0.3-0.8 0.5m-0.2 3.4v0.3-0.7 0.4m-63.6 2.9h2c0.6 0 0.1-0.1-1-0.1h-1m63.4 0.6v0.3-0.7 0.4m-189.3 2v0.4-0.7 0.4m189 1.3c0 0.4 0.1 0.6 0.2 0.4v-0.7c-0.1-0.2-0.1 0-0.1 0.3m-189 0.2c0 0.4 0.1 0.5 0.2 0.4v-0.7l-0.1 0.3m0.2 1.6v0.3-0.7 0.4m188.5 1.6v0.4c0.1-0.3 0.1-0.6 0-0.8v0.4m-188 3.2c0 0.4 0.1 0.5 0.2 0.3v-0.8l-0.1 0.5m187.7 0.3v0.3-0.7 0.4m-187.4 2.4c0 0.2 0 0.5-0.2 0.6 0 0.2 0 0.2 0.1 0a0.7 0.7 0 0 0 0.3-0.6c-0.1-0.4-0.1-0.3-0.2 0m187.2 7v0.5-1.1 0.5m-208-0.5c0.2 0.2 0.6 0.3 0.9 0.3h0.5l-0.5-0.1c-0.3 0-0.6-0.2-0.8-0.3-0.2-0.2-0.2-0.2 0 0.1m26 1c0 0.2 1.2 0.7 1.3 0.7 0 0-0.2-0.3-0.6-0.4l-0.7-0.3m147 9h0.9-0.9m12.1 0h1.3-1.4m-19.1 0.3h1l-0.5-0.1h-0.4m-110.7 1.3h1-1" fill="#5289a0"/><path d="m220.3 59.9h1.3-1.3m-87.6 97.3h1l-0.5-0.1h-0.5m22.6 0.5h1l-0.5-0.1h-0.5m3.7 0h2.2-2.1m147.9 13.5v0.3-0.6 0.3m0 10.1v0.5-0.9 0.4m-0.2 2.5v0.3c0.1-0.2 0.1-0.6 0-0.8v0.5m-0.2 3.4v0.4c0.1-0.2 0.1-0.6 0-0.8v0.4m-0.2 3.3v0.4-0.7 0.3m-4.9 4c0 1.1 0 1.5 0.1 1v-2 1m4.6-0.6v0.4c0.1-0.3 0.1-0.6 0-0.8v0.4m-0.2 3.6c0 0.4 0 0.5 0.1 0.3v-0.8l-0.1 0.5m-4.3 2.9c0 1 0 1.5 0.1 1v-2 1m4 0.5c0 0.5 0 0.7 0.1 0.4v-0.9 0.5m-0.3 3.5c0 0.5 0 0.7 0.1 0.4v-0.8 0.4m-3.8 1.7c0 1 0 1.4 0.1 0.9v-2 1m3.4 1.7c0 0.5 0 0.7 0.1 0.5v-1 0.5m-75.5 0.4c0 0.4 0 0.5 0.1 0.3v-0.6 0.3m0.1 2.8c0 0.7 0 1 0.1 0.6a5.2 5.2 0 0 0 0-1.2v0.6m75 0.3v0.5-0.9 0.4m-0.3 3.4c0 0.5 0 0.6 0.1 0.4v-0.8 0.4m-0.3 3.5c0 0.5 0 0.6 0.1 0.4v-0.9 0.5m-83 1.8 0.4 0.3c0.2 0.2 0.3 0.2 0.2 0-0.1 0 0-0.2 0.3-0.2s0.3-0.1-0.2-0.1h-0.6m82.6 1.7c0 0.5 0 0.7 0.1 0.4v-0.9 0.5m-0.3 3.3c0 0.5 0 0.7 0.1 0.4v-0.8 0.4m-0.3 3.5c0 0.5 0 0.7 0.1 0.5v-1 0.5m-0.3 3.4c0 0.5 0 0.6 0.1 0.4v-0.8 0.4m-47.8-0.1h0.8l-0.5-0.1h-0.3m47.7 3.6v0.4-0.9 0.5m-61.8 0c0 0.3 0 0.5 0.1 0.3v-0.7 0.4m-45.2 1 0.7 0.7-0.5-0.7-0.8-0.7 0.6 0.7m-28.7 1c0 0.7 0 0.9 0.1 0.5v-1.1 0.6m3.8 0c0 0.5 0 0.7 0.1 0.4v-1 0.6m56 1.6v1a25.7 25.7 0 0 0 0-1m-4 0c0 1 0.1 1.5 0.2 0.9v-2l-0.1 1m79.3 0v0.4-0.9 0.5m-55.9 3v0.5-1.1 0.6m40.2-0.1c0 0.4 0 0.5 0.1 0.3v-0.6 0.3m15.4 0.4v0.4c0.1-0.2 0.1-0.6 0-0.8v0.4m-104 0.2c0 0.4 0 0.5 0.1 0.3v-0.7 0.4m103.7 3.3v0.4c0.1-0.2 0.1-0.6 0-0.8v0.4m-105.9 1.8-0.5 0.6 0.6-0.5 0.6-0.7-0.7 0.6m105.7 1.5v0.5-1 0.5m-111 0.6h1l-0.5-0.1h-0.5m110.8 3v0.5-0.9 0.4m-0.2 3.5v0.3c0.1-0.2 0.1-0.6 0-0.8v0.5m-0.2 3.4v0.4-0.9 0.5m-2 34c0 0.7 0 1 0.1 0.6v-1.2 0.7m-0.3 3.7c0 0.4 0 0.6 0.1 0.3v-0.8 0.5m-0.3 3.4c0 0.5 0 0.7 0.1 0.4v-0.8 0.4m-0.3 3.5c0 0.5 0 0.7 0.1 0.4v-0.8 0.4m-0.3 3.3 0.1 0.5v-1 0.5m-0.2 3.5v0.5-0.9 0.4m-0.2 3.4v0.4-0.9 0.5m-0.2 3.5v0.4-0.9 0.5m-0.2 3.4v0.3-0.7 0.4m-0.2 3.2v0.4-0.7 0.3m-0.2 4.2v1-1.8 0.8m0.2 5.5v0.3c0.1-0.2 0.1-0.6 0-0.8v0.5m-9.3 7.3h0.9l-0.5-0.1h-0.4m-11 0.3h1l-0.5-0.1h-0.5m-23 0.2h0.6-0.7m-107.3 1.4h1.6-1.5" fill="#b9afac"/></g></svg>
