<?xml version="1.0" encoding="UTF-8"?>
<!-- Created with Vectornator (http://vectornator.io/) -->
<svg clip-rule="evenodd" stroke-linecap="round" stroke-linejoin="round" stroke-miterlimit="10" version="1.1" viewBox="0 0 2048 2048" xml:space="preserve" xmlns="http://www.w3.org/2000/svg" xmlns:xlink="http://www.w3.org/1999/xlink">

<clipPath id="ArtboardFrame">
<rect width="2048" height="2048"/>
</clipPath>

<g transform="matrix(5.1024 0 0 5.1024 59.191 640.38)"><g fill-rule="evenodd"><path d="m39.2 0c-0.2 0.1-0.4 0.4-0.5 0.9l-0.5 2c-3.6 12.6-0.3 34.8 7.4 49.6a69.2 69.2 0 0 0 25.6 26.5 61.8 61.8 0 0 0 29.6 10.8h2.4l-1.4 0.8c-3.2 1.9-11.1 5.5-16.2 7.3a80.6 80.6 0 0 1-47.3-0.6c-11.3-3.5-23.8-13.7-34.6-28-1.4-1.8-2-2.3-3-2.1-0.7 0.2-1 0.9-0.5 1.7l0.6 1.4c1.3 3.4 4.1 9 6.1 12a90.2 90.2 0 0 0 30.4 25.9c3.5 2 11 4.4 16.4 5.3a52 52 0 0 0 28.2-1.4c-2.5 3.9-23 14.8-32.2 17a73.8 73.8 0 0 1-17.1 1.7c-5.7 0-6.1 0.1-5.8 1.7 0.3 1.1 9.9 3.6 17 4.3 17 1.8 36.6-5.4 55.7-20.7l-0.2 1.8a86.5 86.5 0 0 0 1 32.8c2.3 13.4 3.1 21.8 4.4 43.4 0.5 8.7 0.4 18.9-0.1 17.4l-3.6-7.5a94.6 94.6 0 0 0-15.5-23.4c-3-3.1-4.1-3.5-7.8-2.6-1.6 0.4-1.8 0.5-6 2-1.2 0.6-3.3 1.2-4.6 1.6-3.4 0.8-3.7 1.7-1.3 4l6.5 6.4a292.6 292.6 0 0 0 14 13.2 229 229 0 0 0-18.4-9.4l-4-1.6c-1.9-0.8-2.6-0.7-4 0.5l-3.3 2.5c-9.4 6.6-17.8 17.2-15.5 19.5 0.5 0.5 0.5 0.5 6.5 0 11.6-1.2 24.6 0.3 33.9 4 3 1 7.8 3.9 5.4 3-3.3-1-11-1.8-20-1.8h-6.9l-0.8 0.9a81 81 0 0 0-11.3 15.8c0 1.7 1.5 1.6 6-0.5a64.7 64.7 0 0 1 33.4-3.6 95.4 95.4 0 0 1 18.5 6.6c0.4 0 0.5 0.4 1.2 2.2 3.8 11 10 15.4 28.2 20a245.8 245.8 0 0 0 48 7.3c27.7 2.4 54.1 0.3 75-6 13.5-4.1 21.7-12 27.5-26.5 4-10 8.2-32 9.5-50.8l0.6-7.7c0.8-9.9 1.3-28.5 1-35.6-0.6-11.7-2.2-21.2-5.3-30.3-0.6-1.8-0.6-1.8 0.5-2.3l3.5-2.5c0.9-0.7 1-1 1-1.3v-0.6l-3.8 0.1h-3.7l-0.6-1.4 1.3-1a39.4 39.4 0 0 0 7.8-8.3c0.4-0.5 0.4-1.4 0-1.4l-1.9 1a22.8 22.8 0 0 1-10 2.5h-1.3l-0.7-1a86.2 86.2 0 0 0-19.6-20.9c-11.2-7.6-25.6-11.6-47.3-13.4-13.5-1.1-32.5 0.5-46.3 3.8a260.7 260.7 0 0 1-52.3 8c-12 0-31.8-9.6-46.2-22.1a386 386 0 0 0-2.6-2.3c-2-1.7-2-1.7-5.2-4.8l-6.7-7.1c-9.5-10.7-16.8-26.7-16.6-36.4v-2c-0.2-0.2-1.2-0.4-1.6-0.3m1.1 12c4.8 18 17.8 34.2 40 50a95 95 0 0 0 25.7 13c7 2.2 9.6 2.4 19.6 1.7 14.2-1 23.7-2.5 39.5-6.2 24.3-5.6 38-6.6 59.2-4.5a81 81 0 0 1 40.6 14.2 90.4 90.4 0 0 1 16.1 17.6c0 0.5-3.1-0.8-8.4-3.3-7-3.3-10-3.9-15-2.9-11.3 2.3-18.7 12-19.8 26l-0.2 1.4-2.5-1.3a46.7 46.7 0 0 0-31-2.4c-4.2 1.2-4.3 1.3-4.8 7.3-1.6 17.6-3.8 23.8-10.5 31-3.8 4-11 7.1-21.5 9.3-4 0.8-4.5 1-4 2 0.2 0.6 0.5 0.6 5.2-0.3 3.6-0.7 9-2.3 12.3-3.6l1.1-0.5 0.2 2.3a30.2 30.2 0 0 0 15.7 25.9c9 4.6 24.3 0.5 33.7-9l2-2 1 1.1a35.6 35.6 0 0 1 7 18.5c0 3.4 2 2 4.7-3.2a90.2 90.2 0 0 0 6-14.8c2-6.8 2.5-10.2 2.5-19.3 0-8-0.5-14.2-1.1-16.4-0.1-0.3 0-0.3 0.8-0.2 11.8 2 22.6-9.6 23-24.9l0.2-3.6 1.5 0.2c2.6 0.2 6.4-0.5 8.6-1.6 1.3-0.7 1.2-0.7 1.8 1.2 2.4 7.2 4.2 16.3 4.8 24a348.6 348.6 0 0 1-1.3 48.1 219 219 0 0 1-8.6 48.4c-6.2 16.7-14.6 24.3-32 28.7-9.2 2.4-15.2 3.5-24 4.5a267.8 267.8 0 0 1-50.1-0.2c-17.9-1.4-32-3.8-48.3-8.4-19.4-5.5-24.8-15.5-23.3-43.6a181 181 0 0 0-0.4-29.4c-1-16.7-1.9-24.6-4-37.3-3.2-19.3-2.6-31.9 1.9-38.5 1-1.4 1-2.1 0.3-2.4-0.5-0.2-1 0-3.3 2.6a94.7 94.7 0 0 1-29.2 19 56.6 56.6 0 0 1-36.4 3.2c-2-0.4-1.8-0.5 2.4-0.7 8.5-0.4 13.4-1.5 20-4.3l6.1-2.6a64.4 64.4 0 0 0 20.6-13.4l2.9-2.9 3.2-1.6c6.1-3.2 11.7-7.1 11.7-8.4 0-1.4-1-1.2-2.8 0.4a62.8 62.8 0 0 1-27.3 12.3c-6 1.1-19-0.2-26.5-2.8a79.9 79.9 0 0 1-39.5-32.1c-1.6-2.8-1.5-2.8 1 0 7.1 8.2 16 15.5 23.3 19.2 13.7 7 37.6 8.9 53 4.3a114.6 114.6 0 0 0 28.8-14c2.3-1.3 2.5-1.5 2.5-2.2 0-1.2-0.6-1-3.2 0.4-10.4 6-27.2 1.5-45.4-12-16.8-12.6-25.6-29.6-27.4-52.9-0.4-4.9 0-13.4 0.5-11.4l0.8 3.2m101.5 32.2c-10.2 1.5-16.5 5.7-16.2 10.7 0.1 2.8 1.4 3.5 6.4 3.5 4.6 0 7.5-0.5 13.9-2.4a29.1 29.1 0 0 1 19.8-0.1c6 2 1.1-5-6-8.5-5-2.5-13.2-4-18-3.2m114.6 3.3c-6.3 0.8-14.8 4.4-15.5 6.4-0.6 1.7 0.3 2.6 1.8 2 4-1.7 11.9-0.6 22.4 2.9 9.8 3.3 15 3.6 16.3 0.9 1.2-2.3 0.5-5.1-1.6-7-4.7-4-15.3-6.4-23.4-5.2m-104 40.4c-7 1-12.3 3.4-18.1 8.3-5.6 4.6-9.1 5.5-15.3 3.6-3.6-1-3.3-1-3.3-0.5 0 1.4 6 6.2 10.1 8.2l1.4 0.8c0 0.6-7.5 0.4-11-0.3-3.2-0.6-3.5-0.2-1.2 1.7 4 3.5 10.4 6.4 16.4 7.4l2 0.3 0.2 2c0.4 3.6 1.3 7 2.6 10 0.7 1.5 0.7 1.5-1.5 1.7-2 0.3-2.6 0.6-2.6 1.3 0 1 0.3 1 3.6 0.5 8-1.1 14.7-1 22.2 0.6 4.6 1 7.4 2.1 13.2 5.3 3 1.7 3.8 1.8 3.8 0.8 0-0.2 0.5-1 1-1.7 11.7-13.4 8.3-35.7-7-46-4.9-3.3-11-4.8-16.6-4m9.8 3.5c14.6 3.7 23 22.4 16.9 37.9-1.2 3-3.3 6.3-5 8l-0.7 0.5-2.3-1.2a39 39 0 0 0-14.1-5.2 70.4 70.4 0 0 0-16.3-1l-1.8 0.2-0.7-1.7c-8.7-20.5 5.2-42.3 24-37.5m99 3.3c13.8 3 19.4 24.4 10 38.5-4.2 6.4-11 9.7-17 8.2l-1-0.3-0.8-2.5a41 41 0 0 0-10.9-16.7l-1.7-1.6v-2.5c0.7-14.4 10.8-25.3 21.3-23m-37.9 21.3a30 30 0 0 1 23 14.2c5 7.6 6.4 12.8 6.8 25.3 0.6 14.5-1 22.8-6.1 33.3l-2.1 4.4c0 0.2-1.1 1.9-1.2 1.7l-0.2-1.1c-0.4-2.4-2-7.7-3.3-10.1-4.7-9.4-9.8-12-26.3-13.2a26.2 26.2 0 0 1-21.6-14.5c-0.9-1.8-0.9-2 0.4-3.6 4.9-6 6.8-11.8 8.2-24.3l1-8.8c0-2.5 12.5-4.4 21.2-3.2m-32.5 40.7a28 28 0 0 0 22.6 15.7c9.4 0.8 13.5 1.6 17.1 3.3 2 1 1.9 0.8 0.4 2.4-6.5 7.1-20.5 12.2-28.2 10.2-10-2.6-18-14.2-18.1-26v-2.5l1.3-1 2.7-2c1.7-1.4 1.5-1.4 2.2-0.1m-108.3 23.4c5 3.5 13 16 20 30.7a26 26 0 0 0 2.4 4.5l0.4 0.4-0.2 4c-0.3 6 0 12.4 0.8 16.9 0.4 2.2 0.6 2.1-3 0.6a58.4 58.4 0 0 0-27-5.6 60.9 60.9 0 0 0-24.4 5.3c-0.3 0 4.5-6.4 7.9-10.5l2-2.5 2.5-0.1c12.7-0.6 27.3 2 32 5.5 1.5 1.3 2.8 0.2 1.5-1.2-0.8-1-6.2-5.2-8-6.4-9.4-6-27.6-9-44.8-7l-1 0.2 0.7-1.3a50.3 50.3 0 0 1 14.6-15c1.1-0.7 2.4-1.7 2.8-2.1 1-1 0.6-1 4.1 0.4 4.6 1.9 5.7 2.4 11.5 5.5 10.4 5.6 12.9 7 16 9.5 4.2 3.4 5.8 5 8.2 8.9 1.2 1.7 1.7 2 2.3 1.4 0.4-0.5 0.2-1.2-1.4-3.6a78.8 78.8 0 0 0-15.9-17.1c-6.4-5.7-6.9-6.1-13.3-12.5l-5.5-5.4 0.8-0.2c2.1-0.5 3.7-1 6.2-2 4.7-1.9 6.6-2.2 7.8-1.3" fill="#060605"/><path d="m61 47.1a27.2 27.2 0 0 0-3.8 16.4c0.2 1.4 0.3 1.5 1.4 2.7a93.1 93.1 0 0 0 26 17.4c7.2 2.8 13.3 4.2 17.1 4 5-0.4 6.8-0.9 10.3-2.8 2.3-1.4 3.2-1.4 3.2 0 0 0.6-0.5 1-3.4 2.5l-4.1 2.5a93.3 93.3 0 0 1-30.5 12.6c-5 0.9-6 1-12.8 1-7 0-8.8-0.2-14.3-1-2-0.4-3.2-0.5-3.3-0.3-1 1 0.5 7.2 2 8 1.8 1 12.3 2.3 17.7 2.3a51.4 51.4 0 0 0 22.8-6l6.8-3.8c1.3-0.9 3.7-2.8 4.3-3.5 1-1.1 2.5-0.7 2.2 0.7-0.4 1.5-7.6 6.3-13.5 9-1.1 0.6-1.8 1.1-2.7 2a44.7 44.7 0 0 1-9.2 8 75.8 75.8 0 0 1-13.7 7.4c-0.4 0.3 1 3.4 1.8 4.3 1.5 1.5 2 1.5 6.4-0.4 10.3-4.2 24-12.9 29-18.6 2.9-3.1 3.4-3.5 4.2-2.8 0.5 0.5 0.5 0.8-0.4 2-4.7 6.9-5.3 18.9-1.9 39.8 3.5 21.2 5.3 48.1 4.3 65.1-1.4 25.6 2.5 35.5 16.6 41.8 3.1 1.4 7 2.5 15.8 4.6 5.5 1.4 5.3 1.3 5.5 0.8 0.4-1.2 7.6-7.8 12.7-11.6a134.5 134.5 0 0 1 52.3-22.2c19.8-4 31.1-2 35 6.3a41.5 41.5 0 0 1-1.6 28c-0.8 2.2-1 2.8-0.7 2.7l1.5-0.3c7.8-1.5 16-4 20.1-6 12-6 19.3-17.3 23.5-36.4a241.2 241.2 0 0 0 5.8-43.7c1-12.5 1.4-34 0.6-42-0.7-7.6-2.3-15.8-4.3-22-1-2.6-0.7-2.5-2.7-1.7-2.1 1-4.3 1.3-7 1.3h-2.3v2.3c0 15-10.5 27.5-22.3 26.1-2-0.2-1.8-0.4-1.3 2.1l0.5 4.7c0.1 2.1 0.2 2.5 0.4 2.4l2-0.8c2.3-0.9 7-1 9.3 0 8 2.8 13 11.2 12.7 21.3-0.6 17-16.7 25.8-27.7 15l-1.4-1.5-2 4c-2.2 4.7-4.2 8-5 8.3-0.3 0.2-1.3 0-1.3-0.4l-0.1-1.2a37.3 37.3 0 0 0-7-18.5l-1-1-2 1.8c-7.3 7.6-20.8 12.5-29.1 10.7-11.2-2.5-20.6-15.6-20.6-28.8v-1l-0.7 0.3c-2.5 1-9.5 3.2-11.7 3.6-1.6 0.2-1.6 0.3-1.3 1.5 2.5 8.6-3 19.3-12.5 24-19 9.7-41-5.2-35.1-23.7 6.2-19.4 36.2-22.8 45.8-5l0.8 1.4c0.1 0.2 5.7-1.3 10-2.7 14-4.7 19.5-13.3 21.6-33.4a202.7 202.7 0 0 1 0.7-7c0-2.3 0.9-3.3 4-4.4a46.3 46.3 0 0 1 34 3.5c0.2 0 0.3-1 0.3-2.2 1-17.9 17.3-30.2 31.6-23.7l5 2.3a34 34 0 0 0 6.4 2.5c0.3-0.2-4.3-6-7.3-9.3-12.3-13.6-27-20-51-22.5-18.4-1.8-33.6-0.7-53 3.7l-3.4 0.7-9.3 2.2a223.5 223.5 0 0 1-39.7 4.7 42 42 0 0 1-12.1-2.5 88.2 88.2 0 0 1-18.4-8.4c-7-4.3-17-11.9-22.6-17.4-2.6-2.6-2.4-2.5-3-1.8m99.8 41c7 1.5 14.8 8 18.6 15.5 5.8 11.4 4.6 25-3.1 34.2-0.7 0.8-1.2 1.6-1.2 1.8 0 0.3-0.3 0.6-0.8 0.8-0.4 0.1-0.2 0.2-4.2-2-3.7-2-5.2-2.7-7.5-3.5a61 61 0 0 0-27.2-1.8c-2.7 0.4-3 0.4-3.5-0.4-0.4-0.8 0.5-1.3 2.8-1.7 1.4-0.2 2-0.4 2-0.5-1.2-1.4-3-7.8-3.3-11.7l-0.2-1.2-2.3-0.5c-6-1-12.6-4.2-16.2-7.6-2.1-2-1.8-2.3 1.6-1.6 1.9 0.5 9.5 0.8 10.3 0.5 0.2 0-0.2-0.4-1.5-1.1-3.7-2-6.1-3.8-7.8-5.6-2.2-2.5-2.3-3.2-0.5-2.6 8 2.6 11.5 2 17.1-2.8a38 38 0 0 1 6.2-4.3c3.2-2 7-3.4 12.2-4.2 1.3-0.2 7 0 8.5 0.4m-72 106c-3.8 2-6.4 3.6-6.3 4l3.5 3.2c11.6 10.2 19.2 19.5 17.4 21.2-0.6 0.5-1.3 0.2-2-1.1a39.7 39.7 0 0 0-15.8-14 226 226 0 0 0-10.7-5.7 24.4 24.4 0 0 0-7.1 11.5l-0.5 1.5 1 0.2c5.8 0.7 13.4 3 18 5.3 4.3 2.2 11.4 7.8 11.4 9 0 1.3-1 1.3-2.7 0.1-4.2-2.8-18.2-6-19.4-4.5-1 1.3-2.3 4.7-2.3 6.3v0.4h4.2c5 0 8.3 0.3 11.7 1a107.4 107.4 0 0 1 15.6 5.7l0.9 0.4-0.2-0.8c-0.9-4-1.3-10.4-1-16.9l0.2-5-0.5-0.5c-0.3-0.3-1.4-2.4-2.4-4.6-3-6.7-5.6-11.6-8.8-16.8-1-1.6-1-1.6-4.1 0m86.2 73.8h0.7-0.7m5.1 0.4h0.7-0.7m2.3 0.2h0.7-0.7m4.5 0.4h0.7-0.7m35.2 0h0.7-0.7m-32.2 0.2h1-1m29.2 0h0.8-0.8m-24.6 0.2h1.5-1.5m20.2 0h1.4-1.4" fill="#fbfb8b"/><path d="m62.6 47.6 1 1-0.8-1-1.1-1 0.9 1m206.7 36.6 0.6 0.6 0.7 0.6-0.6-0.7c-0.5-0.6-0.7-0.7-0.7-0.5m2.7 2.7 0.7 0.6 0.6 0.6-0.6-0.6c-0.5-0.6-0.7-0.8-0.7-0.6m-171.2 0.8h0.7-0.7m144.7 10.6-0.8 0.8 1-0.8 0.7-1-1 1m-85.2 3.2c-0.1 0.2-0.3 0.8-0.3 1.4-0.5 4.8-6.9 7.4-8 3.2-0.6-2.4-3.1 1-4 5.3-1.7 8.4 4.2 19 11.4 20.5l3.6 1c4.1 1.3 9.5-1.4 12-6 4.6-8.9-0.8-21.6-10.7-25-1.8-0.7-3.7-0.8-4-0.4m-98 1.9h1l-0.6-0.1h-0.6m4.6 0h0.9-0.9m187 1.6c-6.8 1.5-11.3 7-12.3 15.2l-0.2 1.6 1.5 1.5c3 3 8.8 11.8 8.8 13.4 0 0.3 1.1 0.3 2.7-0.2 8.7-2.4 15-12 14.2-21.6-0.2-2.9-0.7-3.4-2.2-2.5-1.1 0.7-2.2 1-3.2 0.7-2.7-0.7-2-4.1 0.9-4.1 2 0 1.6-1.3-0.8-3-1.7-1.2-6.4-1.7-9.4-1m-118.4 11.1v0.4-0.7 0.3m142.4 0.3v0.4-0.8 0.4m0 1.6v0.3-0.8 0.5m-177.4 10.8c0 1 0 1.3 0.1 0.8v-1.5 0.8m169 9.4-0.5 0.7 0.7-0.6c0.5-0.5 0.7-0.7 0.5-0.7l-0.6 0.6m25.1 6.4c0 0.4 0 0.6 0.1 0.4v-0.7 0.3m0 11.5v0.5-1.2 0.7m-0.2 6.9v0.3-0.6 0.3m-0.2 5.7v0.3-0.7 0.4m-61.2 9.3c-0.1 0.1-0.1 0.1 0 0 0.2 0 0.5 0 0.8 0.4l0.5 0.4-0.4-0.5c-0.5-0.6-0.7-0.7-1-0.3m-42.6 5c0.8 1 1 1 1 1l-1.9-1.9 0.9 1m-83.3 17.7v0.3-0.7 0.4m0 7v0.3-0.7 0.3m-2.6 13.1c0 0.4 0 0.5 0.1 0.4v-0.7 0.3m-8.3 6.7 1.2 1.2-0.5-0.6-0.7-0.6m-17 4.2h0.7l-0.4-0.1h-0.4m117 37.8h0.9l-0.4-0.1h-0.5m17.3 0h1-1" fill="#648c5c"/><path d="m39.1 9.6c-0.5 2.8 0 13.2 1 18.4 2.4 14.8 7.9 26.7 16.5 36.2l0.8 0.9-0.1-1a27.4 27.4 0 0 1 3.7-17.1l0.3-0.5-2.8-3a72.4 72.4 0 0 1-18.8-32.6l-0.5-2.3-0.2 1m-32.5 67.4a80.9 80.9 0 0 0 36.4 31.1 58 58 0 0 0 5.5 1.9l-0.5-1.2c-1.2-2-1.8-5.5-1.2-6.8 0.1-0.3-0.5-0.5-3.5-1.2-13.8-3.2-24.3-10.2-36.9-24.6l-0.7-0.9 0.9 1.7m206.3 38.8a29 29 0 0 0-9.8 2l-1.2 0.5-0.3 3.4c-2 18.4-3.4 23.4-8.8 30.3l-1.3 1.7 0.3 1c2.7 8 12 14.7 21.8 15.5 11.8 1.1 16 2.2 20.4 5.3 4 2.9 7.9 10.4 9.3 18l0.2 1.3 1.6-3.2c3.3-6.7 3.6-7.4 4.3-9.5a70 70 0 0 0 3.2-29 40 40 0 0 0-8.7-25.6c-6.4-8.5-17.5-12.7-31-11.7m-153.5 12.2a51.4 51.4 0 0 1-21.5 5c-3.2 0.1-3.3 0.2-0.3 0.8 10.1 2 20 1.5 28.6-1.5l1-0.4-0.9-0.6c-1.2-0.8-2-2-2.4-3.5-0.4-1.7-0.2-1.7-4.5 0.2m81.6 22.1c-20.3 3.3-28.5 25.4-14 37.6 14.6 12.2 39.6 3.2 41.6-15.1 0.3-3-0.3-7.8-1-7.7-3 0.9-4.4 0.8-4.4-0.2 0-0.8 0.5-1.1 2.3-1.4 1.7-0.3 1.7-0.3 0.9-1.9-4.6-8.3-15-13-25.4-11.3m118.2 1.4c-1 0.2-3.4 1-3.8 1.3l-0.5 0.3v7.6c0 9-0.2 10-1.8 16.6-0.6 2.3-2.1 7-2.9 9-0.2 0.6-0.2 0.6 1 2 8.5 8.5 21.5 5.3 26.2-6.6 4.8-11.9-0.4-26-11-29.7-1.4-0.5-6-0.8-7.2-0.5m-71.2 5.7-2.8 2-1 1v2a28.4 28.4 0 0 0 14.2 24.5c6.2 3.5 16.2 2.2 25.2-3.3 3.8-2.4 8.2-6 7.8-6.7-1-1.6-8.2-3.2-18-4a28.4 28.4 0 0 1-23.7-16.8l-1.7 1.3m-109.7 22.8-3.7 1.4c-2.6 1-5.5 2-6.5 2.1l-0.6 0.1 5.8 5.8 7.4 7.2 1.6 1.5 1-0.8c1.4-1.2 7.7-4.7 8.5-4.7 0.9 0-4.1-6.7-8.1-10.8l-2-2.1h-1l-2.4 0.4m-17 16.6-2.9 2.1a48.6 48.6 0 0 0-14.3 14.8l-0.7 1.3h0.6a108 108 0 0 1 19.5-0.4c4 0.3 3.8 0.4 4.3-1.4 1-3.6 2.6-6.3 5.5-9.7l1.6-2-2.6-1.2a89.7 89.7 0 0 0-10-4.2l-1 0.8m0.6 27.3-1 0.1-2.4 3c-4 5-7.2 9.4-7 9.4l2-0.7c4-2 8.3-3 15.7-3.8l4-0.4 0.2-1c0.2-1.7 1-4.2 1.7-5.3 0.7-1 0.7-1 0.4-1.1-0.6-0.2-12.4-0.4-13.6-0.2" fill="#fba36d"/></g><g fill="#fbfbdb" fill-rule="evenodd"><path transform="translate(-41.6,-46.4)" d="m330.5 311.3h-0.3l-0.1 0.2 0.3 0.4 0.5 0.2v-0.4s0-0.2-0.2-0.2z"/><path transform="translate(-41.6,-46.4)" d="m330.5 311.3 0.4 0.4v0.4l-0.5-0.2-0.3-0.4 0.1-0.2zm-7.7-3.7-0.6 0.2-0.2 0.1a1.4 1.4 0 0 0-0.3 0.8v0.2l0.7-0.5c0.4-0.3 0.6-0.6 0.6-0.7h-0.2z"/><path transform="translate(-41.6,-46.4)" d="m322.8 307.6 0.2 0.1c0 0.1-0.2 0.4-0.6 0.7l-0.6 0.5-0.1-0.2v-0.4l0.3-0.4 0.2-0.1zm-55.8-34.2a64.8 64.8 0 0 0-11.3 1.2 129.3 129.3 0 0 0-21.2 5.3 158.3 158.3 0 0 0-20.1 8.2 95 95 0 0 0-18.2 11.7 101.5 101.5 0 0 0-9 8.3l-0.7 1v0.2c0 0.1 0 0.2 0.2 0.3s0.7 0.3 1.5 0.4l3.3 0.7a204.9 204.9 0 0 0 25 3.4 4160.7 4160.7 0 0 1 16.3 1.2 240.6 240.6 0 0 0 47.5-2.1l2.1-0.4 0.7-0.2 0.5-0.2 0.3-0.4 0.3-0.6 0.7-1.8a18954 18954 0 0 1 2.2-7 38 38 0 0 0 1-9.8 49.8 49.8 0 0 0-0.9-9 11.9 11.9 0 0 0-6.3-7.9 16.2 16.2 0 0 0-4.3-1.6 25.5 25.5 0 0 0-5.4-0.8h-4.2z"/></g><g fill-rule="evenodd"><path transform="translate(-41.6,-46.4)" d="m300.6 141a14.3 14.3 0 0 0-9.7 3 18.5 18.5 0 0 0-3.7 3.6 23.6 23.6 0 0 0-3.6 6.5 28.5 28.5 0 0 0-2 9.7l-0.2 3 0.7 0.5 0.6 0.6 0.3-1.7a24.2 24.2 0 0 1 2.1-7 18.3 18.3 0 0 1 4-5 14.8 14.8 0 0 1 7-3.2 14.7 14.7 0 0 1 7.8 0.9 11.7 11.7 0 0 1 2.3 1.5l0.7 0.7 0.2 0.6v0.2l-0.3 0.2-1 0.2-1 0.1a3 3 0 0 0-0.8 0.4l-0.7 0.6a2 2 0 0 0-0.3 0.8v0.6l0.3 0.6 0.4 0.4 0.7 0.4a3.3 3.3 0 0 0 1.5 0.1 4 4 0 0 0 1.7-0.6l0.6-0.3 0.5-0.2h0.5l0.3 0.2 0.2 0.4 0.2 0.7 0.2 2a27.3 27.3 0 0 1-0.6 6.9 20 20 0 0 1-6.6 10.5 21 21 0 0 1-7.6 4.2 5 5 0 0 1-1 0.1h-0.4c-0.2 0.1-0.2 0.2-0.2 0.4v0.7l0.5 1.2 0.6 2 1.2 0.2a15 15 0 0 0 12-3.1 19.2 19.2 0 0 0 4.6-5 24.4 24.4 0 0 0 3.8-9 30 30 0 0 0-4.4-23.3 19.3 19.3 0 0 0-4.3-4 15.4 15.4 0 0 0-7.1-2.3zm-102.4-3.7a18.5 18.5 0 0 0-11.2 3.7 21.5 21.5 0 0 0-5.6 5.9 25.4 25.4 0 0 0-4.1 10.5 29.7 29.7 0 0 0 2.4 18l0.7 1.4 2.8-0.2a72 72 0 0 1 12.9 0.7l1.3 0.1h0.6l-0.2-0.2-0.7-0.5a15.5 15.5 0 0 1-3.8-3.7 19.5 19.5 0 0 1-3.3-6.4 21.4 21.4 0 0 1-0.9-7 16 16 0 0 1 1-4.7 11.2 11.2 0 0 1 1.6-2.6c0.2-0.3 0.5-0.4 0.7-0.5s0.4-0.2 0.6-0.1c0.2 0 0.3 0.1 0.5 0.3l0.2 0.6 0.1 0.7 0.6 0.5 1 0.4a5.7 5.7 0 0 0 2 0 4.3 4.3 0 0 0 2.4-1.3 5.2 5.2 0 0 0 1-1.7 7.5 7.5 0 0 0 0.6-2.2l0.1-0.6c0-0.2 0.2-0.3 0.3-0.4l0.3-0.3 0.5-0.2h0.5l0.8 0.1a14.7 14.7 0 0 1 4 1.5 17 17 0 0 1 5.2 4 19.7 19.7 0 0 1 5 11.9 17.6 17.6 0 0 1-0.7 6.1 13.7 13.7 0 0 1-3.1 5.2 11.3 11.3 0 0 1-3.5 2.4l-2 0.7-1.8 0.3h-0.1s0 0.2 0.2 0.2l1.8 1 4.2 2.3 1.7 1 0.9-1a23.8 23.8 0 0 0 5.6-10.6 29 29 0 0 0 0.6-12.3 31.9 31.9 0 0 0-5.9-14 26 26 0 0 0-8.5-7 21.2 21.2 0 0 0-9.4-2z" fill="#fff"/><path d="m38.9 18v0.6-1 0.5m18.5 24 0.6 0.7 0.7 0.6-0.6-0.7c-0.5-0.6-0.7-0.7-0.7-0.5m3.1 3.3 1.2 1-1-1-1.1-1 1 1m-53.2 32 0.6 0.6 0.7 0.6-0.6-0.6c-0.5-0.6-0.7-0.7-0.7-0.6m2.5 2.7 1 1-1-1-0.8-0.9 0.8 1m5 5 0.9 0.7-0.7-0.7c-0.4-0.5-0.8-0.8-0.9-0.8l0.7 0.8m-1.3 2 1.2 1-1-1c-0.5-0.6-1-1-1.1-1l1 1m4 4 1 1-0.9-1-1-1 0.8 1m22.6 41.4h0.7l-0.4-0.1h-0.3m-4.2 0.3h1.4c0.4 0 0.1-0.1-0.7-0.1h-0.7m10.4 2.2h0.9-0.9m5 0h1-0.9m201 17c0 0.4 0.1 0.5 0.1 0.3v-0.8 0.5m0.2 9v2a72.7 72.7 0 0 0 0-2m2 0v2a72.7 72.7 0 0 0 0-2m-59.2 3.4 0.8 0.7-0.6-0.7c-0.4-0.5-0.8-0.8-0.9-0.8l0.7 0.8m59 3.7v0.3-0.7 0.4m-171.6 13.3 1.2 1.1-1-1.1-1.3-1.2 1 1.2m-15.3 3 0.8 0.7-0.6-0.7-0.7-0.7 0.5 0.7m3.8 3.5 1.7 1.7-1.5-1.7-1.8-1.7s0.6 0.8 1.6 1.7m5.6 5.7 1.4 1.2-2.5-2.5 1.1 1.3m-16 3-0.5 0.7 0.7-0.6 0.6-0.6c0-0.2-0.2 0-0.7 0.5m18.7-0.5 1.2 1.2-0.6-0.7c-0.5-0.5-0.6-0.7-0.6-0.5m-30 9.7-1.6 1.6 1.8-1.4 1.6-1.7-1.6 1.6m9 8.4h1.3-1.3m-11.2 0.2h0.7-0.7m17.2 9.4h1.7-1.7m-3.8 0.2h0.8l-0.4-0.1h-0.4m10.9 0h1.3-1.2" fill="#9e6449"/><path transform="translate(-41.6,-46.4)" d="m254.1 315.7h-0.4 0.7c0.1 0 0.1 0 0 0zm-105.3-60.7-0.1 0.4v0.4-0.9zm-0.1-9.5v0.8-0.7 0zm187.1-32v0.8c0.1-0.3 0.1-0.6 0-0.8zm0.2-5.9v0.8c0.1-0.2 0.1-0.6 0-0.8zm0.3-7.9-0.1 0.6v0.6 0-1.2zm0-7.7c0-0.3-0.1-0.1-0.1 0.4v0.4-0.9zm-150.9-13.4h-0.4 0.7s0.1 0 0 0zm39.2-14.3-0.1 0.6v0.7-1.3zm56.8 0v1.6zm35.9-1.2v1.1-1zm-58.6-3.1c-1 0-1.5 0-1 0.1h2-1zm-62.1-5.7h-0.4c-0.1 0 0 0.1 0 0.1h0.8-0.4zm102.1-3.5c-0.7 0-1 0-0.7 0.1h1.4-0.7zm-85.4-7.6 1.5 1.5-0.6-0.8zm-14.6-6h-0.7 1.4zm-0.6-3.2h-0.6l0.1 0.1h1.2-0.7zm54.9-22.6h-0.5c0.3 0.1 0.6 0.1 0.8 0h-0.4z" fill="#9b9d64"/><path d="m213.8 115.9h0.9l-0.5-0.1h-0.4m5.5 0c0.2 0.1 0.6 0.1 0.8 0h-0.8m-8.3 0.3h0.6l-0.3-0.1h-0.3m-9.4 3.5v0.4c0.1-0.3 0.1-0.6 0-0.8v0.4m39 4.6 1 0.8-0.7-0.8-0.9-0.7 0.7 0.7m1 1 1.3 1.3-0.5-0.7c-0.6-0.5-0.7-0.7-0.7-0.5m-191.8 9.8h0.8-0.8m202.3 15.1v0.4-0.7 0.3m0.2 4.1v0.8-1.6 0.8m2.1 2.3c0 0.4 0 0.5 0.1 0.3v-0.8 0.5m-70.7 5.5c0 0.8 0 1.2 0.1 0.8v-1.5 0.7m13 0.9c0.7 0.8 1 1 1 0.8l-2-1.8 1 1m55.5 3.6v0.6-1.1 0.5m-40.3 3.9h0.7l-0.3-0.1h-0.4m2.4 0.3h0.7l-0.4-0.1h-0.3m-2.6 2h0.7-0.7m2.6 0.2h0.7-0.7m20.6 4.2c0.8 0.9 1 1 1 0.9l-1-1-0.9-0.8 1 1m-5.7 1.7-0.7 0.8 0.8-0.8c0.8-0.7 1-0.9 0.8-0.9l-0.9 0.9m-37.6 3.2 1.4 1.4-1.2-1.4-1.5-1.3 1.3 1.3m13.7 6.8h1.3-1.3m-135 35.4h0.6l-0.3-0.1h-0.4" fill="#c1813a"/><path d="m65.2 50.2 0.8 0.7-0.6-0.7-0.8-0.7 0.6 0.7m137.8 14.9h2.1-2.1m5 0h1.9-2m-9.7 0.2h0.8l-0.4-0.1h-0.4m15.6 0h0.9-0.9m-18.8 0.3h0.8l-0.4-0.1h-0.4m-67.8 11.2h0.7-0.7m-8.7 0.6h0.9-0.9m149.4 5.8 0.7 0.6 0.6 0.6-0.6-0.6c-0.5-0.6-0.7-0.8-0.7-0.6m-114.6 4.8h1.5l-0.7-0.1h-0.8m20.4 8.3c0.7 0.8 1.4 1.4 1.5 1.4l-1.3-1.4-1.5-1.4 1.3 1.4m-114.2 7.4h0.9l-0.5-0.1h-0.4m9.6 0h0.7-0.7m51.2 5.3h0.7-0.7m3.3 0h1.3-1.3m-36.7 1.6-0.7 0.7 0.7-0.6 0.8-0.8c0-0.1-0.2 0-0.8 0.7m-25 2.2h0.7c0.2-0.1 0-0.1-0.4-0.1h-0.4m3.8 0.3h1.9l-1-0.1h-0.9m81.9 2v0.6-1 0.5m66.2-0.9h1-1m5.7 0h1-1m-8.3 0.2h0.7-0.7m68.5 1.4h1.3-1.3m-99 1.4c0 0.4 0.1 0.5 0.2 0.4v-0.7l-0.1 0.3m2.1 0.1c0 0.4 0 0.6 0.1 0.3v-0.7 0.4m-49.7 1.4c0 0.4 0 0.6 0.1 0.3v-0.8 0.5m66.1 1.1c0 0.6 0 0.8 0.1 0.5v-1 0.5m-23 0.5c0 0.5 0.1 0.7 0.2 0.5v-0.9l-0.1 0.4m4 0.5c0 0.5 0.1 0.6 0.2 0.4v-0.8l-0.1 0.4m2.1 0c0 0.5 0 0.6 0.1 0.4v-0.8 0.4m-82.5 5.5c0 0.5 0 0.7 0.1 0.4v-1 0.6m0 6.7v0.7-1.3 0.6m44.2-0.2h1l-0.5-0.1h-0.5m-3.9 0.3h0.7l-0.3-0.1h-0.4m7.7 0h0.6-0.6m-47.9 4c0 0.4 0 0.5 0.1 0.3v-0.8c0-0.2-0.1 0 0 0.4m193.5 3v0.4-0.7 0.4m-37.5 2.2h0.6-0.6m37.7 1v0.4-1 0.6m0.2 7.2v1.5a44.6 44.6 0 0 0 0-1.5m-40 0.3v0.4-0.7 0.3m39.8 9.4v0.7-1.4 0.7m-112.5 2.5v0.7-1.4 0.7m112.3 3.5v0.7-1.4 0.7m-0.2 5.4v0.6-1.2 0.6m-188.5 3.1v0.4-0.7 0.3m188.3 0.7v0.4c0.1-0.3 0.1-0.6 0-0.8v0.4m-188 4.2c0 0.4 0.1 0.5 0.2 0.4v-0.7l-0.1 0.3m0.2 2.7v0.4-0.7 0.3m0.2 3v0.4c0.1-0.2 0.1-0.6 0-0.8v0.5m186.7 0v0.4-0.7 0.4m-186.5 3v0.3-0.7 0.4m186.3-0.1v0.3-0.6 0.3m-0.2 2.5v0.4-0.7 0.3m-186 1c0 0.4 0.1 0.5 0.1 0.3 0.1-0.3 0-0.6 0-0.8v0.4m99.4-0.3h1c0.3 0 0.1-0.1-0.5-0.1h-0.5m-99.2 3.7v0.4-0.8 0.4m134.5 2.7c0 0.4 0 0.5 0.1 0.3v-0.7 0.4m-134.4 1v0.4-0.9 0.5m-13.3 10.5 1.9 1.8-1.7-1.8-1.8-1.8 1.6 1.8m13.3 2v0.6-1.2 0.7m-0.2 4v0.5-1 0.6m-2.4 3.7c0 0.5 0 0.7 0.1 0.4v-1 0.6m2 0c0 0.5 0.1 0.7 0.2 0.4v-1c-0.1-0.2-0.1 0-0.1 0.6m-0.2 6.7v1.7a54.1 54.1 0 0 0 0-1.7m-2.2 0.1c0 1.8 0 2.6 0.1 1.7a51 51 0 0 0 0-1.7m0.1 5.8c0 0.3 0 0.5 0.1 0.3v-0.7 0.4m-23.2 0.5h0.8-0.8m192 21.4-1.3 1.5 2.9-2.9-1.6 1.4m-80.6 16h0.7-0.7m6.1 0.3h1.2-1.2m11 0h1.3-1.2" fill="#bcbc64"/></g><path transform="translate(-41.6,-46.4)" d="m259.4 162.2-5 0.1a29 29 0 0 0-9.8 2l-1.2 0.5-0.3 3.4c-1.9 18.3-3.4 23.4-8.8 30.3l-1.3 1.7 0.3 0.9c2.8 8 12 14.7 21.9 15.6 11.7 1 16 2.2 20.3 5.3 4 2.9 8 10.3 9.3 18l0.3 1.3 1.6-3.2a70 70 0 0 0 7.5-38.5 40 40 0 0 0-8.7-25.7c-5.6-7.4-14.8-11.5-26.1-11.7zm-28.2 40a71 71 0 0 0-4.5 3.3l-1 0.9v2a28.4 28.4 0 0 0 14.3 24.6c6.2 3.5 16.3 2.2 25.2-3.4 3.8-2.3 8.2-6 7.8-6.6-1-1.6-8.2-3.2-18-4a28.4 28.4 0 0 1-23.7-16.8z" fill="#ffab4d"/></g></svg>
