<?xml version="1.0" encoding="UTF-8"?>
<!-- Created with Vectornator (http://vectornator.io/) -->
<svg clip-rule="evenodd" stroke-linecap="round" stroke-linejoin="round" stroke-miterlimit="10" version="1.1" viewBox="0 0 2048 2048" xml:space="preserve" xmlns="http://www.w3.org/2000/svg" xmlns:xlink="http://www.w3.org/1999/xlink">

<clipPath id="ArtboardFrame">
<rect width="2048" height="2048"/>
</clipPath>

<g transform="matrix(4.1497 0 0 4.1497 206.85 633.49)" fill-rule="evenodd"><path d="m286 148.1-6 3.7c-4.2 2.5-3.8 2-2.8 3.6 6.7 10-2 24.1-12.9 20.7a134.5 134.5 0 0 1 12.4 10.7c1.9 1.7 1.6 1.7 4.5-0.4 11.2-8.5 14.7-23.2 9-37.8-1-2.7-0.6-2.7-4.2-0.5m-119 6.2c-5.6 14.3-0.3 34.8 10.5 40.3 3.7 2 25.5-5.6 39.7-13.6 7.9-4.5 15.8-10.6 15.8-12.1 0-0.2-24-6.2-24.1-6 0 0 0 0.6 0.4 1.3 4 11-7.5 21.9-18 16.9-8.2-4-9.4-16.2-2.1-22.1 0.8-0.7 1-0.9 0.7-1l-22-5.4c-0.2 0-0.5 0.8-0.9 1.7m87.4 13c-2.9 1.8-3 1.4 1 3.6 4.3 2.4 4.2 2.3 3.3 1.3-1-1.1-2-3.3-2.3-4.8l-0.3-1.1-1.7 1m-17.2 4c-4.2 7.2-24 18.8-42.9 25l-4.3 1.4c-1 0.2-1.2 0.2 6.2 2.3 5.2 1.5 10.4 2.3 23.8 3.5a673.8 673.8 0 0 1 13.6 1.3c7.9 0.7 15.2 1.6 24.4 3.2 8 1.4 10 1.7 24.4 3.4 11.2 1.4 11 1.7 5.1-6a79 79 0 0 0-7-8.3c-3.5-3.6-9.8-9.5-12-11.3l-3.9-3.1c-3.8-3-6.6-5-11.3-7.8-5.3-3.2-5.7-3.4-7-3.2-0.7 0-1.7 0-4.5-0.8l-3.7-0.9-1 1.3m-53.4 31c1.7 3.5 4.8 9.4 7.4 14 24 42.3 49.6 59.9 64 43.8l1-1-2.6-0.7c-20-5.2-50.4-29.5-65.4-52.3-1.6-2.4-2-3-2.3-4 0-0.2-0.6-0.5-1.2-0.7l-1.4-0.5 0.5 1.5m77.4 21.6a61 61 0 0 0 1.2 29.8c1.3 3.8 1.4 3.2-1.2 6.6-16.3 21.4-43.8 8.5-68.6-32.2-0.7-1.2-1.3-2.1-1.5-2.1-1.2 0-6.6 1.8-12.3 4.2-4.6 2-19.4 11.3-24.7 15.6a63.5 63.5 0 0 0-21.9 29.2c-4.7 11.4-5.4 27.6-1.3 30.2 6.7 4.2 29.3 10.8 44.1 12.9 6 0.8 33.5 0.6 41-0.4a174.7 174.7 0 0 0 35-6.7 183.4 183.4 0 0 0 19.9-6.5c9.2-3.5 18.4-8.2 27.5-14.2l2.7-1.8 0.9-1.9c4.6-10.7 4.9-17.7 1.3-28.6-4.4-13.2-20-26.6-40-34.6-1.8-0.7-1.8-0.7-2 0.5" fill="#ead59f"/><path transform="translate(-19.8,-38.4)" d="m299.3 201.6v0.4-0.9 0.5m-48.5 8-0.8 1 1-1c0.5-0.4 0.8-0.8 0.7-0.8l-1 0.9m2 4.6-0.6 0.6 0.6-0.5 0.6-0.7-0.7 0.6m51.3 7.9-0.8 0.8 1-0.8 0.8-1-1 1m-14.6 2.7 1.2 1.2-0.5-0.7c-0.6-0.6-0.7-0.7-0.7-0.5m-56.9 2-0.5 0.4 1.3-0.6c0-0.2 0-0.2-0.8 0.3m59.4 0.2 0.8 0.7-0.6-0.7-0.8-0.6 0.6 0.6m2.5 2.3 1 1-1-1-0.8-0.9 0.8 1m-101.1 0.3c0.8 0.9 1 1 1 0.9l-1-1-1-0.8 1 1m105.5 3.8 1.3 1.2-1-1.2-1.3-1.2 1 1.2m3.3 3.4 0.7 0.7-0.6-0.7-0.7-0.7 0.6 0.7m-90.5 6c0.3 0.4 2.7 4 3.9 5.5 1 1.3 1.1 1.9 1.5 1.7 1-0.3 7-1.3 10-1 17.5 1 29 11.7 29 26.5 0 3-0.9 5.3-0.4 6.5l-0.1 1.8 1.5 0.9a67.8 67.8 0 0 0 18.3 7.9c1.9 0.4 2.6-0.3 2-2a66.4 66.4 0 0 1 2.6-38l1.4-2.1-1.8-0.7c-4.2-1-19.1-2.8-27.8-3.5-23.6-2-30.6-2.9-37.4-4.9-0.9-0.2-2.8 0.3-2.7 0.5m5.9 14.6 0.6 0.6 0.7 0.6-0.6-0.6c-0.6-0.6-0.7-0.8-0.7-0.6m2.2 2.5 0.9 0.8-0.7-0.8-0.8-0.8 0.6 0.8m10.2 10.1 0.8 0.8-0.6-0.8-0.9-0.8 0.7 0.8m49.7 2c0 0.4 0 0.5 0.1 0.3v-0.7 0.4m0 8.3v0.3-0.8 0.5m-46.2 7.4 0.8 0.7-0.6-0.7-0.8-0.7 0.6 0.7m3 3c0.7 1 0.9 1.1 0.9 1l-1-1-0.9-0.8 1 0.9m-3.1 3.4c0.9 1 1.6 1.6 1.7 1.6l-1.5-1.6-1.7-1.5 1.5 1.5m5.6-1 0.6 0.6 0.6 0.5-0.5-0.6-0.7-0.6m36.4 5.5-0.6 0.6 0.6-0.5c0.6-0.6 0.8-0.7 0.6-0.7l-0.6 0.6m-14 11h1.5-1.4m-57.8 48h2.1-2.1m20.1 0h1.4-1.4" fill="#571d1d"/><path d="m117.3 80.5-0.6 0.8 1.4-1.4c0-0.2-0.1 0-0.8 0.6m-2 2-1 1.1 1-1c1-0.9 1.2-1 1-1l-1 1m-3 3-0.7 0.7 0.7-0.6 0.7-0.8-0.7 0.7m185.5 0.1 0.7 0.6 0.6 0.6-0.6-0.6c-0.5-0.6-0.7-0.7-0.7-0.6m-0.1 75.1v0.6-1 0.4m0 2.7v0.4-1 0.6m-10 23.4-0.8 0.9 1-0.9 0.7-0.9-1 1m-3 7.5 1.1 1.1-1-1c-0.5-0.7-1-1.1-1.1-1.1l1 1m-220.7 0.2v0.4c0.1-0.3 0.1-0.6 0-0.8v0.4m0 5.9v0.3-0.7 0.4m137.2 9.9c-4.1 0.3-4.6 0.5-2.4 3.1a163.8 163.8 0 0 0 36.1 31.6h1.3l0.3-0.6c0.5-1.2 0.8-3.7 0.8-6.8 0-16.7-16-28.7-36.1-27.3" fill="#903a38"/><path d="m156.2 5.1h1.5-1.5m-6.4 4.9c0 0.7 0 1 0.1 0.6v-1.4 0.8m26.8 1.1 0.6 0.4 0.6 0.2-0.6-0.4-0.6-0.2m21.6 15.4 1 1-0.8-1-1-1 0.8 1m2.1 2 1.2 1.2-0.5-0.6c-0.6-0.6-0.7-0.8-0.7-0.6m-36.4 2.7 0.7 0.7 0.6 0.5-0.6-0.6c-0.5-0.6-0.7-0.7-0.7-0.6m-36.9 2.2h1.1-1m13.3 0h1.3-1.3m-15.6 0.2h0.8-0.8m18.8 0h0.8-0.8m2.2 0.2h0.7-0.7m2 0.2h0.7-0.7m-37.9 3.1c-0.8 0.4-0.7 0.6 0 0.2 0.8-0.4 1-0.5 0.7-0.5l-0.7 0.3m106.1 14.3h0.7-0.7m7.2 0.8h1.6-1.6m3.8 0.2h0.6l-0.3-0.1h-0.3m2 0.3h0.6l-0.3-0.1h-0.4m-82.8 4.8h0.7l-0.4-0.1h-0.3m1.8 0.3h0.6l-0.3-0.1h-0.3m2.2 0.3h0.8l-0.4-0.1h-0.4m19.8 0h0.7-0.7m-17.3 0.3h1l-0.5-0.1h-0.5m14.8 0h1-1m-19.5 4.5h0.6-0.6m2 0.2h0.9-0.9m20.1 0h0.8-0.8m-17.3 0.2h1.1-1.1m14.7 0h1-1m-47.3 15.3-1.6 1.6 3.2-3.2-1.6 1.6m175.8 6.2 1.2 1.2-0.5-0.7c-0.6-0.6-0.7-0.7-0.7-0.5m4.2 4 1.4 1.4-1.2-1.4-1.5-1.4 1.3 1.4m-191.5 1.4-0.5 0.6 0.6-0.5c0.4-0.3 0.6-0.6 0.6-0.7l-0.7 0.6m-1.8 2-0.8 0.9 1-0.9 0.8-0.9-1 1m196-0.5 1.4 1.2-0.6-0.6c-0.5-0.6-0.7-0.8-0.7-0.6m-202 7.3-1 1.1 2.2-2.2-1.2 1m192.2 0.7-0.7 0.7 0.8-0.7c0.7-0.6 0.8-0.8 0.7-0.8l-0.8 0.8m-195 2.4-0.6 0.7 0.7-0.6 0.6-0.7c0-0.1-0.2 0-0.7 0.6m188.2 3.6-0.7 0.8 0.7-0.7c0.7-0.6 0.9-0.8 0.7-0.8l-0.7 0.7m-141 0.3c0 0.4 0 0.5 0.1 0.3v-0.7 0.4m137.5 2.8-0.6 0.6 0.6-0.6c0.6-0.5 0.7-0.7 0.6-0.7l-0.6 0.7m-1.8 1.5-0.6 0.7 0.7-0.6c0.6-0.5 0.7-0.7 0.5-0.7l-0.6 0.6m-1.8 1.6-0.5 0.6 1.2-1.2-0.7 0.6m-5 4.5-0.6 0.6 0.6-0.6c0.6-0.5 0.8-0.7 0.6-0.7l-0.6 0.7m-1.8 1.5-0.6 0.7 0.7-0.6c0.6-0.5 0.7-0.7 0.5-0.7l-0.6 0.6m47.8 0.5 0.7 1.3s0-0.3-0.3-0.7c-0.3-0.7-0.4-0.8-0.4-0.6m-56.2 7-0.6 0.6 0.7-0.6c0.6-0.5 0.7-0.7 0.5-0.7l-0.6 0.7m-5.3 4.7-0.5 0.6 0.6-0.6c0.6-0.5 0.7-0.7 0.6-0.7l-0.7 0.7m-1.7 1.5-0.6 0.6 0.6-0.5c0.6-0.6 0.8-0.7 0.6-0.7l-0.6 0.6m-1.8 1.6-0.6 0.6 0.7-0.6c0.6-0.5 0.7-0.7 0.6-0.7l-0.7 0.7m-1.7 1.5-0.6 0.7 0.6-0.6c0.6-0.5 0.8-0.7 0.6-0.7l-0.6 0.6m46 4.2c-8.2 5-7.8 4.2-7.5 4.6 0.7 0.7 3.3 8 4 11.2 3 14.6-4 30.7-15.4 37.1-0.3 0.2 0.6 2 2.2 3.6 2.3 2.4 4.7 4.8 6.5 7l1.4 1.7 2.1-2a47.6 47.6 0 0 0 13.6-62.3c-0.7-1.2-2.2-2.2-2.1-2.3 0.3-0.2-0.8-1.3-4.5 1m-55.1 4-0.6 0.7 0.6-0.6c0.6-0.5 0.8-0.7 0.6-0.7l-0.6 0.7m-102 5c-1 1.2-6.6 7-8 10.8a37.4 37.4 0 0 0 32.5 50.7c2.5 0.2 9.6-1.5 11.2-1.8l3.5-0.6-1.5-3.6-1.3-3.9-2-1.4c-13-7-18.7-27-12.7-44.3 0.4-1 2-4.6 0-2.8 2-2-19.9-6.3-20-6.3l-1.6 3.2m178.8 16.4c-13.1 3.6-5.2 49.2 8.4 49.2 5.8 0 10.4-9.1 10-20.7-0.5-16-9.4-30.3-16.8-28.4m-207.3 13c-12.9 2.6-19 31.4-8.4 42 7 7 20.8 1.1 24.2-11.5 3.7-13.5-1.7-32.1-10-32.5h-4.2c-0.3-0.1-1.1 1.9-1.6 2m224.6 2.9c0 0.4 0 0.5 0.1 0.3v-0.6 0.3m-276.2 0.3v0.3-0.7 0.4m22.7-1.5c-7 2.3-8.1 23-2 26.7 6.3 3.9 15.3-14.4 11.7-23.8-1-2.6-10.5-3.4-12.8-2.7m256.7 2.8c0 0.3 0 0.5 0.1 0.3v-0.7 0.4m-276.6 1.1v0.6-1.1 0.5m276.7 0.6c0 0.5 0 0.7 0.1 0.5v-1 0.5m0.1 3c0 0.9 0 1.2 0.1 0.8v-1.7 0.8m-277.2 0.6v0.8c0.1-0.5 0.1-1.2 0-1.6v0.8m-0.2 4.3v0.8c0.1-0.5 0.1-1.2 0-1.6v0.8m277.3 1.6c0 1.3 0 1.8 0.1 1.1a23.8 23.8 0 0 0 0-1.1m-277.6 5.3v1a24 24 0 0 0 0-1m277.3 4.6c0 0.3 0 0.5 0.1 0.3v-0.7 0.4m-277.2 1.7v0.5-1.1 0.6m0.2 3v0.3c0.1-0.3 0.1-0.6 0-0.8v0.4m203 7.7h0.6-0.7m20.1 2.5h0.7-0.7m2.8 0.2h1.4-1.4m-214.4 35.5c0 0.1 0 0.5 0.2 0.7l0.3 0.3-0.3-0.7-0.2-0.3m14.4 22.4 1.5 1.4-1.3-1.4-1.5-1.4 1.3 1.4m2.6 2.8 1.6 1.5 1.5 1.5-1.5-1.5c-1.3-1.5-1.6-1.6-1.6-1.5m219.3 0.8-0.6 0.6 0.6-0.6c0.6-0.5 0.8-0.7 0.6-0.7l-0.6 0.7m-2.9 3-0.7 0.8 1-0.9 0.7-0.8-1 0.8" fill="#b32b2b"/><path d="m153.8 5.5c-3 0.7-3.8 1.8-3.8 4.4 0 9.7 16.2 26 35.4 35.7 3.6 1.8 4 2 4.2 2.6 0.7 2-0.4 3.6-2.4 3.4a88.4 88.4 0 0 1-24.5-15c-1.6-1.4-1.7-1.4-2.2-1.2-0.7 0.4-1.1 0.3-5-0.3-20.5-3.5-42.1-1.7-47.8 3.9-1.6 1.7-1.4 3.2 0.8 5.4 10.6 10.6 50 17 71 11.7 3-0.8 3.2-0.8 4-0.3 1.6 1 1.6 3.3 0 4.1a82.4 82.4 0 0 1-29.3 3c-3.6-0.3-10.6-1-11.3-1.2-0.4-0.1-1.1 0.2-3.6 1.8l-3.1 2a64.4 64.4 0 0 0-11.1 8.2 205 205 0 0 0-24 25c-3.6 3.8-4.7 5-7.3 8.6-2.5 3.3-4.7 6.9-8.8 14a147.3 147.3 0 0 0-20.4 60.5 178.4 178.4 0 0 0 1.7 41.2c1.2 9.3 4 18.5 8 27l2.7 5.7c5.6 12.4 14.2 22.2 30.6 34.5a152 152 0 0 0 13.3 9c3 2 8.5 5.4 8.8 5.4 0 0 0-0.5-0.3-1-5-11 3.2-37.3 15.4-49.5a118.2 118.2 0 0 1 44-27.6l2-0.7-2.2-4c-2.7-4.5-5.5-9.7-7.2-13l-1.1-2.4-0.7 0.2c-1 0.3-9 0.4-11.5 0.2-25.8-2.7-39-23.5-30.7-48.3a51.7 51.7 0 0 1 5.7-11.5l7.7-3.6h-6c-3-0.6 0.1 2.8 1.9-8.6 2.5-16.6 1.7-23.6 1.8-24.7 0.2-1.7-1-4.4 0.1-4.9 1-0.3 0.2-1.6 1.9-0.8l3.2 1.3c1.1 0.5 5 3.2 9.7 5.3 4.7 2 10.7 6.5 14.7 8.3 4 1.7 10.3 5.8 13.6 7.3 3.4 1.5 9.8 2.2 13.8 4 11.5 5 22.7 10.2 29 13 3.2 1.5 7.6-0.2 8 0 0.5 0.2 1.8 2.6 2.3 2.1 0.4-0.3 0.9-3.4 1.6-4 0.8-0.7 5.8-4.8 10.8-9.2s11.7-9.3 14.8-12l17-15.5 2.5-2.5 2.4-2 1.5-1.5 1.5-1.4c1.6-1.4 1.4-2.2 2.6-1.5 0.6 0.3 1.6 3.3 10 16l4.8 7.7c4.4 6.8 3.8 5.4 3.8 6.3 0 1.3 1-0.2-6 4-3.6 2.2-6.3 3.5-6.7 3.8l-1 3.1 1.2 2.2c12.3 23.3 6.6 49.8-13.6 63l-0.5 0.4 1 2.2c4.3 5.8 4.6 7.2 1.7 10-2.2 2-1 1.5-18.2-0.7-6-0.8-11.9-0.4-12-0.3-0.4 0.2-2.5 5.7-3 8.1-0.2 0.7 0.5 0.8 2 1.4 3.6 1.2 13.3 6 16.5 8.2a58.4 58.4 0 0 1 23.8 26.3c3.6 11 3.4 17.9-1 28.2-1 2.4-1 2.4 0.1 1.5 5.2-4.2 11.5-7.4 15-11.9l2.7-3.5c1.4-1.9 4.7-6.9 5.4-8.6 0.2-0.4 1-3 2.3-5.6a179.1 179.1 0 0 0 14.4-49.7 174.2 174.2 0 0 0-15-78.2c-3.2-7.3-11.6-22-14.7-26.8a100 100 0 0 0-17.7-20l-2.6-2.3a137.1 137.1 0 0 0-53.5-26.9c-3-0.8-9.2-1.6-13.8-1.8-4.6-0.3-10.8-1.1-12-1.6-1.6-0.7-1.9-1.2-2.8-4-3.3-10.6-4-12.1-8.4-16.8-13.8-15-37.6-27-48-24.4m173.3 159.6c6.4 2 11.3 13.3 11.8 26.7 0.8 23.7-15 26.7-20.9 4-4.4-17.3 0.4-33.5 9.1-30.7m-207.5 11.6c3.7 0.1 7.8 4.5 9.8 10.4 5 15.3-3.4 34.9-14.4 33.2-13-2-15.7-30-4-40.9 2-1.8 5.2-3.2 6.8-2.9l1.8 0.2m-27 3c6.4 1.8 4.4 19.8-2.6 23-6.8 3.1-10.2-8.7-5.2-18.4 2-4 4.5-5.5 7.7-4.6m68.6 136.1 1.8 0.4c0.4 0-2.4-0.7-2.9-0.7l1.1 0.3" fill="#db2424"/><path d="m154.4 0.1c-8 0.9-11.4 6.9-8.8 14.9a32 32 0 0 0 4.8 9 21.4 21.4 0 0 1 1.8 2.2l1.2 1.4 1.3 1.6c0.7 0.7 0.7 0.7-1.4 0.4-25.8-3.8-48 0.2-51.4 9-1.3 3.6 0.7 8.1 4.9 11.2l1.1 1a76.2 76.2 0 0 0 25.8 9.6l1.1 0.3-1 0.6-1.6 1a19.5 19.5 0 0 0-3.1 2 4 4 0 0 0-0.7 0.4l-0.7 0.5-1.3 1a96.1 96.1 0 0 1-6.3 5.1 247.5 247.5 0 0 0-19.6 20.3l-0.7 1a46.1 46.1 0 0 1-5.6 6.1 41.9 41.9 0 0 0-2.7 3.3 81.1 81.1 0 0 0-9.1 13.7l-0.7 1.1c-0.3 0.4-4.8 8.8-6.6 12.5a154 154 0 0 0-14 39.4l-0.3 1.4-0.6-0.7a47.5 47.5 0 0 1-4.5-5.8 310.8 310.8 0 0 1-3.8-5.8 108.3 108.3 0 0 1-11.4-24.9l-1-2.8c-0.7-2.3-1.4-3.4-2.6-4-0.5-0.4-1.5-0.4-1.7-0.1l-0.4 0.2c-0.3 0-0.4 0-1.5 1a12.7 12.7 0 0 1-1.8 1.4 44.3 44.3 0 0 1-3.3 2.6 66.2 66.2 0 0 1-8.7 5.3c-3.4 1.7-3.7 3.2-1.1 6l1.7 1.8a175.7 175.7 0 0 0 21.9 21 71 71 0 0 0 1 1 237.9 237.9 0 0 1-27.6-16.8l-0.9-0.7c-2.3-1.8-4.3-2.3-5.3-1.3-0.7 0.7-3.9 7.2-4.9 10-3.3 9.4-4 13-4.3 20-0.2 8.4 1.3 11 5.7 9.2 2.7-1 4-1.5 8.5-2.7 5.2-1.4 20.1-4 18.4-3.2a122.8 122.8 0 0 0-11.8 6.7 125.6 125.6 0 0 1-4.4 3.2 29.3 29.3 0 0 0-4.2 3.7c-2.2 2-4.2 5-4.2 6.4 0 1.7 0.1 2 4.1 6a175.8 175.8 0 0 0 12 11c2.9 2.6 4.6 3.4 5.8 2.8a6.2 6.2 0 0 0 2.6-4.2 44.6 44.6 0 0 1 9.7-21.2c1.2-1.6 6-6.4 7.3-7.5 1.7-1.4 9.4-5.2 9.8-4.9l-0.1 5a142.1 142.1 0 0 0 1.7 33.9 93.4 93.4 0 0 0 8.4 29.4l2.8 6.2c1.4 3.1 3.2 6.6 4.4 8.4l1.2 1.9a24.6 24.6 0 0 0 1.6 2.2c0 0.1 0.1 0.4 0.4 0.6l1 1.4a32.2 32.2 0 0 1 1.8 2.2 222.4 222.4 0 0 0 15.2 15l0.9 0.8 1.5 1.1a115.8 115.8 0 0 0 4.1 3.2 165.6 165.6 0 0 0 15.6 10.6c9.2 6 16.7 9.2 34.6 14.8 4.4 1.3 15.2 3.3 21.4 3.9 4.4 0.4 31.5 0.3 36-0.1 5.5-0.5 20-2.5 24.8-3.4a242.1 242.1 0 0 0 38.3-11.5 184.6 184.6 0 0 0 23.1-11.8l2.6-1.6a49 49 0 0 0 9-7 110.3 110.3 0 0 0 12-13.4 46.8 46.8 0 0 0 3.7-6 27 27 0 0 0 1.8-2.9l2.2-4.2 2.3-4.5a111.3 111.3 0 0 0 6-14.2 133.4 133.4 0 0 0 9-56.6 156 156 0 0 0-10.8-47 310.2 310.2 0 0 0-20.2-40.7 243.2 243.2 0 0 1-5.4-7l-1-1a124.2 124.2 0 0 0-18.1-17l-3.3-2.4a39.8 39.8 0 0 0-3.3-2.2c0-0.1-0.2-0.3-0.5-0.4l-0.7-0.4-1.3-1-1.3-0.7a63.7 63.7 0 0 0-5.3-3.2 145 145 0 0 0-14.3-7.1 107.8 107.8 0 0 0-41-9.4 15 15 0 0 0-3-0.2c-1.1 0.2-1.8-0.4-2-1.7a57.5 57.5 0 0 0-8.2-16.7l-2-2.2-2.3-2.4a68 68 0 0 0-7.8-6.8l-2.6-2a98.7 98.7 0 0 0-10.8-6.8 50.2 50.2 0 0 0-27-7.8m5.1 5c12.8 1.6 32.5 13.4 43.5 26a29 29 0 0 1 6.4 13c1.8 5.8 1.9 5.9 3.9 6.5 1.4 0.5 8.2 1.3 13.3 1.7 29.9 1.9 67.4 23.6 85 49.2 4.2 6.2 13.6 24.8 17.9 35.4a148.1 148.1 0 0 1 11.9 64.9 139.4 139.4 0 0 1-8.1 38 110.7 110.7 0 0 1-8.6 21l-2.2 4.4a91.3 91.3 0 0 1-39.6 34.2 181.6 181.6 0 0 1-36.8 13.2c-7 2-11.6 2.8-26.9 4.9a128 128 0 0 1-23 1.3 124.5 124.5 0 0 1-51.3-7.6 89.7 89.7 0 0 1-23.3-11.3l-6-3.8a158.3 158.3 0 0 1-22.8-18.2c-9.8-9.9-12.2-13.6-20.4-31.9a122 122 0 0 1-8.1-38.5c-0.8-8-0.3-24.8 1.1-34.4 2-14.6 10.2-36 19.8-52.5 6.8-11.6 9.2-15 14.8-20.9a112 112 0 0 0 7-8.2 144.3 144.3 0 0 1 24-22.7c2-1.5 10.4-7 11-7.1 0.3 0 2.2 0 4.3 0.3 14 1.5 27.7 0.9 35.7-1.7 2.6-0.8 3.4-2.5 1.9-4-0.9-1-1.6-1-4.6-0.1-15 4-44 1.4-60.5-5.5-18.4-7.8-15.7-14.7 6.7-17.2 2.8-0.4 14.7-0.4 18.3 0 4.3 0.4 9 1 12 1.5 3.4 0.6 4 0.6 4.7 0.3 0.6-0.3 0.6-0.3 2.8 1.6 7 5.8 19 13.3 23.5 14.6 1.5 0.4 3-0.7 3-2.3 0-1.2-0.6-1.7-3.9-3.2-16.1-7.7-31.5-21.7-35.4-32.3-2.4-6.5 0.8-9.5 9-8.5m138.5 90.2c-0.4 0.2-4 3.3-8 6.9l-14.5 12.7a36869 36869 0 0 1-26.4 23.4l-5.8 5.2-1.9-0.8a3733.8 3733.8 0 0 1-22.8-10 3540.7 3540.7 0 0 0-33.7-15 4181.5 4181.5 0 0 0-31.4-13.8c-7-3-7.2-3-8 2.6a4412.8 4412.8 0 0 1-5.5 37.1c0 1 0.8 2.2 1.8 2.4l21.3 5.3-0.6 1.5c-6.5 16.8 0 39.1 13.3 46.1l1.3 0.7 2.4 5a266.4 266.4 0 0 0 13 23.3c27 43 54 54.5 70.2 30 0.5-0.8 0.4-1.2-0.3-3.4a60.5 60.5 0 0 1 0.4-37c1.2-3.2 1.5-3.7 2.4-3.5l21.9 2.7c5 0.6 6.7 0.3 8.5-1.8 2.7-3.2-0.3-8.8-10.7-20.1-3.3-3.6-3.2-3.1-1.4-4.4a36.5 36.5 0 0 0 10.4-45.3l-0.7-1.5 2-1.3 10.1-6 10.5-6.4c5.6-3.4 5.7-2.4-1.2-13l-5.4-8.2c-10-15.3-9.4-14.5-11.3-13.4m-7.9 52.3c6.5 15.5 2.6 30.8-10.2 39.8l-1.3 1-1.7-1.6-3.1-2.8c-1.3-1.2-8.4-7-9.8-8l-0.5-0.4 1.4 0.4c10.9 2.9 19.3-12.1 12-21l-0.7-1 0.4-0.3c1.4-1 12.5-7.6 12.7-7.6 0 0 0.5 0.7 0.8 1.5m-110.7 7.6 10.9 2.7-1.6 1.7c-10.6 10.7 0.6 27.7 13.8 21.2 6.3-3.1 9.3-11 6.6-17.2l-0.4-1c0.1-0.1 24.3 5.9 24.5 6 0.3 0.3-1.7 2.5-3.7 4.2a118 118 0 0 1-50 22l-1.4 0.2-1.5-1c-10.5-6.9-15-25.9-9.6-39.9 0.6-1.6 0.8-1.8 1.1-1.7l11.3 2.8m78 14.7 1.5 2 1 1.4-1-0.6c-4.8-2.6-7-3.9-6.9-4l2.2-1.4 2-1.2 0.5 1.5c0.2 0.9 0.6 2 0.8 2.3m-15.6 0.7c3.2 0.8 3.8 0.9 4.6 0.7 2.4-0.5 16.6 9 25.2 17 11.5 10.4 20.9 21.5 20 23.5l-0.4 0.7-1.2-0.1a2044.6 2044.6 0 0 1-28.4-3.7c-9.3-1.7-19.6-3.1-28.7-4-20.3-1.7-30.1-2.9-34.7-4l-9.5-2.9 2-0.6c18.7-5.2 43-19 46.6-26.6 0.5-1 0-1 4.5 0m-57.2 30.5c1.3 0.4 1.5 0.6 1.5 1 0 1.6 7.3 11.5 13.7 18.5 16.8 18.5 41 35.2 54.9 37.8 1.8 0.4 1.8 0.4 0.2 2-15.6 15.8-41.2-2.6-66-47.6-2-3.6-6.1-11.8-6.1-12.1 0-0.2 0.2-0.1 1.8 0.4m12.8 4.2c4.6 1.2 15 2.4 34.4 4 8.7 0.8 23.1 2.7 27.3 3.7l0.4 0.1-0.3 0.7a68.8 68.8 0 0 0-2.4 38.7c0.5 1.8 0.6 1.7-1.3 1.3a65.4 65.4 0 0 1-19.3-8.6 165 165 0 0 1-41.2-37.8l-2.1-3-0.4-0.5 1.3 0.4 3.6 1" fill="#090505"/><path d="m245.2 171.7h0.8-0.8m-10.8 2.9-1.1 1.2 1.2-1.2c1.1-1 1.3-1.3 1.2-1.3l-1.3 1.3m36.9 13.7 0.7 0.7-0.5-0.7-0.8-0.7 0.6 0.7m-57.5-0.2c-0.7 0.4-0.7 0.6 0 0.2l0.6-0.4-0.6 0.2m59 1.5 0.7 0.7 0.6 0.5-0.6-0.6c-0.5-0.6-0.7-0.7-0.7-0.6m4.4 4.3 1.9 1.7-1.7-1.7a25 25 0 0 0-1.8-1.8l1.6 1.8m3.1 3 1.3 1.3-1-1.2-1.3-1.2 1 1.2m1.9 2 0.6 0.6 0.7 0.6-0.6-0.6c-0.5-0.6-0.7-0.8-0.7-0.6m7 13.3c0.3 0.1 0.6 0.1 0.8 0h-0.7m-88.8 9.5 0.8 0.8-0.6-0.8-1-0.8 0.8 0.8m8.6 8.6c0.8 0.9 1 1 1 0.9l-0.9-1-1-0.8 1 1m1.7 1.5 0.6 0.6 0.7 0.6-0.6-0.6c-0.5-0.6-0.7-0.7-0.7-0.6m81.2 9.7 1.4 1.4-1.2-1.4-1.5-1.4s0.5 0.7 1.3 1.4m-144.9 10.1-1.3 1.4 1.5-1.4 1.4-1.5-1.6 1.5m73 3.5 0.8 0.7-0.5-0.7-0.8-0.7 0.6 0.7m34 5.6-0.5 0.6 0.6-0.5 0.6-0.7-0.6 0.6m-11.7 5.2h0.8l-0.5-0.1h-0.3m63 6v1-2 1m-177.7 21.8v0.9-2 1" fill="#d67568"/><path d="m188.2 159.8-0.6 0.8 0.7-0.7c0.7-0.6 0.8-0.8 0.7-0.8l-0.8 0.7m104.8 2.3v0.6-1.3 0.7m-33.2 72.3v0.3c0.1-0.2 0.1-0.6 0-0.8v0.5m0 5.6v0.4c0.1-0.3 0.1-0.6 0-0.8v0.4m-51.4 10 1.2 1.2-0.5-0.7c-0.6-0.5-0.7-0.7-0.7-0.5m2.6 2.8 1 1-0.8-1-1-1 0.8 1m52.1 4.1v0.4-0.7 0.3m-47.9 0.1 0.6 0.6 0.7 0.6-0.6-0.6c-0.5-0.6-0.7-0.7-0.7-0.6m42.7 7-1 1 1-1c1-0.8 1.1-1 1-1l-1 1" fill="#8c8c8c"/><path d="m289.6 239.2 0.7 0.7 0.6 0.5-0.6-0.6c-0.5-0.6-0.7-0.7-0.7-0.6m-145.2 15.3-1 1 1-1c1-0.9 1.2-1 1-1l-1 1m-16.5 41.7c0 0.4 0 0.5 0.1 0.3v-0.6 0.3" fill="#dc514c"/><path transform="translate(-19.8,-38.4)" d="m281.3 261.4s-0.2 0.1-0.2 0.3l-0.2 0.7a52.8 52.8 0 0 0-1.3 15.4 64.3 64.3 0 0 0 2.4 14.4l0.8 2.2 0.1 0.7a2 2 0 0 1-0.2 1.1c0 0.2-0.2 0.4-0.4 0.6l-1.4 2a34.4 34.4 0 0 1-6.6 6.4 23 23 0 0 1-7.5 3.3 20.9 20.9 0 0 1-8.3 0.2 27.1 27.1 0 0 1-8.7-2.7 42.6 42.6 0 0 1-9.2-5.7 69 69 0 0 1-9.4-8.5 112 112 0 0 1-14.2-18 189 189 0 0 1-6.2-9.3c-0.3 0-0.9 0-1.7 0.3a47.4 47.4 0 0 0-6.5 2.2 149 149 0 0 0-6.3 2.7 88.5 88.5 0 0 0-10 5.9 227.8 227.8 0 0 0-12.6 8.7 127.9 127.9 0 0 0-10.4 9.7 53.7 53.7 0 0 0-9.3 14.7 124 124 0 0 0-3.7 9.2 57.1 57.1 0 0 0-2.2 19.9 20 20 0 0 0 0.7 3l0.5 1.3 0.6 1 0.7 0.6 3.2 1.6a72.3 72.3 0 0 0 9.8 3.8 187.6 187.6 0 0 0 34.3 7.7l4.7 0.2a387.9 387.9 0 0 0 33-0.9 1137.5 1137.5 0 0 0 19.5-2.7 94.7 94.7 0 0 0 15.6-3.9 98.6 98.6 0 0 0 8-2.3 183.9 183.9 0 0 0 32.5-14.2l6.9-4.2 2.7-1.8 0.8-2a66.4 66.4 0 0 0 3.4-10.8 29.6 29.6 0 0 0-0.9-13.8 63.1 63.1 0 0 0-3.3-8.9 38.6 38.6 0 0 0-5-7.3 55.9 55.9 0 0 0-9.7-9.2 80.1 80.1 0 0 0-15.8-9.9 100 100 0 0 0-9-3.7z" fill="#e5c9af"/><path transform="translate(-19.8,-38.4)" d="m257.8 208.4-0.9 1.3a19.9 19.9 0 0 1-3.9 4.4 44.2 44.2 0 0 1-6.5 5 103.1 103.1 0 0 1-11.7 6.9 149.1 149.1 0 0 1-25 10l-0.6 0.2v0.1l0.5 0.2 6.2 1.9a57 57 0 0 0 8.9 1.8 172.7 172.7 0 0 0 15 1.7 672.8 672.8 0 0 1 13.5 1.3 261.6 261.6 0 0 1 24.4 3.2 295.5 295.5 0 0 0 24.4 3.4l6.4 0.7h1.8l0.5-0.1 0.3-0.2 0.2-0.3-0.1-0.5-0.7-1.2a116.9 116.9 0 0 0-10.3-12.7 218 218 0 0 0-12-11.4l-3.8-3a107.3 107.3 0 0 0-16.4-10.7l-1-0.4a3 3 0 0 0-0.9 0 45 45 0 0 1-4.6-0.8zm-54.8 31v0.3l0.5 1a202.3 202.3 0 0 0 7.3 14 242.1 242.1 0 0 0 13.6 21.1 149.4 149.4 0 0 0 13.4 15.6 77.1 77.1 0 0 0 10.7 8.4 41.6 41.6 0 0 0 8 3.7 23.5 23.5 0 0 0 5.6 0.8 17 17 0 0 0 6.8-1.4 16 16 0 0 0 4.6-3l1.4-1.5 0.9-1-2.5-0.6a47.6 47.6 0 0 1-8-2.8 80.5 80.5 0 0 1-13-7 135.2 135.2 0 0 1-18.1-13.5 171.1 171.1 0 0 1-23.4-24.7 101.3 101.3 0 0 1-5.6-8.7l-0.8-0.3a46 46 0 0 1-1.4-0.5z" fill="#ffe632"/><path transform="translate(-19.8,-38.4)" d="m308.9 184.9a1 1 0 0 0-0.5 0l-0.6 0.4-2 1.2-6 3.7-2.4 1.4-1 0.8-0.1 0.2v0.3l0.6 0.9a14 14 0 0 1-5.3 20.3 10.6 10.6 0 0 1-7.5 0.4l0.3 0.4 1.2 1a183.8 183.8 0 0 1 11 9.3l1 1 0.3 0.2h0.4l0.4-0.1 0.6-0.3 1.6-1.3a30 30 0 0 0 10.2-14.1 30.3 30.3 0 0 0 1.5-12.8 36 36 0 0 0-2.6-10.8l-0.6-1.5-0.2-0.4zm-121.3 6.1-0.3 0.5-0.5 1.1a30.2 30.2 0 0 0-2 8.6 39.4 39.4 0 0 0 1.9 17.7 36.6 36.6 0 0 0 5.1 9.6 20.7 20.7 0 0 0 3.5 3.3c0.6 0.5 1.3 0.9 2 1.2l0.9 0.3h1.3a17.3 17.3 0 0 0 3.5-0.5 62 62 0 0 0 10.2-2.9 149.6 149.6 0 0 0 29.5-14 89 89 0 0 0 8.7-6.7l1-1.2 0.3-0.8-12-3.1-12-2.9c-0.1 0 0 0.7 0.3 1.4a13.8 13.8 0 0 1 0.7 6 13.1 13.1 0 0 1-3 7 14.2 14.2 0 0 1-7.9 4.9 12.4 12.4 0 0 1-11.6-4 12.2 12.2 0 0 1-2.4-4.2 13.9 13.9 0 0 1 0.2-9.5 13.3 13.3 0 0 1 4.7-6.1v-0.2l-22-5.5zm88.3 13.7-1.7 1-1.6 1-0.4 0.3-0.1 0.3 0.2 0.3 0.6 0.4 2.3 1.3 3.6 1.9h0.1c0-0.2-0.2-0.4-0.5-0.7a14.3 14.3 0 0 1-2.3-4.7z" fill="#fff"/></g></svg>
