<?xml version="1.0" encoding="UTF-8" standalone="no"?>
<svg
   id="svg"
   version="1.1"
   width="400"
   height="400"
   viewBox="0 0 400 400"
   sodipodi:docname="image2vector.svg"
   xml:space="preserve"
   inkscape:version="1.3 (0e150ed, 2023-07-21)"
   xmlns:inkscape="http://www.inkscape.org/namespaces/inkscape"
   xmlns:sodipodi="http://sodipodi.sourceforge.net/DTD/sodipodi-0.dtd"
   xmlns="http://www.w3.org/2000/svg"
   xmlns:svg="http://www.w3.org/2000/svg"><defs
     id="defs1" /><sodipodi:namedview
     id="namedview1"
     pagecolor="#ffffff"
     bordercolor="#000000"
     borderopacity="0.25"
     inkscape:showpageshadow="2"
     inkscape:pageopacity="0.0"
     inkscape:pagecheckerboard="0"
     inkscape:deskcolor="#d1d1d1"
     inkscape:zoom="1.5537409"
     inkscape:cx="199.19666"
     inkscape:cy="174.73956"
     inkscape:window-width="1440"
     inkscape:window-height="900"
     inkscape:window-x="0"
     inkscape:window-y="0"
     inkscape:window-maximized="0"
     inkscape:current-layer="svg" /><g
     id="svgg"
     transform="translate(7.8408841,-16.988582)"><path
       id="path7"
       style="display:inline;fill:#ffe632;fill-opacity:1"
       d="m 185.41211,203.84766 c -0.42445,0 -0.76563,0.34117 -0.76563,0.76562 v 5.50391 c 0.89067,8.00266 4.13058,15.6023 9.28711,20.39258 3.172,2.94699 3.56154,3.06095 8.01953,2.37695 15.75399,-2.417 46.75777,-17.94388 50.75977,-25.42188 0.16608,-0.31039 -3.06998,-1.17146 -12.98633,-3.61718 h -10.35351 c 2.07442,8.17869 -4.18513,16.83489 -12.87696,16.85156 -9.09675,0.0169 -14.12655,-9.04305 -11.77929,-16.85156 z m 113.69922,0 c -0.81683,4.79477 -4.00192,9.15179 -8.83594,10.60937 -1.449,0.437 -4.7837,0.48589 -6.0957,0.0879 -0.284,-0.086 0.12737,0.33391 0.98437,1.00391 4.963,3.88099 8.71465,7.06641 11.55664,9.8164 1.555,1.504 1.37646,1.53025 4.18946,-0.59375 6.57985,-4.96744 10.60459,-12.70491 11.60546,-20.92382 z m -23.32617,0.85546 c -0.056,0.009 -0.91516,0.52172 -1.91016,1.13672 -0.995,0.615 -1.89309,1.20169 -1.99609,1.30469 -0.161,0.161 6.68414,4.18359 7.11914,4.18359 0.073,0 -0.17378,-0.36078 -0.55078,-0.80078 -0.878,-1.026 -1.97769,-3.27779 -2.30469,-4.71679 -0.14,-0.618 -0.30142,-1.11642 -0.35742,-1.10743 z m -17.91797,3.60352 c -0.135,-0.049 -0.50161,0.4095 -0.84961,1.0625 -4.106,7.70399 -30.97991,22.82736 -47.21289,26.56836 -1.277,0.294 -1.28655,0.28681 1.06445,1.00781 9.85799,3.024 12.07603,3.41046 28.29102,4.93946 2.90099,0.274 5.58103,0.54265 5.95703,0.59765 0.376,0.056 3.27631,0.32085 6.44531,0.58985 10.44199,0.88699 18.66182,1.9889 29.88281,4.0039 1.773,0.318 4.62866,0.75852 6.34766,0.97852 11.16099,1.424 20.24559,2.54139 21.55859,2.65039 l 1.53125,0.12695 0.30274,-0.60351 c 0.366,-0.735 0.005,-1.41666 -2.49414,-4.72266 -4.499,-5.95199 -7.84857,-9.74405 -12.47657,-14.12305 -9.51599,-9.00399 -14.86265,-13.20303 -23.18164,-18.20703 -5.26099,-3.164 -5.89889,-3.46394 -6.83789,-3.21094 -0.653,0.176 -6.45512,-0.9802 -8.32812,-1.6582 z m -55.08008,30.9707 c -0.0404,0.012 -0.0527,0.0393 -0.0527,0.0801 0,0.915 8.83814,17.01115 13.24414,24.11914 7.45099,12.01899 15.76974,22.55165 23.05273,29.18164 14.32599,13.04199 26.12002,15.25889 35.04102,6.58789 2.06399,-2.00599 2.05131,-1.86534 0.19531,-2.27734 -16.24499,-3.609 -42.21416,-22.36349 -58.99414,-42.60547 -4.446,-5.36299 -9.60938,-12.85441 -9.60938,-13.9414 0,-0.206 -0.43503,-0.44538 -1.33203,-0.73438 -1.05,-0.33825 -1.42361,-0.44625 -1.54492,-0.41016 z m 78.80469,22.16797 c -0.36939,-0.0439 -0.55518,0.032 -0.60742,0.20703 -2.354,7.882 -1.72833,23.34898 1.26367,31.29297 0.884,2.347 0.88481,2.95243 0.008,3.98242 -0.295,0.347 -1.13614,1.40843 -1.86914,2.35743 -12.58199,16.29598 -31.8248,12.23707 -52.17578,-11.00391 -5.208,-5.94799 -12.64287,-16.17308 -16.50586,-22.70508 -0.761,-1.287 -0.74847,-1.28375 -2.98047,-0.71875 -6.61526,1.67324 -15.53454,6.2216 -24.07813,11.73438 v 43.51172 c 0,0.42445 0.34118,0.76562 0.76563,0.76562 h 133.62695 c 0.42445,0 0.76563,-0.34117 0.76563,-0.76562 v -30.49414 c -0.0115,-0.018 -0.0217,-0.0407 -0.0332,-0.0586 -5.91699,-9.18899 -16.68074,-18.22947 -28.55273,-23.98047 -5.75849,-2.78999 -8.51878,-3.99337 -9.62695,-4.125 z" /><path
       id="path1"
       d="m 174.179,38.488 c -7.932,0.862 -11.465,6.761 -8.833,14.752 0.757,2.297 3.283,7.162 3.997,7.698 0.071,0.053 0.243,0.311 0.381,0.573 0.138,0.262 0.328,0.57 0.423,0.684 0.481,0.578 0.878,1.092 1.142,1.477 0.161,0.235 0.454,0.616 0.652,0.848 0.197,0.232 0.724,0.853 1.172,1.38 0.447,0.527 1.057,1.22 1.356,1.54 0.701,0.753 0.738,0.742 -1.425,0.426 -25.748,-3.76 -47.973,0.173 -51.348,9.087 -1.335,3.527 0.635,8.066 4.837,11.142 0.36,0.264 0.887,0.663 1.172,0.887 4.263,3.356 15.444,7.578 25.71,9.709 l 1.169,0.243 -0.941,0.635 c -0.517,0.349 -1.28,0.808 -1.695,1.019 -0.733,0.375 -2.03,1.185 -2.449,1.531 -0.114,0.095 -0.42,0.286 -0.679,0.424 -0.26,0.139 -0.573,0.349 -0.696,0.466 -0.124,0.118 -0.423,0.345 -0.667,0.507 -0.243,0.161 -0.847,0.623 -1.342,1.026 -2.35,1.914 -3.725,3.003 -4.131,3.271 -0.244,0.161 -0.727,0.556 -1.074,0.878 -0.346,0.323 -0.828,0.718 -1.071,0.879 -0.998,0.663 -12.133,11.605 -13.081,12.854 -0.269,0.354 -0.752,0.936 -1.074,1.294 -0.323,0.358 -0.938,1.063 -1.368,1.567 -0.429,0.504 -1.22,1.384 -1.757,1.956 -0.538,0.571 -1.171,1.29 -1.408,1.596 -0.237,0.307 -0.633,0.791 -0.879,1.076 -0.246,0.286 -0.58,0.711 -0.741,0.946 -0.326,0.474 -0.752,0.949 -3.484,3.88 -1.038,1.114 -1.975,2.126 -2.082,2.249 -1.29,1.476 -1.632,1.883 -2.051,2.438 -0.268,0.356 -0.582,0.749 -0.697,0.874 -0.282,0.307 -2.257,2.898 -2.623,3.442 -0.161,0.239 -0.444,0.613 -0.629,0.831 -0.185,0.217 -0.389,0.561 -0.453,0.763 -0.064,0.202 -0.188,0.367 -0.275,0.367 -0.087,0 -0.268,0.264 -0.401,0.586 -0.134,0.322 -0.314,0.586 -0.401,0.586 -0.087,0 -0.214,0.175 -0.282,0.389 -0.068,0.215 -0.24,0.506 -0.381,0.647 -0.142,0.142 -0.448,0.604 -0.68,1.027 -0.232,0.423 -0.896,1.56 -1.476,2.527 -0.58,0.967 -1.246,2.109 -1.479,2.539 -0.234,0.43 -0.536,0.913 -0.673,1.074 -0.299,0.354 -4.805,8.834 -6.624,12.467 -3.71,7.41 -7.142,15.534 -9.461,22.396 -1.663,4.923 -3.955,13.499 -4.555,17.045 l -0.241,1.42 -0.637,-0.736 c -0.35,-0.405 -0.706,-0.824 -0.791,-0.932 -0.085,-0.107 -0.636,-0.81 -1.224,-1.562 -0.589,-0.752 -1.182,-1.484 -1.317,-1.625 -0.136,-0.142 -0.247,-0.327 -0.247,-0.41 0,-0.083 -0.174,-0.363 -0.387,-0.621 -0.213,-0.258 -0.456,-0.557 -0.541,-0.665 -0.128,-0.162 -2.541,-3.8 -3.173,-4.785 -0.104,-0.161 -0.389,-0.6 -0.634,-0.976 -3.311,-5.081 -6.196,-11.218 -10.007,-21.289 -0.509,-1.343 -1.128,-2.969 -1.376,-3.614 -0.248,-0.644 -0.689,-1.919 -0.979,-2.832 -0.729,-2.294 -1.427,-3.387 -2.589,-4.052 -0.51,-0.293 -1.532,-0.322 -1.701,-0.049 -0.066,0.107 -0.251,0.195 -0.41,0.195 -0.296,0 -0.376,0.057 -1.518,1.074 -0.362,0.323 -0.856,0.718 -1.098,0.879 -0.241,0.161 -0.538,0.385 -0.66,0.498 -0.328,0.305 -2.151,1.705 -2.658,2.041 -0.243,0.161 -0.541,0.383 -0.662,0.492 -0.539,0.488 -4.816,3.232 -5.786,3.714 -0.591,0.293 -1.119,0.598 -1.172,0.678 -0.054,0.08 -0.845,0.517 -1.758,0.972 -3.4,1.693 -3.683,3.197 -1.115,5.923 0.774,0.821 1.54,1.66 1.701,1.864 0.308,0.39 2.293,2.634 3.613,4.087 0.873,0.961 4.308,4.55 5.65,5.903 0.922,0.93 4.613,4.417 5.309,5.017 0.226,0.195 1.052,0.926 1.834,1.624 1.531,1.367 1.832,1.623 2.675,2.286 0.301,0.237 0.781,0.633 1.067,0.879 0.285,0.247 0.711,0.58 0.946,0.741 0.234,0.161 0.59,0.425 0.79,0.586 0.199,0.161 0.561,0.447 0.802,0.635 0.242,0.188 0.372,0.342 0.288,0.342 -0.263,0 -11.349,-6.041 -11.762,-6.409 -0.118,-0.105 -0.513,-0.345 -0.879,-0.535 -0.366,-0.189 -0.885,-0.494 -1.154,-0.679 -0.268,-0.184 -1.147,-0.742 -1.953,-1.24 -0.805,-0.498 -1.596,-0.991 -1.757,-1.097 -0.162,-0.106 -1.262,-0.83 -2.445,-1.611 -1.183,-0.78 -2.897,-1.898 -3.808,-2.485 -0.912,-0.587 -1.746,-1.138 -1.853,-1.223 -0.268,-0.214 -1.521,-1.152 -2.08,-1.559 -0.253,-0.183 -0.635,-0.471 -0.85,-0.64 -2.296,-1.803 -4.338,-2.333 -5.296,-1.376 -0.759,0.76 -3.898,7.193 -4.906,10.057 -3.299,9.37 -4.058,12.916 -4.288,20.038 -0.27,8.353 1.303,10.89 5.684,9.17 2.736,-1.074 4.052,-1.496 8.524,-2.729 5.195,-1.434 20.092,-4.029 18.349,-3.197 -2.491,1.189 -6.406,3.183 -6.641,3.382 -0.161,0.137 -0.6,0.403 -0.976,0.591 -0.584,0.293 -3.607,2.222 -4.2,2.681 -0.652,0.505 -2.47,1.855 -2.831,2.103 -0.235,0.161 -0.587,0.424 -0.782,0.586 -0.195,0.161 -0.546,0.424 -0.781,0.586 -0.627,0.43 -1.69,1.334 -2.871,2.441 -0.573,0.537 -1.151,1.074 -1.283,1.192 -2.271,2.037 -4.245,5.035 -4.245,6.449 0,1.693 0.173,1.94 4.138,5.9 2.941,2.938 4.147,4.091 7.192,6.869 0.765,0.698 1.676,1.533 2.024,1.856 0.347,0.322 0.997,0.879 1.443,1.238 0.445,0.359 1.019,0.843 1.275,1.075 2.929,2.656 4.665,3.493 5.84,2.814 1.242,-0.718 2.3,-2.408 2.602,-4.154 1.164,-6.72 3.975,-13.763 7.171,-17.966 0.55,-0.723 1.823,-2.377 1.953,-2.539 0.087,-0.107 0.332,-0.415 0.544,-0.683 1.275,-1.615 5.955,-6.42 7.323,-7.52 1.76,-1.415 9.467,-5.246 9.828,-4.885 0.055,0.055 -0.004,2.275 -0.13,4.934 -0.51,10.76 -0.285,17.292 0.944,27.361 0.323,2.649 0.682,5.608 0.798,6.575 0.865,7.223 2.039,12.372 4.585,20.117 1.273,3.875 1.546,4.548 3.755,9.277 1.13,2.417 2.423,5.23 2.875,6.25 1.364,3.082 3.177,6.55 4.392,8.399 0.106,0.161 0.653,0.996 1.216,1.855 0.563,0.859 1.136,1.679 1.273,1.821 0.136,0.142 0.248,0.326 0.248,0.409 0,0.084 0.175,0.363 0.387,0.621 0.562,0.681 0.656,0.807 1.009,1.348 0.175,0.269 0.551,0.752 0.837,1.074 0.285,0.323 0.713,0.833 0.95,1.134 0.746,0.949 1.104,1.364 2.544,2.952 1.78,1.963 8.201,8.38 9.333,9.328 1.38,1.155 1.684,1.406 2.264,1.861 0.301,0.237 0.781,0.633 1.066,0.879 0.286,0.247 0.712,0.58 0.946,0.741 0.403,0.276 0.97,0.717 1.507,1.169 0.13,0.11 1.053,0.815 2.051,1.566 0.997,0.751 1.92,1.454 2.051,1.563 0.441,0.366 3.713,2.829 4.15,3.124 0.239,0.161 0.612,0.444 0.83,0.629 0.217,0.185 0.561,0.388 0.763,0.452 0.202,0.065 0.367,0.185 0.367,0.268 0,0.083 0.223,0.252 0.496,0.376 0.272,0.125 0.602,0.318 0.732,0.431 0.13,0.112 0.72,0.507 1.311,0.878 0.591,0.37 1.206,0.761 1.367,0.867 0.162,0.106 1.216,0.795 2.344,1.531 1.128,0.736 2.577,1.682 3.219,2.103 9.22,6.042 16.705,9.233 34.574,14.742 4.399,1.357 15.225,3.345 21.387,3.929 4.423,0.419 31.508,0.355 36.133,-0.085 5.403,-0.515 19.963,-2.503 24.707,-3.374 7.189,-1.321 21.766,-5.384 29.785,-8.303 0.913,-0.333 2.012,-0.723 2.441,-0.867 0.43,-0.145 1.572,-0.572 2.539,-0.95 0.967,-0.378 2.549,-0.99 3.516,-1.36 3.45,-1.322 15.23,-6.909 16.113,-7.642 0.161,-0.134 1.084,-0.668 2.051,-1.187 0.967,-0.519 1.978,-1.092 2.246,-1.274 0.269,-0.182 0.928,-0.607 1.465,-0.944 0.537,-0.338 1.108,-0.701 1.269,-0.807 0.162,-0.107 1.308,-0.831 2.549,-1.61 2.047,-1.286 4.034,-2.654 4.605,-3.17 0.121,-0.11 0.415,-0.331 0.653,-0.492 0.541,-0.366 1.039,-0.782 3.858,-3.223 1.689,-1.463 6.37,-6.27 7.819,-8.031 0.187,-0.228 0.692,-0.83 1.122,-1.338 1.228,-1.453 1.349,-1.603 1.66,-2.063 0.161,-0.238 0.389,-0.533 0.506,-0.657 0.118,-0.123 0.327,-0.436 0.466,-0.696 0.139,-0.259 0.331,-0.565 0.427,-0.679 0.402,-0.481 2.703,-4.319 2.703,-4.511 0,-0.078 0.426,-0.768 0.947,-1.533 0.52,-0.765 1.104,-1.698 1.296,-2.074 0.193,-0.376 0.414,-0.728 0.492,-0.781 0.078,-0.054 1.079,-1.971 2.224,-4.26 1.145,-2.288 2.168,-4.31 2.272,-4.492 1.055,-1.838 3.506,-7.577 5.106,-11.952 0.216,-0.59 0.601,-1.601 0.856,-2.246 2.432,-6.147 4.698,-13.574 6.019,-19.726 2.797,-13.032 3.503,-21.857 2.946,-36.817 -0.409,-10.969 -4.012,-28.871 -8.001,-39.746 -0.276,-0.752 -0.616,-1.718 -0.756,-2.148 -0.14,-0.43 -0.439,-1.221 -0.664,-1.758 -0.225,-0.537 -0.816,-2.031 -1.314,-3.32 -3.99,-10.334 -13.796,-30.753 -17.531,-36.506 -0.24,-0.368 -0.699,-1.124 -1.021,-1.678 -0.323,-0.555 -0.682,-1.113 -0.8,-1.241 -0.117,-0.127 -0.326,-0.444 -0.465,-0.704 -0.139,-0.259 -0.329,-0.565 -0.423,-0.679 -0.093,-0.114 -0.919,-1.205 -1.834,-2.424 -0.915,-1.219 -1.772,-2.332 -1.903,-2.474 -0.132,-0.141 -0.459,-0.545 -0.728,-0.898 -0.268,-0.353 -0.688,-0.859 -0.932,-1.125 -0.245,-0.266 -0.64,-0.739 -0.879,-1.05 -1.602,-2.087 -8.786,-9.299 -11.198,-11.241 -0.227,-0.183 -0.81,-0.683 -1.296,-1.113 -0.485,-0.43 -1.081,-0.913 -1.323,-1.074 -0.241,-0.161 -0.625,-0.485 -0.853,-0.72 -0.227,-0.234 -1.819,-1.486 -3.538,-2.781 -1.719,-1.296 -3.213,-2.422 -3.32,-2.503 -0.108,-0.082 -0.591,-0.412 -1.075,-0.735 -0.483,-0.322 -0.989,-0.69 -1.124,-0.817 -0.135,-0.127 -0.42,-0.287 -0.635,-0.355 -0.214,-0.068 -0.389,-0.191 -0.389,-0.274 0,-0.083 -0.223,-0.253 -0.496,-0.377 -0.272,-0.124 -0.602,-0.318 -0.732,-0.43 -0.13,-0.113 -0.72,-0.505 -1.311,-0.872 -0.591,-0.366 -1.162,-0.736 -1.27,-0.822 -0.389,-0.309 -3.537,-2.172 -4.394,-2.6 -0.484,-0.241 -0.923,-0.499 -0.977,-0.572 -0.355,-0.484 -9.13,-4.854 -14.258,-7.1 -11.86,-5.195 -25.1,-8.475 -36.425,-9.023 -1.397,-0.068 -3.491,-0.253 -4.654,-0.413 -1.163,-0.159 -2.498,-0.232 -2.967,-0.162 -1.055,0.158 -1.708,-0.385 -2.041,-1.697 -1.062,-4.192 -4.66,-12.02 -6.86,-14.928 -0.482,-0.638 -1.04,-1.417 -1.239,-1.732 -0.199,-0.315 -1.118,-1.338 -2.043,-2.273 -0.924,-0.935 -1.958,-1.995 -2.296,-2.357 -0.653,-0.697 -3.376,-3.192 -4.021,-3.684 -0.211,-0.161 -0.632,-0.525 -0.936,-0.81 -0.304,-0.284 -1.591,-1.322 -2.861,-2.306 -1.27,-0.984 -2.441,-1.895 -2.602,-2.025 -0.328,-0.265 -2.875,-2.004 -3.678,-2.513 -0.287,-0.181 -0.617,-0.414 -0.735,-0.516 -0.117,-0.103 -0.505,-0.337 -0.86,-0.521 -0.356,-0.184 -0.743,-0.42 -0.861,-0.524 -0.291,-0.258 -1.278,-0.83 -4.634,-2.686 -10.356,-5.728 -20.119,-8.557 -26.967,-7.814 m 5.816,5.171 c 11.803,1.753 28.018,10.995 39.544,22.539 5.814,5.823 6.953,7.696 9.394,15.443 2.032,6.45 1.994,6.368 3.264,7.016 1.358,0.693 8.493,1.768 11.794,1.777 2.998,0.008 11.111,1.073 14.31,1.878 5.314,1.337 13.127,3.75 16.894,5.216 23.134,9.006 45.723,26.235 56.768,43.298 4.254,6.573 13.435,24.845 17.268,34.369 6.686,16.614 9.167,25.783 11.547,42.676 0.777,5.51 0.694,20.947 -0.151,28.027 -1.094,9.172 -2.975,17.727 -6.056,27.54 -3.624,11.54 -5.279,15.98 -7.974,21.386 -1.231,2.471 -2.468,5.02 -2.749,5.664 -1.843,4.24 -5.097,8.807 -11.055,15.515 -6.028,6.786 -10.007,10.066 -19.023,15.678 -10.874,6.769 -26.018,13.205 -40.727,17.31 -13.485,3.763 -15.567,4.233 -24.313,5.483 -18.744,2.679 -18.388,2.653 -35.644,2.594 -14.777,-0.05 -16.586,-0.127 -22.363,-0.94 -4.535,-0.638 -14.062,-2.642 -16.114,-3.389 -0.268,-0.097 -1.543,-0.499 -2.832,-0.892 -10.12,-3.084 -16.429,-5.456 -20.676,-7.771 -3.777,-2.06 -6.424,-3.634 -9.89,-5.883 -1.45,-0.941 -3.148,-2.031 -3.774,-2.423 -15.071,-9.435 -28.403,-21.479 -35.38,-31.961 -2.989,-4.492 -3.72,-5.924 -9.494,-18.593 -4.332,-9.506 -6.665,-20.295 -8.475,-39.19 -0.844,-8.807 -0.345,-24.731 1.084,-34.6 3.341,-23.072 19.689,-57.631 34.891,-73.755 1.177,-1.248 2.916,-3.226 3.864,-4.394 0.948,-1.169 2.223,-2.652 2.833,-3.297 0.611,-0.644 2.125,-2.358 3.366,-3.808 2.105,-2.461 5.039,-5.441 10.206,-10.364 1.912,-1.822 5.258,-4.58 10.504,-8.657 2.02,-1.57 10.334,-6.909 11.033,-7.084 0.265,-0.067 2.252,0.07 4.414,0.303 12.009,1.297 23.011,1.057 31.569,-0.691 5.229,-1.067 6.445,-1.728 6.445,-3.499 0,-2.011 -1.464,-2.589 -4.493,-1.775 -15.429,4.149 -44.448,1.73 -60.546,-5.046 -11.11,-4.677 -15.156,-8.857 -11.772,-12.163 5.712,-5.583 27.182,-7.364 47.51,-3.943 3.734,0.629 4.622,0.688 5.354,0.354 0.45,-0.205 0.646,-0.086 2.694,1.628 7.136,5.97 19.154,13.421 23.541,14.595 1.453,0.389 2.667,-0.431 2.912,-1.968 0.206,-1.29 -0.383,-1.785 -4.712,-3.963 -16.505,-8.304 -30.661,-21.344 -34.5,-31.78 -2.466,-6.705 1.028,-9.749 9.71,-8.46 m 137.642,90.167 c -0.45,0.248 -3.741,3.044 -7.312,6.213 -3.571,3.169 -8.13,7.212 -10.131,8.984 -2.001,1.773 -6.313,5.594 -9.582,8.492 -3.269,2.898 -10.207,9.045 -15.417,13.66 -5.21,4.615 -10.074,8.936 -10.81,9.604 l -1.338,1.213 -1.006,-0.452 c -0.553,-0.249 -4.434,-1.961 -8.623,-3.805 -4.189,-1.845 -11.353,-5.008 -15.918,-7.03 -4.565,-2.022 -12.52,-5.521 -17.676,-7.776 -5.156,-2.256 -11.88,-5.219 -14.941,-6.585 -3.062,-1.367 -8.775,-3.889 -12.695,-5.605 -10.215,-4.471 -11.714,-5.131 -14.551,-6.397 -10.351,-4.621 -9.688,-4.392 -10.782,-3.725 -0.838,0.511 -1.143,1.175 -1.395,3.035 -0.116,0.86 -1.445,9.647 -2.953,19.528 -1.508,9.88 -2.741,18.377 -2.741,18.881 0,1.531 0.772,2.202 3.125,2.713 1.675,0.365 19.78,4.863 19.849,4.932 0.034,0.034 -0.201,0.76 -0.522,1.613 -6.381,16.974 0.029,39.094 13.36,46.106 l 1.339,0.704 2.046,4.191 c 2.465,5.05 5.774,11.308 8.414,15.912 1.915,3.341 2.219,3.845 4.723,7.829 26.281,41.83 52.341,54.148 68.766,32.506 2.35,-3.096 2.299,-2.799 1.064,-6.281 -3.854,-10.865 -3.008,-29.554 1.765,-38.973 0.484,-0.955 0.543,-1.002 1.133,-0.895 0.341,0.062 1.72,0.243 3.063,0.402 1.342,0.159 5.957,0.736 10.254,1.282 11.038,1.402 11.146,1.413 12.988,1.324 4.258,-0.208 6.368,-3.79 4.576,-7.77 -1.091,-2.424 -6.954,-10.014 -11.389,-14.744 -1.409,-1.503 -2.562,-2.779 -2.562,-2.837 0,-0.057 0.725,-0.64 1.611,-1.295 13.729,-10.15 17.978,-29.041 10.219,-45.428 l -0.623,-1.315 2.062,-1.246 c 24.327,-14.699 23.952,-14.467 24.379,-15.117 0.811,-1.239 0.78,-1.304 -4.6,-9.522 -1.618,-2.47 -5.507,-8.421 -8.641,-13.224 -3.135,-4.802 -5.91,-8.869 -6.168,-9.038 -0.815,-0.534 -1.475,-0.552 -2.36,-0.064 m -7.885,52.206 c 6.55,15.735 1.996,32.526 -10.924,40.279 l -0.683,0.41 -2.442,-2.247 c -3.073,-2.83 -9.568,-8.228 -11.914,-9.904 -0.393,-0.28 -0.412,-0.327 -0.098,-0.24 12.001,3.333 20.276,-10.898 12.495,-21.487 -0.302,-0.411 -0.229,-0.466 4.146,-3.116 2.449,-1.484 5.332,-3.245 6.406,-3.915 2.433,-1.517 2.286,-1.527 3.014,0.22 m -110.826,7.632 c 6.015,1.488 10.965,2.722 10.998,2.742 0.034,0.021 -0.67,0.772 -1.565,1.669 -10.292,10.328 -0.075,27.087 13.138,21.551 6.637,-2.781 10.066,-11.172 7.207,-17.635 -0.213,-0.484 -0.358,-0.91 -0.321,-0.947 0.038,-0.038 3.752,0.847 8.255,1.964 4.502,1.118 9.971,2.472 12.153,3.008 4.606,1.131 4.35,0.994 3.632,1.938 -6.906,9.078 -37.121,23.621 -52.474,25.256 -2.099,0.223 -2.102,0.223 -2.973,-0.288 -10.062,-5.896 -15.325,-23.513 -11.226,-37.576 0.737,-2.528 1.659,-4.601 1.992,-4.479 0.135,0.05 5.168,1.308 11.184,2.797 m 77.248,12.049 c 0.343,1.488 1.444,3.7 2.472,4.961 0.491,0.603 0.817,1.053 0.723,1 -0.424,-0.241 -7.241,-4.022 -7.567,-4.196 -0.314,-0.168 -0.064,-0.38 1.758,-1.487 2.555,-1.552 2.326,-1.528 2.614,-0.278 m -14.753,3.381 c 2.999,0.731 3.837,0.868 4.679,0.762 1.242,-0.155 1.518,-0.028 6.752,3.091 8.803,5.246 15.53,10.618 24.973,19.94 4.463,4.407 6.034,6.184 9.865,11.156 5.3,6.879 5.209,7.287 -1.44,6.423 -1.235,-0.161 -4.312,-0.547 -6.836,-0.859 -11.703,-1.443 -14.452,-1.82 -18.555,-2.54 -11.132,-1.954 -18.726,-2.984 -28.027,-3.802 -20.425,-1.795 -30.661,-3.006 -34.863,-4.124 -2.67,-0.711 -9.054,-2.656 -9.238,-2.815 -0.086,-0.074 0.705,-0.378 1.757,-0.677 19.078,-5.404 42.453,-18.683 46.49,-26.408 0.298,-0.57 0.598,-1.037 0.666,-1.037 0.069,-0.001 1.769,0.4 3.777,0.89 m -57.16,30.457 c 1.492,0.471 1.551,0.513 1.657,1.167 0.065,0.396 0.899,1.88 2.004,3.564 15.079,22.976 45.397,47.164 65.701,52.418 1.23,0.319 2.285,0.627 2.344,0.686 0.201,0.201 -3.281,3.384 -4.754,4.346 -15.839,10.339 -39.749,-9.065 -62.663,-50.853 -1.833,-3.344 -6.011,-11.482 -6.011,-11.709 0,-0.159 0.042,-0.149 1.722,0.381 m 12.927,4.204 c 4.573,1.166 14.836,2.39 34.375,4.1 8.066,0.706 14.877,1.557 22.851,2.857 5.243,0.854 4.882,0.609 4.034,2.734 -4.006,10.046 -4.824,26.436 -1.871,37.517 0.207,0.777 0.376,1.466 0.376,1.531 0,1.144 -11.431,-3.385 -17.773,-7.042 -1.451,-0.836 -2.901,-1.656 -3.223,-1.821 -9.324,-4.777 -33.513,-26.115 -38.345,-33.826 -0.169,-0.269 -0.711,-1.016 -1.205,-1.66 -0.906,-1.183 -3.716,-5.077 -3.972,-5.505 -0.088,-0.149 0.335,-0.093 1.184,0.155 0.728,0.213 2.333,0.645 3.569,0.96"
       stroke="none"
       fill="#090505"
       fill-rule="evenodd" /><path
       id="path2"
       d="m 173.535,43.837 c -2.886,0.738 -3.808,1.817 -3.808,4.456 0,9.704 16.257,26.05 35.478,35.672 3.523,1.764 3.958,2.035 4.151,2.587 0.705,2.024 -0.389,3.6 -2.382,3.428 -3.375,-0.291 -16.536,-8.374 -24.552,-15.08 -1.568,-1.311 -1.688,-1.375 -2.149,-1.136 -0.69,0.358 -1.133,0.33 -4.926,-0.312 -20.54,-3.48 -42.193,-1.708 -47.844,3.914 -1.673,1.664 -1.447,3.198 0.799,5.438 10.58,10.555 49.878,17 70.862,11.622 3.067,-0.786 3.266,-0.8 4.098,-0.293 1.621,0.988 1.57,3.324 -0.091,4.183 -4.112,2.127 -18.5,3.54 -29.245,2.873 -3.614,-0.224 -10.616,-0.911 -11.257,-1.105 -0.457,-0.137 -1.153,0.201 -3.587,1.745 -1.182,0.749 -2.588,1.642 -3.125,1.982 -3.008,1.91 -4.584,3.008 -6.388,4.456 -1.106,0.887 -3.241,2.6 -4.745,3.807 -2.846,2.284 -12.997,12.075 -14.551,14.035 -0.483,0.61 -1.717,2.043 -2.743,3.185 -1.025,1.142 -2.605,2.994 -3.512,4.116 -0.906,1.121 -2.356,2.786 -3.223,3.699 -3.58,3.773 -4.647,5.031 -7.279,8.576 -2.443,3.292 -4.694,6.874 -8.786,13.983 -11.792,20.486 -19.141,42.359 -20.343,60.547 -0.688,10.407 -0.735,20.494 -0.123,26.367 0.32,3.069 1.315,11.328 1.776,14.746 1.259,9.325 4.007,18.506 8.08,26.995 0.758,1.58 1.951,4.15 2.65,5.711 5.591,12.481 14.206,22.216 30.574,34.553 2.739,2.064 6.079,4.447 7.422,5.296 1.342,0.848 3.935,2.521 5.761,3.717 3.043,1.993 5.188,3.298 8.14,4.954 l 1.108,0.622 -0.442,-0.934 c -2.209,-4.671 -2.004,-14.87 0.451,-22.418 0.209,-0.644 0.603,-1.942 0.874,-2.884 0.916,-3.186 3.451,-9.096 5.254,-12.252 4.144,-7.255 5.142,-8.593 9.974,-13.365 7.054,-6.968 11.306,-10.16 23.918,-17.958 6.622,-4.096 14.176,-7.442 19.496,-8.638 l 1.551,-0.349 -1.339,-2.227 c -2.277,-3.786 -5.368,-9.334 -7.495,-13.453 l -2.034,-3.939 -0.626,0.205 c -0.948,0.31 -9.002,0.428 -11.534,0.168 -25.75,-2.641 -39.018,-23.506 -30.66,-48.219 1.214,-3.591 4.011,-9.384 5.461,-11.312 l 0.474,-0.63 -0.543,-0.12 c -3.416,-0.757 -3.41,-0.71 -1.624,-12.39 2.546,-16.654 4.262,-28.017 4.389,-29.061 0.214,-1.763 0.724,-2.618 1.839,-3.084 0.914,-0.382 1.002,-0.368 2.713,0.429 0.833,0.388 2.482,1.126 3.663,1.639 1.182,0.513 5.972,2.622 10.645,4.685 4.673,2.064 11.748,5.184 15.722,6.934 3.975,1.75 9.952,4.387 13.282,5.861 3.33,1.474 9.306,4.111 13.281,5.86 11.544,5.08 23.169,10.201 29.492,12.99 3.223,1.421 6.138,2.703 6.478,2.849 0.58,0.248 0.654,0.232 1.19,-0.268 0.315,-0.293 1.179,-1.071 1.921,-1.728 0.742,-0.657 5.399,-4.787 10.35,-9.179 4.951,-4.392 11.582,-10.271 14.736,-13.064 6.467,-5.726 16.34,-14.476 17.38,-15.403 0.378,-0.337 1.389,-1.227 2.246,-1.978 0.857,-0.751 1.954,-1.729 2.437,-2.172 0.484,-0.443 1.231,-1.103 1.66,-1.466 0.43,-0.363 1.16,-1.012 1.622,-1.442 1.585,-1.472 2.798,-1.818 3.965,-1.129 0.585,0.346 2.163,2.675 10.494,15.485 0.594,0.913 2.827,4.333 4.962,7.6 4.441,6.794 4.446,6.802 4.446,7.693 0,1.307 -0.522,1.723 -7.422,5.911 -3.599,2.184 -6.914,4.201 -7.367,4.483 l -0.823,0.512 1.152,2.184 c 12.306,23.324 6.582,49.749 -13.656,63.036 l -0.466,0.307 1.557,2.037 c 4.394,5.748 4.858,8.344 1.978,11.058 -2.187,2.061 -2.203,2.061 -19.387,-0.118 -6.015,-0.762 -11.033,-1.35 -11.15,-1.305 -0.465,0.177 -2.494,5.73 -2.917,7.983 -0.122,0.653 -0.097,0.696 0.489,0.825 1.41,0.31 11.804,5.162 14.856,6.935 11.775,6.841 22.509,17.947 25.792,26.686 4.131,10.996 3.947,19.083 -0.676,29.752 -0.845,1.949 -0.808,2.047 0.408,1.069 5.222,-4.202 10.832,-9.817 14.314,-14.326 0.63,-0.815 1.845,-2.385 2.7,-3.489 1.464,-1.89 3.747,-5.688 4.438,-7.385 0.171,-0.421 1.36,-2.874 2.641,-5.452 6.227,-12.533 12.174,-33.101 14.229,-49.219 0.732,-5.745 0.91,-20.359 0.313,-25.781 -1.985,-18.032 -5.987,-32.168 -14.656,-51.758 -3.258,-7.363 -10.837,-22.004 -13.94,-26.931 -3.954,-6.276 -11.274,-14.556 -17.7,-20.022 -1.182,-1.005 -2.368,-2.015 -2.637,-2.243 -4.918,-4.183 -13.089,-9.762 -19.538,-13.341 -11.805,-6.552 -20.473,-9.984 -33.88,-13.414 -3.089,-0.79 -9.278,-1.63 -13.867,-1.882 -4.62,-0.253 -10.739,-1.058 -11.936,-1.57 -1.609,-0.687 -1.929,-1.138 -2.819,-3.978 -3.34,-10.651 -4.076,-12.124 -8.39,-16.78 -13.849,-14.949 -37.649,-27.09 -47.949,-24.459 m 173.258,159.515 c 12.244,3.822 16.445,40.321 5.258,45.67 -5.614,2.685 -11.859,-4.185 -14.648,-16.112 -3.967,-16.967 0.877,-32.216 9.39,-29.558 m -207.576,11.591 c 3.76,0.163 8.034,4.751 9.881,10.605 5.462,17.314 -5.296,37.719 -16.969,32.188 -11.166,-5.29 -12.07,-30.213 -1.452,-40.041 1.978,-1.831 5.136,-3.176 6.823,-2.906 0.376,0.06 1.149,0.129 1.717,0.154 m -27.557,2.91 c 8.241,2.194 4.173,24.188 -4.347,23.504 -5.614,-0.451 -7.124,-10.602 -2.81,-18.894 1.926,-3.702 4.453,-5.33 7.157,-4.61 m 269.799,5.719 c 0.044,0.507 0.35,0.938 0.363,0.512 0.008,-0.236 -0.074,-0.482 -0.181,-0.549 -0.108,-0.066 -0.19,-0.049 -0.182,0.037 M 173.242,352.174 c 1.387,0.559 12.272,3.125 13.086,3.085 0.161,-0.008 -1.728,-0.481 -4.199,-1.052 -2.471,-0.571 -5.538,-1.312 -6.816,-1.646 -2.406,-0.63 -2.906,-0.723 -2.071,-0.387"
       stroke="none"
       fill="#db2424"
       fill-rule="evenodd" /><path
       id="path3"
       d="m 220.898,67.639 c 0,0.034 0.286,0.319 0.635,0.635 l 0.635,0.574 -0.574,-0.635 c -0.534,-0.592 -0.696,-0.725 -0.696,-0.574 m -42.038,6.327 c 0.243,0.047 0.594,0.045 0.781,-0.004 0.187,-0.049 -0.012,-0.087 -0.442,-0.085 -0.429,0.003 -0.582,0.043 -0.339,0.089 m -50.743,8.895 c 0.479,0.511 0.896,0.928 0.928,0.928 0.146,0 -0.009,-0.175 -0.871,-0.985 l -0.928,-0.87 0.871,0.927 m 6.549,38.477 -3.514,3.564 3.565,-3.513 c 1.96,-1.933 3.564,-3.537 3.564,-3.565 0,-0.139 -0.351,0.202 -3.615,3.514 m 182.912,2.747 c 0,0.033 0.286,0.319 0.635,0.634 l 0.635,0.574 -0.574,-0.635 c -0.535,-0.591 -0.696,-0.724 -0.696,-0.573 m 4.395,4.431 c 0.419,0.429 0.806,0.781 0.86,0.781 0.054,0 -0.245,-0.352 -0.665,-0.781 -0.42,-0.43 -0.807,-0.782 -0.861,-0.782 -0.053,0 0.246,0.352 0.666,0.782 m -202.648,9.912 -0.673,0.732 0.733,-0.673 c 0.681,-0.626 0.822,-0.792 0.673,-0.792 -0.033,0 -0.362,0.33 -0.733,0.733 m 40.291,43.603 c 0,0.376 0.04,0.53 0.089,0.342 0.049,-0.188 0.049,-0.496 0,-0.684 -0.049,-0.188 -0.089,-0.034 -0.089,0.342 m 157.843,18.457 c 0,1.397 0.031,1.942 0.069,1.213 0.038,-0.73 0.037,-1.872 -0.001,-2.539 -0.038,-0.667 -0.069,-0.07 -0.068,1.326 m -4.714,-1.172 c 0.002,0.43 0.042,0.583 0.088,0.34 0.047,-0.243 0.045,-0.595 -0.003,-0.781 -0.049,-0.187 -0.088,0.012 -0.085,0.441 m 0,2.344 c 0.002,0.43 0.042,0.583 0.088,0.34 0.047,-0.243 0.045,-0.595 -0.003,-0.782 -0.049,-0.186 -0.088,0.012 -0.085,0.442 m -62.074,8.154 -0.573,0.635 0.634,-0.573 c 0.592,-0.535 0.725,-0.696 0.574,-0.696 -0.034,0 -0.319,0.285 -0.635,0.634 m 53.321,12.305 -0.574,0.635 0.635,-0.574 c 0.591,-0.534 0.724,-0.696 0.573,-0.696 -0.033,0 -0.319,0.286 -0.634,0.635 m 5.078,1.367 -0.574,0.635 0.635,-0.574 c 0.592,-0.534 0.724,-0.695 0.574,-0.695 -0.034,0 -0.32,0.285 -0.635,0.634 m -125.672,0.217 c 0,0.212 1.166,2.469 1.276,2.469 0.053,0 -0.178,-0.549 -0.515,-1.221 -0.638,-1.272 -0.761,-1.474 -0.761,-1.248 m 111.915,0.382 c 0,0.033 0.285,0.319 0.634,0.634 l 0.635,0.574 -0.574,-0.635 c -0.534,-0.591 -0.695,-0.724 -0.695,-0.573 m 12.102,1.257 -1.067,1.123 1.123,-1.068 c 1.043,-0.991 1.212,-1.178 1.067,-1.178 -0.03,0 -0.536,0.505 -1.123,1.123 m -17.962,-0.281 c 0,0.034 0.286,0.319 0.635,0.635 l 0.635,0.574 -0.574,-0.635 c -0.535,-0.592 -0.696,-0.725 -0.696,-0.574 m 2.149,1.953 c 0,0.034 0.285,0.319 0.634,0.635 l 0.635,0.574 -0.574,-0.635 c -0.534,-0.592 -0.695,-0.725 -0.695,-0.574 m 2.832,2.674 c 0.419,0.429 0.806,0.781 0.86,0.781 0.054,0 -0.246,-0.352 -0.665,-0.781 -0.42,-0.43 -0.807,-0.782 -0.861,-0.782 -0.053,0 0.246,0.352 0.666,0.782 m -101.27,0.292 c 0.364,0.376 0.707,0.684 0.76,0.684 0.054,0 -0.2,-0.308 -0.565,-0.684 -0.364,-0.376 -0.706,-0.683 -0.76,-0.683 -0.054,0 0.201,0.307 0.565,0.683 m 111.035,2.833 c 0.746,0.751 1.401,1.367 1.455,1.367 0.053,0 -0.513,-0.616 -1.259,-1.367 -0.747,-0.752 -1.401,-1.368 -1.455,-1.368 -0.054,0 0.513,0.616 1.259,1.368 m -220.541,0.488 c 0.001,0.752 0.036,1.035 0.078,0.63 0.043,-0.405 0.042,-1.02 -0.001,-1.367 -0.043,-0.347 -0.078,-0.015 -0.077,0.737 m 106.186,0 c 0.583,0.591 1.105,1.074 1.158,1.074 0.054,0 -0.379,-0.483 -0.963,-1.074 -0.583,-0.591 -1.105,-1.074 -1.158,-1.074 -0.054,0 0.379,0.483 0.963,1.074 m 116.211,1.526 c 0,0.033 0.285,0.319 0.634,0.635 l 0.635,0.573 -0.573,-0.635 c -0.535,-0.591 -0.696,-0.724 -0.696,-0.573 m -4.395,2.087 c 0.42,0.43 0.807,0.781 0.861,0.781 0.053,0 -0.246,-0.351 -0.666,-0.781 -0.419,-0.43 -0.806,-0.781 -0.86,-0.781 -0.054,0 0.246,0.351 0.665,0.781 m -218.008,1.953 c 0,0.591 0.037,0.833 0.082,0.537 0.044,-0.295 0.044,-0.779 0,-1.074 -0.045,-0.295 -0.082,-0.054 -0.082,0.537 m 115.469,4.102 c 0.379,0.752 0.733,1.367 0.786,1.367 0.054,0 -0.212,-0.615 -0.591,-1.367 -0.378,-0.752 -0.732,-1.367 -0.786,-1.367 -0.053,0 0.212,0.615 0.591,1.367 m 13.314,-0.329 c 0.256,0.428 3.066,4.322 3.972,5.505 0.494,0.644 1.036,1.391 1.205,1.66 4.832,7.711 29.021,29.049 38.345,33.826 0.322,0.165 1.772,0.985 3.223,1.821 6.342,3.657 17.773,8.186 17.773,7.042 0,-0.065 -0.169,-0.754 -0.376,-1.531 -2.953,-11.081 -2.135,-27.471 1.871,-37.517 0.848,-2.125 1.209,-1.88 -4.034,-2.734 -7.974,-1.3 -14.785,-2.151 -22.851,-2.857 -23.713,-2.075 -31.13,-3.064 -37.944,-5.06 -0.849,-0.248 -1.272,-0.304 -1.184,-0.155 m 102.689,10.924 -0.573,0.635 0.635,-0.573 c 0.591,-0.535 0.724,-0.696 0.573,-0.696 -0.033,0 -0.319,0.285 -0.635,0.634 m -95.69,5.616 c 0.419,0.429 0.806,0.781 0.86,0.781 0.054,0 -0.246,-0.352 -0.665,-0.781 -0.42,-0.43 -0.807,-0.782 -0.861,-0.782 -0.053,0 0.246,0.352 0.666,0.782 m 1.464,1.613 c 0,0.028 1.736,1.764 3.858,3.857 l 3.857,3.807 -3.806,-3.857 c -3.537,-3.584 -3.909,-3.946 -3.909,-3.807 m 9.082,8.934 c 0.42,0.429 0.807,0.781 0.861,0.781 0.054,0 -0.246,-0.352 -0.665,-0.781 -0.42,-0.43 -0.807,-0.782 -0.861,-0.782 -0.053,0 0.246,0.352 0.665,0.782 m 49.568,2.441 c 0.002,0.537 0.039,0.734 0.084,0.437 0.045,-0.297 0.044,-0.737 -0.002,-0.977 -0.047,-0.24 -0.083,0.003 -0.082,0.54 m 0,7.031 c 0.002,0.537 0.039,0.734 0.084,0.437 0.045,-0.297 0.044,-0.736 -0.002,-0.977 -0.047,-0.24 -0.083,0.003 -0.082,0.54 m -45.962,8.155 c 0.809,0.862 0.984,1.017 0.984,0.87 0,-0.031 -0.417,-0.449 -0.927,-0.927 l -0.928,-0.871 0.871,0.928 m -0.386,6.25 c 2.447,2.494 2.738,2.774 2.738,2.634 0,-0.029 -1.209,-1.237 -2.686,-2.686 l -2.686,-2.634 2.634,2.686 m 5.863,-0.733 c 0.364,0.376 0.706,0.684 0.76,0.684 0.053,0 -0.201,-0.308 -0.565,-0.684 -0.365,-0.376 -0.707,-0.683 -0.76,-0.683 -0.054,0 0.2,0.307 0.565,0.683 m -2.54,3.87 c 0,0.033 0.286,0.319 0.635,0.635 l 0.635,0.573 -0.574,-0.635 c -0.534,-0.591 -0.696,-0.724 -0.696,-0.573 m 37.891,2.185 c -0.8,0.805 -1.411,1.465 -1.357,1.465 0.053,0 0.752,-0.66 1.552,-1.465 0.801,-0.806 1.411,-1.465 1.358,-1.465 -0.054,0 -0.753,0.659 -1.553,1.465 m 3.21,3.467 -0.573,0.634 0.635,-0.573 c 0.591,-0.535 0.724,-0.696 0.573,-0.696 -0.033,0 -0.319,0.285 -0.635,0.635 m -16.338,6.736 c 0.567,0.039 1.446,0.039 1.953,-0.001 0.507,-0.04 0.042,-0.073 -1.032,-0.072 -1.074,0 -1.489,0.033 -0.921,0.073 m -153.473,2.26 c 0,0.034 0.285,0.319 0.634,0.635 l 0.635,0.574 -0.574,-0.635 c -0.534,-0.592 -0.695,-0.725 -0.695,-0.574 m 4.003,4.236 c 0.42,0.43 0.807,0.781 0.861,0.781 0.054,0 -0.246,-0.351 -0.665,-0.781 -0.42,-0.43 -0.807,-0.781 -0.861,-0.781 -0.054,0 0.246,0.351 0.665,0.781 m 218.447,3.076 -0.673,0.733 0.732,-0.673 c 0.403,-0.371 0.733,-0.7 0.733,-0.733 0,-0.149 -0.166,-0.009 -0.792,0.673 M 114.648,318.42 c 0,0.034 0.286,0.32 0.635,0.635 l 0.635,0.574 -0.574,-0.635 c -0.534,-0.592 -0.696,-0.724 -0.696,-0.574 m 185.938,20.252 c -0.591,0.312 -0.986,0.567 -0.879,0.567 0.107,0 0.679,-0.255 1.27,-0.567 0.59,-0.312 0.986,-0.568 0.878,-0.568 -0.107,0 -0.678,0.256 -1.269,0.568 m -70.654,18.103 c 0.188,0.049 0.495,0.049 0.683,0 0.188,-0.049 0.034,-0.089 -0.342,-0.089 -0.376,0 -0.529,0.04 -0.341,0.089 m -31.836,0.196 c 0.188,0.049 0.495,0.049 0.683,0 0.188,-0.05 0.034,-0.09 -0.341,-0.09 -0.376,0 -0.53,0.04 -0.342,0.09 m 29.492,0 c 0.188,0.049 0.495,0.049 0.683,0 0.188,-0.05 0.035,-0.09 -0.341,-0.09 -0.376,0 -0.53,0.04 -0.342,0.09 m -8.995,0.206 c 1.149,0.034 3.082,0.034 4.297,0 1.214,-0.034 0.274,-0.062 -2.089,-0.063 -2.363,0 -3.357,0.028 -2.208,0.063"
       stroke="none"
       fill="#903a38"
       fill-rule="evenodd"
       style="display:inline" /><path
       id="path4"
       d="m 175.83,43.502 c 0.403,0.042 1.062,0.042 1.465,0 0.403,-0.042 0.073,-0.077 -0.732,-0.077 -0.806,0 -1.136,0.035 -0.733,0.077 m -6.235,4.838 c 0.001,0.752 0.037,1.035 0.079,0.63 0.042,-0.405 0.041,-1.02 -0.002,-1.367 -0.043,-0.347 -0.078,-0.015 -0.077,0.737 m 10.874,18.164 c 1.016,1.02 1.891,1.855 1.945,1.855 0.054,0 -0.734,-0.835 -1.75,-1.855 -1.016,-1.021 -1.892,-1.856 -1.945,-1.856 -0.054,0 0.733,0.835 1.75,1.856 m 3.32,3.088 c 0,0.034 0.286,0.32 0.635,0.635 l 0.635,0.574 -0.574,-0.635 c -0.535,-0.592 -0.696,-0.725 -0.696,-0.574 M 152.1,71.63 c 1.101,0.035 2.902,0.035 4.004,0 1.101,-0.035 0.2,-0.063 -2.002,-0.063 -2.203,0 -3.103,0.028 -2.002,0.063 m -4.978,0.19 c 0.297,0.045 0.736,0.044 0.976,-0.003 0.241,-0.046 -0.002,-0.083 -0.539,-0.081 -0.538,10e-4 -0.734,0.039 -0.437,0.084 m 13.184,0.001 c 0.351,0.044 0.879,0.043 1.172,-0.002 0.294,-0.044 0.006,-0.08 -0.638,-0.079 -0.645,0.001 -0.885,0.038 -0.534,0.081 m -15.531,0.189 c 0.188,0.049 0.496,0.049 0.684,0 0.188,-0.049 0.034,-0.09 -0.342,-0.09 -0.376,0 -0.53,0.041 -0.342,0.09 m 18.655,0.003 c 0.243,0.047 0.595,0.045 0.781,-0.004 0.187,-0.049 -0.012,-0.087 -0.441,-0.085 -0.43,0.002 -0.583,0.042 -0.34,0.089 m 2.244,0.192 c 0.188,0.049 0.495,0.049 0.683,0 0.188,-0.049 0.035,-0.089 -0.341,-0.089 -0.376,0 -0.53,0.04 -0.342,0.089 m 77.446,18.368 c 0.46,0.041 1.163,0.041 1.563,-10e-4 0.4,-0.042 0.024,-0.076 -0.835,-0.075 -0.86,0 -1.187,0.035 -0.728,0.076 m 3.804,0.187 c 0.188,0.049 0.495,0.049 0.683,0 0.188,-0.049 0.035,-0.09 -0.341,-0.09 -0.376,0 -0.53,0.041 -0.342,0.09 m -76.853,5.277 c 0.243,0.046 0.594,0.045 0.781,-0.004 0.187,-0.049 -0.012,-0.087 -0.442,-0.085 -0.43,0.002 -0.582,0.042 -0.339,0.089 m 19.822,-0.004 c 0.188,0.049 0.495,0.049 0.683,0 0.188,-0.049 0.034,-0.089 -0.342,-0.089 -0.376,0 -0.529,0.04 -0.341,0.089 m -17.383,0.201 c 0.295,0.044 0.779,0.044 1.074,0 0.295,-0.045 0.054,-0.082 -0.537,-0.082 -0.591,0 -0.833,0.037 -0.537,0.082 m 14.846,0 c 0.297,0.045 0.737,0.044 0.977,-0.003 0.24,-0.046 -0.003,-0.083 -0.54,-0.081 -0.537,10e-4 -0.734,0.039 -0.437,0.084 m -9.389,0.201 c 1.363,0.033 3.648,0.034 5.078,0 1.43,-0.033 0.314,-0.061 -2.479,-0.061 -2.793,0 -3.962,0.027 -2.599,0.061 m -8.092,4.484 c 0.243,0.047 0.595,0.045 0.782,-0.004 0.186,-0.048 -0.012,-0.087 -0.442,-0.084 -0.43,0.002 -0.583,0.042 -0.34,0.088 m 20.213,-0.003 c 0.188,0.049 0.495,0.049 0.683,0 0.188,-0.049 0.035,-0.089 -0.341,-0.089 -0.376,0 -0.53,0.04 -0.342,0.089 m -17.578,0.2 c 0.295,0.045 0.779,0.045 1.074,0 0.295,-0.044 0.054,-0.081 -0.537,-0.081 -0.591,0 -0.833,0.037 -0.537,0.081 m 15.042,0.001 c 0.296,0.045 0.736,0.043 0.976,-0.003 0.24,-0.046 -0.003,-0.083 -0.54,-0.082 -0.537,0.002 -0.733,0.04 -0.436,0.085 m -9.562,0.201 c 1.484,0.033 3.857,0.033 5.274,0 1.417,-0.034 0.203,-0.061 -2.698,-0.061 -2.9,0 -4.059,0.028 -2.576,0.061 m -38.445,15.332 -1.166,1.221 1.221,-1.166 c 0.671,-0.641 1.22,-1.19 1.22,-1.22 0,-0.145 -0.192,0.031 -1.275,1.165 m -12.602,13.184 -0.673,0.732 0.732,-0.673 c 0.682,-0.626 0.822,-0.791 0.673,-0.791 -0.033,0 -0.362,0.329 -0.732,0.732 m -5.569,6.543 -0.573,0.635 0.635,-0.574 c 0.349,-0.315 0.634,-0.601 0.634,-0.635 0,-0.151 -0.161,-0.018 -0.696,0.574 m 191.797,0.977 -0.573,0.634 0.634,-0.573 c 0.592,-0.535 0.725,-0.696 0.574,-0.696 -0.034,0 -0.319,0.285 -0.635,0.635 m -6.836,6.054 -0.573,0.635 0.634,-0.574 c 0.592,-0.534 0.725,-0.696 0.574,-0.696 -0.033,0 -0.319,0.286 -0.635,0.635 M 165.28,143.75 c 0,0.376 0.04,0.53 0.089,0.342 0.049,-0.188 0.049,-0.496 0,-0.684 -0.049,-0.188 -0.089,-0.034 -0.089,0.342 m 135.782,4.346 -0.574,0.634 0.635,-0.573 c 0.592,-0.535 0.725,-0.696 0.574,-0.696 -0.034,0 -0.32,0.286 -0.635,0.635 m -25.781,22.851 -0.574,0.635 0.635,-0.574 c 0.591,-0.534 0.724,-0.695 0.573,-0.695 -0.033,0 -0.319,0.285 -0.634,0.634 m 43.44,7.703 -5.596,3.418 0.868,1.959 c 7.313,16.493 3.076,34.712 -10.396,44.706 l -1.847,1.37 1.837,1.892 c 2.28,2.348 4.492,4.886 6.276,7.202 l 1.366,1.774 1.679,-1.15 c 19.216,-13.161 24.489,-39.45 12.48,-62.211 -0.631,-1.197 -1.094,-2.23 -1.028,-2.295 0.257,-0.258 -0.228,0.029 -5.639,3.335 m -156.093,6.946 c -1.454,1.932 -4.249,7.721 -5.465,11.317 -8.32,24.602 4.815,45.44 30.378,48.195 2.493,0.269 9.287,0.26 10.897,-0.015 0.698,-0.119 1.357,-0.219 1.464,-0.222 0.108,-0.004 -0.545,-1.517 -1.451,-3.362 l -1.646,-3.356 -1.418,-0.73 c -11.718,-6.033 -18.595,-25.431 -14.685,-41.427 0.629,-2.574 0.657,-2.669 1.316,-4.458 0.35,-0.948 0.605,-1.749 0.568,-1.78 -0.077,-0.066 -19.166,-4.797 -19.355,-4.797 -0.069,0 -0.34,0.286 -0.603,0.635 m 180.917,17.6 c -13.108,3.535 -7.586,46.393 5.967,46.304 5.791,-0.039 9.4,-7.812 9.017,-19.422 -0.53,-16.079 -7.654,-28.859 -14.984,-26.882 m -207.604,11.661 c -14.562,2.95 -17.533,36.379 -3.812,42.879 11.673,5.531 22.431,-14.874 16.969,-32.188 -1.847,-5.854 -6.121,-10.442 -9.881,-10.605 -0.568,-0.025 -1.341,-0.094 -1.717,-0.154 -0.376,-0.06 -1.078,-0.03 -1.559,0.068 m -51.521,3.307 c 0,0.376 0.041,0.53 0.09,0.342 0.049,-0.188 0.049,-0.496 0,-0.684 -0.049,-0.188 -0.09,-0.034 -0.09,0.342 m 24.823,-0.305 c -6.108,1.91 -9.627,16.143 -5.335,21.573 3.14,3.973 8.205,1.764 10.703,-4.666 3.595,-9.253 0.574,-18.765 -5.368,-16.907 m -25.007,2.942 c 10e-4,0.537 0.039,0.733 0.084,0.437 0.045,-0.297 0.044,-0.737 -0.003,-0.977 -0.046,-0.24 -0.083,0.003 -0.081,0.54 m 276.751,0.586 c 0.002,0.429 0.042,0.582 0.089,0.339 0.046,-0.243 0.045,-0.594 -0.004,-0.781 -0.049,-0.187 -0.087,0.012 -0.085,0.442 m 0.211,3.027 c 0,0.806 0.035,1.135 0.077,0.732 0.042,-0.402 0.042,-1.062 0,-1.464 -0.042,-0.403 -0.077,-0.074 -0.077,0.732 M 84.05,225 c 0,0.806 0.035,1.135 0.077,0.732 0.042,-0.402 0.042,-1.062 0,-1.464 -0.042,-0.403 -0.077,-0.074 -0.077,0.732 m -0.195,4.297 c 0,0.806 0.034,1.135 0.076,0.732 0.042,-0.403 0.042,-1.062 0,-1.465 -0.042,-0.402 -0.076,-0.073 -0.076,0.733 m 277.352,1.367 c 0,1.235 0.031,1.741 0.07,1.123 0.039,-0.618 0.039,-1.628 0,-2.246 -0.039,-0.618 -0.07,-0.112 -0.07,1.123 M 83.663,236.23 c -10e-4,0.967 0.033,1.387 0.073,0.934 0.041,-0.453 0.042,-1.244 0.002,-1.758 -0.041,-0.513 -0.074,-0.142 -0.075,0.824 m 0.185,5.958 c 0,0.59 0.036,0.832 0.081,0.537 0.045,-0.296 0.045,-0.779 0,-1.075 -0.045,-0.295 -0.081,-0.053 -0.081,0.538 m 0.182,2.929 c 0,0.376 0.04,0.53 0.089,0.342 0.049,-0.188 0.049,-0.496 0,-0.684 -0.049,-0.188 -0.089,-0.034 -0.089,0.342 m 225.784,10.494 c 0.403,0.042 1.062,0.042 1.465,0 0.403,-0.042 0.074,-0.077 -0.732,-0.077 -0.806,0 -1.135,0.035 -0.733,0.077 m -199.755,58.061 c 0.637,0.644 1.203,1.172 1.257,1.172 0.054,0 -0.424,-0.528 -1.062,-1.172 -0.638,-0.645 -1.204,-1.172 -1.257,-1.172 -0.054,0 0.424,0.527 1.062,1.172 m 3.515,3.711 c 0.529,0.537 1.006,0.976 1.06,0.976 0.053,0 -0.335,-0.439 -0.864,-0.976 -0.53,-0.537 -1.006,-0.977 -1.06,-0.977 -0.054,0 0.335,0.44 0.864,0.977"
       stroke="none"
       fill="#b32b2b"
       fill-rule="evenodd" /><path
       id="path6"
       d="m 304.199,187.429 c -2.578,1.566 -5.487,3.345 -6.464,3.954 l -1.777,1.107 0.68,0.874 c 5.539,7.122 2.095,18.543 -6.362,21.093 -1.449,0.437 -4.784,0.485 -6.096,0.087 -0.284,-0.086 0.127,0.334 0.984,1.004 4.963,3.881 8.714,7.068 11.556,9.818 1.555,1.504 1.377,1.529 4.19,-0.595 11.573,-8.737 15.273,-26.04 8.439,-39.468 -0.451,-0.886 0.36,-1.221 -5.15,2.126 m -117.57,5.486 c -4.844,12.655 -1.607,29.315 7.305,37.594 3.172,2.947 3.561,3.062 8.019,2.378 15.754,-2.417 46.757,-17.945 50.759,-25.423 0.206,-0.385 -1.161,-0.753 -19.439,-5.221 l -4.911,-1.201 0.367,0.856 c 3.724,8.687 -2.846,18.784 -12.233,18.802 -11.832,0.022 -16.836,-15.322 -7.592,-23.279 l 1.068,-0.919 -0.738,-0.198 c -2.384,-0.642 -21.355,-5.288 -21.592,-5.288 -0.181,0 -0.551,0.693 -1.013,1.899 m 87.246,12.924 c -0.995,0.615 -1.894,1.203 -1.997,1.306 -0.161,0.161 6.686,4.183 7.121,4.183 0.073,0 -0.175,-0.36 -0.552,-0.8 -0.878,-1.026 -1.978,-3.278 -2.305,-4.717 -0.14,-0.618 -0.3,-1.116 -0.356,-1.107 -0.056,0.009 -0.916,0.52 -1.911,1.135 m -16.857,3.531 c -4.106,7.704 -30.981,22.827 -47.214,26.568 -1.277,0.294 -1.285,0.286 1.066,1.007 9.858,3.024 12.075,3.411 28.29,4.94 2.901,0.274 5.581,0.543 5.957,0.598 0.376,0.056 3.277,0.321 6.446,0.59 10.442,0.887 18.661,1.988 29.882,4.003 1.773,0.318 4.629,0.758 6.348,0.978 11.161,1.424 20.246,2.542 21.559,2.651 l 1.531,0.128 0.302,-0.605 c 0.366,-0.735 0.006,-1.417 -2.493,-4.723 -4.499,-5.952 -7.849,-9.744 -12.477,-14.123 -9.516,-9.004 -14.862,-13.202 -23.181,-18.206 -5.261,-3.164 -5.899,-3.464 -6.838,-3.211 -0.653,0.176 -6.455,-0.98 -8.328,-1.658 -0.135,-0.049 -0.502,0.41 -0.85,1.063 m -54.284,29.988 c 0,0.915 8.838,17.011 13.244,24.119 7.451,12.019 15.77,22.551 23.053,29.181 14.326,13.042 26.12,15.26 35.041,6.589 2.064,-2.006 2.052,-1.866 0.196,-2.278 -16.245,-3.609 -42.214,-22.363 -58.994,-42.605 -4.446,-5.363 -9.61,-12.855 -9.61,-13.942 0,-0.206 -0.435,-0.446 -1.332,-0.735 -1.4,-0.451 -1.598,-0.492 -1.598,-0.329 m 78.251,22.294 c -2.354,7.882 -1.729,23.35 1.263,31.294 0.884,2.347 0.885,2.952 0.008,3.982 -0.295,0.347 -1.137,1.408 -1.87,2.357 -12.582,16.296 -31.825,12.237 -52.176,-11.004 -5.208,-5.948 -12.641,-16.173 -16.504,-22.705 -0.761,-1.287 -0.75,-1.284 -2.982,-0.719 -14.304,3.618 -39.44,20.445 -48.059,32.174 -1.422,1.934 -2.209,3.202 -4.753,7.657 -1.803,3.156 -4.338,9.066 -5.254,12.252 -0.271,0.942 -0.665,2.24 -0.874,2.884 -2.487,7.644 -2.658,17.772 -0.382,22.591 1.843,3.903 32.976,13.228 48.136,14.419 6.657,0.522 30.711,0.2 36.739,-0.493 13.504,-1.551 24.686,-3.475 31.311,-5.388 1.108,-0.319 3.349,-0.931 4.981,-1.359 4.249,-1.114 10.722,-3.162 15.076,-4.771 0.966,-0.357 2.944,-1.089 4.394,-1.626 9.735,-3.607 23.139,-10.615 29.981,-15.674 1.347,-0.997 4.176,-8.087 5.102,-12.789 1.349,-6.848 -1.166,-18.686 -5.35,-25.183 -5.917,-9.189 -16.681,-18.23 -28.553,-23.981 -7.678,-3.72 -10.025,-4.618 -10.234,-3.918"
       stroke="none"
       fill="#ead59f"
       fill-rule="evenodd"
       style="display:inline" /><path
       id="path0"
       style="display:inline;fill:#ffe632;fill-opacity:1"
       d="m 185.41302,203.84796 c -0.42445,0 -0.76562,0.34117 -0.76562,0.76562 v 5.50391 c 0.89067,8.00265 4.13058,15.6023 9.28711,20.39258 3.17199,2.94698 3.56154,3.06095 8.01953,2.37695 15.75397,-2.417 46.75777,-17.94388 50.75976,-25.42188 0.16608,-0.31039 -3.06998,-1.17147 -12.98632,-3.61718 h -10.35352 c 2.07442,8.17868 -4.18513,16.83489 -12.87695,16.85156 -9.09674,0.0169 -14.12656,-9.04306 -11.7793,-16.85156 z m 113.69922,0 c -0.81683,4.79476 -4.00192,9.15179 -8.83594,10.60937 -1.449,0.437 -4.7837,0.48588 -6.0957,0.0879 -0.284,-0.086 0.12738,0.33391 0.98438,1.00391 4.96299,3.88098 8.71465,7.06642 11.55664,9.81641 1.55499,1.50399 1.37645,1.53024 4.18945,-0.59375 6.57984,-4.96744 10.6046,-12.70493 11.60547,-20.92383 z m -23.32617,0.85547 c -0.056,0.009 -0.91516,0.52172 -1.91016,1.13671 -0.995,0.615 -1.89309,1.20169 -1.99609,1.30469 -0.161,0.161 6.68414,4.1836 7.11914,4.1836 0.073,0 -0.17378,-0.36079 -0.55078,-0.80079 -0.878,-1.02599 -1.97769,-3.27779 -2.30469,-4.71679 -0.14,-0.618 -0.30142,-1.11641 -0.35742,-1.10742 z m -17.91797,3.60351 c -0.135,-0.049 -0.50161,0.4095 -0.84961,1.0625 -4.10599,7.70398 -30.97993,22.82736 -47.21289,26.56836 -1.277,0.294 -1.28654,0.28681 1.06445,1.00781 9.85798,3.024 12.07605,3.41046 28.29102,4.93946 2.90099,0.274 5.58103,0.54265 5.95703,0.59765 0.376,0.056 3.27632,0.32085 6.44531,0.58985 10.44198,0.88699 18.66184,1.9889 29.88282,4.0039 1.77299,0.318 4.62865,0.75852 6.34765,0.97852 11.16098,1.424 20.2456,2.54139 21.5586,2.65039 l 1.53125,0.12695 0.30273,-0.60351 c 0.366,-0.735 0.005,-1.41666 -2.49414,-4.72266 -4.499,-5.95198 -7.84857,-9.74405 -12.47656,-14.12305 -9.51598,-9.00398 -14.86266,-13.20303 -23.18164,-18.20703 -5.26099,-3.16399 -5.8989,-3.46394 -6.83789,-3.21094 -0.653,0.176 -6.45513,-0.9802 -8.32813,-1.6582 z m -55.08008,30.9707 c -0.0404,0.012 -0.0527,0.0393 -0.0527,0.0801 0,0.915 8.83814,17.01116 13.24414,24.11914 7.45098,12.01898 15.76975,22.55166 23.05273,29.18164 14.32598,13.04198 26.12003,15.25889 35.04102,6.58789 2.06399,-2.00598 2.05131,-1.86534 0.19531,-2.27734 -16.24497,-3.609 -42.21418,-22.36351 -58.99414,-42.60547 -4.446,-5.36298 -9.60937,-12.85442 -9.60937,-13.9414 0,-0.206 -0.43504,-0.44538 -1.33204,-0.73438 -1.04999,-0.33825 -1.42361,-0.44625 -1.54492,-0.41016 z" /><path
       id="path9"
       style="display:inline;fill:#ffffff"
       d="m 308.97461,184.70312 c -0.35679,-0.0203 -1.33165,0.63469 -4.77539,2.72656 -2.578,1.566 -5.48786,3.34413 -6.46485,3.95313 l -1.77734,1.10742 0.68164,0.87305 c 5.53899,7.12198 2.0937,18.54375 -6.36328,21.09375 -1.449,0.437 -4.78371,0.48588 -6.09571,0.0879 -0.28399,-0.086 0.12738,0.33391 0.98438,1.00391 4.963,3.88098 8.71465,7.06641 11.55664,9.8164 1.555,1.504 1.37646,1.53025 4.18945,-0.59375 11.57297,-8.73698 15.27344,-26.04077 8.43946,-39.46875 -0.16913,-0.33225 -0.16093,-0.58744 -0.375,-0.59961 z m -121.33203,6.3125 c -0.181,0 -0.55168,0.69244 -1.01368,1.89844 -4.84399,12.65498 -1.60729,29.31671 7.30469,37.5957 3.172,2.94699 3.56155,3.06095 8.01953,2.37696 15.75398,-2.417 46.75777,-17.94389 50.75977,-25.42188 0.206,-0.385 -1.16149,-0.75467 -19.43945,-5.22266 l -4.91211,-1.19921 0.36718,0.85546 c 3.72399,8.68699 -2.84544,18.78279 -12.23242,18.80079 -11.83197,0.022 -16.83578,-15.32037 -7.5918,-23.27735 l 1.06836,-0.91992 -0.73828,-0.19727 c -2.384,-0.64199 -21.35479,-5.28906 -21.59179,-5.28906 z m 88.14257,13.6875 c -0.056,0.009 -0.91515,0.52172 -1.91015,1.13672 -0.995,0.615 -1.8931,1.20169 -1.9961,1.30469 -0.161,0.161 6.68414,4.18359 7.11914,4.18359 0.073,0 -0.17378,-0.36078 -0.55078,-0.80078 -0.878,-1.026 -1.97768,-3.2778 -2.30468,-4.7168 -0.14,-0.618 -0.30143,-1.11641 -0.35743,-1.10742 z m -72.99804,34.57422 c -0.0404,0.012 -0.0527,0.0393 -0.0527,0.0801 0,0.0714 0.14098,0.38434 0.24219,0.62891 h 2.10742 c -0.2079,-0.0954 -0.41539,-0.19039 -0.75195,-0.29883 -1.05,-0.33825 -1.42361,-0.44625 -1.54492,-0.41016 z" /></g></svg>
