<?xml version="1.0" encoding="UTF-8"?>
<!-- Created with Vectornator (http://vectornator.io/) -->
<svg clip-rule="evenodd" stroke-linecap="round" stroke-linejoin="round" stroke-miterlimit="10" version="1.1" viewBox="0 0 2048 2048" xml:space="preserve" xmlns="http://www.w3.org/2000/svg" xmlns:xlink="http://www.w3.org/1999/xlink">

<clipPath id="ArtboardFrame">
<rect width="2048" height="2048"/>
</clipPath>

<g transform="matrix(4.501 0 0 4.501 159.07 592.16)"><g fill-rule="evenodd"><path d="m12.7 16.5a195.5 195.5 0 0 0 16.8 21.2l2.4 2.6a285.7 285.7 0 0 0 14.6 14.6c3 2.9 8.7 7.3 12.3 9.6 3.2 2 3.9 3 3.3 4.3-0.7 1.6-2 1.4-9.3-2.1a138.9 138.9 0 0 1-25.5-16.2 153 153 0 0 1-6.6-5c-1-0.8-1-0.8 0.4 1.7a150 150 0 0 0 18.8 27.3 211.7 211.7 0 0 0 21.1 22.5l4.7 4.2 1.6 1.4a490 490 0 0 0 11.4 9.3l2.6 1.9c1.5 1 4 2.7 7.3 4.6 4 2.3 4.2 2.6 3.6 4-1 2 4.6 25.7 9.8 41.6l3 9.8c2 6.3 4.3 13.2 7.8 22.4 3.5 9.5 10.7 24 15.7 31.4a114.7 114.7 0 0 0 11.5 15.4c4 4.3 10 7.5 17 9 3.8 0.9 4.9 1 5 0.7 0.2-0.2 5-10.5 10.6-23l10.4-22.8-1.8-0.6c-15.6-5.1-27.4-23.8-25-39.3l0.1-1-6-7.5a2331 2331 0 0 0-26.5-32.4l-3.2-4.1c0-0.9 1.2-0.9 3.3 0l4.5 1.4a496.8 496.8 0 0 0 40.4 13.4l7 2.2a226 226 0 0 1 34.9 13.6c5.3 2.7 5.6 3 7.3 8.6l1.4 4.1a493 493 0 0 1 2.8 8c2.6 7.5 4 11 4 10.6l2-5.6 2.6-8.5c2.9-11.7 6.3-38.8 6.5-52.3 0-4.4 0.1-4.8 0.7-4.8 0.4 0 1 1 1.8 3.4l2.2 5.2c4.8 10 7.2 17.2 10.3 31.3 2.4 10.6 4.7 27 4 27.8 0 0.1 0 0.4 0.4 0.7l0.6 0.5v-3.3c0.5-13.4 7-25.8 16.6-31.5a178.3 178.3 0 0 1 37-16l1.3-0.6v-1.8c-0.8-9.8-4.1-18.7-8.6-23.1a78.4 78.4 0 0 0-41.6-19.7l-9.5-1.7a101.5 101.5 0 0 0-15.5-1.9c-3.3-0.4-9.6-0.8-15-0.8a284 284 0 0 1-22.9-1 172 172 0 0 1-12.8-1.1l-7-0.7c-9.2-0.7-11-1-14.4-1.6-4.7-0.9-6.5-1.2-10-1.5-3.7-0.4-5.3-0.7-12-2.2l-7-1.5a259.1 259.1 0 0 1-35.8-11.7l-7-2.6a171 171 0 0 1-14.5-5.8 533.8 533.8 0 0 0-15.7-7l-14.3-6.5a119.6 119.6 0 0 1-35.8-21.8l-0.8-0.7 0.7 1m163.1 135.5h1.5l-0.7-0.1h-0.8m135.4 2-2.3 2.6-4 4.6-3 3.4 0.3 1.1c3 12-2.8 28.3-12.8 35.8-2.5 1.8-7.3 4-9 4-0.7 0-0.7 0 0.6 6.7 1.9 9 3.7 15.8 4.3 16.6a151.6 151.6 0 0 0 14.9-28.6 187.3 187.3 0 0 0 12.4-47.6l-1.4 1.4m-146.2 2.8-0.7 0.8 0.8-0.8c0.8-0.7 1-0.9 0.8-0.9l-0.9 0.9m19.8 3h1.2-1.2m99.2 2.3 0.8 0.8-0.6-0.8-0.9-0.8 0.7 0.8m-124 8.9v1.2a28.3 28.3 0 0 0 0-1.2m139.2 1.6v1-1.9 1m-124.8 1.8v1-1.8 0.8m114.2-0.3c0 0.5 0 0.7 0.1 0.4v-0.8 0.4m-22.2 0v0.8c0.1 0.4 0.2 0.3 0.2-0.4 0-0.8 0-1-0.2-0.4m-25 1h1.6c0.5-0.1 0.1-0.2-0.8-0.2-1 0-1.3 0-0.8 0.1m47.1 2c0 0.5 0 0.7 0.1 0.4v-1 0.5m-22.1 2.3v0.3-0.7 0.4m-38 2.6-1.5 1.4 1.5-1.4c1.3-1.2 1.5-1.5 1.3-1.5l-1.4 1.5m36.5 2v0.4-1 0.6m0.2 3.3v0.3c0.1-0.2 0.1-0.6 0-0.8v0.5m-85.6 2.7 0.6 0.6 0.7 0.6-0.6-0.6c-0.5-0.6-0.7-0.8-0.7-0.6m97 3.4h0.9l-0.4-0.1h-0.5m-106.8 1.4 0.8 0.7-0.6-0.7-0.7-0.7 0.5 0.7m107.9 7.3h0.7l-0.4-0.1h-0.3m-89.5 2h1.8-1.8m27.5 13.6 0.7 0.7 0.6 0.5-0.6-0.6c-0.5-0.6-0.7-0.7-0.7-0.6m33.8 5.7-0.8 0.9 1-0.9 0.8-0.9-1 1m-51.3 7-0.5 0.5 0.6-0.5 0.6-0.7-0.7 0.6m-4 4.2-0.6 0.7 0.7-0.6 0.7-0.8-0.8 0.7m50.6 16.6h1.2-1.2m-4.1 0.2h1.3-1.4m-3.8 0.2h1-1m-2.7 0.2h0.8l-0.4-0.1h-0.4m-3 0.3h1c0.4 0 0.1-0.1-0.5-0.1h-0.5m-4.1 0.3h1.5l-0.8-0.1h-0.7m-3.3 0.3h1l-0.6-0.1h-0.4m-2.8 0.3h0.7l-0.4-0.1h-0.3m-2.8 0.3h0.9l-0.4-0.1h-0.5m-4.4 0.3h1.8l-1-0.1h-0.8m-3.3 0.3h1l-0.6-0.1h-0.4m-3.3 0.3h1c0.3 0 0.1-0.1-0.5-0.1h-0.5m-3.3 0.2h1-1m-3.2 0.2h1.1-1.1m-3.5 0.2h1-1m-3.1 0.2h1-1m-22.5 0.2h1.5-1.5m17.7 0h2-2" fill="#abb3c3"/><path d="m1 0.3c-0.7 0.4-1 1-1 1.9a70.9 70.9 0 0 0 11 18.5l0.9 1.3a60.8 60.8 0 0 0 4.5 6l1.5 2 2.4 3 0.7 0.9 1.4 1.5a197 197 0 0 0 7.2 8c4.3 4.7 4.2 4.6 9.5 9.8a41 41 0 0 1 2.3 2.3 124.9 124.9 0 0 0-8-5.4l-1-0.7-1.3-1-1.4-1-1.3-0.9a40.8 40.8 0 0 1-5.2-4 23 23 0 0 0-2.2-1.8l-1.7-1.5a26.7 26.7 0 0 1-3.7-3.6c0-0.1-0.3-0.4-0.7-0.6-0.7-0.5-1.6-0.6-1.6-0.3 0 0.2-0.1 0.2-0.3 0.2-0.4 0-1 1-1 1.6a114.7 114.7 0 0 0 17.8 31.3l0.8 1.1 0.6 0.8 1.4 1.8 0.6 0.7 0.6 0.8 0.6 0.7 0.8 1.1a35.3 35.3 0 0 1 2.8 3.4 176.5 176.5 0 0 1 4.2 5 243.4 243.4 0 0 0 36.4 33.6c0.7 0.6 4.9 3.3 7.4 4.7 1.8 1.1 1.9 1.2 1.9 1.8a117.8 117.8 0 0 0 2.8 15.1l0.8 3.5a704.8 704.8 0 0 0 6.6 23 493.4 493.4 0 0 1 3.7 11.9c0.1 0.5 0 0.7-0.3 0.4l-1.9-1a311.2 311.2 0 0 1-32.2-17.7l-1.6-1.2-5-3.7c-1.2-1.3-3.7-2.6-4.3-2.2-1.1 0.6-0.7 2 1.7 6.2a68.6 68.6 0 0 1 3.5 6.4 54.5 54.5 0 0 1 3.1 5.4l1.6 2.8a168.6 168.6 0 0 0 5.8 10 205.5 205.5 0 0 0 12.5 18.7c2.9 4 4.7 5.2 7.1 4.4 1.2-0.3 1-0.2 6-2.6a132.6 132.6 0 0 1 8.2-3.7l1.5-0.9 1.4-0.8 0.4 1.2a64.5 64.5 0 0 0-9.4 5.7c-2.1 1.5-3 2.5-3 3.3 0 0.7 0.3 1.7 0.5 1.7a54.4 54.4 0 0 0 6.5 8.4c2.3 2.7 6.2 6.5 7.9 7.7 2 1.3 4 0.5 4.6-1.7 0.1-0.6 2-4.8 2-5l1.3 2a113.6 113.6 0 0 0 20.2 27.5c1.9 1.7 6.7 4.6 9.8 5.8 10 4 24.5 4.9 51.6 3.3a1725.6 1725.6 0 0 1 26.6-1.6 421.8 421.8 0 0 1 15.7-0.9c6.8-0.2 7.4-0.3 11.8-0.7 11.2-1.2 14.3-2.5 21.4-9.4a84.4 84.4 0 0 0 10.7-11.9c2.7-3.1 9.5-15.9 14.2-26.4l2.4-5.3a95.6 95.6 0 0 0 5.9-16.4c0.8-2.8 3.2-11.7 4.2-16.4 2.5-10.7 3.2-23.2 2.2-36.3-1-13.8-2.7-19.5-8-27.2a70.7 70.7 0 0 0-25.5-17 95.1 95.1 0 0 0-26-7 107.5 107.5 0 0 0-18.5-2.5c-4-0.5-10.5-0.9-16-0.9s-8.6-0.1-18.1-0.7c-8.9-0.5-11-0.7-16-1.2-2.6-0.3-7.6-0.8-11-1-7.6-0.7-7.5-0.7-11.3-1.4a230.7 230.7 0 0 1-63.8-16.4 86 86 0 0 0-4.6-1.8 169.7 169.7 0 0 1-22.4-9.2l-3-1.3a321.8 321.8 0 0 1-12.6-5.6 1134 1134 0 0 1-12.6-5.7 115.4 115.4 0 0 1-30.2-18.4l-1.6-1.4a256.8 256.8 0 0 1-10.7-11c-0.8-1.2-1.5-1.8-1.7-1.8s-0.3-0.1-0.3-0.2c0-0.3-1-0.2-1.6 0.1m13.2 16.8c9.7 8.7 16 12.5 34.2 20.6a1916.3 1916.3 0 0 1 25.1 11.3l7.7 3.4c4.3 2 8 3.4 12.3 4.9a232 232 0 0 1 14.2 5.3l6.2 2.2a238.2 238.2 0 0 0 51.2 11.8c3.6 0.7 5.8 1 10.6 1.3 5.8 0.4 7.8 0.6 12.4 1.2l8 0.8c16 1 19.7 1.1 26.3 1.1a132 132 0 0 1 19.7 1.3c4.7 0.4 7 0.7 11.8 1.7l7.4 1.3a91.2 91.2 0 0 1 33.6 12.8c3.3 2 9.1 6.8 10.5 8.6 5.4 7.3 7 14.3 7.9 32.2 0.5 11-0.7 21.1-3.8 33.8a153.5 153.5 0 0 1-11.9 34c-9.2 20.5-17.4 31.8-28.5 39.5-3 2.2-3.9 2.5-6.7 3-4.5 1-9.6 1.4-20 2a364.2 364.2 0 0 0-13.2 0.7 551.3 551.3 0 0 0-16.7 1l-11.8 0.7c-35.3 2.2-50.7-0.5-60.5-10.6-13.4-13.8-26-38.5-35.3-69.4l-3-9.7c-5.1-15.7-10.8-39.4-9.8-41.4 0.4-0.9-0.2-2.4-1-2.4-0.2 0-7-4.2-9-5.5a229 229 0 0 1-55.6-58.3c-4-6-8.1-13.9-6.2-11.5 0.8 1 14.4 10.9 19.8 14.4 4 2.5 9 5.5 11.6 6.7 8.3 4 9 4.2 10 3.2 1.3-1.2 0.7-2.1-3-4.6-8.6-5.7-18.7-15-31-28.9a256.2 256.2 0 0 1-15-19c-1.2-1.8-1.1-1.8 1.6 0.5m155.2 126.3c-7.3 0.7-12.6 3-18.9 8.3a32.5 32.5 0 0 1-2.7 2.2c-0.8 0 0 1 4.2 6.4l4.7 5.8-0.2 1a38.6 38.6 0 0 0 24.2 38.8c22 7.6 36.3-14.7 24.3-37.9-8.4-16-22.6-26-35.6-24.6m119.7 3.3c-4 0.4-9.5 3.4-14.7 8.1a40.5 40.5 0 0 0-13 28.6v2.2l-2.4-2.3c-11-10.4-20.9-10.7-30.6-1a66 66 0 0 0-17 26c-1.1 2.4-1 3.4 0.2 4.3 0.4 0.2 1 1 1.6 1.6a63 63 0 0 0 15.6 14c6.4 2.8 14.4 0.7 21.3-5.7l2.5-2.3 0.4-0.3 1.4 2.7a37.8 37.8 0 0 1 3 7.4l1.4 4.2c1 3.2 1.4 3.7 2.5 3a74 74 0 0 0 7.3-21.2l2.3-11.4 0.1-0.9 1.3 0.6c12.4 5.6 27.8-8.4 30.4-27.5 0.3-2.5 0-8.5-0.4-10.6l-0.4-1.6 2-2.3c7-8 6.6-7.2 4.4-9.3-4.8-4.5-12.5-7-19.2-6.3m-108.3 5.6c17.5 3.6 30.3 27 23 42.2-8.2 17.5-34.4 9.2-42.2-13.4-6-17.4 3.7-32 19.2-28.8m109.2 2.8c14 5.2 11.6 34-3.7 44.1-6.1 4-14.7 3.4-15.4-1-0.5-3-1.4-4.6-4.3-7.5-1.2-1.3-1.8-2.1-1.7-2.3l0.1-4.4c0-4.4 0.5-7.3 1.5-10.2l0.3-1v3c-0.6 16.8 12.7 23.7 19.5 10.2 6.2-12.5-1-29.6-11-26l-1.3 0.5 1.2-1c4.7-4.4 10.4-6 14.8-4.4m-106.2 4.9c-7.6 1.2-11.5 12.2-8 22.6 6 17.8 24.2 16 24.2-2.4 0-11.5-8-21.5-16.2-20.2m63.2 19.6c4 1.4 5.6 2.6 12.9 9.5 9 8.6 9 8.7 5.8 23.1-1.4 7-4.2 17-4.8 17.6 0 0.1-0.3-0.2-0.4-0.7-6.1-19.6-15.2-25.4-34-21.6-4.7 1-11.5 1.8-11.5 1.5a68.4 68.4 0 0 1 14.3-22.8c6.3-6.8 11.4-8.7 17.7-6.6m-6 30.6a15 15 0 0 1 9.6 6.4c0.5 0.9-5.1 5.8-8.5 7.5-8.3 4-13.2 2.3-23-8.2-3.2-3.4-3.3-3.5-2-3.5 1.7 0 6.7-0.7 10.1-1.5a34.7 34.7 0 0 1 13.7-0.7" fill="#040404"/><path d="m208.3 80.8h1l-0.5-0.1h-0.5m-87.2 40.8c-0.4 0.5-0.2 0.9 3.4 5.2 2 2.3 7.8 9.5 13 16l9.6 11.6 0.7-0.6a69 69 0 0 0 2.6-2c13.9-12 30.5-11.2 44 1.7 3 2.8 8.1 9.9 10.5 14.4 11.4 20.9-0.4 43.6-20.3 39.3-0.7-0.1-1.3-0.2-1.4-0.1a119082 119082 0 0 1-21 46c0 0.1 5.2 0.7 6.5 0.7 1.6 0 1.4 0.2 6.4-3.5l4.3-3.1c2.6-1.8 11.7-9.9 15.6-13.8 8-8.2 17.2-20 16.2-20.8-1.1-1-1-1.8 0.1-4.3l1.8-4a67.7 67.7 0 0 1 6.3-11.6 73 73 0 0 1 4.8-6.1l2-2.3-0.8-1.8a804.2 804.2 0 0 1-7.5-21.5c-1.8-5.7-2.3-6.1-12.4-10.7a225 225 0 0 0-29.6-11 1576.3 1576.3 0 0 1-11.5-3.7 500.7 500.7 0 0 1-35.4-11.8 74 74 0 0 1-4.4-1.4c-2.6-1-3.2-1.1-3.5-0.8m191.2 8.3c0 0.7-0.6 1-8.7 3.7-13.9 4.6-30 12.8-34.7 17.4-6.8 6.7-11 17-11.4 27.6l-0.1 3.1 1.8 1.8 1.8 1.7 0.2-2.6c0.7-15 10.4-29.2 23.6-34.8 7-3 17.7-0.4 23.9 5.7l1.4 1.4 1.3-1.2c0.6-0.7 1.2-1.2 1.3-1.2a145.2 145.2 0 0 0-0.4-22.6m-156.2 39.5v0.4-0.7 0.3m115 35-0.2 0.4c0 0.6-2.2 11.2-3 14l-0.5 2 0.6 1.8c1.3 4 3 7.3 6.6 13.3 1.9 3.2 2.2 3.6 2.6 3.2l4.3-4.7a27 27 0 0 0 3.7-5.4c-0.5-1.2-1.3-4-2-6.8-0.8-3-1.3-5.4-3.3-15l-0.3-1.6-1.5 0.1c-1.7 0-3.9-0.3-5.6-1-1.4-0.6-1.3-0.6-1.5-0.4m-86.4 50h0.7-0.7" fill="#6b737b"/><path transform="translate(-35.4,-70.1)" d="m247.1 283.3-0.4 0.2-0.5 0.7a201.7 201.7 0 0 0-3.4 5 82 82 0 0 1-6 7.5 165.5 165.5 0 0 1-20.2 19.2l-2.4 1.9c-1 0.6-3.3 2.3-5.1 3.7l-3.3 2.4 2.2 0.2 5 0.1a311.8 311.8 0 0 0 24.1-0.8 1375.7 1375.7 0 0 1 21.8-1.2 999.6 999.6 0 0 1 25.9-1.6 210.4 210.4 0 0 0 14.8-1.9c0.5 0 1-0.2 1.2-0.3a50.9 50.9 0 0 0 10.4-7.9l1-0.9-0.6-0.7-1.6-2.5a723.2 723.2 0 0 0-3.6-6.3 60.3 60.3 0 0 1-3.8-8.5l-0.2 0.5a86.3 86.3 0 0 1-5.2 14.8c-0.2 0.4-0.4 0.6-0.7 0.8a1 1 0 0 1-0.3 0.1h-0.3a1 1 0 0 1-0.4-0.1l-0.3-0.3-0.6-1-0.6-1.6a145 145 0 0 0-4.6-12.1l-1.2-2.5-2 1.8a71.4 71.4 0 0 1-4 3.5 18.5 18.5 0 0 1-3.8 2.2 26.9 26.9 0 0 1-6.7 2 14.6 14.6 0 0 1-8.7-1.8 25 25 0 0 1-5.2-3.6 51.7 51.7 0 0 1-5.4-5.2 95.3 95.3 0 0 1-5.3-5.8z" fill="#ffffed"/><path transform="translate(-35.4,-70.1)" d="m322.4 224.8a12.6 12.6 0 0 0-3.6 0.3 13.5 13.5 0 0 0-3.7 1.4 20 20 0 0 0-4.8 3.5h0.2l0.7-0.2a8.4 8.4 0 0 1 2.7-0.4 7.1 7.1 0 0 1 2.5 0.6 8.4 8.4 0 0 1 2.9 2.1 12.6 12.6 0 0 1 2.3 3.2 18.5 18.5 0 0 1 2 6.4 24.8 24.8 0 0 1-3.3 17 14.5 14.5 0 0 1-2.9 3 9.2 9.2 0 0 1-3.1 1.5 7.3 7.3 0 0 1-4.8-0.4 9 9 0 0 1-2.9-2 12.4 12.4 0 0 1-2.4-3.2 17.3 17.3 0 0 1-1.7-4.4 23.4 23.4 0 0 1-0.7-5.3 18 18 0 0 0-0.3-2.3h-0.2l-0.2 0.9a62 62 0 0 0-0.7 10.7l-0.1 1.4v0.2l0.3 0.3 1 1.1a29.4 29.4 0 0 1 3.4 4.2 10.7 10.7 0 0 1 1.4 4.2 2.4 2.4 0 0 0 0.4 1.1l0.5 0.5 0.5 0.4c0.4 0.3 1 0.5 1.5 0.7l1.7 0.4a13.4 13.4 0 0 0 4 0 15.4 15.4 0 0 0 7.8-3.5 22.8 22.8 0 0 0 5.7-6 29.5 29.5 0 0 0 4.4-9.5 37 37 0 0 0 0.8-16 24.4 24.4 0 0 0-2.5-6.4 14.1 14.1 0 0 0-3-3.5 10.2 10.2 0 0 0-5.8-2zm-110.8-2.6a19 19 0 0 0-6.5 1.4 15 15 0 0 0-8.1 8.4 19.7 19.7 0 0 0-1.6 6.1v1.7l-0.1 1.7a29.6 29.6 0 0 0 2 10.5 35.7 35.7 0 0 0 18.3 20 25 25 0 0 0 9.1 1.8 18.5 18.5 0 0 0 6.2-1.2 15.5 15.5 0 0 0 9.2-10.7 23.2 23.2 0 0 0 0.8-9.4 29.6 29.6 0 0 0-2.4-9.5 36.8 36.8 0 0 0-19.9-19.7 22.9 22.9 0 0 0-7-1.1zm9.2 7.5a9 9 0 0 1 3.9 1 12.7 12.7 0 0 1 2.8 1.6 16.1 16.1 0 0 1 3.2 3.3 21.4 21.4 0 0 1 3.4 6.5 26.7 26.7 0 0 1 1.2 12.2 18.3 18.3 0 0 1-1.3 4.3 13.7 13.7 0 0 1-2.5 3.6 11.5 11.5 0 0 1-3.3 2.3 8.9 8.9 0 0 1-5.2 0.6 10.6 10.6 0 0 1-3.5-1.3 14.2 14.2 0 0 1-3.3-2.4 18.7 18.7 0 0 1-4-5.6 24.3 24.3 0 0 1-2.6-10.1 21.3 21.3 0 0 1 1-7.2 16.7 16.7 0 0 1 2-4.2 13 13 0 0 1 3-3 9.8 9.8 0 0 1 3.9-1.5h1.3z" fill="#fff"/><path transform="translate(-35.4,-70.1)" d="m273.3 182.9h-0.2l-0.1 0.4-0.1 0.8-0.1 3.5a139.6 139.6 0 0 1-0.8 12.2 356.5 356.5 0 0 1-5.8 40.1 80.2 80.2 0 0 1-2.6 8.6l-1.9 5.5a39.6 39.6 0 0 0 3.6-3.4 28.6 28.6 0 0 1 6.5-4 18 18 0 0 1 6.6-1.4 16.2 16.2 0 0 1 6.8 1.6 22.2 22.2 0 0 1 5 3l1 0.7h0.5l0.1-0.2v-1.9a201.6 201.6 0 0 0-9.7-46.4 79.3 79.3 0 0 0-4.7-10.6 51.8 51.8 0 0 1-2.9-7l-0.5-1.1-0.2-0.3-0.2-0.1z" fill="#ffffed"/><path d="m240.6 178.9c-5.6 1-12.2 7-19.4 17.6a46.2 46.2 0 0 0-5.8 12.4l2.5-0.3c3.1-0.3 4.9-0.5 8-1.2 9.1-2 14.9-1.8 19.8 0.4 1.6 0.7 1.5 0.9 0.2-1.6a68.1 68.1 0 0 1-3.5-8c-1.1-3-0.3-4.5 6-11.2 4.2-4.7 4.2-4.5 3-5.3-3-2-8.1-3.3-10.8-2.8m-6.5 31c-2.7 0.2-3.8 0.4-8.4 1.4l-6.1 1-3.4 0.3 1.2 1.2c7.8 8.7 12.5 12 17 12 5 0 9-1.9 14-6.7l2.4-2.2-0.7-0.9c-3.3-4.6-8.3-6.5-16-6" fill="#f9b943"/></g><path transform="translate(-35.4,-70.1)" d="m287.4 252.3v0.1c0.2 0.4-0.4 1.1-3.7 4.8-6.2 6.7-7 8.2-6 11.2a69.3 69.3 0 0 0 4.6 10l1.4 1.1a38.1 38.1 0 0 1 12.1 19.6c0.2 0.5 0.4 0.9 0.5 0.8 0.3-0.3 2.7-8.5 3.6-12.4 4.2-18 4.1-19.7-1.3-25.1a86.9 86.9 0 0 0-11.2-10zm-23 4.3-0.6 0.7-0.6 0.6 0.6-0.6c0.6-0.5 0.7-0.7 0.6-0.7zm7.7 19.6c-1.5 0-2 0-1.3 0.1a31.3 31.3 0 0 0 1.3 0zm-4.5 0.2c-0.4 0-0.6 0-0.4 0.1h0.7-0.3zm-14.8 2.4h-0.5 1.2zm21.1 1.1c-0.4 0-0.6 0-0.3 0.1h0.8-0.5zm-3.4 0c-0.8 0-1.1 0-0.7 0.1h1.4-0.7zm-18 2.6h-0.4 0.9zm31.5 6.5-1 0.8-0.8 1 1-1z" fill="#c85324"/><path d="m29.1 37.5 0.6 0.7 0.7 0.6-0.6-0.7c-0.5-0.6-0.7-0.7-0.7-0.6m15.2 15.7 0.8 0.7-0.6-0.7-0.7-0.7 0.5 0.7m131.7 24.8h0.7-0.7m20.1 2h0.7-0.7m3.9 0.2h0.8-0.8m6 0.4h0.8l-0.5-0.1h-0.3m3.8 0.3h0.7l-0.3-0.1h-0.4m4 0.3h0.9l-0.5-0.1h-0.5m14.2 0.3h0.8l-0.5-0.1h-0.3m-178.1 5 0.6 0.7 0.7 0.6-0.6-0.7c-0.5-0.5-0.7-0.7-0.7-0.5m5.6 5.8 1.8 1.7-1.6-1.7a25 25 0 0 0-1.9-1.8l1.7 1.8m5.4 5.2 0.9 0.8-0.7-0.8-0.8-0.7 0.6 0.7m251.8 35v0.5-1.3 0.7m0.2 2.5v0.6-1.2 0.6m0.2 3.4v0.9-1.8 0.9m0.2 5.2v1-2 1m-143.5 0h0.9-0.9m3.5 0h0.9-0.9m139.8 5.1v1.2a28.3 28.3 0 0 0 0-1.2m-23.4-1.7h0.8-0.8m23.1 5.1c0 0.4 0 0.6 0.1 0.4v-0.7 0.3m-4.1 1.8 1 1-0.8-1-1-1 0.8 1m-114.2 0 1.3 1.3-0.6-0.7c-0.5-0.6-0.7-0.7-0.7-0.5m80.1 0.8-0.7 0.8 0.8-0.7c0.6-0.6 0.8-0.8 0.6-0.8l-0.7 0.7m-2.2 2-0.6 0.7 1.4-1.4-0.8 0.7m2.1 3.6-0.6 0.6 0.7-0.5c0.6-0.6 0.7-0.7 0.5-0.7l-0.6 0.6m-71.9 4.2 0.7 0.8c0.1 0-0.6-1.2-1-1.4l0.3 0.6m63.1 1.6-0.2 0.6 0.4-0.6 0.2-0.6-0.4 0.6m-0.7 1.5c-0.5 1-0.4 1.1 0 0.2l0.4-0.8-0.4 0.6m-59.7 1.5 0.7 1.2c0.1 0-1-2.4-1.2-2.4l0.5 1.2m-49.2 2.2c0 0.6 0 0.9 0.1 0.5v-1.2 0.7m3.4 0c0 0.5 0 0.7 0.1 0.4v-1 0.6m143.1 1.5v1-1.8 0.8m-95.4 1.3 0.2 0.7c0.1 0.2 0.2 0.3 0.2 0 0 0 0-0.4-0.2-0.6 0-0.2-0.2-0.3-0.2 0m59 3c0 0.4 0 0.6 0.1 0.4v-0.7 0.3m-66.5 2.5c0 0.4 0 0.6 0.1 0.3v-0.8 0.5m61.3 0.7v0.4-0.9 0.5m-52.4 0.5c0 0.4 0 0.6 0.1 0.4v-0.7 0.3m-9 0.4v0.5-0.9 0.4m61 2.2v2l-1.2-1.1-1.2-1.2 1.3 1.3 1.2 1.3v-3.2 0.9m-3.8-1.3 0.9 0.7c0.4 0.3 0.4 0.2-0.7-0.7l-0.7-0.6 0.5 0.6m-48.2 1.2c0 0.8 0 1.2 0.1 0.7v-1.5 0.8m17.8 0.2-0.7 0.9 1-1 0.7-0.8-1 0.9m3.7 1.3-1.2 1.2 1.2-1.1a20 20 0 0 0 1.2-1.3c0-0.1-0.2 0-1.2 1.2m-5.4 0.5-0.7 0.7 0.7-0.7c0.7-0.6 0.9-0.7 0.7-0.7l-0.7 0.7m-16.2 1.6c0 0.8 0 1.1 0.1 0.7v-1.4 0.7m14.3 0.4a7 7 0 0 0-0.9 1.2l1.1-1.2a7 7 0 0 0 1-1.2l-1.2 1.2m-14.6 1.7c0 0.4 0 0.6 0.1 0.4v-0.7 0.3m13 0.1-0.8 1.1s0.4-0.3 0.7-0.8c0.7-0.8 0.8-1 0.1-0.3m44 1.3 1.3 1.2-1-1.2-1.3-1.2 1 1.2m-70.3 2-0.6 0.7 0.6-0.6c0.6-0.6 0.8-0.7 0.6-0.7l-0.6 0.6m-7 2.8h0.8-0.8m15.7 5c-0.4 0.5-0.5 0.7-0.3 0.6 0.3-0.3 1.2-1.4 1-1.4l-0.7 0.8m-2.4 2.5-1 1 1-0.8c0.9-0.7 1.4-1.2 1.2-1.2l-1.2 1m11.8-0.5c-0.3 0.8-0.3 1 0 0.3 0.3-0.3 0.4-0.6 0.3-0.7l-0.3 0.4m57 2s0.2 0.2 0.5 0.2c0.6 0 0.6 0 0-0.3-0.4-0.2-0.5-0.2-0.5 0m6.1 1.7h1.8-1.8m-91.1 1.7h0.8-0.8m5.4 0h0.6-0.6m-3.2 0.2h1.8-1.8m22.4 2.4-0.1 0.6c0 0.2 0 0 0.2-0.3 0.1-0.6 0-0.9-0.1-0.3m7.8 5.1 0.8 0.8-0.6-0.8-0.9-0.8s0.2 0.4 0.7 0.8m-2.9 2c0.8 0.9 1 1 1 0.9l-1-1-0.9-0.8 1 1m6 1.4 1.1 1-0.8-1-1-1 0.8 1m-2.6 2.5 1.8 1.6-3.3-3.3 1.5 1.7m65.9 8.7-0.4 0.6 0.6-0.6 0.3-0.6s-0.3 0.2-0.5 0.6m-0.8 1-0.8 1.1 0.7-0.7c0.5-0.7 0.6-1 0-0.3m-3.7 4.8-0.6 0.6 0.6-0.6c0.6-0.5 0.7-0.7 0.6-0.7l-0.6 0.7m-2.2 2.3-1 1 1-1c1-0.8 1.2-1 1-1l-1 1m-2.1 2.4-0.8 0.8 0.8-0.8c0.8-0.7 1-0.9 0.8-0.9l-0.8 0.9m-36.6 11h0.7l-0.4-0.1h-0.3m-75.7 2.2h0.8-0.8m1.6 0.2h0.9-0.9m2.2 0.2h1.5-1.5m6.9 0.4h0.6-0.6m12 0h2-2.1" fill="#4c545a" fill-rule="evenodd"/><path d="m197.4 80.2h0.9-0.9m13.6 0.8h0.7l-0.4-0.1h-0.3m58.8 69-0.6 0.7 0.7-0.6c0.6-0.5 0.7-0.7 0.5-0.7l-0.6 0.6m41.4 4-1.3 1.4 1.4-1.4c1.3-1.3 1.5-1.5 1.3-1.5l-1.4 1.4m-25.8 1h0.7c0.2-0.1 0-0.2-0.4-0.2-0.3 0-0.5 0-0.3 0.1m3.1 21c0 0.3 0 0.5 0.1 0.3v-0.7 0.4m-23.7 6.8v0.3-0.6 0.3m-59.2 2.4c0 0.7 0 1 0.1 0.6v-1.2 0.6m83.8 11.4-0.6 0.8 0.7-0.7c0.7-0.6 0.8-0.8 0.7-0.8l-0.8 0.7m2.9 2.5-0.6 0.6 0.6-0.6c0.6-0.5 0.8-0.7 0.6-0.7l-0.6 0.7m-96.1 33.2-1.2 1.2 1.2-1.2 1.3-1.2c0-0.1-0.2 0-1.3 1.2m-4.1 4-0.6 0.7 0.6-0.6c0.6-0.5 0.8-0.7 0.6-0.7l-0.6 0.7m-10.3 18.1h1-1" fill="#828789" fill-rule="evenodd"/></g></svg>
