<?xml version="1.0" encoding="UTF-8" standalone="no"?>
<svg
   width="104.66489"
   height="74.720238"
   version="1.1"
   id="svg890"
   sodipodi:docname="hacker-hat.svg"
   inkscape:version="1.2.2 (732a01da63, 2022-12-09)"
   xmlns:inkscape="http://www.inkscape.org/namespaces/inkscape"
   xmlns:sodipodi="http://sodipodi.sourceforge.net/DTD/sodipodi-0.dtd"
   xmlns="http://www.w3.org/2000/svg"
   xmlns:svg="http://www.w3.org/2000/svg">
  <defs
     id="defs894" />
  <sodipodi:namedview
     id="namedview892"
     pagecolor="#ffffff"
     bordercolor="#000000"
     borderopacity="0.25"
     inkscape:showpageshadow="2"
     inkscape:pageopacity="0.0"
     inkscape:pagecheckerboard="0"
     inkscape:deskcolor="#d1d1d1"
     showgrid="false"
     inkscape:zoom="2.01"
     inkscape:cx="39.303483"
     inkscape:cy="50.497512"
     inkscape:window-width="1920"
     inkscape:window-height="991"
     inkscape:window-x="-9"
     inkscape:window-y="-9"
     inkscape:window-maximized="1"
     inkscape:current-layer="svg890" />
  <g
     fill-rule="evenodd"
     id="g888"
     transform="translate(-141.75073,-109.88453)">
    <path
       fill="#1b1b1b"
       d="m 187.3,109.9 h 0.7 -0.7 m -12.9,3.8 c -1.2,0.7 -3.2,0.6 -4.6,1 -1.8,-0.8 -7.8,4.8 -8.1,7.3 -1.2,4.3 -3.2,11 -2.1,15.3 -0.4,2 -0.3,5 0,6.8 -0.5,1.4 -1.6,9.4 -2.9,10.6 -2.2,2 -3,4.8 -5.1,6.9 -6,7.3 -6.8,8 -5.6,9.7 l 3.9,4.1 c 1.2,1 4.5,2.8 5.1,2.6 l 12.1,3.1 c 6.8,1 13.4,-0.4 20.2,0.4 l 4.9,-0.3 c 3,1.3 9,0.7 12.6,0.3 a 58.1,58.1 0 0 0 34.7,-11 c 4.2,-4 3.7,-5.2 -1,-9.5 l -4.7,-4.4 -2.2,-2.3 c -4.5,0.4 -5.6,0.9 -2,-3 l -0.8,-5.2 c 1.1,3 0.2,-2.3 -0.3,-4.7 0.3,-4.8 -0.9,-7.7 -1.7,-13.2 0.2,-3.1 -2.6,-6.6 -2.7,-7.4 -0.3,-0.8 -6.6,-7.4 -7.6,-7.7 l -7.6,-0.5 m 26.5,53.1 c -1,2.5 0,0 0,0 m -83.7,14.5 c 0.5,0.4 2,1 2.4,1 0.9,0 -0.5,-0.7 -2.3,-1.2 l -0.5,-0.2 0.4,0.4"
       id="path874" />
    <path
       fill="#23f804"
       d="m 190.4,113.8 c -0.2,0.2 -0.2,2.1 0,2.7 1,2.7 3.5,1.5 3.5,-1.6 0,-1.7 -1,-1.6 -1.2,0.1 -0.1,2.3 -1.1,2.2 -1.3,0 0,-1.3 -0.5,-1.8 -1,-1.2 m 21.2,1.4 c 0,1.5 0,1.5 0.5,1.5 0.6,0 0.9,-2.5 0.4,-2.9 -0.8,-0.5 -1,-0.2 -1,1.4 m -31,-1 c -0.2,0.3 -0.2,1 -0.2,1.7 0.3,4 4,3.2 4,-0.8 v -1.2 h -1.2 v 0.9 c 0.1,1 -0.4,2.2 -0.9,2.3 -0.5,0.1 -0.8,-1 -0.7,-2.2 0.2,-1.2 -0.5,-1.6 -1,-0.6 m 20.7,0.4 c 0,3 3.2,2.9 3.6,0 0.2,-1.2 -1,-1.3 -1.3,0 -0.3,1.2 -1.2,1 -1.2,-0.3 0,-0.5 0,-0.5 -0.5,-0.5 -0.6,0 -0.6,0 -0.6,0.8 m -29.3,0.5 c -0.3,0.1 -0.3,1.7 0,2 0.6,0.4 1,0 1,-1.1 0,-1 -0.2,-1.2 -1,-1 m 46.3,1.1 c 0,0.6 0.1,0.7 0.5,0.7 0.7,0 0.7,-0.3 0,-0.9 l -0.6,-0.4 0.1,0.6 m -51.6,1.2 c -0.3,0.2 -0.4,0.4 -0.3,0.4 l 0.6,-0.4 c 0.4,-0.5 0.3,-0.5 -0.3,0 m 45,1.7 c -2,0.4 -2.1,5 -0.1,5.4 2,0.5 3,-3.5 1.4,-5 l -0.7,-0.5 h -0.6 m -39.1,0.6 c -2,1.6 -0.8,6.6 1.2,5.6 1.5,-0.7 1.8,-4.6 0.4,-5.7 -0.7,-0.5 -0.9,-0.5 -1.6,0.1 m 45.4,0 c -0.7,0.4 -0.7,1.2 0,1.3 0.4,0 0.5,0.1 0.5,1.6 0,1.2 0,1.6 0.3,1.6 0.5,0.3 0.8,-0.2 1,-2.1 0.1,-2.6 -0.3,-3.2 -1.8,-2.4 m -52.7,0.4 c -0.7,0.4 -0.7,1.2 0,1.3 0.4,0 0.4,0.1 0.4,1.5 0,1.8 0.3,2.4 0.9,2.4 0.4,-0.1 0.4,-0.2 0.4,-2.3 0.1,-3.1 -0.2,-3.7 -1.7,-2.9 m 36.2,0 c -0.9,0.4 -0.8,1.2 0.1,1.3 0.6,0 0.6,0 0.8,1.3 0.2,2.4 1.3,1.9 1.1,-0.6 -0.2,-2.3 -0.5,-2.6 -2,-2 m -10.3,0.2 c -0.4,0.3 -0.3,0.9 0.1,1 0.3,0.1 0.4,0.3 0.4,1.3 0,1.3 0.6,2.2 1.1,1.5 0.2,-0.4 0.3,-3 0,-3.6 -0.1,-0.5 -1.2,-0.7 -1.6,-0.2 m -9.7,0.3 c -0.4,0.4 -0.4,1.2 0,1.3 0.2,0 0.2,0.4 0.2,1.2 0,1.4 0.3,2 0.9,2 0.4,-0.1 0.4,-0.1 0.3,-2.1 0,-2.7 -0.5,-3.4 -1.4,-2.4 m 31,0.6 c 0.3,1.1 -0.6,2.9 -1,1.8 -0.1,-0.5 0,-1.8 0.1,-2.2 0.3,-0.5 0.7,-0.4 0.9,0.4 m -38.7,0 c 0.3,1.1 0,3 -0.5,3 -0.5,0 -0.6,-2 -0.2,-3.3 0.1,-0.4 0.5,-0.3 0.7,0.3 m 49.2,0.6 c 0,0.7 0.7,2 1.1,2 0.3,0 0.3,-0.3 -0.5,-1.5 l -0.6,-1.2 v 0.7 m -60.7,1.8 -0.2,0.8 c 0,0.2 0,0.2 0.2,-0.1 0.2,-0.3 0.3,-0.7 0.3,-1 0,-0.2 -0.2,-0.1 -0.3,0.3 m 61.7,2.3 c -0.9,0.5 -0.8,1.3 0.2,1.3 0.2,0 0.3,0.1 0.3,0.2 l 0.5,3.7 c 0,0.4 0.2,0.5 0.5,0.4 1,-0.1 0.3,-6 -0.6,-6 l -1,0.4 m -5.9,0.2 c -0.4,0.2 -0.4,0.9 0,1 0.2,0.2 0.2,0.8 0.3,2.3 0,2.3 0.3,2.8 0.9,2.4 0.3,-0.2 0.3,-0.5 0.3,-2.8 -0.1,-3 -0.4,-3.6 -1.5,-3 m -7.8,0.2 c -0.3,0.3 -0.1,0.9 0.2,1 0.4,0 0.4,0.3 0.5,2.7 v 2.5 h 1 l 0.1,-2.6 c 0.2,-3.1 0,-3.6 -1,-3.7 l -0.8,0.1 m -8.6,0.9 c -1.8,1.4 -1.3,6.6 0.7,6.6 2.2,0 2.4,-6.6 0.2,-6.8 -0.3,0 -0.7,0 -0.9,0.2 m -20,0.3 c -1.2,1.2 -1.4,5.8 -0.2,6.9 1.2,1.3 2.7,-0.8 2.7,-3.8 0,-2.6 -1.4,-4.3 -2.5,-3 m 9.7,-0.2 c -0.6,0.2 -0.5,1.2 0.2,1.3 0.4,0 0.4,0.1 0.3,1.3 -0.2,2.3 0,3.9 0.7,3.9 h 0.5 v -3 c 0,-3.7 -0.1,-4.2 -1.7,-3.5 m -25.8,0.5 c -0.8,0.5 -0.8,1.4 0,1.4 0.2,0 0.2,0.4 0.2,2 0,2.1 0.2,2.7 0.9,2.4 0.5,-0.2 0.4,-5.7 0,-6 -0.6,-0.2 -0.5,-0.2 -1,0.2 m 7,0.2 c -1.6,1.7 -1,6.3 0.8,6.3 1.6,0 2.5,-5.7 1,-6.5 -0.7,-0.4 -1.3,-0.3 -1.7,0.2 m -11.5,0.7 c -0.3,1.9 -0.4,4.7 -0.1,4.5 l 0.3,-2.3 c 0,-2.4 0,-3.4 -0.2,-2.2 m 41.6,0.7 a 7,7 0 0 1 0,1.6 c -0.3,2 -1,1.6 -1,-0.5 0,-2.2 0.7,-3 1,-1.1 m -20,1.1 c 0,1 -0.2,1.8 -0.3,2.2 l -0.3,0.7 -0.3,-0.9 c -0.2,-1 -0.1,-2.7 0.2,-3.6 0.4,-1 0.7,-0.1 0.7,1.6 m -9,-1 c 0.3,0.9 0,3.4 -0.5,3.4 -0.4,0 -0.5,-2 -0.1,-3.2 0.2,-0.8 0.4,-0.9 0.6,-0.3 m 51.4,6.4 c -1.8,1.5 -0.6,6.7 1.4,6 1,-0.4 1.2,-1 1,-3.3 -0.3,-2.9 -1,-3.7 -2.4,-2.7 m -6.6,0.6 c -0.4,0.3 -0.4,0.7 0,1 0.4,0.3 0.4,0.5 0.4,2.6 0,2.6 0.2,3.3 0.9,3.2 0.4,0 0.4,0 0.3,-3.3 0,-3.7 -0.3,-4.2 -1.6,-3.5 m 8,1.1 c 0.5,1.3 0,3.7 -0.5,2.8 -0.6,-0.8 -0.7,-2.7 -0.3,-3.3 0.2,-0.4 0.5,-0.1 0.8,0.5 m -16,-0.2 c -0.3,0.4 0,0.9 0.4,1 0.3,0.1 0.4,0.5 0.6,3 0.2,3.2 0.5,4 1.1,3.3 0.4,-0.4 0.2,-6.8 -0.3,-7.3 -0.3,-0.4 -1.4,-0.4 -1.8,0 m -29,0.2 c -0.6,0.4 -0.6,1 0,1.2 0.3,0.1 0.3,0.3 0.4,2.9 0,2.3 0,2.7 0.4,3 0.7,0.3 0.8,-0.2 0.9,-3.5 0,-3.9 -0.3,-4.6 -1.7,-3.6 m 19.7,0 c -0.3,0.3 0,0.9 0.5,0.9 0.1,0 0.2,0.7 0.3,2.6 0.2,3.2 0.5,4 1.3,3.2 0.2,-0.3 -0.1,-6.4 -0.4,-6.7 -0.3,-0.4 -1.4,-0.4 -1.7,0 m -28.5,0.2 c -0.8,0.4 -0.8,1.1 0,1.2 h 0.5 v 2.8 c 0.2,3 0.4,3.8 1.1,3 0.3,-0.2 0.3,-0.6 0.2,-3.5 -0.2,-4 -0.3,-4.2 -1.8,-3.5 m 19.3,0 c -0.6,0.3 -0.8,0.9 -0.2,1 0.4,0.1 0.4,0.2 0.4,2.7 0,2.5 0.1,3.2 0.7,3.2 0.5,0 0.7,-0.7 0.7,-3.5 0,-3.5 -0.3,-4.1 -1.6,-3.4 m -31.5,0.4 -0.2,5 c -0.1,1.4 -0.1,1.6 0.2,1.5 1,-0.2 1.6,-4.9 0.8,-6.4 -0.5,-0.7 -0.7,-0.8 -0.8,0 m 5,0 c -1.3,1.4 -1.2,5.1 0.2,6.2 2.2,1.7 3.8,-4 1.7,-6.3 -0.4,-0.5 -1.4,-0.4 -2,0.1 m 1.7,2.3 a 7,7 0 0 1 0,1.7 c -0.3,2.1 -1.4,1 -1.2,-1.3 0,-2.2 0.9,-2.5 1.2,-0.4 m 59.3,5.1 c -0.5,0.5 -0.5,1 0,1.2 0.4,0.1 0.5,0.4 0.7,2.1 0.4,2.6 1.6,3.5 1.5,1.2 -0.2,-3.8 -1.1,-5.6 -2.2,-4.5 m -6.1,1 c -1,0.4 -1,1.4 0,1.4 0.5,0 0.5,0 0.7,1.4 0.2,2.2 0.5,3.1 1,3.1 0.6,0 0.6,0 0.3,-3 -0.4,-3 -0.7,-3.4 -2,-2.9 m -8,1.3 c -0.9,0.3 -1,1.4 0,1.4 0.1,0 0.2,0.7 0.3,2.4 0.1,2.4 0.4,3 1,2.8 0.4,-0.2 0.4,-0.5 0.3,-3.4 -0.2,-3.3 -0.3,-3.5 -1.6,-3.2 m -52.4,1.4 v 1.3 l -0.1,1.2 c -0.2,0.6 0.7,1.4 1,1 0.4,-0.4 0.4,-2.5 0,-3.3 -0.5,-1.2 -0.8,-1.2 -0.9,-0.2 m 22.5,-0.4 c -0.8,0.6 -1.2,2.3 -1,3.9 0.4,4.7 4,3.5 3.7,-1.3 -0.2,-2.5 -1.4,-3.7 -2.7,-2.6 m 10.4,0 c -1.6,1 -1.8,4.8 -0.3,6.2 0.7,0.8 1.2,0.8 2,0.2 2.4,-2 0.9,-8.3 -1.7,-6.5 m 10.1,0.2 c -1.7,0.8 -1.7,5.4 0,6.9 2.6,2 4.1,-4 1.7,-6.7 -0.4,-0.5 -1,-0.6 -1.7,-0.2 m -38.2,0.3 c -0.5,0.4 -0.4,1 0,1 0.3,0 0.4,0.2 0.3,1 -0.4,2.5 -0.4,3.4 0,3.7 0.7,0.6 0.8,0.3 1.2,-3.3 0.3,-2.7 -0.2,-3.5 -1.5,-2.4 m 8.4,0 c -2,0.8 -1.9,7 0.2,7.2 2,0.2 3,-5.7 1.2,-7.2 -0.6,-0.4 -0.6,-0.4 -1.4,0 m 10.5,1 c 0.5,1 0.2,4.1 -0.4,4.1 -0.6,0 -0.8,-3 -0.4,-4 0.3,-0.6 0.5,-0.6 0.8,0 m 10.7,0.4 c 0.5,1.3 -0.1,3.8 -0.8,3.5 -0.7,-0.2 -1,-2.5 -0.4,-3.7 0.4,-1 0.9,-0.8 1.2,0.2 m 10,0.2 c 0.5,1.5 0.2,4.1 -0.5,4 -0.5,-0.2 -0.8,-1.3 -0.8,-2.9 0,-2.3 0.7,-2.9 1.3,-1 m -30.2,1.2 c 0,1.6 -0.5,3.1 -1,2.7 -0.3,-0.4 -0.2,-3.3 0.2,-4.1 0.5,-1 0.8,-0.4 0.8,1.4 m 55.1,5 c -0.8,1.1 -0.5,2 0.5,1.4 0.5,-0.3 0.4,-0.4 1.4,1.3 1.2,2 1.8,2.7 2.2,2.5 0.5,-0.2 0.3,-0.8 -0.7,-2.4 l -1.3,-2.4 c -0.8,-1.4 -1.3,-1.5 -2,-0.4 m -73.8,1 c -1.3,0.2 -1.6,1 -0.5,1.4 0.4,0 0.4,0.2 -0.7,2 -1.2,1.9 -1.4,2.5 -0.6,2.6 0.3,0 0.5,-0.1 1,-0.8 l 1.6,-2.7 c 1.2,-1.8 1.3,-2 0.9,-2.5 -0.3,-0.2 -0.4,-0.2 -1.7,0 m 66.6,0.9 c -1.6,1.4 -1.2,5.6 0.7,6.6 1.6,1 3.2,-1 3,-3.6 -0.3,-2.7 -2.2,-4.3 -3.7,-3 m -59.4,1.1 c -2,1.3 -2.5,5.1 -1,5.8 2.3,1 5,-3.9 3.2,-5.7 -0.7,-0.7 -1.3,-0.7 -2.2,0 m 61,-0.2 c 1.1,1.3 1,4.7 -0.1,4.5 -1.1,-0.2 -1.7,-3 -0.9,-4.3 0.4,-0.6 0.6,-0.7 1,-0.2 m -11,0.9 c -0.7,0.4 -0.8,1.1 -0.2,1.2 0.5,0.2 0.4,0 0.6,2.7 0,2.1 0.1,2.4 0.4,2.4 0.7,0.2 0.8,-0.2 0.8,-3.3 0,-3.6 -0.3,-4.1 -1.7,-3 m -41.6,0.3 c -1,0.7 -1.3,1.6 -0.3,1.6 0.2,0 0.2,0.1 0.1,0.6 -0.6,3.2 -0.6,4 0.1,3.8 0.4,0 0.5,-0.2 0.8,-1.7 0.9,-4.2 0.7,-5.2 -0.7,-4.3 m 10,0 c -0.8,0.3 -0.7,1.1 0.2,1 h 0.7 l -0.2,2 c -0.3,3.5 0,4.6 0.8,3.7 0.2,-0.2 0.8,-6.3 0.6,-6.8 -0.1,-0.3 -1.1,-0.3 -2,0 m -17,0.4 c 0.3,1 -0.8,3.2 -1.6,3.2 -0.7,0 -0.4,-2.3 0.5,-3.3 0.5,-0.5 1,-0.5 1.2,0 m 30,0 -1.1,0.2 c -0.9,0 -1,0.8 -0.2,1 h 0.5 l -0.1,2.3 c -0.2,2.5 0,3.3 0.7,2.6 0.7,-0.7 0.9,-6.3 0.2,-6 m 9.6,0 -0.8,0.5 c -2.2,1 -1.3,6.4 1,6 1.5,-0.3 2.4,-3 1.6,-5.3 -0.5,-1.2 -1.4,-1.9 -1.8,-1.3 m 0.5,1.5 c 0.4,0.4 0.4,2 0.1,3 -0.5,1.5 -1.3,0.8 -1.3,-1.3 0,-1.6 0.6,-2.5 1.2,-1.7 m 30.2,1.7 c -1.7,2 1,6 3.5,5.2 1.6,-0.5 1.7,-3 0.2,-4.6 -1.3,-1.4 -2.8,-1.7 -3.7,-0.6 m 2.6,1.3 c 1.2,1.2 1.3,2.8 0.2,2.8 -0.6,0 -1.9,-1.4 -2,-2.3 -0.3,-1.4 0.6,-1.7 1.8,-0.5 m -87.2,2 c -1,0.3 -2.4,2.2 -2.4,3.3 0,0.5 1.8,2.5 2.3,2.5 0.7,0 2,-1.7 2.3,-3.1 0.5,-2 -0.5,-3.2 -2.2,-2.7 m 1,1.9 c 0,1.2 -1.4,3.2 -2,2.9 -0.7,-0.4 0,-2.7 1,-3.4 0.7,-0.6 1,-0.4 1,0.5 m 7.9,-0.4 c -1.3,0.3 -1.6,1.4 -0.5,1.4 0.4,0 0.4,0 -0.3,1.8 -0.8,1.9 -0.9,2.1 -0.5,2.5 0.4,0.3 0.8,-0.2 2,-2.7 1.2,-2.6 1.2,-2.6 0.7,-3 -0.3,-0.4 -0.2,-0.4 -1.4,0 m 65.3,0.7 c -1,0.8 -0.8,1.4 0.2,1.2 h 0.6 l 0.7,2 c 0.6,1.8 0.7,2.1 1.1,2.2 0.7,0 0.7,-0.5 0,-3 -1,-3.3 -1.4,-3.6 -2.6,-2.4 m -31.4,1.2 c -1.3,1.3 -1.1,5 0.2,5.7 2,1 3.8,-1.7 3,-4.5 -0.5,-1.7 -2.1,-2.3 -3.2,-1.2 m 10.5,0.1 c -2,2.2 -0.9,7.2 1.5,6.4 1.8,-0.6 2.1,-5.1 0.4,-6.4 -0.6,-0.5 -1.4,-0.5 -2,0 m 10.3,0.3 c -1.3,1.2 -1.2,4.2 0.1,5.5 1,0.9 2.4,0.5 3,-0.7 1.4,-2.9 -1,-6.7 -3,-4.8 m -45.9,0.4 c -1.7,1.6 -1.8,4.5 -0.2,5.3 2,1 4.1,-2.4 3.1,-4.8 -0.4,-1 -2,-1.3 -2.9,-0.5 m 13.5,-0.1 c -2.4,1.5 -1.8,6.4 0.9,6.4 3.3,0 3.8,-6.3 0.5,-6.7 -0.5,-0.1 -1,0 -1.4,0.3 m 13.5,0.6 c 0.5,1.2 0,3.5 -0.8,3.5 -0.8,0 -1,-2.6 -0.4,-3.6 0.5,-0.7 0.8,-0.7 1.2,0.1 m 10.2,0.6 c 0.6,1.6 -0.2,4.2 -1,3.1 -0.6,-0.8 -0.6,-3 0,-3.7 0.5,-0.4 0.8,-0.2 1,0.6 m 10.6,0.3 c 0.3,0.8 0.2,2.3 -0.2,2.7 -1.1,1 -2,-2.3 -1,-3.5 0.4,-0.5 1,-0.2 1.2,0.8 m -46,-0.5 c 0.6,0.8 -0.3,3.2 -1.3,3.2 -0.8,0 -0.7,-2 0.2,-3 0.6,-0.5 0.7,-0.6 1,-0.2 m 13.8,0.4 c 0.7,1 0.5,2.8 -0.5,3.5 -0.9,0.7 -1.7,-0.2 -1.7,-1.8 0,-1.8 1.4,-2.9 2.2,-1.7 m -27.4,4 0.6,0.2 c 0.3,0.1 0.5,0.2 0.4,0 l -1,-0.3 m 37.4,3 c -0.4,0.1 -0.4,0.2 0.4,0.3 0.9,0.1 1.1,0 0.8,-0.3 -0.3,-0.4 -0.7,-0.4 -1.2,0 m 10.3,0 c -0.3,0.2 -0.3,0.3 0.4,0.3 0.7,0 1,-0.3 0.4,-0.5 -0.4,-0.2 -0.4,-0.2 -0.8,0.2"
       id="path876" />
    <path
       fill="#040404"
       d="m 183,110 -5,0.2 a 30.3,30.3 0 0 0 -5.3,0.8 12.6,12.6 0 0 0 -3.4,1 l -0.7,0.2 -1.2,0.4 -1.6,0.8 -0.8,0.5 c -0.5,0 -2.7,1.8 -3.2,2.6 l -0.7,0.9 c -0.1,0 -0.2,0 -0.1,0.1 0,0 -0.1,0.4 -0.4,0.6 l -0.6,1 c 0,0.2 -0.2,0.4 -0.3,0.4 0,0 -0.1,0.1 0,0.2 l -0.1,0.2 c -0.1,0 -0.3,0.2 -0.3,0.5 l -0.5,1.2 a 33.4,33.4 0 0 0 -1.5,5.5 82.8,82.8 0 0 0 -0.8,12.4 171,171 0 0 0 -0.4,9 l -0.1,1 -1.1,2.5 a 16,16 0 0 1 -2.6,3.2 48.1,48.1 0 0 0 -6.6,7.5 c 0,0 -0.3,0.2 -0.4,0.5 -0.2,0.3 -0.5,0.8 -0.8,1 -1.7,2 -3.4,6.1 -2.5,6.1 0.1,0 0.2,0 0.1,0.2 0,0 0.2,0.5 0.6,0.9 0.3,0.4 0.6,0.8 0.6,1 l 0.5,0.7 0.5,0.7 a 35.5,35.5 0 0 0 5.7,5.5 c 0,0.2 1,0.6 1.7,0.7 0.7,0 2.6,0.9 2.6,1 0,0.2 0,0.2 0.2,0.2 l 0.6,0.1 0.6,0.2 0.2,0.1 c 0,0.2 0,0.2 0.2,0.1 h 0.4 c 0.3,0.3 2.7,0.8 4,1 l 3.4,0.4 5.2,0.6 a 237.3,237.3 0 0 0 16.3,0.4 79.5,79.5 0 0 0 5.2,0.4 183.6,183.6 0 0 0 27.2,-1.1 l 1.8,-0.3 a 34.8,34.8 0 0 0 7.8,-2 l 0.6,-0.2 0.5,-0.2 c 0,0 0.4,0 0.7,-0.3 a 170.5,170.5 0 0 1 6.6,-3.3 c 0.4,-0.4 1,-0.7 1.4,-0.9 l 0.3,-0.2 c 0,-0.1 0.1,-0.2 0.3,-0.2 0.1,0 0.3,0 0.3,-0.2 l 0.9,-0.7 c 1.4,-1 2.8,-2.4 4.1,-4 l 2.2,-2.5 c 1.4,-1.6 1.5,-4.6 0.2,-5.7 l -0.1,-0.2 -0.4,-0.5 -3.1,-3 c -7.2,-6.7 -8.8,-8.6 -9.2,-11 0,-0.4 -0.2,-0.7 -0.3,-1 l -0.3,-1.5 a 94.6,94.6 0 0 0 -0.5,-5.4 430.3,430.3 0 0 0 -1.4,-12 l -0.2,-0.5 -0.2,-0.5 c 0,-0.2 0,-0.4 -0.2,-0.5 a 23.5,23.5 0 0 1 -0.9,-2.5 775.2,775.2 0 0 1 -2.9,-5.7 l -0.7,-0.9 c -1.6,-2.8 -6,-6.4 -8.2,-6.8 a 7,7 0 0 1 -1,-0.3 l -0.6,-0.2 H 215 l -0.4,-0.2 c -0.6,-0.1 -27.5,-0.2 -31.6,0 m 15.9,3.8 a 386.3,386.3 0 0 0 13.9,-0.1 l 1.8,0.4 c 1.7,0.3 3.9,1.5 4.9,2.5 a 28,28 0 0 1 7.5,15.8 2309,2309 0 0 0 0.8,7.2 47.8,47.8 0 0 0 1.9,11.8 l -2.3,1.2 c -2.4,1.2 -3,1.9 -2.6,3 0.5,1.4 1.6,1.3 4.5,-0.1 l 2.3,-1.2 2.2,2.3 4.6,4.4 c 4.2,3.7 4.5,4.5 2.8,6.5 A 41,41 0 0 1 213.8,180 l -9,0.7 c -0.5,0.3 -11.4,0.2 -16.1,-0.2 -3,-0.2 -7.6,-0.4 -10.9,-0.4 a 158.4,158.4 0 0 1 -10.1,-0.4 67,67 0 0 1 -12.5,-2.3 l -2.3,-1 c -3.1,-1.4 -7.4,-6.4 -6.7,-7.9 a 82.8,82.8 0 0 1 11.5,-13.2 l 1.3,0.6 c 1.6,0.7 2.4,0.7 3,0 1,-1 0.5,-2.1 -1.4,-3 -1.4,-0.6 -1.5,-0.7 -1.2,-1.7 0.2,-0.4 0.3,-1.1 0.3,-1.7 0,-0.5 0.2,-1 0.3,-1.3 l 0.1,-3.1 0.2,-6.1 c 0.2,-1.9 0.3,-4.7 0.3,-6.4 0.1,-2.9 0.2,-3.8 0.7,-5.8 l 0.3,-1.6 c 0.1,-0.8 1,-3.3 1.2,-3.5 l 0.9,-1.2 c 0.9,-1.3 3.1,-3.7 3.5,-3.7 a 8,8 0 0 0 1.6,-0.6 l 1.6,-0.6 0.8,-0.3 1.1,-0.3 2.5,-0.4 c 3,-0.5 5.5,-0.7 10.5,-0.8 a 55.8,55.8 0 0 0 6.1,-0.2 l 7.5,0.2 m 19.8,41.9 c -2.6,0.8 -3.3,1.8 -2.2,3 1.2,1.5 6.5,-0.2 6.5,-2 0,-1.7 -1.2,-2 -4.3,-1 m -54.7,0 c -1.1,1.2 -0.2,2.5 2.1,3.2 2.4,0.7 3.4,0.3 3.4,-1.3 0,-1.6 -4.4,-3.1 -5.5,-2 m 8.6,1.4 c -2,0.4 -1.6,3 0.6,3.4 3.8,0.6 5.8,-0.2 5.1,-2 -0.2,-0.8 -1.1,-1.1 -3,-1.3 a 48.4,48.4 0 0 1 -2.7,-0.1 m 37,0.1 c -3.7,0.5 -4,3.5 -0.4,3.4 3,0 4,-0.5 4,-2 0,-1.4 -0.9,-1.8 -3.6,-1.4 m -28.7,0.4 a 1.6,1.6 0 0 0 -0.1,2.9 c 1.1,0.6 4.8,0.7 5.4,0 1.3,-1.2 0.4,-2.5 -2,-2.8 -1,0 -1.9,-0.2 -2.2,-0.3 -0.2,0 -0.7,0 -1,0.2 m 7.9,1.2 c -1.8,1.9 2,3.8 5.4,2.6 1.2,-0.5 1.2,-2 0,-2.7 -1,-0.6 -4.8,-0.6 -5.4,0 m 9.8,0.1 c -1.5,0.4 -1.8,2.4 -0.4,3.1 1.4,0.8 5,0.3 5.7,-0.7 1,-1.6 -2.4,-3.2 -5.3,-2.4"
       id="path878" />
    <path
       fill="#1b710f"
       d="m 201,114.5 c 0,0.3 0,0.5 0.1,0.3 v -0.7 0.4 m -16.7,0.6 c 0,0.5 0,0.6 0.1,0.4 v -0.8 0.4 m 26,16.2 c 0,0.3 0.1,0.5 0.2,0.3 v -0.7 l -0.1,0.3 M 195.7,152 c 0,0.3 0,0.5 0.1,0.3 v -0.7 0.4 m -13.1,27.8 c 0,0.2 0,0.3 -0.3,0.3 -0.4,0.1 -0.4,0.1 0,0.1 0.6,0 0.8,-0.2 0.4,-0.4 -0.2,-0.1 -0.2,0 -0.1,0"
       id="path880" />
    <path
       fill="#1c4a14"
       d="m 211.4,115 v 0.8 -1.5 0.7 m -20,-0.2 c 0,0.4 0,0.6 0.1,0.4 v -0.7 0.3 m -20,1.3 c 0,0.4 0,0.6 0.1,0.4 v -0.8 0.4 M 167,123 v 1 -2 1 m 15.8,-1.3 v 0.3 c 0.1,-0.2 0.1,-0.6 0,-0.8 v 0.5 m 35.3,0.2 c 0,0.4 0,0.6 0.1,0.3 v -0.8 0.5 m -26.9,0.6 0.1,1.1 v -2 c -0.1,-0.1 -0.1,0.3 -0.1,1 m 18.4,-0.6 c 0,0.4 0,0.5 0.1,0.3 v -0.7 0.4 m -38.6,0.5 c 0,0.5 0,0.7 0.1,0.4 v -1 0.6 m 32.2,0.4 v 0.3 c 0.1,-0.3 0.1,-0.6 0,-0.8 v 0.5 m -22.1,0.4 v 0.4 -0.7 0.3 m 37.9,4 v 0.4 -0.9 0.4 m -8.8,1.1 v 0.5 -1 0.5 M 193,130 m 25,-0.6 c 0,0.7 0,1 0.1,0.6 v -1.3 0.7 m -51.2,1.3 v 0.7 -1.5 0.8 m 17.1,-0.3 c 0,0.5 0,0.7 0.1,0.4 v -1 0.6 m 16.1,-0.1 c 0,0.5 0,0.7 0.1,0.4 v -0.9 0.5 m 11.7,0.2 v 0.5 -1 0.5 m -39.1,0.7 v 0.3 c 0.1,-0.3 0.1,-0.6 0,-0.8 v 0.5 m 38,5.7 h 0.8 c 0.2,-0.1 0,-0.1 -0.4,-0.1 H 211 m 9.2,1.6 v 1 -1.8 0.8 m 3.9,-0.1 v 0.5 -1 0.5 m -40.8,1.5 v 1.2 a 21.6,21.6 0 0 0 0,-1.2 m -8.8,-0.7 v 0.5 -1 0.5 m 36.7,-0.2 v 0.3 -0.7 0.4 m -9.4,1 c 0,0.9 0,1.2 0.1,0.8 v -1.7 0.8 m -8.3,1 c 0,1.3 0,1.8 0.1,1.1 a 23.8,23.8 0 0 0 0,-1 m 19,-0.9 c 0,0.7 0,1 0.1,0.6 v -1.2 0.6 m -47,1 c 0,0.4 0.1,0.6 0.2,0.4 v -0.8 l -0.1,0.4 m 53,0.2 v 0.4 -1 0.6 m -45.8,0.2 v 0.4 -1 0.6 m 8.6,1.4 v 0.6 -1.4 0.8 m 29.7,-0.5 v 0.3 -0.7 0.4 m -36.7,0.9 v 0.5 -1.2 0.7 m 17.3,0 c 0,0.4 0,0.6 0.1,0.4 v -0.7 0.4 m 30,4.3 c 0,0.3 0,0.5 0.1,0.3 v -0.7 0.4 m -9.8,2.3 v 0.4 -0.8 0.4 m -51.2,1 v 0.4 -0.9 0.5 m 52.7,0.3 c 0,0.4 0,0.6 0.1,0.3 v -0.8 0.5 m -38.5,0.8 v 0.7 -1.3 0.6 m 9.7,-0.1 c 0,0.5 0,0.8 0.1,0.5 v -1 0.5 m -4.2,0 v 0.5 -1 0.6 m 21.9,0 v 0.3 c 0.1,-0.3 0.1,-0.6 0,-0.8 v 0.5 m 3,0.6 v 0.6 -1.1 0.5 m 6.5,0.4 c 0,0.4 0,0.6 0.1,0.4 v -0.7 0.3 m -48.1,0.9 v 0.3 -0.7 0.4 m 49.8,8.7 c 0,1 0,1.4 0.1,1 v -2 1 m -49,-0.6 c 0,0.5 0.1,0.7 0.2,0.4 v -0.8 l -0.1,0.4 m 29.3,0.2 v 0.4 c 0.1,-0.2 0.1,-0.6 0,-0.8 v 0.4 m 31,0.3 c 0,0.4 0,0.6 0.1,0.3 v -0.7 0.4 m -24.3,2.1 c 0,0.5 0,0.6 0.1,0.4 v -0.8 0.4 M 213,166 v 0.6 -1.2 0.6 m -20,0.1 c 0,0.4 0,0.5 0.1,0.4 v -0.7 0.3 m -11.8,1 v 0.4 c 0.1,-0.2 0.1,-0.6 0,-0.8 v 0.5 m 14.8,7 c 0,0.3 0,0.5 0.1,0.3 v -0.7 0.3 m -11.4,0.9 c 0,0.5 0,0.7 0.1,0.4 v -1 0.6"
       id="path882" />
    <path
       fill="#1ba70a"
       d="m 183.3,113.8 h 0.6 -0.6 m 9.3,0 0.7,0.1 0.6,-0.2 h -0.6 l -0.7,0.1 m 19.8,0 c 0.2,0 0.3,0.4 0.4,0.8 v -0.1 c 0,-0.4 -0.1,-0.7 -0.3,-0.8 -0.2,0 -0.2,0 0,0.1 m -22.4,1 v 0.4 -0.7 0.3 m 3.9,0 v 0.4 -0.7 0.3 m -21,1.2 v 0.5 -1 0.5 m 9,9 0.4,0.2 c 0.2,0 0.4,0 0.5,-0.2 l -0.5,-0.1 c -0.3,0 -0.5,0 -0.4,0.1 m 9.3,3.7 c 0.2,0 0.3,0.3 0.4,0.5 v -0.1 c 0,-0.4 0,-0.6 -0.2,-0.6 -0.3,0 -0.3,0 -0.2,0.2 M 204,130 v 0.4 -0.9 0.5 m -43.2,0.2 v 0.3 -0.7 0.4 m 4.7,0.6 v 0.6 -1.3 0.7 m 60.5,-0.3 c 0,0.5 -0.1,0.7 -0.5,0.8 -0.3,0.2 -0.3,0.2 0,0.2 0.4,0 0.7,-0.5 0.6,-1 0,-0.6 0,-0.6 0,0 m -54.6,0.6 c 0,0.4 0,0.5 0.1,0.3 v -0.8 0.5 m 55.8,6 v 0.3 -0.7 0.3 m -17,0 c -0.3,0.4 -0.3,0.7 0,1 0.4,0.3 0.4,0.2 0.1,-0.1 -0.2,-0.4 -0.2,-0.5 0,-0.8 0.3,-0.3 0.2,-0.4 -0.1,0 m -50,0.4 v 1 c 0,0.5 0,0.4 0.2,-0.4 0,-1 0,-1.1 -0.2,-0.6 m 58.4,0.9 v 0.5 -1 0.5 m -15.6,0.5 v 0.4 -1 0.6 m 24.4,0.3 v 0.3 -0.7 0.4 m -54.5,0.2 v 0.3 -0.7 0.4 m 10.7,12.5 c 0,0.3 0,0.5 0.1,0.3 v -0.7 0.4 m -9.8,0.2 v 0.4 c 0.1,-0.3 0.1,-0.6 0,-0.8 v 0.4 m 38.8,11.5 c 0,0.3 0,0.5 0.1,0.3 v -0.7 0.4 m 1.3,2 c 0,0.5 0,0.6 0.1,0.4 v -0.8 0.4 m -65.3,7.9 0.7,0.4 c 0.3,0 0.3,0 0,-0.1 l -0.7,-0.4 c -0.4,-0.4 -0.4,-0.4 0,0 m 63.3,1 v 0.4 -1 0.5 m -9.3,6 c -0.3,0.3 -0.1,0.5 0.4,0.4 0.4,0 0.4,0 0,0 l -0.3,-0.3 c 0.2,-0.3 0,-0.3 -0.1,-0.1 m -10.2,0.4 h 0.8 -0.8"
       id="path884" />
    <path
       fill="#192f12"
       d="m 190.2,113.6 0.6,0.1 0.8,-0.1 c 0,-0.2 -1.3,-0.1 -1.4,0 m -30,27.6 v 0.4 -0.7 0.3 m -0.2,2.7 c 0,0.4 0,0.6 0.1,0.4 v -0.7 0.3"
       id="path886" />
  </g>
</svg>
