<svg xmlns="http://www.w3.org/2000/svg" xml:space="preserve" width="359.91" height="329.93"><path d="M61.04 216.84c-.14.1-.17.33-.32.58-.65 1.13-5.1 8.64-9.7 16.36a166.14 166.14 0 0 1-3.45 5.66c-.3.45-.5.72-.68.89a1.4 1.4 0 0 1-.47.32c-.18.08-.3.17-.41.24a.73.73 0 0 1-.41.12c-.17 0-.4-.05-.75-.17-.35-.13-.81-.33-1.46-.63-1.3-.61-3.3-1.65-6.5-3.32l-13.64-7.2c-3.2-1.67-5.84-3.05-5.9-3.05-.06 0-1.96 3.88-3.46 7.08l-2.58 5.42a1436.13 1436.13 0 0 0-5.28 11.04c-.04.07.06.18.22.24l5.47 2.15a2926.36 2926.36 0 0 0 11.84 4.66 5511.9 5511.9 0 0 0 12.75 5.03 673.94 673.94 0 0 0 6.2 2.44l.6.27 1.08-1.96c.6-1.07 1.86-3.42 2.83-5.2a11209.44 11209.44 0 0 1 9-16.67 143.9 143.9 0 0 1 3.2-5.81c.28-.46.48-.74.66-.91.17-.18.32-.26.5-.35.21-.1.37-.17.66-.2.3-.03.74-.01 1.51.06 1.55.16 4.44.57 10.21 1.4a255 255 0 0 0 10.82 1.43c.05-.06.07-.17.05-.33a3.3 3.3 0 0 0-.13-.61 13.86 13.86 0 0 0-1.59-3.27c-.3-.45-.59-.77-.78-.83a331.2 331.2 0 0 1-9.94-7.53c-5.55-4.28-8.02-6.23-9.18-6.98-.29-.18-.5-.3-.65-.35-.15-.05-.25-.05-.32-.01zm-40.82 16.8c.37 0 .91.15 1.21.33a2.48 2.48 0 0 1 1.1 1.42 2.4 2.4 0 0 1-.12 1.72c-.15.28-.34.52-.54.71a2.35 2.35 0 0 1-1.44.63 2.53 2.53 0 0 1-2.07-.85 2.47 2.47 0 0 1-.55-1.58c0-.31.07-.62.2-.9a2.52 2.52 0 0 1 .9-1.06 2.52 2.52 0 0 1 1.31-.42zM13 245v.01a2.6 2.6 0 0 1 1.94 1.26 2.44 2.44 0 0 1 .17.38 2.44 2.44 0 0 1 .1.4 2.44 2.44 0 0 1 .04.42 2.44 2.44 0 0 1-.04.42 2.44 2.44 0 0 1-.1.4 2.44 2.44 0 0 1-.18.38 2.45 2.45 0 0 1-.95.9 2.6 2.6 0 0 1-1.24.23 2.55 2.55 0 0 1-1.2-.32c-.34-.2-.6-.45-.78-.71a2.2 2.2 0 0 1-.35-1.73 2.64 2.64 0 0 1 .58-1.19 2.64 2.64 0 0 1 1.09-.75c.29-.09.6-.13.92-.1z" style="fill:#fbb20c;fill-rule:evenodd"/><path fill="#048c9c" fill-rule="evenodd" d="M208.8 67.3c-1.32.07-2.86.14-3.4.15-1.47.03-1.37-.24-1.58 4.6a80.85 80.85 0 0 1-1.01 10.92c-2.15 11.43-2.45 12.02-5.84 11.18l-4.57-1.16c-2.2-.56-4.08-1.02-4.17-1.02-.1 0-.46.8-.81 1.8-.79 2.18-2.45 6.2-3.21 7.76-.68 1.39-.81 1.16 1.56 2.64a386.4 386.4 0 0 1 5.2 3.28c3.22 2.04 3.44 3.27 1.18 6.75-4.19 6.47-9.33 12.4-13.34 15.37-3.9 2.88-5.3 2.84-7.78-.25a149.21 149.21 0 0 0-4.7-5.75c-.06-.04-.64.33-1.28.83a86.24 86.24 0 0 1-6.95 4.64c-1.95 1.16-1.95.6-.03 4.55 2.55 5.25 2.61 5.39 2.7 6.15.16 1.43-.42 1.86-5.63 4.2-4.63 2.07-13.22 4.06-18.58 4.29-3.9.17-4.08-.08-4.4-6.06-.11-2.08-.24-4-.3-4.26l-.09-.48-2.85.12c-2.53.1-7.13-.1-7.96-.34-.22-.07-.32.54-.74 4.38-.67 6.3-.9 6.67-3.91 6.58-3.86-.1-11.92-2.08-16.84-4.11l-1.57-.64a56.8 56.8 0 0 1-5.51-2.78c-.1 0-.66 1.2-1.86 3.99-.4.96-.88 2.04-1.05 2.42-.7 1.57-2.7 7.28-3.67 10.5a122.3 122.3 0 0 0 2.3 76.34c1.24 3.41 4.26 10.7 4.57 11 .08.09 1.27-.43 4.1-1.77.95-.45 1.75-.82 1.78-.82a911.82 911.82 0 0 1 7.25-3.33 2028.86 2028.86 0 0 0 13.75-6.33 177.86 177.86 0 0 0 4.56-2.1c1.04-.5 1.92-.9 1.95-.9.04 0 1.01-.45 2.17-1s2.13-1 2.16-1a802.1 802.1 0 0 1 7.24-3.32l4.34-2c.15-.09 1.6-.76 3.25-1.52a1154.51 1154.51 0 0 0 10.71-4.94 60.1 60.1 0 0 1 1.95-.9c.04 0 .99-.43 2.12-.96a225.4 225.4 0 0 1 3.46-1.6l1.42-.65v-3.77c0-8.92 3.64-16.35 10.8-22.03l.8-.63-.64-.11a2610.3 2610.3 0 0 1-17.54-3.26c-4.67-.85-5.16-1.32-4.85-4.68a76980.48 76980.48 0 0 1 2.02-21.72c.44-4.75.55-5.36 1.12-5.97 1.15-1.22 1.94-1.2 4.46.07a1184.6 1184.6 0 0 1 16 8.24c3.85 1.96 7.84 4.02 11.16 5.75 1.2.61 3.67 1.9 5.5 2.83l5.34 2.75c1.92 1 3.6 1.87 10.83 5.58a1619.89 1619.89 0 0 1 10.17 5.25 12548.45 12548.45 0 0 0 12 6.18c2.1 1.08 4.17 2.16 4.58 2.4.41.24 1.09.58 1.5.75 2.9 1.24 3.91 3 2.7 4.7-.84 1.2-1.37 1.24-7.42.62-4.68-.47-4.64-.48-4.13.25.57.8 2.27 4.47 2.74 5.94 4.24 13.02-1.9 27.19-14.6 33.67-.7.36-1.26.73-1.23.83.04.09 3.4 4.32 7.47 9.41 8.06 10.08 8.48 10.64 8.46 11.4-.01 1.14-.01 1.14-5.92 6.02l-2.82 2.33.75.05a275.6 275.6 0 0 1 15.12 1.8c32.39 4.87 59.65 15.64 69.17 27.31l.67.83 2.48-2.08a189.02 189.02 0 0 0 12.3-12 124.86 124.86 0 0 0 21.08-33.02c1.36-2.96 4.22-11 5.32-14.97 7.54-27.02 5.52-55.44-5.8-81.83-1.5-3.48-4.18-8.9-4.32-8.74-.15.17-3.78 5.14-4.69 6.4-.32.46-2.23 3.06-4.24 5.79l-12.13 16.5a64.1 64.1 0 0 0-2.05 2.88c.09 0 3.3-1.26 8.76-3.42 8.05-3.2 8.11-3.2 9.16-2.66 1.29.66 1.39 1.03 2.25 8.16l.67 5.34c1.3 9.98 1.36 10.56 1 11.3-.67 1.41-1.28 1.54-10.5 2.19-.82.06-2.74.2-4.25.34l-5.57.43c-3.79.26-3.87.3-2.87.88 3.13 1.83 7.24 6.08 9.31 9.6 7.57 12.89 3.65 27.77-9.32 35.45l-.53.31 1.35 1.08c1.68 1.35 5.65 5.32 6.32 6.33 1.46 2.18-.35 4.85-3.1 4.57-1.04-.1-1.1-.1-1.66.4-7.54 6.62-42.99 9.6-71.88 6.02-4.06-.5-4.17-.56-5.6-3.32-2.7-5.16-4.43-10.08-5.05-14.33-.45-3.16-.06-13.02.7-17.33.24-1.41 1.42-2.83 2.63-3.17 2.92-.82 21.75.26 30.6 1.76 2.78.47 2.6.52 2.27-.62-2.22-7.74.12-17.1 5.78-23.08l1.37-1.45-1.58.12c-.87.06-2.9.23-4.5.37-7.74.7-9.5.28-9.5-2.27 0-1.64.55-2.05 5.33-3.92 6.05-2.36 14.22-5.57 14.65-5.76.49-.2.78.02-3.15-2.4l-7.92-4.92-18.58-11.57c-8.28-5.13-8.14-3.8-1.66-15.18l2.16-3.83c.63-1.15 4.54-8.09 8.26-14.67l3.09-5.5c.3-.55 1.3-2.35 2.24-4a959.32 959.32 0 0 1 5.58-9.92 2129 2129 0 0 0 4.5-8c1.3-2.34 3.18-5.67 4.16-7.41 4.67-8.25 6.54-11.61 6.48-11.66-.14-.13-3.76-2.16-5.73-3.22-2.98-1.6-10.47-5.2-10.81-5.2-.04 0-.55-.22-1.13-.49C254 71.18 227.75 66.3 208.8 67.3m-48.34 10.15a168.89 168.89 0 0 0-6 2.55c-13.38 6.01-29.58 17.37-38.9 27.27l-.47.51.65.27c17.49 7.42 35.25 2.45 43.61-12.2a19.32 19.32 0 0 0 1.37-2.77 37.5 37.5 0 0 0 2.81-10.36c.33-2.63.53-6.59.33-6.58-.08 0-1.6.59-3.4 1.31"/><path fill="#040404" fill-rule="evenodd" d="M220.3.07c-6.12 1.16-9.82 5.71-9.62 11.86.08 2.4.18 2.83 1.1 4.7.85 1.72 3.62 4.5 4.48 4.5a4 4 0 0 1 .8.32c.37.17.96.35 1.32.4.81.13.93.25 1.12 1.15.23 1.17.99 5.43 1.24 7.05.13.83.3 1.72.4 1.99.1.26.17.67.17.91s.15 1.26.34 2.27a538.4 538.4 0 0 1 2 11.42c.09.4.28 1.42.41 2.25l.58 3.33c.19 1 .45 2.54.59 3.42.13.87.35 2.1.48 2.75.14.64.35 1.83.48 2.64l.23 1.48-1.27-.1c-5.49-.47-14.63-.6-19.34-.27-1.33.1-3.53.23-4.88.32-2.42.15-4.11.35-8.96 1.03-4.37.61-6.27.96-10.54 1.92l-2.2.48a159.1 159.1 0 0 0-6.59 1.69c-2.23.64-7.26 2.28-8.08 2.63-.28.12-.86.3-1.3.43-.44.11-.83.27-.88.35-.05.08-.21.15-.36.15s-.58.13-.95.3c-.37.17-1.13.48-1.68.68-.55.2-1.5.6-2.1.86-.6.27-1.14.49-1.2.49-.05 0-.73.3-1.51.67-.78.36-1.47.66-1.52.66-.16 0-8.02 3.9-9.34 4.63a153.9 153.9 0 0 0-8.95 5.35c-.53.3-1.06.64-1.17.75-.12.1-.62.46-1.13.77a29.4 29.4 0 0 0-2.33 1.62 265.21 265.21 0 0 0-6.68 5.05l-.71.58c-.1.1-.55.45-.98.8l-1 .84-1.46 1.27a92.64 92.64 0 0 0-6.26 5.93 144.1 144.1 0 0 0-6.5 6.84l-.83.99a124.4 124.4 0 0 0-5.2 6.5 136.8 136.8 0 0 0-3.82 5.39c-1.63 2.38-5.06 8.04-5.06 8.36 0 .07-.05.16-.12.2-.18.07-.98 1.58-2.74 5.13-2.02 4.1-2.3 4.7-2.3 4.95 0 .12-.07.22-.15.22-.09 0-.2.19-.26.42-.09.36-.3.85-1.1 2.66-.85 1.92-3.39 8.99-4 11.17l-1.28 4.5a71.1 71.1 0 0 0-1.56 6.46 5043.04 5043.04 0 0 0-.65 3.2c-.08.37-.3 1.72-.49 3l-.6 4.17a76.83 76.83 0 0 0-.42 4.09l-.34 5.08c-.48 7.02.1 18.24 1.34 25.92.17 1.05.36 2.29.42 2.75.06.45.17 1.05.26 1.33.08.27.22.95.3 1.5a65.4 65.4 0 0 0 1.43 6.3l.1.48-.62-.48-.83-.63c-.1-.1-1.04-.83-2.08-1.63l-4.06-3.12a1479.77 1479.77 0 0 0-6.13-4.73c-6.22-4.79-5.9-4.88-10.45 2.98l-2 3.33a585.1 585.1 0 0 0-6.74 11.37 62.37 62.37 0 0 1-2.01 3.28l-.34.42-.75-.38c-1.24-.63-5-2.6-6.25-3.28-.64-.34-2.1-1.1-3.25-1.68a36.53 36.53 0 0 1-2.16-1.15c-.05-.05-.65-.37-1.34-.72-.68-.34-1.72-.88-2.3-1.2a5.75 5.75 0 0 0-1.3-.58c-.12 0-.23-.06-.23-.14 0-.08-.24-.25-.54-.37a2.6 2.6 0 0 1-.63-.32 2.9 2.9 0 0 0-.66-.33 2.65 2.65 0 0 1-.67-.35c-.04-.06-.68-.4-1.42-.77a252.2 252.2 0 0 1-3.43-1.78c-2.36-1.24-2.97-1.35-4.23-.77-.96.43-2.42 2.52-2.42 3.45 0 .12-.07.22-.17.22-.09 0-.16.08-.16.19 0 .1-.52 1.25-1.15 2.54-1.52 3.11-2.02 4.2-2.02 4.42 0 .1-.07.18-.17.18-.09 0-.16.07-.16.17 0 .09-.19.55-.42 1.03-.23.47-.42.96-.42 1.08 0 .12-.07.22-.15.22-.09 0-.2.17-.27.37-.07.21-.6 1.35-1.18 2.53a19.62 19.62 0 0 0-1.06 2.37c0 .13-.08.23-.17.23-.1 0-.17.08-.17.18 0 .1-.44 1.1-.98 2.21-1.55 3.2-2.18 4.58-2.18 4.77 0 .1-.08.17-.17.17-.1 0-.17.08-.17.17 0 .1-.18.56-.41 1.03a4.8 4.8 0 0 0-.42 1.08c0 .12-.07.22-.15.22-.47 0-.67 2.14-.28 3.07.38.92.53 1 5.76 3 1.33.51 2.55 1 2.71 1.1.16.1.37.17.46.17a4 4 0 0 1 .88.3c1.18.52 2.32.99 3.37 1.38.55.2 1.3.5 1.68.68.37.16.79.3.92.3a.6.6 0 0 1 .4.16c.1.08.84.4 1.67.72a138.3 138.3 0 0 1 7.49 2.97c.09.09.27.15.42.16.14 0 .55.15.92.33.37.17.76.32.88.32.11 0 .49.16.83.34.34.19.75.34.9.34.16 0 .33.07.38.15.06.08.38.24.72.35.34.1.85.29 1.12.41.28.13 1.7.7 3.17 1.26 4.4 1.69 6.46 2.5 7.32 2.88 2.1.93 3.88.43 4.79-1.35.21-.43.8-1.53 1.31-2.45l1.33-2.5c.23-.46.46-.88.5-.92.05-.05.26-.42.48-.83a336.87 336.87 0 0 1 4.15-7.67c1.1-2.06 1.81-3.4 3.98-7.37 1.13-2.08 2.06-3.82 2.06-3.87 0-.04.23-.48.52-.96.29-.49.78-1.4 1.1-2.02.49-.98.63-1.13.93-1.06.38.09 2.44.4 6.45.96 5.83.82 10.92 1.56 13.16 1.91.88.14 1.83.25 2.13.24.49 0 1.54 1.51 1.54 2.22 0 .6 5 10.32 7.21 14.03 2.16 3.6 6.33 9.96 7.33 11.17l1.57 2.08a131.75 131.75 0 0 0 5.92 7.31c.76 1.08 8.75 9.3 11.3 11.62 3.78 3.44 7.8 6.74 11.84 9.71l2.91 2.16c.6.48 7.22 4.84 7.59 5 .14.05.74.4 1.33.79 1.07.68 1.9 1.16 3.66 2.12l2 1.1c.6.34 1.62.88 2.26 1.2a16 16 0 0 1 1.25.66c.2.2 3.35 1.67 3.58 1.67.14 0 .25.07.25.15 0 .09.17.2.37.27.4.13 3.25 1.44 3.99 1.84.24.13.53.24.63.24a5 5 0 0 1 1.02.4 7.9 7.9 0 0 0 1.33.51c.27.06.5.18.5.25 0 .08.24.2.54.26.3.06.61.17.7.24.3.23 6.58 2.5 6.92 2.5.17 0 .36.07.41.16.05.08.38.24.72.34 2.36.7 3 .9 3.29 1.03a112.55 112.55 0 0 0 7.75 2.14c5.39 1.5 14.74 3.1 22.91 3.92 6.38.64 20.83.73 26.42.16 1.33-.14 3.28-.32 4.33-.41 2.35-.2 5.37-.64 10.42-1.5a103.86 103.86 0 0 0 7.25-1.53 147.62 147.62 0 0 0 10.08-2.77c.46-.14 1.67-.55 2.69-.9s1.92-.64 2-.64c.14 0 1.27-.41 2.73-1a78.2 78.2 0 0 1 2.75-1.07c1.1-.42 2.23-.87 2.5-1a24 24 0 0 1 3.06-1.26c.1 0 .2-.08.2-.17 0-.09.09-.16.21-.16s.6-.2 1.08-.42c.48-.23.94-.42 1.03-.42.1 0 .17-.07.17-.16 0-.1.1-.17.24-.17.34 0 7.55-3.7 8.76-4.5.23-.14.6-.36.83-.48a9.69 9.69 0 0 0 2-1.18c1.92-1.09 8.28-5.2 9.08-5.87.1-.08.92-.7 1.84-1.37a155.38 155.38 0 0 0 6.01-4.68 40 40 0 0 0 1.5-1.25l2-1.75a134.8 134.8 0 0 0 11.83-11.92 62.2 62.2 0 0 1 1.68-1.92c.53-.48 5.1-6.42 6.54-8.5.38-.55 1.07-1.53 1.52-2.2a63.11 63.11 0 0 0 3.17-5.05c0-.08.06-.16.14-.2.2-.07 2.48-4.07 4.06-7.13.21-.41.44-.78.5-.8a.23.23 0 0 0 .13-.2c0-.07.38-.92.84-1.89.46-.96.83-1.83.83-1.93 0-.1.08-.18.17-.18.09 0 .16-.08.16-.18 0-.15.36-.99 1.09-2.57.49-1.06.9-2.09 1.82-4.42l1.35-3.46c.23-.57.48-1.32.57-1.67.08-.34.35-1.14.59-1.78.24-.65.53-1.55.66-2l.72-2.5a129.3 129.3 0 0 0 2.55-10.67l.49-2.83c.53-3.03.83-5.24 1-7.17.08-1 .25-2.66.37-3.67.35-3 .29-17.35-.09-21.25a151.82 151.82 0 0 0-1.69-12.41c-.36-2.3-1.96-9.04-2.97-12.5-.19-.65-.75-2.37-1.24-3.84-.5-1.46-.98-2.96-1.07-3.33a4.2 4.2 0 0 0-.4-1.04 1.5 1.5 0 0 1-.25-.65c0-.15-.14-.58-.32-.96a58 58 0 0 1-1.84-4.77c0-.09-.06-.16-.14-.16-.07 0-.23-.29-.35-.63-.24-.68-.62-1.54-1.66-3.74a12.8 12.8 0 0 1-.69-1.62c0-.1-.06-.18-.14-.18-.07 0-.23-.3-.36-.67-.12-.36-.26-.66-.32-.66s-.2-.29-.33-.63a2.9 2.9 0 0 0-.33-.7 10.9 10.9 0 0 1-.68-1.3 4.71 4.71 0 0 0-.7-1.2c-.08 0-.14-.09-.14-.19 0-.18-2.3-4.32-2.49-4.48a27.38 27.38 0 0 0-1.55-2.6l-1.38-2.2c-.17-.3-.37-.54-.44-.54-.08 0-.14-.07-.14-.17 0-.29-3.84-5.77-5.83-8.3a177.46 177.46 0 0 0-5.71-6.93 151.52 151.52 0 0 0-20.22-19.03 157.8 157.8 0 0 1-2.7-2.01 97.87 97.87 0 0 0-6.81-4.75 37.73 37.73 0 0 1-2.8-1.97c-.06-.1-.46-.33-.9-.53-.42-.19-1.8-.94-3.04-1.66a22.18 22.18 0 0 0-2.46-1.31c-.1 0-.2-.07-.2-.15 0-.08-.24-.25-.53-.37a3.2 3.2 0 0 1-.63-.31c-.04-.06-.72-.42-1.5-.82l-2.52-1.29a7.2 7.2 0 0 0-1.29-.56c-.1 0-.19-.08-.19-.17 0-.1-.07-.17-.15-.17-.08 0-.96-.38-1.96-.85a104.24 104.24 0 0 0-5.14-2.31 151.1 151.1 0 0 0-33.75-9.99l-3.36-.55-1.27-.21.89-1.34 1.02-1.5c.08-.1.96-1.4 1.97-2.92a84.4 84.4 0 0 1 1.93-2.83c.06-.04.96-1.34 2-2.88a6298.46 6298.46 0 0 1 13.81-20.24c.5-.76.92-1.38.94-1.38l1.07.34c2.9.92 6.5.14 8.96-1.95.82-.7 2.37-2.54 2.37-2.82 0-.07.1-.24.23-.39 1.74-2.05 1.82-10.14.12-11.68a3.4 3.4 0 0 1-.35-.57c-2.2-4.28-8.91-5.64-13.33-2.7-4.62 3.08-6.35 10.76-3.48 15.53l.3.5-1.07 1.58-1.25 1.83a899.6 899.6 0 0 0-6.68 9.83 85.2 85.2 0 0 0-1.84 2.67l-2.9 4.25c-3.54 5.17-5 7.31-6.14 9-.55.82-1.05 1.54-1.1 1.58-.05.05-.32.44-.6.88l-.5.79-.4-2.13-.7-3.95a5225 5225 0 0 0-4.24-24.17c-.09-.58-.64-3.71-1-5.72-.28-1.46-.24-1.86.18-1.86.95 0 4.1-2.85 5.1-4.6 2.44-4.28 1.86-10.1-1.35-13.38-.88-.9-2.6-2.2-2.92-2.2-.06 0-.34-.1-.63-.22a11.7 11.7 0 0 0-5.11-.67m3.37 5.6c2.26.96 3.5 4.02 2.72 6.73-1.86 6.47-10.6 5.78-10.6-.83 0-4.43 4.1-7.5 7.88-5.9m40.24 8.82c4.46 2.7 2.71 10.94-2.4 11.28-4.38.3-6.24-6.43-2.8-10.11 1.5-1.6 3.67-2.08 5.2-1.17m-38.7 53.05c19.34 1.7 36.02 6.29 53.17 14.6 2.98 1.45 10.25 5.42 10.25 5.6 0 .04-2.03 3.69-4.52 8.11l-6.03 10.7a37127.99 37127.99 0 0 1-20.2 35.92l-6 10.67c-5.93 10.5-5.88 9.88-.92 12.96a6008.3 6008.3 0 0 1 20.42 12.7c10.96 6.8 12.42 7.73 12.42 7.84 0 .06-.73.4-1.63.74a4221.3 4221.3 0 0 0-16.85 6.63c-2.68 1.1-2.56 4.23.19 4.87.8.19 1.7.15 6.9-.26 3.28-.26 6.15-.48 6.37-.48.33 0 .18.22-1.03 1.49a24.7 24.7 0 0 0-5.68 23.99c.1.37.08.39-.35.28-6.1-1.53-30.47-3.08-33-2.1-1.22.47-2.2 1.9-2.43 3.57-.17 1.24-.76 7.3-.9 9.35-.48 6.68 1.05 13.16 4.95 21 1.7 3.4 1.74 3.44 5.57 3.91 17.78 2.2 42.25 1.94 56.39-.6 8.23-1.48 14.32-3.62 15.99-5.63.19-.23.43-.26 1.42-.17 2.52.23 4.27-1.98 3.2-4.05-.39-.74-4-4.46-6.07-6.24a44.1 44.1 0 0 1-1.75-1.55c-.02-.04.48-.39 1.12-.78 16.76-10.06 16.57-32.9-.36-44.33a7.06 7.06 0 0 1-1.19-.9 565 565 0 0 1 10.97-.9c11.82-.93 11.9-.95 12.65-1.69.92-.92.98-.2-1.33-18.32-1.02-7.96-1.26-8.18-6.62-6.07a2123.86 2123.86 0 0 1-10.45 4.12c-3.4 1.35-3.29 1.31-3.14 1.07l3.62-4.95A14436.5 14436.5 0 0 0 339.2 143c.55-.76 1.06-1.32 1.13-1.25.43.45 3.78 7.6 5.22 11.13 20.24 49.67 6.9 104.72-33.82 139.6-2.83 2.42-2.7 2.36-3.26 1.52-5.84-8.72-29.01-19.36-53.66-24.62a240.04 240.04 0 0 0-27.5-4.34 77 77 0 0 1-3.54-.38l-.61-.12 4.23-3.48c4.64-3.82 4.97-4.2 4.58-5.36-.1-.3-3.74-5-8.09-10.44-4.35-5.43-7.9-9.94-7.9-10 0-.08.58-.42 1.29-.78 15.12-7.63 20.44-25.53 11.79-39.65-.34-.55-.38-.7-.18-.7.33 0 6.61.62 8.43.83 4.64.54 5.43-3.38 1.07-5.35a90.2 90.2 0 0 1-3.74-1.9c-1.42-.76-5.62-2.93-9.33-4.84a2687.39 2687.39 0 0 1-16.34-8.4l-8.25-4.26-5.58-2.88a42710.36 42710.36 0 0 0-26.87-13.85c-9.8-5.06-9.48-4.92-10.58-4.51-1.47.55-1.55.86-2.21 8.07l-1.51 16.09c-.8 8.13-1.08 7.66 5.59 8.9a10114.14 10114.14 0 0 1 13.5 2.52c1.83.34 3.38.67 3.44.72.07.06-.56.66-1.4 1.35-7.32 6.04-11.31 15.78-10.03 24.52.09.56.05.63-.46.86a24790 24790 0 0 1-39.3 18.12 1514.07 1514.07 0 0 1-9.98 4.6c-.86.41-1.58.74-1.61.74-.03 0-1 .45-2.16 1-1.16.55-2.14 1-2.17 1-.03 0-1 .45-2.17 1-1.16.55-2.13 1-2.16 1a1529.58 1529.58 0 0 1-12.2 5.61c-.25.1-.55-.5-2.06-4.03-13.7-32.14-13.56-67.02.39-98.29 1.12-2.53 1.04-2.45 1.93-1.89 6.4 4.05 23 8.54 25.29 6.84 1.1-.82 1.18-1.2 2-9.16l.15-1.33.83.04c.46.02 3.02.06 5.7.08l4.85.04.1 1.09c.05.6.17 2.5.27 4.25.21 3.78.31 4.22 1.12 4.92l.61.55 2.6-.11c6.4-.26 14.4-2.32 21-5.41 3.88-1.82 3.87-1.7.75-8.11-2.32-4.76-2.22-4.5-1.7-4.81a96.2 96.2 0 0 0 7.6-4.95l2.03-1.52.32.4c5.65 7.18 6.28 7.79 8.05 7.79 3.26 0 11.1-7.77 17.16-17.02 1.52-2.33 1.68-2.7 1.58-3.72-.18-1.77 0-1.6-5.96-5.34a412.42 412.42 0 0 1-3.96-2.5c-.03-.03.28-.76.69-1.62a151.1 151.1 0 0 0 3.36-8.26c.24-.66.5-1.2.58-1.2.07 0 2.37.56 5.1 1.25 5.51 1.4 5.76 1.41 6.66.51.71-.7 1.72-4.26 2.33-8.18.05-.37.21-1.19.35-1.82.58-2.74 1.22-10.3 1.23-14.64 0-1.27.04-1.46.29-1.48 3.18-.23 5.08-.27 11.12-.22 4.51.03 8.22.15 10 .3m-38.8 2.7c.87.44.89.44 2.84.26 2.35-.23 9.4-.55 9.51-.45.57.57-1.55 17.9-2.27 18.64-.07.07-2.07-.37-4.45-.98-6.96-1.77-7.25-1.7-8.67 2.37-1.69 4.85-3.56 9.17-5.09 11.74-1.41 2.38-1.11 3.05 2.32 5.13 4.54 2.76 7.19 4.45 7.2 4.58.03 1.39-8.42 11.22-12.11 14.08l-.7.54-.73-.88c-.4-.48-1.7-2.07-2.87-3.54-4.1-5.1-4.61-5.34-7.17-3.17a66.37 66.37 0 0 1-11.74 7.84c-2.8 1.43-2.8 1.7.14 7.63a67.45 67.45 0 0 1 2.14 4.54c-.12.12-3.58 1.55-4.16 1.71-.3.1-1.75.51-3.21.94-3.7 1.07-10.08 2.22-10.1 1.81l-.31-4.56c-.46-6.6-.34-6.47-5.37-6.15-3.47.22-8.9.13-10.65-.18-4.52-.8-4.76-.55-5.4 5.42-.61 5.77-.55 5.42-1 5.42-.42 0-3.9-.7-5.51-1.1a72.08 72.08 0 0 1-10.39-3.66c-1.65-.75-1.64-.6-.22-3.2 4.19-7.74 4.09-7.5 3.62-8.64-.15-.36-.46-.8-.69-1l-.42-.34 1.72-2.44c2.52-3.58 7.6-10 8.51-10.76.2-.16.54-.08 1.72.44 28.57 12.56 55.4-3.88 56-34.3.05-2.94.11-3.77.3-3.87 1-.56 14.23-4.07 16.16-4.28.09-.01.55.18 1.04.42m-22.44 7.85c0 17.08-10.75 30.57-26.33 33.03a40.87 40.87 0 0 1-21.78-2.91l-.97-.43 2.59-2.53a132.28 132.28 0 0 1 46.37-29.27c.07 0 .12.95.12 2.11m131.53 14a139.64 139.64 0 0 1 33.69 32c3.32 4.45 8.3 12.05 8.3 12.67 0 .12-3.77 5.33-8.36 11.6l-11.42 15.54a887.23 887.23 0 0 1-9.67 13.11c-.14.15-1.92.93-3.95 1.73l-8.9 3.51a146.7 146.7 0 0 1-5.38 2.06c-.1 0-1.57-.87-3.29-1.94l-6.12-3.8a18040.5 18040.5 0 0 0-22.08-13.75c-2.7-1.67-5.02-3.14-5.14-3.25-.17-.16-.02-.55.82-2.02l2.9-5.15a11358.53 11358.53 0 0 1 18.7-33.25 53240.14 53240.14 0 0 0 14.08-25.04 100.4 100.4 0 0 1 3.3-5.63c.06 0 1.2.72 2.52 1.6m-29.27 62.8c-1.57.7-2 2.58-.88 3.86 1.69 1.92 4.95.11 4.15-2.3-.46-1.38-2-2.12-3.27-1.56m30.27 19.4c-2.24 1.13-1.47 4.53 1.02 4.53 1.03 0 1.82-.44 2.2-1.23 1.02-2.17-1.13-4.38-3.22-3.3m-108.56 13.02a2532.32 2532.32 0 0 0 12.96 2.43l3.58.67c2.77.5 3.6.65 8.42 1.57 4.95.94 7.37 1.34 8.03 1.34 1.66 0 4.9 4.74 6.36 9.34 5.87 18.3-12.91 34.94-34.3 30.4-24.86-5.26-31.54-33.05-10.9-45.33 2.14-1.27 1.56-1.23 5.85-.42m116.08 9.2c3.8.76 8.18 2.9 11.33 5.51a16.02 16.02 0 0 1 2.96 2.89c9.24 10.95 6.46 26.06-5.92 32.2-2.24 1.11-1.96 1.1-3.6.1-7.98-4.86-20.06-9.61-29.85-11.73-1.18-.26-1.13-.19-1.86-2.4-3.39-10.13 1.4-20.73 11.33-25.09 1.77-.77 2.79-.92 9.16-1.34a37.6 37.6 0 0 0 3.07-.27c.15-.13 2.54-.05 3.38.12m-96.04 4.74c-8.52 1.86-11.88 10.9-6.18 16.6 7.27 7.28 20.53.8 18.5-9.05-1.03-5.03-7.03-8.7-12.32-7.55m83.72 5.67a9.27 9.27 0 0 0-4.13 15.5c5.75 5.78 15.3 1.73 15.27-6.49-.01-5.97-5.62-10.5-11.14-9M71.2 224.19c5.29 4.08 9.76 7.47 9.94 7.52.8.26 2.9 4.6 2.45 5.04-.06.06-4.93-.58-10.81-1.42-11.56-1.66-11.56-1.66-12.38-1.27-.74.36-.92.64-4.38 7.08A4294.94 4294.94 0 0 1 44.2 263l-1.07 1.95-.61-.26-1.2-.48a7042.32 7042.32 0 0 0-35.05-13.8c-.17-.07-.27-.17-.23-.24l.86-1.8c1.4-2.95 2.34-4.91 4.42-9.24a964.2 964.2 0 0 0 2.58-5.42c1.5-3.2 3.4-7.08 3.48-7.08.04 0 2.69 1.37 5.88 3.05 24.22 12.77 21.75 11.6 23.17 10.96.65-.3.89-.66 4.6-6.87 4.6-7.72 9.05-15.23 9.7-16.36.59-1.01-.63-1.8 10.47 6.77m95.6-6.35c5.82 15.2 25.1 24.13 42.55 19.7a5.81 5.81 0 0 1 1.8-.29l7.48 9.35 7.36 9.21-.96.8a14647.66 14647.66 0 0 1-20.96 17.27L191.9 283.9a108292.49 108292.49 0 0 0-31.64 26.04l-1.12.9-3.88-1.98c-25.44-13.04-45.4-32.14-58.86-56.37-1.67-3-1.64-2.86-.73-3.26.73-.32 2.57-1.17 4.8-2.2a58.8 58.8 0 0 1 1.91-.88l2-.92a2007.45 2007.45 0 0 1 10.67-4.92l3.25-1.5a8001.71 8001.71 0 0 0 11.75-5.42 1560.71 1560.71 0 0 0 8.5-3.91c.03 0 1-.45 2.16-1 1.17-.55 2.14-1 2.17-1a2499.07 2499.07 0 0 1 10.67-4.91c4.12-1.9 8.59-3.97 9.91-4.6 2.98-1.4 2.83-1.4 3.32-.12m84.52 8.8c7.46.33 16.07 1.34 22 2.6a125.8 125.8 0 0 1 14.29 3.74c10.27 3.37 19.47 8.19 25.8 13.51a15.7 15.7 0 0 1 1.54 1.4c-.3.26-23.26-2.3-32.88-3.67-2.2-.32-7.26-1-11.25-1.5-20.76-2.67-30.5-4.98-30.5-7.24 0-1.1.7-8.26.84-8.64.18-.44 3.3-.5 10.16-.2M19 233.97c-1.07.65-1.51 2.08-.97 3.13 1.2 2.3 4.6 1.5 4.6-1.08a2.47 2.47 0 0 0-2.42-2.38c-.37 0-.9.14-1.2.33m227.42 9.74c5.54 1.39 12.07 2.45 25.78 4.18 3.35.42 10.4 1.37 13.5 1.83 3.61.53 15.41 1.89 21.14 2.43 1.17.12 2.07.26 2 .33-.12.11-2.64.73-5.39 1.33-12.25 2.65-37.68 3.19-54.82 1.17-1.58-.2-2.98-.34-3.1-.34-.84 0-4.9-10.58-4.9-12.75 0-.03.93.28 2.09.68 1.15.4 2.82.91 3.7 1.14m-234.82 1.6c-.8.41-1.4 1.59-1.26 2.44.44 2.72 4.4 2.76 4.87.05.32-1.94-1.84-3.43-3.61-2.5m198.6 6.62c-1.9.48-2.38 3.22-.77 4.36 2.07 1.48 4.74-.88 3.55-3.15a2.6 2.6 0 0 0-2.78-1.2m15.17 17.88c35.13 3.3 68.85 14.7 78.7 26.64 1.13 1.38 1.15 1.3-.57 2.56-35.2 25.78-84 32.89-127.4 18.56-4.4-1.45-11.34-4.08-11.7-4.43-.07-.07 1.76-1.69 4.09-3.6l8.88-7.33a38852.59 38852.59 0 0 1 36-29.65l4-3.3 2.25.11c1.24.06 3.83.26 5.75.44"/><path d="M222.06 280.74a2.24 2.24 0 0 0-1.92 1.16c-.2.36-.3.79-.3 1.27a2.32 2.32 0 0 0 3.48 2.13 2.6 2.6 0 0 0 1-.94 2.34 2.34 0 0 0 .01-2.4 2.48 2.48 0 0 0-1-.92 2.65 2.65 0 0 0-1.27-.3zm-197.71-6.87a2.34 2.34 0 0 0-1.69.53 2.67 2.67 0 0 0-.9 1.5c-.06.3-.06.6 0 .89.05.29.16.57.35.84.18.26.44.5.77.71.32.2.77.3 1.21.32.45.01.9-.07 1.24-.24a2.32 2.32 0 0 0 1.27-2.09 2.44 2.44 0 0 0-1.25-2.13 2.6 2.6 0 0 0-1-.33z" style="fill:#000;fill-rule:evenodd" transform="translate(-11.36 -28.86)"/><path d="M257.01 255.36c-1.5 0-2.78.02-3.71.1-.37.02-.57.05-.68.13-.12.08-.15.2-.19.46-.1.74-.58 5.73-.7 7.45l-.1 1.42 1 .55c1.05.56 2.41 1.1 4.11 1.62 1.7.53 3.77 1.04 6.2 1.54 2.44.5 5.26 1 8.48 1.49 3.22.48 6.85.97 10.91 1.46 2.5.3 6.51.83 10.17 1.35 6.77.96 11.04 1.5 16.25 2.08 9.26 1.02 15.9 1.66 16.97 1.65h.53l-.67-.6a48.64 48.64 0 0 0-4.5-3.56 64.32 64.32 0 0 0-5.29-3.31 81.3 81.3 0 0 0-5.94-3.04 97.99 97.99 0 0 0-6.54-2.72 112.89 112.89 0 0 0-14.45-4.37 131.52 131.52 0 0 0-15.72-2.72 173.5 173.5 0 0 0-16.13-.98zm-5 15.45zm0 0c0 .44.15 1.12.38 1.96.23.84.55 1.85.95 2.94a74.25 74.25 0 0 0 2.94 7c.1.18.15.32.24.43.1.1.22.19.44.26.45.13 1.31.22 3.12.42a187.08 187.08 0 0 0 15.5 1.13 226.62 226.62 0 0 0 23.32-.4 137.76 137.76 0 0 0 13.81-1.59 91 91 0 0 0 5.92-1.16c.94-.22 1.42-.36 1.45-.47.02-.1-.41-.16-1.29-.24-3.44-.29-18.53-2-21.29-2.42a973 973 0 0 0-14.75-2c-4.14-.53-7.72-1-10.85-1.46a220.6 220.6 0 0 1-8.1-1.31c-2.3-.43-4.23-.84-5.91-1.27a41.6 41.6 0 0 1-4.35-1.35 6.27 6.27 0 0 0-1.53-.47z" style="fill:#fdab6b;fill-opacity:1;fill-rule:evenodd" transform="translate(-11.36 -28.86)"/><path d="M31.58 262.5c-.32 0-.63.07-.91.2a2.55 2.55 0 0 0-1.3 1.28c-.13.28-.2.59-.2.9a2.28 2.28 0 0 0 1.14 2.08 2.5 2.5 0 0 0 2.23.16c.25-.1.48-.24.69-.44.2-.19.39-.43.54-.71.13-.27.2-.55.23-.84a2.44 2.44 0 0 0-.52-1.68 2.48 2.48 0 0 0-.69-.62c-.3-.18-.84-.33-1.2-.33zm145.85-16.74c-.4.02-1.1.36-2.6 1.07l-9.91 4.59a2575.04 2575.04 0 0 0-10.67 4.91c-.03 0-1 .45-2.17 1-1.16.55-2.13 1-2.16 1a1550.83 1550.83 0 0 1-8.5 3.92 4045.4 4045.4 0 0 0-11.75 5.42l-3.25 1.5a5943.57 5943.57 0 0 1-14.59 6.7 345.41 345.41 0 0 1-4.79 2.22c-.23.1-.4.16-.5.25-.11.1-.15.2-.1.4.08.39.5 1.1 1.33 2.6a139.5 139.5 0 0 0 11.3 17.2 135.54 135.54 0 0 0 21.3 22 140.62 140.62 0 0 0 16.98 12c3 1.82 6.1 3.54 9.28 5.17l3.88 1.99 1.12-.9 11.22-9.23a108388.42 108388.42 0 0 1 32.57-26.83l10.91-9c5-4.1 9.52-7.83 10.05-8.27l.96-.8-7.36-9.2a5348.3 5348.3 0 0 0-7.48-9.35 5.8 5.8 0 0 0-1.8.29 36.62 36.62 0 0 1-9.9 1.12 38.92 38.92 0 0 1-15.74-3.62 37.83 37.83 0 0 1-7.98-5.01 33.24 33.24 0 0 1-4.34-4.36 29.78 29.78 0 0 1-3.35-5.06 27.2 27.2 0 0 1-1.24-2.77c-.12-.32-.2-.56-.3-.72-.1-.16-.23-.24-.42-.23zm44.63 34.98a2.65 2.65 0 0 1 2.27 1.22 2.3 2.3 0 0 1 0 2.4 2.58 2.58 0 0 1-2.25 1.24 2.27 2.27 0 0 1-1.93-1.19 2.63 2.63 0 0 1 0-2.51 2.23 2.23 0 0 1 1.91-1.16z" style="fill:#fbb20c;fill-rule:evenodd" transform="translate(-11.36 -28.86)"/><path d="M12.99 245c-.32-.03-.63.01-.92.1a2.64 2.64 0 0 0-1.09.75 2.64 2.64 0 0 0-.58 1.19 2.2 2.2 0 0 0 .35 1.73c.18.26.44.51.78.71a2.55 2.55 0 0 0 1.2.32 2.6 2.6 0 0 0 1.24-.24 2.42 2.42 0 0 0 .95-.89 2.44 2.44 0 0 0 .18-.38 2.44 2.44 0 0 0 .1-.4 2.44 2.44 0 0 0 .04-.42 2.44 2.44 0 0 0-.03-.42 2.44 2.44 0 0 0-.1-.4 2.44 2.44 0 0 0-.18-.38 2.6 2.6 0 0 0-1.94-1.26zM20.22 233.64a2.52 2.52 0 0 0-1.32.42 2.52 2.52 0 0 0-.89 1.06c-.13.28-.2.59-.2.9a2.47 2.47 0 0 0 .55 1.58 2.53 2.53 0 0 0 2.07.85 2.35 2.35 0 0 0 1.44-.63c.2-.19.39-.43.54-.71a2.4 2.4 0 0 0 .12-1.72 2.48 2.48 0 0 0-1.1-1.42c-.3-.18-.84-.33-1.2-.33zM297.62 173.97a2.48 2.48 0 0 0-2.06 1.18 2.48 2.48 0 0 0-.13 2.37 2.44 2.44 0 0 0 .88.95 2.44 2.44 0 0 0 1.25.37 2.62 2.62 0 0 0 1.33-.37 2.28 2.28 0 0 0 .82-.9 2.6 2.6 0 0 0 .14-.38 2.6 2.6 0 0 0 .08-.4 2.6 2.6 0 0 0 .02-.4 2.6 2.6 0 0 0-.04-.4 2.6 2.6 0 0 0-.1-.39 2.6 2.6 0 0 0-.17-.37 2.47 2.47 0 0 0-.87-.92 2.24 2.24 0 0 0-1.15-.34zM266.68 154.72a2.55 2.55 0 0 0-1.8 1.53 2.39 2.39 0 0 0 .08 1.96 2.39 2.39 0 0 0 1.52 1.24 2.38 2.38 0 0 0 1.35 0 2.38 2.38 0 0 0 1.14-.72c.27-.33.45-.7.54-1.08a2.34 2.34 0 0 0 .06-.46 2.34 2.34 0 0 0-.02-.46 2.34 2.34 0 0 0-.12-.44 2.34 2.34 0 0 0-.2-.41 2.34 2.34 0 0 0-.28-.37c-.26-.3-.61-.53-1.03-.7a2.2 2.2 0 0 0-1.24-.09z" style="fill:#000;fill-rule:evenodd"/><path d="M304.32 119.33c-.06 0-1.54 2.53-3.28 5.63A51859.21 51859.21 0 0 1 286.96 150l-3.38 6a11355.35 11355.35 0 0 0-18.23 32.4 15 15 0 0 0-.79 1.5c-.12.3-.11.44-.03.53.12.1 2.43 1.57 5.14 3.25a18579.84 18579.84 0 0 1 28.2 17.54 45.9 45.9 0 0 0 3.28 1.95c.1 0 2.51-.93 5.38-2.06l8.91-3.51c2.03-.8 3.8-1.58 3.95-1.74.23-.26 2.04-2.72 9.67-13.11l11.41-15.54a410.8 410.8 0 0 0 8.36-11.6c0-.16-.69-1.36-1.63-2.88a131.15 131.15 0 0 0-10.14-14.24 135.54 135.54 0 0 0-20.53-20.39 153.18 153.18 0 0 0-4.73-3.65c-2.6-1.93-7.25-5.12-7.48-5.12zm-26.28 64.25c.4-.08.83-.06 1.24.1.42.16.77.4 1.03.69a2.4 2.4 0 0 1 .56 2.14 2.5 2.5 0 0 1-1.74 1.81 2.46 2.46 0 0 1-3.04-1.94c-.07-.45-.02-.88.14-1.26a2.55 2.55 0 0 1 1.8-1.54zm30.94 19.25c.39 0 .78.11 1.15.34.38.23.67.55.87.91a2.6 2.6 0 0 1 .07 2.35 2.2 2.2 0 0 1-.82.9 2.42 2.42 0 0 1-2.58 0 2.33 2.33 0 0 1-1.13-2.3 2.49 2.49 0 0 1 1.32-1.92c.35-.18.73-.28 1.12-.28zM274.23 42.95a3.7 3.7 0 0 0-1.65.04c-.6.14-1.15.4-1.63.73-.48.34-.9.76-1.26 1.24a6.72 6.72 0 0 0-.86 1.57 7.62 7.62 0 0 0-.47 3.6c.07.59.21 1.17.44 1.7a4.52 4.52 0 0 0 2.3 2.51 3.53 3.53 0 0 0 2.44.23c.42-.1.84-.26 1.25-.48a5.95 5.95 0 0 0 2.9-4.2 7.27 7.27 0 0 0-.98-5.14c-.3-.46-.67-.86-1.09-1.16a3.6 3.6 0 0 0-1.4-.64z" style="fill:#fbb20c;fill-rule:evenodd" transform="translate(-11.36 -28.86)"/><path d="M274.23 42.95c.5.1.97.33 1.4.64.4.3.77.7 1.08 1.16.31.45.56.97.74 1.53a7.3 7.3 0 0 1-.37 5.39 5.95 5.95 0 0 1-2.3 2.42c-.4.22-.82.39-1.24.48-.42.1-.85.13-1.26.1a3.4 3.4 0 0 1-1.17-.33 4.52 4.52 0 0 1-1.4-1.05 5.09 5.09 0 0 1-.91-1.46 6.37 6.37 0 0 1-.44-1.7 7.47 7.47 0 0 1 1.33-5.17c.36-.48.78-.9 1.26-1.24a4.83 4.83 0 0 1 1.63-.73 3.7 3.7 0 0 1 1.65-.04zm-40.81-8.85a3.8 3.8 0 0 0-1.09.01 6.45 6.45 0 0 0-2.23.84c-.64.4-1.18.9-1.6 1.48a6.54 6.54 0 0 0-1.33 3.94c-.01.7.08 1.38.29 2a5.09 5.09 0 0 0 1.63 2.4 4.41 4.41 0 0 0 1.89.86 5.82 5.82 0 0 0 2.95-.18 5.58 5.58 0 0 0 2.7-1.94 6.53 6.53 0 0 0 1.34-4.75 5.7 5.7 0 0 0-1.46-3.14 5.5 5.5 0 0 0-3.1-1.52z" style="fill:#fbb20c;fill-rule:evenodd" transform="translate(-11.36 -28.86)"/><path d="m217.52 269.27-2.9 2.4-4.8 3.96a6495.07 6495.07 0 0 0-17 14l-8.5 7-8.91 7.34a951.17 951.17 0 0 1-3.34 2.74 405.2 405.2 0 0 0-7.6 6.34c0 .1 3.57 1.55 6.5 2.63a146.74 146.74 0 0 0 15.65 4.82 146.74 146.74 0 0 0 16.1 3.04 151.4 151.4 0 0 0 23.76 1.19 145.44 145.44 0 0 0 23.2-2.6 140.53 140.53 0 0 0 22.21-6.3 137.01 137.01 0 0 0 20.83-9.91 133.6 133.6 0 0 0 11.3-7.41l.96-.73-.37-.53c-.39-.55-.86-1.13-1.43-1.72-.56-.59-1.2-1.19-1.93-1.8a39.52 39.52 0 0 0-2.4-1.87 72.38 72.38 0 0 0-9.48-5.65 98.8 98.8 0 0 0-7.73-3.5 188.88 188.88 0 0 0-13.92-4.8 188.88 188.88 0 0 0-14.25-3.69 268.1 268.1 0 0 0-11.33-2.15 227.86 227.86 0 0 0-23.68-2.7z" style="fill:#fbe4bd;fill-rule:evenodd"/><path d="M302.25 196.36c-1.04 0-2.68.15-6.19.44-3.13.26-4.62.38-5.6.55-.48.09-.84.19-1.2.33-.37.14-.74.32-1.26.56a22.32 22.32 0 0 0-5.02 3.22 20.53 20.53 0 0 0-4.68 5.86 19.66 19.66 0 0 0-1.94 12.77 20.95 20.95 0 0 0 1.07 3.83l.46 1.2 2.42.6c2.67.66 5.26 1.4 7.78 2.2 2.52.8 4.96 1.67 7.3 2.6a96.3 96.3 0 0 1 6.75 2.96 79.27 79.27 0 0 1 6.1 3.3l1.31.8c.33.17.56.27.78.3.22.01.44-.04.72-.16.28-.13.63-.32 1.13-.57a23.89 23.89 0 0 0 3.19-1.94 21.32 21.32 0 0 0 4.78-4.8 19.18 19.18 0 0 0 3.51-11.84 20.95 20.95 0 0 0-1.12-6.18 22.35 22.35 0 0 0-2.94-5.77 23.46 23.46 0 0 0-4.67-4.94 25.06 25.06 0 0 0-6.34-3.67c-1.19-.48-2.44-.9-3.76-1.23-.55-.14-.94-.25-1.32-.32-.37-.06-.74-.1-1.26-.1zm-9.5 10.25a8.5 8.5 0 0 1 4.43.63 9.39 9.39 0 0 1 2.12 1.24 9.39 9.39 0 0 1 1.73 1.74 9.39 9.39 0 0 1 1.22 2.14 9.39 9.39 0 0 1 .62 2.37 9.39 9.39 0 0 1-.02 2.46 9.39 9.39 0 0 1-.65 2.37 9.39 9.39 0 0 1-1.25 2.12 9.39 9.39 0 0 1-1.75 1.72 9.26 9.26 0 0 1-3.53 1.6 8.61 8.61 0 0 1-3.64-.03 9.18 9.18 0 0 1-6.4-5.19 9.09 9.09 0 0 1-.82-3.87 9.88 9.88 0 0 1 1.11-4.51 9.33 9.33 0 0 1 4.75-4.27 8.64 8.64 0 0 1 2.09-.52zM184.38 186.72c-.1-.02-.36.05-.71.21a28.55 28.55 0 0 0-7.1 5.1 24.13 24.13 0 0 0-3.95 5.26 22.21 22.21 0 0 0-2.65 8.9 22 22 0 0 0 1.24 9.16 23.64 23.64 0 0 0 2.95 5.73 25.72 25.72 0 0 0 4.62 5.06 29.26 29.26 0 0 0 6.28 4.09 35 35 0 0 0 8.66 2.92 33.15 33.15 0 0 0 12.64-.03 31.75 31.75 0 0 0 7.57-2.55 29.4 29.4 0 0 0 6.38-4.24 25.76 25.76 0 0 0 4.77-5.64 22.3 22.3 0 0 0 2.72-6.77 21.15 21.15 0 0 0 .25-7.6 23.51 23.51 0 0 0-2.25-7.2 22.38 22.38 0 0 0-1.7-2.8 12.5 12.5 0 0 0-1.77-2.06 4.86 4.86 0 0 0-.82-.6 1.95 1.95 0 0 0-.74-.27c-1.04-.1-2.83-.42-8.63-1.5a13727.73 13727.73 0 0 0-20.17-3.76zm26.21 14.29a11.93 11.93 0 0 1 4.02.95 10.46 10.46 0 0 1 3.65 2.69 9.71 9.71 0 0 1 2.01 3.83 9.19 9.19 0 0 1-.75 6.57 10.34 10.34 0 0 1-4 4.27 11.36 11.36 0 0 1-4.05 1.47 12.24 12.24 0 0 1-5.67-.38 10.85 10.85 0 0 1-3.7-2.09 9.68 9.68 0 0 1-3.2-6.56 8.97 8.97 0 0 1 .78-4.15 10.31 10.31 0 0 1 2.48-3.51 11.35 11.35 0 0 1 8.43-3.1z" style="fill:#fff;fill-rule:evenodd"/><path d="M185.3 70.01c-.38 0-.9.1-1.83.3a159.64 159.64 0 0 0-13.3 3.54l-1.1.38-.1 4c-.06 1.89-.2 3.72-.45 5.5a45.41 45.41 0 0 1-2.54 9.93 38.9 38.9 0 0 1-4.53 8.37 35.35 35.35 0 0 1-6.24 6.64 34.32 34.32 0 0 1-11.95 6.35 36.95 36.95 0 0 1-9.3 1.57 41.52 41.52 0 0 1-10.04-.75 48.78 48.78 0 0 1-5.21-1.3 53.66 53.66 0 0 1-5.3-1.95l-2-.85-.8.87a132.37 132.37 0 0 0-8.38 10.74l-1.12 1.64.44.4c.33.31.57.6.7.94.06.17.1.35.1.55 0 .2-.02.42-.08.67-.11.5-.35 1.1-.73 1.9-.38.78-.9 1.74-1.57 2.94-.62 1.1-1.47 2.7-1.9 3.54l-.76 1.53.62.32c.98.5 2.27 1.05 3.7 1.59a80.72 80.72 0 0 0 9.14 2.81c1.4.34 2.63.57 3.53.65l.58.06.3-2.67c.25-2.32.43-4.04.63-5.3.1-.62.2-1.14.34-1.55.12-.42.27-.74.46-.99.18-.24.4-.4.66-.5.27-.11.58-.16.95-.16.75 0 1.74.16 3.1.35a66.2 66.2 0 0 0 11.28.08 9.98 9.98 0 0 1 2.27-.08c.22.04.4.11.58.23.17.11.34.26.56.47.25.23.53.65.63.93.07.23.24 2.05.39 3.99.15 1.94.28 4.01.28 4.76v.57l1.29-.1c1.01-.08 2.52-.35 4.22-.72 1.7-.37 3.57-.84 5.32-1.33 1.75-.49 3.38-1 4.57-1.42.59-.22 1.07-.42 1.4-.59.34-.17.53-.31.53-.41 0-.08-.95-2.08-2.1-4.44a58.85 58.85 0 0 1-1.63-3.5c-.18-.45-.32-.83-.41-1.17-.1-.34-.14-.64-.14-.9 0-.25.03-.47.12-.67.08-.2.21-.38.39-.54.34-.33.87-.61 1.57-.95a39.5 39.5 0 0 0 3.17-1.76 93.16 93.16 0 0 0 7.08-4.79c.94-.72 1.64-1.32 1.95-1.7.18-.2.41-.37.68-.5a2.96 2.96 0 0 1 1.8-.2c.3.08.58.2.83.36.23.15 1.77 1.91 3.34 3.78a87.49 87.49 0 0 1 3.55 4.39c.04.06.13.05.27-.01.14-.06.33-.18.56-.34.45-.33 1.06-.84 1.75-1.48a56 56 0 0 0 4.62-4.77 72.56 72.56 0 0 0 5.16-6.9c.33-.54.5-.89.44-.94-.15-.13-6.1-3.86-7.7-4.83-.7-.42-1.23-.8-1.63-1.16-.4-.36-.66-.72-.79-1.08-.07-.19-.1-.38-.1-.57 0-.2.03-.4.09-.61.12-.43.36-.9.71-1.45.33-.52.72-1.22 1.13-2.05.42-.84.86-1.81 1.32-2.87.92-2.13 1.88-4.6 2.73-7.08.33-.94.6-1.65.92-2.16.16-.26.34-.46.55-.62.2-.16.44-.27.71-.34.28-.07.6-.1.98-.09.38.01.81.06 1.32.15 1.02.17 2.32.49 4.02.92 2.43.61 4.46 1.06 4.51 1 .06-.05.27-.98.49-2.06.6-3.04.96-5.1 1.2-6.96.25-1.87.37-3.54.46-5.84.05-1.28.14-2.63.19-2.98l.1-.65-2.81.1c-1.55.07-4.21.2-5.92.3-1.53.1-2.3.15-2.8.13a1.96 1.96 0 0 1-1-.29c-.4-.21-.64-.31-1.02-.32z" style="fill:#fbe4bd;fill-rule:evenodd"/><path fill="#0b6f7a" fill-rule="evenodd" d="M208.77 67.26c.49.03 1.24.03 1.67 0 .43-.04.03-.06-.88-.06-.92 0-1.27.02-.79.06m8.08 0c.53.03 1.39.03 1.92 0 .52-.03.1-.06-.96-.06s-1.49.03-.96.06m-11.59.16c.3.04.82.04 1.17 0 .35-.03.1-.06-.54-.06s-.92.03-.63.06m15.92 0c.35.04.9.04 1.25 0 .35-.03.07-.06-.62-.06s-.97.03-.63.06m-17.34 1.42.03 1.38.06-1.25c.04-.72.14-1.3.26-1.37.14-.09.1-.13-.1-.13-.25 0-.28.16-.25 1.37m19.93-1.25c.3.04.78.04 1.08 0 .3-.04.05-.07-.54-.07-.6 0-.84.03-.54.07m2.42.17c.25.03.62.03.83 0 .2-.05 0-.08-.46-.08s-.63.04-.37.08m1.83.16c.16.04.42.04.58 0 .16-.04.03-.08-.3-.08-.31 0-.44.04-.28.08m1.5.16c.16.05.42.05.58 0 .16-.04.03-.07-.3-.07-.31 0-.44.03-.28.07m1.42.17c.2.04.5.04.66 0 .16-.04 0-.07-.38-.07-.36 0-.5.03-.28.07m1.4.17c.17.04.43.04.6 0 .15-.04.02-.08-.3-.08s-.45.04-.3.08m-35 1.66c.17.05.43.05.6 0 .15-.04.02-.07-.3-.07s-.45.03-.3.07m-3.91.18c.3.03.82.03 1.17 0 .34-.04.1-.07-.54-.07s-.93.03-.63.07m50.04.04a3 3 0 0 0 .84.13c.37 0 .36-.01-.09-.13-.7-.18-1.3-.18-.75 0m-52.95.12c.16.04.42.04.58 0 .16-.04.03-.08-.3-.08-.31 0-.44.04-.28.08m8.16 1.38c0 .32.03.45.08.3.04-.17.04-.43 0-.59-.05-.16-.08-.03-.08.3m5.02 1c0 .77.03 1.1.06.7.04-.39.04-1.03 0-1.42-.03-.39-.06-.07-.06.71m45.6-1.16c.58.18 1.02.18.6 0a1.94 1.94 0 0 0-.68-.14c-.26 0-.25.03.09.14m1.91.5c.19.07.49.14.67.13.27 0 .25-.03-.08-.13-.57-.19-1.01-.19-.59 0m1.34.33c.18.08.44.14.58.14.16 0 .13-.05-.08-.14a1.86 1.86 0 0 0-.59-.14c-.15 0-.12.05.09.14m2.58.75c.32.12.7.22.83.22.14 0 0-.1-.33-.22a3.4 3.4 0 0 0-.83-.23c-.14 0 .01.1.33.23m2.24.68c.64.22 1.24.4 1.34.39.1 0-.35-.2-.99-.42a8.5 8.5 0 0 0-1.33-.39c-.1 0 .35.2.98.42m-58.87 1.07c0 .32.04.45.08.3.04-.17.04-.43 0-.6-.04-.15-.08-.02-.08.3m5.02 1c0 .69.03.97.07.62.03-.34.03-.9 0-1.25-.04-.34-.07-.06-.07.63m57.94-.78c0 .1 2.04.8 2.13.71.03-.03-.34-.2-.82-.36l-1.1-.36c-.11-.05-.2-.04-.2 0m-98.26 1.04c-.41.2-.43.23-.08.14.47-.11 1-.38.75-.38-.1 0-.4.11-.67.24m100.75-.11c.14.08.44.2.67.26.3.08.34.07.17-.04-.14-.08-.44-.2-.67-.27-.29-.07-.34-.06-.17.05m1.84.66c.14.09.44.2.66.27.3.08.35.06.17-.04-.14-.09-.44-.2-.67-.27-.28-.08-.34-.06-.16.04m-105.72.64c-.8.33-1.44.63-1.4.66a24.2 24.2 0 0 0 3.1-1.2c.18-.17-.35 0-1.7.54m107.38.03c.14.09.44.2.67.27.3.07.34.06.17-.05-.14-.08-.44-.2-.67-.26-.29-.08-.34-.07-.17.04m-64.12.86c0 .32.03.45.07.3a1.4 1.4 0 0 0 0-.59c-.04-.16-.07-.03-.07.3m-47.04.74c-.23.13-.34.24-.25.24.09 0 .35-.1.58-.24.23-.13.34-.24.25-.24-.1 0-.35.11-.58.24m7.55.75c0 .6.03.84.07.54.04-.3.04-.78 0-1.08-.04-.3-.07-.05-.07.54m107.45-.75c.23.13.49.24.58.24.1 0-.02-.1-.25-.24a2 2 0 0 0-.58-.24c-.1 0 .02.11.25.24m-116.17.5c-.23.13-.34.24-.25.24.1 0 .36-.1.58-.24.23-.13.35-.24.25-.24-.09 0-.35.11-.58.24m48.04.25c0 .32.03.45.08.3.04-.17.04-.43 0-.59-.05-.16-.08-.03-.08.3m-34.33.58c0 .36.04.5.08.29.04-.21.03-.51 0-.67-.05-.16-.08 0-.08.38m105.12-.17c.42.22.83.4.92.4.1 0-.17-.18-.58-.4-.41-.22-.83-.4-.92-.4-.1 0 .17.18.58.4m-121.66.67c-.78.4-1.34.73-1.25.73.09 0 .8-.33 1.58-.73.78-.4 1.34-.74 1.25-.74-.1 0-.8.33-1.58.74m50.7.25c0 .32.04.45.08.29.04-.16.04-.43 0-.59-.04-.16-.08-.03-.08.3m72.46-.25c.23.13.5.23.59.23.09 0-.02-.1-.25-.23a1.7 1.7 0 0 0-.59-.24c-.09 0 .03.1.25.24m-111.78.91c0 .41.03.58.07.38.04-.2.04-.55 0-.75-.04-.2-.07-.04-.07.37m112.62-.58c0 .11 1.02.62 1.1.54.03-.04-.2-.19-.52-.34-.32-.15-.58-.24-.58-.2m-126.5.92c-.32.17-.53.32-.45.32.17.01 1.11-.48 1.11-.58 0-.1 0-.1-.66.26m128.25-.04c.27.23 1.11.55 1 .39a1.68 1.68 0 0 0-.62-.34c-.3-.1-.47-.13-.38-.05m-129.8.8c-.43.22-.79.45-.79.5 0 .04.38-.12.84-.35.46-.23.83-.46.83-.5 0-.11.02-.12-.87.35m15.25.32c0 .37.03.5.07.29.04-.2.04-.5 0-.67-.04-.16-.07.01-.07.38m116.38-.17c.18.13.4.24.5.24.08 0 .01-.1-.17-.24a1.2 1.2 0 0 0-.49-.25c-.09 0-.02.11.16.25m1.4.66c0 .05.46.31 1 .6.56.27 1 .46 1 .41 0-.04-.44-.3-1-.58-.54-.28-1-.47-1-.43m-135.86.73c-.61.34-1.18.7-1.25.77-.15.17 2.12-1.05 2.36-1.26.29-.27.02-.15-1.11.49m56.9.36c0 .32.04.45.08.3a1.4 1.4 0 0 0 0-.59c-.04-.16-.07-.03-.07.3m81.46.24c0 .04.3.23.66.42.37.19.67.3.67.26 0-.05-.3-.24-.67-.43-.36-.18-.66-.3-.66-.25m-140.38.51c-.62.34-.58.48.04.16.28-.14.5-.3.5-.34 0-.1-.01-.1-.54.18m141.88.32c0 .04.3.24.66.42.37.19.67.3.67.26 0-.05-.3-.24-.67-.42-.36-.2-.66-.3-.66-.26m-143.46.6c-.48.29-.88.55-.88.6a8 8 0 0 0 1.75-.97c.28-.25.02-.14-.87.38m-1.82 1.11c-.93.6-1.14.86-.3.37.61-.36 1.25-.85 1.07-.82-.04 0-.39.2-.77.45m147.84-.23c.18.14.4.28.49.31.1.03.09.2-.04.46-.19.39-.18.4.06.09.37-.46.33-.55-.28-.85-.46-.22-.5-.22-.23 0m-149.52 1.27c-.57.37-.75.61-.25.34.38-.21.98-.68.87-.68-.04 0-.32.15-.62.34m23.89.25c-.06.24-.08.47-.04.51.04.04.12-.13.18-.37s.08-.48.04-.52c-.04-.03-.12.13-.18.38m125.4.4c-.19.37-.3.67-.26.67.05 0 .24-.3.43-.67.19-.36.3-.66.25-.66-.04 0-.23.3-.42.66m-1.42 2.54-1.03 1.84c-.04.07-.03.12 0 .12.07 0 1.14-1.84 2.07-3.54.04-.07.03-.12 0-.12-.05 0-.51.76-1.04 1.7m-152.37-.19c-.39.28-.7.54-.7.59 0 .04.33-.15.74-.44.41-.28.75-.55.75-.59 0-.11-.03-.1-.8.44m55.55.57c.37.12.82.22 1 .22.18 0-.04-.1-.5-.23-1.04-.3-1.4-.28-.5.01m-1.73.43c-.1.3-.16.57-.12.6.03.04.15-.17.25-.47.1-.29.16-.56.12-.6-.03-.03-.15.18-.25.47m12.93-.17a2.64 2.64 0 0 1-1.35 1.59c-.28.12-.39.22-.24.23.61.01 1.94-1.53 1.76-2.05-.03-.1-.11 0-.17.23m-68.95.76c-.69.5-1.36 1.04-1.5 1.18-.27.29 2.26-1.51 2.66-1.89.48-.45.07-.2-1.16.7m28.93.18c-.24.51-.43.98-.42 1.04 0 .14.47-.73.76-1.43.39-.92.12-.62-.34.39m32.15-.35c.46.13.91.23 1 .22.29-.02-1.14-.45-1.5-.45-.18 0 .05.1.5.23m-5.64 1.18c-.15.43-.24.81-.2.85.03.03.18-.29.33-.72.14-.44.24-.82.2-.86-.04-.03-.19.3-.33.73m7.9-.6c.22.07.56.13.74.13.27 0 .25-.03-.08-.13a3.03 3.03 0 0 0-.75-.14c-.26 0-.25.03.08.14m1.34.32c.14.1.4.17.57.17.42 0 .29-.09-.32-.23-.37-.08-.43-.06-.25.06m88.62.13c-.82 1.48-1.3 2.43-1.17 2.3a13.1 13.1 0 0 0 1.32-2.42c-.05 0-.12.06-.15.12m-125.3 1.25-.62 1.13c-.23.41-.34.67-.25.58a9.3 9.3 0 0 0 1.15-2.08c-.05 0-.18.17-.29.37m-31.6.64c-.58.46-1.05.87-1.05.91 0 .05.5-.3 1.09-.77.93-.73 1.22-1 1.04-.98-.02 0-.51.38-1.08.84m58.24.44a5.21 5.21 0 0 0-.39 1.17c.04.03.26-.44.5-1.05.25-.61.42-1.14.39-1.17-.03-.04-.26.43-.5 1.05m-61.34 2.08c-1 .83-2.2 1.88-2.67 2.33-.47.45.15-.03 1.38-1.06 2.66-2.24 3.29-2.8 3.18-2.79-.05 0-.9.68-1.9 1.52m158.15-1.03c-.14.27-.22.5-.18.5.05 0 .2-.23.34-.5.15-.28.23-.5.18-.5-.05 0-.2.22-.34.5m-125.4 1.08a7.56 7.56 0 0 0-.79 1.25c.08 0 1.4-1.8 1.67-2.29.34-.59-.1-.06-.88 1.04m124.73.09c-.14.27-.22.5-.17.5.04 0 .2-.23.34-.5.14-.28.22-.5.17-.5-.04 0-.2.22-.34.5m-1.3 2.29c-1.14 2.03-1.31 2.37-1.22 2.37.04 0 .33-.47.65-1.04l1.11-2c.3-.53.5-.96.46-.96-.04 0-.5.73-1 1.63m-96.33-.93c-.05.12-.2.5-.36.84-.14.35-.23.63-.19.63.12 0 .78-1.54.7-1.62-.03-.03-.1.03-.15.15m-29.93 1.98a35.6 35.6 0 0 1-5.52 4.7c-.3.22-.32.25-.07.13 1.32-.61 5.24-4.03 6.93-6.05 1.06-1.26.7-.92-1.34 1.22m-36.77 2.7c-2.32 2.25-3.1 3.1-2.93 3.2.15.1.19.08.12-.04-.06-.1 1.3-1.52 3.02-3.19a67.85 67.85 0 0 0 3.03-3.01c-.05 0-1.51 1.37-3.24 3.05m65.41-1.94c0 .08.17.24.38.37 1.03.64 1.2.73 1.04.58-.38-.38-1.42-1.07-1.42-.95m95.92 1.22c-.14.27-.22.5-.17.5.04 0 .2-.23.34-.5.14-.28.22-.5.17-.5-.04 0-.2.22-.34.5m-94 .09c.18.14.48.34.67.43l.33.16-.33-.27a4.33 4.33 0 0 0-.67-.43l-.33-.17.33.28m1.08.63c0 .05.4.32.88.61.48.3.76.43.62.3a5.13 5.13 0 0 0-1.5-.9m92.25.44c-.14.27-.22.5-.17.5.05 0 .2-.23.34-.5.14-.28.22-.5.18-.5-.05 0-.2.22-.35.5m-120.92 1.12-.58.63.63-.58c.34-.31.62-.6.62-.62 0-.13-.14-.01-.67.57m120.17.2c-.18.38-.3.68-.25.68.04 0 .23-.3.42-.67.19-.37.3-.67.26-.67-.05 0-.24.3-.43.67m-88.75-.04c.24.25 2.09 1.4 2.09 1.3 0-.05-.4-.33-.88-.64-1.17-.75-1.41-.88-1.2-.66m88 1.37c-.15.28-.23.5-.18.5.05 0 .2-.22.34-.5.14-.27.22-.5.18-.5-.05 0-.2.23-.35.5m-130.75.42a3.8 3.8 0 0 0-.95.57c.18.02 2.12-.97 2.12-1.07 0-.12.04-.13-1.17.5m45-.36c0 .05.28.25.6.45.34.2.75.6.92.9.17.28.32.42.32.31 0-.3-.74-1.1-1.32-1.44-.28-.16-.52-.26-.52-.22m-75 .58c.14.09.44.2.67.27.3.07.34.06.17-.05-.14-.08-.44-.2-.67-.26-.29-.08-.34-.07-.17.04m1.17.42c0 .1 2 .78 2.24.76.1 0-.2-.14-.66-.3-1.26-.46-1.58-.55-1.58-.46m158.95.07c-.82 1.48-1.3 2.42-1.16 2.29.23-.23 1.43-2.42 1.32-2.42-.05 0-.12.06-.16.13m-155.7 1.04c.18.08.45.14.58.14.16 0 .13-.05-.08-.14a1.85 1.85 0 0 0-.58-.14c-.16 0-.13.05.08.14m20.92.08c-.32.13-.47.23-.34.23.14 0 .52-.1.84-.23.32-.12.47-.22.33-.22-.14 0-.51.1-.83.22m-18.34.59c.23.07.6.13.84.13.37 0 .36-.02-.09-.13-.7-.18-1.3-.18-.75 0m16.17 0c-.33.1-.35.13-.08.13.18 0 .48-.06.66-.13.43-.19 0-.19-.58 0m53.88.41c0 .37.03.5.07.3.04-.22.04-.52 0-.67-.04-.16-.07 0-.07.37m-64.92.37c.3.04.75.04 1 0s0-.07-.54-.07c-.55 0-.76.04-.46.07m6 0c.3.04.75.04 1 0s0-.07-.54-.07c-.55 0-.76.04-.46.07m-3.33.17c.49.04 1.24.04 1.67 0 .43-.03.03-.06-.88-.06-.92 0-1.27.03-.79.06m143.45.71c-.14.28-.22.5-.17.5.05 0 .2-.22.34-.5.14-.27.22-.5.18-.5-.05 0-.2.23-.35.5m-81.77.38c-.1.2-.3.56-.44.79-.23.4-.23.4.04.08.34-.4.8-1.25.68-1.25-.04 0-.17.17-.28.38m81.1.79c-.13.27-.21.5-.17.5.05 0 .2-.23.34-.5.15-.28.23-.5.18-.5-.05 0-.2.22-.34.5m-82.21.96c-.43.62-.57.87-.5.87.05 0 .28-.3.52-.66.5-.75.47-.93-.02-.21m81.54.2c-.14.28-.22.5-.17.5.04 0 .2-.22.34-.5.14-.27.22-.5.17-.5-.04 0-.2.23-.34.5m-.67 1.17c-.14.28-.22.5-.17.5.05 0 .2-.22.34-.5.14-.27.22-.5.18-.5-.05 0-.2.23-.35.5m-83.06 1.85c-4 5.65-9.43 11.16-13.19 13.37-.4.25-.67.45-.57.45.25 0 2.25-1.35 3.66-2.47 1.6-1.27 5.1-4.83 7.07-7.2 1.75-2.1 4.85-6.33 4.63-6.33-.03 0-.75.98-1.6 2.18m-58.48-1.06c.44.04 1.15.04 1.59 0 .43-.03.08-.06-.8-.06-.87 0-1.22.03-.79.06m141.08 0c-.82 1.48-1.3 2.43-1.17 2.3.24-.23 1.43-2.42 1.33-2.42-.05 0-.12.06-.16.12m-90.55 3.09-.49.54.55-.49c.5-.46.61-.6.49-.6-.03 0-.28.25-.55.55m88.52.55c-.15.24-.24.47-.2.52.05.05.2-.15.35-.43.33-.63.24-.68-.15-.09m-.67 1.24c-.14.27-.22.5-.18.5.05 0 .2-.23.34-.5.15-.28.23-.5.18-.5-.05 0-.2.22-.34.5m-90.67 1.2-1.5 1.55 1.54-1.5c1.44-1.39 1.62-1.58 1.5-1.58-.03 0-.72.69-1.54 1.54m90-.04c-.14.27-.22.5-.17.5.04 0 .2-.23.34-.5.14-.28.22-.5.17-.5-.04 0-.2.22-.34.5m-104.25 1.88c-2.55 1.93-2.6 1.98-2.25 1.8a28.2 28.2 0 0 0 2.08-1.5l1.75-1.34.81.87.8.87-.72-.95c-.87-1.15-.58-1.18-2.47.25m103.58-.72c-.14.28-.22.5-.17.5.05 0 .2-.22.34-.5.14-.27.22-.5.18-.5-.05 0-.2.23-.35.5m-.75 1.34c-.18.36-.3.66-.25.66.04 0 .23-.3.42-.66.19-.37.3-.67.26-.67-.05 0-.24.3-.43.67m-98.9 1.15c.42.54.93 1.12 1.12 1.3.2.16-.12-.29-.7-1-1.24-1.51-1.56-1.74-.43-.3m98.16.18c-.14.27-.22.5-.17.5.05 0 .2-.23.34-.5.14-.28.22-.5.18-.5-.05 0-.2.22-.35.5m-107.36 1.63c-1.3.82-2.33 1.55-1.55 1.12.84-.47 3.16-1.95 3.16-2.01 0-.11.02-.12-1.6.9m106.6-.3c-.18.36-.3.66-.25.66.04 0 .23-.3.42-.67.19-.36.3-.66.26-.66-.05 0-.24.3-.43.66m-95.23 1.15c1.04 1.35 2 2.35 2.28 2.35.11 0 0-.13-.24-.3a9.93 9.93 0 0 1-1.39-1.45c-1.26-1.55-1.68-1.94-.65-.6m-13.9.68c-.65.4-.65.5-.03 1.67.61 1.17.64.98.04-.27-.44-.9-.44-.95-.15-1.12.48-.3.87-.6.77-.6-.04 0-.32.14-.62.32m107.37 1.34c-.14.27-.22.5-.17.5.05 0 .2-.23.34-.5.14-.28.22-.5.18-.5-.05 0-.2.22-.35.5m-90.04.62c.26.04.67.04.92 0s.05-.07-.46-.07c-.5 0-.7.03-.46.07m89.38.55c-.14.27-.22.5-.18.5.05 0 .2-.23.34-.5.15-.28.23-.5.18-.5-.05 0-.2.22-.34.5m-129.54-.06c.16.05.42.05.58 0 .16-.04.03-.07-.3-.07-.31 0-.44.03-.28.07m-1.84.17c.16.04.43.04.59 0 .16-.04.03-.08-.3-.08-.32 0-.45.04-.29.08m-8.33.17c.16.04.42.04.58 0 .16-.04.03-.08-.29-.08-.32 0-.45.04-.3.08m5.51 0c.26.04.63.04.84 0 .2-.04 0-.07-.47-.07-.45 0-.62.03-.37.07m28.16.33c.29.7.5.88.29.26-.1-.3-.26-.58-.34-.64-.09-.05-.06.12.05.38m105.38.55c-.14.28-.22.5-.17.5.04 0 .2-.22.34-.5.14-.27.22-.5.17-.5-.04 0-.2.23-.34.5m-104.54 1.17c.34.82 1.6 3.27 1.62 3.13a39.3 39.3 0 0 0-1.76-3.62c-.06-.05 0 .17.14.49m102.78 1.96L259.7 139c-.04.07-.03.13 0 .13.05 0 .7-1.11 1.46-2.46l1.44-2.59c.04-.06.04-.12 0-.12-.05 0-.7 1.1-1.46 2.46m-124.28.12c0 .37.04.5.08.3.04-.22.03-.52 0-.67-.05-.16-.08 0-.08.37m-15.67.7c.16.04.43.04.59 0 .16-.04.03-.08-.3-.08-.32 0-.45.04-.29.08m-.66.64c0 .36.03.5.07.29.04-.21.04-.51 0-.67-.04-.16-.07 0-.07.38m2.42-.47c.3.04.75.04 1 0s0-.07-.55-.07-.75.04-.45.07m7.65 0c.96.05 1.21.12 1.27.35.06.2.08.18.1-.1.01-.35-.03-.37-1.28-.33l-1.29.03 1.2.06m-4.82.16c.57.03 1.5.03 2.08 0 .57-.03.1-.06-1.04-.06-1.15 0-1.62.03-1.04.06m-5.41 1.8c0 .45.03.62.07.37.04-.26.04-.63 0-.84-.04-.2-.08 0-.07.47m11.67.25c0 .6.03.84.07.54.03-.3.03-.79 0-1.09-.04-.3-.07-.05-.07.55m4.98-.5c0 .32.04.45.08.29.04-.16.04-.43 0-.59-.04-.16-.08-.03-.08.3M92 140.9c-.11.24-.16.48-.11.52.04.05.08.02.08-.07 0-.63.44-.77 1.11-.34a38.8 38.8 0 0 0 4.4 2.19c.22.06-.49-.33-1.59-.87a43.14 43.14 0 0 1-2.7-1.43c-.88-.55-.95-.55-1.2 0m28.19.06c0 .32.03.45.08.3.04-.17.04-.43 0-.6-.05-.15-.08-.02-.08.3m12.02 1.33c0 .69.03.97.06.63.04-.35.04-.9 0-1.25-.03-.35-.06-.07-.06.62m-40.72-.2a43.21 43.21 0 0 0-1.78 4.31c.03.04.24-.36.45-.9.21-.52.68-1.59 1.03-2.36.35-.77.6-1.42.58-1.46-.04-.03-.16.15-.28.4m28.53.38c0 .32.04.45.08.3.04-.17.04-.43 0-.6-.04-.15-.08-.02-.08.3m219.68-.13c-.72.95-1.1 1.51-.96 1.43.2-.12 1.3-1.63 1.2-1.63-.05 0-.15.09-.24.2m-82.13.46c-.14.28-.22.5-.18.5.05 0 .2-.22.34-.5.15-.27.23-.5.18-.5-.05 0-.2.23-.34.5m-100.42.09c-.41.22-.67.4-.58.4.09 0 .5-.18.91-.4.42-.23.68-.4.59-.4-.1 0-.5.17-.92.4m-19.62.2c.16.04.42.04.58 0 .16-.05.03-.08-.3-.08-.31 0-.44.03-.28.07m-39.55.32c0 .11.87.43.95.34.04-.04-.16-.15-.44-.24-.28-.1-.5-.15-.5-.1m21.87.49c0 .36.04.5.08.29.04-.21.03-.51 0-.67-.05-.16-.08 0-.08.38m136.37 1.29-1.03 1.83c-.04.07-.03.13 0 .13.07 0 1.14-1.85 2.07-3.55.04-.06.03-.12 0-.12-.05 0-.51.77-1.04 1.7m-123.86-.28c0 .64.03.88.07.53.04-.34.04-.87 0-1.16-.04-.3-.07-.02-.07.63m21.82-.72c-.48.2-.85.38-.81.41a5.1 5.1 0 0 0 1.68-.64c.21-.19.14-.17-.87.23m-54.54-.06c.14.08.44.2.67.26.29.08.34.07.16-.04-.13-.08-.43-.2-.66-.27-.3-.07-.34-.06-.17.05m1.6.6c.29.13.74.28 1 .34.42.08.4.06-.1-.14-.9-.35-1.53-.5-.9-.2m236.61.13c-.67.86-2.04 2.8-1.97 2.8.04 0 .5-.59 1.03-1.3l1.1-1.5c.1-.11.13-.2.09-.2-.05 0-.16.09-.25.2m-218.18.5c-.02.33-.07.74-.12.9-.1.3-.09.3.09.02.1-.16.16-.58.12-.92l-.06-.62-.03.61m-15.95.23c.28.12.62.22.75.22.14 0 0-.1-.33-.23-.76-.29-1.06-.29-.42 0m46.17.09c-.2.09-.24.14-.08.14.14 0 .4-.07.58-.14.21-.1.24-.15.08-.15-.13 0-.4.07-.58.15m192.27-.09c0 .1.25.66.56 1.25.32.6.57 1.01.57.92 0-.1-.25-.66-.57-1.25-.3-.6-.56-1-.56-.92m-194.6.75c-.21.1-.24.15-.09.15.14 0 .4-.07.59-.15.2-.09.24-.14.08-.14-.14 0-.4.06-.58.14m-40.84.17c.19.08.45.14.59.14.16 0 .12-.05-.09-.14a1.85 1.85 0 0 0-.58-.14c-.16 0-.13.05.08.14m12.27.7c-.23.28-.64.6-.92.73-.28.12-.4.22-.26.23.34 0 1.12-.53 1.44-.98.4-.56.2-.54-.26.03m13.91.18c.1.25.9.86.98.75.02-.03-.2-.27-.52-.53-.3-.27-.51-.37-.46-.22m121.67.72c-.24.42-.4.8-.37.83.03.03.26-.31.5-.77.26-.46.43-.84.38-.84-.04 0-.27.35-.51.78m-142.85-.44c.28.07.7.12.92.12.37 0 .36-.01-.08-.12a4.54 4.54 0 0 0-.92-.13c-.37 0-.36.01.08.13m221.9 2.95a670.49 670.49 0 0 1-2.44 3.34c-.23.3-.37.54-.32.54.05 0 .98-1.2 2.06-2.68 2.55-3.45 2.92-3.99 2.83-3.99-.05 0-1 1.26-2.12 2.8m-219.03-2.51c.2.04.5.04.67 0 .16-.05-.01-.08-.38-.08s-.5.04-.29.08m23.42 0c.25.04.66.04.91 0 .26-.04.05-.07-.46-.07-.5 0-.7.03-.45.07m205.29-.06c0 .18.5 1.1.59 1.1.05 0-.04-.24-.2-.54-.3-.6-.4-.73-.4-.56m-208.45.23c.44.03 1.15.03 1.58 0 .44-.04.08-.06-.79-.06s-1.23.02-.8.06m22.72.6c-.75.35-1.4 1.13-1.5 1.78l-.08.58.18-.62a2.57 2.57 0 0 1 3.1-1.66c.42.13.55.13.42 0-.28-.28-1.57-.33-2.12-.08m-69.23.8c-.1.29-.16.56-.13.6.04.03.15-.18.26-.48.1-.29.15-.56.12-.6-.04-.03-.15.18-.25.47m255.84.24c0 .22.94 2.21.95 2 0-.1-.21-.62-.47-1.17-.27-.55-.48-.93-.48-.83m-182.03.4a42.7 42.7 0 0 0 4.17 2.1c0-.08-3.85-2.09-4.25-2.22-.1-.03-.06.02.08.13m-74.4.94a2.6 2.6 0 0 0-.2.85c.04.03.18-.29.33-.72.15-.44.24-.82.2-.86-.03-.03-.18.3-.33.73m68.11.81c0 .37.04.5.08.3.04-.22.03-.52 0-.67-.05-.16-.08 0-.08.37m96.54-.08c-.14.27-.22.5-.17.5.04 0 .2-.23.34-.5.14-.28.22-.5.17-.5-.04 0-.2.22-.34.5m93.01.83c.07.23.18.53.27.67.1.17.12.12.04-.17a3.04 3.04 0 0 0-.26-.66c-.11-.18-.12-.13-.05.16m-94.3 1.46c-1.15 2.04-1.32 2.38-1.23 2.38.04 0 .33-.47.65-1.05l1.11-2c.3-.52.5-.95.46-.95-.04 0-.5.73-1 1.62m-95.4-.54c0 .46.03.62.07.37.04-.25.04-.63 0-.83-.04-.2-.07 0-.07.46m12.78-.17c0 .05.9.53 2 1.09 1.1.55 2 .96 2 .91 0-.04-.9-.53-2-1.08s-2-.97-2-.92m177.6.92c.06.23.18.53.27.67.1.17.12.12.04-.17a3.08 3.08 0 0 0-.27-.67c-.1-.17-.12-.12-.04.17m-259.58.35c-.1.3-.18.61-.17.72 0 .1.12-.11.25-.47s.21-.68.17-.72c-.03-.04-.14.18-.25.47m69.03.65c0 .5.04.71.07.46a3.7 3.7 0 0 0 0-.92c-.03-.25-.07-.05-.07.46m191.05.33c.06.23.18.53.27.67.1.17.12.12.04-.17a3.1 3.1 0 0 0-.27-.66c-.1-.18-.12-.13-.04.16m-17.36.8-.87 1.2-.4.59.43-.5c.56-.65 1.48-1.92 1.38-1.92-.04 0-.28.28-.54.62m-155.57-.38c0 .05.38.28.83.5.46.24.84.4.84.35 0-.05-.38-.28-.84-.5-.45-.24-.83-.4-.83-.35m-18.29 1.1c0 .4.04.57.08.37.04-.2.04-.55 0-.75-.04-.2-.08-.04-.08.37m-69.61-.07c-.06.24-.08.48-.04.52.04.04.12-.13.18-.38.06-.24.08-.47.04-.51-.04-.04-.12.13-.18.37m163.65.07c-.14.28-.22.5-.17.5.04 0 .2-.22.34-.5.14-.27.22-.5.17-.5-.04 0-.2.23-.34.5m97.68-.16c.06.22.18.52.27.66.1.18.12.13.04-.16a3.11 3.11 0 0 0-.27-.67c-.1-.17-.12-.12-.04.17m-171.58.06c.17.15 1.15.6 1.15.53 0-.1-.92-.6-1.1-.6-.07 0-.09.03-.05.07m1.33.66c.17.16 1.15.6 1.15.53 0-.1-.92-.59-1.1-.59-.06 0-.09.03-.05.06m-91.5.8c-.11.37-.17.7-.13.74.03.04.16-.24.27-.61.11-.38.17-.72.14-.76-.04-.03-.16.24-.28.62m163.4-.18c-.14.27-.22.5-.17.5.05 0 .2-.23.34-.5.14-.28.22-.5.18-.5-.05 0-.2.22-.35.5m-93.53.67c0 .4.03.58.07.37.04-.2.04-.54 0-.75-.04-.2-.07-.04-.07.38m171.52.87-1.53 2.08c-.23.3-.37.55-.32.55.05 0 .6-.7 1.21-1.55l1.54-2.08c.22-.3.36-.54.31-.54-.04 0-.6.7-1.21 1.54m20.97-1.17.37 1.1c.16.49.32.85.36.82a7.7 7.7 0 0 0-.72-2.12c-.05 0-.05.09 0 .2m-168.72.12c.4.3 2.84 1.52 2.84 1.43 0-.05-.62-.4-1.38-.8-1.49-.76-1.84-.92-1.46-.63m69 .86c-.2.37-.32.71-.29.74.04.04.23-.27.43-.68.45-.93.33-.99-.14-.06m-92.95.98c0 .41.03.58.07.38.04-.2.04-.55 0-.75-.04-.2-.07-.04-.07.37m26.97-.27c.17.15 1.15.6 1.15.53 0-.1-.92-.6-1.1-.6-.07 0-.09.04-.05.07m2.32 1.19c0 .04.97.57 2.16 1.17 1.2.6 2.17 1.04 2.17 1 0-.05-.97-.57-2.17-1.17a17.21 17.21 0 0 0-2.16-1m-29.45.92c0 .5.03.7.07.45a3.7 3.7 0 0 0 0-.91c-.04-.25-.07-.05-.07.46m92.35-.12c.03.45.15.9.27 1 .16.15.18.15.09-.02a5.04 5.04 0 0 1-.27-1l-.15-.78.06.8m101.62-.38c0 .13.07.4.14.58.1.2.15.24.15.08 0-.14-.07-.4-.15-.58-.09-.21-.14-.24-.14-.08m-264.58.52c-.14.7 0 .83.14.14.06-.29.08-.56.04-.6-.04-.04-.13.16-.18.46m239.47 1.43-1.38 1.84c-.22.3-.37.54-.32.54.04 0 .52-.58 1.05-1.3l1.37-1.83c.22-.3.37-.54.32-.54-.04 0-.51.58-1.04 1.3m-169.03.45c0 .46.03.63.07.37.04-.25.04-.62 0-.83-.04-.2-.07 0-.07.46m194.8-.25c0 .14.07.4.15.59.1.2.14.24.14.08 0-.14-.06-.4-.14-.58-.09-.21-.14-.25-.14-.09m-160.03.08c0 .05.68.42 1.5.84.83.41 1.5.71 1.5.67 0-.05-.67-.42-1.5-.84a8.7 8.7 0 0 0-1.5-.67m-34.95 1.84c0 .37.03.5.07.29.04-.2.04-.5 0-.67-.04-.16-.07.01-.07.38m195.56.08c.06.32.17.74.25.92.1.23.11.15.04-.25a5.17 5.17 0 0 0-.25-.92c-.1-.23-.11-.15-.04.25m-98.6.21c.3.3 1.5 1.02 1.5.9 0-.04-.4-.32-.88-.61-.48-.3-.76-.42-.63-.29m67.9 3.49c-3.09 4.19-2.89 3.84-2.06 3.55.69-.24 1.33-.57 1.14-.58a4 4 0 0 0-.7.25c-.33.14-.63.25-.68.25-.06 0 4-5.63 4.78-6.63.1-.11.12-.2.07-.2a63 63 0 0 0-2.56 3.36m14.28-2.75c1 .1 1.3.2 1.86.67.46.38.5.39.23.07a2.33 2.33 0 0 0-1.96-.83c-.65.03-.66.03-.13.09m-179.29.72c0 .41.04.58.08.37.04-.2.04-.54 0-.75-.04-.2-.08-.03-.08.38m41.3-.42c0 .04.67.42 1.5.84.82.41 1.5.71 1.5.67 0-.05-.68-.43-1.5-.84a8.8 8.8 0 0 0-1.5-.67m57.5-.02c0 .04.87.62 1.95 1.28l2.33 1.45c.2.14.38.2.38.16 0-.05-.96-.69-2.13-1.4-2.7-1.68-2.54-1.58-2.54-1.5m97.36.28c0 .14.06.4.14.59.1.2.14.24.14.08 0-.14-.06-.4-.14-.58-.09-.21-.14-.25-.14-.09m-19.6.26c-.43.2-.44.22-.1.14.48-.12 1.01-.39.76-.39-.1 0-.4.12-.67.25m-1.5.59c-.37.17-.48.27-.25.21.47-.11 1.34-.55 1.08-.54-.09 0-.46.15-.83.33m6.65-.06c.07.11.19.53.27.92l.16.7-.07-.72c-.04-.4-.16-.81-.27-.92-.15-.14-.18-.13-.09.02M154.2 169.8c0 .5.03.71.07.46a3.6 3.6 0 0 0 0-.92c-.04-.25-.07-.04-.07.46m172.7-.17c-.37.17-.6.31-.5.31.23 0 1.54-.61 1.33-.62-.09 0-.46.13-.83.3m-126.08.6c0 .04.37.27.83.5.46.23.83.38.83.34 0-.05-.37-.28-.83-.5-.46-.24-.83-.4-.83-.35m124.16.18c-.22.13-.34.23-.25.23.1 0 .36-.1.59-.23.23-.14.34-.24.25-.24-.1 0-.36.1-.59.24m11.54.41c0 .32.04.45.08.3.04-.17.04-.43 0-.59-.04-.16-.08-.03-.08.3m-254.12.5c-.06.46-.08.88-.04.93.05.04.13-.31.2-.79.06-.47.07-.89.03-.93-.04-.04-.12.31-.19.78m175.83-.58c.19.15.49.35.67.44l.33.16-.33-.27a4.17 4.17 0 0 0-.67-.44l-.33-.16.33.27m93.12.33c0 .19.06.52.13.75.11.33.14.35.14.09 0-.19-.06-.53-.14-.75-.1-.33-.13-.35-.13-.09m-197.32.59c0 .4.03.58.07.37.04-.2.04-.54 0-.75-.04-.2-.07-.04-.07.38m48.64-.44c.17.15 1.15.6 1.15.53 0-.1-.93-.6-1.1-.6-.07 0-.1.03-.05.07m57.98 1c0 .03.7.5 1.54 1.03l1.92 1.2c.2.13.37.2.37.15 0-.04-.76-.56-1.7-1.15-2.16-1.34-2.13-1.33-2.13-1.24m58.42.53c-.42.2-.43.23-.09.14.48-.11 1-.38.75-.38-.09 0-.39.11-.66.24m-165.21.67c0 .36.04.5.08.29.04-.21.03-.51 0-.67-.05-.16-.08 0-.08.38m52.46-.34c0 .04.6.38 1.33.75.73.37 1.33.64 1.33.59 0-.05-.6-.39-1.33-.75a6.84 6.84 0 0 0-1.33-.6m130.54.43c0 .32.03.45.07.3a1.4 1.4 0 0 0 0-.6c-.04-.15-.07-.02-.07.3m.17 1.25c0 .37.03.5.07.29.04-.2.04-.5 0-.67-.04-.16-.07.01-.07.38m-183.33.42c0 .4.03.58.07.37.04-.2.04-.54 0-.75-.04-.2-.07-.04-.07.38m55.47-.6c.17.14 1.15.6 1.15.52 0-.1-.93-.6-1.1-.6-.07 0-.1.04-.05.07m56.56.86c.19.15.49.34.67.43l.33.17-.33-.27a4.24 4.24 0 0 0-.67-.44l-.33-.16.33.27m-184.04.83c0 .37.04.5.08.29.04-.2.04-.5 0-.67-.05-.16-.08.01-.08.38m129.8-.5c0 .04.82.5 1.83 1 1 .5 1.83.88 1.83.83 0-.04-.82-.5-1.83-1-1.01-.5-1.84-.88-1.84-.83m125.71.42c0 .32.03.45.08.29.04-.16.04-.43 0-.59-.05-.16-.08-.03-.08.3m-183.65.91c0 .55.03.76.07.46.03-.3.03-.75 0-1-.04-.25-.07 0-.07.54m114.61-.2c0 .05.58.44 1.3.88l1.66 1.04c.2.13.37.2.37.15 0-.04-.58-.44-1.29-.88-.7-.44-1.46-.9-1.66-1.04-.21-.13-.38-.2-.38-.15m-186.63.79c0 .32.04.45.08.29.04-.16.04-.43 0-.59-.04-.16-.08-.03-.08.3m71.8 1.01c.02.31.09.72.17.9.09.22.1.04.04-.5-.11-.99-.22-1.2-.2-.4m-71.97.32c0 .32.03.45.07.3a1.4 1.4 0 0 0 0-.6c-.04-.15-.07-.02-.07.3m135.62-.43c0 .05.23.2.5.35.28.14.5.22.5.17 0-.05-.22-.2-.5-.34-.27-.14-.5-.22-.5-.18m1.19.66c.17.15 1.15.6 1.15.53 0-.1-.93-.6-1.1-.6-.07 0-.1.03-.05.07m119.52.85c0 .37.04.5.08.3.04-.22.04-.52 0-.67-.05-.16-.08 0-.08.37m-118.2-.19c.18.16 1.16.6 1.16.53 0-.1-.92-.59-1.1-.59-.07 0-.09.03-.05.06m53.73.2c.19.14.49.34.67.43l.33.16-.33-.27a4.24 4.24 0 0 0-.67-.43l-.33-.17.33.28m-192.03.58c0 .4.03.58.07.37.04-.2.04-.54 0-.75-.04-.2-.07-.04-.07.38m72.65-.35c.14.22.42.51.65.65l.4.24-.37-.32c-.2-.17-.5-.46-.64-.64-.26-.32-.26-.32-.04.07m120.47.4c0 .05.95.68 2.12 1.4 2.7 1.67 2.54 1.58 2.54 1.49 0-.05-.88-.63-1.95-1.29a204.8 204.8 0 0 1-2.34-1.45c-.2-.13-.37-.2-.37-.15m-52.5.36c0 .04.6.38 1.33.75.73.37 1.33.64 1.33.59 0-.05-.6-.39-1.33-.75a6.84 6.84 0 0 0-1.33-.6m116.04.43c0 .32.03.45.07.3a1.4 1.4 0 0 0 0-.6c-.04-.15-.07-.02-.07.3m-182.7-.18c.13.1.39.17.56.18.43 0 .3-.1-.32-.23-.36-.08-.43-.07-.25.05m-74.11 1.43c0 .55.03.75.07.45.03-.3.03-.75 0-1-.04-.25-.07 0-.07.55m272.48-.42c0 .32.04.45.08.3.04-.17.04-.43 0-.59-.04-.16-.08-.03-.08.3m-128.85.22c.17.15 1.15.6 1.15.53 0-.1-.93-.6-1.1-.6-.07 0-.1.04-.05.07m-60.94.44c.28.07.7.13.92.13.37 0 .36-.02-.08-.13a4.54 4.54 0 0 0-.92-.13c-.37 0-.36.02.08.13m174.46 1c0 .32.03.45.08.3.04-.17.04-.43 0-.6-.05-.15-.08-.02-.08.3m-58.79-.08c.18.15.48.34.67.43l.33.17-.33-.27a4.33 4.33 0 0 0-.67-.44l-.33-.16.33.27m-52.08 0c0 .04.82.49 1.83 1 1 .5 1.83.88 1.83.83 0-.04-.82-.5-1.83-1-1-.5-1.83-.88-1.83-.84m-146.45 1.34c0 .64.03.88.07.54.04-.35.04-.87 0-1.17-.04-.3-.07-.01-.07.63m90.03-.92c.28.07.69.13.92.13.37 0 .36-.01-.09-.13a4.53 4.53 0 0 0-.91-.13c-.37 0-.36.02.08.13m109.83.42c.19.15.49.35.67.44l.33.16-.33-.27a4.17 4.17 0 0 0-.67-.44l-.33-.16.33.27m57.63.58c0 .41.04.58.08.38.04-.2.04-.55 0-.75-.04-.2-.08-.04-.08.37m-162.17-.06c.23.07.13.21-.5.71-2.63 2.1-6 5.9-6.93 7.85-.13.27.02.07 1.4-1.86a29.45 29.45 0 0 1 4.78-5.17c1.55-1.3 1.74-1.53 1.26-1.58-.27-.03-.27-.03 0 .05m177.83.98c0 .37.03.5.07.29.04-.2.04-.5 0-.67-.04-.16-.07.01-.07.38m-70.66.14c.3.24.3.25 0 .44s-.3.2 0 .1c.17-.05.34-.1.38-.1.22 0 .01-.35-.3-.5-.35-.17-.36-.16-.08.06m55.15.28c0 .32.04.45.08.29.04-.16.04-.43 0-.59-.04-.16-.08-.03-.08.3m-56.29.58c-.41.2-.43.23-.08.14.47-.11 1-.38.75-.38-.1 0-.4.11-.67.24m71.97.58c0 .5.03.71.07.46a3.6 3.6 0 0 0 0-.92c-.04-.25-.07-.04-.07.46m-120.3-.55c.1.1.92.56 1.83 1.05a7 7 0 0 0 1.5.7c-.09-.09-.91-.56-1.83-1.04s-1.6-.8-1.5-.7m-153.18 4.88c0 2.6.03 3.68.06 2.37.02-1.3.02-3.44 0-4.75-.03-1.3-.06-.24-.06 2.38m200.01-4.33c-.36.18-.47.28-.25.22.48-.12 1.34-.55 1.09-.54-.1 0-.47.15-.84.32m-2.33.91c-.42.2-.43.23-.08.14.47-.11 1-.38.75-.38-.1 0-.4.11-.67.24m60.46.58c0 .32.03.45.07.3a1.4 1.4 0 0 0 0-.59c-.04-.16-.07-.03-.07.3m15.5.33c0 .5.04.7.08.45a3.7 3.7 0 0 0 0-.91c-.04-.25-.07-.05-.07.46m-77.64-.25c-.41.2-.43.23-.08.14.47-.12 1-.39.75-.38-.1 0-.4.1-.67.24m62.28 1.47c-.05 1.39-.66 2.26-1.84 2.62-.35.1-.37.13-.1.14 1.05.05 2.14-1.45 2.04-2.78l-.07-.79-.03.81m-98.48.08c1 1.21.74 3.03-.5 3.71-.21.12-.34.24-.3.28.16.16 1.06-.66 1.32-1.2a2.5 2.5 0 0 0-.58-3.01c-.32-.28-.31-.24.06.22m31.54.28c-.42.2-.43.23-.09.14.48-.11 1-.38.75-.38-.09 0-.39.11-.66.24m82.46.5c0 .46.04.62.07.37a3 3 0 0 0 0-.83c-.04-.2-.07 0-.07.46m-83.96.1c-.37.17-.48.27-.25.21.47-.12 1.34-.55 1.08-.54-.1 0-.47.15-.83.32m-3.13 1.2c-.71.28-1.26.54-1.23.58.06.06 2.62-.91 2.76-1.05.17-.17-.32-.02-1.53.46m87.27 1.8c0 .78.03 1.1.06.71.04-.39.04-1.03 0-1.42-.03-.39-.06-.07-.06.71m-19.18-1.04c.25.03.63.03.83 0 .2-.05 0-.08-.46-.08s-.62.04-.37.08m-70.5.21c-.56.23-.46.34.12.14.28-.1.5-.2.5-.24 0-.1-.2-.07-.62.1m68.41-.05c.2.04.55.04.75 0 .2-.04.04-.07-.37-.07s-.58.03-.38.07m-2.08.17c.25.04.66.04.92 0 .25-.04.04-.07-.46-.07s-.71.03-.46.07m-163.13.55c-.14.27-.22.5-.17.5.05 0 .2-.23.34-.5.14-.28.22-.5.18-.5-.05 0-.2.22-.35.5m60.68-.05c.17.26.63 1.06 1.02 1.8.4.73.72 1.27.72 1.2 0-.19-.99-2.13-1.35-2.65-.4-.57-.4-.6.14-.69.36-.05.32-.07-.18-.09l-.65-.02.3.45m100.37-.33c.3.03.75.03 1 0 .25-.04 0-.07-.55-.07s-.75.03-.45.07m-98.67.16c.2.04.54.04.75 0 .2-.04.04-.07-.38-.07-.4 0-.58.03-.37.07m33.43.26c-.19.2-.4.48-.47.62-.14.27-.1.23.57-.54.22-.25.37-.46.32-.46-.05 0-.24.17-.42.38m62.99-.26c.25.04.66.04.91 0 .26-.04.05-.07-.46-.07-.5 0-.7.03-.45.07m-94.75.17c.2.04.5.04.67 0 .15-.05-.02-.08-.38-.08-.37 0-.5.04-.3.08m92.67 0c.2.04.55.04.75 0 .2-.04.04-.08-.37-.08s-.58.04-.38.08m-91.16.16c.2.04.54.04.75 0 .2-.04.03-.07-.38-.07-.41 0-.58.03-.37.07m89.08 0c.25.04.66.04.92 0 .25-.03.04-.06-.46-.06s-.71.03-.46.06m-87.33.17c.25.04.66.04.91 0 .26-.04.05-.07-.46-.07-.5 0-.7.03-.45.07m85.25 0c.3.04.75.04 1 0s0-.07-.55-.07-.75.04-.45.07m-83.5.17c.2.04.5.04.67 0 .15-.05-.02-.08-.38-.08-.37 0-.5.04-.3.08m81.26 0c.25.04.66.04.91 0 .26-.04.05-.07-.46-.07-.5 0-.7.03-.45.07m-2.09.16c.2.04.55.04.75 0 .2-.04.04-.07-.37-.07s-.58.03-.38.07m-1.79.12c0 .03.13.16.28.29.16.13.23.14.17.03-.08-.12.02-.22.26-.27.27-.05.23-.08-.17-.1-.3 0-.54.01-.54.05m.67.48c.18.2 2.66 1.93 2.66 1.86 0-.1-1.96-1.55-2.4-1.78-.2-.1-.3-.13-.26-.08m-18.87.9c.2.04.5.04.66 0 .16-.04 0-.07-.38-.07-.36 0-.5.03-.28.07m-2.17.17c.2.04.5.04.67 0 .15-.05-.02-.08-.38-.08-.37 0-.5.04-.3.08m-127.51.71c-.38.94-.32 1.08.07.19.18-.4.3-.76.26-.8-.03-.04-.19.24-.33.61m153.42 2.17a33.8 33.8 0 0 1 4.35 5.17c.22.31.26.33.13.06-.6-1.28-3.91-5.1-5.75-6.62-.46-.38.11.25 1.27 1.4m-239.3-.76c0 .64.02.89.06.54.04-.35.04-.87 0-1.17-.04-.3-.07 0-.07.63m197.34-.8.64.07-1.15 1.2a22.92 22.92 0 0 0-2.92 3.7c-.26.51.06.12.96-1.17a26.8 26.8 0 0 1 2.14-2.54l1.32-1.37-.82.02c-.75.03-.76.04-.17.1m-2.35.16c.25.04.66.04.92 0 .25-.04.04-.07-.46-.07s-.71.03-.46.07m-2.08.17c.2.04.54.04.75 0 .2-.04.03-.08-.38-.08-.41 0-.58.04-.37.08m-107.61.56c-.1.3-.18.62-.17.72 0 .1.12-.11.25-.47s.2-.68.17-.72c-.03-.03-.15.18-.25.47m105.52-.4c.26.04.67.04.92 0 .25-.03.05-.06-.46-.06-.5 0-.7.03-.46.06m83.19 1.14c0 .73.03 1 .06.62.04-.4.04-1 0-1.34-.04-.34-.07-.02-.06.72m-123.64-.84c.62 1.82.79 2.26.85 2.2a8.63 8.63 0 0 0-.77-2.24c-.18-.26-.18-.26-.08.04m38.2-.13c.3.04.79.04 1.09 0 .3-.03.05-.06-.55-.06-.6 0-.83.03-.54.06m-2.08.17a3 3 0 0 0 .84 0c.2-.04 0-.07-.47-.07-.45 0-.62.03-.37.07m-186.32 2.38c0 .6.03.84.07.54.03-.3.03-.78 0-1.08-.04-.3-.07-.06-.07.54m129.4-.38c.21.04.51.04.67 0 .16-.05 0-.08-.38-.08-.36 0-.5.04-.28.08m21.8.88c.06.32.18.73.26.92.1.22.1.15.04-.25a5.2 5.2 0 0 0-.25-.92c-.1-.23-.12-.15-.04.25m49.4.58c-.41.41-.7.75-.66.75.04 0 .41-.34.82-.75.4-.41.7-.75.65-.75-.04 0-.41.34-.82.75m-200.46 1c0 .37.04.5.08.3.04-.22.04-.52 0-.67-.05-.16-.08 0-.08.37m235.96.17c.31.32.6.58.65.58.05 0-.17-.26-.48-.58a3.4 3.4 0 0 0-.65-.58c-.05 0 .17.26.48.58m-152.13.42c0 .32.04.45.08.29.04-.16.04-.43 0-.59-.04-.16-.08-.03-.08.3m36.8.25c-.4.4-.7.75-.65.75.04 0 .4-.34.81-.75a5 5 0 0 0 .66-.75c-.05 0-.42.33-.82.75m15.5-.7c0 .03.24.27.54.54l.54.49-.49-.54c-.45-.5-.6-.62-.6-.5m56.93.39c-.15.23-.25.46-.22.5.04.03.2-.17.36-.44.36-.6.25-.66-.14-.06m80.47.98c0 .83.03 1.19.06.8.04-.39.04-1.06 0-1.5-.03-.44-.06-.12-.06.7m-189.84.59c0 .5.03.7.07.45a3.7 3.7 0 0 0 0-.91c-.04-.25-.07-.05-.07.46m108.69-.32c-.15.28-.24.54-.2.58.04.04.19-.2.34-.52.35-.72.23-.77-.14-.06m-40.54.15c0 .32.04.45.08.3.04-.17.04-.43 0-.6-.04-.15-.08-.02-.08.3m92.05.5c.14.27.3.5.34.5.05 0-.03-.23-.18-.5-.14-.28-.3-.5-.34-.5-.04 0 .04.22.18.5m-243.55.67c0 .32.04.45.08.29.04-.16.04-.43 0-.59-.04-.16-.08-.03-.08.3m151.68.33c0 .41.03.58.07.37.04-.2.04-.54 0-.75-.04-.2-.07-.03-.07.38m39.56.04c-.36.86-.81 2.3-.75 2.37.03.04.3-.6.58-1.42.52-1.47.62-2.01.17-.95m81.77 1.04c0 .46.04.63.07.37a3 3 0 0 0 0-.83c-.04-.2-.07 0-.07.46m-272.84-.08c0 .32.03.45.08.3.04-.17.04-.43 0-.6-.05-.15-.08-.02-.08.3m205.8 1.25c-.41.41-.7.75-.66.75.05 0 .42-.34.82-.75.4-.41.7-.75.65-.75-.04 0-.41.34-.82.75m-205.62-.08c0 .32.03.45.07.29a1.4 1.4 0 0 0 0-.59c-.04-.16-.07-.03-.07.3m244.64-.42c0 .1.1.35.23.58.14.23.24.34.24.25 0-.09-.1-.35-.24-.58-.13-.23-.23-.34-.23-.25m-93.14.75c0 .41.04.58.08.37.04-.2.04-.54 0-.75-.04-.2-.08-.03-.08.38m-68.5.42c.01.55.04.75.08.45s.04-.75 0-1-.07 0-.07.55m189.5.16c0 .46.03.63.07.37.04-.25.04-.62 0-.83-.04-.2-.08 0-.07.46m-133.84.67c0 .46.04.62.07.37a3 3 0 0 0 0-.83c-.04-.2-.07 0-.07.46m-21.67.58c0 .32.03.45.07.3a1.4 1.4 0 0 0 0-.59c-.04-.16-.07-.03-.07.3m128.48-.42c0 .09.1.42.23.75.12.32.23.47.23.33 0-.14-.1-.48-.23-.75-.12-.28-.23-.43-.23-.33m26.86 1c0 .45.03.62.07.37.04-.26.04-.63 0-.84-.04-.2-.07 0-.07.47m-121 0c0 .36.03.5.07.29.04-.21.04-.51 0-.67-.05-.16-.08 0-.08.38m-69.46.4c-.55.27-.95.5-.9.5.16.02 1.99-.83 1.99-.92 0-.1-.02-.1-1.09.42m69.3 1.01c0 .32.03.45.07.3.04-.17.04-.43 0-.59-.04-.16-.08-.03-.08.3m-71.7.08c-.41.22-.68.4-.59.4.1 0 .5-.18.92-.4.41-.23.68-.4.58-.4-.09 0-.5.17-.91.4m192.7.16c0 .37.04.5.08.3.04-.22.04-.52 0-.67-.04-.16-.07 0-.07.37m-83 .92c0 .5.04.71.07.46a3.7 3.7 0 0 0 0-.92c-.03-.25-.07-.05-.07.46m-111.25-.4c-.65.34-.58.47.08.13.63-.32.74-.4.53-.4-.09.01-.36.13-.61.26m194.08.9c0 .33.03.46.07.3a1.4 1.4 0 0 0 0-.58c-.04-.16-.07-.03-.07.29m-51 .17c0 .32.03.45.07.29a1.4 1.4 0 0 0 0-.59c-.04-.16-.07-.03-.07.3m-145.88.25c-.4.22-.67.4-.58.4.1 0 .5-.18.92-.4.41-.23.67-.4.58-.4-.1 0-.5.17-.92.4m171.54.58c0 .32.04.45.08.3.04-.17.04-.43 0-.6-.04-.15-.08-.02-.08.3m-245.5 0c0 .23.06.6.13.83.18.56.18-.04 0-.75-.11-.45-.13-.46-.13-.08m149.31.43c-.1.43-.16.8-.12.85.03.03.15-.28.26-.71.1-.43.17-.8.13-.85-.04-.04-.16.28-.27.71m121.36-.26c0 .32.03.45.08.29.04-.16.04-.43 0-.59-.05-.16-.08-.03-.08.3m-198.25-.08c-.64.35-.57.48.09.14.62-.32.74-.4.52-.4-.08.01-.35.13-.6.26m115.4.4c0 .33.04.46.08.3a1.4 1.4 0 0 0 0-.58c-.04-.16-.07-.03-.07.29m32 .25c0 .37.04.5.08.29.04-.2.03-.5 0-.67-.05-.16-.08.01-.08.38m50.66.58c0 .32.04.45.08.3.04-.17.04-.43 0-.59-.04-.16-.08-.03-.08.3m-151.87.58c.5.5.94.91.99.91.05 0-.32-.41-.82-.91-.5-.5-.94-.92-1-.92-.04 0 .33.41.83.92m127.05 0c0 .55.04.75.07.45.04-.3.04-.75 0-1s-.07 0-.07.55m-111.14-.21-.5.54.55-.49c.5-.46.62-.6.49-.6-.03 0-.27.25-.54.55m106.14.12c0 .41.03.58.07.38.04-.2.04-.55 0-.75-.04-.2-.07-.04-.07.37m-171.38-.25c-.23.13-.34.24-.25.24.09 0 .35-.1.58-.24.23-.13.34-.24.25-.24-.1 0-.35.11-.58.24m79.37.87-.6 1.6c-.16.33-.24.62-.2.62.18 0 1.32-3 1.2-3.12-.04-.04-.22.37-.4.9m39.34-.12c0 .5.04.71.07.46a3.7 3.7 0 0 0 0-.92c-.03-.25-.07-.04-.07.46m-119.92-.24c-.65.35-.57.48.08.14.63-.32.74-.4.53-.4-.08.01-.36.13-.61.26m177.6 2.33c0 .55.03.75.06.45.04-.3.04-.75 0-1s-.07 0-.07.55m-182.38-.09c-.5.27-.84.49-.75.49.09 0 .58-.22 1.08-.49.5-.26.84-.48.75-.48-.1 0-.58.22-1.08.48m177.37.25c0 .37.04.5.08.3.04-.22.04-.52 0-.67-.05-.16-.08 0-.08.37m-179.37.67c-.41.22-.68.4-.59.4.1 0 .5-.18.92-.4.41-.22.68-.4.58-.4-.09 0-.5.18-.91.4m86.11.17c-.15.32-.24.58-.2.58.12 0 .62-1.02.55-1.1-.04-.03-.2.2-.35.52m9.85.2c.66.03 1.75.03 2.41 0 .67-.03.12-.05-1.2-.05-1.33 0-1.88.02-1.21.05m7.59 0c.71.03 1.84.03 2.5 0 .66-.03.07-.05-1.3-.05-1.38 0-1.92.02-1.2.05m-163.52.3c0 .35.42 1.78.45 1.5 0-.1-.1-.55-.22-1-.13-.46-.23-.69-.23-.5m168.6-.13c.3.03.75.03 1 0 .25-.04 0-.07-.55-.07s-.75.03-.45.07m-110.5.3c-.65.35-.58.48.08.14.62-.32.74-.4.52-.4-.08.01-.35.13-.6.26m95.1.37c-.6.63-1.23 1.68-1.23 2.07 0 .12.18-.16.39-.61.21-.46.7-1.12 1.08-1.46.38-.35.62-.63.54-.63-.1 0-.44.28-.77.63m17.97-.5c.25.03.66.03.91 0 .26-.05.05-.08-.46-.08-.5 0-.7.03-.45.07m2.33.17c.25.04.66.04.92 0 .25-.04.04-.07-.46-.07s-.71.03-.46.07m29.12-.07c0 .03.25.27.55.54l.54.5-.5-.55c-.45-.5-.59-.62-.59-.49m-57.65 1.32c-.38.67-.59 1.1-.46.96a10.1 10.1 0 0 0 1.24-2.16c-.05 0-.4.54-.78 1.2m30.45-1.09c.2.04.54.04.75 0 .2-.04.03-.07-.38-.07-.41 0-.58.03-.37.07m1.58.17c.16.04.42.04.58 0 .16-.04.03-.08-.29-.08-.32 0-.45.04-.3.08m-120.95.62c-1.53.75-1.31.76.27.02.68-.32 1.16-.58 1.06-.59-.1 0-.7.26-1.33.57m122.38-.45c.2.04.5.04.67 0 .15-.05-.02-.08-.38-.08-.37 0-.5.04-.3.08m1.42.16c.16.04.43.04.59 0 .16-.04.03-.08-.3-.08-.32 0-.45.04-.29.08m64.17.72c0 .32.03.45.07.3a1.4 1.4 0 0 0 0-.6c-.04-.15-.07-.02-.07.3m-151.3 1.17c.74.73 1.37 1.33 1.42 1.33.04 0-.52-.6-1.25-1.33a16.92 16.92 0 0 0-1.4-1.34c-.05 0 .5.6 1.24 1.34m-92.15-.5c.06.32.17.73.25.91.1.23.12.15.04-.25a5.26 5.26 0 0 0-.25-.91c-.1-.23-.11-.15-.04.25m51.81.58c-1 .49-1.75.89-1.66.89.09 0 .99-.4 2-.89 1-.49 1.76-.89 1.66-.9-.09 0-.99.4-2 .9m90.85 1.19a27.76 27.76 0 0 1-4.4 4.58c-1.55 1.3-2.22 1.9-1.61 1.47 2.26-1.6 5.9-5.33 6.98-7.12.3-.52-.07-.1-.97 1.07m8.61-.52c0 .36.04.5.08.29.04-.21.04-.51 0-.67-.05-.16-.08 0-.08.38m-102.54.75c-.32.17-.5.31-.42.31.1 0 .43-.14.75-.31.33-.18.51-.32.42-.32-.1 0-.43.14-.75.32m102.38.58c0 .37.03.5.07.29.04-.2.04-.5 0-.67-.04-.16-.07.01-.07.38m-103.67 0c-.3.13-.54.27-.54.32 0 .1.84-.24 1.07-.44.22-.18.1-.16-.53.12m109.25-.13c.2.04.54.04.75 0 .2-.04.04-.08-.38-.08-.4 0-.58.04-.37.08m6.33 0c.2.04.55.04.75 0 .2-.04.04-.08-.37-.08s-.58.04-.38.08m-162.27.21c0 .14.07.4.15.59.09.2.14.24.14.08 0-.14-.06-.4-.14-.58-.1-.21-.15-.25-.15-.09m241.35 1.22c-.73 1.82-.77 1.94-.47 1.45a13.4 13.4 0 0 0 1.08-2.75c-.04-.03-.31.55-.61 1.3m-196.04-.63c-.22.13-.34.23-.25.23.1 0 .36-.1.59-.23.23-.14.34-.24.25-.24-.1 0-.36.1-.59.24m220.43.67c-.06.34-.08.64-.04.68.04.04.13-.2.19-.53s.08-.64.04-.68c-.04-.04-.13.2-.19.53m-221.93 0c-.4.21-.67.4-.58.4a4.77 4.77 0 0 0 1.5-.8c-.1 0-.5.17-.92.4m106.38.4c0 .42.04.6.08.38.04-.2.04-.54 0-.75-.04-.2-.08-.03-.08.38m-107.83.25c-.3.13-.55.27-.55.32 0 .1.85-.24 1.08-.44.22-.18.1-.16-.53.12m-41.7.17c0 .1.17.7.4 1.34.21.63.4 1.08.4.98.02-.1-.16-.7-.38-1.33-.23-.64-.41-1.08-.42-.99m149.37 1.25c0 .4.03.58.07.37.04-.2.04-.54 0-.75-.04-.2-.07-.04-.07.38m115.14.19c-.1.47-.16.89-.13.92.04.04.16-.31.27-.78.12-.47.18-.89.14-.93-.05-.04-.17.32-.28.79m-226.22-.05c-.71.34-1.35.68-1.42.75-.16.16 1.42-.52 2.37-1.03 1.1-.58.42-.38-.95.28m200.95.86c-.14.27-.22.5-.18.5.05 0 .2-.23.34-.5.15-.28.23-.5.18-.5-.05 0-.2.22-.34.5m-90.04.58c0 .46.04.62.07.37a3 3 0 0 0 0-.83c-.04-.2-.07 0-.07.46m-148.1.58c.05.23.2.64.32.92.19.4.21.42.13.08-.06-.23-.2-.64-.33-.91-.18-.4-.2-.42-.13-.09m32.44.17c-.57.27-1.04.52-1.04.57a14 14 0 0 0 2.31-1c.18-.18-.3-.01-1.27.43m99.72.68c-1.22.8-1.4 1-.5.5.65-.36 1.76-1.18 1.57-1.16-.04 0-.53.3-1.07.66m104.35.54a28.5 28.5 0 0 1-1.95 2.33 30.64 30.64 0 0 1-4.1 3.58c-.26.21 0 .06.6-.33 1.77-1.17 6.94-6.63 6.28-6.63-.04 0-.42.47-.83 1.05m26.15-.63c-.06.25-.08.48-.04.52.04.04.12-.13.18-.37.06-.25.08-.48.04-.52-.04-.04-.12.13-.18.37m-114.71.83c0 .55.03.75.07.45.04-.3.04-.75 0-1s-.07 0-.07.55m-39.34-.3c.16.04.42.04.58 0 .16-.05.03-.08-.3-.08-.31 0-.44.03-.28.07m7.33 0c.16.05.42.05.58 0 .16-.04.03-.07-.29-.07-.32 0-.45.03-.3.07m-4.32.18c.63.03 1.6.03 2.17 0 .57-.03.06-.06-1.13-.06-1.2 0-1.66.03-1.04.06m-110.94.38c.06.22.2.64.33.91.18.4.2.42.13.09-.06-.23-.2-.65-.33-.92-.19-.4-.21-.42-.13-.08m129.02.42c-1.1.56-1.3.78-.96 1 .09.05.13 0 .08-.13-.06-.15.26-.4.93-.71a5.8 5.8 0 0 0 1.1-.62c.11-.18.1-.18-1.15.46m-101.92.07c-.39.18-.7.36-.7.4 0 .1 1.27-.45 1.44-.62.17-.17.03-.13-.74.22m108.48 10.38c7.24 9.05 7.84 9.8 7.56 9.3-.23-.4-14.74-18.5-14.83-18.5-.05 0 3.23 4.14 7.27 9.2m-112.81-8.38c-.39.18-.7.36-.7.4 0 .1 1.27-.45 1.44-.62.17-.17.02-.13-.74.22m-21.88-.1c0 .2 1.21 3.12 1.27 3.06.04-.04-.2-.73-.53-1.55-.58-1.43-.74-1.76-.74-1.52m259.46 1.82a13.3 13.3 0 0 0-.55 1.92c.03.04.34-.77.68-1.8.34-1.01.59-1.88.55-1.91-.04-.04-.34.77-.68 1.8m-240.29-.46c-.41.22-.67.4-.58.4.09 0 .5-.18.91-.4.42-.23.68-.4.59-.4-.1 0-.5.17-.92.4m127.22 1.08c0 .69.03.97.07.62.04-.34.04-.9 0-1.25-.04-.34-.07-.06-.07.63m-130.18.28a14.2 14.2 0 0 0-1.99 1c.07.06 3.9-1.68 4.07-1.85.2-.19-.03-.1-2.08.85m211.5 1.07c-.56.37-.75.61-.25.33.39-.2.98-.67.88-.67-.05 0-.33.15-.63.34m-215.12.6c-.74.32-1.41.66-1.5.75-.1.09.28-.04.83-.29a160 160 0 0 1 1.54-.68c.3-.13.54-.27.54-.32 0-.11.05-.13-1.41.53m245.77.58c-.1.3-.16.56-.13.6.04.03.15-.18.26-.47.1-.3.15-.57.12-.6-.04-.04-.15.17-.25.47m-111.81.31c0 .41.03.58.07.38.04-.2.04-.55 0-.75-.04-.2-.07-.04-.07.37m80.87.69c3.33 2.94 6.34 6.15 6.68 7.11.15.4.23.5.23.27.02-.82-3.69-4.88-6.6-7.2-1.09-.89-1.14-.92-.3-.18m-225.2-.52c.15.5 1.16 2.67 1.22 2.6.04-.03-.23-.69-.6-1.46a6.22 6.22 0 0 0-.61-1.14m7.93.08c-.23.13-.34.24-.25.24.1 0 .36-.1.58-.24.23-.13.35-.24.25-.24-.09 0-.35.11-.58.24m-2.03.9c-.71.34-1.35.68-1.42.75-.16.16 1.42-.53 2.37-1.03 1.1-.58.42-.38-.95.28m249.72-.13c-.1.3-.16.57-.13.6.04.04.15-.18.26-.47.1-.3.15-.56.12-.6-.04-.04-.15.18-.25.47m-111.19.33c0 .22.08.51.17.65.12.18.13.08.06-.33-.13-.72-.23-.86-.23-.32m-140.83.9c-.23.13-.34.24-.25.24.09 0 .35-.1.58-.24.23-.13.34-.24.25-.24-.1 0-.35.11-.58.24m-1.38.6c-.35.18-.72.28-.84.22-.15-.09-.15-.07-.01.09.15.16.37.11 1-.22.45-.23.74-.42.64-.42-.09 0-.45.15-.8.33m142.59-.1c0 .19.06.52.13.75.1.33.13.35.13.09 0-.19-.06-.53-.13-.75-.1-.33-.13-.35-.13-.09m.82 3.09c0 .13.1.47.22.75.3.64.3.34 0-.42-.12-.32-.22-.47-.22-.33m107.84.42c-.28.61-.23.74.07.19.15-.26.23-.5.2-.55-.05-.03-.16.13-.27.36m-.5 1.17c-.28.6-.23.74.07.18.15-.26.23-.5.2-.54-.05-.04-.16.12-.27.36m-106.76.07c.14.58 1.26 3.2 1.34 3.12.05-.05-.82-2.22-1.29-3.2-.13-.28-.14-.27-.05.08m105.75 2.1a8 8 0 0 0-.51 1.21c0 .14.64-1.05.94-1.77.4-.97.1-.57-.43.56m-20.48.58c-.21.36-.66.8-1 .98-.34.18-.55.33-.46.33.53.03 2.17-1.63 1.9-1.9-.04-.04-.24.23-.44.59m19.54 1.34c-.15.28-.24.54-.2.58.03.04.19-.2.34-.52.34-.72.22-.77-.14-.06m-24 .15c-.16.18-.66.56-1.1.85-.45.28-.81.55-.81.6 0 .13 1.01-.52 1.65-1.06.34-.3.84-.56 1.1-.6l.5-.07-.52-.03c-.33-.02-.62.1-.81.3m1.95-.04c.16.04.43.04.59 0 .16-.04.03-.08-.3-.08-.32 0-.45.04-.29.08m-80.87.44c0 .18 1.16 2.44 1.25 2.44.05 0-.19-.54-.52-1.2-.62-1.25-.73-1.44-.73-1.24m101.83 1.6a6.86 6.86 0 0 0-.59 1.34c.05 0 .39-.6.76-1.33.37-.73.63-1.33.59-1.33-.05 0-.39.6-.76 1.33m-26 0c-.32.17-.52.32-.45.33.18 0 1.12-.48 1.12-.59 0-.1-.01-.1-.67.26m-1.58.68c-.37.17-.48.27-.25.21.47-.11 1.34-.55 1.08-.54-.1 0-.47.15-.83.33m-44.88.1c.26.04.67.04.92 0 .25-.03.05-.06-.46-.06-.5 0-.7.03-.46.06m6.76 0c.3.04.75.04 1 0 .25-.03 0-.06-.55-.06s-.75.03-.45.07m-34.8.27c0 .18.5 1.1.6 1.1.04 0-.05-.24-.2-.54-.3-.6-.4-.73-.4-.56m71.33.19c-.32.12-.47.23-.33.23.14 0 .48-.1.75-.23.65-.29.35-.3-.42 0m28.29.37c-.82 1.48-1.3 2.43-1.17 2.3.24-.23 1.43-2.42 1.33-2.42-.05 0-.12.06-.16.12m-31.33.5c-.54.14-.94.28-.9.32.08.08 2.14-.42 2.26-.54.13-.12-.38-.04-1.36.22m-67.48.46c.17.36.62.8 1.02 1 .14.06.08-.03-.14-.21-.22-.18-.55-.5-.72-.72-.25-.3-.29-.32-.16-.07m-11.56.94c-1.66 1.42-1.9 1.72-.38.49 1.15-.94 1.79-1.53 1.61-1.5-.03 0-.59.46-1.23 1m72.67-.01c-.45.11-.46.13-.09.13.23 0 .65-.06.92-.13.45-.11.46-.13.08-.13-.22 0-.64.06-.91.13m-58.12.62c.2.04.5.04.66 0 .16-.05 0-.08-.38-.08-.36 0-.5.04-.28.08m54.66 0c.2.04.5.04.67 0 .16-.05-.01-.08-.38-.08s-.5.04-.29.08m-53.25.16c.16.04.42.04.58 0 .16-.04.03-.08-.29-.08-.32 0-.45.04-.3.08m52 0c.17.04.43.04.6 0 .15-.04.02-.08-.3-.08s-.45.04-.3.08m40.92.01-.54.96c-.26.46-.39.76-.3.67a7.06 7.06 0 0 0 1-1.75c-.05 0-.12.05-.16.12m-91.58.16c.16.04.43.04.59 0 .16-.04.03-.08-.3-.08-.32 0-.45.04-.29.08m1.42.17c.2.04.5.04.67 0 .16-.05-.01-.08-.38-.08s-.5.04-.29.08m46.67 0c.2.04.5.04.67 0 .15-.05-.02-.08-.38-.08-.37 0-.5.04-.3.08m-45.07.17c.25.03.62.03.83 0 .2-.05 0-.08-.46-.08s-.63.04-.37.08m43.4 0c.22.03.55.03.76 0 .2-.05.04-.08-.38-.08-.4 0-.58.03-.37.07m-41.58.17c.25.04.63.04.83 0 .2-.04 0-.07-.46-.07s-.62.03-.37.07m39.91 0c.2.04.55.04.75 0 .2-.04.04-.07-.37-.07s-.58.03-.38.07m-38 .17c.2.04.55.04.75 0 .2-.04.04-.08-.37-.08s-.58.04-.38.08m36.17 0c.2.04.54.04.75 0 .2-.04.04-.08-.38-.08-.4 0-.58.04-.37.08m-34.16.17c.3.03.75.03 1 0 .25-.04 0-.07-.55-.07s-.75.03-.45.07m32.08 0c.25.03.66.03.91 0 .26-.04.05-.07-.46-.07-.5 0-.7.03-.45.06m-29.58.17c.39.04.99.04 1.33 0 .34-.03.02-.06-.71-.06-.74 0-1.01.03-.62.06m26.83 0c.4.04 1 .04 1.33 0 .35-.03.02-.06-.7-.06-.74 0-1.02.03-.63.06m-23.34.17c.4.04 1.03.04 1.42 0 .39-.03.07-.06-.7-.06-.79 0-1.1.03-.72.06m19.76 0c.44.04 1.11.04 1.5 0 .39-.03.03-.06-.8-.06-.82 0-1.14.03-.7.06m-56.5 1.77c-1.11.93-2 1.72-1.97 1.75.07.06 4.09-3.28 4.09-3.4 0-.12.02-.13-2.11 1.65m43.91-1.6c1.96.03 5.1.03 7 0 1.9-.03.3-.05-3.55-.05-3.85 0-5.4.02-3.45.05m68.34.75-.44.8c-.23.4-.23.4.04.08.34-.4.8-1.25.68-1.25-.04 0-.17.16-.28.37m-1.31 2.17c-.3.48-.42.76-.3.62.3-.3 1.03-1.5.91-1.5-.04 0-.32.4-.61.88m-111.87.58c.3.03.75.03 1 0 .25-.04 0-.07-.55-.07s-.75.03-.45.07m2 .16c.2.04.54.04.75 0 .2-.04.03-.07-.38-.07-.41 0-.58.03-.37.07m1.58.16c.16.05.42.05.58 0 .16-.04.03-.07-.29-.07-.32 0-.45.03-.3.07m1.6.17c.2.04.5.04.66 0 .16-.04 0-.07-.38-.07-.36 0-.5.03-.28.07m104.8 1.8a18.61 18.61 0 0 0-1.19 1.92c.05 0 .6-.77 1.22-1.7 1.32-1.97 1.42-2.13 1.32-2.13-.03 0-.64.86-1.34 1.91m-103.31-1.63c.2.04.5.04.66 0 .16-.05 0-.08-.38-.08-.36 0-.5.04-.28.08m1.4.16c.17.05.43.05.6 0 .15-.04.02-.07-.3-.07s-.45.03-.3.07m2.68.34c.16.04.42.04.58 0 .16-.04.03-.08-.3-.08-.31 0-.44.04-.28.08m1.16.16c.16.05.43.05.59 0 .16-.04.03-.07-.3-.07-.32 0-.45.03-.29.07m4.5.67c.16.04.43.04.59 0 .16-.04.03-.08-.3-.08-.32 0-.45.04-.29.08m4 .67c.16.04.43.04.59 0 .16-.04.03-.08-.3-.08-.32 0-.45.04-.29.08m3.04.55c.28.07.7.13.92.13.37 0 .36-.02-.08-.13a4.54 4.54 0 0 0-.92-.13c-.37 0-.36.02.08.13m6.59 1.33a3 3 0 0 0 .83.13c.38 0 .37-.01-.08-.13-.7-.18-1.31-.18-.75 0m76.7 2.34a38.55 38.55 0 0 0-1.79 2.5c.04 0 .74-.89 1.55-1.96 1.7-2.27 2.25-3.04 2.16-3.04-.03 0-.9 1.12-1.92 2.5m-111.74-2.22c.2.04.5.04.67 0 .15-.05-.02-.08-.38-.08-.37 0-.5.04-.3.08m2.59.16c.16.05.42.05.58 0 .16-.04.03-.07-.29-.07-.32 0-.45.03-.3.07m35.47.39c.23.07.56.13.75.13.26 0 .24-.03-.09-.13a3.02 3.02 0 0 0-.75-.13c-.26 0-.24.02.09.13m6.75 1.67c.18.07.44.14.58.14.16 0 .13-.05-.08-.14a1.83 1.83 0 0 0-.59-.15c-.15 0-.12.06.09.15m1.16.3c.19.09.6.2.92.26.4.07.48.06.25-.04-.18-.08-.6-.2-.92-.25-.4-.08-.47-.06-.25.04m3 .85c.19.08.45.15.59.15.16 0 .12-.06-.09-.15a1.83 1.83 0 0 0-.58-.14c-.16 0-.13.05.08.14m1.67.5c.18.08.45.15.58.15.16 0 .13-.06-.08-.15a1.83 1.83 0 0 0-.58-.14c-.16 0-.13.05.08.14m2.42.75c.32.13.7.23.83.23.14 0-.01-.1-.33-.23-.32-.12-.7-.22-.84-.22-.13 0 .02.1.34.22m56.16.92c-.29.37-.49.67-.44.67.05 0 .32-.3.61-.67.3-.37.5-.67.45-.67-.05 0-.32.3-.62.67m-54.16-.25c.32.12.7.22.83.22.14 0-.01-.1-.33-.22s-.7-.23-.84-.23c-.13 0 .02.1.34.23m1.58.48c.28.13.69.27.92.33.33.08.32.06-.09-.13a6.4 6.4 0 0 0-.91-.33c-.34-.08-.32-.05.08.13m50.63 2.16c-2.84 3.4-4.14 4.78-8.63 9.23-2.56 2.55-3.89 3.92-2.94 3.05 4.11-3.75 13.56-13.84 12.96-13.84-.04 0-.67.7-1.39 1.56m-46.86-.82c.13.13 1.88.75 1.94.7.04-.04-.36-.23-.87-.42-.91-.34-1.22-.42-1.07-.28m5.3 2.11c.4.18.76.3.8.26a4.13 4.13 0 0 0-1.41-.6c-.07.01.2.16.6.34m1.7.74c.22.13.48.23.57.23.1 0-.02-.1-.25-.23a1.6 1.6 0 0 0-.58-.24c-.1 0 .02.1.25.24m1.33.58c.33.17.66.32.75.32.1 0-.1-.15-.41-.32a2.93 2.93 0 0 0-.75-.32c-.1 0 .1.14.41.32m1.35.56c.17.15 1.15.6 1.15.53 0-.1-.92-.6-1.1-.6-.06 0-.09.04-.05.07m1.34.67a18.7 18.7 0 0 0 2.48 1.19c0-.1-2.26-1.25-2.44-1.25-.06 0-.08.02-.04.06m3.65 1.85c0 .04.3.23.66.42.37.19.67.3.67.26 0-.05-.3-.24-.67-.43-.36-.18-.66-.3-.66-.25m2.41 1.37c.1.1.47.33.84.54.36.2.51.25.33.1-.37-.32-1.43-.89-1.17-.64m1.67 1c.26.27 2.75 1.9 2.75 1.8 0-.04-.54-.44-1.2-.88-1.38-.92-1.8-1.17-1.55-.92m2.92 1.92c0 .05.73.64 1.62 1.31 1.74 1.33 4.87 4.35 5.54 5.36.23.34.5.62.59.62.17 0 4.08-3.27 4.08-3.42 0-.05-.9.68-2.02 1.62l-2.02 1.71-.67-.83a41.2 41.2 0 0 0-4.7-4.59c-1.59-1.26-2.42-1.87-2.42-1.78m1.41 7.8c.64.64 1.2 1.16 1.25 1.16.04 0-.44-.52-1.08-1.16a13.5 13.5 0 0 0-1.24-1.17c-.05 0 .44.52 1.07 1.17m-88.03 29.62c.25.03.62.03.83 0 .2-.05 0-.08-.46-.08s-.63.04-.37.08m13.66 0c.26.03.63.03.84 0 .2-.05 0-.08-.47-.08-.45 0-.62.04-.37.08m-7.83.17a37 37 0 0 0 2.58 0c.71-.04.13-.06-1.3-.06-1.41 0-2 .02-1.28.06"/></svg>