<?xml version="1.0" encoding="UTF-8"?>
<!-- Created with Vectornator (http://vectornator.io/) -->
<svg clip-rule="evenodd" stroke-linecap="round" stroke-linejoin="round" stroke-miterlimit="10" version="1.1" viewBox="0 0 2048 2048" xml:space="preserve" xmlns="http://www.w3.org/2000/svg" xmlns:xlink="http://www.w3.org/1999/xlink">

<clipPath id="ArtboardFrame">
<rect width="2048" height="2048"/>
</clipPath>

<g transform="translate(9.964 .031544)" clip-rule="evenodd" stroke-linecap="round" stroke-linejoin="round" stroke-miterlimit="10"><g transform="matrix(2.8723 0 0 2.8723 465.95 620.12)" clip-rule="evenodd" stroke-linecap="round" stroke-linejoin="round" stroke-miterlimit="10" stroke-width="1.7982"><path transform="translate(109.2,-411)" d="m182.5 703 5.8 0.3c3.3 0.2 15.1 0.4 26.4 0.6a259.7 259.7 0 0 1 40.6 2.4 166.5 166.5 0 0 1-43.7 60.2 110.3 110.3 0 0 1-14.5 10.9c-1-1.2-6.5-15.2-8-20.8-3.5-12.7-6-31.3-6.4-47.8z" fill="#79c0db"/><path transform="translate(109.2,-411)" d="m90.8 683.2 4.5 1.6a696.9 696.9 0 0 0 9 3.2 418.8 418.8 0 0 0 37.6 9.7c7 1.4 14.7 2.7 18.6 3.2l10.5 1.1c8.2 1 7.8 0.7 7.8 6.4 0 4.4 0.4 9 1.9 23.5 2.2 21.3 8.3 39.8 19.2 58.7 1.7 2.8 1.7 2.8 0 2.3a222 222 0 0 1-47.5-24.2 260.9 260.9 0 0 1-30.4-28.7c-4.4-5.6-11.9-16.8-15.5-23.4-1.4-2.5-2-3.2-2.7-3.3-1.6-0.2-2.4-2-1.3-3 0.2-0.3-0.4-2-2.3-5.8-2.4-4.7-6.1-13.1-7.4-16.5l-1.2-3z" fill="#833114"/><path transform="translate(109.2,-411)" d="m86 681.3c0.1-0.2 0.9 1.3 1.9 4.1a221.5 221.5 0 0 0 31.4 57.1c6.4 7.8 23.5 23.8 31.5 29.5 11.8 8.4 35 20.3 48.3 24.6 4.2 1.3 3.7 1.5-3.2 1.3-15.4-0.6-30-3.5-39.7-8.1a111.3 111.3 0 0 1-58.5-57.1c-7.7-16-10.7-27.9-11.3-43.7a117.4 117.4 0 0 0-0.4-7.7zm79-55.9c3.6-0.1 7.2 0.2 11.2 1 17.4 3.7 38 16 60.8 36a233 233 0 0 1 26.6 27.4c2.6 2.9 13 16.2 12.9 16.4-0.2 0-11.1-1.5-15.6-2.3a313 313 0 0 0-19.8-2.5c-5-0.4-12.7-0.7-30.6-0.9-16-0.2-25.7-0.5-32-1.2a466.2 466.2 0 0 1-32.5-4.5c-16.9-2.9-49.4-12.3-55-16a38 38 0 0 1-6.6-5.8c0-0.2 1.5-0.4 3.3-0.5 13.4-1 16.1-2.7 43.4-28 14-13 23.4-18.5 34-19z" fill="#e6aa30"/><path transform="translate(109.2,-411)" d="m60 617.5c0.4 0 0.9 0.5 1.7 1.3 1 1 2.5 2.2 3.4 2.8a90.9 90.9 0 0 0 70 14.1c0.7 0-0.3 1-16.3 15.4a94.7 94.7 0 0 1-18.3 14.8c-3.7 2-4 2-4.9 1-0.4-0.6-2.2-1.7-4-2.6a65 65 0 0 1-31.1-42.3c-0.6-3.2-0.8-4.4-0.3-4.4zm193-0.7-0.2 1.8a75.7 75.7 0 0 1-15.5 36.5l-1.6 1.7-2.3-2c-6-5-16-12.5-20.9-15.7-2.4-1.6-2.4-1.5 0.7-2a91.5 91.5 0 0 0 35.6-17.3c2.2-1.7 4-3 4.2-3z" fill="#e67230"/><path transform="translate(109.2,-411)" d="m125.6 594.3a12 12 0 0 0-3.3 0.5c-13.1 3.8-12.9 21.8 0.4 24.1 12 2.2 20.5-12.6 12-21a13.3 13.3 0 0 0-9.1-3.6zm68.6-1a9 9 0 0 0-2 0.3c-10.6 3.2-10.8 19.6-0.2 24.4 10.5 4.9 19.8-6.8 14.1-17.8a13 13 0 0 0-12-7z"/><path transform="translate(109.2,-411)" d="m199.3 562.2c2 0 4 0.3 6.2 0.7 20 3.8 36.8 24.2 40.6 49.5 0.3 2 0.6 3.8 0.8 4a49 49 0 0 1-13.7 9.6 63 63 0 0 1-23.4 8.2l-4.9 0.5-4.8-2.6c-10-5.5-20.5-9-29.3-9.9l-2.3-0.2v-7.1c0-9.8-1.6-17-5.6-24.9-1.9-3.7-1.9-3.2-0.1-6.1a42 42 0 0 1 36.5-21.7z" fill="#fff"/><path transform="translate(109.2,-411)" d="m113.9 561.3a53.5 53.5 0 0 1 51.5 53.8c0 7.7 0.5 6.8-4.5 7.7a36.6 36.6 0 0 0-16.6 6.8l-3.1 2.1-8.1 1c-26.7 3.5-48.7-1.3-66.4-14.1l-1.4-1 0.1-4.7c0.5-30.3 21.3-52 48.5-51.6z" fill="#fff"/><path transform="translate(109.2,-411)" d="m60 416c1.3 0 2.6 0.1 3.8 0.4 19.6 4.1 40.5 33 48.6 67 2.1 9 1.6 8.5 9 8.6a152.5 152.5 0 0 1 143 186.6c-1.2 5.4-1 5.3-3.8 2a483.1 483.1 0 0 0-20.1-19.6l-2.1-1.9 2.3-2.8a76 76 0 0 0 15.3-36.3c1.7-9.8 1.1-10.8-3.7-7.1-2.7 2-2.6 2-3.1-1.7-3.8-25.7-21.5-47-42.6-51.4a44.2 44.2 0 0 0-45 20c-2.6 3.8-2.1 3.8-4.7 0.3a52 52 0 0 0-94.5 29l-0.2 5.7-1.6-1.9c-4-4.4-5.3-0.2-3.4 10.4a69.5 69.5 0 0 0 35.2 45.3c-0.5 0.6-7.4 0.8-9 0.3-3.6-1-3.8-1-4.2 0s-0.2 2.4 0.5 3.6c1.7 2.7 3 9 3.3 16.5a121 121 0 0 0 43 86.3c8 6.3 24.5 16 33.5 19.6l3 1.1-1 0.4c-5 2.1-18.7 6-26.5 7.5-82.8 16.2-162-33.4-181.4-113.7-16.7-69 16.5-142.4 80.6-177.9 3-1.6 5.6-3.2 6-3.5 0.2-0.3 1.8-0.7 3.4-1 1.7-0.3 3.3-0.8 3.6-1.2 1.4-1.2 0.5-2.8-1.5-2.5l-7.5 1.2a82 82 0 0 1-42.1-4c-16.4-8.1-16.9-22.3-1-34.4 20.8-15.8 65.1-4.7 88.1 22.2 4 4.6 5 5.3 6.2 4.2 1-0.9 1-0.8-2.8-5.3a84 84 0 0 0-23.3-19.4c-2.8-1.5-3.7-2.2-3.7-2.8-0.1-0.4-0.5-1-1-1.1a60.4 60.4 0 0 1-17.9-15.3c-8.8-11.6-11.2-19.6-7.6-24.7 3.6-4.9 17.2-9.1 26.8-8.8z" fill="#79c0db"/><path transform="translate(109.2,-411)" d="m118.2 704c-6.8 1.2-15.9 5.7-15.9 7.8 0 1.2 0.6 1.5 3.7 1.7 7.8 0.5 15.2 6.4 23.1 18.3 10.6 15.9 15 19.6 23 19.7 14 0.1 16-15.3 4-31.8-7.9-11-24.9-18.1-37.9-15.8m-59.5-85.9a67.4 67.4 0 0 0 19.8 36.7c4.3 4.2 6 5.3 11.7 8.3 2.4 1.3 4.2 2.4 4.4 2.9 0.4 0.9 0.8 0.8 4.3-1 4.6-2.2 8-5.2 28-23.5 4-3.6 7.1-6.5 7-6.6l-3.3 0.4c-26.3 3.7-51.7-2.4-69.1-16.4l-3-2.4 0.3 1.6m191.9-1.5c-12 9.8-29.8 18.7-39.4 19.8-1.8 0.2-2.1 0.3-1.6 0.6 3.4 2 16.9 12 22.3 16.6 2.7 2.4 2.4 2.4 5.2-1 6.4-8 11.5-19.7 13.7-31.6 1-5.5 1-5.4-0.2-4.4" fill="#e67230"/><path d="m166.9 1a24.4 24.4 0 0 0-3.1 0.3c-20.3 3.7-26.8 8-26.8 17.9 0 6.7 6 18.2 14.3 27 1.4 1.4 2.2 2.5 1.8 2.4-5.5-2-16.4-3.8-23.8-3.8-36.4 0-55 34.2-26.5 48.6 6.2 3 20.2 5.5 31.8 5.5h4.7l-3.5 2.2a166.9 166.9 0 0 0-80.3 126.2 182 182 0 0 0 3.5 53 141.2 141.2 0 0 1-24-15.6 114.3 114.3 0 0 1-13.5-15c-3.4-4.6-5.9-5-6-1 0 0.5-0.4 2.4-1 4.4-5.4 18.2-7.5 36-5 42.9 0.7 2.1 2.9 2.8 4.2 1.4 4-4.2 20.7-9.2 32.8-9.8 11-0.5 14.9 0.6 16 4.7l1 3.2c0.2 0.2-0.8 0.4-2.9 0.6-15.6 1-40.8 11-40.5 16.1 0.7 16 0.6 14.9 3 24.5 1.8 6.9 3.3 11.6 4.4 14.1l0.8 1.7h1.6l1.6-0.2 0.1-2.5c0-3.2 1-5.3 6-12.8 8.4-12.4 12-16.5 22.4-25.5a1545.3 1545.3 0 0 0 4.6-4 25 25 0 0 1 2.6-2s2 3.6 4.1 8c36 72.7 124.3 105.3 202.3 74.7l3.6-1.4 4.8 1c12 2.1 17.8 2.7 26.9 2.6 8-0.2 7.7 0 8-2.2 0.2-2.4-0.8-4.7-5.7-13.8-2.8-5-2.9-4.5 0-6.4a168.5 168.5 0 0 0 38.9-39.3c0.2-0.7 1.7-3.2 3.2-5.2a47.5 47.5 0 0 0 3.6-5.8l1-1.7c0.5-0.9 1-1.7 1.3-1.8l0.3-0.6c0-0.6 0.7-1.8 1-1.8 0.2 0 0.3-0.2 0.2-0.3a28 28 0 0 1 3.3-6.2c0-0.1 0.8-2.3 2-4.8 2-4.6 2-4.6 3-4.4a1374.5 1374.5 0 0 0 16.4 2.5c5.1 1.1 7.5 0 5.5-2.4l-2.4-3-3.5-4.7c-1.1-1.5-2-2.8-1.8-2.9a56.3 56.3 0 0 1-7.5-9.2l-0.8-0.6 0.7-2.9a79.7 79.7 0 0 1 1.2-4.5l1-5.3c0.5-2.5 1.1-6.9 1.5-9.7l0.8-5.6c0.6-1 0.2-27.6-0.4-32.5-2-15-5.5-28.8-10.5-41-0.8-1.8-1.3-3.6-1.2-3.8 0.2-0.2 0.1-0.3 0-0.2-0.5 0.3-1.7-2.4-1.4-3 0.2-0.2 0.2-0.3 0-0.2a59.3 59.3 0 0 1-6-11.6c-0.4 0.1-2.7-3.5-5.1-7.8l-2-3.1c-0.6-0.7-1.5-2-2-3.1-4.4-8.2-24.6-27.4-39-37a72 72 0 0 1-5.8-4.1l-2.5-1.3a190 190 0 0 0-17.6-9.1l-0.2-0.2a184.2 184.2 0 0 0-34.2-10 97.4 97.4 0 0 1-2-0.3 302 302 0 0 0-17.6-2c-7.2-0.5-6.4 0-7.5-4.8-3.6-15.8-13-37-21.6-48.5a125 125 0 0 0-16.6-16.7 28.6 28.6 0 0 0-20-6.5zm2.2 3.9c1.4 0 2.7 0.1 3.9 0.4 19.6 4.2 40.5 33 48.6 67 2.1 9 1.6 8.5 9 8.6a152.5 152.5 0 0 1 143 186.6c-1.2 5.4-1 5.3-3.8 2a482.5 482.5 0 0 0-20-19.5l-2.2-2 2.3-2.8a76 76 0 0 0 15.3-36.3c1.7-9.8 1.1-10.8-3.7-7-2.6 2-2.6 2-3.1-1.8-3.8-25.7-21.5-47-42.6-51.4a44.2 44.2 0 0 0-45 20c-2.6 3.8-2.1 3.8-4.7 0.3a52 52 0 0 0-94.5 29l-0.2 5.7-1.6-1.9c-4-4.4-5.3-0.2-3.4 10.4a69.5 69.5 0 0 0 35.2 45.3c-0.5 0.6-7.4 0.8-9 0.3-3.6-1-3.8-1-4.2 0s-0.2 2.4 0.5 3.6c1.7 2.7 3 9 3.3 16.5a121 121 0 0 0 43 86.3c8 6.3 24.5 16 33.5 19.6l3 1.1-1 0.5c-5 2-18.7 6-26.5 7.4-82.8 16.3-162-33.4-181.4-113.7-16.7-69 16.5-142.4 80.6-177.9 3-1.6 5.6-3.2 6-3.5 0.3-0.2 1.8-0.7 3.5-1 1.6-0.3 3.2-0.8 3.6-1.2 1.3-1.2 0.4-2.8-1.6-2.5l-7.5 1.2a82 82 0 0 1-42.1-4c-16.4-8.1-16.9-22.3-1-34.3 20.7-15.9 65-4.9 88 22.1 4 4.7 5 5.3 6.2 4.2 1-0.9 1-0.8-2.8-5.3a84 84 0 0 0-23.3-19.4c-2.7-1.5-3.7-2.2-3.7-2.8-0.1-0.4-0.5-1-1-1.1a60.4 60.4 0 0 1-17.9-15.3c-8.8-11.6-11.2-19.6-7.5-24.7 3.5-4.9 17.1-9.1 26.7-8.7zm54 145.3c1.8 0 3.6 0.2 5.5 0.4a53.5 53.5 0 0 1 46 53.4c0 7.7 0.5 6.9-4.5 7.7a36.6 36.6 0 0 0-16.6 6.8l-3.1 2.1-8.1 1c-26.7 3.5-48.7-1.2-66.4-14.1l-1.3-1v-4.7c0.5-30.3 21.3-52 48.5-51.6zm85.4 1c2 0 4.1 0.2 6.2 0.6 20 3.8 36.8 24.2 40.6 49.5 0.3 2 0.6 3.8 0.8 4 0.3 0.9-7 5.9-13.7 9.6a63 63 0 0 1-23.4 8.1l-4.9 0.5-4.8-2.6c-10-5.5-20.5-9-29.3-9.9l-2.2-0.2v-7c-0.1-10-1.7-17-5.7-25-1.9-3.7-1.9-3.2-0.1-6.1a42 42 0 0 1 36.5-21.7zm-5.1 31a9 9 0 0 0-2 0.3c-10.6 3.2-10.8 19.6-0.2 24.5 10.5 4.8 19.8-7 14.1-17.9a13 13 0 0 0-12-7zm-68.6 1a12 12 0 0 0-3.3 0.5c-13.1 3.8-12.9 21.8 0.4 24.1 12 2.2 20.5-12.6 12-21a13.3 13.3 0 0 0-9.1-3.5zm127.4 22.5-0.2 1.8a75.7 75.7 0 0 1-15.5 36.5l-1.6 1.7-2.3-2c-6-5-16-12.5-20.9-15.7-2.4-1.6-2.4-1.5 0.7-2a91.5 91.5 0 0 0 35.6-17.3c2.2-1.7 4.1-3 4.2-3zm-193 0.7c0.4 0 0.9 0.5 1.7 1.3 1 1 2.5 2.2 3.4 2.8a90.9 90.9 0 0 0 70 14.1c0.7 0-0.3 1-16.2 15.4a94.7 94.7 0 0 1-18.4 14.8c-3.7 2-4 2-4.9 1-0.4-0.6-2.1-1.7-4-2.6a65 65 0 0 1-31.2-42.4c-0.6-3.2-0.8-4.4-0.3-4.4zm105 8c3.6-0.2 7.2 0.1 11.2 1 17.4 3.6 38 15.8 60.8 36a233 233 0 0 1 26.6 27.3c2.6 2.9 13 16.2 12.9 16.4-0.2 0.1-11.1-1.5-15.6-2.3a313 313 0 0 0-19.8-2.5c-5-0.4-12.7-0.6-30.6-0.9-16-0.2-25.7-0.5-32-1.2a466.1 466.1 0 0 1-32.5-4.5c-16.9-2.8-49.4-12.3-55-16a38 38 0 0 1-6.6-5.8c0-0.1 1.5-0.4 3.3-0.5 13.4-1 16.1-2.7 43.4-28 14-13 23.4-18.5 34-19zm-79 55.8c0.2-0.2 0.9 1.3 1.9 4.1a221.5 221.5 0 0 0 31.4 57.1c6.4 7.8 23.6 23.8 31.5 29.5 11.8 8.4 35 20.3 48.3 24.6 4.2 1.3 3.7 1.5-3.2 1.3-15.4-0.6-29.9-3.5-39.7-8.1a111.3 111.3 0 0 1-58.5-57.1c-7.7-16-10.7-27.9-11.3-43.7a117.6 117.6 0 0 0-0.4-7.7zm4.8 2 4.5 1.5a696.9 696.9 0 0 0 9 3.2 416.8 416.8 0 0 0 37.6 9.7c7 1.4 14.7 2.7 18.6 3.2l10.6 1.3c8.2 1 7.8 0.6 7.8 6.3 0 4.4 0.4 9 2 23.5 2.1 21.3 8.2 39.8 19.1 58.7 1.7 2.9 1.7 2.8 0 2.3a222 222 0 0 1-47.5-24.2 261 261 0 0 1-30.5-28.7c-4.5-5.6-12-16.8-15.6-23.4-1.4-2.5-2-3.2-2.7-3.3-1.6-0.2-2.4-2-1.3-3 0.2-0.3-0.4-2-2.3-5.8a240.7 240.7 0 0 1-8.6-19.6zm91.7 19.8 5.9 0.2c3.2 0.2 15 0.4 26.3 0.6a260 260 0 0 1 40.6 2.4 166.5 166.5 0 0 1-43.7 60.2 110.3 110.3 0 0 1-14.5 10.9c-1-1.2-6.4-15.2-8-20.8-3.5-12.7-6-31.3-6.4-47.8z"/><g fill-rule="evenodd"><path d="m166.7 5h2.6-2.6m26.3 12.8a28 28 0 0 0 2.6 2.4l-2.2-2.4a27.8 27.8 0 0 0-2.7-2.5l2.3 2.5m38.2 59.6h1.2c0.4-0.1 0-0.2-0.6-0.2-0.7 0-1 0-0.6 0.2m-98 17.9h1.2c0.4-0.1 0.1-0.2-0.6-0.2-0.6 0-1 0.1-0.6 0.2m-27 34-3.5 3.5 3.6-3.5m229.5-0.4 1.3 1.3c0.1 0-0.3-0.6-1-1.3a7.6 7.6 0 0 0-1.3-1.2c-0.1 0 0.3 0.6 1 1.2m-115.1 18h3.8-3.8m118.8 14.9 1.9 1.7s-0.6-0.8-1.6-1.7a15 15 0 0 0-1.9-1.8l1.6 1.8m-64.3 0.8-1 1.1 1-1c1.1-1 1.4-1.3 1.1-1.3 0 0-0.6 0.5-1.1 1.2m-104 35c0 1 0 1.5 0.1 1v-2l-0.1 1m0 4.4c0 0.8 0 1 0.1 0.6v-1.4c0-0.3-0.2 0-0.2 0.8m-6 1.8c0.1 1.1 0.2 1.5 0.2 1v-2.2l-0.1 1.2m211.8 29.5c0 3.6 0 5 0.1 3.2a116 116 0 0 0 0-3.2m3.4-5.3c0 0.8 0 1 0.1 0.6v-1.4l-0.1 0.8m0 10.5c0 0.8 0 1 0.1 0.6v-1.4l-0.1 0.8m-322 4.6v1.7c0.1-0.8 0.1-2.3 0-3.2v1.5m297.1 12.5 3 2.8s-1-1.3-2.6-2.8a35.4 35.4 0 0 0-3-2.9s1 1.3 2.6 2.9m-163.6 21.6c0 1.1 0 1.5 0.1 1v-2.2l-0.1 1.2m102.7 15.1h1.4l-0.8-0.1c-0.8 0-1 0-0.6 0.1m6.7 0.4a5 5 0 0 0 1.6 0c0.4-0.1 0-0.2-0.8-0.2-1 0-1.3 0.1-0.8 0.2m40.5 0.7h1.8c0.4-0.1 0-0.2-1-0.2s-1.3 0.1-0.8 0.2m-8.3 49.3-1 1.2 1-1c1.1-1 1.4-1.3 1.1-1.3l-1.1 1.1m-233.7 5 1.3 1.3c0.1 0-0.3-0.6-1-1.2a7.7 7.7 0 0 0-1.4-1.3l1 1.2m225 3.8-1 1.2 1.1-1c1-1 1.3-1.3 1-1.3l-1.1 1.1m-219.3 1.8c1.4 1.5 1.7 1.8 1.7 1.5l-1.6-1.6-1.7-1.6 1.6 1.7m97.7 42.3h1.2c0.4-0.1 0.1-0.2-0.6-0.2s-1 0-0.6 0.2m18.1 0h1.4c0.3-0.1 0-0.2-0.8-0.2s-1 0.1-0.6 0.2" fill="#547b8b"/><path d="m193.3 13 2.7 2.7 2.7 2.6-2.6-2.7c-2.4-2.5-2.8-2.9-2.8-2.6m-2.5 58.3 1.4 1.3-1-1.3a7.6 7.6 0 0 0-1.4-1.2l1 1.2m7.4 8.5 1 1c0.1-0.1-0.3-0.6-0.8-1.1l-1-1 0.8 1.1m29.2 1c0.4 0.2 1 0.2 1.3 0h-1.3m-130.2 3.8 1.6 1.4-1.2-1.4a9.8 9.8 0 0 0-1.6-1.4l1.2 1.4m34 10.8h1.2c0.4-0.1 0.1-0.2-0.6-0.2s-1 0.1-0.6 0.2m4.4 0a5 5 0 0 0 1.6 0c0.4 0 0-0.2-0.8-0.2s-1.2 0.1-0.8 0.2m170.9 55.8h1.9l-1-0.1c-1 0-1.5 0-1 0.1m-45.7 12c1 1 2 1.8 2.1 1.8l-1.7-1.9-2.1-2c-0.1 0 0.7 1 1.7 2m76.6 1.3c1.4 1.6 1.7 1.9 1.7 1.6l-1.6-1.7-1.7-1.5 1.6 1.6m43.3 69m-322 5.2v0.8-1.7 1m127.1 8.2 1.6 1.4a6 6 0 0 0-1.2-1.4 9.8 9.8 0 0 0-1.6-1.4l1.2 1.4m-127.2 0.9c0 1 0 1.3 0.2 0.7v-1.7c-0.1-0.4-0.2 0-0.2 1m302 12.6 2 2c0.1 0-0.6-1-1.7-2l-2-2c-0.2 0 0.6 1 1.7 2m-63.5 32h1.2l-0.6-0.1c-0.7 0-1 0-0.6 0.1m8.2 0.4h3.7c1 0 0.2-0.1-1.8-0.1h-1.9m31.1 0.4h1.8l-1-0.1c-1 0-1.3 0-0.8 0.1m-7.1 54.5-2.3 2.4 2.4-2.3a42.2 42.2 0 0 0-0.1-0.1m-101.5 10.4 1.4 1.3-1-1.3a7.7 7.7 0 0 0-1.4-1.2c-0.1 0 0.3 0.6 1 1.2" fill="#79c0db"/><path d="m218 150.6a49.5 49.5 0 0 0-43.1 52c0.1 1.7 0 2.5-0.3 3-1 1.3 12.8 9.2 22 12.3a93.2 93.2 0 0 0 48.2 3.2l5.8-0.7 2.3-1.7c5.4-3.9 9.6-5.7 16.4-7l5-1 0.2-3.1c3-31.1-26-60.4-56.5-57m82.4 1.3a44.1 44.1 0 0 0-28.2 20.9l-1.7 2.6 1.6 3.3c4 7.9 5.9 16.2 6 26v6.3h1.3c6.4 0 19.8 4.4 29.6 9.6l5 2.7 3.4-0.2c10.6-0.7 27.4-8 37.5-16.4l1-0.8-0.7-4.4c-5.4-32.7-30-54.9-54.8-49.6m9 31.3c6 2.9 9.2 10.5 7.2 16.8-4 12.7-21.3 9.8-23.3-4-1.4-9.8 7.4-16.9 16.1-12.8m-69.6 0.7c5.2 2 8.6 7.8 7.6 13.1-2.5 13.7-22.3 15-25.6 1.8-2.3-9.7 8.3-18.5 18-14.9" fill="#fff"/></g></g></g></svg>
