<?xml version="1.0" encoding="UTF-8"?>
<!-- Created with Vectornator (http://vectornator.io/) -->
<svg clip-rule="evenodd" stroke-linecap="round" stroke-linejoin="round" stroke-miterlimit="10" version="1.1" viewBox="0 0 2048 2048" xml:space="preserve" xmlns="http://www.w3.org/2000/svg">

<clipPath id="ArtboardFrame">
<rect width="2048" height="2048"/>
</clipPath>

<g transform="matrix(5.7932 0 0 5.7932 455.79 566.77)" fill-rule="evenodd"><path d="m126 85a69.6 69.6 0 0 0-15.5 9.4 71.8 71.8 0 0 0-23.5 28.2l-0.3 0.8 0.4-0.6c8.5-11.2 15-15.5 26.3-17.4 15.5-2.5 52.2 5.9 78.6 18l4 1.8a67 67 0 0 0-12.1-11l-3.3-2.5c-2.2-1.8-3.3-2.6-7.7-5.8-17-12.4-41.2-23.2-47-21m-9.9 23.1c-9.2 1-16.6 4.7-22.4 11.5-1.8 2-1.9 1.7 0.8 3.6l3.4 2.4c14.8 10.7 26.5 16.6 32.5 16.3 5.8-0.3 23-8.7 32-15.4 6.1-4.6 9.8-7.5 9.8-7.6 0-0.2-9.4-3.3-12.8-4.3a147.4 147.4 0 0 0-43.3-6.5" fill="#e6aa30"/><path d="m133.5 76.4h-1c-0.2 0-0.3 0.1-0.3 0.2l0.3 2c0.2 1 0.3 2.3 0.2 2.9v1.1l1 0.2 1.4 0.4v-0.2l-0.3-0.7a7.2 7.2 0 0 1-0.7-2.6 6.1 6.1 0 0 1 0.4-2.8l0.2-0.5zm13.4-0.1a30 30 0 0 0-3 0.2l0.3 0.6a5 5 0 0 1 0.5 2.2 6.3 6.3 0 0 1-0.6 3.3 6.1 6.1 0 0 1-1.4 1.7c-0.2 0.3-0.5 0.5-0.8 0.6l-0.6 0.3 1.2 0.5a97.9 97.9 0 0 1 9.1 4 26 26 0 0 0 3.5 1.3h0.7a38.8 38.8 0 0 0 8.9-1.1 25.4 25.4 0 0 0 4.3-1.5l0.3-0.2v-1l0.4-1.6a19.2 19.2 0 0 0 0.7-3v-1a3 3 0 0 0-1-1.7l-1-0.7-1.4-0.6a25 25 0 0 0-3.4-1 70.2 70.2 0 0 0-10-1zm-66-12.1a8.4 8.4 0 0 0-4 1.2 7 7 0 0 0-2.4 2.8 6.4 6.4 0 0 0-0.3 4.8 7.8 7.8 0 0 0 2 3.3 9.5 9.5 0 0 0 5 2.6 8.6 8.6 0 0 0 5.7-1 7 7 0 0 0 2-1.6 6.3 6.3 0 0 0 1.4-4.5 7.2 7.2 0 0 0-1.1-3.5 8 8 0 0 0-3-2.8 9.8 9.8 0 0 0-4.2-1.3 9 9 0 0 0-1.1 0z" fill="#7bc3db"/><path d="m77 60.7a3 3 0 0 0-1 0c-0.2 0-0.3 0.1-0.5 0.3l-0.5 0.9a20.6 20.6 0 0 0-1.8 4.1 27.8 27.8 0 0 0-1.2 11l0.4 1.7 0.4 1c0 0.3 0.2 0.5 0.3 0.6h0.8l1.5-0.1a64.9 64.9 0 0 1 14.3-0.2 240.5 240.5 0 0 1 18.6 2.7 62.4 62.4 0 0 1 8.1 2.5l1.5 0.7 1.5-0.9a91 91 0 0 1 4.2-2.1l2.6-1.3 1.5 0.2 1.8 0.2 0.2-0.1 0.2-0.6-0.1-1.8a22 22 0 0 0-1.2-4.7l-0.7-1.6-2-0.2a44.7 44.7 0 0 1-8.1-1.6 133.2 133.2 0 0 1-12.7-3.9 262.8 262.8 0 0 0-14.5-4.4 110.4 110.4 0 0 0-11.7-2.1l-1.9-0.2zm3.9 3.5a9 9 0 0 1 2.3 0.2 11 11 0 0 1 3 1 9 9 0 0 1 3 3 7.7 7.7 0 0 1 1.1 3.4 6.9 6.9 0 0 1-0.7 3.5 6.3 6.3 0 0 1-2.7 2.7 8 8 0 0 1-2.9 1 7.6 7.6 0 0 1-2.7-0.1 9.5 9.5 0 0 1-4-1.7 9.5 9.5 0 0 1-2-2 7.6 7.6 0 0 1-1.3-4.2 6.4 6.4 0 0 1 3-5.6 7.4 7.4 0 0 1 2.9-1.1zm66 12.1a148.3 148.3 0 0 1 18.4 1.7 25 25 0 0 1 3 1.2c0.4 0.2 0.8 0.4 1 0.7l0.7 0.7c0.2 0.3 0.3 0.6 0.3 1v1l-0.1 1.4-0.5 1.6a14 14 0 0 0-0.4 1.6v1l-0.3 0.2-0.9 0.5a54 54 0 0 1-13 2.2l-0.8-0.2a163.3 163.3 0 0 0-11.9-5.2l-1.1-0.5 0.6-0.3a4.5 4.5 0 0 0 1.6-1.4 6.1 6.1 0 0 0 1-2 6.8 6.8 0 0 0 0-3.3 5 5 0 0 0-0.3-1l-0.3-0.7 0.8-0.2zm-13.4 0.1h1.2l-0.2 0.5a7.2 7.2 0 0 0-0.4 2.8 6.1 6.1 0 0 0 0.7 2.6l0.3 0.7v0.2l-1.3-0.4-1.1-0.2v-1.1c0-0.6 0-2-0.2-3a36 36 0 0 1-0.3-2h0.4z" fill="#fff"/><path d="m98.1 3-0.9 0.1a9.3 9.3 0 0 0-2.2 1.2 7.2 7.2 0 0 0-2.7 3.8 8.1 8.1 0 0 0-0.3 2.4 10.6 10.6 0 0 0 0.4 2.7 14 14 0 0 0 1.8 4.3 20.2 20.2 0 0 0 3.3 4.2 51.5 51.5 0 0 1 6.6 8.5l0.4 1.1 0.1 1-0.1 0.5a1 1 0 0 1-0.4 0.1 1 1 0 0 1-0.4 0c-0.2 0-0.5 0-0.8-0.3a6 6 0 0 1-1-1l-1.2-1.5a47.3 47.3 0 0 0-10.1-10.6 28.8 28.8 0 0 0-6.4-3.2 16.9 16.9 0 0 0-4-0.8 11.2 11.2 0 0 0-3.6 0.5 8.5 8.5 0 0 0-5.3 4.6 7.9 7.9 0 0 0-0.6 2.1 4.7 4.7 0 0 0 0 1.9 4.2 4.2 0 0 0 1 1.6 6 6 0 0 0 1.6 1.4 10.9 10.9 0 0 0 2.4 1.2l3.1 0.8a36.3 36.3 0 0 0 8.2 0.8 57 57 0 0 1 4.4 0.3c0.5 0 0.9 0.1 1.1 0.3 0.3 0 0.4 0.2 0.5 0.4v0.3l-0.3 0.2-2.6 0.5a86.4 86.4 0 0 0-38 16.8 83.4 83.4 0 0 0-30.9 51.8 86.5 86.5 0 0 0 3.2 43.5 89.8 89.8 0 0 0 26.2 39.5 93 93 0 0 0 52.2 22.8 90.3 90.3 0 0 0 40.1-5.6 84.7 84.7 0 0 0 49.4-53 86.6 86.6 0 0 0 3.7-18.3v-1.4l-2.6-1.3a148.4 148.4 0 0 0-17.9-7.1l-2.1 1.4a332.3 332.3 0 0 1-13.8 10.2 119.2 119.2 0 0 1-28 13c-0.4 0.2-1 0.2-1.7 0.2l-2.2-0.3a29.5 29.5 0 0 1-5.7-1.6 62.5 62.5 0 0 1-13.3-6.5 198.3 198.3 0 0 1-13-8.8l-5.4-3.8-0.9 0.9a63.7 63.7 0 0 0-3.8 4.6c-0.5 0.6-0.9 1-1.1 1l-0.6 0.3a1 1 0 0 1-0.6 0 0.8 0.8 0 0 1-0.3-0.3l-0.3-0.5v-1.9l0.3-2.3a30.7 30.7 0 0 1 2-6 47 47 0 0 1 3.4-6.5l1.2-2-0.9-0.3a27 27 0 0 1-7.5-5.4 38 38 0 0 1-6.8-8.5 71 71 0 0 1-7-14.8c0-0.2 0.2-0.4 0.3-0.5l0.6-0.4 0.8-0.2 0.6-0.2 0.2-0.3v-0.6l-0.4-1.2-0.4-1.6a17.4 17.4 0 0 1 0-4.2 31.2 31.2 0 0 1 3.5-12.7l-0.8-0.1a38.4 38.4 0 0 0-6 0c-0.2 0-0.5 0-0.7-0.2l-0.6-0.3-0.3-0.4v-0.6c0-0.1 0-0.3 0.2-0.5l0.4-0.4 0.8-0.4 1.1-0.1 1.7-0.1a61 61 0 0 1 9.8 0.7 93.1 93.1 0 0 1 16.4 3.3 143.2 143.2 0 0 1 11.5 3.6 199.3 199.3 0 0 0 13.6 4.2 47.2 47.2 0 0 0 8.8 1.1 18.3 18.3 0 0 0 2.8-0.4c0.4 0 0.6-0.2 0.8-0.4 0.2-0.1 0.3-0.3 0.4-0.6v-0.7a11.9 11.9 0 0 0-1.1-2.3l-1.2-1.6-0.8-1.3c-0.2-0.3-0.3-0.7-0.3-1v-0.3l0.2-0.3c0.2-0.2 0.4-0.4 0.8-0.5h0.6l0.7 0.6 0.8 0.8a15.3 15.3 0 0 1 3.2 5.7v0.9a4 4 0 0 1-0.5 1.7 5.2 5.2 0 0 1-1.9 1.8l-0.7 0.4a3 3 0 0 1-0.8 0c-0.3 0-0.4 0.1-0.5 0.2v0.4l0.4 0.2h7.3a331.8 331.8 0 0 1 18.8 0.6 80.3 80.3 0 0 1 9 1.4 20.2 20.2 0 0 1 3.7 1.6l1.4 1a5.7 5.7 0 0 1 1.5 2.2l0.3 1.4v1.6l-0.4 1.7a19.8 19.8 0 0 1-0.7 2v0.1c0.2 0 0.4 0 0.8-0.3l1-0.2h0.5a1.3 1.3 0 0 1 0.6 0.6l0.2 0.4v1.1a56.7 56.7 0 0 1-5 12 793.5 793.5 0 0 0 6 4.3 238.2 238.2 0 0 1 14 11l5.3 4.4 0.6 0.5v-1.2a60.2 60.2 0 0 0-1.2-12.2 89.7 89.7 0 0 0-8.4-25.4 88.5 88.5 0 0 0-38.1-39.6 98.3 98.3 0 0 0-33.5-11c-1.2-0.2-2.2-0.5-3-0.8l-1-0.6-1-1-0.8-1.2a15.3 15.3 0 0 1-1.6-3.8l-0.7-2.5c-0.5-1.8-0.9-3.9-1.3-6.3a82 82 0 0 0-1.9-8.2 10.3 10.3 0 0 0-1.1-2.1 5.2 5.2 0 0 0-1.5-1.3l-0.9-0.3a7.4 7.4 0 0 0-2.2-0.3z" fill="#7bc3db"/><path d="m95.8 0.5c-5.6 2.3-8.3 8-6.4 13.5l0.5 1.6-1-0.5c-7.9-4-14.5-3.4-18.6 1.7-5 6-2.6 12.6 5.3 15.2 1.5 0.5 1.5 0.5-1 1.4a88.6 88.6 0 0 0-36.3 24.6 88.7 88.7 0 0 0-15.6 90.7c0.7 1.8 0.9 1.7-2 0.8-2.9-1-4.3-1.7-8.1-4.4a34.8 34.8 0 0 0-9.8-5.5c-2.7-0.9-3-0.4-2.9 3.3 0.2 4.4 1.1 7.7 3.7 14 2.6 6.1 2.3 6 8.7 3.5l2.8-1.1c0.2 0-0.7 0.5-2 1.4-3.5 2.4-4.7 3.7-4.6 4.8s3.5 6 6.9 10.1l4.3 5.3c2.6 3.5 3.4 4 4.7 2.8 1.2-1 3-5.4 3.7-8.9 1.2-6 1.6-7.6 2.3-9l0.3-0.7 1.8 2.5c2.3 3.4 2.5 3.7 5.4 7.2 4.7 5.8 7.9 9 13 13.2 4 3.4 6.5 5.3 10.4 7.7l1.5 1a93.4 93.4 0 0 0 75.2 9.3 90.7 90.7 0 0 0 22.6-11 90 90 0 0 0 27-29.1c5.7-9.6 11-26.7 11-34.8 0-1 0-1 3 0.9 2.7 1.8 3 2 4 1 0.7-0.7 0.9-1.3 0.5-2-0.5-0.9-3.8-4.6-5.4-6.1l-1.6-1.6v-3a88.4 88.4 0 0 0-4.7-27.4 96.7 96.7 0 0 0-29.5-43 95.1 95.1 0 0 0-51-21.4c-1.8 0-4-5.3-5.2-13.2-1.3-8.3-2.1-10.5-4.7-13.3a8.2 8.2 0 0 0-8.2-1.5m4.5 2.6c2.9 0.8 4.2 3.7 5.6 12.4 2.3 13.6 3.5 15 13.6 16.7a92.2 92.2 0 0 1 76.8 84.5c0.3 5 0.6 4.9-3.3 1.5a317 317 0 0 0-21.1-16.4l-1.6-1.1 0.6-1c1.9-3.1 4.5-9.8 4.5-11.5 0-1.5-1-2-2.6-1.3-0.6 0.3-0.8 0.4-0.7 0.2 4.1-10.8-2.2-13.4-33-13.4h-8l-0.3-0.5c-0.1-0.4 0-0.4 0.7-0.6 4.2-1.1 5-4.2 2-8.6-1.6-2.3-2.3-3.1-3-3.1-1.6 0-1.6 1.2 0 3.3 3.4 4.5 3 5.8-2 6a63 63 0 0 1-19.3-4.2 153.2 153.2 0 0 0-33.2-8c-9-1-11.6-0.7-11.6 0.9 0 1.1 0.7 1.5 2.5 1.2 1.3-0.2 5.3 0 5.7 0.2 0.1 0 0 0.7-0.6 1.6-3 5.7-3.7 13.2-1.8 19 0 0.1-0.1 0.3-1 0.5-2.4 0.5-2.3 1.3 1 8.3a43.4 43.4 0 0 0 18 21l1.6 0.8-1 1.4c-3.8 5.7-7.1 15.5-5.8 17.2 1 1.2 1.7 0.6 4.9-3.6l2.2-3 0.6 0.5 5.3 3.8a97.1 97.1 0 0 0 28.4 15.9c6.1 1.7 6.9 1.6 15.4-1.8a121 121 0 0 0 33.6-20.5l2-1.6 0.7 0.3c5 1.6 19 7.5 20.1 8.4a85.2 85.2 0 0 1-107 76 91.7 91.7 0 0 1-68.2-102.8 84.4 84.4 0 0 1 69-69.4c3.1-0.6 3-0.6 2.7-1-0.6-0.6-2.3-0.8-6-0.8-12.4 0-18.7-4-15.4-10.2 5-9.5 20.1-4.5 29.6 10 1.2 1.7 2 2.5 2.9 2.5 2.1 0-1.2-5.6-6.5-11a16.2 16.2 0 0 1-4-6c-2.2-4.3-2.3-6.6-0.4-9.5 1.9-2.7 4.8-4 7.4-3.2m-20.4 57.8c7.2 1 15.2 3 24.9 6.4a86.6 86.6 0 0 0 22 5.6h1.2l0.7 2c0.8 2.1 1.3 4.5 1.3 6.2v1l-2-0.1-2-0.2-2.6 1.3a93.8 93.8 0 0 0-5.8 2.8c-0.9-1.5-11.8-4-24.5-5.5a101.2 101.2 0 0 0-20 0.1c-0.1 0-0.4-0.5-0.8-1.6a24.3 24.3 0 0 1 2.6-17l0.9-1.5h1c0.5 0.2 2 0.3 3.1 0.5m-0.8 3.7c-6 1.6-7 9.1-1.5 12.6 3.6 2.4 8 2.2 10.8-0.5 5.3-5.3-1.5-14.2-9.3-12.1m55.7 12c-0.9 2.1-0.8 4.5 0.3 6 0.5 0.7 0.5 0.9 0 0.8l-1.4-0.5-1.1-0.3v-1.5a21.3 21.3 0 0 0-0.6-4.8l1.5-0.1c1.3 0 1.5 0 1.3 0.3m18.3 0c7.4 0.3 10 0.6 12.6 1.5 4.9 1.6 5.6 2.8 4.3 7.1-0.6 2-0.7 2.5-0.5 3 0.2 0.4 0.2 0.4-1.7 1a39 39 0 0 1-10.9 2l-2.3 0.2-2.6-1.3a124.4 124.4 0 0 0-10.8-4.7l1-0.6c2.2-1.5 3.1-4.8 1.9-7.5l-0.4-1 9.4 0.3m-60.8 6.4c10 1.2 21.7 3.6 22.8 4.6a106 106 0 0 0-23.6 21.7 38.8 38.8 0 0 1-17-17.3c-1.5-2.7-4.1-8-4-8.2a78.9 78.9 0 0 1 21.8-0.8m38.1 2c16.1 2.8 40.5 17.3 63.9 37.8 3 2.7 3 3.4 0 1.9-11-5.5-33-13-47.6-16-32-7-45.8-3.8-58.5 13-1.8 2.5-2 2.5-1 0 4.6-11.7 19.5-26.5 34.9-34.9 4.3-2.4 4.6-2.4 8.3-1.8m41.3 6.8c-0.7 2.1-3.3 7.4-3.6 7.4l-2-1.1-4.3-2.7-2.6-1.6 2.5-0.4a57 57 0 0 0 10.5-3l-0.5 1.4m-44.5 16.3a183.4 183.4 0 0 1 45 10.7l-1.5 1.3c-11.8 9.3-20 14.3-30.4 18.7-8.2 3.3-10 3.7-14 2.6a87 87 0 0 1-27.9-15.2 544.1 544.1 0 0 0-6.6-4.9c0.4-1 6-6.5 7.8-7.8 7.4-4.8 15.6-6.5 27.6-5.4" fill="#060605"/><path d="m78.3 82.7c-2.3 0.1-7.6 0.9-7.8 1-0.1 0.1 2.5 5.5 4 8.2a38.8 38.8 0 0 0 17 17.3 106 106 0 0 1 23.5-21.7 100.7 100.7 0 0 0-36.8-4.8m50 2h0.7-0.7m-3.5 0.6c-0.3 0.1-0.4 0.3-0.3 0.3l0.7-0.3 0.3-0.3c-0.2 0-0.5 0.1-0.7 0.3m-1.6 0.8c-0.6 0.2-1 0.5-1 0.6l1-0.4 1-0.6c0-0.2 0-0.2-1 0.4m47.7 4.7a57 57 0 0 1-9.2 2.5l-2.5 0.4 2.6 1.6c1.5 0.9 3.5 2 4.4 2.7 2.1 1.4 2 1.5 3.6-2 1.1-2.4 2.6-5.8 2.4-5.7l-1.3 0.5m-22.8 0.2 0.7 0.3-0.3-0.3-0.7-0.2 0.3 0.2m-33.7 0.5-0.6 0.5 0.7-0.5 0.6-0.5-0.7 0.5m36.7 0.9 2 1-2-1m-39.7 1.2c-1.3 1-1.4 1.2-0.3 0.5 0.8-0.6 1.5-1.2 1.2-1.2l-1 0.7m43.3 0.6 0.7 0.5 0.8 0.3-0.8-0.5c-0.4-0.3-0.7-0.4-0.7-0.3m3.5 2 0.6 0.3 0.5 0.2-0.5-0.4-0.6-0.2m-52.5 2.1-0.6 0.7 0.7-0.6 0.6-0.7-0.7 0.6m-2.3 2.2-1.4 1.4 1.4-1.4c1.4-1.2 1.5-1.4 1.4-1.4l-1.4 1.4m63 0.8 0.9 0.5 0.3 0.2-0.3-0.3a5 5 0 0 0-0.8-0.5l-0.4-0.2 0.4 0.3m-65.9 1.8-0.7 1 1.8-2.1-1 1.1m69.6 0.7 0.9 0.7c0.4 0.4 0.8 0.6 0.8 0.5l-0.8-0.7-1-0.5m-72.6 2.5-1.4 1.8 1.7-1.7c1-1 1.6-1.8 1.5-1.8l-1.7 1.8m17.7-1.1h0.8-0.8m8.4 0h1.5-1.5m3 0.2h1-1m2 0.2h1-1m44 0c0.2 0.3 1.4 1.1 1.4 1l-0.7-0.6c-0.4-0.3-0.7-0.5-0.6-0.3m-42.3 0.1h0.9-0.9m1.7 0.2h0.8-0.8m4 0.6h0.7-0.7m-17.5 1.2h1.7-1.7m-2.8 0.2h1.1l-0.5-0.1h-0.6m6.7 0h1.7-1.7m3.3 0.3h1c0.4 0 0.1-0.1-0.5-0.1h-0.5m-30.7 0.9-0.7 0.7 0.7-0.7c0.7-0.6 0.9-0.8 0.7-0.8l-0.7 0.8m33-0.6h0.8l-0.4-0.1h-0.5m48.4 0c0.2 0.3 1.3 1.2 1.3 1l-0.7-0.6-0.6-0.3m-74.7 0.7-1.3 0.8 2.9-1.4c0.2-0.2-0.5 0-1.6 0.6m28.1-0.5h0.8l-0.5-0.1h-0.3m1.7 0.3h0.6l-0.3-0.1h-0.3m4 0.6h0.7-0.6m-43 2.6a6 6 0 0 0-0.8 1.2l1-1.2 0.8-1.1-1 1.1m9.5 0.2-1 0.5s0.5 0 1-0.4c0.6-0.2 1-0.5 1-0.6l-1 0.5m-8.2 2.7-2 2.1 2-2m4.7-0.6a49 49 0 0 0-6.8 7c0 0.1 0.4 0.5 0.9 0.8l0.5 0.3-0.9-0.7-0.4-0.3 1-1.2a49.3 49.3 0 0 1 5.7-6m-7.9 0.4c-0.6 1-1 1.6-0.8 1.6l0.5-0.6a36.2 36.2 0 0 1 0.3-1m-1.6 2.8-0.4 1 0.6-1 0.4-1-0.6 1m-1 1.9c-0.4 1-0.3 1.1 0.2 0.2l0.3-0.8-0.4 0.6m82.8 0.4-0.8 0.7 0.8-0.6c0.7-0.6 1-0.8 0.8-0.8l-0.8 0.7m-82.8 1.7c-1 1.2-1 1.3-0.9 1.3l1-1 0.7-1.2-0.8 0.9m78.9 1.3c-1.2 0.9-1.4 1.1-0.3 0.4 0.8-0.6 1.3-1 1.1-1l-0.8 0.6m27.7 0.7c2 2 2 2.2-0.1 1.1l-1.5-0.6c-0.2 0 2.7 1.5 3 1.5 0.7 0 0.1-0.8-1.3-2l-1.5-1.3 1.4 1.3m-108-0.4c0 0.1 0 0.3-0.2 0.3-0.1 0-0.2 0.2 0 0.2 0 0.1 0.2 0 0.4-0.3 0.2-0.2 0.3-0.3 0.1-0.3h-0.3v0.1m104.6 0.2 0.7 0.3s0-0.2-0.3-0.3l-0.7-0.3 0.3 0.3m-97 0 1 0.8 0.8 0.5-1-0.8c-0.5-0.4-1-0.6-0.9-0.5m3 2.2 1.1 0.8 0.9 0.6-0.7-0.6c-0.6-0.5-1.8-1.3-1.3-0.8m65 1c-1.1 0.8-1.5 1.2-0.7 0.6 0.8-0.5 1.8-1.4 1.6-1.4l-1 0.7m-61.6 1.3 0.5 0.6 0.6 0.3s-0.2-0.3-0.6-0.5l-0.5-0.4m58.7 0.9-0.7 0.5c0 0.1 0.3 0 0.7-0.4 0.7-0.4 1-0.6 0.8-0.6l-0.8 0.5m-54.5 2.1 0.7 0.5 0.4 0.2-0.4-0.3a5 5 0 0 0-0.7-0.5l-0.4-0.2 0.4 0.3m50.4 0.4c-0.7 0.4-0.7 0.6 0 0.2l0.6-0.4-0.6 0.2m-4.9 2.8-0.7 0.5s0.3 0 0.8-0.3l0.7-0.5-0.8 0.3m-32.6 4.4 0.7 0.3-0.3-0.3-0.7-0.3s0 0.2 0.3 0.3m11.4 3.8h1.5l-0.8-0.1h-0.7" fill="#e67230"/><path d="m91.6 10.4c0 0.5 0 0.7 0.1 0.4v-0.8 0.5m5.3 11 0.8 0.7-0.6-0.7-0.7-0.7 0.5 0.7m-26.5 1.8c0 0.4 0 0.6 0.1 0.3v-0.8 0.5m39.1 5.4 0.7 0.6 0.6 0.6-0.6-0.6c-0.5-0.6-0.7-0.7-0.7-0.6m-24.1 1.8h1-1m2.7 0h1-1m-42.1 23.7-1 1 2-2-1 1m118.6-0.6 0.6 0.6 0.7 0.6-0.6-0.6c-0.5-0.6-0.7-0.7-0.7-0.6m-122.4 4.4-0.7 0.8 0.8-0.7 0.8-0.9-0.9 0.8m25.7-0.7h1.3-1.4m103 2.6 1 0.8-0.7-0.8-1-0.8 0.8 0.8m-100.6 0.3h0.8-0.8m64.8 8.4v0.3c0.1-0.2 0.1-0.6 0-0.8v0.5m-8.1 1.8h1.1-1.1m-58.2 4.1v1-1.8 0.8m62.3-0.9h0.6-0.6m1.8 0h0.9-0.9m13.7 0h1.2-1.2m4.3 0.2h1.2-1.2m4.7 0.2h1.2-1.2m3.6 0.2h0.7l-0.4-0.1h-0.3m13.9 8.4v0.3-0.7 0.4m-153.4 27.2c0 0.4 0 0.6 0.1 0.3v-0.7 0.4m-0.2 6.3v2a76.4 76.4 0 0 0 0-2m176.3 0.6v0.4-0.7 0.3m-176.1 5.8c0 0.4 0 0.6 0.1 0.3v-0.7 0.4m153.5 58-0.8 0.8 0.9-0.8c0.7-0.7 0.9-0.9 0.7-0.9l-0.8 0.9m-68.6 26.6h0.8-0.8m11.3 0h0.9-0.9" fill="#567b89"/><path d="m44.2 56-0.8 0.8 0.9-0.8 0.8-0.8c0-0.2-0.2 0-0.9 0.7m24 4h1-1m22 12.4c0 0.4 0 0.5 0.1 0.3v-0.6 0.3m63.2 1.7h0.8-0.8m-21.3 2.3h0.8-0.8m38.2 6.2c0 0.3 0 0.5 0.1 0.3v-0.8 0.4m25.7 36.2v0.3c0.1-0.2 0.1-0.6 0-0.8v0.5m-152.1 59.2 0.6 0.7 0.7 0.5-0.6-0.6c-0.5-0.6-0.7-0.7-0.7-0.6m4.2 4.3 0.9 0.7-0.7-0.7c-0.4-0.5-0.8-0.8-0.9-0.8l0.7 0.8m123.5 0.1-0.6 0.7 0.7-0.6 0.7-0.8-0.8 0.7m-65 25h0.7-0.7m7.9 0h0.6-0.6" fill="#3c5c6c"/><path d="m95 23.4 0.8 0.7-0.5-0.7-0.8-0.7 0.6 0.7m39.8 50.2h1.2-1.2m10 0h1-1m51.4 46.4v0.3-0.7 0.4m-149.5 60.6 0.8 0.7-0.6-0.7-0.7-0.7 0.5 0.7" fill="#3c6470"/><path d="m80.9 64.2h1-1m45.5 8.8h1-1m-54.7 1.5v0.5-1 0.5m72 1.8c0 0.1 0.6 0.2 1.2 0.1 2.2 0 2.5-0.1 0.6-0.2l-1.8 0.1m6 0.2h1.2-1.2m4.5 0.2h1.4-1.4m4.3 0.2h0.8-0.8m-76 2.2h0.8l-0.3-0.1h-0.4m-1.6 1h2l-1.1-0.1h-1m4.6 0c0.4 0.1 1.2 0.1 1.6 0h-1.6m47.1 0.5c0 0.4 0 0.5 0.1 0.3v-0.7 0.3m-55.4-0.3h0.6-0.6m52.5 1.2v0.4-1 0.6m-3.5 0.6h1-1m31.8 9.2h0.7l-0.3-0.1h-0.4m-3 0.3h1.2-1.1" fill="#979797"/></g></svg>
