<?xml version="1.0" encoding="UTF-8"?>
<svg id="svg" version="1.1" viewBox="0 0 400 400" xmlns="http://www.w3.org/2000/svg">
 <g id="svgg" fill-rule="evenodd">
  <path d="m165.04 79.906c-11.008 0.975-22.824 5.213-28.174 10.106-1.318 1.205-0.426 2.509 1.355 1.979 1.163-0.346 6.674-0.461 10.099-0.21 11.879 0.87 20.573 4.929 30.284 14.138 1.445 1.371 1.407 1.402-0.968 0.814-10.622-2.63-22.49 0.436-33.57 8.673-5.533 4.114-6.042 7.093-0.943 5.518 10.197-3.148 21.032-2.603 29.294 1.473 1.819 0.897 1.885 1.041 0.478 1.041-2.238 0-4.913 0.906-7.306 2.474-6.931 4.543-10.416 14.075-3.708 10.143 8.363-4.902 17.965-4.874 23.653 0.071l0.67 0.582-1.144 1.031c-1.529 1.378-1.851 1.661-3.049 2.691-1.355 1.163-6.754 6.568-7.498 7.505-0.323 0.406-0.938 1.105-1.367 1.555-0.43 0.449-1.177 1.282-1.661 1.851-0.483 0.569-1.054 1.235-1.269 1.48-0.215 0.244-0.611 0.723-0.879 1.062-0.667 0.844-1.224 1.538-1.989 2.48-0.724 0.891-1.113 1.408-2.343 3.11-0.466 0.644-1.044 1.435-1.285 1.757-0.241 0.323-0.757 1.07-1.147 1.661-0.391 0.59-0.775 1.118-0.854 1.172-0.079 0.053-0.435 0.581-0.79 1.171-0.356 0.591-0.881 1.382-1.165 1.758-0.285 0.376-1.302 1.942-2.26 3.479-3.337 5.356-4.282 6.837-4.592 7.196-0.171 0.198-0.77 1.128-1.33 2.067s-1.127 1.818-1.259 1.953c-0.133 0.136-0.826 1.19-1.541 2.344-0.715 1.153-1.398 2.208-1.519 2.343-0.12 0.136-0.866 1.302-1.657 2.591-0.792 1.289-1.915 3.091-2.496 4.004-1.527 2.398-14.505 24.437-18.172 30.859-0.644 1.128-2.178 3.795-3.408 5.928-1.23 2.132-2.337 4.065-2.461 4.296-0.329 0.616-3.109 5.543-4.566 8.094-1.419 2.482-1.304 2.432-3.076 1.361-3.698-2.236-8.032-8.62-9.844-14.503-1.162-3.772-2.472-11.499-2.292-13.519 0.138-1.545-0.586-2.319-1.552-1.664-0.671 0.455-2.341 3.941-3.532 7.37-2.467 7.108-1.991 14.99 1.161 19.221l0.787 1.057-2.227-0.119c-10.839-0.582-22.259-6.518-30.157-15.675-0.645-0.747-1.219-1.403-1.276-1.456-1.04-0.979-6.637-9.001-8.484-12.158-0.762-1.304-0.781-1.319-1.609-1.319h-0.838l-1e-3 0.83c0 0.832 0.985 8.164 1.347 10.023 3.414 17.557 14.507 32.753 26.262 35.973l1.33 0.364-0.749 0.512c-7.55 5.161-15.297 8.646-17.715 7.969-1.047-0.293-1.646-0.134-1.799 0.476-0.472 1.88 10.179 6.54 16.782 7.344 4.599 0.56 15.845-0.415 21.678-1.879 0.655-0.164 0.669-0.252-0.28 1.796-2.495 5.388-2.965 6.457-3.684 8.37-0.695 1.852-1.281 3.365-2.118 5.468-1.177 2.958-1.532 3.933-2.17 5.957-1.048 3.328-1.568 5.157-1.774 6.25-0.112 0.591-0.332 1.558-0.49 2.149-3.112 11.674-2.646 17.654 1.698 21.788 4.799 4.567 7.573 5.861 18.42 8.593 3.116 0.785 6.544 1.657 7.618 1.939 3.378 0.887 9.034 2.046 11.914 2.442 0.859 0.119 2.881 0.429 4.492 0.69 3.579 0.581 7.158 1.081 13.184 1.842 4.21 0.531 7.551 0.887 15.82 1.684 1.665 0.16 5.313 0.512 8.106 0.781 13.648 1.315 46.633 1.951 65.82 1.27 3.437-0.123 9.569-0.307 13.626-0.409 11.031-0.28 13.759-0.449 26.608-1.645 5.064-0.472 6.759-0.647 17.188-1.776 7.655-0.829 13.239-1.644 17.187-2.511 0.752-0.165 1.961-0.43 2.686-0.589 1.737-0.382 4.02-1.012 5.713-1.577 0.752-0.251 1.675-0.544 2.051-0.651 0.375-0.106 1.254-0.412 1.953-0.679 0.698-0.267 1.84-0.704 2.539-0.971 0.698-0.266 2.719-1.079 4.492-1.806 1.772-0.727 3.75-1.517 4.394-1.756 2.66-0.984 6.423-2.874 7.154-3.593 0.64-0.629 1.261-1.097 1.966-1.481 3.825-2.087 5.145-8.023 3.391-15.238-1.357-5.576-4.687-16.117-6.047-19.14-0.145-0.322-0.865-1.992-1.6-3.711-2.016-4.711-11.464-23.501-13.996-27.832-1.224-2.095-2.556-4.402-2.96-5.127-0.448-0.805-0.861-1.319-1.059-1.319-0.358 0-3.604 0.612-3.714 0.701-0.038 0.03 1.012 1.929 2.334 4.218 11.863 20.559 20.547 40.478 23.112 53.019 0.814 3.978 0.818 5.094 0.026 7.395-0.148 0.429-0.32 1.013-0.383 1.296-0.189 0.85-1.784 2.785-3.192 3.872-1.754 1.354-3.202 2.028-11.282 5.249-13.711 5.466-19.125 6.694-38.476 8.724-3.545 0.372-6.753 0.722-7.129 0.777s-3.101 0.32-6.055 0.587c-2.954 0.268-6.689 0.614-8.301 0.77-12.514 1.211-64.362 2.14-78.125 1.4-8.398-0.452-15.282-0.878-16.21-1.004-0.43-0.058-4.429-0.459-8.887-0.892-14.298-1.386-13.64-1.312-24.121-2.729-4.88-0.659-5.057-0.685-11.013-1.632-4.642-0.738-9.661-1.756-12.718-2.579-1.02-0.275-4.052-1.056-6.738-1.737-7.997-2.026-10.02-2.688-12.26-4.016-0.727-0.432-1.59-0.897-1.917-1.035-3.308-1.391-5.442-5.228-5.449-9.801-7e-3 -3.866 2.98-16.225 5.494-22.739 0.643-1.665 1.634-4.258 2.204-5.761 1.349-3.564 2.718-6.64 5.825-13.086 4.426-9.181 11.163-22.778 12.29-24.805 3.983-7.162 10.728-18.971 14.224-24.902 1.045-1.773 2.906-4.981 4.136-7.129 6.486-11.326 13.532-22.938 18.902-31.153 2.072-3.169 4.822-7.431 6.112-9.472 7.487-11.847 11.227-16.863 19.01-25.493 7.416-8.224 19.272-17.148 26.698-20.096 3.402-1.351 6.899-0.549 10.982 2.519 8.98 6.747 19.61 16.97 33.104 31.839 1.219 1.343 2.961 3.233 3.871 4.199 1.497 1.591 3.395 3.778 10.937 12.598 1.332 1.558 3.312 3.931 4.4 5.274 1.088 1.342 3.233 3.917 4.766 5.72 1.533 1.804 4.028 4.829 5.546 6.722 1.517 1.894 4.156 5.15 5.864 7.237 7.818 9.553 15.478 19.754 20.572 27.393 2.372 3.558 3.758 5.465 3.971 5.463 0.529-5e-3 3.196-0.736 3.388-0.928 0.151-0.152-1.969-3.846-2.38-4.147-0.073-0.053-0.513-0.712-0.977-1.464-0.465-0.752-0.983-1.53-1.153-1.728-0.17-0.199-0.748-1.041-1.285-1.872-1.607-2.486-2.559-3.87-2.889-4.2-0.172-0.172-0.509-0.663-0.75-1.09-0.24-0.428-0.503-0.778-0.584-0.778-0.08 0-0.344-0.352-0.586-0.782-0.241-0.429-0.503-0.781-0.582-0.781s-0.345-0.329-0.591-0.732-0.547-0.821-0.669-0.928-0.429-0.503-0.682-0.879c-0.254-0.376-0.513-0.727-0.577-0.781s-0.331-0.405-0.593-0.781c-0.478-0.687-0.65-0.911-1.561-2.03-0.272-0.334-0.887-1.134-1.367-1.779s-0.932-1.217-1.005-1.272-0.557-0.671-1.076-1.367c-0.961-1.293-1.383-1.818-2.162-2.688-0.242-0.271-0.439-0.547-0.439-0.615s-0.242-0.397-0.537-0.73c-0.296-0.334-0.801-0.935-1.123-1.335-0.323-0.4-0.762-0.925-0.977-1.167-0.215-0.241-0.589-0.693-0.832-1.004-0.531-0.679-2.638-3.29-3.234-4.008-0.234-0.282-0.646-0.794-0.914-1.136-0.269-0.343-0.622-0.772-0.784-0.954-0.163-0.182-0.513-0.636-0.779-1.009s-0.616-0.816-0.779-0.984c-0.162-0.168-0.515-0.602-0.783-0.965-0.269-0.363-0.665-0.858-0.879-1.1-0.215-0.242-0.655-0.763-0.977-1.158s-0.762-0.912-0.977-1.149c-0.214-0.237-0.786-0.898-1.269-1.469-0.483-0.572-1.055-1.238-1.27-1.48-0.214-0.243-0.654-0.769-0.976-1.169-0.322-0.399-0.721-0.87-0.886-1.046s-0.692-0.844-1.172-1.485c-0.479-0.641-1.004-1.308-1.165-1.484-0.161-0.175-0.688-0.788-1.172-1.362-0.483-0.573-1.054-1.236-1.269-1.473s-0.655-0.754-0.977-1.149-0.761-0.915-0.976-1.157c-0.215-0.241-0.786-0.906-1.27-1.477-0.483-0.571-1.055-1.24-1.269-1.487-0.215-0.248-0.655-0.773-0.977-1.168s-0.762-0.918-0.977-1.163c-0.214-0.245-0.786-0.904-1.269-1.465-1.558-1.807-2.424-2.781-3.223-3.623-0.825-0.87-3.168-3.411-5.003-5.427-2.08-2.284-3.594-3.921-4.665-5.043-0.591-0.619-1.953-2.057-3.027-3.196-1.845-1.957-5.566-5.871-5.901-6.206-1.239-1.241-7.204-6.986-8.2-7.898-0.731-0.668-1.691-1.547-2.134-1.953-2.278-2.084-2.79-2.534-3.393-2.983-0.361-0.268-0.855-0.664-1.097-0.879s-0.766-0.654-1.166-0.976c-0.399-0.323-1.052-0.855-1.452-1.184l-0.727-0.598 0.75-0.854c2.243-2.552 4.59-9.76 4.802-14.747 0.307-7.198-1.839-13.677-7.44-22.46-4.418-6.929-7.395-10.937-8.585-11.558-1.507-0.787-1.958 0.288-1.299 3.097 1.404 5.976 1.48 8.797 0.36 13.355-0.556 2.258-0.611 2.306-1.47 1.257-1.096-1.339-4.519-4.768-5.594-5.604-0.525-0.409-1.055-0.837-1.177-0.952-0.532-0.5-4.097-3.059-5.886-4.227-9.79-6.387-18.193-8.546-29.395-7.553m33.608 170.42c-11.259 12.6-3.547 31.278 14.097 34.14 14.74 2.391 29.372-7.86 29.515-20.678l0.026-2.321-1.562-0.458c-0.86-0.252-1.651-0.46-1.758-0.462-0.117-3e-3 -0.207 0.874-0.225 2.192-0.176 12.963-15.538 21.93-29.321 17.115-12.116-4.233-16.143-17.203-8.312-26.775 0.597-0.729 1.142-1.329 1.21-1.334 0.068-4e-3 0.463-0.297 0.877-0.651l0.752-0.644-1.924-0.546c-1.059-0.3-2.023-0.583-2.143-0.629s-0.675 0.427-1.232 1.051m107.93 3.771c-2.175 0.438-2.138 0.366-0.895 1.717 5.53 6.01 4.805 15.207-1.609 20.423-1.943 1.58-1.495 1.592-5.308-0.141-1.74-0.791-4.306-1.9-5.703-2.464-4.911-1.983-7.26-2.998-10.839-4.683-1.988-0.935-4.436-2.039-5.441-2.454l-1.828-0.753 0.134-1.182c0.073-0.65 0.387-1.97 0.697-2.933 0.309-0.963 0.544-1.768 0.522-1.789-0.097-0.088-3.955 0.731-4.094 0.869-0.191 0.191-0.725 2.679-0.729 3.399-4e-3 0.661 0.037 0.661-2.955 0.014-5.896-1.275-11.53-0.415-16.535 2.522-1.761 1.034-9.49 8.483-12.314 11.869-1.031 1.235-2.981 3.52-4.335 5.078-3.027 3.484-6.022 7.095-6.64 8.008-0.254 0.376-0.666 0.893-0.914 1.149-1.274 1.316-0.679 2.181 4.003 5.814 1.901 1.476 4.294 3.358 5.318 4.183 8.77 7.064 18.472 10.62 27.156 9.955 9.813-0.753 14.106-2.466 25.962-10.358 2.847-1.895 5.747-3.777 6.446-4.183 0.698-0.405 1.445-0.899 1.66-1.096 0.361-0.332 0.602-0.346 3.223-0.182 1.557 0.098 5.468 0.267 8.691 0.377 3.223 0.109 6.87 0.296 8.105 0.415 5.18 0.499 8.008-0.285 8.008-2.22 0-1.799-4.965-5.982-14.586-12.289l-5.7-3.737 1.464-1.366c6.005-5.609 7.276-14.662 3.057-21.783-0.718-1.212-1.891-2.593-2.164-2.547-0.076 0.012-0.911 0.178-1.857 0.368m-18.788 4.281c-4.286 0.761-5.859 5.943-2.815 9.274 3.532 3.865 9.617 1.717 9.628-3.399 7e-3 -3.572-3.372-6.486-6.813-5.875m-63.761 1.401c-5.343 1.047-7.143 7.443-3.147 11.181 3.52 3.292 9.155 2.36 11.033-1.825 2.203-4.909-2.444-10.423-7.886-9.356m43.8 7.988c4.978 1.035 8.201 2.178 13.223 4.689 2.072 1.036 5.174 2.377 10.547 4.558 10.823 4.394 19.312 9.227 26.818 15.269 2.516 2.025 2.541 1.956-0.589 1.686-1.375-0.119-3.993-0.265-5.819-0.326-6.648-0.219-12.176-0.505-15.137-0.781-1.665-0.156-5.202-0.418-7.86-0.582-6.545-0.404-10.008-0.752-15.511-1.556-2.561-0.374-6.282-0.9-8.27-1.169-1.987-0.27-5.327-0.798-7.421-1.174-9.26-1.665-14.57-1.423-21.163 0.964-2.277 0.824-2.414 1.131 1.55-3.455 1.605-1.856 3.543-4.123 4.306-5.036 1.555-1.86 2.662-3.003 7.303-7.542 3.014-2.949 3.336-3.205 5.074-4.035 4.622-2.207 7.809-2.579 12.949-1.51m-17.627 23.251c1.445 0.112 4.561 0.549 6.924 0.972s5.351 0.907 6.641 1.076c1.289 0.169 5.024 0.695 8.3 1.168 6.302 0.909 10.521 1.339 16.883 1.72l3.894 0.232-4.871 3.242c-9.294 6.186-10.925 7.04-16.003 8.381-12.191 3.218-21.526 0.873-33.008-8.292-1.504-1.2-3.416-2.702-4.248-3.336-1.819-1.387-1.802-1.257-0.264-2.007 3.312-1.615 7.526-2.726 12.227-3.224 0.376-0.04 0.732-0.086 0.791-0.103 0.059-0.018 1.289 0.06 2.734 0.171" fill="#040404"/>
  <path d="m203.21 251.13c-6.758 4.895-8.048 15.666-2.689 22.452 11.215 14.203 37.996 6.75 38.043-10.587l7e-3 -2.531-16.797-4.833c-9.238-2.658-17.021-4.884-17.295-4.947-0.36-0.082-0.711 0.042-1.269 0.446m86.826 6.136c-7.358 1.392-13.445 2.595-13.527 2.673-0.266 0.254-0.957 2.429-1.237 3.892-0.306 1.601-0.185 2.066 0.59 2.26 0.485 0.122 2.624 1.077 7.924 3.538 1.558 0.724 5.249 2.307 8.203 3.519s6.424 2.7 7.711 3.307c2.863 1.349 2.673 1.39 5.222-1.112 5.702-5.594 5.944-14.076 0.563-19.729-1.124-1.18 0.356-1.339-15.449 1.652m0.656 1.333c4.048 1.515 5.314 6.549 2.384 9.479-2.788 2.788-7.309 1.887-9.135-1.822-2.257-4.585 2.014-9.429 6.751-7.657m-62.309 1.708c4.42 2.068 5.573 7.574 2.255 10.763-4.384 4.212-11.946 1.079-11.967-4.958-0.016-4.886 5.118-7.955 9.712-5.805m7.552 44.505c-0.376 0.035-1.915 0.16-3.418 0.278-14.456 1.133-31.97 5.538-45.215 11.371-8.636 3.803-12.041 5.473-15.718 7.708-5.935 3.606-14.556 10.945-14.556 12.39 0 0.4 0.384 0.479 3.516 0.726 1.235 0.097 5.542 0.491 9.57 0.874 14.529 1.382 44.89 1.995 64.649 1.305 3.491-0.122 9.624-0.306 13.629-0.409 11.763-0.303 17.789-0.721 32.562-2.257 2.578-0.268 6.401-0.661 8.496-0.873 18.162-1.842 24.527-3.307 38.281-8.809 7.149-2.86 9.961-4.129 9.961-4.494 0-0.888-4.436-3.648-9.026-5.616-6.691-2.868-20.541-6.741-28.669-8.017-1.45-0.227-4.526-0.761-6.836-1.185s-5.297-0.898-6.639-1.053l-2.44-0.282-2.15 1.247c-8.633 5.008-20.821 6.52-29.494 3.658-2.523-0.833-8.853-3.96-11.263-5.564l-1.688-1.123-1.434 0.031c-0.789 0.017-1.743 0.059-2.118 0.094" fill="#f5eed5"/>
  <path d="m225 139.51c0 0.034 0.286 0.319 0.635 0.635l0.635 0.574-0.574-0.635c-0.535-0.592-0.696-0.725-0.696-0.574m2.539 2.344c0 0.034 0.286 0.319 0.635 0.635l0.635 0.573-0.574-0.634c-0.535-0.592-0.696-0.725-0.696-0.574m-46.586 4.871-1.949 2.001 2.002-1.949c1.101-1.072 2.002-1.973 2.002-2.002 0-0.141-0.244 0.09-2.055 1.95m53.617 2.001c1.555 1.558 2.871 2.833 2.925 2.833s-1.175-1.275-2.729-2.833c-1.555-1.557-2.871-2.832-2.925-2.832s1.174 1.275 2.729 2.832m-56.75 1.319-0.574 0.635 0.635-0.574c0.349-0.316 0.635-0.601 0.635-0.635 0-0.151-0.162-0.018-0.696 0.574m-1.563 1.758-0.573 0.634 0.634-0.573c0.349-0.316 0.635-0.601 0.635-0.635 0-0.151-0.161-0.018-0.696 0.574m63.684 2.49c0.42 0.43 0.807 0.781 0.861 0.781s-0.246-0.351-0.665-0.781c-0.42-0.43-0.807-0.781-0.861-0.781s0.246 0.351 0.665 0.781m3.321 3.516c0.638 0.644 1.203 1.171 1.257 1.171s-0.424-0.527-1.062-1.171c-0.638-0.645-1.204-1.172-1.257-1.172-0.054 0 0.424 0.527 1.062 1.172m2.824 2.978c0.809 0.862 0.984 1.017 0.984 0.871 0-0.032-0.417-0.449-0.927-0.928l-0.928-0.871 0.871 0.928m1.57 1.77c0 0.034 0.286 0.319 0.635 0.635l0.635 0.574-0.574-0.635c-0.535-0.592-0.696-0.725-0.696-0.574m2.149 2.344c0 0.033 0.285 0.319 0.634 0.635l0.635 0.573-0.573-0.634c-0.535-0.592-0.696-0.725-0.696-0.574m2.929 3.161c0.365 0.376 0.707 0.684 0.761 0.684 0.053 0-0.201-0.308-0.565-0.684-0.365-0.376-0.707-0.683-0.761-0.683-0.053 0 0.201 0.307 0.565 0.683m-77.777 52.002c-1.313 1.394-11.363 16.94-11.363 17.578 0 1.363-1.707 0.775 21.953 7.556 7.358 2.109 13.502 3.878 13.652 3.931 0.211 0.074 0.166 0.218-0.194 0.628l-0.468 0.532 1.17-1.054 2.094 0.604c1.151 0.332 2.048 0.678 1.992 0.769s0.025 0.116 0.18 0.056c0.155-0.059 5.235 1.314 11.289 3.053 6.054 1.738 14.611 4.192 19.015 5.452l8.008 2.292 0.111 1.543 0.11 1.543 0.036-1.492 0.036-1.493 1.904 0.561c2.203 0.649 3.162 0.708 3.73 0.227 0.442-0.375 4.327-11.874 4.327-12.808 0-1.219-0.306-1.363-13.574-6.387-6.875-2.603-17.686-6.705-24.024-9.115-42.585-16.193-39.056-14.96-39.984-13.976m159.98 11.276c-0.051 0.051-0.923 0.31-1.937 0.574-1.013 0.264-2.37 0.623-3.015 0.798-1.878 0.51-5.71 1.524-9.472 2.507-4.714 1.232-7.756 2.102-8.203 2.347-0.696 0.381-3.263 0.971-3.624 0.832-0.174-0.067-0.252-0.034-0.184 0.077 0.066 0.106 0.067 0.193 2e-3 0.193-0.103 0-27.04 7.151-37.991 10.085-2.202 0.59-4.252 1.106-4.555 1.146-2.741 0.36-2.735 0.333-1.201 6.317 1.518 5.917 1.208 5.742 7.709 4.34 1.273-0.275 2.937-0.593 3.613-0.691 0.322-0.046 6.651-1.226 14.063-2.621s13.74-2.583 14.062-2.64c0.322-0.056 1.421-0.273 2.442-0.48 1.414-0.287 1.922-0.324 2.137-0.153 0.217 0.173 0.248 0.168 0.135-0.02-0.081-0.134-0.08-0.244 2e-3 -0.244s2.658-0.479 5.724-1.064c3.067-0.586 5.84-1.057 6.162-1.048s2.256-0.3 4.297-0.687c2.041-0.386 6.084-1.152 8.984-1.7 7.473-1.414 7.004-1.292 7.385-1.936 0.488-0.827 0.314-2.416-0.44-4.014-0.101-0.215-0.723-2.017-1.381-4.004-0.659-1.987-1.273-3.789-1.365-4.004s-0.319-0.874-0.504-1.465c-0.587-1.873-2.109-3.181-2.845-2.445m-96.198 31.156c0 0.698 0.036 0.984 0.079 0.635s0.043-0.921 0-1.27-0.079-0.063-0.079 0.635m-45.507 1.367c0 0.698 0.035 0.984 0.078 0.635 0.044-0.349 0.044-0.92 0-1.27-0.043-0.349-0.078-0.063-0.078 0.635m90.025-0.097c3e-3 0.429 0.043 0.582 0.089 0.339 0.047-0.243 0.045-0.594-4e-3 -0.781s-0.087 0.012-0.085 0.442m-20.898-0.346c0.402 0.042 1.062 0.042 1.464 0 0.403-0.043 0.074-0.077-0.732-0.077s-1.135 0.034-0.732 0.077m50.788 1.908c1e-3 0.537 0.039 0.734 0.084 0.437s0.044-0.737-3e-3 -0.977c-0.046-0.24-0.083 3e-3 -0.081 0.54m-94.531 0.781c1e-3 0.537 0.039 0.734 0.084 0.437s0.044-0.736-3e-3 -0.977c-0.046-0.24-0.083 3e-3 -0.081 0.54m42.671 1.213c0.243 0.046 0.594 0.045 0.781-4e-3s-0.012-0.087-0.442-0.085-0.582 0.042-0.339 0.089m2.927-1e-3c0.242 0.047 0.637 0.047 0.879 0 0.242-0.046 0.044-0.084-0.44-0.084-0.483 0-0.681 0.038-0.439 0.084m-14.706 1.083-0.773 0.83 0.831-0.772c0.772-0.718 0.919-0.888 0.772-0.888-0.032 0-0.406 0.374-0.83 0.83m-2.823 2.783c-0.475 0.484-0.819 0.879-0.765 0.879 0.053 0 0.486-0.395 0.96-0.879 0.474-0.483 0.819-0.878 0.765-0.878s-0.486 0.395-0.96 0.878m3.415 1.905-2.536 2.588 2.587-2.537c2.404-2.356 2.677-2.639 2.537-2.639-0.029 0-1.193 1.164-2.588 2.588m-7.231 1.758-0.969 1.025 1.025-0.969c0.564-0.533 1.025-0.995 1.025-1.026 0-0.145-0.181 0.017-1.081 0.97m62.495 0.195-0.574 0.635 0.635-0.574c0.592-0.535 0.724-0.696 0.574-0.696-0.034 0-0.32 0.286-0.635 0.635m2.649 2.588c-0.475 0.483-0.819 0.879-0.765 0.879s0.486-0.396 0.96-0.879c0.475-0.484 0.819-0.879 0.765-0.879s-0.486 0.395-0.96 0.879m-91.553 3.56c0.403 0.042 1.062 0.042 1.465 0s0.073-0.077-0.732-0.077c-0.806 0-1.136 0.035-0.733 0.077m-0.488 3.713c0.671 0.038 1.77 0.038 2.441 0 0.672-0.038 0.122-0.069-1.22-0.069-1.343 0-1.893 0.031-1.221 0.069m20.642 2.834-0.574 0.635 0.635-0.574c0.592-0.534 0.724-0.696 0.574-0.696-0.034 0-0.32 0.286-0.635 0.635m10.217-0.49c0.672 0.038 1.77 0.038 2.442 0 0.671-0.038 0.122-0.069-1.221-0.069s-1.892 0.031-1.221 0.069m-2.441 0.185c0.188 0.049 0.495 0.049 0.683 0s0.035-0.089-0.341-0.089-0.53 0.04-0.342 0.089m7.034 6e-3c0.297 0.045 0.736 0.044 0.976-3e-3 0.24-0.046-2e-3 -0.083-0.54-0.081-0.537 1e-3 -0.733 0.039-0.436 0.084m13.864 2.143c0.188 0.049 0.496 0.049 0.684 0s0.034-0.09-0.342-0.09-0.53 0.041-0.342 0.09m1.563 0.195c0.188 0.049 0.495 0.049 0.683 0s0.034-0.089-0.341-0.089c-0.376 0-0.53 0.04-0.342 0.089m-19.236 1.175c0.243 0.047 0.594 0.045 0.781-3e-3 0.187-0.049-0.012-0.088-0.442-0.085-0.429 2e-3 -0.582 0.042-0.339 0.088m-2.053 0.192c0.188 0.049 0.495 0.049 0.683 0s0.034-0.089-0.342-0.089-0.529 0.04-0.341 0.089m4.297 6e-3c0.295 0.044 0.778 0.044 1.074 0 0.295-0.045 0.053-0.082-0.537-0.082-0.591 0-0.833 0.037-0.537 0.082m2.443 0.193c0.243 0.047 0.595 0.045 0.781-4e-3 0.187-0.049-0.012-0.087-0.441-0.085-0.43 2e-3 -0.583 0.042-0.34 0.089m27.149 0.195c0.243 0.047 0.594 0.045 0.781-4e-3 0.187-0.048-0.012-0.087-0.442-0.084-0.43 2e-3 -0.582 0.042-0.339 0.088m2.051 0.198c0.297 0.045 0.736 0.043 0.976-3e-3 0.241-0.046-2e-3 -0.083-0.539-0.082-0.538 2e-3 -0.734 0.04-0.437 0.085m2.344 0.195c0.296 0.045 0.736 0.044 0.976-3e-3 0.24-0.046-3e-3 -0.083-0.54-0.081-0.537 1e-3 -0.733 0.039-0.436 0.084m2.438 0.196c0.349 0.044 0.921 0.044 1.27 0 0.349-0.043 0.063-0.078-0.635-0.078s-0.984 0.035-0.635 0.078m3.121 0.195c0.347 0.044 0.962 0.044 1.367 2e-3s0.122-0.078-0.63-0.078c-0.752-1e-3 -1.084 0.033-0.737 0.076m3.422 0.195c0.296 0.044 0.779 0.044 1.074 0 0.296-0.045 0.054-0.082-0.537-0.082-0.59 0-0.832 0.037-0.537 0.082m2.246 0.193c0.242 0.047 0.638 0.047 0.879 0 0.242-0.047 0.044-0.085-0.439-0.085-0.484 0-0.681 0.038-0.44 0.085m2.149 0.195c0.241 0.047 0.637 0.047 0.879 0 0.241-0.046 0.044-0.084-0.44-0.084-0.483 0-0.681 0.038-0.439 0.084m2.347 0.199c0.351 0.044 0.878 0.043 1.172-2e-3 0.293-0.044 6e-3 -0.08-0.638-0.079-0.645 1e-3 -0.885 0.038-0.534 0.081m-35.257 0.189c0.188 0.049 0.495 0.049 0.683 0s0.034-0.09-0.342-0.09-0.529 0.041-0.341 0.09m38.677 9e-3c0.514 0.04 1.305 0.04 1.758-1e-3 0.454-0.041 0.033-0.074-0.933-0.074-0.967 1e-3 -1.338 0.034-0.825 0.075m-37.115 0.186c0.188 0.049 0.496 0.049 0.684 0s0.034-0.089-0.342-0.089-0.53 0.04-0.342 0.089m41.609 0.01c0.621 0.039 1.588 0.038 2.148-1e-3s0.052-0.071-1.13-0.071c-1.182 1e-3 -1.64 0.033-1.018 0.072m12.433 0.136c0.194 0.234 0.109 0.293-0.513 0.358-0.677 0.07-0.657 0.08 0.212 0.11 0.947 0.032 0.954 0.028 0.605-0.358-0.402-0.445-0.658-0.537-0.304-0.11m-6.679 0.059c0.564 0.039 1.487 0.039 2.051 0 0.564-0.04 0.103-0.072-1.025-0.072s-1.59 0.032-1.026 0.072m3.711 0.189c0.242 0.046 0.638 0.046 0.879 0 0.242-0.047 0.044-0.085-0.439-0.085-0.484 0-0.681 0.038-0.44 0.085m-38.574 1.364c0.188 0.049 0.496 0.049 0.684 0s0.034-0.089-0.342-0.089-0.53 0.04-0.342 0.089m1.856 0.198c0.241 0.047 0.637 0.047 0.879 0 0.241-0.046 0.043-0.084-0.44-0.084s-0.681 0.038-0.439 0.084m2.248 0.198c0.297 0.045 0.737 0.044 0.977-3e-3 0.24-0.046-3e-3 -0.083-0.54-0.081-0.537 1e-3 -0.733 0.039-0.437 0.084m2.341 0.195c0.296 0.045 0.779 0.045 1.075 0 0.295-0.045 0.053-0.081-0.537-0.081-0.591 0-0.833 0.036-0.538 0.081m2.832 0.197c0.35 0.043 0.921 0.043 1.27 0 0.349-0.044 0.063-0.079-0.635-0.079s-0.984 0.035-0.635 0.079m2.605 0.135c0.144 0.144 2.317 0.19 2.454 0.052 0.074-0.073-0.467-0.133-1.201-0.133s-1.298 0.036-1.253 0.081m8.07 0.944c-0.369 0.436-0.369 0.437 0.019 0.116 0.215-0.179 0.61-0.364 0.879-0.413l0.488-0.089-0.507-0.027c-0.309-0.016-0.652 0.145-0.879 0.413m3.001-0.102c0.351 0.043 0.878 0.042 1.172-2e-3 0.293-0.045 6e-3 -0.081-0.639-0.079-0.644 1e-3 -0.884 0.037-0.533 0.081m3.903 0.196c0.456 0.041 1.203 0.041 1.66 0 0.456-0.041 0.083-0.074-0.83-0.074s-1.287 0.033-0.83 0.074m5.371 0.197c0.617 0.039 1.628 0.039 2.246 0 0.617-0.039 0.112-0.071-1.123-0.071-1.236 0-1.741 0.032-1.123 0.071m5.175 0.189c0.242 0.046 0.638 0.046 0.879 0 0.242-0.047 0.044-0.085-0.439-0.085s-0.681 0.038-0.44 0.085m2.344 0.195c0.242 0.047 0.637 0.047 0.879 0 0.242-0.046 0.044-0.085-0.439-0.085-0.484 0-0.681 0.039-0.44 0.085m4.981-3e-3c0.188 0.049 0.495 0.049 0.683 0s0.034-0.089-0.341-0.089c-0.376 0-0.53 0.04-0.342 0.089m-63.965 11.331c0.242 0.047 0.637 0.047 0.879 0 0.241-0.046 0.044-0.084-0.44-0.084-0.483 0-0.681 0.038-0.439 0.084m4.687 0c0.242 0.047 0.638 0.047 0.879 0 0.242-0.046 0.044-0.084-0.439-0.084-0.484 0-0.681 0.038-0.44 0.084m-173.73 3.573c0 0.376 0.041 0.53 0.09 0.342s0.049-0.495 0-0.683-0.09-0.035-0.09 0.341m169.73 0.135c0.188 0.049 0.496 0.049 0.684 0s0.034-0.089-0.342-0.089-0.53 0.04-0.342 0.089m3.421 3e-3c0.243 0.047 0.594 0.045 0.781-3e-3 0.187-0.049-0.012-0.088-0.442-0.085-0.429 2e-3 -0.582 0.042-0.339 0.088m79.592 0.644c0 0.483 0.038 0.681 0.084 0.439 0.047-0.242 0.047-0.637 0-0.879-0.046-0.242-0.084-0.044-0.084 0.44m-191.02 22.986c0.188 0.049 0.495 0.049 0.683 0s0.034-0.09-0.342-0.09-0.529 0.041-0.341 0.09m2.248 0.199c0.243 0.046 0.595 0.045 0.781-4e-3 0.187-0.049-0.012-0.087-0.441-0.085-0.43 2e-3 -0.583 0.042-0.34 0.089m107.32 1.949c0.188 0.049 0.496 0.049 0.684 0s0.034-0.089-0.342-0.089-0.53 0.04-0.342 0.089m-3.906 0.196c0.188 0.049 0.495 0.049 0.683 0 0.188-0.05 0.034-0.09-0.341-0.09-0.376 0-0.53 0.04-0.342 0.09m-4.297 0.2c0.295 0.045 0.779 0.045 1.074 0s0.054-0.081-0.537-0.081-0.833 0.036-0.537 0.081m-70.996 0.193c0.241 0.047 0.637 0.047 0.879 0 0.241-0.046 0.044-0.084-0.44-0.084-0.483 0-0.681 0.038-0.439 0.084m62.991 3e-3c0.297 0.045 0.736 0.043 0.976-3e-3s-2e-3 -0.083-0.54-0.082c-0.537 2e-3 -0.733 0.04-0.436 0.085m-59.28 0.193c0.241 0.046 0.637 0.046 0.879 0 0.241-0.047 0.044-0.085-0.44-0.085-0.483 0-0.681 0.038-0.439 0.085m52.148 5e-3c0.457 0.041 1.204 0.041 1.66 0 0.457-0.041 0.083-0.075-0.83-0.075s-1.286 0.034-0.83 0.075m-4.879 0.194c0.351 0.043 0.878 0.042 1.172-2e-3 0.293-0.045 6e-3 -0.08-0.639-0.079-0.644 1e-3 -0.884 0.037-0.533 0.081m-33.988 0.2c3.464 0.03 9.133 0.03 12.598 0 3.464-0.03 0.629-0.055-6.299-0.055-6.929 0-9.763 0.025-6.299 0.055" fill="#bb3c0c"/>
  <path d="m204.84 129.72c-4.484 1.692-14.031 8.015-18.528 12.271-0.17 0.161-0.962 0.863-1.759 1.559-2.653 2.317-6.594 6.393-9.068 9.379-0.401 0.483-0.79 0.923-0.865 0.976-0.247 0.177-3.993 4.756-5.188 6.343-2.769 3.673-5.655 7.927-9.48 13.969-1.326 2.094-3.99 6.225-5.921 9.18-4.5 6.888-5.807 8.946-8.183 12.882-2.764 4.58-9.963 16.782-11.874 20.126-0.89 1.558-2.425 4.195-3.41 5.86-6.814 11.519-14.425 25.13-17.856 31.93-5.424 10.753-12.631 25.811-13.835 28.909-0.335 0.86-1.321 3.409-2.192 5.665-0.872 2.255-1.665 4.295-1.763 4.533-0.87 2.107-3.775 13.662-4.385 17.439-0.838 5.195 0.039 9.168 2.467 11.173 0.465 0.383 1.058 0.885 1.318 1.113 2.03 1.783 6.629 3.591 13.688 5.379 2.846 0.722 6.274 1.608 7.617 1.97 4.704 1.269 8.47 1.996 18.066 3.49 1.903 0.297 7.454 1.058 13.575 1.861 2.431 0.319 8.887 0.991 9.525 0.991 0.08 0 0.263-0.267 0.407-0.592 0.593-1.34 5.735-5.935 10.357-9.255 5.051-3.628 8.611-5.505 19.75-10.41 14.828-6.53 31.783-10.513 49.957-11.737l2.009-0.135-1-0.781c-0.549-0.43-1.16-0.913-1.357-1.075-0.197-0.161-0.817-0.644-1.378-1.074s-1.513-1.179-2.116-1.665-1.755-1.375-2.561-1.976c-3.821-2.852-4.489-4.059-3.042-5.506 0.244-0.244 0.609-0.702 0.812-1.019 0.326-0.511 5.049-6.285 5.343-6.533 0.064-0.054 0.642-0.713 1.285-1.465s1.267-1.455 1.386-1.562c0.119-0.108 1.273-1.47 2.563-3.028 2.046-2.469 8.106-8.643 10.871-11.074 4.225-3.716 11.546-5.271 18.26-3.88 1.331 0.276 2.524 0.501 2.651 0.501 0.185 0 0.989-3.516 0.829-3.627-0.022-0.015-0.831 0.131-1.797 0.323-3.982 0.794-3.941 0.834-5.442-5.175-1.374-5.494-1.236-6.169 1.257-6.169 0.185 0 5.465-1.365 11.733-3.034 6.268-1.668 15.747-4.188 21.065-5.6 5.317-1.412 9.702-2.593 9.743-2.625 0.348-0.267-10.258-15.327-15.541-22.07-0.517-0.66-1.466-1.89-2.108-2.734s-1.595-2.062-2.119-2.707c-0.523-0.644-1.159-1.435-1.412-1.758-0.596-0.758-4.469-5.51-5.028-6.17-0.236-0.278-0.649-0.797-0.918-1.154-0.269-0.356-1.175-1.49-2.014-2.521-0.839-1.03-1.762-2.173-2.051-2.54-0.44-0.558-2.533-3.087-4.038-4.879-0.216-0.257-0.533-0.609-0.704-0.781-0.17-0.173-1.211-1.413-2.312-2.755-1.101-1.343-2.148-2.615-2.326-2.827-0.179-0.212-0.456-0.572-0.617-0.8-0.316-0.447-1.86-2.283-2.352-2.797-0.27-0.282-1.789-2.066-2.824-3.317-0.215-0.259-0.529-0.613-0.697-0.785-0.169-0.173-1.22-1.413-2.336-2.756-1.116-1.342-2.088-2.485-2.161-2.539-0.072-0.053-0.458-0.493-0.858-0.976-0.619-0.748-2.547-2.868-4.717-5.188-0.308-0.328-1.043-1.127-1.634-1.775-3.153-3.458-5.162-5.623-6.766-7.292-0.983-1.022-2.342-2.474-3.021-3.226-1.653-1.83-10.192-10.322-12.471-12.402-1.001-0.913-2.096-1.927-2.435-2.252-0.631-0.606-3.817-3.293-5.012-4.225-0.366-0.287-0.856-0.682-1.089-0.879-0.233-0.198-0.877-0.711-1.432-1.14-0.555-0.43-1.227-0.965-1.494-1.19-3.336-2.805-7.537-3.714-11.047-2.39m-27.849 89.807c0.247 0.105 6.161 2.355 13.144 5.001 6.982 2.645 14.892 5.645 17.578 6.665 2.685 1.021 5.762 2.188 6.836 2.593 1.074 0.406 5.996 2.277 10.937 4.159 4.942 1.882 12.852 4.889 17.578 6.681 9.272 3.516 9.58 3.675 9.542 4.935-0.024 0.792-3.656 11.976-4.121 12.689-0.554 0.85-1.358 0.784-5.567-0.458-0.304-0.09-0.342 0.062-0.342 1.386 0 15.018-18.81 26.001-34.604 20.205-14.804-5.434-19.485-22.03-9.366-33.209 0.426-0.471 0.76-0.87 0.742-0.887-0.019-0.016-4.384-1.275-9.702-2.799-25.921-7.425-25.465-7.286-25.87-7.865-0.737-1.051-0.658-1.198 5.899-10.983 5.711-8.522 5.891-8.722 7.316-8.113m136 33.527c-4.402 0.838-4.133 0.731-3.513 1.386 5.564 5.877 4.806 17.184-1.569 23.428l-1.633 1.599 0.916 0.53c0.504 0.292 2.059 1.298 3.456 2.236 1.396 0.938 3.637 2.432 4.98 3.321 1.343 0.888 2.667 1.799 2.944 2.024 0.276 0.225 0.798 0.629 1.159 0.898 1.349 1.003 4.375 3.586 5.396 4.608 3.384 3.383 0.469 5.472-6.667 4.779-1.182-0.115-4.785-0.3-8.008-0.411-3.222-0.111-7.178-0.28-8.789-0.375-2.659-0.158-2.966-0.142-3.32 0.167-0.215 0.188-1.006 0.703-1.758 1.144-2.832 1.663-12.255 8.049-11.992 8.128 0.15 0.045 1.222 0.183 2.381 0.307 1.16 0.124 3.753 0.531 5.762 0.904 2.01 0.374 5.253 0.94 7.209 1.257 15.333 2.491 32.879 8.632 37.303 13.056l0.597 0.597 0.854-0.722c2.577-2.178 3.323-3.52 3.9-7.018 0.497-3.013-1.793-12.026-5.707-22.456-2.094-5.583-11.288-24.457-15.298-31.407-1.24-2.148-2.847-4.982-3.573-6.297-0.725-1.315-1.363-2.382-1.416-2.372-0.054 0.011-1.68 0.321-3.614 0.689" fill="#fbe324"/>
  <path d="m166.21 232.81c-0.23 0.322-0.373 0.585-0.32 0.585 0.054 0 0.286-0.263 0.515-0.585 0.23-0.323 0.374-0.586 0.32-0.586s-0.286 0.263-0.515 0.586m85.759 15.55c0.259 0.335 0.511 0.574 0.559 0.531s-0.164-0.317-0.472-0.609l-0.559-0.531 0.472 0.609m-5.241 14.467c0.188 0.049 0.495 0.049 0.683 0s0.034-0.089-0.342-0.089-0.529 0.04-0.341 0.089m14.404 4.554c-4.183 0.53-7.156 2.08-10.84 5.653-5.549 5.383-6.492 6.367-8.991 9.385-1.379 1.665-2.557 3.071-2.617 3.125-0.061 0.054-0.764 0.845-1.563 1.758s-1.622 1.852-1.829 2.087c-0.332 0.377-0.035 0.315 2.526-0.526 4.062-1.333 7.506-1.838 11.505-1.684 2.692 0.103 4.086 0.293 10.246 1.397 0.913 0.163 3.55 0.556 5.86 0.872 2.309 0.316 6.308 0.88 8.886 1.255 4.789 0.695 9.112 1.108 15.528 1.486 1.987 0.117 4.887 0.336 6.445 0.487 2.796 0.271 6.959 0.495 16.504 0.889 2.686 0.11 5.454 0.245 6.152 0.298l1.27 0.097-0.858-0.77c-1.895-1.702-9.711-7.119-14.232-9.864-1.745-1.059-8.915-4.326-14.431-6.574-4.502-1.836-5.677-2.354-12.178-5.371-6.135-2.847-13.361-4.51-17.383-4m-16.602 23.938c-3.728 0.477-11.133 2.882-11.133 3.615 0 0.073 1.015 0.912 2.256 1.865 1.24 0.953 2.64 2.041 3.111 2.417 9.56 7.638 17.287 10.555 25.883 9.773 6.258-0.57 11.684-2.266 16.359-5.112 1.647-1.003 11.378-7.46 11.32-7.512-0.023-0.021-1.624-0.14-3.557-0.264-8.868-0.568-23.408-2.425-32.813-4.191-4.572-0.859-7.964-1.034-11.426-0.591m55.323 5.688c0.188 0.049 0.495 0.049 0.683 0s0.034-0.09-0.342-0.09-0.529 0.041-0.341 0.09m3.615 0.198c0.243 0.047 0.595 0.045 0.781-3e-3 0.187-0.049-0.012-0.088-0.441-0.085-0.43 2e-3 -0.583 0.042-0.34 0.088m4.881 0.195c0.241 0.047 0.637 0.047 0.879 0 0.241-0.046 0.043-0.084-0.44-0.084s-0.681 0.038-0.439 0.084m6.057 0.196c0.243 0.047 0.594 0.045 0.781-4e-3s-0.012-0.087-0.442-0.085-0.582 0.042-0.339 0.089m5.759 0.395c0.403 0.042 1.062 0.042 1.465 0s0.073-0.077-0.733-0.077c-0.805 0-1.135 0.035-0.732 0.077m-230.07 16.264c0 0.591 0.036 0.832 0.081 0.537s0.045-0.779 0-1.074c-0.045-0.296-0.081-0.054-0.081 0.537" fill="#fbb32b"/>
 </g>
</svg>
