<?xml version="1.0" encoding="UTF-8"?>
<!-- Created with Vectornator (http://vectornator.io/) -->
<svg clip-rule="evenodd" stroke-linecap="round" stroke-linejoin="round" stroke-miterlimit="10" version="1.1" viewBox="0 0 2048 2048" xml:space="preserve" xmlns="http://www.w3.org/2000/svg" xmlns:xlink="http://www.w3.org/1999/xlink">


<g transform="matrix(5.1635 0 0 5.1635 215.91 179.92)"><g fill-rule="evenodd"><path d="m183.8 0h0.7-0.7m-0.4 0.5c-0.7 0.3-1 1.1-1 2.3 0 3 2.4 22.6 4.3 34.7a187 187 0 0 1-1.1 60.8c-1 6.2-2 9.6-4.2 15l-2.2 6a77.4 77.4 0 0 1-3.5 10l-0.8 1.6-1.8-0.2h-33.9l-0.2-0.6c-0.6-1.7-5.3-17.5-5.3-18 0-0.4 8.5 0.1 13.4 0.9 5.5 0.8 15.8 3.2 18 4.2 1 0.4 1.5 0.4 1.8 0.1 1-1-0.4-2-6.3-5.2a116 116 0 0 0-29.5-11.3c-0.3-0.2-3.2-15.8-5.5-29.5-4.2-25.2-4.4-30-2-48.7 1-6.7 2-16.7 2-19.3 0-2.8-3.4-2.3-3.9 0.6a245.4 245.4 0 0 1-17 41.7c-4.2 8.2-5.3 10-7.3 11.8-3.1 2.8-3.1 2.8-3.1 3.8s0.3 1.7 1.4 3.1c0.4 0.5 1 2 1.6 3.1a1156.3 1156.3 0 0 0 7.3 18 679.6 679.6 0 0 1 4.4 10.4l0.9 2h-4a88.2 88.2 0 0 0-41.5 10.4c-8.6 4.1-20.3 12.2-20.3 14 0 1.4 5 12.5 7.5 16.3 2.9 4.6 3 4.6 6.5 1.2a75.2 75.2 0 0 1 38-22c6.1-1.8 20.8-5 21.1-4.6 0.3 0.3 9 18 9 18l-1 0.2a199 199 0 0 0-44.5 7.7c-10 3-23.5 10.3-31.2 17a89.3 89.3 0 0 0-22.5 36.4 109 109 0 0 0-3.5 37.6c0.8 7.3 1.4 12 1.9 14.5 0.6 3.1 0.6 3-1.2 1.8-3-2-10.1-9.5-12.8-13.5-2.6-4-4.5-3.5-5.5 1.3a34 34 0 0 1-2.9 11.1c-2 4.2-1.5 4.6 9.5 7.5 8.4 2.2 10.4 2.9 8.7 3-1.8 0-6.5-0.5-11-1.1-8-1.2-8.8-1.2-9.5 0-0.5 1.1-0.4 1.6 1.3 3.6a25 25 0 0 1 5 13.7c0 2 1.4 3 3.1 2a95.2 95.2 0 0 0 12.3-8.2l-2 3.2c-4 6-4 5.7-0.1 10.9l4 5.5c2 3 3 3.4 4.2 2.1 0.8-0.8 1-1.9 1.6-6.9l0.7-4.6c0.2-0.7 0.4-2.4 0.5-3.8 0.3-3.5 0.4-3.5 1.2-1.2 3.3 8.7 6 13.7 8.6 16 13.6 12.4 31.6 18 66.4 20.9a615.5 615.5 0 0 0 34.4 2.7c11.4 1 22.3 1.7 32.7 2 19.2 0.5 37.6-1 60.1-4.7 16.1-2.7 20.2-4 31.4-9.2 22.1-10.4 28-18.5 33.5-46.2 2.6-13.2 2.7-32.4 0.3-43.9-2-9.5-4-16.8-6.2-21.4-0.9-1.9-1-1.7 1-3 3-2.3 5.2-5.2 5.3-7 0-1 0-1.2-2-5.4-2-3.9-2.4-4.6-3-4.6-0.4 0-1.3 1-1.3 1.4-0.3 1.5-5 8.2-5.5 7.7l-2.2-3.4a60.5 60.5 0 0 0-20.2-20.4c-13-8.6-26.8-14.2-41.8-17a165 165 0 0 0-36-4.2c-1.9 0.4-2 0.5 2.7-5.1 2.5-3 3.6-4.6 6-8.9 2-3.6 1.5-3.3 6.1-4a90.5 90.5 0 0 1 51 5 78 78 0 0 1 27.2 18.5c2.4 2.9 3.6 3.6 4.2 2.5 1.7-3 10.6-21.7 10.6-22.2 0-1.9-10.5-8.3-19-11.6a99.7 99.7 0 0 0-74.6 1.9l1.8-4a153 153 0 0 0 12-41.7c2-11.3 2.1-15.8 0.7-16.6l-1.6-2-3.2-3.7-3.5-4c-1.8-2.3-3.5-4.4-8.6-10.2a50.6 50.6 0 0 1-9.4-14.8c-0.4-1.1-1.6-3.6-2.6-5.6-2.2-4.2-2.8-4.7-4.4-4.2m5.6 15.5c1.7 3.3 5.8 8.9 10.3 13.8 2.4 2.8 4.5 5.3 6.3 7.7a52.6 52.6 0 0 0 5.7 6.6l2 2.4 0.9 1-0.2 2a167 167 0 0 1-13.4 52.6c-3.6 7.5-4.3 8.6-6 9.8-2.3 1.6-5.3 5-5 5.7 0.2 0.7 1.1 0.3 2.3-0.8 0.6-0.6 1.2-1 1.3-1 0.2 0.2-2.5 4.5-3.8 6.1l-4.2 5.3-3 3.8h-1.2c-1.8 0-2-0.1-1.4-1.2l1.5-4.5 4.2-11.8c6.4-15.7 9-50.1 5.5-73.8-1.4-9.2-3.4-23.7-3.7-27.3-0.2-1-0.1-1 0.6 0.7l1.3 2.9m-69.2 9a118.5 118.5 0 0 0 1.2 41l1.9 11a717 717 0 0 0 4.1 23l-2.7-0.4c-2.5-0.5-6-1-8.9-1.3l-1.4-0.1-1.1-2.5a236 236 0 0 1-5-11.8l-2.3-5.8c-3-7.7-6-14.3-6.8-15.7l-0.6-0.8 1-0.8c2.9-2.2 7.5-10 13.5-23 2.5-5.5 5.2-11.5 6.6-15.3 1-2.8 1.1-2.7 0.4 2.7m11 89.7a427.2 427.2 0 0 0 4.6 16l-5 0.2-4.5-9-4.5-9.3a52 52 0 0 1 7-0.6h1.7l0.7 2.7m49.7 19.9 2.5 0.2h5.4c10.1-0.1 18.7 0.9 35.6 4.2 20.5 4 42.5 15.4 52.6 27.2a58 58 0 0 1 8.7 12.9c-0.7 1.1-1 1-4-1.2a49 49 0 0 0-31.8-11 43 43 0 0 0-14.3 3l-2.9 1.6c-17.2 9.8-25 32.8-18 53.7 1.4 4.2 4.6 10 6.8 12.5l0.8 1-2.3 1.2c-5.8 3.3-7.2 4.7-6.4 6.4 0.6 1.2 1.8 1.1 3.6-0.3a129 129 0 0 1 38.6-15.7c11.6-2.4 24.3-3.4 33.3-2.6 5.5 0.4 6.5 0.4 7.1-0.2 1-0.9 0.7-2.2-0.6-3-0.4-0.2-10.1-0.8-13.4-0.8h-3.4l0.6-2.1c2.4-9 2.2-18.7-0.5-27.3l-0.7-2 0.5-0.3 2-0.7c2.5-0.9 5.7-2.2 7.6-3.1l1.8-1 0.6 1.3c3.1 7 6.6 21.1 7.2 29.2 0.4 5.4 0.4 20 0 23.9-1.5 12.6-6.4 31.2-9.2 34.5l-0.8 1.2c-4 6.9-10.8 12.2-22.8 17.7a72 72 0 0 1-25.2 8c-5.3 1.2-25.4 4.1-32.6 4.8a378.3 378.3 0 0 1-70.2-1.5l-7.5-0.5c-7.8-0.5-29.8-2.5-35.8-3.3-25.2-3.3-36.9-7.6-49.6-18.2-5.4-4.5-13.2-28.3-15.5-46.8a130 130 0 0 1 0.2-34.1 80.8 80.8 0 0 1 25.4-46.2c2-1.7 3-2.3 7.6-5.2 17-10.6 38.5-15.8 72.2-17.6 4.5-0.2 45.5 0 46.8 0.2m-77.2 29.8a56.4 56.4 0 0 0-36 20.8c-2.6 3-2.4 2.9-6.1 1a47 47 0 0 1-8.7-5.4c-5.6-4.4-5.9-4.2-5.6 4l0.2 6.9c0 1.8 1 2.5 5.9 4 6.5 2 14 3.4 19.5 3.4h2.1l-0.2 1.2a56.2 56.2 0 0 0 2.7 29.5l-2.4 0.4c-13 1.3-26.8 5.1-27.2 7.6-0.5 2.2 1.2 2.7 4.6 1.2 22.7-9.5 74-7.5 101.1 4 2.8 1.2 3.4 1.3 4 0.4 1.3-1.6 0.3-2.7-4-4.5a14 14 0 0 1-1.4-0.6l1.3-2.7c13.4-27.8-2-63.2-30.3-69.9a83.5 83.5 0 0 0-19.5-1.4m14.1 4.2c26.2 2.8 43.5 33 34.5 60.4a26.2 26.2 0 0 1-4 8c-12.8-4.9-41.7-8.4-61.8-7.5-5.7 0.3-5 0.5-6-2.4-10.8-29.8 9.3-61.4 37.3-58.5m134.2 3.4c18.3 4 29.6 26.6 24 48l-0.7 3c0 0.8-0.1 0.9-0.9 1l-5.3 0.6c-15 1.7-23.9 4-38.6 10.3-5.7 2.5-5.6 2.4-5.6 1.8 0-0.2-0.7-1.4-1.5-2.5-16.5-23-4.7-58.7 20.7-62.5 1.2-0.2 6.5 0 8 0.3m50.2 57v0.5-1 0.6m-111.3 3.7c-4.2 1-9.7 5.8-15.2 13.2-3.8 5-4.7 5.7-7.4 5.7s-4.3-0.8-5.4-2.6c-1-1.9-3-2.5-6.1-1.9-6.3 1.1-12.5 6.6-9.3 8.1 1 0.5 1.6 0.3 3-1 2.6-2.3 5-3.4 7.8-3.6l1.3-0.1 0.4 0.7 1.1 1.5c0.8 0.9 1 1.2 0.6 1.5-1.2 0.7 1.8 21.4 4.3 29.2 3 9.8 9 14 16.9 12 2.8-0.6 4.6-1.4 9.2-4.2 2.4-1.5 6.1-3.3 7.5-3.7 1.7-0.6 2-2.1 0.8-3.6l-0.7-0.8h-9.5l-0.4-1.2a45 45 0 0 1 1.3-23.8l0.8-2.8h0.7c3-0.3 9.8 2.3 12.8 5 2.5 2 5.9 7.4 7 10.9 0.2 0.9 2 2.4 2.8 2.4 2.2 0 2.1-4.5-0.5-16.5-3.4-15.6-14.4-26.9-23.8-24.4m111.3 0.4v0.3-0.8 0.5m-106.6 3.3c7 1.8 13.3 10.7 15.8 22.4 0.8 4 0.8 4-0.5 2.2-4.7-6.8-14-10.3-24.9-9.3-1.4 0.1-4.3 0.3-6.5 0.3l-4 0.2 0.9-1.2 2.6-3.5c6.6-8.8 11.9-12.3 16.6-11.1m-193.6 11.3v0.3-0.7 0.4m-1.6 7.6v0.4c0.1-0.3 0.1-0.6 0-0.8v0.4m167.8 0.3a155.1 155.1 0 0 0 19.8-0.3l-0.6 2.6c-2.5 9-3 17.2-1.6 23.5 0.4 1.5 0.4 1.5-1.3 0.9a22.2 22.2 0 0 1-11-8 38 38 0 0 1-8.3-18v-1h0.6l2.4 0.3m-0.1 17.3c3.9 6.3 7.4 9.6 13.2 12a18 18 0 0 0 8 2h3l-2.4 1.5c-13.4 8-18.6 4.5-22.6-14.6-0.6-2.9-0.5-3 0.8-0.9m-141 15.3h0.7l-0.4-0.1h-0.3" fill="#060505"/><path d="m192.5 59.4a227 227 0 0 1-2 32.4 79.9 79.9 0 0 1-5.8 23.3l-2.2 6.3a92.5 92.5 0 0 1-3 8.6l-0.2 0.6 1.2 0.1c1.5 0.2 1.3 0.3 3.5-2.5a182.1 182.1 0 0 1 6.1-7.5c0.6-0.7 2.7-4.3 2.6-4.4l-1 0.8c-1 1-1.8 1.3-2.3 0.7-0.3-0.3 0-0.7 1.2-2.2l0.7-1c0-0.2 2.4-2.3 3.5-3.1 2.3-1.6 8.3-14.3 11.6-24.8 2-6.4 5.2-20.1 4.7-20.3a318.4 318.4 0 0 1-18.3-10.7c-0.2-0.1-0.3 0.5-0.3 3.7m-73.7 4.8c-7.4 7-13 13-13 13.7l1.3 3.4a1293.2 1293.2 0 0 1 5.7 13.8l1.3 2.8 2.5 0.3c2.3 0.2 8.5 1.2 9.9 1.5 0.4 0 0.4 0 0.3-0.3a742.4 742.4 0 0 1-6.5-36.4s-0.7 0.4-1.5 1.2m9.7 48-7 0.6 4.3 9 4.5 9h2.4l2.4-0.3s-0.8-3-2-6.5l-2.5-9c-0.6-2.3-0.9-3-1.1-2.9h-1m5.8 22.6c-26.3 1.2-48.2 5.4-61.9 11.7-12.2 5.7-21 12-26.1 18.5a82.8 82.8 0 0 0-18.3 43.3 124.2 124.2 0 0 0 2.5 42c2.6 12 6.3 22.9 10.4 30.6 1.3 2.4 1.3 2.3 6.6 6.6 5 3.9 12.5 7.5 21.9 10.6a183.6 183.6 0 0 0 23.3 4.3 399 399 0 0 0 24.5 2.4l6.8 0.6 2 0.2v-2.6a77.1 77.1 0 0 1 20.3-47.1c0.2-0.3 0.2-0.5 0-1-1.6-3.4 9.3-9.2 14-7.6 0.8 0.3 2.4 1.7 2.4 2 0 1.7 4.9 3.1 7.2 2.2 1-0.3 2.5-1.8 3.7-3.5l2.2-2.8c3.9-5.2 8.7-9.7 12.2-11.5 9-4.3 20.2 4.2 25.1 19l0.9 2.5 1.7 1.8c4.9 5 9 16.8 10.1 28.4 0.7 7.1 0.7 18 0 19.7 0 0.2 0 0.2 0.4 0.1l5.1-0.8c8.7-1.3 17.9-3.2 21.8-4.5a115.8 115.8 0 0 0 26.3-13.5l3.4-3.4c5.5-5.7 8.3-12 11.2-24.2 2.6-11.2 3.5-18.5 3.5-28.6v-4h-0.6c-0.5 0-0.6 0-0.6 0.5 0 1.6-1.1 2-6.6 1.5-10.5-0.9-22.8 0-34.9 2.6a126.3 126.3 0 0 0-38 15.6c-1.8 1.4-2.7 1.5-3.6 0.7-1.1-1-0.7-2.6 1-4 1.4-0.9 1.4-0.8-0.1-2.6a90 90 0 0 1-12.4-35.7 51.8 51.8 0 0 1 15.5-44.8c9.4-8.3 16.9-12 27.4-13.3l2-0.2-1.2-0.5a176.4 176.4 0 0 0-60-11l-10.4-0.1c-6.4-0.3-35.5-0.3-40.8 0m-18 10.4c34.2 1.7 58.4 35.2 51.1 70.3a67.2 67.2 0 0 1-11 25c0.6 0 1.3 1 1.3 2 0 1.6-1.5 2.3-3 1.6-26-12.2-80.7-14.5-103.6-4.4-1.8 0.8-2.7 0.8-3.4 0.1-0.6-0.6-0.5-2.2 0.1-2.8a24 24 0 0 1 5.3-2.4c0.4 0 0.5-0.2 0.4-0.3a38.7 38.7 0 0 0-1.5-4.7 63.7 63.7 0 0 1-2-33.6l0.3-0.9-0.8-0.2c-1-0.4-2.2-1.5-2.5-2.3-0.3-1.1-0.6-13.5-0.4-14 0.7-1.1 2.2-0.6 5 1.6l2.5 1.8 0.6 0.4 0.9-1.8c11-21.7 35-36.7 57.5-35.6l3.4 0.2m-12.6 19.2h0.9c0.2-0.1 0-0.1-0.5-0.1h-0.4m6.5 0c0.2 0.1 0.6 0.1 0.8 0h-0.8m127.4 26h1.5-1.5m-125.5 4.2-1 1 1-1c1-0.8 1.1-1 1-1l-1 1m139.2 1 1 1-0.8-1-1-1 0.8 1m-181.6 3.8h0.9-0.9m210.9 9.5v1.4a33.7 33.7 0 0 0 0-1.4m-69.2-1.6c0 0.5 0 0.7 0.1 0.4v-0.9 0.5m-106.1 1.7v0.4-0.7 0.3m-32.5 1.5c0 0.4 0 0.6 0.1 0.3v-0.7 0.4m143.5 1.6c0 1 0 1.4 0.1 0.9v-1.8 0.9m-111.2-0.1v0.3-0.7 0.4m106 0.5c0 0.4 0 0.5 0.1 0.3v-0.8 0.5m-53.6 1.6c0 1 0 1.4 0.1 1v-1.8 0.8m139.2 4.6v0.4c0.1-0.2 0.1-0.6 0-0.8v0.4m-187 4.1c0 0.4 0 0.5 0.1 0.3v-0.6 0.3m187 1c0 0.8 0.1 1.1 0.2 0.7v-1.4l-0.1 0.8m-47.2-0.4-0.6 0.8 0.7-0.7c0.7-0.6 0.8-0.8 0.7-0.8l-0.8 0.7m-28.7 1.2 1.2 1-2.1-2.1s0.3 0.5 1 1m62.9-0.9h1-1m5.6 0.4h0.7-0.7m2.7 0.2h0.8-0.8m-87.5 83.4h0.8-0.8m-2.7 0.2h1.1-1.1m-3.4 0.2h1.4-1.4m-3.1 0.2h1.2-1.2" fill="#fbab74"/><path d="m110 168.9c-25.1 3.5-39.7 32.3-29.8 58.6l0.7 2h1.9c10.3-0.1 18.7 0 21.7 0.1a178 178 0 0 1 43.6 7.5l1.2-2.4c13-26.2-1.7-59.7-28.5-65.3a45 45 0 0 0-10.9-0.5m132.3 3.2c-24.3 4.3-35.2 40-19 62.4 0.7 1 1.4 2 1.4 2.2 0 0.5-0.2 0.6 5.3-1.8 15-6.4 23.8-8.7 39.8-10.5 4.3-0.5 4.8-0.6 4.8-1l0.6-2c7.2-26.8-10.4-53.2-33-49.3m-107.2 15c14.6 2.7 22.3 17.3 16 30.3-6.4 12.9-23.1 18-35.1 10.9-5.3-3.2-7-6.1-4.2-7.5 2-1 4-4 3.7-5.6-0.5-2.7-4.2-3.4-6.6-1.3-4.2 3.8-4.5-7.5-0.3-14.4a25.8 25.8 0 0 1 26.5-12.3m108.3 3.6a18 18 0 0 1 13.3 13.7c1 4.3 0 6.3-2.3 4.7-2.4-1.7-6.3 0-6.2 2.8 0 3 1.3 4.8 3.6 5 3.3 0.4 2.5 3.4-2.1 7.4-13 11.4-32 4.7-32.9-11.5-0.7-13.9 13.5-25.6 26.6-22.1m-86.7 60.4c-2.6 0.7-4 1.5-6.2 3.4-1.3 1.3-2 1.6-3 1.2-0.5-0.2-0.6-0.2-1.3 0.6-3.9 4.4-8.4 11.2-12.5 18.7-4 7.3-7.2 20.2-7.2 28.5v1.8h1.1c0.7 0.2 3 0.3 5 0.4l9.2 0.7a371.2 371.2 0 0 0 63.3 1c4.5-0.2 11.5-1 17.4-1.8l3.5-0.6 0.2-0.8c0.6-3.5 0.2-16.6-0.8-23.5-1.3-9-5.3-19.4-9.1-23.4-2-2.1-2-2.2-1.4 0.5 1.6 7.1 2.4 14 1.8 15-1.5 2.5-4.2 0.8-5.6-3.4-0.6-2-3.4-6.2-5.1-8-2.6-2.7-7.7-5-12.3-5.7-2-0.3-1.6-0.6-2.5 2.7-2.5 9-3 17.6-1.5 23.1 0.5 1.7 0.2 1.6 5 1.4 3.6 0 4.2 0 4.8 0.2 1.3 0.6 2.1 2.3 1.6 3.4-0.2 0.7-0.4 0.8-3.8 2.3-1.3 0.5-3.5 1.7-5 2.6-10.5 6.3-16.7 6.5-22.2 0.8-3-3.2-4.4-6.7-6.7-17.2a102 102 0 0 1-2.3-20.5c0.4-0.3 0.2-1-0.4-1.6l-1-1.2c-0.4-1-0.9-1-3-0.6m61.8 15s0 0.2-0.2 0.2c0 0-0.2-0.2-0.2-0.5 0-0.4 0.4-0.1 0.4 0.3" fill="#fbf7e5"/><path d="m127.6 187a24.8 24.8 0 0 0-22 21.4c-0.5 5.2 0.9 7.6 3.1 5.4 2.4-2.4 6.7-1.3 6.7 1.8 0 1.7-1.5 4-3.6 5.2-2.4 1.4-1.8 3.1 2 6 13.3 10 34.4 2.6 38.5-13.5 3.8-14.8-8.7-28.2-24.7-26.2m107.8 3.4c-12.7 1.8-21.7 15.7-17.8 27.4 4.7 13.7 22.8 16.3 33.4 4.9 3.3-3.6 3.4-5.3 0.3-5.7-2-0.2-3.5-2.4-3.5-5.2 0-2.7 4-4.5 6.3-2.9s3.1 0.3 2.4-3.8a18.2 18.2 0 0 0-21.1-14.7m-44.5 46.2a36 36 0 0 0-12.9 12 47.2 47.2 0 0 1-2.7 3.5c0 0.2 5.3 0 9.2-0.3 12-1 21.3 2.3 26 9 1.1 1.8 1.2 1.5 0.3-2.3-3.2-14.2-12.6-24.6-20-22m-24.1 35.4a60 60 0 0 0 4 14.4c3.6 7.2 9.4 7.9 18.8 2l2.2-1.2-3-0.2c-3.6 0-5.2-0.5-8.9-2.3-5-2.4-7.6-4.8-11.4-10.5-1-1.5-1.7-2.4-1.7-2.2" fill="#ed7f0e"/><path d="m108.8 145a64.4 64.4 0 0 0-54.1 37.5c1.4 1.3 8.2 4.8 9.5 5h0.9l1.8-2a59.8 59.8 0 0 1 31-20.3c7.7-1.7 20.7-1 28 1.4 27.2 9 40.3 43.4 26.8 70.3l-0.8 1.5 1 0.5 2.1 1 1.2 0.5 0.5-0.4a63 63 0 0 0 8.4-58.2 56 56 0 0 0-56.3-36.7m136 1.5c-6.6 1-7 1.2-10.9 2.7a51.8 51.8 0 0 0-32.1 55.5 89 89 0 0 0 13.5 37c0.2 0.4 0.5 0.2 3-1.3 1.5-1 2.9-1.7 3-1.7a48.2 48.2 0 0 1-9.4-35.8 41.8 41.8 0 0 1 23.4-33.3c2.8-1.4 10.7-3 15.1-3 10.7 0 21 3.8 30.9 11.2 2.6 2 2.7 2 3.2 1.7 0.8-0.4 0.7-0.6-1.2-3.6a67.7 67.7 0 0 0-29.4-26.2c-5.5-2.9-7.3-3.5-9-3.2m1.4 25.2h0.7l-0.4-0.1h-0.3m-116.1 15.1h0.9-0.9m158.1 1.3a43 43 0 0 1-6.7 2.9l-3 1-0.7 0.4 0.8 2.4a50.2 50.2 0 0 1 0 28l-0.2 0.7 4.5 0.1c9.7 0.3 12.7 0.7 13.3 2 0.3 0.5 1 0.7 1.2 0.4 0.1-0.3-0.2-8.6-0.5-10.8-0.4-4-3-15.5-4.7-20.7-0.6-2-2.7-7-2.8-7l-1.2 0.6m-238.3 8.5a63 63 0 0 0 3.2 36.7c0.2 1.2 0 1.2 3.2 0.3a119.6 119.6 0 0 1 20.4-3.8l-0.7-2.1a54.5 54.5 0 0 1-1.7-28.2l-2-0.1a73 73 0 0 1-19.2-3.3c-3-1-2.9-1-3.2 0.5m173.2 0-0.8 1 0.8-0.9c0.8-0.7 1-0.8 0.8-0.8l-0.8 0.8m33.7 11c0 0.5 0 0.7 0.1 0.4v-1 0.6m19.9 1v0.8-1.5 0.7m-184.4 20.7h2-2m141.8 0.8h1.5l-0.8-0.1h-0.7m-107.3 1.5h1.8-1.8m32.6 20.4c0.3 0.5 1.3 1.6 1.4 1.5l-0.7-1-0.7-0.5m-9.8 3c-1.2 1-1 1.2 0.1 0.1 0.7-0.6 1.1-1.1 1-1.1l-1.1 1m11-0.2v1.1-0.2c0.2-1.2 0.2-1.4 0-0.9m53.2 1c0 0.2 0 0.3 0.1 0.1 0.1-0.1 0.6 0.2 1.6 1.2l1.5 1.5-1.5-1.7c-1.8-1.8-1.7-1.7-1.7-1.1m-67.7 0.2-0.4 0.4 0.5-0.3c0.2-0.3 0.5-0.3 0.7-0.3 0.3 0.1 0.4 0.1 0.1 0-0.4-0.4-0.5-0.3-0.9 0.2m46.7-0.1h0.7c0.1-0.1 0-0.1-0.4-0.1h-0.3m-47.7 1.3-0.5 0.7 1.2-1.2c0-0.2-0.1 0-0.7 0.5m55.2 1 1 0.3-0.6-0.3-0.9-0.4 0.5 0.4m-56.6 0.7-0.5 0.8s0.4-0.3 0.7-0.8l0.5-0.7-0.7 0.7m75.1 3 0.8 1.5c0.1-0.1-1.3-2.9-1.4-2.9l0.6 1.5m-57.9-0.5c0 0.5 0 0.7 0.1 0.4v-0.9 0.5m0.1 2c0 0.3 0 0.5 0.1 0.3v-0.7 0.3m-21 0.2-0.3 0.6 0.5-0.6 0.3-0.6-0.5 0.6m67.5 0.8 0.6 0.9c0.2 0 0-0.2-0.2-0.6-0.7-1-1-1.2-0.4-0.3m13 1.3s0 0.4 0.2 0.7l0.3 0.3c0-0.1-0.1-0.5-0.3-0.7l-0.2-0.3m-32 2.2v0.4-0.7 0.3m27.5 0.6v0.5-1 0.5m-27.7 1v0.4c0.1-0.2 0.1-0.6 0-0.8v0.4m27.9 1.6c0 0.8-0.1 1.7-0.3 2-0.2 0.4-0.1 0.4 0.1 0 0.3-0.3 0.5-3.6 0.3-3.6l-0.1 1.6m-28.1 2.1v1.4a36.1 36.1 0 0 0 0-1.4m24.1-0.1 0.5 0.3v-0.3l-0.5-0.3v0.3m1.7 1.1h0.7c0.4-0.1 0.3-0.1-0.3-0.1-0.5 0-0.6 0-0.4 0.1m-80.7 0.6-0.2 0.5s0.3-0.2 0.4-0.5l0.2-0.6-0.4 0.6m55 2.4c0 0.5 0.1 0.7 0.2 0.4v-1l-0.1 0.6m0.2 1.8v0.3c0.1-0.2 0.1-0.6 0-0.8v0.5m36.7 4.4v0.3-0.7 0.4m-34.8 0.1h1-1m9.5 1c0.1 0.2 0.3 0.5 0.5 0.5 0.1 0.1 0.1 0 0-0.2l-0.5-0.6v0.3m25.5 0.7v0.4c0.1-0.3 0.1-0.6 0-0.8v0.4m-24.8 0.9v0.3-0.6 0.3m-0.4 1-0.7 0.6-0.5 0.3c0.3 0 1.3-0.6 1.4-0.9s0-0.3-0.2 0m25.4 0.7v0.6-1 0.4m-28.6 1c-0.3 0-0.4 0.2-0.3 0.2l0.7-0.3c0.3-0.1 0.4-0.3 0.3-0.3l-0.7 0.3m28.8 2.2v0.5-1.2 0.7m-56.7 1.2 1.5 1.5c0.4 0.3 0-0.1-0.7-1-1.6-1.6-2.1-2-0.8-0.5m20.4 0.7c-0.9 0.6-1.2 0.9-0.4 0.5l1.3-1-0.9 0.5m36.5 4.2v1.6a48 48 0 0 0 0-1.6m-51.2-1 0.8 0.2c0.3 0 0.3 0 0-0.1-0.7-0.3-1.3-0.3-0.8 0m1.6 0.3h0.6l-0.3-0.1h-0.3m4 0h0.7-0.6m-54.1 0.7v0.4-0.7 0.3m52-0.4h1l-0.6-0.1h-0.5m-52.1 2.2v0.3c0.1-0.2 0.1-0.6 0-0.8v0.5m-0.2 1.8v0.5-0.9 0.4m99.8 1.5v0.5-1.1 0.6m-100 1.7v2.1h1.6l-0.7-0.1-0.8-0.1v-4l-0.1 2.1m98.4 1.9h0.7l-0.3-0.1h-0.4m-96 0.5h1.4c0.4 0 0.1-0.1-0.7-0.1h-0.7m3 0.3h1.5l-0.8-0.1h-0.8m3.5 0.3h1.7l-1-0.1h-0.7m84.5 0h0.7-0.7m-81.2 0.2h1-1m79.9 0h0.6-0.6m-77.9 0.2h1-1m76.5 0h0.7-0.7m-74.4 0.2h1-1m72.8 0h0.7-0.7m-70.9 0.2h1.1-1.1m69.3 0h0.8-0.8m-67 0.2h1-0.9m65.3 0h0.8-0.8m-63 0.2h1.2-1.3m61.6 0h0.7-0.7m-58.8 0.2h1.2-1.2m55 0h1.6-1.6m-52.3 0.2h1.2-1.2m49.1 0h1-1m-46.4 0.2h1.2-1.2m43 0h1.6-1.5m-40.5 0.2h1.2-1.2m37.8 0h1-1m-34.8 0.2h1.8-1.8m32 0h0.7l-0.3-0.1h-0.4" fill="#fbeba3"/><path d="m183.3 0.3c-0.2 0-0.3 0.2-0.3 0.3 0 0-0.1 0.1-0.2 0l-0.5 0.7c-0.4 0.9-0.4 0.6 0.2 6.2a409.3 409.3 0 0 0 3 24.4 34 34 0 0 0 0.7 4.3 170.3 170.3 0 0 0 1.1 7.9 28 28 0 0 1 0.4 3.5c0.7 4 0.9 12.4 0.4 24a148.1 148.1 0 0 1-3.5 30.6 27.9 27.9 0 0 1-0.4 1.9 74 74 0 0 1-3.1 9.3l-0.8 1.8a19.6 19.6 0 0 0-1.4 4.2c-0.2 0.1-0.2 0.3-0.1 0.3l-0.1 0.3c-0.2 0.1-0.2 0.3-0.2 0.3l-0.2 0.8-0.3 1.1a31.5 31.5 0 0 1-1.6 4.7 12 12 0 0 1-0.6 1.6c-0.2 0.7-0.3 1-0.5 1l-0.2 0.4-0.2 0.5h-17.8c-16.6 0-17.9-0.1-17.9-0.4a3 3 0 0 0-0.2-0.9 10.7 10.7 0 0 1-0.5-1.2 24.7 24.7 0 0 0-1-3.4l-0.3-1.3a55.2 55.2 0 0 1-1.6-5.3l-0.4-1.2a34 34 0 0 0-1.2-4.3c-0.2-0.5 6.9-0.1 12.8 0.7a89.7 89.7 0 0 0-13-1c0 0.5 4.6 16.3 5.2 18l0.2 0.5h16l18 0.1 1.7 0.2 0.8-1.7c0.8-1.6 1.7-4.3 3.5-9.8l2.2-6.2c2.8-6.7 3.8-11 5.4-23.1 1-7 1.2-9.8 1.5-17.7 0.6-16.3 0.4-21.6-1.6-35a594.9 594.9 0 0 1-4.4-34.6c0-2.2 1.6-3.1 3.3-1.9 0.6 0.5 3.8 6.7 5 9.8 1.8 4.7 4.7 9.1 9.2 14.4 5.1 5.8 6.8 7.9 8.6 10.2l3.5 4a59.7 59.7 0 0 1 4.8 5.7c1.4 0.8 1.2 5.3-0.7 16.6a153 153 0 0 1-13.9 45.7l2.2-1a71.8 71.8 0 0 1 12.8-4.6l-5.2 1.5a78 78 0 0 0-7.5 2.8c-2 1-2 1-0.6-1.8a138.7 138.7 0 0 0 5.2-12.5l0.6-1.5c0-0.1 0.1-0.2 0-0.2l0.5-1.6a22.7 22.7 0 0 0 1-3.2l0.3-0.9v-0.3a41.7 41.7 0 0 1 1.7-6.4 110.8 110.8 0 0 0 2.2-9.9 27.2 27.2 0 0 0 0.6-3.5 27 27 0 0 0 0.6-3.5l0.1-1a48 48 0 0 0 1-7.3l0.2-2.2c0.4-2.8 0.2-4.3-0.8-5.3a25.6 25.6 0 0 1-2.1-2.4c-0.1 0-0.1-0.2 0-0.2l-2.6-2.8a36 36 0 0 1-4.4-5.3 29.6 29.6 0 0 0-2.6-3.2l-0.5-0.7a123.8 123.8 0 0 1-11.5-14.5 19.2 19.2 0 0 1-2.2-4.2l-0.2-0.8-0.4-1-0.6-1.3c-0.7-1.7-1-2.2-1.5-3.1l-0.4-1-0.6-1.2-0.7-1.3c0-0.9-2.3-2-3.4-1.6m-60.7 1.3c-0.7 0.5-0.9 0.7-1 2l-0.5 2.2a94 94 0 0 0-1.8 5.3l-0.5 1.5a19 19 0 0 0-0.8 2.1l-0.4 1.1a8 8 0 0 0-0.5 1.4l-0.5 1.4-0.3 0.9-0.2 0.4-0.3 0.9-0.2 0.5-0.6 1.4a94.3 94.3 0 0 1-5 11.5 153.5 153.5 0 0 1-7.7 15.5v0.3l-0.2 0.1c-0.1 0-0.2 0.1-0.1 0.2v0.2c-0.2 0-0.3 0.2-0.3 0.4s0 0.5-0.2 0.5a3 3 0 0 0-0.5 0.9 8.8 8.8 0 0 1-1.4 2.2c-0.3 0.3-0.5 0.5-0.4 0.6 0 0.3-1.9 2.2-3.4 3.4-1.6 1.3-2 2.1-1.7 3.5 0.1 0.6 0.3 1 0.4 1s0.1 0.1 0 0.2c0 0.1 0 0.2 0.2 0.2a14.4 14.4 0 0 1 2.6 4.8l0.2 0.5 0.8 1.8 0.2 0.4 0.4 1c0 0.3 0.3 1 0.6 1.5l1 2.4 0.4 1.2 0.3 0.6a49.1 49.1 0 0 0 4.1 9.9l0.3 0.8 1 2.3 0.2 0.5 0.4 1.2a29.2 29.2 0 0 1 1.3 3l0.7 1.6 0.3 0.7h-5.5a73 73 0 0 0 1.8 0.2h4l-0.8-2a208 208 0 0 1-4.4-10.5 446.3 446.3 0 0 1-5-12.4l-2.3-5.5c-0.5-1.1-1.2-2.6-1.6-3-1.1-1.5-1.4-2.2-1.4-3.2s0-1 3-3.8c2-1.8 3.2-3.6 7.4-11.7a245.4 245.4 0 0 0 17-41.8c0.5-2.9 3.8-3.4 3.8-0.6 0 2.6-1 12.6-1.8 19.3-2.5 18.7-2.3 23.5 2 48.7 2.2 13.7 5 29.3 5.4 29.5l1.7 0.5a116 116 0 0 1 27.8 10.8c5.9 3.2 7.2 4.3 6.3 5.2-0.3 0.3-0.7 0.3-1.7-0.1a161 161 0 0 0-0.3 0.1c1.5 0.7 2.4 0.5 2.4-0.6 0-0.6-0.9-1.7-1.4-1.7l-0.1-0.2-0.2-0.2-1.3-0.6c-2.2-1.5-8.1-4.5-11.5-6-5.6-2.5-5.5-2.5-10.5-4.1-2-0.7-6.2-2-9-2.7-2.4-0.6-2-0.3-2.4-2.3a208.8 208.8 0 0 0-2-10l-0.2-1.6a71 71 0 0 1-1.3-7.2 208.4 208.4 0 0 1-1.7-10 71.6 71.6 0 0 1-1.3-7.5 43.6 43.6 0 0 0-0.7-5 79.9 79.9 0 0 1-1-7.4 130 130 0 0 1 2-32.9l0.3-3.9c1-11.2 1-11.9-1-12.2-0.6 0-0.9 0-1.4 0.4m64.3 10.4 0.1 0.4c0.1 0 0.2-0.3 0.1-0.5-0.1-0.6-0.2-0.5-0.2 0m-67 8.7c0 0.1 0 0.4 0.2 0.6 0.1 0.3 0.2 0.2 0.2-0.3 0-0.7-0.1-0.8-0.3-0.3m79.6 9.9 1.2 1.2-0.5-0.6c-0.6-0.6-0.7-0.8-0.7-0.6m-80.9 1.9c0 0.4 0 0.5 0.1 0.3v-0.7 0.4m-0.2 2.8v0.4-1 0.6m-0.2 6.2v1.5a42.4 42.4 0 0 0 0-1.5m89.7-0.6 0.8 0.8-0.6-0.8-1-0.8 0.8 0.8m-89.5 6.2v0.5-1 0.5m95.3 2.2v0.4-1 0.6m-95.2 0.5c0 0.3 0 0.5 0.1 0.3v-0.7 0.4m73.4 3.9v0.4-0.9 0.5m0 11.9v0.7-1.5 0.8m-0.2 5.6v0.7-1.3 0.6m-0.2 5.9v0.6-1.2 0.6m-0.2 3.3v0.4-0.7 0.3m42.8 18.7a92 92 0 0 0-9.3 1.2 106 106 0 0 1 46.3 3.3c9 2.9 18.9 8 23.4 12.1 1.3 1.2 1.3 1.1-2.2 8.5-3.5 7-3.3 6.5-3 6.5 0.1 0 0.2 0 0.2-0.2l2.1-4.5c4.6-9.3 4.2-8.5 4-9.4-0.2-0.5-0.4-0.8-0.7-1-0.3 0-0.5-0.2-0.6-0.4 0-0.2-0.2-0.3-0.4-0.3l-0.5-0.3c-0.5-0.6-1-0.9-1.2-0.9 0 0-0.2 0-0.2-0.2 0 0 0-0.2-0.2-0.2 0 0-0.3 0-0.5-0.2-0.6-0.6-0.8-0.7-1-0.7l-0.4-0.4-0.9-0.5a85.6 85.6 0 0 0-20.5-8.9c-9.3-2.8-23.8-4.2-34.4-3.5m-107.5 0.5c0 0.1-0.1 0.3-0.3 0.3-0.3 0-0.3 0.1 0 0.1s0.5 0 0.5-0.2l-0.1-0.3-0.1 0.1m91.8 1.8c-0.7 0.1-1.1 0.3-1 0.3 0.2 0 1 0 1.7-0.3 1.6-0.4 1-0.5-0.7 0m-144.1 2.2a163.6 163.6 0 0 0-21 10.5l-1 0.7-0.8 0.6c0 0.2-0.2 0.3-0.4 0.3-0.1 0-0.3 0-0.3 0.2 0 0 0 0.2-0.2 0.2-0.1 0-0.3 0-0.5 0.2-0.6 0.6-0.8 0.7-1 0.7l-0.2 0.2c0 0.1-0.1 0.2-0.3 0.2l-0.9 0.6-1.4 1.1a20 20 0 0 0-2.5 2.6l1.6-1.4a100.8 100.8 0 0 1 30.6-17.3l-1.7 0.6m139 8.4c-5.6 0.4-14 1.6-15 2.1-0.2 0.1-1.1 1.6-2 3.3a47.5 47.5 0 0 1-6 8.8c-4.7 5.6-4.6 5.5-2.8 5.1 1.4-0.3 2.7-0.2 11 0.4 7.2 0.5 10.4 1 17.9 2.4a113.1 113.1 0 0 1 49 18.4 60.5 60.5 0 0 1 20.2 20.4 134 134 0 0 0 2.2 3.4 26 26 0 0 0 4.8-5.9c0.8-1.3 0.4-1.1-0.6 0.3l-1.3 1.8-0.4 0.7-0.4 0.5c-0.9 1-1.3 1.4-1.1 1.4s-0.5 0.7-0.8 0.8c-0.3 0-1.1-1.2-1.6-2.3l-0.7-1-0.9-1.4-0.7-0.9s-0.1-0.1 0-0.1 0.1 0 0-0.2l-0.9-1.2a69.4 69.4 0 0 0-24.4-20.6 130.2 130.2 0 0 0-25-10.7l-1.8-0.4-1-0.3-1.3-0.4a77.6 77.6 0 0 1-5-1l-1.1-0.3a229.5 229.5 0 0 0-11.2-2l-1.4-0.3-2.7-0.4a166.6 166.6 0 0 0-21.3-1.3l-0.5 0.2 0.6-0.7a26.8 26.8 0 0 1 1.7-2.2c-0.1 0 0.4-0.7 1.3-1.5l0.5-0.7 0.4-0.5a19.1 19.1 0 0 0 3.4-4.6 19.8 19.8 0 0 0 1.7-3l0.5-0.7v-0.2l0.1-0.2 0.4-0.6 0.4-0.7c0.1 0 0.2 0 0.2-0.2-0.3-1 1.2-1.6 6-2.3a98.6 98.6 0 0 1 39.1 1.4 83.2 83.2 0 0 0-29.6-2.6m-97.8 1.4a145.9 145.9 0 0 0-12.2 2.7c3.3-0.8 9.9-2.1 13.1-2.7 0.5 0 0.6 0 5 8.8l4.3 8.8a65.7 65.7 0 0 1-6 0.6 105 105 0 0 1-7.3 0.8 88.9 88.9 0 0 1-3 0.4 214.3 214.3 0 0 1-8.9 1.2 85.4 85.4 0 0 1-7.2 1.5 93.4 93.4 0 0 0-5.7 1.4 38.4 38.4 0 0 1-2.7 0.7 41.3 41.3 0 0 0-4.3 1.2 32.1 32.1 0 0 0-5.8 2 104.4 104.4 0 0 0-24.1 13.8 47.9 47.9 0 0 0-10.4 11.2l-0.8 1c-0.4 0.6-0.6 1-0.5 1.1l-0.1 0.1c-0.1 0-0.4 0.3-0.6 0.7l-0.6 0.7c-0.1 0.1-0.3 0.3-0.3 0.5 0 0.1 0 0.4-0.2 0.5a12 12 0 0 0-1.5 2.5c0 0.1 0 0.2-0.2 0.2s-0.7 1-0.6 1.2c0 0.1 0 0.2-0.2 0.2-0.1 0-0.2 0-0.2 0.2s-0.1 0.5-0.3 0.6l-1 1.6a94.4 94.4 0 0 1-2.8 5.5l-0.4 1-1.6 3.8a104.3 104.3 0 0 1-1.7 4.8 24.8 24.8 0 0 1-0.8 2.9l-0.3 0.9a20 20 0 0 1-0.5 2.6 40.2 40.2 0 0 1-0.8 4.3 39.8 39.8 0 0 1-0.6 4 136.2 136.2 0 0 1-0.6 5.6c-0.1 1-0.2 3.6 0 3.7v-1c0-3.5 1.4-13.3 2.6-18.2 2.6-11 8.7-23.2 17.4-34.2a73.1 73.1 0 0 1 26-19c13.2-6.1 30.3-10 51.8-11.8 4.6-0.4 5.3-0.5 5.2-0.7-1-2.1-9.1-18-9.4-18l-1.2 0.3m128.6 1.7 0.7 0.2h0.4l-0.4-0.2c-0.6-0.3-1.1-0.3-0.7 0m1.2 0.3 2.2 0.8a71.3 71.3 0 0 1 18.7 9l0.8 0.5 0.9 0.5 0.2 0.2c0 0.1 0.1 0.2 0.3 0.2l0.6 0.4 0.7 0.4s0.2 0 0.2 0.2l0.6 0.5 0.9 0.6 0.9 0.7 0.5 0.3c0.7 0.6 1 0.8 1.2 0.8l0.4 0.4c0 0.2 0.3 0.4 0.4 0.4 0.2 0 0.3 0 2.9 2.6a19 19 0 0 1 3.3 3.8l1.2 1.2c1.6 1.7 2.6 1.5 3.6-0.7a102.2 102.2 0 0 1 1.1-3c-2.8 5.7-2.8 5.7-6.2 1.6a78 78 0 0 0-35.4-21.4m-53.6 1.4-0.6 0.7 0.7-0.6 0.7-0.8-0.8 0.7m-92.6 0.1c-0.9 0.2-1.5 0.4-1.4 0.5 0.2 0 3.2-0.7 3.4-0.9l-2 0.4m-2.7 0.7-4.6 1.5a41.7 41.7 0 0 0 3.8-1c1.6-0.4 2.2-0.7 1.6-0.6a4 4 0 0 0-0.8 0.1m92.8 0.3c0.1 0.2 0.5 0.3 0.8 0.3h0.5l-0.5-0.1c-0.3 0-0.6-0.2-0.8-0.3-0.3-0.2-0.3-0.2 0 0m-104.9 3.8a74 74 0 0 0-26.4 18.2c-3.4 3.4-3.6 3.4-6.5-1.2a92.5 92.5 0 0 1-7.7-16.4 1 1 0 0 0-0.1 0.7l0.1 0.4 0.2 0.3 0.8 2a122.7 122.7 0 0 0 7.5 14.6c0.1 0.5 1.5 2 2 2.2 0.7 0.4 1.5 0 3.4-2a102.2 102.2 0 0 1 10.5-9.2c0.2-0.3 0.5-0.5 0.6-0.5l2-1.6 0.3-0.2 1-0.6 1.4-1 0.8-0.5c0-0.1 0-0.2 0.2-0.2s0.4 0 0.6-0.2a59.9 59.9 0 0 1 9.3-4.8m95.6 9.5h1c0.2-0.1 0-0.1-0.6-0.1h-0.4m-42.6 3.6h1.9l-1-0.1h-0.9m-5 0.3h0.9l-0.4-0.1h-0.5m45.8 0h1-1m-49.3 0.3h0.8l-0.5-0.1h-0.3m56 0h1-1m6.2 0h0.7-0.7m-65.2 0.3h0.7c0.1-0.1 0-0.1-0.4-0.1h-0.3m56.4 0h0.7-0.7m-59 0.2h0.7-0.7m72.8 0h0.9-0.9m3.2 0.2h0.7-0.7m-149 24.8-0.5 0.6 0.6-0.6c0.6-0.5 0.7-0.7 0.6-0.7l-0.7 0.7m-2.5 2.5-0.6 0.6 0.6-0.5c0.6-0.6 0.8-0.7 0.6-0.7l-0.6 0.6m246 4.7c-0.1 0.5 0 0.5 0.4 0.1 0.3-0.3 0.3-0.4 0-0.4l-0.3 0.3m1.4-0.1c0.8 0.3 4.6 8.7 4.5 9.8-0.1 1.8-2.4 4.7-5.4 7-1.8 1.3-1.8 1.1-0.9 3 2.6 5.7 6.3 19.7 7.2 27.2 0.7 5.9 0.9 20.8 0.3 26.7a133 133 0 0 1-7.7 33.4 28.9 28.9 0 0 1 1-2.2c-0.1 0 0 0 0-0.2 0.2-0.1 0.3-0.4 0.3-0.6a22.3 22.3 0 0 0 1-3 161.5 161.5 0 0 1 1.2-3.5 45.7 45.7 0 0 0 1.7-7l0.3-1.3a17.5 17.5 0 0 1 0.6-2.7 172.8 172.8 0 0 1 0.7-4.3 33.4 33.4 0 0 0 0.7-4.7l0.3-2.2a174.3 174.3 0 0 0-0.5-31l-0.2-1.4a38 38 0 0 0-1.4-6.4l-0.2-1a19.7 19.7 0 0 0-1-3.7l-0.3-1a34 34 0 0 0-2-6.7 20 20 0 0 0-0.8-2.4l-0.7-1.5c-1-2.4-1-2.4-0.2-2.7l0.6-0.6c0.2 0 0.4-0.1 0.6-0.4l0.4-0.4a28.2 28.2 0 0 0 3.9-4c1.1-1.2 1-3.2-0.2-5.7a22.1 22.1 0 0 1-1.3-2.7l-1-1.8c-1-1.8-1.2-2.2-1.5-2.1-0.1 0-0.1 0 0 0m-71.3 10.5-0.8 0.9 0.8-0.8c0.8-0.7 1-0.9 0.8-0.9l-0.8 0.8m-195.6 25.3c0 0.5 0 0.7 0.1 0.4v-1 0.6m44.7 7.3v0.8-1.6 0.8m-45.8 0.6c0 0.4 0 0.5 0.1 0.3v-0.6 0.3m-0.2 4.7v1.4a36.1 36.1 0 0 0 0-1.4m-4.4 2.4 0.1 5.6a40.5 40.5 0 0 0-0.1-5.6m4.2 3.5v0.5-1 0.5m0 3.5v0.7-1.5 0.8m270.5 1.4v1-1.8 0.8m-274.4 1a117.9 117.9 0 0 1 0.6 7.7l0.1 1.4a130.8 130.8 0 0 0 1.7 10.2c0.1 0.2-1.4-0.7-2-1.3a99.4 99.4 0 0 1-12.3-13.4c-0.1-0.4-1.7-2-2.4-2-1.7-0.4-2.6 0.5-3.2 3.3a66 66 0 0 1-0.6 3.2 5.7 5.7 0 0 1-0.5 1.9c0.3 0.3-0.7 3.5-2 6.3-1.5 3.3-1 5.6 1 5.6l1 0.4 0.8 0.3 1.2 0.4 1 0.3a13.7 13.7 0 0 0 2.5 0.7l0.7 0.2 1.5 0.4a35.9 35.9 0 0 0 3.9 1 22.7 22.7 0 0 1 3.1 1l0.7 0.1c0.2 0.2-3 0.1-4.2 0a113.3 113.3 0 0 0-6.7-1l-1.2-0.1c-5.8-1-7.7-0.6-7.8 1.5 0 1.1 0 1.2 2 3.4l1 1.7 0.8 1.3a15.7 15.7 0 0 1 1.4 2.8l0.1 0.5 0.2 0.7 0.4 1.7 0.2 1 0.2 1.4c0.3 3.3 0.5 3.9 1.3 4.3 1 0.5 2.2 0.2 3.9-1l0.7-0.5c0.2 0 0.2 0 0.2-0.2l2.4-1.5c0.2 0 0.4-0.2 0.4-0.3l0.3-0.1 0.3-0.2 0.1-0.2a10.7 10.7 0 0 0 2.6-1.7c0 0.1 0.3-0.1 1.4-1.1 0.8-0.7 1.4-0.8 0.8-0.1a9 9 0 0 0-1.5 2.3c0 0.1 0 0.2-0.2 0.3-0.2 0-0.3 0.2-0.2 0.3v0.2a11 11 0 0 0-1.7 2.9c-0.6 1.7-0.4 2.6 0.8 4a23 23 0 0 1 1.8 2.4 28.9 28.9 0 0 1 2.2 3l0.6 0.9 0.7 0.8c0.1 0.1 0.2 0.2 0 0.2l0.1 0.2 0.9 1.2c1.2 2 2.8 2.7 3.8 1.7 0.2-0.2 0.5-0.3 0.5-0.2 0.4 0.4 1.2-3.1 1.6-7.3a40.6 40.6 0 0 1 1-6.1l0.2-2.2c0.1-1.4 0.5-2.7 0.5-1.7l0.4 1.2 0.5 1.3c0 0.3 0.2 0.6 0.3 0.7l0.1 0.4 0.8 1.9a510.6 510.6 0 0 1 1 1.5c-0.7-1.6-1.8-4-2.3-5.6-1.3-3.2-1.3-3.2-1.6 0.4a44 44 0 0 1-0.5 3.8l-0.7 4.6c-0.6 5-0.8 6-1.6 6.9-1.2 1.3-2.3 0.8-4.3-2.1l-4-5.5c-3.8-5.2-3.8-5 0.1-11l2.1-3.1a95.2 95.2 0 0 1-12.3 8.3c-1.7 0.8-3 0-3-2.1a25 25 0 0 0-5.1-13.7c-1.7-2-1.8-2.5-1.3-3.6 0.7-1.2 1.5-1.2 9.5 0 4.5 0.6 9.2 1 11 1 1.7 0-0.3-0.7-8.7-2.9-11-3-11.5-3.3-9.5-7.5a34 34 0 0 0 3.1-11.2c1-4.8 3-5.2 5.5-1.3 2.7 4 9.7 11.5 12.8 13.5 1.8 1.3 1.8 1.3 1.2-1.8a162.5 162.5 0 0 1-2.1-17.5c-0.2-0.3-0.2-0.2-0.1 0.5m253.7 0.2h1-1m8 0h1-0.9m-11 0.2h0.6-0.7m13.9 0h0.7-0.7m2.5 0.2h0.7-0.7m-263 0.7v0.3-0.7 0.4m265.9-0.5h1.1-1.1m-265.8 3c0 0.3 0 0.5 0.1 0.2v-0.7 0.4m61.3 2.2h1-1m7.9 0h1.2-1.2m200.9 1.7v0.5-1.1 0.6m-0.2 4v0.3c0.1-0.3 0-0.6 0-0.8v0.4m-96.4 1 0.7 0.6 0.6 0.6-0.6-0.7c-0.5-0.6-0.7-0.7-0.7-0.5m-19 3.7-0.6 0.6 0.6-0.6c0.6-0.5 0.8-0.7 0.6-0.7l-0.6 0.7m34 3c-0.3 0.3-0.9 0.6-1.3 0.6l-0.9 0.2h0.7c0.6 0 2.5-1.1 2-1.2l-0.6 0.5m-36 5.5h0.8-0.7m-15.3 4.4a38 38 0 0 0 8.2 18c2.9 3.7 6.2 6.1 11.1 7.9 1.7 0.6 1.7 0.6 1.3-1a49.8 49.8 0 0 1 2.2-26l-3.6 0.2c-6 0.5-15.4 0.4-18.6-0.2h-0.6v1m127.5 20-0.3 0.6c0.2 0 0.8-1.2 0.7-1.3l-0.4 0.6m-1.5 2.7c-1.2 2.3-3 4.8-4.5 6.5l-1.4 1.6 1.4-1.5a34 34 0 0 0 4.9-6.9c0.8-1.6 0.5-1.4-0.4 0.3m-252.9 4.2c0.3 0.5 0.6 0.8 0.7 0.8s-0.6-1.2-1-1.4l0.3 0.6m4-0.5 0.7 0.7 0.6 0.5-0.6-0.6c-0.5-0.6-0.7-0.7-0.7-0.6m240 1-0.7 1 1-1c0.5-0.4 0.8-0.8 0.7-0.8l-1 0.8m-86.2-0.5h1.5-1.5m-156.9 1.3a18.7 18.7 0 0 0 5.3 5.2l0.8 0.6c1.5 1.4 2.6 2.2 3.8 2.8l1 0.7 0.3 0.2c0.2 0 0.3 0 0.3 0.2 0 0 0.3 0.3 0.7 0.4s0.7 0.3 0.7 0.4 0 0.2 0.1 0.1a47.9 47.9 0 0 0 11.5 5c0.4 0 0.8 0.3 1 0.3l1.1 0.4 1.3 0.5 0.8 0.3a16.2 16.2 0 0 0 3.2 0.9 31.5 31.5 0 0 1 2.6 0.6l2.8 0.7a94.7 94.7 0 0 1 6.9 1.1l1.1 0.2a275.8 275.8 0 0 0 24.7 2.9 2173.6 2173.6 0 0 0 25.8 2 87 87 0 0 1 10.5 0.9 2509.2 2509.2 0 0 0 14.1 1c7.4 0.6 19.6 0.8 34 0.5a220.2 220.2 0 0 0 32.5-3.2l6-0.9 7.5-1.2a54.3 54.3 0 0 1 5.4-1 142 142 0 0 1 5-1.2c0.8-0.1 1.2-0.2 1.8-0.5l0.7-0.2h0.3l0.8-0.2 2.1-0.8 1.3-0.4 0.7-0.3c0.1-0.2 0.3-0.2 0.3-0.1l0.9-0.4 1.2-0.5a3 3 0 0 0 1-0.4l0.7-0.4s1.2-0.4 3.2-1.4l1.8-0.8a104.6 104.6 0 0 0 17.5-10.6l0.6-0.7a103.5 103.5 0 0 1-34.8 17.4c-8.5 2.1-31.5 5.8-42.8 6.8-7.3 0.6-24.7 1.1-32.4 1a492.7 492.7 0 0 1-38.8-2.6 615.5 615.5 0 0 1-28.3-2.2c-25-2-40.4-5.4-52.7-11.5a55.2 55.2 0 0 1-15.9-11.7m139.8 7.9h1.2l-0.6-0.1h-0.6m-80.2 10.8h0.7-0.7m8 0.8h0.7-0.7m17.3 1.6h0.8l-0.4-0.1h-0.4m79.8 2.6h0.7-0.7m-2.8 0.2h0.8-0.8m-4.6 0.2h1.5-1.5" fill="#903222"/><path d="m187 12.4a643 643 0 0 0 3.9 27.9c1 7.8 1.3 10.2 1.4 18 0.2 7 0.2 7.1 0.2 2.3 0-2.8 0-5 0.2-5l1.7 1a442.7 442.7 0 0 0 16.9 10c0.2 0.6 2.2-12.2 2.5-16.6l0.2-2.4-1.6-2c-0.9-1.1-2.4-2.9-3.5-4a45 45 0 0 1-3-3.5 132 132 0 0 0-6.3-7.7 61.6 61.6 0 0 1-12.5-18m-67.9 10.6c-2.7 6.9-7 16.1-11.3 24.6a40 40 0 0 1-7.7 12.4l-1.8 1.8 0.6 0.9c0.7 1 1.9 3.7 5.1 11.5 1.6 4 1.6 4 2 3.4 0.4-1 4-5 7.8-8.6 5.1-5 6.3-6 6.5-6v-0.3c-0.3-1.3-1-6.2-1.3-9.5-1.1-9.8-1-17 0.5-28 0.6-4.5 0.6-4.6-0.4-2.2m73 46.1v1-2.1 1m-0.2 5.7v1a23.8 23.8 0 0 0 0-1m-0.2 4.6v0.6-1.2 0.6m-0.2 2.4v0.3-0.7 0.4m-0.2 2v0.4-0.7 0.3m-76.5 14.4h0.8-0.8m169.6 10.5 0.6 0.4 0.6 0.2-0.6-0.4-0.6-0.2m-156.5 3.6h1-1m-3.1 0.2h0.7l-0.4-0.1h-0.3m67.4 1.3-0.9 1s0.6-0.4 1.1-1c1.3-1.2 1.1-1.2-0.2 0m-70.2 0.7c0.1 0.4 0.3 0.7 0.4 0.6 0 0-0.5-1.3-0.7-1.3 0 0 0 0.3 0.3 0.7m136.2 6.2 0.5 0.5 0.6 0.2c0-0.1-0.2-0.3-0.6-0.4l-0.5-0.3m-124 10.1-1.1 0.2h1c0.7 0 1.2 0 1.2-0.2v-0.1l-1.2 0.1m45.4 0.2h0.7c0.2-0.1 0-0.1-0.4-0.1h-0.3m-49 0.3h0.8c0.2-0.1 0-0.1-0.4-0.1h-0.3m4 3.9h2c0.6 0 0.1-0.1-1-0.1h-1m-4 0.3h1.4c0.4 0 0.1-0.1-0.7-0.1h-0.7m59 0h1-1m-62.3 0.3h1.3l-0.6-0.1h-0.7m53.8 0h0.7-0.7m11 0h1-1m-67.4 0.3h1c0.2-0.1 0-0.1-0.6-0.1h-0.4m69.8 0h1-1m-72.4 0.2h0.8-0.8m75.2 0h1.2-1.2m-77.4 0.2h0.8-0.8m80.4 0h1-1m-82.3 0.2h0.7-0.7m84.7 0h0.8-0.8m-90 0.6h0.8-0.7m-63.7 25-0.7 0.8 0.7-0.7c0.7-0.6 0.8-0.8 0.7-0.8l-0.7 0.7m247.3 7.3 0.4 0.6-0.2-0.6-0.4-0.6 0.2 0.6m-250 12.2v0.4c0.1-0.2 0.1-0.6 0-0.8v0.4m0.2 4.5v1.3a31.3 31.3 0 0 0 0-1.3m0.2 5.2v1-1.8 0.8m-19.4 21.8c0 0.5 0 0.8 0.1 0.5v-1 0.5m-0.2 7.3v0.7-1.6 0.9m-0.4 3.2c0 0.4 0 0.5 0.1 0.3v-0.6 0.3m-4.1 1.6v0.5-1 0.5m4.3 2.3v0.6-1.2 0.6m248.2 0.9h1.2-1.2m11 0h0.8-0.9m-13.5 0.2h1-1m16 0h1-1m-17.8 0.2h0.7-0.7m20.4 0h0.9-0.9m6.2 2.8v1.5a42.4 42.4 0 0 0 0-1.5m-28.4-2.6h0.7-0.7m-3.3 0.4h0.7-0.7m-238.5 0.8c0 0.5 0 0.7 0.1 0.5v-0.9 0.4m0.1 2.8c0 0.7 0 1 0.1 0.6v-1.3 0.7m164.3 0.1h1.4-1.4m-107 1h2-2.1m14.9 0h2-2m-18.5 0.2h1.1-1.1m23 0h1.4-1.4m-25.7 0.2h1l-0.5-0.1h-0.5m29.1 0h1-1m-31.3 0.3h0.7l-0.4-0.1h-0.3m33.8 0c0.2 0.1 0.6 0.1 0.8 0h-0.8m-35.9 0.3h0.7l-0.3-0.1h-0.4m38.2 0c0.2 0.1 0.6 0.1 0.8 0h-0.8m2 0.3h0.7l-0.3-0.1h-0.4m1.8 0.3h0.7l-0.4-0.1h-0.3m-88.3 1.5c0 0.4 0 0.5 0.1 0.3v-0.7 0.4m269.3 0.8v0.7-1.5 0.8m-93.2 1 1.3 1.1-1-1.2-1.3-1.1 1 1.1m-22.5 0.6-1.3 1.3 1.3-1.3c1.3-1.1 1.4-1.3 1.3-1.3l-1.3 1.3m115.5 1.7v0.4-1 0.6m-0.2 2v0.4-0.7 0.3m-83.8 4.8c0.3 0.3 0.5 0.6 0.6 0.5l-0.5-0.6-0.7-0.4 0.6 0.5m-55.5 0h1-1m-10.4 5-0.8 0.8 1-0.9 0.8-0.9-1 1m124 44.2-0.3 0.3c0.1 0 0.5-0.1 0.7-0.3l0.3-0.2s-0.4 0-0.7 0.2m-181.6 6h0.7c0.2-0.1 0-0.1-0.3-0.1h-0.4m5.9 0.8h0.7-0.7m1.9 0.2h0.7-0.7m2 0.2h0.7-0.7m1.8 0.2h0.7-0.7m2 0.2h0.6-0.7m2 0.2h1-0.9m2.3 0.2h0.9-0.9m2.3 0.2h1-1m2.2 0.2h0.9l-0.5-0.1h-0.4m2.2 0.3h0.7l-0.4-0.1h-0.3m2 0.3h0.8l-0.5-0.1h-0.4m2 0.3h0.7l-0.3-0.1h-0.3m2 0.3h0.8l-0.4-0.1h-0.4m2.2 0.3h0.8l-0.4-0.1h-0.4m2.5 0.3h0.8l-0.5-0.1h-0.3m82 2.2h0.8-0.8m-2.5 0.2h0.8-0.8m-2.8 0.2h1-1m-3.5 0.2h1.4-1.4m-3.9 0.2h0.8l-0.4-0.1h-0.4" fill="#ab724b"/><path d="m105.6 164.4h1.2c0.4 0 0.1-0.1-0.6-0.1h-0.6m2.8 0h1-1m140 2.6h0.7l-0.3-0.1h-0.4m3.6 0h0.6-0.6m-138.4 1.8h0.9-0.9m131.5 3.2h0.7l-0.3-0.1h-0.4m-104.7 8.4 1 0.9-1-1-0.9-0.8 0.9 0.9m-52 0-0.7 0.6 0.7-0.6 0.6-0.6-0.7 0.6m-18.3 2.1-1.6 1.6 1.6-1.5m1.9 17h1.7-1.6m139.6 10.5c0 1 0 1.5 0.1 1v-2 1m65.2 0.9v0.3-0.6 0.3m-122.9 3.2v0.6-1.2 0.6m143.4 7.8v0.5-1 0.5m-16.8 2h2.1-2.1m-199.7 6 0.6 0.1c0.4 0 0.4 0-0.2-0.2h-0.3m4.2 0h0.6l-0.3-0.1h-0.3m15.9 0c0.2 0.1 0.6 0.1 0.8 0h-0.8m56.7 21.4h1l-0.5-0.1h-0.5m3.1 6.2c0 0.5 0 0.7 0.1 0.4v-0.9 0.5m31.5 26.3h0.9-0.9m-14.6 12.9h0.7l-0.3-0.1h-0.4m-13.2 12.4h0.8l-0.4-0.1h-0.4m7 0.3h1l-0.6-0.1h-0.4" fill="#9c947c"/><path d="m250 166.9h1-1m-137.7 1.7h0.7-0.7m2.7 0h0.7-0.7m112.4 11-0.6 0.7 0.6-0.5c0.6-0.6 0.8-0.7 0.6-0.7l-0.6 0.6m-1.4 1.3-0.6 0.6 0.7-0.6c0.6-0.5 0.7-0.7 0.5-0.7l-0.6 0.7m-149 29.3v0.8-1.6 0.8m77.1 1.9v0.3c0.1-0.2 0.1-0.6 0-0.8v0.5m0 3.5v0.3c0.1-0.2 0.1-0.6 0-0.8v0.5m-67.7 13.9h0.9l-0.4-0.1h-0.5m13.1 0h0.9-0.9m4.8 0.3h0.7l-0.4-0.1h-0.3m56.6 26c0 0.3 0 0.4 0.1 0.3v-0.7 0.3m27.3 17.5v0.4-1 0.6m5.7 10.2h0.8c0.2 0 0-0.1-0.4 0h-0.4m-24.6 25.4h1.3-1.3m19.6 0h1.6-1.6m-11.8 0.2h1.7-1.7" fill="#747470"/></g><path transform="translate(-44,-35)" d="m237.7 271.3c-1-0.1-2 0-2.8 0.4a36 36 0 0 0-12.9 12 47.3 47.3 0 0 1-2.7 3.5c0 0.2 5.3 0 9.2-0.3 12-1 21.3 2.3 26 9 1.1 1.8 1.2 1.5 0.3-2.3-2.8-12.4-10.4-22-17.1-22.3zm-27 35.7a60 60 0 0 0 4 14.4c3.5 7.2 9.3 7.9 18.7 2.1l2.2-1.3-3.1-0.1c-3.5-0.2-5-0.6-8.8-2.4-5-2.4-7.6-4.8-11.4-10.5-0.9-1.3-1.5-2.2-1.7-2.2z" fill="#ffbd1b"/></g></svg>
