<svg xmlns="http://www.w3.org/2000/svg" viewBox="0 0 400 400"><g fill-rule="evenodd"><path fill="#0d192b" d="M187.7 27.45a7.44 7.44 0 0 0-.42 2.2 66.7 66.7 0 0 1-.46 3.75 222.54 222.54 0 0 0-1.9 16.6c-.48 6.2-.26 23.33.44 33.98.79 11.9 3.52 31.94 6.25 45.8.31 1.62.93 5.09 1.36 7.72.8 4.87 1.73 9.72 2.27 11.79.37 1.46.26 1.54-.76.55a71.69 71.69 0 0 0-5.78-5.22c-.26-.2-.74-.62-1.07-.92a2.8 2.8 0 0 0-.75-.54c-.08 0-.3-.16-.5-.35-1.17-1.18-7.2-5.28-11.48-7.8-6.77-4-16.63-8.63-23.14-10.88-4.69-1.62-5.86-1.91-16.4-4.11-7.5-1.56-12.37-1.48-13.14.23-.12.25-.29.45-.38.45-.09 0-.16.31-.16.69 0 .88 1.27 2.24 2.1 2.25.6 0 7.53 3.4 9.23 4.52.59.39 2.1 1.33 3.37 2.1 1.27.75 2.48 1.54 2.7 1.74.21.2.7.53 1.07.73.37.2.67.43.67.5 0 .08.33.34.73.59.4.24.87.58 1.04.74.18.17.8.7 1.36 1.18a107.32 107.32 0 0 1 10.84 11.41l1.27 1.47a84.9 84.9 0 0 0 1.56 1.77c.37.42.94 1.08 1.27 1.48.32.4.72.87.9 1.04.17.17.61.7.98 1.2.78 1.02 1.2 1.52 2.12 2.53.38.41.95 1.08 1.27 1.48.32.4.85 1 1.17 1.34.32.33.73.82.9 1.1.67 1 5.81 6.32 7.83 8.1a66.01 66.01 0 0 0 4.44 3.64l1.87 1.41c.36.27.28.3-1.08.3-6.66.04-16.95 1.6-21.57 3.26l-2.25.78c-.48.16-1.06.37-1.27.46l-2.34.99c-2.8 1.16-7.53 3.81-9.09 5.09-.27.22-.86.62-1.31.9-.46.26-.84.54-.84.62 0 .07-.28.3-.63.5s-.81.53-1.03.72l-1.05.89c-1.5 1.22-2.05 2.43-1.53 3.43.75 1.44 1.38 1.53 4.76.66a87.61 87.61 0 0 1 15.7-2.27c3.4-.22 6.86-.52 8-.7l.69-.11-.63.55c-.34.3-.94.82-1.34 1.14l-1.15.98-1.77 1.56c-.73.64-2.28 2.1-3.44 3.22a139.94 139.94 0 0 1-5.23 4.84c-1.76 1.57-9.5 8.99-11.8 11.31a436.43 436.43 0 0 0-9.53 10.23 190.33 190.33 0 0 1-2.79 3.11c-.34.38-1.27 1.48-2.06 2.44-.8.97-1.58 1.9-1.75 2.08-.17.17-.7.78-1.19 1.35-.48.57-1.05 1.24-1.27 1.48l-1.2 1.38a84 84 0 0 1-1.27 1.44c-.25.28-.67.8-.94 1.14-.27.35-.66.84-.88 1.08-.22.24-.66.77-.98 1.17-.32.4-.78.94-1.01 1.2-.24.26-.68.8-.98 1.2-.3.4-.68.87-.84 1.05-.29.3-.81.95-1.7 2.08a219.54 219.54 0 0 1-3.09 3.84 151.45 151.45 0 0 0-3.32 3.93c-.32.4-.76.92-.98 1.16-.21.23-.6.72-.87 1.08-.45.6-2.36 3-2.97 3.72l-1.14 1.46c-.48.64-1 1.3-1.17 1.48-.16.17-.69.78-1.17 1.36a77.75 77.75 0 0 1-3.8 4.2l-1.69 1.78c-.17.2-.48.5-.68.67a72.03 72.03 0 0 1-6.51 6.03c-.58.54-4.19 2.88-5.45 3.55-3.84 2.03-2.25 5.6 1.76 3.96 1.4-.58 3.33-1.35 5.33-2.13.76-.3 2.2-.88 3.2-1.3 2.16-.9 2.2-.89 1.31.29-.37.49-.92 1.27-1.2 1.73-.3.46-.6.88-.67.94-.07.05-.45.58-.84 1.17l-1.72 2.54a68.46 68.46 0 0 0-5.06 9.9l-.3.69-.48-.49c-1.24-1.23-1.97-.95-2.63 1-.6 1.8-2.62 5.44-5.28 9.5-3.16 4.83-3.12 5.34.43 5.18.4-.02 1.45-.03 2.32-.02l1.58.02-.15 1.02c-.38 2.7.32 4.01 2.06 3.82 1.1-.13 1.4-.44 2.19-2.25.35-.8.66-1.48.7-1.51.03-.03.76.06 1.63.2.86.14 3.24.44 5.27.68 2.04.23 3.77.49 3.86.57.6.57-15.94 5.07-18.67 5.09-.97 0-1.11.75-.46 2.51.3.82.93 2.74 1.39 4.26 1.28 4.26 1.98 6.05 3.07 7.84 2.07 3.44 2.9 3.8 4.17 1.84 4.82-7.44 8.49-11.6 13.7-15.54 1.5-1.15 1.36-1.18 2.39.59.47.82 1.15 1.86 1.5 2.31.34.45.72 1 .83 1.23.12.22.34.52.5.67.14.15.73.84 1.3 1.53.57.69 1.47 1.7 2.02 2.26a48.95 48.95 0 0 0 3.34 3.3c.94.85 1.85 1.7 2.02 1.86.18.17.84.74 1.49 1.28a53.7 53.7 0 0 1 2.36 1.98c.43.42 5.12 3.91 6.28 4.69l2.26 1.47c.65.42 1.29.87 1.43 1.01.39.39 5.7 3.38 8.37 4.72 3.81 1.91 6.43 3.06 11.04 4.82a173.27 173.27 0 0 0 22.36 6.49c.65.14 2.89.58 4.98.97 2.1.38 4.65.87 5.67 1.07 13.32 2.67 30.27 2.8 54.68.38 10.5-1.04 21.76-3.1 29.3-5.36 3.97-1.2 5.7-1.74 6.54-2.05l2.93-1.07c7.9-2.9 23.21-10.54 29.2-14.56l3.1-2.06a40.4 40.4 0 0 0 3.15-2.24c.8-.56.76-.52 3.03-2.4a65.81 65.81 0 0 0 7.52-7.53c2.17-2.44 5.7-8.57 6.82-11.84.73-2.15 1.56-7.4 1.74-11.02.07-1.47.22-2.64.33-2.67.73-.2 7.26 11.52 8.28 14.88.46 1.5.82 2.14 1.4 2.47.65.37 1.74.47 1.74.15 0-.1.11-.2.25-.2 1.21 0 1.7-2.78 1.33-7.6-.35-4.53-1.15-8.25-3.43-15.83-.23-.77-1-2.96-2.14-6.05a91.1 91.1 0 0 0-5.39-11.04c-1.3-2.13-2.93-4.68-3.42-5.37l-3.12-4.4c-.43-.6-.93-1.3-1.11-1.53l-1.31-1.79a147.83 147.83 0 0 0-3.11-4.24 45.94 45.94 0 0 0-1.86-2.4c-.18-.18-.32-.39-.32-.47 0-.09-.2-.37-.44-.63-.24-.27-.81-.96-1.26-1.55a42.25 42.25 0 0 0-1.47-1.78l-1.23-1.44a59.03 59.03 0 0 0-2.8-3.19c-2.21-2.42-3.95-4.09-10.64-10.24-4.8-4.4-7.84-7.45-10.29-10.3l-1.36-1.6c-.27-.32-.8-.9-1.18-1.31-.37-.41-.94-1.07-1.26-1.47-.33-.4-.9-1.06-1.27-1.47-.38-.41-.95-1.08-1.27-1.47-.33-.4-.94-1.13-1.37-1.61l-1.13-1.3c-2.12-2.48-2.12-2.48-4.35-4.9l-2.28-2.47-.83-.91.16-3.33c.1-1.83.12-3.53.06-3.78-.36-1.43-8.75-5.88-12.95-6.86-1.02-.24-1.37-.44-2.27-1.33a56.03 56.03 0 0 0-2.08-1.92l-1.78-1.56a34.17 34.17 0 0 0-2.84-2.35c-.63-.48-1.2-.93-1.25-.99-.06-.06-.54-.4-1.08-.77a12.3 12.3 0 0 1-1.07-.77c-.06-.07-.4-.3-.75-.52l-.66-.41 1.34-.36a53.96 53.96 0 0 0 9.73-4.13c1.82-1.01 4-2.44 4-2.6 0-.1.16-.22.35-.28.19-.06.75-.48 1.25-.94a103 103 0 0 1 1.28-1.14c1.43-1.24 1.58-2.46.46-3.87-.89-1.13-.97-1.13-7.3-.23-14.02 1.98-29.62 3.5-29.62 2.9 0-.07.3-1.07.66-2.23 3.53-11.1 4.56-14.95 5.67-20.96 1.2-6.54 2.07-16.84 2.06-24.52 0-10.74-2.77-26.07-6.24-34.66a291.36 291.36 0 0 1-2.25-5.67 368.34 368.34 0 0 0-5.19-12.5 208.6 208.6 0 0 0-10.7-20.46l-2.62-4.2c-.62-.99-1.25-1.95-1.41-2.14-.16-.19-.75-1.07-1.3-1.95l-5.15-8.16c-.43-.68-.92-1.38-1.09-1.56-.16-.18-.62-.84-1-1.48-.4-.64-.89-1.37-1.1-1.6a9.86 9.86 0 0 1-.94-1.57 9.13 9.13 0 0 0-.68-1.21 5.7 5.7 0 0 1-.53-.91c-.72-1.42-2.13-2.1-2.77-1.34m4.15 10.82a232.3 232.3 0 0 1 3.63 5.6c1.27 2.04 3.46 5.46 4.85 7.6 5 7.74 10.74 18.39 13.35 24.81l2.3 5.57c6.59 15.82 8.55 22.56 10 34.37 1.66 13.53.02 33.04-3.8 45.12-.14.48-1 3.2-1.87 6.05-.88 2.84-1.86 5.79-2.16 6.54-.84 2.05-.42 3.81 1.03 4.41 1.24.52 9.61.21 16.45-.6 8.02-.95 14.56-1.78 15.62-1.96 1.58-.29 1.55-.17-.2.84-6 3.45-10.78 5.07-15.1 5.13-3.43.04-4.3.44-4.3 1.95.01.9.5 1.34 2.62 2.36 2.55 1.23 7.64 4.63 10.53 7.04l2.32 1.93-1.07.12c-1.27.14-1.47.25-1.74.92-.28.72-.6 14.76-.35 15.68l.2.7 2.58.12c4.77.21 7.94 1.8 17.22 8.66 3.06 2.25 3.24 2.1 3.1-2.63l-.08-3.26 1.1 1.17c.6.65 3.47 3.92 6.37 7.28a568.62 568.62 0 0 0 9.45 10.72c.45.57 4.22 4.14 11.13 10.55 6.89 6.38 10.76 10.81 17.3 19.8 5.34 7.32 6.36 8.75 7.88 11.08 5.93 9.06 9.5 17.92 12.14 30.13.06.26-.46-.46-1.16-1.6-4.71-7.81-8.26-11.21-10.14-9.73-.84.66-1 1.54-1.31 7.31-.42 7.46-1.35 11.44-3.67 15.64-5.16 9.32-12.66 15.86-27.39 23.88-22.91 12.47-37.46 16.54-68.26 19.07-10.94.9-26.42 1.11-32.52.44-16.5-1.83-33.68-5.91-46.78-11.1-15.88-6.3-33.37-19.56-39.74-30.15-3.8-6.32-6.16-15.18-5.24-19.66.22-1.06.2-1.17-.19-1.7-.3-.42-.4-.75-.31-1.16.26-1.3-1.12-2.46-2.37-1.99-2.7 1.03-8.45 5.58-9.97 7.9-1.57 2.4 1.4-5.47 4.04-10.67 1.3-2.55 2.1-3.74 10.27-15.37 2.2-3.11 1.86-5.19-.78-4.91-.2.02-1.35.56-2.56 1.2a25.8 25.8 0 0 1-2.37 1.15c-.09 0 1.37-1.56 3.25-3.47 3.69-3.75 4.69-4.9 9.54-10.98 1.76-2.2 4.31-5.33 5.67-6.94 1.35-1.6 3.73-4.5 5.29-6.44 8.7-10.83 24.6-28.85 28.9-32.76.57-.5 2.44-2.31 4.17-4 1.73-1.7 4.07-3.92 5.2-4.93 1.12-1 3.59-3.3 5.47-5.1 3.33-3.17 6.38-5.85 11.32-9.94 3.3-2.72 3.76-3.55 2.66-4.83-.59-.68-1.08-.68-7.54.02-2.42.27-5.71.58-7.32.7-5.25.37-7.59.59-9.73.9-2.67.38-2.81.31-1.4-.59 8.75-5.54 19.72-8.06 36.71-8.45 6.55-.14 7.13-.33 7.13-2.21 0-1.05-.42-1.48-1.9-1.95-6.3-2-12.94-7.3-21.14-16.9-4.04-4.73-7.08-8.27-11.24-13.08-8.05-9.33-12.7-13.36-21.14-18.36a22.28 22.28 0 0 1-2.52-1.6c.28-.28 12.67 2.63 16.28 3.83 16.77 5.54 32.3 15.24 45.43 28.37 6.44 6.44 6.47 6.46 7.63 5.3.68-.68.67-1.48-.05-2.82-2.1-3.97-3.84-10.56-5.68-21.66-.42-2.53-1.11-6.44-1.54-8.7-5.85-30.74-8.13-60.84-6.19-81.61.38-4 1.15-10.08 1.27-10.08.06 0 .7.87 1.42 1.93M177.12 191.3c-5.29 1-11.25 5.1-15.24 10.45l-1.1 1.46-.25 8.01c-.34 10.59-.34 10.43.02 10.65.44.28.54.24 1.11-.44 6.05-7.22 17.3-12.27 23.89-10.73 1.62.38 1.54.7 1.64-7.1.05-3.76.14-7.8.22-8.98.16-2.7.1-2.8-1.88-3.16-2.25-.41-6.65-.5-8.41-.16m3.56 31.37c-29.23 2.36-47.35 36.6-34.84 65.8 10.84 25.29 40.62 34.33 61.61 18.7.98-.74 1.8-1.3 1.83-1.28.02.03.24 1.02.47 2.2 1.14 5.73 4.5 11 8.51 13.34 4.5 2.62 8.36 2.1 15.65-2.1l.8-.47 2.42.81c7.1 2.38 10.72 2.12 10.72-.78 0-1.08-.63-4.14-1.18-5.75-.21-.6-.38-1.13-.38-1.16 0-.04.7.2 1.58.51 18.18 6.71 37.96-1.44 46.3-19.06 14.4-30.48-9.22-69.13-41.7-68.2-13.58.4-24.04 7.1-31.52 20.24-.1.17-.58-.46-1.48-1.96-8.52-14.2-23.23-22.1-38.8-20.84m6.15 3.7c29.75 2.57 45.81 39.3 29.03 66.37-16 25.78-51.43 24.12-65.34-3.07-13.99-27.36 2.97-61.66 31.33-63.37 2.22-.13 2.7-.13 4.98.07m73.84 3.19c25.3 5.37 40.94 35.55 31.12 60.08-7.26 18.15-26.88 26.3-44.7 18.57-1-.44-2.1-.8-2.44-.8-.53-.01-.7-.17-1.51-1.53-4.32-7.2-9.57-12.35-19.65-19.3-.3-.2-.26-.42.4-2.45a50.34 50.34 0 0 0-.18-31.38l-.88-2.61 1.08-2.18c7.04-14.27 21.7-21.6 36.76-18.4m-37.97 60.91 3.48 2.52c7.98 5.69 14.78 14.35 17.17 21.9.97 3.04.98 3.02-2.22 2.19-7.57-1.97-20.13-8.86-26.07-14.3l-1.26-1.16 1.7-2.12c2.45-3.06 6-8.66 6-9.48 0-.33.33-.2 1.2.45M92.36 306.64c.11.48.21.95.21 1.04 0 .14-1.26-.76-1.86-1.33L89.19 305l-1.3-1.15.99-.95a5.82 5.82 0 0 1 1.16-.95c.1 0 .28-.1.42-.25.15-.13.53-.43.85-.66l.58-.42.13 2.57c.07 1.41.23 2.97.34 3.45m122.67.87c3.19 2.56 7.15 5.03 13.24 8.23 1.21.63 2.2 1.2 2.2 1.27 0 .37-4.53 2.2-6 2.43-4.52.7-10.22-5.66-11.26-12.57-.16-.99-.24-1.02 1.82.64"/><path fill="#9bd3eb" d="M188.72 55.08c0 .37.04.53.09.34.05-.19.05-.5 0-.68-.05-.2-.1-.04-.1.34m0 13.86c0 .38.05.53.1.35.05-.2.05-.5 0-.69-.05-.18-.1-.03-.1.34m17.64 7.56c-2.76.36-4.38.86-8.8 2.74-4.86 2.07-6.87 3.4-7.53 4.98-.12.3-.3.55-.38.55-.1 0-.13.28-.08.63s.27 2.52.49 4.83a481.14 481.14 0 0 0 5.65 38.87c.33 1.67.9 4.92 1.28 7.23 1.8 11.12 3.35 17.08 5.65 21.9.94 1.96.81 2.95-.47 3.48-1.08.45-1.43.18-6.92-5.33-5.84-5.87-6.12-6.12-9.2-8.65-5.86-4.78-11.18-8.25-18.85-12.25l-2.38-1.25-1.2 1.2c-2.21 2.19-3.7 5.9-3.75 9.3-.02 1.12.02 2.1.08 2.15.07.05.6.66 1.2 1.36a215.2 215.2 0 0 1 3.8 4.5c1.39 1.66 2.57 3.07 2.64 3.12.07.05.82.93 1.67 1.95 6.48 7.78 15.6 14.85 20.25 15.7 1.62.3 2.36 1.87 1.52 3.21-.66 1.06-1.13 1.15-6.94 1.28-17.04.38-27.7 2.78-36.29 8.18-1.2.76-1.15.79 1.15.45 1.92-.28 4.26-.5 9.56-.9 1.5-.1 4.8-.4 7.32-.67 7.1-.75 7.52-.71 8.03.64.53 1.4.24 1.78-4.42 5.61a252.59 252.59 0 0 0-5.08 4.3 145.25 145.25 0 0 0-5.84 5.46c-.55.54-2.28 2.12-3.83 3.52a347.3 347.3 0 0 0-15.03 14.67 381.56 381.56 0 0 0-13 14.63l-5.53 6.43a106.82 106.82 0 0 0-3.25 3.93c-.1.12-.46.55-.78.96a866.69 866.69 0 0 1-9.33 11.33l-1.84 2.28-3.09 3.88a70.76 70.76 0 0 1-3.23 3.9 131.34 131.34 0 0 1-5.7 6.08c-1.72 1.75-1.69 1.77.72.48 2.59-1.38 3.63-1.41 4.3-.13.63 1.22.34 2.12-1.45 4.6-8.74 12.11-11.18 16.27-13.56 23.12-.85 2.43-.85 2.4-.15 1.63a25.05 25.05 0 0 1 7.06-5.84c2.6-1.57 2.95-1.7 3.85-1.32.72.3 1.33 1.4 1.13 2.04-.06.2.08.72.3 1.15.37.7.4.91.2 1.79-.54 2.55.15 7.2 1.86 12.52 2.95 9.15 11.6 18.6 25.57 27.91 3.84 2.56 10.74 6.48 10.92 6.2l.68-1.07c9.62-15.33 61.06-23.67 103.24-16.73 19.07 3.13 33.08 9.21 37.94 16.47.46.68.83 1.36.83 1.5 0 .4 10.38-4.9 15.8-8.07 9.76-5.73 16.93-11.99 21.1-18.42 3.63-5.62 4.8-9.7 5.29-18.37.25-4.45.47-6.1.92-6.88.75-1.27 2.09-1.41 3.3-.35.37.33.75.6.84.6.63 0 3.47 3.7 6.4 8.38a6.5 6.5 0 0 0 1.04 1.46c0-.11-.39-1.73-.86-3.6-2.83-11.17-6.65-19.52-13.17-28.8-5.02-7.14-11.83-16.19-13.83-18.36-.2-.22-.89-1-1.53-1.75-2.01-2.32-5.09-5.33-9.85-9.65a184.1 184.1 0 0 1-11.15-10.95l-1.76-1.96c-.16-.17-.77-.88-1.36-1.58-.6-.69-1.17-1.35-1.29-1.45-.12-.11-.9-1.03-1.75-2.06l-1.65-1.95c-.06-.05-.99-1.1-2.05-2.34a135.7 135.7 0 0 0-4-4.5l-.8-.87.14 2.73c.2 3.7.2 3.82-.32 4.24-.6.49-.5.53-2.96-1.25-10.04-7.23-12.77-8.58-17.36-8.58-3.02 0-2.96.18-2.72-8.08.3-9.78.2-9.32 1.77-9.53 1.32-.18 1.41-.05-2.05-2.83a60 60 0 0 0-9.25-6.02c-2.43-1.19-2.92-1.72-2.7-2.9.26-1.4 1.08-1.72 4.6-1.77 4.17-.06 8.64-1.55 14.42-4.8 1.64-.91 1.68-1 .33-.74-6.19 1.16-26.82 3.09-29.9 2.8-2.5-.25-4-1.8-3.44-3.6l1.5-4.46c5.41-16.02 7.32-27.2 7.39-43.2.06-15.83-3.44-29.92-12.4-49.95l-.54-1.22-3.28.03c-1.8.01-3.54.06-3.86.1m-21.2 114.83c1.04.16 2 .42 2.16.58.34.35.35.49.02 8.19-.13 3.22-.18 6.88-.11 8.13.16 2.79.37 2.63-3.24 2.54-7.65-.18-14.36 2.73-20.44 8.89-3.34 3.38-3.75 3.26-3.4-.98.1-1.2.25-4.72.32-7.84l.16-6.65c.04-1.15 1.4-3.09 4.04-5.7 6.52-6.5 12.1-8.45 20.5-7.16m4.4 31.44c12.54 1.83 23.81 9.75 30.47 21.42l.75 1.31.32-.53c2.75-4.69 3.99-6.37 6.63-9.05 20.76-21 55.9-10.4 67.65 20.44 5.8 15.2 3.49 33.44-5.64 44.6-10.45 12.77-26.25 17.23-41.69 11.76-1.3-.46-1.57-.5-1.47-.25.85 2.2 1.6 6.01 1.4 7.11-.47 2.44-5.39 2.43-11.72-.02l-1.54-.6-1.65 1a31.78 31.78 0 0 1-6.65 2.98c-7.54 1.95-15.32-5.38-17.13-16.14l-.12-.72-1.41 1.05c-27.88 20.85-66.1-1.42-66.05-38.48 0-4.71.1-5.77.9-9.86 4.54-23.22 25.33-39.17 46.94-36.02m63.62 6.28c.3.04.78.04 1.08 0 .3-.05.05-.09-.54-.09-.59 0-.83.04-.54.09m-4.68 26.56c.52.04 1.3.04 1.76 0 .45-.04.03-.07-.93-.07-.97 0-1.34.03-.83.07m-56.24 8.06c0 .7.03.99.08.64.04-.35.04-.92 0-1.27-.05-.35-.08-.07-.08.63m-12.12 4.24c.19.05.5.05.68 0 .19-.05.03-.1-.34-.1-.38 0-.53.05-.34.1m88.88 8.26c0 .7.03.99.08.64.04-.35.04-.92 0-1.27-.05-.35-.08-.07-.08.63m-91.8 1.47c0 .86.04 1.18.08.72.04-.46.04-1.16 0-1.56-.04-.4-.07-.02-.07.84m59.01 12.99c.64.64 1.2 1.17 1.26 1.17.05 0-.43-.53-1.06-1.18-.64-.64-1.2-1.17-1.26-1.17-.05 0 .42.53 1.06 1.18m-25 2-1.17 1.22 1.22-1.17c.67-.64 1.22-1.19 1.22-1.22 0-.14-.2.03-1.28 1.17m-27.92.93c.53.53 1 .97 1.06.97.05 0-.34-.44-.86-.97-.53-.54-1.01-.98-1.06-.98-.06 0 .33.44.86.98m.04 17.52c.35.04.97.04 1.37 0 .4-.04.12-.08-.63-.08s-1.08.04-.74.08"/><path fill="#fbfbf5" d="M190.43 36.96c0 .14-.14 1.17-.3 2.3-1.46 10.22-1.8 23.72-.97 39.55l.29 5.71c0 .44.34.26.57-.3.66-1.59 2.67-2.91 7.54-4.98 5.82-2.47 6.66-2.67 11.96-2.81a54.7 54.7 0 0 0 3.96-.18c0-1.38-8.47-17.24-12.66-23.71a908.06 908.06 0 0 1-5.16-8.09c-3.71-5.9-5.22-8.07-5.23-7.49m-56.14 87.23a65 65 0 0 0 2.82 1.74c7.7 4.6 12.5 8.93 21.06 18.95 1.68 1.96 1.67 1.96 1.7-.35.03-3.14 1.6-7 3.65-9.01a6.3 6.3 0 0 0 1.13-1.3c0-.37-9.92-4.74-14.09-6.19-4.53-1.58-17.04-4.53-16.27-3.84m47.55 102.32c-31.89 1.99-47.63 43.66-26.55 70.28 13.03 16.46 36.9 18.95 52.23 5.46 24.69-21.73 17.4-64.38-12.65-74.12-3.19-1.03-8.8-1.88-11.37-1.73l-1.66.1m66.7 2.91c-10.62 1.65-19.35 8.25-24.43 18.46l-1.13 2.27.9 2.71a49.6 49.6 0 0 1 .17 31.27l-.71 2.18 2.72 1.92c4.26 3 4.97 3.54 6.84 5.22a45.45 45.45 0 0 1 5.48 5.75l.83.97c.96 1.13 3.26 4.3 4.04 5.6.76 1.25.9 1.38 1.63 1.5a6.6 6.6 0 0 1 1.56.53c3.4 1.74 9.98 3.15 14.64 3.15 23.47-.03 38.78-23.81 31.77-49.4-5.73-20.89-25.3-35.08-44.31-32.13m-43.8 23.99c15.5 4.6 19.24 26.47 6.69 39.1-13.64 13.72-34.2 4.78-34.15-14.86.03-8.67 2.76-12.5 5.53-7.73 1.74 3 5.64 2.57 7.85-.84a9.34 9.34 0 0 0 .16-10.09c-1.96-3.17.01-5.14 6.15-6.12 1.69-.27 6.07.03 7.77.54m49 2.64c19.3 4.98 20.6 33.24 1.83 39.34-16.55 5.38-31.4-13.3-23.22-29.2 1.64-3.19 4.04-3.03 4.3.27.2 2.68 1.75 4.07 4.53 4.08 5.61.02 7.2-6.45 2.34-9.5-1.64-1.03-2-2-1.29-3.41.97-1.9 7.05-2.74 11.52-1.58m-57.27 70.65c-30.49 1.68-54.87 9.26-61.11 19-.78 1.2-.77 1.22.32 1.76 11.68 5.72 31.76 10.99 50.44 13.24 12.06 1.45 39.82.08 56.45-2.79 12.28-2.12 22.96-5.28 32.52-9.62 2.5-1.13 2.51-1.14 1.42-2.77-6.36-9.48-26.75-16.3-55.52-18.57-2.6-.2-21.8-.4-24.52-.25"/><path fill="#f7c83c" d="M220.63 291.9a48.17 48.17 0 0 1-5.21 7.83c-1.64 1.95-1.63 1.7-.14 3.13 5.96 5.68 21.98 14.04 27.88 14.56.85.07.85-.24-.02-2.87-2.25-6.76-9.22-15.87-15.77-20.6l-3.7-2.69c-2.1-1.52-1.91-1.57-3.03.64m-7.27 15.26c1.04 7.26 7.11 13.26 12.16 12 1.03-.27 4.74-1.95 4.74-2.17 0-.07-.9-.6-2-1.17-5.73-2.97-9.82-5.51-13.3-8.25l-1.74-1.36.14.95"/><path fill="#58594f" d="M188.53 56.84c0 .59.04.83.09.53.04-.3.04-.78 0-1.07-.05-.3-.09-.05-.09.54m0 10.35c0 .59.04.83.09.53.04-.3.04-.77 0-1.07-.05-.3-.09-.05-.09.54m.19 6.64c0 .37.04.53.09.34.05-.19.05-.5 0-.68-.05-.2-.1-.04-.1.34m37.9 50.88c0 .43.04.58.1.34.04-.25.04-.6-.01-.78-.05-.2-.09 0-.09.44m.01 3.51c0 .65.04.89.08.54.05-.35.05-.88 0-1.18-.04-.29-.08 0-.08.64m-74.67 9.96c.37.38.71.69.76.69.06 0-.2-.31-.56-.69-.37-.37-.7-.68-.76-.68-.05 0 .2.3.56.68m45.32 20.08c0 .04.28.32.63.64l.63.57-.57-.63c-.53-.6-.7-.73-.7-.58m-14.3 19.62c.67.04 1.77.04 2.44 0 .67-.04.12-.07-1.22-.07-1.34 0-1.9.03-1.22.07m37.3.77c.25.05.6.05.79 0 .18-.05-.02-.09-.45-.09-.42 0-.58.05-.33.1m-62.37 22.76-.77.83.83-.78c.77-.71.92-.88.77-.88-.03 0-.4.37-.83.83m-15.03 14.25-1.37 1.42 1.42-1.36c1.32-1.27 1.5-1.47 1.36-1.47-.03 0-.66.64-1.41 1.41m110.2 9.47c.25.05.6.04.79 0 .19-.05-.01-.1-.44-.1-.43.01-.58.05-.34.1m-69.74 1.17c.35.05.97.05 1.37 0 .4-.04.12-.07-.63-.07s-1.08.03-.74.07m99.47 7.15c0 .03.29.32.64.63l.63.58-.57-.64c-.54-.59-.7-.72-.7-.57m15.24 14.44c0 .03.68.72 1.51 1.52l1.51 1.46-1.46-1.51c-1.35-1.41-1.56-1.6-1.56-1.47M93.35 273l-1.65 1.7 1.7-1.65c1.6-1.54 1.8-1.76 1.66-1.76-.03 0-.8.77-1.7 1.7m138.67 24.96c.59.59 1.1 1.07 1.16 1.07.05 0-.38-.48-.96-1.07a9.78 9.78 0 0 0-1.16-1.07c-.06 0 .38.48.96 1.07m-22.18 2.3-.57.63.63-.57c.6-.54.73-.7.58-.7-.04 0-.32.28-.64.63m4.02 1.25c0 .1.37.54.83.96l.83.77-.78-.87-.83-.96c-.03-.05-.05 0-.05.1m-30.32 13.5c.35.04.88.04 1.17 0 .3-.05 0-.09-.64-.09s-.88.04-.53.09m39.94 4.48c.18.05.5.05.68 0 .19-.05.03-.09-.34-.09-.38 0-.53.04-.34.1m-.1 3.7c.24.05.6.05.78 0 .19-.05-.01-.09-.44-.08-.43 0-.58.04-.34.08m-115.59 4.8c.48.5.9.93.93.93.15 0 0-.18-.87-.99l-.93-.87.87.93m97.33 33.49c.3.04.78.04 1.07 0 .3-.05.06-.08-.54-.08-.59 0-.83.03-.53.08"/><path fill="#658193" d="M188.53 58.5c0 .43.04.58.09.34.04-.25.04-.6 0-.79-.06-.18-.1.02-.1.45m37.9 74.7c0 .38.03.53.08.34.05-.18.05-.5 0-.68-.05-.19-.09-.03-.09.34m-.2 3.32c0 .38.05.53.1.34.05-.18.05-.49 0-.68-.05-.19-.1-.03-.1.34m-39.15 41.35c.34.05.96.05 1.36 0 .4-.03.13-.07-.63-.07-.75 0-1.08.03-.73.07m-8.6.2c.25.05.6.04.79 0 .19-.06-.01-.1-.44-.1-.43.01-.58.05-.34.1m49.6.39c.25.04.6.04.79 0 .19-.05-.01-.1-.44-.09-.43 0-.58.04-.34.09m-57.52 6.25c.19.04.5.04.68 0 .19-.05.03-.1-.34-.1-.38 0-.53.05-.34.1m-14.65 1.36c.19.05.5.05.68 0 .19-.05.04-.09-.34-.09s-.53.04-.34.1m24.32 4.88c.24.04.6.04.78 0 .19-.05-.01-.1-.44-.09-.43 0-.59.04-.34.09m7.31 2.4c0 .38.05.53.1.34.04-.19.04-.5 0-.68-.05-.19-.1-.04-.1.34m-.19 2.73c0 .38.04.53.09.35.05-.2.05-.5 0-.69-.05-.19-.09-.03-.09.34m-.18 5.86c0 .6.04.84.08.54.04-.3.04-.78 0-1.07-.04-.3-.08-.06-.08.53m-26.55 4.7c0 1.01.03 1.43.07.92a14 14 0 0 0 0-1.86c-.04-.5-.07-.09-.07.93m26.53 2.15c0 .38.04.53.1.34.04-.19.04-.5 0-.68-.06-.2-.1-.04-.1.34m-4.58 1.9a9.8 9.8 0 0 0 1.57 0c.4-.04.02-.08-.84-.08s-1.19.04-.73.08m-22.16 1.52c0 .64.04.88.08.53.05-.35.05-.88 0-1.17-.04-.3-.08 0-.08.64m0 2.44c0 .59.04.83.08.54.05-.3.05-.78 0-1.08-.04-.3-.08-.05-.08.54m-.2 3.51c0 .38.03.53.08.35.05-.2.05-.5 0-.69-.05-.19-.09-.03-.09.34m91.51 6.98c.24.05.6.04.78 0 .19-.05-.01-.1-.44-.1-.43.01-.58.05-.34.1m2.83 0c.3.05.74.04.98 0 .24-.05 0-.09-.54-.08-.54 0-.73.03-.44.08m-112.87 43.61c0 1.13.04 1.59.08 1.02.03-.56.03-1.48 0-2.04-.04-.57-.08-.1-.08 1.02m-45.88 1.8-.77.84.83-.77c.46-.43.83-.8.83-.83 0-.15-.17 0-.89.77m202.71 3.46c0 .7.04.99.08.64s.04-.92 0-1.27-.08-.06-.08.63m21.09 28.42c0 .54.04.74.08.44.05-.3.04-.74 0-.98-.05-.24-.08 0-.08.54m-137.8 12.54c.24.05.63.05.88 0 .24-.05.04-.08-.44-.08-.49 0-.69.04-.44.08m3.71 0c.24.05.6.05.78 0 .19-.05-.01-.09-.44-.09s-.58.05-.34.1"/><path fill="#a5a49e" d="M189.1 47.66c0 .37.05.53.1.34s.05-.5 0-.69c-.05-.18-.1-.03-.1.35m-.19 2.34c0 .38.04.53.1.34.04-.19.04-.5 0-.68-.06-.19-.1-.04-.1.34m-.18 3.52c0 .59.04.83.08.53.05-.3.05-.78 0-1.07-.04-.3-.08-.05-.08.54m-.17 8.78c0 1.78.03 2.5.06 1.62.04-.89.04-2.34 0-3.23-.03-.88-.06-.16-.06 1.62m.18 8.98c0 .8.03 1.13.07.73.05-.4.05-1.06 0-1.46-.04-.4-.07-.08-.07.73m.19 5.08c0 .59.03.83.08.53.04-.3.04-.78 0-1.07-.05-.3-.08-.05-.08.54m.19 4.2c0 .53.04.73.08.43.05-.3.05-.73 0-.97s-.08 0-.08.54m.19 3.32c0 .43.04.58.09.34.04-.25.04-.6 0-.79-.06-.18-.1.02-.1.45m-40.67 50.73c0 .03.68.72 1.52 1.52l1.51 1.46-1.46-1.52c-1.36-1.4-1.57-1.6-1.57-1.46m4.69 4.9c0 .03.29.31.64.63l.63.57-.57-.63c-.54-.6-.7-.73-.7-.58m27.69 87c.24.04.63.04.88 0 .24-.05.04-.09-.44-.09-.49 0-.69.04-.44.09m5.27 0c.24.04.64.04.88 0 .24-.05.04-.09-.44-.09s-.68.04-.44.09m64.94 2.54c.3.04.78.04 1.07 0 .3-.05.06-.09-.53-.09-.6 0-.83.04-.54.09m3.91 0c.3.04.74.04.98 0 .24-.05 0-.09-.54-.09s-.74.04-.44.09m-97.04 8.3-.57.64.63-.58c.35-.31.64-.6.64-.63 0-.15-.16-.02-.7.57m72.57 1.03c-.47.48-.81.88-.76.88.05 0 .48-.4.96-.88.47-.48.82-.88.76-.88-.05 0-.48.4-.96.88m49.03 1.33c0 .03.28.32.63.63l.64.58-.58-.64c-.53-.59-.7-.72-.7-.57m1.38 1.37c0 .03.28.32.63.63l.63.57-.57-.63c-.53-.6-.7-.72-.7-.57m-54.83 23.57c0 .37.04.53.09.34.05-.19.05-.5 0-.68-.05-.2-.1-.04-.1.34m-3.9.2c0 .37.04.52.09.34.05-.2.05-.5 0-.69-.05-.19-.09-.03-.09.34m-76.72 4c0 1.51.03 2.1.06 1.32.04-.79.04-2.02 0-2.74-.03-.72-.06-.08-.06 1.43m80.85-.2c0 .97.03 1.39.07.94.04-.46.04-1.25 0-1.76s-.07-.14-.07.82m-3.91 0c0 .75.03 1.04.07.63.05-.4.05-1.02 0-1.36-.04-.35-.08-.02-.07.73m72.08 5.47c0 1.5.03 2.1.07 1.31.03-.78.03-2.01 0-2.73-.04-.72-.07-.08-.07 1.42m-72.3-1.56c0 .43.05.58.1.34.04-.25.04-.6-.01-.78-.05-.19-.09 0-.09.44m3.9.3c0 .37.05.52.1.33s.05-.5 0-.68c-.05-.19-.1-.03-.1.34m6.6 20.57c0 .03.29.32.64.63l.63.58-.57-.64c-.54-.59-.7-.72-.7-.57m-51.31 17.66c.3.04.73.04.97 0 .24-.05 0-.09-.54-.09-.53 0-.73.04-.43.09m4.2 0c.24.04.63.04.87 0 .24-.05.05-.09-.44-.09-.48 0-.68.04-.44.08m74.62.01a9.8 9.8 0 0 0 1.56 0c.4-.04.02-.08-.83-.08-.86 0-1.2.04-.73.08m-41.7 49.6c.18.05.49.05.68 0 .19-.05.03-.09-.34-.09-.38 0-.53.04-.35.1m-3.02.19c.24.05.63.05.88 0 .24-.05.04-.08-.44-.08-.49 0-.69.03-.44.08m-3.62.2c.3.04.78.04 1.08 0 .3-.05.05-.08-.54-.08-.6 0-.83.03-.54.08m-21 .2c.25.04.64.04.89 0 .24-.06.04-.1-.44-.1-.49 0-.69.04-.44.1m16.9 0c.29.04.77.04 1.07 0 .3-.05.05-.09-.54-.09-.6 0-.83.04-.54.08m-12.89.2c.51.04 1.35.04 1.86 0 .5-.04.09-.07-.93-.07s-1.44.03-.93.07m5.76 0c.57.04 1.49.04 2.05 0 .57-.04.1-.07-1.02-.07-1.13 0-1.6.03-1.03.07"/><path fill="#6c9cac" d="M189.7 87.9c0 .37.03.52.08.33s.05-.5 0-.68c-.05-.19-.09-.03-.09.34m36.73 35.25c0 .43.04.59.09.34.04-.24.04-.59 0-.78-.06-.18-.1.02-.1.44m.03 7.92c0 .9.03 1.28.07.82.04-.45.04-1.2 0-1.66-.04-.45-.07-.08-.07.84m-.22 4.2c0 .42.04.58.09.33.05-.24.04-.6 0-.78-.05-.19-.1.01-.09.44m-.2 3.03c0 .38.04.53.1.34.04-.19.04-.5 0-.68-.06-.19-.1-.03-.1.34m-52 24.9c.7.7 1.3 1.27 1.36 1.27.05 0-.47-.57-1.16-1.27-.7-.7-1.3-1.27-1.36-1.27-.05 0 .47.58 1.16 1.27m6 14.9c.36.03.93.03 1.28 0 .35-.05.06-.09-.64-.09s-.98.04-.63.08m-3.32.2c.24.04.6.04.78-.01.19-.05-.01-.09-.44-.09s-.58.05-.34.1m-2.64.19c.19.04.5.04.69 0 .18-.05.03-.1-.35-.1-.37 0-.53.05-.34.1m55.37 0c.25.04.64.04.88 0 .24-.05.05-.09-.44-.09-.48 0-.68.04-.44.09m-3.41.19c.18.05.5.05.68 0 .19-.05.03-.09-.34-.09-.38 0-.53.04-.34.09m-4.1.2c.4.05 1.06.05 1.46 0 .4-.04.07-.07-.73-.07s-1.14.03-.74.07m13.77 2.93c.25.04.64.04.88 0 .24-.05.05-.09-.44-.09-.48 0-.68.04-.44.09m-75.48 3.9c.18.05.5.05.68 0 .19-.05.03-.09-.34-.09-.38 0-.53.04-.34.1m-2.44.19c.24.05.59.05.78 0 .18-.05-.02-.1-.45-.09-.42 0-.58.04-.33.09m-3.13.2c.24.04.6.04.78 0 .19-.06-.01-.1-.44-.1s-.58.05-.34.1m5.4 13.38-.76.83.83-.77c.45-.42.83-.8.83-.83 0-.15-.17 0-.9.77m83.79 5.13c0 1.4.03 1.94.06 1.21.04-.73.04-1.87 0-2.54-.03-.66-.06-.07-.06 1.33m-.22 5.18c0 .59.04.83.08.53.05-.3.05-.78 0-1.07-.04-.3-.08-.05-.08.54m-96.16 1.5-.67.74.73-.67c.68-.63.82-.8.67-.8-.03 0-.36.34-.73.74m-1.47 1.46-.57.64.63-.57c.35-.32.64-.6.64-.64 0-.15-.16-.02-.7.57m99-.1c.29.05.73.04.97 0 .24-.05 0-.09-.54-.08-.54 0-.73.03-.44.08m-104.46 5.57-.57.64.64-.58c.34-.31.63-.6.63-.63 0-.15-.16-.02-.7.57m23.83.4-.57.63.63-.58c.35-.31.64-.6.64-.63 0-.15-.16-.02-.7.57m102.7.25c0 .43.04.58.09.34.05-.25.05-.6 0-.78-.05-.2-.1 0-.09.44m-83.7 3.56c.35.04.97.04 1.37 0 .4-.04.12-.08-.63-.08s-1.08.03-.74.08m67.1 2.72c.19.05.5.05.68 0 .2-.04.04-.09-.34-.09s-.53.05-.34.1m5.66 0c.2.04.5.04.69 0 .19-.05.03-.1-.35-.1-.37 0-.52.05-.34.1m-100.83 9.53a4.4 4.4 0 0 0-.76.88c.05 0 .48-.4.96-.88.47-.48.82-.88.76-.88-.05 0-.48.4-.96.88m56.84-.63c0 .04.28.33.63.64l.64.57-.57-.63c-.54-.6-.7-.72-.7-.58m.49 24.16c.42.43.8.78.86.78.05 0-.25-.35-.67-.78-.42-.43-.8-.78-.86-.78-.05 0 .25.35.67.78m50.1 3.03c.36.38.7.68.76.68.05 0-.2-.3-.57-.68-.36-.38-.7-.68-.76-.68-.05 0 .2.3.56.68m-121.03 4.79c0 .48.03.68.08.44.05-.25.05-.64 0-.88-.05-.25-.09-.05-.09.44m104.88-.2c0 .38.04.53.09.34.05-.19.05-.5 0-.68-.05-.19-.09-.04-.09.34m51.97 5.86c0 .7.04.98.08.63s.04-.92 0-1.26c-.04-.35-.08-.07-.08.63m-156.84-.2c0 .49.03.69.08.44.05-.24.05-.63 0-.88-.05-.24-.09-.04-.09.44m156.85 4.79c0 .64.04.88.08.53s.04-.88 0-1.17c-.05-.3-.08 0-.08.64m21.08 24.51c0 .49.04.68.09.44.05-.24.05-.64 0-.88s-.09-.04-.09.44m-223.63 1.47c0 .43.04.58.09.34.04-.25.04-.6 0-.79-.06-.18-.1.02-.1.45m58.75-.04c0 .03.28.32.63.63l.64.58-.58-.64c-.53-.59-.7-.72-.7-.57m164.7 2.48c0 .37.04.53.1.34.04-.19.04-.5 0-.68-.06-.2-.1-.04-.1.34m-132.61 10.29c.19.05.5.05.68 0 .19-.05.04-.1-.34-.1s-.53.05-.34.1m72.95 0c.67.05 1.77.05 2.44 0 .67-.03.12-.06-1.22-.06-1.34 0-1.9.03-1.22.07m-16.21 6.44c.34.04.92.04 1.27 0 .34-.04.06-.08-.64-.08s-.98.04-.63.08"/><path fill="#446cb4" d="M197.75 252.94c-1.78.18-4.53.94-6.1 1.68-1.79.85-2 2.43-.59 4.56 1.91 2.9 1.74 6.85-.44 10.11-2.21 3.32-6.1 3.71-7.82.8-4.75-8.1-7.68 8.83-3.12 18.02 8.27 16.66 31.06 13.41 37.68-5.36 5.52-15.66-4.77-31.3-19.6-29.8m48.5 2.91c-1.66.28-3.13.8-3.6 1.26-1.03 1.04-.71 2.9.64 3.6 3.41 1.76 4.33 5.95 1.82 8.3-3.36 3.15-8.57 1.65-8.6-2.46 0-1.49-.75-2.5-1.85-2.5-2.4 0-4.87 7.58-4.38 13.4 1.28 15.18 17.6 23.7 29.81 15.58 13.39-8.9 11.05-30.1-3.98-36.11a20.82 20.82 0 0 0-9.86-1.07"/></g></svg>