<?xml version="1.0" encoding="UTF-8"?>
<!-- Created with Vectornator (http://vectornator.io/) -->
<svg clip-rule="evenodd" stroke-linecap="round" stroke-linejoin="round" stroke-miterlimit="10" version="1.1" viewBox="0 0 2048 2048" xml:space="preserve" xmlns="http://www.w3.org/2000/svg" xmlns:xlink="http://www.w3.org/1999/xlink">

<clipPath id="ArtboardFrame">
<rect width="2048" height="2048"/>
</clipPath>

<g transform="matrix(5.0877 0 0 5.0877 -46.859 84.942)"><path d="m156 18c-8.5 1.2-13.7 8.8-11.2 16.3a35.5 35.5 0 0 0 3.7 7.1 18 18 0 0 0 1.9 2.1l1.3 1.3h-5.4c-8.6 0-13 1.2-18.9 5-6.2 4.2-8.6 10.1-6 15.4 3 6.8 13.2 10 26.4 8.1 0.6 0 0.4 0-1.8 1.4a74.4 74.4 0 0 0-12 8.5 21.7 21.7 0 0 0-2.6 2.2 38.3 38.3 0 0 0-3.8 3.2 139.5 139.5 0 0 1-3.6 3.2l-2.6 2.4a490.4 490.4 0 0 0-17.2 17.6l-1.4 1.6a371.6 371.6 0 0 0-12 14.8 41.7 41.7 0 0 0-3.1 4.2l-1 1.4a990.4 990.4 0 0 1-7.8 11.9 287.8 287.8 0 0 0-8 13.2 169 169 0 0 0-12.2 28.5 594.2 594.2 0 0 1-1.6 5.7l-1 3.5c-2.7 11-4 23-4 37.4v8.3l-0.5-0.4a61.2 61.2 0 0 1-6.3-6.7c-0.8-1-4.4-6.7-5-8-1.8-3.4-3.6-3.2-6 0.5a27 27 0 0 1-1.8 2.5 18.7 18.7 0 0 0-1.9 2.4l-0.5 0.8a18 18 0 0 1-1.5 1.8c-1.8 2.1-1.5 2.8 2.3 6a189.8 189.8 0 0 1 2.7 2.1l1.3 1 1 0.8a53.4 53.4 0 0 0 13.7 6.8 52.8 52.8 0 0 1-22.3-8.6c-1.1-1.1-4-2.5-5.1-2.5-0.9 0-2.3 1-2.3 1.6l-0.2 2a588 588 0 0 0-1.4 13.8c-0.2 1.7 0.4 2.8 1.8 3.1a102.5 102.5 0 0 0 20.8 1l-1.2 0.6c-1.2 0-7.4 3.7-10 6l-1.4 1.3c-1.6 1.4-1.3 3.3 0.7 6 1.2 1.4 2.5 3.3 3 4.2 1.8 3 3 3 5.3-0.3a35.3 35.3 0 0 1 2.8-3.7c3.4-4.4 8.8-7.8 13.6-8.6 1.6-0.3 1.6-0.3 2 1a117.9 117.9 0 0 0 6.3 21.2l1.4 3.3a129.3 129.3 0 0 0 33 45.6 54.8 54.8 0 0 0 5.6 4.4c0 0.2 0.4 0.4 5.6 3.9a160.1 160.1 0 0 0 39.2 19c7.6 2.6 14.8 4.4 28.4 7.1a505.8 505.8 0 0 0 37.9 5.8 150.2 150.2 0 0 0 30.2 0.7 102 102 0 0 0 21-4.1 123.7 123.7 0 0 0 14.1-4.3c0.7-0.3 8.3-3.4 9.6-3.8a80.8 80.8 0 0 0 20.6-11.6l1.6-1.1 1.5-1c0-0.2 0.8-0.7 1.6-1.2l1.5-1 1.5-1.1a42.7 42.7 0 0 0 6.4-4.6l1-0.8 1-0.9a261.9 261.9 0 0 0 25.3-25.7l0.6-0.7 1.1-1.5a101.7 101.7 0 0 1 4.2-5.7 131.4 131.4 0 0 0 24-60.8c2.4-17.7 0-45.8-5.5-63.7a181.5 181.5 0 0 0-69.4-93.3l-1.8-1.2a238.2 238.2 0 0 0-38.2-21.6 190 190 0 0 0-38.7-9.7c-7-1.2-9-1.3-18.6-1.3h-8.7l-0.8-2.8a54.8 54.8 0 0 0-13-23.4l-1.5-1.7c-8.7-9.7-18.8-14.5-27.7-13.2m6.5 4c13.4 2.8 27.6 19 33 37.6 0.9 3.3 0 3 8.4 3 10.1 0.1 14.4 0.4 20.4 1.4 29 4.7 41.9 9.3 65 23.2a182.7 182.7 0 0 1 59 54.7c19 28.8 26.6 51.1 28.4 83.6 1.8 33.6-8.3 64-30.5 91.8-6 7.4-17.8 19.4-25 25.1a307.1 307.1 0 0 1-25.9 17.6 153.7 153.7 0 0 1-37.4 13.5 53 53 0 0 1-13 2.4l-6.7 0.7a78 78 0 0 1-13 0.2 516.4 516.4 0 0 1-66.1-10.8c-28.2-7-56.2-23-71.6-40.9-21.6-25-32.1-55.9-31.7-93 0.4-36.2 10.7-64.4 36.5-99.7 15.7-21.5 41.8-47 54.7-53.5l4-2.2a82.8 82.8 0 0 1 17.1-7.8c1.9-0.6 2.5-2 1.4-3.2-0.6-0.7-1.7-0.6-4.4 0.3l-4.7 1.1-6 1.2c-18.1 3.8-30.2 0.8-30.2-7.5 0-9.4 19.8-15.7 33.3-10.6l3.1 1.2 3.6 1.6c2.6 1.5 9 4.7 11.6 5.9 2.6 1.1 3.8 0.8 3.8-1 0-1-0.7-1.5-6.7-4.4-17-8.5-22.7-13.3-24.7-20.9-1.8-7 5.5-12.5 14.3-10.6m30.3 172.5c-0.6 0.6-0.5-0.5-3.5 20.3-2.5 17.2-2.5 17.9-2.2 18.5 0.4 1 0.3 1 13.5 2.5a702 702 0 0 1 11.7 1.5l-0.3 1.6a26.3 26.3 0 0 0 19.8 32.3c0.4 0 0.5 0.2 0.4 0.3-4.9 6.1-7.4 10.2-10 16-2 4.6-1.8 5.4 1.7 5.2l5.4-0.2 3.5-0.2 0.8 1.3c4.7 8.6 24.2 28.4 27.7 28.4 6.5-0.1 27.7-14.5 34.5-23.5l0.5-0.6 3.6 0.6c9.4 1.8 17.2 3.7 24 6 5.7 2.1 6.1 1.8 5.3-4.6-1.4-10.9-12.3-25-25.9-33.6-1-0.7-1-0.7 0.1-1.4 3.5-2.3 6.2-6.6 7.5-11.8a31.1 31.1 0 0 0-0.8-11.8l15.7-0.8c8.3-0.3 8.5-0.3 9-1 0.8-0.8 1 0.6-5-26.6-2.3-10.5-2.4-11-3.3-11.4-0.7-0.2-0.5-0.3-14.9 3.8l-46 12.9-3 0.8-34-12.4c-35.3-12.8-35-12.7-35.8-12m35.8 44.7 12.6 1.5s0 0.3-0.4 0.7c-3 4 0.5 9.6 6.3 9.6 4.8 0 7.4-4.3 4.8-8.1-0.3-0.5-0.4-0.7-0.2-0.8l11.5 1.5c0.3 0.3-0.2 2.7-0.7 4.2-0.8 2.2-0.9 2.3-2.6 3a68.7 68.7 0 0 0-23.5 16.1l-1 1.2-2-0.3c-13-2-20.9-14.4-18-28 0.2-1.2 0.5-2.2 0.6-2.2l12.6 1.6m78.2 3.1c2.8 7.5-0.2 17-6.4 20.3l-1 0.6c-0.3 0.2-1-0.1-3-1.3-9.2-5.3-20.3-9.8-30.2-12.4l-0.8-0.2 0.4-1.2 0.5-3.1c0-2.3-0.1-2.1 2.9-2.2 2 0 2 0 1.9 0.4-0.8 2.5-0.4 4.3 1.3 5.9 4.5 4.4 12.8-0.3 10.8-6l-0.1-0.8c1.3-0.2 19.3-1 21-1l2.3 0.1 0.4 1m-38.7 11.2c30 8.8 54.6 28.4 57.5 46 0.4 2.3 0.5 2.2-1.7 1.4a143 143 0 0 0-27-6.7l-10.3-1.8c-12-2.2-25.9-3.3-41.2-3.3-3.3 0-8-0.1-10.6-0.3h-7c-2.8 0.2-2.7 0.4-1-2.9a68.6 68.6 0 0 1 36.9-33c1-0.3 1.7-0.2 4.4 0.6m-214.1 6.8c0 0.2-0.2 0.2-0.9 0.2-1 0-1 0-0.4-0.3s1.2-0.2 1.3 0.1m197.7 32.3c14.3 0.4 23 1.2 33.2 3 8.7 1.6 8 1.2 6 3.3a92 92 0 0 1-28.2 19.1l-1.6 0.6-1-0.7a178 178 0 0 1-23-25.2c-0.1-0.4 3.5-0.4 14.6-0.1" fill="#040404" fill-rule="evenodd"/><g><path d="m220.9 290.4c-0.1 0.3-1.3-0.1-2.7 0a87.8 87.8 0 0 0-46.9 20.8c-1.2 1-3 1.8-3.5 2.3-0.6 0.5-1.9 2.4-2.6 3l-1.2 1c-0.4 0 0.6-6.4 1-8.9 0.6-2.5-1.7-4.5-4.1-3a58.6 58.6 0 0 0-15.1 14.6l-3.7 4.5c-1.2 1.5-2.4 2.8-3 3.7-0.7 1-0.8 1.6-0.9 1.6-0.2-0.2-0.8-9.9-0.7-11 0.5-6-8 4.9-18.3 18.2a45 45 0 0 0-5.3 9.3c0 0.9 15.2 8.7 24 12.3 18.3 7.5 45.2 13.2 80.8 17l6.3 0.8a82.1 82.1 0 0 0 20.7-1 48 48 0 0 0 12.1-2.2l4.8-1.3a101 101 0 0 0 19.3-6.2c13.5-5.4 14-5.8 31.7-18a136.5 136.5 0 0 0 14-11.1l1.8-1.7 0.5-0.5 0.1-1.4c-1.5-3.3-3.6-5-5-4-0.5 0.2-0.5 0.6-0.8 0-1.5-5-7.6-12.9-9.8-13.2-1.5-0.3-2.2 0.6-2.5 4.2l-0.3 2.1-1-1.7a91.2 91.2 0 0 0-14.7-17.9l-2.3-1.4-1.5 1.5a88 88 0 0 1-27 18.4c-3.4 1.4-4.2 1.3-6.7-0.4a143.2 143.2 0 0 1-22-22.8 40 40 0 0 1-3.3-5c-0.1-0.5-2.8-0.5-8.8-0.1-2.5 0.2-3.5-0.5-3.5-2 0 0 0.4-1.3 0.2-1z" fill="#bfd5d7"/><g fill-rule="evenodd"><path d="m156.9 21.8h0.7-0.7m3.4 0h0.9-0.9m-10.1 3.2-0.7 0.7 0.7-0.7c0.7-0.6 0.9-0.8 0.7-0.8l-0.7 0.8m28.8 6.8 1.9 1.8-1.7-1.8-1.8-1.7c-0.1 0 0.6 0.8 1.6 1.7m6.5 7.8 0.6 0.6-0.4-0.6-0.5-0.5 0.3 0.5m-40.2 9h1.5l-0.8-0.1h-0.7m-3.2 0.3h1l-0.5-0.1h-0.5m7.3 0h1.3-1.3m22.5 4.2 0.9 0.4-0.5-0.4-1-0.3 0.6 0.3m-45.2 2.4-1 1 1-1c1-0.8 1.1-1 1-1l-1 1m-2.4 5.5v0.6-1.2 0.6m74.7 1.8h1.2-1.2m15 0.4h1.5-1.5m3.1 0.2h1-1m2.3 0.2h0.8-0.8m-72.8 6h0.7-0.7m-2 0.3h1l-0.5-0.1h-0.4m142.6 16.5c0.2 0.2-0.5 0.3-2 1.8-16.2 17-7.2 46.3 18 52.4 11.7 2.9 28-2.2 35.8-9 0.5-0.5 0.5-1.2 0.7-1.1l-1.3-1.7a179.3 179.3 0 0 0-36.5-33 173 173 0 0 0-14.7-9.4m-158.8 6.9-0.7 0.8 0.8-0.7c0.6-0.6 0.8-0.8 0.6-0.8l-0.7 0.7m-1.5 1.3-0.5 0.6 0.6-0.5 0.6-0.7-0.7 0.6m-2.2 2-0.8 0.9 1.8-1.8-1 0.9m-3 2.8-1.2 1.3 1.3-1.3m-9.4 9.4-1.3 1.3 1.3-1.3c1.3-1.2 1.5-1.4 1.3-1.4l-1.3 1.4m-2.5 2.5-0.5 0.6 1.2-1.2-0.7 0.6m-1.8 2-0.7 0.8 0.8-0.7 0.7-0.7c0-0.2-0.2 0-0.8 0.6m-2.8 3.3-0.6 0.6 0.6-0.6 0.7-0.6c0-0.2-0.2 0-0.7 0.6m88.5 38.4c0 0.4 4.9 3.5 8.6 5a47 47 0 0 1 9.1 4.8c6.9 4.4 17.1 9 27.2 13.2a73.3 73.3 0 0 0 62.5-2.2 69.2 69.2 0 0 1 15.7-5.7c3.6-0.9 5.9-2.1 6.1-2.3s-2.8-1.4-3.4-1.3c-0.3 0-2-0.5-4.2-0.4a69 69 0 0 0-22 3.4c-23.7 7.7-31.6 8.4-52.4 0-2.6-1.2-7.2-2.9-9.8-3.8-4.5-1.4-8-2.5-11.8-4.2a58.7 58.7 0 0 0-9.7-3l-5.8-1.8a39.8 39.8 0 0 0-9.8-2.3m168.3 12.4 0.3 0.7c0.1 0.3 0.3 0.4 0.3 0.3l-0.3-0.7-0.3-0.3m-281.9 6.3c-9.9 1.8-9.9 25.4-1 29.8 9 4.5 24.6-12.7 19.7-21.4-2-3.5-14.8-9-18.7-8.4m96.5 7.4c-0.2 0.3-0.2 2.1 0.2 2.3 0.3 0.1 2.5-0.1 3.2 0.2s1.5 1 1.7 1c0.4 0 4 1 7 2 1.2 0.2 4.1 2 6.5 3 2.4 0.9 5.5 1.2 6.9 1.7 3.4 1.2 4.3 3 9.1 5.3 2.9 1.4 5.5 1.5 8.8 2.7 2.5 0.8 6.5 2.1 8.7 3 3.9 1.3 6.9 1.8 15.4 3.8l7 1.4a70 70 0 0 0 20.6 2.8c6.3 0 6.9 0.3 12.5-0.6 1.5-0.2 5-1.2 8.5-2.1l4-1a50 50 0 0 0 4-1c1.4-0.5 4.2-1 6.3-1.6a853 853 0 0 0 26-8.8c2.4-0.9 6.2-1.5 7.6-2 1.3-0.5 3-1.6 4.5-2.1 2.5-0.8 7.2-4.1 8.1-4.8 0.6-0.4-0.5-1.6-1.9-1.3-0.6 0-2.9 0-5.7 0.3-4.5 0.5-7 0.8-15.5 2.1l-5.7 1.2c-41.5 9.5-56 10.2-74.4 6.8-14.6-2.7-18.8-3.2-24.9-4.9-7-2-16-6-19.5-6.7-1.9-0.4-5.4 0.3-9-0.6-3.7-1-7.4-2-8.8-2.1l-9.1-1.8c-0.4-0.1-2.2 1-2.3 1.3m-66.7 4.3c-12.6 1.8-20.8 24.8-12.7 37.2 10.7 16.2 37.4 9.9 38.5-8.4 0.7-13.4-13.7-30.5-25.8-28.8m-51.7 19.7c-5 25.5-3 56.8 5 79.8 2.9 8 8.6 20.2 9.4 19.8 15.3-3 23-17 27.7-31.3 10.4-32.6-9.8-67.7-39.7-70.2-1.3 0-1.7-0.2-1.8-0.4l-0.6 2.3m317.1 9c0 0.5 0 0.7 0.1 0.4v-0.7 0.4m0.1 2c0 0.4 0 0.5 0.1 0.3v-0.8 0.4m0.1 2c0 0.4 0 0.6 0.1 0.3v-0.7 0.4m0.1 2.3c0 0.6 0 0.8 0.1 0.5v-1 0.5m0.1 2.6c0 0.6 0 0.9 0.1 0.5v-1.1 0.7m0.1 3.2c0 0.8 0 1.1 0.1 0.7v-1.4 0.7m0.1 4.3c0 1.1 0 1.6 0.1 1v-2 1m-186.4 5.6h0.7-0.7m1.5 0.2h0.7-0.7m5.4 3.2c-12.5 25.5 4.2 48 29.4 39.8l1.7-1.5 1.6-2 2-2.6c0.3-0.5 0.3-0.5-0.2-0.6a26.3 26.3 0 0 1-19.8-32.3l0.3-1.6-12.6-1.6c-0.2 0-1 0-1.8 1.7m178.8 1.8c0 1.1 0 1.6 0.1 1v-2.3 1.2m-46 1.2h1.5l-0.9-0.1h-0.7m-4.2 0.3h1.9l-1-0.1h-0.9m-4.3 0.3h1.9l-1-0.1h-0.9m-8.8 0.3-3.3 0.3 0.5 1.9c0.6 2.2 0.8 8 0.3 10-1.3 5.1-4 9.4-7.5 11.7-1.2 0.7-1.2 0.7 0 1.4a110.8 110.8 0 0 1 9 7c-0.1-0.3 0.3 0 1-1 7-9.4 10.8-21.6 6.9-29.4l-2.4-1.9h1.3a115.5 115.5 0 0 0-5.8 0m-11.5 0.5h0.7-0.7m-4.5 0.2h0.7-0.7m79.1 1.3c0 0.6 0 0.8 0.1 0.5v-1 0.5m-0.3 2.3c0 0.5 0 0.7 0.1 0.5v-1 0.5m-123.5 0.7v0.3-0.7 0.4m123.2 1.3c0 0.3 0 0.5 0.1 0.3v-0.7 0.4m-208.4 0.2c-11 2.3-15.8 19.8-6.9 29.2 9 9.5 25.7 5.1 27.1-7.6 1.4-11.5-10-24.1-20.5-22m140.3 1.6v0.5-1 0.5m21.2 10.5c-7.8 3.2-7.6 20-0.2 23.5 6.5 3 15.2-8.4 13-17.3-1.4-5.1-10.8-8.2-14.6-6.7m-88.6 6.1-0.7 0.7 0.7-0.6 0.8-0.8c0-0.1-0.2 0-0.8 0.7m0.7 4.1-1.8 1.9 1.9-1.9m71.8 8.1 0.7 0.6 0.6 0.6-0.6-0.6c-0.5-0.6-0.7-0.7-0.7-0.6m3.6 3.7 0.9 0.7-1.5-1.5 0.6 0.8m-87.3 8.3h0.7-0.7m6 0h0.7-0.7m4.4 0.2h1.3-1.3m15.8 0.2h1-1m5 0.2h0.8-0.9m4.2 0.2h0.7l-0.3-0.1h-0.4m-24 3h1-1m15.3 0.2h1-1m5 0.2h0.7-0.8m70.2 7.1c0 0.4 0 0.5 0.1 0.3v-0.6 0.3m-35.5 0.5-0.6 0.8 0.7-0.7c0.7-0.6 0.8-0.8 0.7-0.8l-0.8 0.7m35.7 2v0.8-1.5 0.7m-38.1 0.5-1.4 1.4 1.5-1.4c1.3-1.2 1.5-1.4 1.3-1.4l-1.4 1.4m-43.6 2.8 0.7 0.6-1.3-1.3 0.6 0.7m105.8 1-0.3 0.6s0.3-0.2 0.5-0.6l0.3-0.6-0.5 0.6m-99.8 5.2-2-2.1 2 2m-5.3-0.3 1.4 1.3-1.2-1.3-1.3-1.3 1.1 1.3m6.3 6 0.7 0.8-0.5-0.7-0.8-0.7 0.6 0.7m87.4 4-0.6 0.7 0.6-0.6c0.6-0.5 0.8-0.7 0.6-0.7l-0.6 0.6m-1.7 1.9-0.7 0.7 0.8-0.7c0.7-0.6 0.8-0.8 0.6-0.8l-0.7 0.8m-4.2 4.4-1.7 1.8 1.8-1.8m-246.8-0.7 1.1 1-0.9-1-1-1 0.8 1m3.9 3.8 1.3 1.3-1.2-1.3c-0.6-0.7-1.3-1.2-1.3-1.2l1.2 1.2m238.3 1.4-1.7 1.8 1.8-1.8m-236.1 0.8 0.6 0.6 0.7 0.6-0.6-0.7c-0.5-0.6-0.7-0.7-0.7-0.5m233 2.2-0.7 0.7 0.8-0.6 0.7-0.8c0-0.1-0.2 0-0.8 0.7m-102 41.2h0.6l-0.4-0.1h-0.3m8 0h0.7-0.7" fill="#84abb6"/><path d="m156.7 21.9c-6.3 1-9.8 5.8-8 11.3 2.2 7.4 7.5 11.8 24 20 3.4 1.7 6.3 3.2 6.5 3.5 1.1 1.2 0.3 3-1.3 3-0.5 0-7.4-3.3-12.4-6-7.7-4-11.3-5-19-5-12.7 0-22 5.1-22 12.1 0 8.2 12 11.1 29.8 7.4a212.3 212.3 0 0 1 10.6-2.2c3.1-1.1 4.5-1.1 5.1 0 0.8 1.6 0 2.4-2.7 3.3-3.6 1-10.4 4.1-15.5 7.1l-4.6 2.5c-3.7 2-4.8 2.8-10 6.8a279.8 279.8 0 0 0-10.3 8.8 257 257 0 0 0-39.5 45.3c-15.8 23.7-23.1 39.3-27.6 58.8-0.8 3.4-1 3 1 3.2a44.3 44.3 0 0 1 35.4 25 58.6 58.6 0 0 1-23.2 76.2c-0.5 0-0.3 0.6 1 2.7a111 111 0 0 0 39.2 40.5c0.3 0.2 0.5 0 1.9-2a85 85 0 0 1 19.5-21.5c1.6-0.7 2.8 0.4 2.5 2.5 0 1 0.3 5.8 0.5 6 0 0.1 0.6-0.5 1.2-1.3 11.9-16.4 22.3-26.3 25-23.9 0.7 0.6 0.7 0.8 0.3 4.4a100 100 0 0 0-0.4 5.2l-0.2 2.6 1-1a142.4 142.4 0 0 1 6.3-5.3 90.3 90.3 0 0 1 50-21.5l1.3-3a62.7 62.7 0 0 1 6-11l-1.9 0.6c-24.5 8.3-40.5-14-28-39.1l1-2.2-5.5-0.7c-8.1-1-7.5 0.4-5.6-12.5l2.6-18.2c1.5-10.4 1.5-10.4 3.2-10.3 0.4 0 16 5.5 34.6 12.3 18.7 6.9 34.1 12.4 34.3 12.4l15-4.1 26.4-7.4 16.4-4.6c7.3-2.1 6.5-2.7 8.6 6.6 7.3 33 7 30.5 4.2 31l-15.3 0.7c-0.2 0 0 0.4 0.3 1.1 4 7.9 1.7 20.3-5.4 29.7l-0.8 1 3.2 3.2c9.2 9 13.7 17.4 14.1 26.4 0.2 3.9-0.3 4.2-4.5 2.7-6.7-2.5-16-4.8-25.9-6.6l-2.8-0.5-0.5 0.7-1.4 1.6-1 1 1 0.7a92.8 92.8 0 0 1 15.9 18.4l1.3 2v-0.9c0.2-0.5 0.3-1.5 0.3-2.3 0.3-3 1.4-3.8 3.3-2.7 2.2 1.3 7 8.4 8.5 12.7 0.3 0.7 0.7 0.9 1 0.5 0.6-1.1 2.7 0.4 4.2 3l1 2 1.9-2a217.7 217.7 0 0 0 15-16.3l3.6-4.8 3.5-4.9a133 133 0 0 0 20.6-49.3c5-25 1.5-58.9-8.5-83-6-14.3-19-36.2-26.3-44.2a40.8 40.8 0 0 1-35 7.4c-25-6.2-35.2-32.4-19-49.3 2.2-2.2 2.2-1.8-0.2-3.2a135.8 135.8 0 0 0-51-19.2c-14.6-2.7-16.7-3-30.2-3.1-9-0.1-8 0.4-9.3-4.1-2.6-9-6-15-13.2-23.7-7.3-9-17.6-14.3-25.2-13.1m42 133.8 5 1.4 5.8 1.5c3.3 0.8 6.3 1.8 9.2 3 3.8 1.8 7.2 3 11.7 4.6 2.6 0.8 6.8 2.4 9.5 3.5 20.8 8.5 30 8.7 53.7 1a65.5 65.5 0 0 1 21.6-3.7l4.5-0.3c0.6 0 3 0.5 2.8 0.7s-2.3 0.7-5.9 1.6c-5 1.3-8.4 2.6-15.8 6.1-21 10-41 10.6-62.2 2-10-4.2-19.9-9.1-26.8-13.6a50.8 50.8 0 0 0-9.3-4.7c-7.6-3.1-9.2-4.5-3.8-3.1m-108.7 21.8a10.2 10.2 0 0 1 2.4 18c-6.1 4-14.4 0.7-15.7-6.5-1.5-7.5 6-14 13.3-11.5m92 3.5 4.7 0.7 9.2 2a443.6 443.6 0 0 1 29.3 7.3c6 1.7 10.8 2.7 25.4 5.4 18.4 3.4 33 1.9 74.6-7.5a209.5 209.5 0 0 1 28-3.5 54 54 0 0 1-8.5 3.5 160.4 160.4 0 0 0-11.9 4.2 938.8 938.8 0 0 1-39.7 12.6c-3.5 0.9-7.3 1.8-8.8 2a55 55 0 0 1-12.1 0.9c-7.8 0-11.9-0.5-20-2.6l-6.9-1.7a127.9 127.9 0 0 1-23.5-7c-3.3-1-5.7-2-8.6-3.4a92.9 92.9 0 0 0-10.3-4.4 320 320 0 0 1-13.2-5 81.4 81.4 0 0 0-9.1-2.6l-1.9-0.7c-0.7-0.3-0.3-1 0.5-0.7l2.7 0.5m-65.6 7.5c13 3 21.4 19.3 15.8 31-7 15.1-28.4 10.6-34.2-7.1-4.6-14.1 5.2-27 18.4-24m58 60c10.5 2.9 16.4 16.7 11 26-6 10.2-20.6 8-26.2-4-5.7-12.3 3.2-25.2 15.1-22m161.4 11.9c8.2 4.2 5 22-4 22-7.4 0-10.4-12-4.7-19.5 2.2-2.9 5.8-4 8.7-2.5" fill="#99c5d2"/><path d="m262.6 253.7a69.9 69.9 0 0 0-36 33c-0.9 2-1 2.5-0.5 2.3 1-0.4 32 0.2 39.4 0.8a212.5 212.5 0 0 1 30.7 4.3 150 150 0 0 1 26.7 6.5c3.3 1.1 3 1.2 2.6-1.2-3-17.5-28.3-37.5-58.4-45.9l-2.1-0.6-2.4 0.8m-24.6 40a188 188 0 0 0 21.7 23.8l1.5 1.1 1.5-0.5a85.2 85.2 0 0 0 29.6-20.7 210.7 210.7 0 0 0-46.3-4.6h-8.8l0.8 1" fill="#efde50"/></g></g><path d="m237 271.5-0.6 0.7 0.7-0.6c0.6-0.5 0.7-0.7 0.5-0.7l-0.6 0.6m76.5 7.7 0.7 0.7-0.5-0.7-0.8-0.7 0.6 0.7m-87 9.8h0.6-0.7m8.5 0h0.9-0.9m20.7 0.4h1.4-1.4m4.9 0.2h1.2-1.2m3.7 0.2h0.9l-0.5-0.1h-0.4m2.7 0.3h0.8l-0.4-0.1h-0.4m-29.4 2.8h0.7-0.7m13.7 0.2h1.9-1.9m5.6 0.2h1.4-1.4m4.7 0.2h1.2-1.2m3.5 0.2h0.8-0.8m2.5 0.2h0.8l-0.4-0.1h-0.4m22.6 6.3-1 1 1-1c0.7-0.5 1.1-1 1.1-1 0-0.2-0.2 0-1 1m-44 4.3 1.4 1.2-0.6-0.7c-0.6-0.6-0.7-0.7-0.7-0.5m3.6 3.8c0.7 0.8 1.4 1.4 1.5 1.4l-1.4-1.4-1.5-1.4 1.3 1.4m7.3 7.5 0.8 0.7-0.6-0.7-0.7-0.7 0.5 0.7m-23.8 61.5h1-1" fill="#aa7647" fill-rule="evenodd"/><path d="m216.7 238h-0.3l-0.4 0.1-0.1 0.2v0.3a26 26 0 0 0 0.3 14.3 23.6 23.6 0 0 0 6 9.5 21.4 21.4 0 0 0 10.1 5.2l1.8 0.3h1c0.4-0.1 0.6-0.3 1-0.6l1.3-1.3a69.6 69.6 0 0 1 23.2-15.6l1-0.6 0.5-0.6 0.2-0.6 0.4-1.3a15.7 15.7 0 0 0 0.6-3.6l-11.5-1.4s0 0.3 0.3 0.6a4.6 4.6 0 0 1 1 2.2 5.2 5.2 0 0 1-0.2 2.4 5.6 5.6 0 0 1-1.2 2 5 5 0 0 1-2 1.4 7.6 7.6 0 0 1-5.7-0.4 8.4 8.4 0 0 1-3.3-2.6 6.7 6.7 0 0 1-0.8-1.7 5.2 5.2 0 0 1-0.3-1.9 4.5 4.5 0 0 1 0.6-1.8l0.6-0.9 0.3-0.4-0.2-0.2-0.7-0.2-11.3-1.4-8-1a69.8 69.8 0 0 0-4.2-0.4zm89.7 3.4h-1a1555.4 1555.4 0 0 0-22.1 1l0.2 1a5.1 5.1 0 0 1-0.1 3.5 7 7 0 0 1-3.8 3.6 7.3 7.3 0 0 1-3.7 0.4 6.6 6.6 0 0 1-3.6-1.7 6 6 0 0 1-1.5-2.6 5 5 0 0 1-0.1-1.9l0.2-1 0.2-0.4c0-0.1 0-0.2-0.2-0.3h-2.1l-2.1 0.2-0.2 1.7a20.5 20.5 0 0 1-0.7 4.3l0.3 0.2 1.6 0.5a92.8 92.8 0 0 1 15.2 5.3 137.6 137.6 0 0 1 16.3 8h0.2l1.1-0.7a10 10 0 0 0 3-2.2 13 13 0 0 0 2.2-3.2 17.2 17.2 0 0 0 1.8-5.4 19.6 19.6 0 0 0-0.6-8.8z" fill="#fff" fill-rule="evenodd"/></g></svg>
