<?xml version="1.0" encoding="UTF-8" standalone="no"?>
<svg
   xml:space="preserve"
   viewBox="0 0 384.0983 254.6577"
   version="1.1"
   id="svg16"
   sodipodi:docname="director-hat.svg"
   width="384.0983"
   height="254.6577"
   inkscape:version="1.2.2 (732a01da63, 2022-12-09)"
   xmlns:inkscape="http://www.inkscape.org/namespaces/inkscape"
   xmlns:sodipodi="http://sodipodi.sourceforge.net/DTD/sodipodi-0.dtd"
   xmlns="http://www.w3.org/2000/svg"
   xmlns:svg="http://www.w3.org/2000/svg"><defs
     id="defs20" /><sodipodi:namedview
     id="namedview18"
     pagecolor="#ffffff"
     bordercolor="#000000"
     borderopacity="0.25"
     inkscape:showpageshadow="2"
     inkscape:pageopacity="0.0"
     inkscape:pagecheckerboard="0"
     inkscape:deskcolor="#d1d1d1"
     showgrid="false"
     inkscape:zoom="2.2925728"
     inkscape:cx="291.81189"
     inkscape:cy="317.76527"
     inkscape:window-width="1920"
     inkscape:window-height="991"
     inkscape:window-x="-9"
     inkscape:window-y="-9"
     inkscape:window-maximized="1"
     inkscape:current-layer="svg16" /><g
     id="g310"
     transform="translate(-751.0724,-451.26711)"><path
       d="m 876,559.8 c 0.4,6 0.4,12.3 0.5,18.6 l 0.7,35.8 c 0.6,7.4 -0.4,14.5 3,21.2 1.5,3 -0.2,5.2 -3.5,5.6 -2.4,0.2 -5,0.6 -7.4,-0.1 -2.2,-0.7 -4.1,-2.6 -6.1,-4 l 4.7,-5 c 0.4,-0.3 1.2,-0.4 1,-0.3 0,-5.6 0,-10.7 0.2,-16.6 0.2,-5.4 0.5,-10 0.5,-14.6 l 0.3,-23.4 c 1,-2.4 2.2,-4.7 3,-7.1 1,-3.2 1.9,-6.6 3.2,-10 z"
       id="path2" /><path
       d="m 1006.7,569.8 c 5,-5.2 9,-5 12.3,1.1 a 27,27 0 0 1 -2.8,30.9 c -1.2,-0.2 -2,-0.5 -2,-0.9 z"
       style="stroke-width:1.07668"
       id="path4" /><path
       d="m 940.3,451.3 a 41.9,41.9 0 0 0 -13.6,3 c -0.8,0.5 -1.5,1 -2,1.7 -0.7,0.6 -1.1,1.4 -1.5,2.2 l -0.8,3.2 -0.4,2 c -0.2,0.4 -0.5,0.8 -1,1.1 -0.8,0.6 -2.5,1 -5.6,1.6 a 135.3,135.3 0 0 0 -47,18.6 159,159 0 0 0 -30.8,24.4 185.6,185.6 0 0 0 -25.8,32.1 213,213 0 0 0 -19.7,38.6 236.3,236.3 0 0 0 -12.7,43.8 l -1.7,8.7 -5.5,2.2 a 54.2,54.2 0 0 0 -12.3,7 c -1.6,1.4 -3,2.7 -4.2,4.2 a 17,17 0 0 0 -4.4,9 14.7,14.7 0 0 0 1.4,9.3 c 0.8,1.6 1.8,3 3.1,4.5 1.2,1.3 2.7,2.6 4.3,4 a 52.9,52.9 0 0 0 12.4,7.2 l 7.8,3.3 c 5.6,2.1 11.9,4.1 18.8,6 a 490.8,490.8 0 0 0 74.4,12.7 796.2,796.2 0 0 0 88.2,4.2 855.7,855.7 0 0 0 58.1,-2.1 595.1,595.1 0 0 0 51.6,-6.3 c 7.7,-1.4 15,-3 21.7,-4.7 a 163,163 0 0 0 25.7,-9.2 50,50 0 0 0 6.5,-3.6 27,27 0 0 0 5,-4.1 c 1.5,-1.5 2.5,-3 3.3,-4.7 a 15.3,15.3 0 0 0 1.2,-10.1 19,19 0 0 0 -2,-5.2 28,28 0 0 0 -3.7,-5 51.1,51.1 0 0 0 -12.4,-8.9 l -6.5,-3.2 -1.2,-10.5 a 225.7,225.7 0 0 0 -12.8,-53 207.3,207.3 0 0 0 -24.3,-45.5 183,183 0 0 0 -34.1,-35.6 A 158.1,158.1 0 0 0 995.7,471 189.4,189.4 0 0 0 960,462.7 c -0.4,-0.5 -0.5,-1.3 -0.5,-2.7 0,-0.7 -0.1,-1.4 -0.4,-2 -0.2,-0.6 -0.6,-1.2 -1.1,-1.8 a 12,12 0 0 0 -4.2,-2.8 c -1.8,-0.8 -3.9,-1.4 -6.2,-1.7 a 38,38 0 0 0 -7.3,-0.4 z m 101,107 c 2.8,0.2 6,0.6 8.4,1.4 a 14.6,14.6 0 0 1 6.6,4.3 13.8,13.8 0 0 1 3.2,6.8 16.4,16.4 0 0 1 -0.6,8 19.3,19.3 0 0 1 -4.6,7.8 l -4.3,4.6 5.8,10.6 c 3,5.5 4.7,8.8 5.4,11 a 7,7 0 0 1 0.3,2.7 c -0.1,0.7 -0.5,1.2 -1,1.7 l -1.2,1 c -0.4,0.2 -0.8,0.3 -1.3,0.2 -0.4,0 -0.8,0 -1.3,-0.3 -0.4,-0.3 -1,-0.7 -1.4,-1.2 -1,-1 -2.3,-2.6 -3.7,-4.8 l -5,-8.7 -4.7,-8.6 -0.5,9.8 c -0.1,2.9 -0.3,5.2 -0.6,7 a 13,13 0 0 1 -1,4 c -0.6,1 -1.2,1.4 -2,1.6 a 7,7 0 0 1 -2.8,-0.6 l -2.5,-1.2 0.6,-27.7 c 0.2,-11.5 0.4,-18.5 0.7,-22.7 l 0.6,-4.4 c 0.2,-1 0.4,-1.4 0.7,-1.6 a 5,5 0 0 1 2.3,-0.6 h 3.8 z m -173,0.3 a 4,4 0 0 1 2,0.4 c 0.6,0.3 1,0.7 1.4,1.3 0.3,0.6 -1.9,5 -1.8,10.2 -3,6.3 2.6,11.2 2.5,17.9 0,6.6 -0.2,13.3 -0.4,18.3 a 39,39 0 0 1 -0.8,8.9 c -0.4,0.4 -1,0.6 -1.7,0.6 a 5,5 0 0 1 -2,-0.2 c -0.7,-0.2 -1.3,-0.6 -1.8,-1 -0.6,-0.5 -1,-1 -1.2,-1.7 -0.3,-0.9 -0.5,-4.5 -0.6,-9.4 a 593,593 0 0 1 0.3,-34.5 c 0.3,-4.8 0.5,-8.2 0.8,-8.8 0.4,-0.6 0.9,-1 1.5,-1.4 0.5,-0.3 1.2,-0.5 1.9,-0.6 z m 19.3,1 c 1.7,0 3.4,0.2 5,0.5 1.6,0.3 3,0.8 4.2,1.4 a 13.7,13.7 0 0 1 6.8,7.6 16.8,16.8 0 0 1 1.1,7 19.3,19.3 0 0 1 -3.7,10.7 l -3,4.2 3.4,9.1 2.7,7.6 c 0.6,2 1,3.7 1.2,5 a 7,7 0 0 1 -0.1,3 c -0.3,0.8 -0.8,1.3 -1.5,1.6 -0.8,0.5 -1.5,0.7 -2.2,0.6 -0.7,0 -1.3,-0.3 -2,-0.9 a 9,9 0 0 1 -1.8,-2.4 c -0.6,-1.1 -1.2,-2.5 -1.8,-4.2 -1.7,-4.5 -3,-8 -4.1,-10.5 -1,-2.5 -1.9,-3.9 -2.5,-4.3 -0.3,-0.2 -0.5,0 -0.7,0.2 -0.2,0.3 -0.4,0.9 -0.5,1.7 a 49,49 0 0 0 0,7.8 c 0,2.8 -0.1,5.3 -0.5,7.2 -0.3,2 -0.8,3.5 -1.5,4.4 -0.4,0.5 -0.8,0.8 -1.2,1 -0.4,0.3 -0.8,0.3 -1.3,0.2 -0.5,0 -1,-0.3 -1.5,-0.7 -0.6,-0.3 -1.1,-0.9 -1.7,-1.6 -0.4,-0.5 -0.8,-4 -1,-9.1 a 440.5,440.5 0 0 1 0.1,-36.5 c 0.2,-5.1 0.6,-8.7 1,-9.2 0.5,-0.5 1.4,-1 2.7,-1.2 1.2,-0.2 2.8,-0.3 4.4,-0.3 z m 124.1,0 a 10.7,10.7 0 0 1 5.6,1.4 15.4,15.4 0 0 1 5.7,5 22.2,22.2 0 0 1 3.6,7.4 47.5,47.5 0 0 1 -1,27 31.5,31.5 0 0 1 -6.3,10.4 16.2,16.2 0 0 1 -6,3.7 12.5,12.5 0 0 1 -10.2,-1.4 19.2,19.2 0 0 1 -5,-5.1 28.6,28.6 0 0 1 -3.4,-7.5 41.6,41.6 0 0 1 -1.3,-18 39.1,39.1 0 0 1 4,-12.7 24.5,24.5 0 0 1 5,-6.3 17.4,17.4 0 0 1 6.4,-3.4 c 1,-0.3 2,-0.4 3,-0.4 z m -83.5,0.2 c 0.7,0 1.2,0.1 1.6,0.3 l 1.2,1 c 0.8,0.8 1.3,1.6 1.4,2.4 a 3,3 0 0 1 -0.5,2.2 7,7 0 0 1 -2.2,1.9 c -1,0.5 -2.4,0.9 -3.9,1.1 -1.7,0.3 -2.7,0.6 -3.2,1 -0.5,0.5 -0.7,1.2 -0.7,2.4 a 56,56 0 0 1 -0.6,7.2 12,12 0 0 0 -0.2,3.8 c 0,0.3 0.2,0.4 0.5,0.4 0.2,0 0.6,0 1,-0.2 a 6.4,6.4 0 0 1 4.9,0.4 c 0.7,0.4 1.2,0.9 1.5,1.5 0.4,0.6 0.6,1.3 0.5,2 -0.1,0.7 -0.3,1.2 -0.5,1.7 -0.2,0.5 -0.5,1 -1,1.3 -0.9,0.7 -2.3,1.2 -4.4,1.6 l -2.7,0.6 0.3,7.4 0.3,7.5 2.9,0.3 c 1,0.1 2,0.3 2.8,0.6 a 6,6 0 0 1 2,1 c 0.4,0.4 0.7,0.8 0.8,1.3 v 1.4 c -0.2,0.4 -0.5,0.9 -1,1.3 l -1.7,1.2 a 18,18 0 0 1 -5.8,1.3 c -2.3,0 -4,0.1 -5.4,-0.3 a 3.7,3.7 0 0 1 -2.7,-3 c -0.6,-1.7 -0.9,-4.4 -1,-8.3 v -16.4 l 0.3,-15.2 c 0.2,-3.7 0.4,-6 1,-7.7 0.2,-0.8 0.5,-1.4 1,-1.9 a 4,4 0 0 1 1.4,-1 c 1.2,-0.6 2.7,-0.8 4.9,-1.2 3.8,-0.6 5.9,-1 7.2,-1 z m -95.2,0.8 a 44.5,44.5 0 0 1 16.3,2.8 15.5,15.5 0 0 1 5.2,4.6 c 1.5,2 2.6,4.3 3.5,6.8 a 47,47 0 0 1 0.8,25.1 34.2,34.2 0 0 1 -4.8,10.6 19,19 0 0 1 -5,4.6 c -1,0.6 -2,1 -3,1.3 -1.4,0.4 -3,0.6 -4.5,0.8 a 38.7,38.7 0 0 1 -8.8,-0.2 c -1.1,-0.2 -2,-0.6 -2.2,-1 -0.4,-0.4 -0.7,-1.5 -1,-3.2 l -0.8,-6.5 a 291,291 0 0 1 0,-42.2 c 0.1,-1.5 0.4,-2.5 0.8,-2.7 a 8,8 0 0 1 3.5,-0.8 z m 122.2,0.6 a 7,7 0 0 1 2.4,0.6 c 0.7,0.3 1.5,0.7 2,1.3 1,0.9 1.6,1.7 1.9,2.6 0.2,0.8 0,1.6 -0.4,2.2 -0.4,0.7 -1.2,1.3 -2.2,1.7 -1,0.3 -2.3,0.6 -3.9,0.6 -1,0 -2,0.3 -2.8,0.8 a 8,8 0 0 0 -2.6,2.3 28.7,28.7 0 0 0 -5,12.8 39.1,39.1 0 0 0 0,10.5 38.6,38.6 0 0 0 2.6,9 c 0.5,1 1,1.7 1.5,2.1 a 3,3 0 0 0 2,0.6 c 1,0 2,-0.3 3.3,-0.7 1.8,-0.5 3.4,-0.5 4.6,-0.3 0.6,0.1 1.1,0.3 1.6,0.6 l 1,1 0.3,1.2 c 0,0.5 -0.1,1 -0.4,1.5 -0.4,1 -1.4,2.2 -2.9,3.3 -1,0.8 -2,1.4 -3.1,1.9 l -3,0.9 a 9.5,9.5 0 0 1 -5.5,-0.9 c -0.9,-0.4 -1.7,-0.9 -2.5,-1.5 -0.7,-0.7 -1.5,-1.4 -2.1,-2.3 a 24,24 0 0 1 -3.5,-6.2 47.2,47.2 0 0 1 5.1,-40.5 17.3,17.3 0 0 1 7.6,-4.8 c 1.3,-0.3 2.7,-0.4 4,-0.3 z m 22.7,0.4 a 70.1,70.1 0 0 1 10.5,1.3 c 0.7,0.3 1.2,0.5 1.4,0.8 0.3,0.6 0.5,1.1 0.5,1.7 a 3,3 0 0 1 -0.6,1.7 c -0.3,0.5 -0.9,1 -1.6,1.4 -0.6,0.4 -1.5,0.8 -2.4,1 l -3,1 v 22.3 c 0,5.9 0,10.3 -0.2,13.8 a 52.2,52.2 0 0 1 -1,9.2 c -0.3,0.5 -0.5,0.8 -0.8,1 -0.7,0.5 -1.5,0.6 -2.5,0.6 -1,0 -1.7,-0.2 -2.3,-0.8 -0.6,-0.6 -1,-1.6 -1.3,-3.4 -0.3,-1.7 -0.4,-4.2 -0.5,-7.6 v -34.9 l -3.4,-0.6 a 9.6,9.6 0 0 1 -3.6,-1.2 6,6 0 0 1 -2.2,-1.8 3,3 0 0 1 -0.6,-2.2 4,4 0 0 1 1.2,-2.3 c 0.5,-0.5 2.2,-0.8 4.5,-1 a 73,73 0 0 1 7.9,0 z"
       style="stroke-width:1.86476;stroke-linecap:round;stroke-linejoin:round;stroke-miterlimit:21.8"
       id="path6" /><path
       fill="#242424"
       d="m 1013,556.8 c -4.3,-9.7 -7.9,-19.7 -12.9,-29 -11.7,-21.8 -29.2,-39 -46.8,-56.1 l -4.2,-4.5 0.6,-1.5 c 7.5,0.8 15,1.2 22.4,2.6 a 150.9,150.9 0 0 1 84.4,49 197,197 0 0 1 44.4,87.5 c 2,8.5 3.4,17.2 5,25.9 0.2,1.4 0,3 0,5 -2.2,0 -4.3,-0.3 -6,0.4 -1.9,0.8 -4.2,2.2 -4.7,4 -1,3 1.7,4.8 4.2,4.7 10.7,-0.3 18.2,6.7 26.5,11.4 9,5.2 8.6,11.8 -0.2,17.5 a 106.5,106.5 0 0 1 -39,14.1 c -16,3.2 -32,5.7 -48,8 a 328,328 0 0 1 -27.8,2.1 c -14.6,0.6 -29.3,1 -44,1 -21.5,0 -43.1,0.6 -64.6,-1.3 -28,-2.4 -56,-6 -83.6,-11 -16.7,-3 -32.8,-9.1 -49,-14.6 -4.7,-1.6 -8.8,-5.3 -12.6,-8.6 -4.7,-4 -4.3,-9.5 1.2,-12.8 6.9,-4 14,-7.6 21.5,-10.2 8.2,-2.9 8.8,-3.7 3.1,-9.8 -0.7,-0.8 -0.8,-2.5 -0.6,-3.7 A 217,217 0 0 1 829,524.8 160,160 0 0 1 922.8,468.3 c 0.8,-0.2 1.8,0 3.9,0.2 -2.4,2.5 -4,4.3 -5.8,6 -23.7,22.3 -35.8,51 -44.5,81.7 -0.2,0.9 0,2 0,3.3 0,0.3 0,0 -0.3,0.3 -1.3,3.5 -2.1,6.9 -3.2,10 -0.8,2.5 -2,4.8 -3.1,6.7 l 0.2,-14.8 c 0,-3 -1,-5.6 -4.3,-5.6 -3.7,-0.1 -4.8,2.5 -4.8,5.7 0,16 0,32.1 0.2,48.2 0,5.4 2.7,6.8 7.9,5.3 v 16.3 c 0,0 -0.7,0 -1,0.4 a 75,75 0 0 0 -4.8,5 c 2,1.3 3.9,3.2 6.1,3.9 2.3,0.7 5,0.3 7.4,0 3.3,-0.3 5,-2.5 3.4,-5.5 -3.3,-6.7 -2.3,-13.8 -2.6,-20.5 2.2,0.7 4.4,2 6,1.5 1.2,-0.5 2.2,-3.2 2.3,-5 0.1,-4.2 -0.5,-8.5 -0.6,-12.9 0,-1.4 0.5,-2.8 0.8,-4.3 l 1.4,-0.1 c 0.8,1.5 1.8,3 2.5,4.6 l 4.9,13.5 c 1,3.2 2.4,6.4 6.5,5 4,-1.3 3.1,-4.6 2.1,-7.5 -2.3,-6.8 -4.8,-13.5 -7.3,-20.4 l 2.3,-2.8 c 4.9,-6 6.4,-12.8 3.6,-20 -2.8,-7.1 -9,-9.5 -16,-9.8 2.6,-8.5 4.9,-17.2 8,-25.5 a 141.4,141.4 0 0 1 37.1,-54.8 c 7.1,-7.6 7.1,-7.6 14.8,0 15.7,15.6 32,30.7 43.1,50 6,10.5 10.8,21.7 16,33.3 -11,11.2 -14,33.8 -6,46.8 4,6.1 9.2,9.5 16.8,8.4 0.1,7 0,13.5 0.2,20 0,1.5 0.6,4.2 1.4,4.4 6.1,1.4 12.4,2.6 18.7,3.3 1.1,0.1 3.5,-2.3 3.6,-3.7 0.2,-1.5 -1.3,-3.5 -2.6,-4.7 -1,-1 -2.8,-1 -4.2,-1.2 -7.9,-0.4 -7.9,-0.4 -7.9,-8.5 V 614 c -0.1,-1.7 -0.8,-3.4 -1,-5.4 a 42,42 0 0 0 5.7,-36.8 c -2.3,-9.7 -8,-14.2 -16.7,-15 m 33.7,-0.9 c -1.3,0 -2.7,0 -4,-0.3 -4,-0.6 -5.9,1.2 -6,5.2 l -0.9,49.4 c 0,3.2 0.3,6.4 4.4,6.4 4,0.1 4.5,-3.2 4.6,-6.3 v -15.6 c 5,6.7 8.6,13.6 12.7,20.1 1,1.5 3.8,2.5 5.7,2.5 1,0 2.4,-2.9 2.5,-4.6 0.2,-1.4 -1,-3 -1.8,-4.5 -3.3,-6.3 -6.7,-12.5 -10.3,-19 8.2,-5.3 12.9,-12.4 10,-22 -2.3,-7.5 -8.4,-10.8 -16.9,-11.3 M 837.2,617 c 9.5,-1 15,-6.4 17.2,-15.4 1,-3.6 2,-7.1 2.5,-10.7 3.3,-21 -7.9,-34 -27.7,-33 -4,0.1 -6,1.9 -5.9,5.7 0.4,16.3 0.9,32.6 1.7,48.9 0.1,1.6 2.9,3.6 4.8,4.4 1.9,0.8 4.3,0.2 7.4,0.1 m 83,-22.2 c -0.8,-3.8 1.7,-4 4.4,-4.9 1.8,-0.5 3,-3 4.6,-4.6 -1.7,-1.3 -3.2,-2.9 -5,-3.9 -1,-0.5 -2.5,0 -4,0 l 0.7,-14 c 2.5,-0.6 5,-0.8 7.3,-1.5 3,-1 5.1,-3.5 3.1,-6 -4.6,-5.9 -10.4,-1 -15.7,-0.8 -3,0.2 -5,2.5 -4.6,6 v 0.5 l 0.3,13.4 v 30 c 0,2.9 1,5.8 4.5,6.2 3.3,0.3 6.7,0.4 10,-0.3 1.3,-0.3 3.1,-2.7 3,-4.1 0,-1.4 -2,-3 -3.5,-3.9 -1.3,-0.7 -3.2,-0.4 -5.2,-0.6 v -11.5 m 21.5,18.1 c 4.2,5 9.5,4.8 15,2.6 3,-1.1 6.3,-2.7 5,-6.7 -1.4,-4 -4.9,-3.3 -8,-1.8 -3.5,1.7 -5.4,0.5 -6.8,-3 -5,-11.3 -2.3,-22.1 2.2,-32.7 1.2,-3 3.6,-4 7,-3.3 2.8,0.6 5.5,0 6,-3.4 0.5,-3.6 -2,-5 -5,-5.6 -6.2,-1.4 -12.3,0.8 -15.3,6.8 -7.5,15.3 -10,31 -0.1,47.1 m 26.1,-45.8 7.8,1.3 v 5.4 l -0.5,36 c 0,3.3 -0.1,7.2 4.6,7.3 4.8,0.1 4.5,-3.8 4.5,-7.2 v -41.6 l 2,-0.7 c 3,-0.3 6,-1 5.6,-4.8 -0.3,-3.7 -3.3,-4 -6.3,-4 -5,0 -10,-0.2 -15,0.2 -1.7,0 -4.1,1.2 -4.7,2.5 -0.6,1.3 0.8,3.5 2,5.6 m -64.5,75 c 3.2,0 5.8,-0.8 5.8,-4.6 0,-3.8 -3,-4.3 -6,-4.5 -2.8,-0.2 -5.7,-0.4 -8.4,0 -1.7,0.4 -3.9,1.8 -4.4,3.3 -1,2.4 0.2,4.6 3.2,5 l 9.8,0.7 m 184.6,-5.4 c -4.4,-3.8 -9.6,-3 -14.7,-2 -1.2,0.2 -2.8,2.5 -2.9,3.8 0,1.4 1.6,3.8 2.8,4 4.2,0.5 8.6,0.7 12.8,0.2 1,-0.1 1.6,-3.5 2,-6 m -77.3,-3.3 c -3.1,0 -6.4,-0.7 -9.4,-0.2 -1.8,0.3 -3.4,2.4 -5,3.6 1.2,1.6 2.2,4 3.9,4.6 2.3,1 5.3,1 7.8,0.6 2,-0.4 4.3,-1.7 5.5,-3.3 0.5,-0.7 -1.3,-3.2 -2.8,-5.3 m -40.3,1.6 c 0.4,1.7 0.5,4.6 1.3,4.8 4.3,1 8.7,2 13,1.7 3,-0.2 3.5,-5.2 1,-7.1 -3.1,-2.5 -11.4,-2.5 -15.3,0.6 m -16.3,-2 c -2.5,0 -5,-0.4 -7.4,0.2 -1.9,0.5 -3.5,2.2 -5.2,3.4 1.5,1.8 2.7,4.2 4.5,5 2,1 4.7,1 6.8,0.3 2.3,-0.6 4.2,-2.5 6.2,-3.8 a 30,30 0 0 0 -4.9,-5 m 109.2,6.8 c -0.5,-1.8 -0.6,-5 -1.5,-5.2 a 44,44 0 0 0 -12,-1 c -0.8,0 -2.2,2.4 -2.3,3.8 0,1 1.4,3.2 2.3,3.3 a 57,57 0 0 0 13.5,-1 m -248,-7.3 c -0.2,1.2 -0.7,3.3 -0.4,3.5 2.5,1.3 5.2,3 7.8,2.9 2.7,0 5.4,-1.7 7.8,-3.2 0.4,-0.2 -1.2,-5 -1.9,-5 a 60,60 0 0 0 -13.3,1.8 m 103,2.2 c -2,3.3 -1.6,6.2 2.4,7.2 2.6,0.7 5.6,0.6 8.3,0 a 6.2,6.2 0 0 0 3.8,-3.9 c 0.2,-1 -1.7,-3.7 -2.8,-3.8 -3.6,-0.5 -7.3,0 -11.7,0.5 M 806.3,638 c 2.3,-4.7 1,-6.8 -4,-7 H 798 c -2.5,0 -4.7,0.1 -5,3.5 -0.2,3.4 1.6,5.2 4.6,5.3 2.7,0.1 5.5,-0.8 8.8,-1.8 m 45.6,0.8 c 3,-1.7 3,-4.7 1.3,-6.7 -2.7,-3.1 -6.7,-3 -10,-1 -1.4,0.7 -2.9,3.1 -2.6,4.4 0.3,1.4 2.4,3 4,3.4 2,0.5 4.3,0 7.3,0 z"
       id="path8" /><path
       fill="#f8f8f8"
       d="m 885.5,556.8 c 7.6,0.2 13.7,2.6 16.5,9.6 2.8,7.3 1.3,14 -3.6,20.1 l -2.3,2.8 c 2.5,7 5,13.6 7.3,20.4 1,2.9 1.8,6.2 -2,7.5 -4.2,1.4 -5.5,-1.8 -6.6,-5 -1.6,-4.5 -3.2,-9 -5,-13.5 -0.6,-1.7 -1.6,-3.1 -2.4,-4.6 l -1.4,0.1 c -0.3,1.5 -0.8,3 -0.8,4.3 0.1,4.4 0.7,8.7 0.6,13 0,1.7 -1.1,4.4 -2.4,4.9 -1.5,0.6 -3.7,-0.8 -6,-2 -0.5,-12.4 -0.7,-24.2 -0.9,-36 l -0.1,-18.8 0.1,0.3 c 2.1,-3.3 5.5,-3 9,-3.1 m 8.3,20 c 1.3,-7.9 -1.2,-11.2 -8.3,-10.1 v 18 l 1.3,0.8 7,-8.8 z M 1012.6,557 c 9.1,0.6 14.8,5.1 17.1,14.8 a 41.5,41.5 0 0 1 -6,37 l -8,5.6 c -7.5,1.6 -12.8,-1.8 -16.6,-8 -8.1,-12.9 -5.2,-35.5 6,-46.3 a 93,93 0 0 1 7.5,-3.2 m -4.3,13.2 c -5.7,9.8 -6.6,20 -2.1,30.5 2.8,6.4 6.5,6.7 11.5,1 a 32,32 0 0 0 1.8,-30.7 c -2.8,-6.1 -6.2,-6.3 -11.2,-0.8 z m 38.8,-14.1 c 8.1,0.4 14.2,3.7 16.5,11.2 2.9,9.6 -1.8,16.7 -10,22 3.6,6.5 7,12.7 10.3,19 0.8,1.4 2,3 1.8,4.5 -0.1,1.7 -1.6,4.5 -2.5,4.6 -2,0 -4.8,-1 -5.7,-2.5 -4.1,-6.5 -7.7,-13.4 -12.7,-20 v 15.5 c 0,3 -0.6,6.4 -4.6,6.3 -4.1,0 -4.4,-3.2 -4.4,-6.4 l 1,-49.4 c 0,-4 1.8,-5.8 6,-5.2 1.2,0.2 2.6,0.2 4.3,0.3 m 7.4,20 c 2.1,-7.3 -1,-11.2 -9,-10.3 V 582 l 1.1,1 c 2.5,-2.2 5,-4.3 7.9,-7.1 z M 836.7,617 c -2.6,0 -5,0.7 -6.9,-0.1 -2,-0.8 -4.7,-2.8 -4.8,-4.4 -0.8,-16.3 -1.3,-32.6 -1.7,-49 0,-3.7 2,-5.5 6,-5.7 19.7,-1 30.9,12.2 27.6,33 -0.6,3.7 -1.6,7.2 -2.5,10.8 -2.2,9 -7.7,14.5 -17.7,15.5 m -1.3,-9.1 c 5.5,0 8.8,-2.8 10,-8 1.2,-4.7 2.5,-9.6 2.9,-14.5 1,-11.9 -5.7,-19.3 -15.1,-18.2 v 38.8 c 0,0.6 1,1.2 2.2,1.9 z m 84.7,-12.8 v 11.1 c 2,0.2 4,-0.1 5.2,0.6 1.6,0.8 3.5,2.5 3.6,3.9 0,1.4 -1.8,3.8 -3.2,4.1 -3.2,0.7 -6.6,0.6 -9.9,0.3 -3.5,-0.4 -4.4,-3.3 -4.5,-6.3 v -30 l -0.2,-13.3 v -0.5 c -0.4,-3.5 1.4,-5.8 4.5,-6 5.3,-0.2 11.1,-5 15.7,0.8 2,2.5 -0.2,5 -3,6 -2.4,0.7 -5,1 -7.4,1.4 l -0.7,14 c 1.5,0 3,-0.4 4,0.1 1.8,1 3.3,2.6 5,3.9 -1.5,1.6 -2.8,4 -4.6,4.6 -2.7,0.9 -5.2,1.1 -4.5,5.3 z m 21.2,17.5 c -9.6,-16 -7,-31.6 0.4,-46.9 3,-6 9,-8.2 15.2,-6.8 3,0.6 5.6,2 5,5.6 -0.4,3.5 -3.1,4 -6,3.4 -3.3,-0.8 -5.7,0.3 -7,3.3 -4.4,10.6 -7,21.4 -2.1,32.7 1.4,3.5 3.3,4.7 6.9,3 3,-1.5 6.5,-2.3 7.9,1.8 1.3,4 -2,5.6 -5,6.7 -5.5,2.2 -10.8,2.5 -15.3,-2.8 z m 26,-45.8 c -0.8,-2 -2.2,-4.1 -1.6,-5.4 0.6,-1.3 3,-2.4 4.7,-2.5 5,-0.4 10,-0.1 15,-0.2 3,0 6,0.3 6.3,4 0.3,3.7 -2.6,4.5 -5.6,4.8 -0.5,0 -1,0.3 -2,0.7 v 41.6 c 0,3.4 0.3,7.3 -4.5,7.2 -4.7,0 -4.6,-4 -4.6,-7.4 l 0.5,-35.9 v -5.4 z m -97.5,9.6 a 919.5,919.5 0 0 1 -0.7,38 c -5.3,2.3 -8,0.9 -8,-4.5 -0.2,-16 -0.2,-32.1 -0.2,-48.2 0,-3.2 1.1,-5.8 4.8,-5.7 3.4,0 4.3,2.6 4.3,5.6 z"
       id="path10" /><path
       d="m 1015.8,615 c 2.4,-2.3 5,-4 7.7,-6 0.7,1.6 1.4,3.3 1.5,5 v 10.5 c 0,8 0,8 7.9,8.5 1.4,0.1 3.2,0.3 4.2,1.2 1.3,1.2 2.8,3.2 2.6,4.7 -0.1,1.4 -2.5,3.8 -3.6,3.7 -6.3,-0.7 -12.6,-1.9 -18.7,-3.3 -0.8,-0.2 -1.3,-2.9 -1.4,-4.4 -0.1,-6.5 0,-13 -0.2,-20 z m -113.1,27 c -3.4,-0.2 -6.3,-0.4 -9.3,-0.8 -3,-0.3 -4.2,-2.5 -3.2,-5 0.5,-1.4 2.7,-2.8 4.4,-3.1 2.7,-0.5 5.6,-0.3 8.4,-0.1 3,0.2 6,0.7 6,4.5 0,3.8 -2.6,4.7 -6.3,4.5 z m 185.3,-5.1 c -0.6,2.2 -1.2,5.6 -2.2,5.7 -4.2,0.5 -8.6,0.3 -12.8,-0.3 -1.2,-0.1 -2.8,-2.5 -2.8,-3.9 0,-1.3 1.7,-3.6 3,-3.8 5,-1 10.2,-1.8 14.8,2.3 z m -77.1,-3.3 c 1,1.8 3,4.3 2.4,5 a 9.7,9.7 0 0 1 -5.5,3.3 c -2.5,0.4 -5.5,0.3 -7.8,-0.6 -1.7,-0.6 -2.7,-3 -4,-4.6 1.7,-1.2 3.3,-3.3 5.1,-3.6 3,-0.5 6.3,0.1 9.8,0.5 z m -40.5,0.9 c 3.7,-2.7 12,-2.7 15,-0.2 2.6,2 2.1,6.9 -1,7.1 -4.2,0.3 -8.6,-0.7 -12.9,-1.7 -0.8,-0.2 -0.9,-3.1 -1.1,-5.2 z M 954.3,633 c 1.8,1.7 3.2,3.3 4.5,5 -2,1.3 -4,3.2 -6.2,3.8 -2,0.7 -4.8,0.7 -6.8,-0.2 -1.8,-1 -3,-3.3 -4.5,-5 1.7,-1.3 3.3,-3 5.2,-3.5 2.3,-0.6 5,-0.1 7.8,0 z m 108.7,7.1 c -4.6,0.5 -9,0.8 -13.4,0.6 -0.9,0 -2.4,-2.2 -2.3,-3.3 0,-1.4 1.5,-3.9 2.3,-3.9 4,0 8.1,0.2 12,1 0.9,0.3 1,3.5 1.3,5.6 z m -247.7,-8 c 4.6,-0.8 8.8,-1.5 13.1,-1.5 0.7,0 2.3,4.8 2,5 -2.5,1.5 -5.2,3.2 -7.9,3.2 -2.6,0 -5.3,-1.6 -7.8,-2.9 -0.3,-0.2 0.2,-2.3 0.6,-3.8 z m 103.1,2.2 c 4,-0.3 7.8,-0.7 11.4,-0.2 1.1,0.1 3,2.8 2.8,3.8 a 6.2,6.2 0 0 1 -3.8,3.8 c -2.7,0.7 -5.7,0.8 -8.3,0.1 -4,-1 -4.5,-3.9 -2,-7.5 z m -112.4,4 c -3,0.7 -5.8,1.6 -8.5,1.5 -3,-0.1 -4.8,-2 -4.6,-5.3 0.3,-3.4 2.5,-3.6 5,-3.5 h 4.5 c 5,0.2 6.2,2.3 3.6,7.3 z m 45.5,0.6 c -2.6,0 -4.9,0.5 -6.9,0 -1.6,-0.5 -3.7,-2 -4,-3.4 -0.3,-1.3 1.2,-3.7 2.5,-4.4 3.4,-2 7.4,-2.1 10,1 1.8,2 1.9,5 -1.6,6.8 z"
       id="path12" /><path
       fill="#2a2a2a"
       d="m 893.6,577 -6.8,8.5 -1.3,-0.8 v -18 c 7,-1 9.6,2.2 8.1,10.4 z m 115,-7 c 2.4,10.2 4.5,20.5 6.7,31 0.1,0.3 0.7,0.6 1.4,1 -4,5.3 -7.7,5 -10.5,-1.4 a 32,32 0 0 1 2.4,-30.7 z m 45.7,6.2 c -2.7,2.5 -5.2,4.6 -7.7,6.7 l -1,-1 v -16.3 c 7.8,-0.9 11,3 8.7,10.6 z M 835,608 c -0.9,-0.7 -1.7,-1.3 -1.7,-1.9 l -0.1,-38.8 c 9.4,-1 16,6.3 15,18.2 -0.3,5 -1.6,9.8 -2.8,14.6 -1.2,5 -4.5,8 -10.4,7.9 z"
       id="path14" /></g></svg>
